<?xml version="1.0" encoding="UTF-8" standalone="no"?>
<svg
   class="card"
   face="JC"
   height="2.3in"
   preserveAspectRatio="none"
   viewBox="-120 -168 153.6 220.8"
   width="1.6in"
   version="1.1"
   id="svg77"
   sodipodi:docname="JC.svg"
   inkscape:version="1.2.2 (732a01da63, 2022-12-09)"
   xmlns:inkscape="http://www.inkscape.org/namespaces/inkscape"
   xmlns:sodipodi="http://sodipodi.sourceforge.net/DTD/sodipodi-0.dtd"
   xmlns="http://www.w3.org/2000/svg"
   xmlns:svg="http://www.w3.org/2000/svg">
  <sodipodi:namedview
     id="namedview79"
     pagecolor="#505050"
     bordercolor="#eeeeee"
     borderopacity="1"
     inkscape:showpageshadow="0"
     inkscape:pageopacity="0"
     inkscape:pagecheckerboard="0"
     inkscape:deskcolor="#505050"
     inkscape:document-units="in"
     showgrid="false"
     inkscape:zoom="128"
     inkscape:cx="81.183594"
     inkscape:cy="129.66406"
     inkscape:window-width="2560"
     inkscape:window-height="1377"
     inkscape:window-x="427"
     inkscape:window-y="1432"
     inkscape:window-maximized="1"
     inkscape:current-layer="layer1" />
  <defs
     id="defs33" />
  <g
     inkscape:groupmode="layer"
     id="layer1"
     inkscape:label="Layer 1"
     transform="translate(-37.219643,-37.208768)">
    <path
       fill="#4444ff"
       d="M 0.527229 0.59036 L 1.06822 -0.00509342 L -0.0897795 -1.11782 L -0.630529 -0.522364"
       id="path2530"
       style="display:inline"
       inkscape:label="layer-0" />
    <path
       fill="#ffcc44"
       d="M -82.4,-130.074 V 86.064 L -68.4554,71.72 c -0.0037,-43.067 -0.0122,-86.877 -0.0178,-128.4842 -0.6088,-1.289 -0.6101,-3.2037 -8e-4,-5.7478 v -0.0706 c -1.554,0.8303 -1.5629,-0.817 -1.8829,-1.9654 0,0 -1.1023,1.4647 -2.37,3.4207 -0.233,0.3594 -0.5359,0.5803 -0.8631,0.6869 l 0.2379,0.0514 c 0.7805,0.2921 1.259,0.6863 1.259,1.1202 0,0.9002 -2.0605,1.63 -4.6023,1.63 -2.5418,0 -4.6023,-0.7298 -4.6023,-1.63 0,-0.9003 2.0605,-1.63 4.6023,-1.63 0.4475,0 0.8802,0.0225 1.2892,0.0647 l 0.1352,0.0292 c -0.7507,-0.6119 -1.1052,-1.7902 -0.1567,-3.0911 1.9015,-2.608 2.0872,-3.451 2.5354,-3.912 0.5257,-0.5408 2.3605,-0.6314 4.4176,-0.2751 l -0.0057,-41.4529 h 3.8281 z m 4.9621,72.698 c 2.5104,0 4.5456,0.7298 4.5456,1.63 0,0.9002 -2.0352,1.63 -4.5456,1.63 -2.5106,0 -4.5459,-0.7298 -4.5459,-1.63 0,-0.9002 2.0353,-1.63 4.5459,-1.63 z m -0.239,3.586 c 2.2924,0 4.1507,0.7298 4.1507,1.63 0,0.9002 -1.8583,1.63 -4.1507,1.63 -2.2923,0 -4.1507,-0.7298 -4.1507,-1.63 0,-0.9002 1.8584,-1.63 4.1507,-1.63 z m 0.3477,3.26 c 2.4504,0 4.4369,0.7298 4.4369,1.63 0,0.9002 -1.9865,1.63 -4.4369,1.63 -2.4505,0 -4.437,-0.7298 -4.437,-1.63 0,-0.9002 1.9865,-1.63 4.437,-1.63 z"
       id="path1532"
       style="display:inline"
       inkscape:label="layer-1" />
    <path
       d="m -25.065997,-69.189886 c 0.0052,-0.08737 0.009,-0.167568 0.01486,-0.258762 -2.704697,-5.116539 -7.904016,-15.516034 -7.904016,-18.574612 v -9.128 c 0,-1.303999 -0.633846,-3.912 -0.633846,-5.216 0,-1.304 1.267692,-10.432 1.267692,-10.432 l -1.267692,0.652 c -2.703501,7.91101 -2.386683,16.389796 -3.13531,24.725317 -0.03399,-3.20944 -6.372383,-3.635818 -6.372383,2.006683 0,4.944277 6.299866,4.796854 9.061772,0.770174 -1.116757,1.991563 -0.349735,5.48994 0.201048,8.45919 -0.379706,6.194486 -3.583997,5.811864 -4.825897,5.766634 -0.861419,-0.03137 -1.33131,-0.436759 -1.470969,-0.991499 0.503912,1.392146 3.67917,0.960129 4.006354,-2.2685 0.478423,-4.721051 -7.606154,-2.608 -6.972308,3.259999 0.155366,1.438346 0.919941,2.524145 1.948334,3.253885 0,0 4.390128,3.26611 8.827051,1.96212 0.73128,-0.21493 1.341943,-0.57159 1.854247,-0.99252 2.015515,-0.2766 3.952676,-0.57429 5.306481,-0.7661 m 23.8977378,-47.141383 c 8.00058,15.15572 4.43692,26.064485 4.43692,39.771999 0,5.176114 3.0184,7.430054 5.8601,7.148564 5.5698202,-0.45714 13.9983602,-5.647237 21.0912302,-8.626007 2.20555,-0.605812 4.10713,-2.785825 4.10713,-6.346557 0,-1.304 -0.63389,-5.216088 -4.97842,-4.565018 0.63973,-8.619478 3.32626,-17.262081 -1.99389,-27.382981 z m -38.0307738,40.423999 c -0.330507,0.383263 -0.558867,0.734823 -0.703915,1.052368 0.148392,-0.36219 0.386244,-0.725599 0.703915,-1.052368 z"
       style="display:inline;fill:#ffcc44"
       id="path1553"
       inkscape:label="layer-2" />
    <path
       fill="#ffcc44"
       d="M -68.4576 55.259 C -55.1093 43.8453 -45.6069 31.5049 -38.819 18.4536 C -39.0563 18.9118 -39.2975 19.3728 -39.5469 19.8404 C -21.883 15.3386 -10.5468 0.0275666 1.89074 -12.9185 C 14.4059 -25.9454 27.5455 -36.937 49.7614 -35.7362 C 50.7154 -36.9013 51.6392 -38.0609 52.5357 -39.2038 C 51.9935 -39.2534 51.4573 -39.2937 50.9243 -39.3296 C 51.0708 -39.3218 51.2176 -39.3135 51.3638 -39.3059 L 51.3155 -69.9074 C 50.494 -70.3037 49.6705 -70.6653 48.8109 -71.0117 L 48.823 -39.4429 C 48.9107 -39.4382 48.9983 -39.4335 49.086 -39.4287 C 28.9238 -40.2169 15.4546 -31.1796 3.94607 -20.0821 C 6.7353 -22.7759 9.63244 -25.3455 12.7105 -27.6749 L 12.6931 -51.2286 C 10.9333 -50.2662 9.16711 -49.2985 7.40547 -48.3346 C 7.32486 -47.8226 7.14882 -47.3074 6.97218 -46.944 C 7.60603 -45.64 8.31575 -42.4641 4.4368 -44.336 C 6.33834 -40.424 3.16911 -41.076 1.90142 -41.728 C 0.699273 -41.1097 -2.2129 -40.4915 -0.88923 -43.7652 L 2.88982 -45.8634 C -0.82061 -43.8326 -4.5273 -41.8048 -8.24014 -39.772 L -8.87844 -40.1372 L -8.84575 -6.68708 C -12.5319 -2.71621 -16.2043 1.14383 -20.0547 4.57036 C -18.5721 3.24528 -17.1196 1.85165 -15.6918 0.399089 C -19.5295 -2.75895 -23.5672 -5.7926 -28.5304 -8.45817 C -29.394 -5.25685 -30.345 -2.08589 -31.395 1.06918 L -22.8644 6.92317 L -22.8411 6.94406 C -27.2761 10.5434 -31.9953 13.5029 -37.2732 15.3719 C -25.1568 -9.66493 -22.5425 -37.2136 -21.6474 -65.7916 C -23.8568 -66.8018 -23.3295 -67.5949 -25.0709 -69.1866 C -25.1162 -68.0493 -25.1045 -68.0362 -25.1655 -66.9586 C -26.4734 -22.9068 -31.3896 17.4132 -68.4554 50.4908 C -68.4509 52.204 -68.4563 52.2167 -68.4576 55.259 Z M -46.3917 -124.442 C -54.9225 -123.284 -52.9781 -111.207 -60.2154 -105.624 C -48.3864 -101.974 -42.0764 -110.245 -39.7403 -116.135 Z M 30.3137 -75.8523 L 29.7948 -75.5867 L 29.8049 -36.8686 C 30.6532 -37.1434 31.5008 -37.3972 32.3443 -37.6367 L 32.292 -75.5299 C 31.6193 -75.6381 30.9684 -75.7446 30.3137 -75.8523 Z M -48.1595 -64.8409 C -51.6591 -64.8089 -54.5901 -62.9995 -57.68 -61.94 C -58.3903 -62.0204 -59.073 -62.1617 -60.2154 -61.288 C -60.4314 -56.0476 -61.1663 -51.3772 -62.117 -46.944 C -62.1161 -45.6426 -61.2749 -45.2039 -59.5816 -45.64 C -56.4043 -43.3481 -52.3462 -38.9641 -48.5814 -36.6019 C -47.9491 -39.2358 -48.8963 -42.6804 -51.3416 -46.292 C -49.6945 -45.7242 -47.3474 -46.6633 -45.0031 -47.596 C -46.3897 -49.9027 -48.0057 -51.5491 -50.6298 -52.4908 C -47.6944 -52.495 -45.6412 -53.6662 -44.3693 -55.42 C -45.7366 -57.2532 -47.338 -58.8546 -50.0739 -59.332 C -47.7073 -60.2025 -45.8281 -61.5497 -45.637 -64.548 C -46.5141 -64.761 -47.3519 -64.8483 -48.1595 -64.8409 Z M 0.0407038 -36.3528 C 0.683214 -36.349 1.426 -36.1045 1.90138 -35.86 C 3.16907 -36.512 6.3383 -37.164 4.43676 -33.252 C 8.23983 -35.208 7.60599 -31.948 6.97214 -30.644 C 7.60599 -29.34 8.31572 -26.1641 4.43676 -28.036 C 6.3383 -24.124 3.16907 -24.776 1.90138 -25.428 C 0.633695 -24.776 -2.53553 -24.124 -0.633995 -28.036 C -4.43707 -26.08 -3.80322 -29.34 -3.16938 -30.644 C -3.80322 -31.948 -4.43707 -35.208 -0.633995 -33.252 C -1.82245 -35.697 -1.03015 -36.3592 0.0407038 -36.3528 Z M 0.0407038 -20.0528 C 0.683214 -20.049 1.426 -19.8045 1.90138 -19.56 C 2.39996 -19.8164 3.19274 -20.0728 3.85541 -20.0515 L 1.98606 -18.1569 C 2.10665 -18.2778 2.22883 -18.3969 2.34978 -18.5173 C 1.73272 -17.9037 1.12063 -17.2853 0.513116 -16.6629 C 0.531586 -16.6819 0.54985 -16.701 0.56833 -16.72 L -3.64822 -12.4466 C -3.64069 -13.1037 -3.40509 -13.8591 -3.16938 -14.344 C -3.80322 -15.648 -4.43707 -18.908 -0.633995 -16.952 C -1.82245 -19.397 -1.03015 -20.0592 0.0407038 -20.0528 Z"
       id="path1643"
       style="display:inline"
       inkscape:label="layer-3" />
    <path
       fill="#ff0000"
       d="M -51.1552 -130.4 L -35.4955 -110.84 C -12.5934 -115.726 9.11561 -112.887 30.4244 -109.536 L 47.327 -130.4 Z M 29.7636 -75.5148 L -10.1417 -54.768 L -21.7809 -61.5824 C -21.8918 -58.9831 -22.0074 -56.4124 -22.1174 -53.9135 L -8.87398 -46.292 L 29.7972 -67.1285 L 29.7906 -67.2342 Z M 53.8836 -68.6108 L 53.9173 -40.7905 C 58.1969 -45.7819 62.9984 -50.59 68.4472 -55.2303 L 68.4586 -57.3836 C 64.047 -61.6417 59.7262 -65.4723 53.8836 -68.6108 Z M 29.7888 -60.621 L 15.2411 -52.6054 L 15.2012 -29.4984 C 19.6191 -32.542 24.4341 -35.1061 29.8034 -36.8678 Z M -22.5574 -47.4019 C -23.3047 -36.8235 -24.5393 -26.4675 -26.6957 -16.4271 C -20.9645 -14.0349 -16.0042 -10.8398 -11.4383 -7.23593 L -11.4368 -41.5095 Z M -62.117 -46.944 C -64.2188 -46.2189 -66.305 -46.1075 -68.416 -46.618 L -68.4356 -1.74741 C -57.1749 -15.5375 -54.836 -27.514 -52.4285 -39.5089 C -54.9744 -41.6745 -57.4721 -44.1183 -59.5816 -45.64 C -61.2749 -45.2039 -62.1161 -45.6426 -62.117 -46.944 Z"
       id="path1647"
       style="display:inline"
       inkscape:label="layer-4" />
    <path
       fill="#ff0000"
       d="M -41.752 -65.2634 L -45.7608 -64.0045 L -46.3159 -62.1942 L -41.4984 -63.707 Z M -41.312 -60.6844 L -48.1605 -60.27 L -49.4591 -59.3422 L -48.0803 -58.7073 L -41.1617 -59.1257 Z M -44.7231 -55.8598 C -44.7978 -55.5107 -45.0375 -54.5067 -45.1874 -54.322 L -41.1587 -54.063 L -41.1577 -55.6306 Z M -45.1874 -54.322 L -45.2683 -54.3271 C -45.2471 -54.2783 -45.2191 -54.2829 -45.1874 -54.322 Z M -49.7419 -52.8263 C -50.5065 -52.8145 -48.3606 -51.3147 -47.8921 -50.9548 L -41.2949 -50.1564 L -41.2347 -51.7247 L -48.9887 -52.663 C -49.359 -52.7796 -49.6003 -52.8284 -49.7419 -52.8263 Z M -45.5575 -48.5129 C -43.9816 -48.0358 -47.076 -47.0375 -46.3407 -47.0515 L -41.6609 -46.3284 L -41.4747 -47.882 Z M 4.42339 -46.6735 L 0.625029 -44.69 C 0.999888 -44.4649 1.43603 -44.336 1.90138 -44.336 C 3.21285 -44.336 4.29184 -45.3603 4.42339 -46.6735 Z M -51.0081 -45.913 L -50.1378 -44.1498 L -42.0823 -42.5725 L -41.9686 -44.1429 Z M -49.1093 -41.9603 L -48.6579 -40.2315 L -42.6856 -38.9231 L -42.387 -40.2317 Z M 1.90138 -33.252 C 0.501134 -33.252 -0.633995 -32.0844 -0.633995 -30.644 C -0.633995 -29.2036 0.501134 -28.036 1.90138 -28.036 C 3.30164 -28.036 4.43676 -29.2036 4.43676 -30.644 C 4.43676 -32.0844 3.30164 -33.252 1.90138 -33.252 Z"
       id="path1528"
       style="display:inline"
       inkscape:label="layer-5" />
    <path
       fill="#4444ff"
       d="M 32.3378 -68.5769 L 32.3252 -63.1892 L 33.3463 -61.614 L 32.318 -60.0273 L 32.3054 -54.6012 L 36.8505 -61.614 Z M 48.7571 -69.1721 L 43.8587 -61.614 L 48.8059 -53.9808 L 48.7886 -59.4143 L 47.3629 -61.614 L 48.7745 -63.7918 Z M 35.1723 -75.0169 L 40.3547 -67.0208 L 44.0489 -72.7207 L 41.0478 -73.497 L 40.3547 -72.4275 L 39.3827 -73.9279 Z M 40.3547 -56.2072 L 35.4075 -48.574 L 40.3547 -40.9408 L 42.8282 -44.7573 L 45.3017 -48.574 L 42.8282 -52.3907 Z M 40.3547 -50.8005 L 40.4023 -50.7271 L 41.7975 -48.574 L 40.4023 -46.4209 L 40.3547 -46.3475 L 38.9117 -48.574 Z M 32.3242 -37.6312 C 33.201 -37.8586 34.0944 -38.0763 35.0508 -38.2547 L 32.3608 -42.3746 Z M 46.433 -39.4765 L 48.8059 -43.1698 L 48.8231 -39.444 C 48.0321 -39.4578 47.2346 -39.4713 46.433 -39.4765 Z M 44.2213 -28.3895 C 42.6919 -28.3561 41.1127 -28.3091 39.6894 -28.117 L 38.8954 -28.0098 L 39.5515 -23.2626 L 40.3027 -23.3342 C 40.5715 -23.3598 40.841 -23.3844 41.1117 -23.4077 L 42.1052 -25.1113 C 41.7043 -25.08 41.3072 -25.0454 40.9105 -25.0108 L 40.6937 -26.5787 C 41.499 -26.6703 42.3186 -26.7431 43.1552 -26.79 L 46.4248 -31.7651 L 45.6332 -31.7611 C 41.1496 -31.7386 37.0832 -31.1789 33.3111 -30.2047 L 32.4943 -29.9938 L 34.3963 -23.8179 C 31.576 -23.0272 28.9614 -21.9553 26.4953 -20.6333 L 25.6733 -21.9454 C 26.9418 -22.6307 28.2335 -23.2663 29.5695 -23.7949 L 30.3875 -24.1187 L 28.2426 -28.4815 L 27.5649 -28.1949 C 23.7629 -26.5875 20.2862 -24.4977 17.0159 -22.0496 L 16.3531 -21.5534 L 20.192 -16.4979 C 17.7504 -14.6221 15.379 -12.4933 12.9934 -10.1506 L 11.905 -11.3361 C 13.0773 -12.4749 14.2521 -13.579 15.4261 -14.6211 L 16.0332 -15.16 L 12.9258 -18.7748 L 12.3343 -18.2619 C 9.32159 -15.6504 6.42346 -12.7607 3.50457 -9.7232 L 2.73727 -9.03529 L 7.30615 -4.35465 C 4.81807 -1.75603 2.31043 1.03819 -0.3245 3.88857 L -1.483 2.75903 C -0.797611 2.03146 -0.121284 1.30439 0.527229 0.59036 L 1.06822 -0.00509342 L -0.0897795 -1.11782 L -0.630529 -0.522364 C -1.45906 0.38987 -2.28947 1.30309 -3.16739 2.21477 L -3.73736 2.80665 L -0.265573 6.1917 L 0.279633 5.60541 C 3.33217 2.32189 6.17163 -0.895446 8.97792 -3.79179 L 9.53724 -4.36916 L 5.03322 -8.98359 C 7.6072 -11.6512 10.1597 -14.1853 12.7726 -16.4928 L 13.7912 -15.3077 C 12.603 -14.2357 11.416 -13.1241 10.2345 -11.9611 L 9.66574 -11.4013 L 12.9355 -7.83928 L 13.5119 -8.41284 C 16.2757 -11.1625 18.9832 -13.6089 21.7751 -15.689 L 22.4407 -16.1849 L 18.6242 -21.2106 C 21.4129 -23.237 24.3461 -24.9811 27.5008 -26.3785 L 28.1973 -24.9617 C 26.8087 -24.3702 25.4553 -23.7118 24.1513 -22.9746 L 23.4066 -22.5536 L 25.9484 -18.4977 L 26.5944 -18.8591 C 29.3775 -20.416 32.3331 -21.6363 35.59 -22.4736 L 36.4078 -22.6837 L 34.5214 -28.8097 C 37.7129 -29.573 41.1265 -30.029 44.8496 -30.1033 L 44.8533 -29.4477"
       id="path1675"
       style="display:inline"
       inkscape:label="layer-7" />
    <path
       fill="#4444ff"
       d="M -28.1101 -96.496 C -28.1101 -95.0556 -28.6777 -93.888 -29.3778 -93.888 C -30.0779 -93.888 -30.6455 -95.0556 -30.6455 -96.496 C -30.6455 -97.9364 -30.0779 -99.104 -29.3778 -99.104 C -28.6777 -99.104 -28.1101 -97.9364 -28.1101 -96.496 Z M -10.2521 -96.231 C -10.2521 -94.7907 -10.8196 -93.623 -11.5198 -93.623 C -12.2199 -93.623 -12.7874 -94.7907 -12.7874 -96.231 C -12.7874 -97.6714 -12.2199 -98.839 -11.5198 -98.839 C -10.8196 -98.839 -10.2521 -97.6714 -10.2521 -96.231 Z"
       id="path1677"
       style="display:inline"
       inkscape:label="layer-8" />
    <path
       fill="#4444ff"
       d="M -6.36982 -39.772 L 10.1528 -39.772 L 10.1268 -37.816 L -6.31778 -37.816 Z M -6.36982 -22.82 L 6.79625 -22.82 L 4.87078 -20.864 L -6.26574 -20.864 Z M -37.2776 15.3637 C -34.9963 10.6645 -33.0717 5.91493 -31.4012 1.08695 L -22.8554 6.93768 C -27.2885 10.5594 -32.0163 13.5262 -37.2776 15.3637 Z M -39.2985 -66.504 C -38.8854 -57.0253 -39.2817 -47.4653 -40.5662 -37.816 L -48.553 -40.0062 C -48.3285 -38.7741 -48.3354 -37.6267 -48.5814 -36.6019 C -49.8704 -37.4107 -51.1937 -38.4564 -52.4647 -39.5397 C -54.8361 -27.514 -57.1749 -15.5375 -68.4356 -1.78522 L -68.4349 27.6165 C -50.8547 11.0968 -36.1749 -25.3226 -37.9122 -65.4842"
       id="path1524"
       style="display:inline"
       inkscape:label="layer-9" />
    <path
       id="path1512"
       style="display:inline"
       d="M 22.6125 -45.3011 C 22.6521 -43.4395 23.0483 -43.3207 23.4048 -42.5285 L 21.3448 -42.5285 C 21.7013 -43.3207 22.0975 -43.4395 22.1371 -45.3011 C 22.1371 -45.3294 22.122 -45.3556 22.0975 -45.3697 C 22.073 -45.3839 22.0428 -45.3839 22.0183 -45.3697 C 21.9937 -45.3556 21.9786 -45.3294 21.9786 -45.3011 C 21.8427 -44.5642 21.2307 -44.0091 20.484 -43.9453 C 19.7372 -43.8816 19.0399 -44.3249 18.781 -45.0281 C 18.5221 -45.7314 18.7653 -46.5209 19.3752 -46.9565 C 19.985 -47.3921 20.8109 -47.3663 21.3923 -46.8934 C 21.4239 -46.8698 21.468 -46.8729 21.4959 -46.9008 C 21.5238 -46.9286 21.5269 -46.9728 21.5033 -47.0043 C 20.7715 -47.4028 20.4032 -48.2467 20.6088 -49.054 C 20.8145 -49.8614 21.5416 -50.4265 22.3748 -50.4265 C 23.208 -50.4265 23.9351 -49.8614 24.1408 -49.054 C 24.3464 -48.2467 23.9781 -47.4028 23.2463 -47.0043 C 23.2227 -46.9728 23.2258 -46.9286 23.2537 -46.9008 C 23.2816 -46.8729 23.3257 -46.8698 23.3573 -46.8934 C 23.9387 -47.3663 24.7646 -47.3921 25.3744 -46.9565 C 25.9843 -46.5209 26.2275 -45.7314 25.9686 -45.0281 C 25.7097 -44.3249 25.0124 -43.8816 24.2656 -43.9453 C 23.5189 -44.0091 22.9069 -44.5642 22.771 -45.3011 C 22.771 -45.3294 22.7559 -45.3556 22.7313 -45.3697 C 22.7068 -45.3839 22.6766 -45.3839 22.6521 -45.3697 C 22.6276 -45.3556 22.6125 -45.3294 22.6125 -45.3011 Z M -18.2072 -19.0907 C -18.1676 -17.2291 -17.7714 -17.1103 -17.4149 -16.3181 L -19.4749 -16.3181 C -19.1184 -17.1103 -18.7222 -17.2291 -18.6826 -19.0907 C -18.6826 -19.119 -18.6977 -19.1452 -18.7222 -19.1593 C -18.7467 -19.1735 -18.7769 -19.1735 -18.8014 -19.1593 C -18.826 -19.1452 -18.8411 -19.119 -18.8411 -19.0907 C -18.977 -18.3538 -19.589 -17.7987 -20.3357 -17.7349 C -21.0825 -17.6712 -21.7798 -18.1145 -22.0387 -18.8177 C -22.2976 -19.521 -22.0544 -20.3105 -21.4445 -20.7461 C -20.8347 -21.1817 -20.0088 -21.1559 -19.4274 -20.683 C -19.3958 -20.6594 -19.3517 -20.6625 -19.3238 -20.6904 C -19.2959 -20.7182 -19.2928 -20.7624 -19.3164 -20.7939 C -20.0482 -21.1924 -20.4165 -22.0363 -20.2109 -22.8436 C -20.0052 -23.651 -19.2781 -24.2161 -18.4449 -24.2161 C -17.6117 -24.2161 -16.8846 -23.651 -16.6789 -22.8436 C -16.4733 -22.0363 -16.8416 -21.1924 -17.5734 -20.7939 C -17.597 -20.7624 -17.5939 -20.7182 -17.566 -20.6904 C -17.5381 -20.6625 -17.494 -20.6594 -17.4624 -20.683 C -16.881 -21.1559 -16.0551 -21.1817 -15.4453 -20.7461 C -14.8354 -20.3105 -14.5922 -19.521 -14.8511 -18.8177 C -15.11 -18.1145 -15.8073 -17.6712 -16.5541 -17.7349 C -17.3008 -17.7987 -17.9128 -18.3538 -18.0487 -19.0907 C -18.0487 -19.1345 -18.0842 -19.1699 -18.128 -19.1699 C -18.1717 -19.1699 -18.2072 -19.1345 -18.2072 -19.0907 Z M -18.2072 -34.2171 C -18.1676 -32.3555 -17.7714 -32.2367 -17.4149 -31.4445 L -19.4749 -31.4445 C -19.1184 -32.2367 -18.7222 -32.3555 -18.6826 -34.2171 C -18.6826 -34.2454 -18.6977 -34.2716 -18.7222 -34.2857 C -18.7467 -34.2999 -18.7769 -34.2999 -18.8014 -34.2857 C -18.826 -34.2716 -18.8411 -34.2454 -18.8411 -34.2171 C -18.977 -33.4802 -19.589 -32.9251 -20.3357 -32.8613 C -21.0825 -32.7976 -21.7798 -33.2409 -22.0387 -33.9441 C -22.2976 -34.6474 -22.0544 -35.4369 -21.4445 -35.8725 C -20.8347 -36.3081 -20.0088 -36.2823 -19.4274 -35.8094 C -19.3958 -35.7858 -19.3517 -35.7889 -19.3238 -35.8168 C -19.2959 -35.8446 -19.2928 -35.8888 -19.3164 -35.9203 C -20.0482 -36.3188 -20.4165 -37.1627 -20.2109 -37.97 C -20.0052 -38.7774 -19.2781 -39.3425 -18.4449 -39.3425 C -17.6117 -39.3425 -16.8846 -38.7774 -16.6789 -37.97 C -16.4733 -37.1627 -16.8416 -36.3188 -17.5734 -35.9203 C -17.597 -35.8888 -17.5939 -35.8446 -17.566 -35.8168 C -17.5381 -35.7889 -17.494 -35.7858 -17.4624 -35.8094 C -16.881 -36.2823 -16.0551 -36.3081 -15.4453 -35.8725 C -14.8354 -35.4369 -14.5922 -34.6474 -14.8511 -33.9441 C -15.11 -33.2409 -15.8073 -32.7976 -16.5541 -32.8613 C -17.3008 -32.9251 -17.9128 -33.4802 -18.0487 -34.2171 C -18.0487 -34.2609 -18.0842 -34.2963 -18.128 -34.2963 C -18.1717 -34.2963 -18.2072 -34.2609 -18.2072 -34.2171 Z"
       inkscape:label="layer-10" />
    <path
       id="path1682"
       style="display:inline"
       inkscape:label="layer-11"
       d="M -68.4013 -4.4336 L -66.3457 -4.4336 L -65.2008 -5.9984 L -68.3753 -5.9984 Z M -68.4273 -8.3456 L -63.5356 -8.3456 L -62.7508 -9.9104 L -68.5314 -9.9104 Z M -68.4169 -16.1696 L -59.2163 -16.1696 L -58.5918 -17.7344 L -68.4905 -17.7344 Z M -68.4013 -12.2576 L -61.2198 -12.2576 L -60.4392 -13.8224 L -68.4273 -13.8224 Z M -68.4169 -20.0816 L -57.551 -20.0816 L -56.9786 -21.6464 L -68.4169 -21.6464 Z M -68.3433 -23.9936 L -57.68 -23.9936 C -57.2558 -23.9874 -56.9086 -24.3395 -56.9086 -24.776 C -56.9086 -25.2125 -57.2558 -25.5646 -57.68 -25.5584 L -68.4169 -25.5584 Z M -68.4537 -28.2968 L -60.2154 -28.2968 C -59.7011 -28.2893 -59.7011 -29.0867 -60.2154 -29.0792 L -68.4537 -29.0792 Z M -68.4537 -32.2088 L -62.7508 -32.2088 C -62.2365 -32.2013 -62.2365 -32.9987 -62.7508 -32.9912 L -68.5273 -32.9912 Z M -49.9939 -37.4332 L -50.1588 -36.6251 C -52.4102 -25.5853 -55.2536 -13.845 -65.4966 -0.851675 L -65.6665 -0.63621 L -65.6665 20.6806 L -64.3124 18.9437 C -54.6262 6.51754 -46.3182 -12.5929 -42.6156 -34.6719 L -42.4972 -35.3766 Z M -48.8411 -35.4973 L -44.2425 -34.2359 C -47.7825 -13.7405 -55.3464 4.1106 -64.1453 16.1525 L -64.1453 -0.0901599 C -54.0973 -12.9279 -51.0698 -24.696 -48.8411 -35.4973 Z M 13.2264 -58.3068 L 10.0502 -65.3078 L 2.46325 -61.3535 L 5.72713 -54.1591 M 7.92291 -61.288 C 8.79807 -61.288 9.50752 -60.5582 9.50752 -59.658 C 9.50752 -58.7578 8.79807 -58.028 7.92291 -58.028 C 7.04776 -58.028 6.3383 -58.7578 6.3383 -59.658 C 6.3383 -60.5582 7.04776 -61.288 7.92291 -61.288 Z M 15.2208 -68.0218 L 18.4102 -60.9915 L 25.9387 -65.0747 L 22.8423 -71.8998 Z M 20.5998 -68.134 C 21.475 -68.134 22.1844 -67.4042 22.1844 -66.504 C 22.1844 -65.6038 21.475 -64.874 20.5998 -64.874 C 19.7247 -64.874 19.0152 -65.6038 19.0152 -66.504 C 19.0152 -67.4042 19.7247 -68.134 20.5998 -68.134 Z M -8.78213 -55.4504 L -5.48235 -48.1769 L 2.08867 -52.1663 L -1.20912 -59.4354 Z M -3.4863 -55.746 C -2.61114 -55.746 -1.90169 -55.0162 -1.90169 -54.116 C -1.90169 -53.2158 -2.61114 -52.486 -3.4863 -52.486 C -4.36145 -52.486 -5.07091 -53.2158 -5.07091 -54.116 C -5.07091 -55.0162 -4.36145 -55.746 -3.4863 -55.746 Z M -17.6301 -59.1359 L -20.9188 -53.2382 L -13.5123 -48.9459 L -10.2284 -54.835 Z M -14.2336 -55.0543 C -13.7298 -54.3182 -13.9016 -53.3014 -14.6172 -52.7831 C -15.3328 -52.2649 -16.3213 -52.4416 -16.8251 -53.1777 C -17.3289 -53.9138 -17.1571 -54.9306 -16.4415 -55.4489 C -15.7259 -55.9671 -14.7374 -55.7904 -14.2336 -55.0543 Z" />
    <path
       fill="#000000"
       d="M -8.24014 -39.772 L -22.5467 -47.4891 C -22.4541 -48.7348 -22.3778 -49.8955 -22.3285 -51.0884 L -8.87398 -43.032 L 29.7955 -63.9383 L 29.7888 -60.6715 Z M -26.6788 -16.5074 C -26.9576 -15.0038 -27.3014 -13.4723 -27.6729 -11.9735 C -22.1141 -9.38288 -17.3894 -5.96241 -12.8529 -2.39497 C -11.5378 -3.79823 -10.189 -5.23865 -8.85618 -6.64918 L -8.87104 -40.1332 L -11.4392 -41.4697 L -11.4384 -7.2359 C -16.0043 -10.8398 -20.9646 -14.0348 -26.6788 -16.5074 Z M 12.7104 -27.6749 L 12.6338 -51.1961 L 15.1807 -52.5723 L 15.2329 -29.5203 C 14.4033 -28.9294 13.5672 -28.323 12.7104 -27.6749 Z M 53.9001 -68.6017 C 53.1002 -69.0494 52.2467 -69.4811 51.3499 -69.8913 L 51.326 -39.3092 C 51.6976 -39.2626 52.087 -39.2303 52.5139 -39.1776 C 52.9806 -39.6832 53.4183 -40.204 53.8694 -40.7348 Z M -40.5662 -37.816 C -39.2817 -47.4653 -38.8854 -57.0253 -39.2985 -66.504 L -41.7007 -65.4847 C -41.6256 -64.8995 -41.5583 -64.3035 -41.4983 -63.7072 C -40.7218 -55.2772 -41.4885 -45.7328 -42.8462 -38.4266 Z M 32.5533 -112.235 L 30.8651 -112.501 C 17.5163 -114.6 3.87222 -116.53 -10.2162 -116.46 C -18.6692 -116.418 -27.2822 -115.655 -36.0875 -113.777 L -37.6237 -113.463 L -35.4955 -110.84 C -12.5934 -115.726 9.11561 -112.887 30.4244 -109.536 L 32.5715 -112.186"
       id="path1520"
       style="display:inline"
       inkscape:label="layer-12" />
    <path
       stroke="#4444ff"
       stroke-linecap="round"
       stroke-linejoin="round"
       stroke-width="0.7714300963794452"
       fill="none"
       d="M 34.425 -114.579 L 31.2482 -115.079 C 17.8725 -117.182 4.08116 -119.144 -10.237 -119.07 C -18.8279 -119.026 -27.6085 -118.249 -36.6025 -116.33 L -39.4147 -115.73 M -68.4615 55.2624 C -28.6399 21.2147 -23.0445 -20.9727 -21.6475 -65.7916 M -37.3049 15.4004 C -6.49356 4.48172 5.27997 -43.5237 52.4788 -39.1943 M -39.5777 19.9067 C -21.8829 15.3386 -10.5468 0.0275666 1.89074 -12.9185 C 14.4059 -25.9454 27.5456 -36.937 49.7022 -35.7381 M -25.0989 -69.2134 C -26.3123 -24.2815 -30.7574 16.849 -68.4554 50.4909 M 53.8767 -68.5992 L 53.8767 -40.7464 M 51.3413 -69.8839 L 51.3413 -39.327 M 48.8059 -71.008 L 48.8059 -39.4595 M 32.3259 -75.5314 L 32.3259 -37.6426 M 29.7906 -75.9328 L 29.7906 -36.8666 M 30.2154 -75.8612 C 51.1748 -72.6271 59.63 -65.9829 68.4618 -57.3025 M -30.2841 -1.92297 C -26.7107 -0.0804451 -23.5714 2.32641 -20.4485 4.75453 M -28.5137 -8.45849 C -23.5673 -5.79253 -19.5294 -2.75885 -15.7154 0.365394 M -27.6783 -11.9998 C -22.1141 -9.38288 -17.3894 -5.96241 -12.8115 -2.40141 M -26.7231 -16.4731 C -20.9646 -14.0348 -16.0043 -10.8398 -11.4674 -7.24305 M -22.0888 -53.9752 L -8.87398 -46.292 L 29.7971 -67.1285 M -22.3504 -51.1184 L -8.87398 -43.032 L 29.8003 -63.8702 M -22.5573 -47.4019 L -8.24014 -39.772 L 29.7871 -60.592 M -11.4094 -41.4467 L -11.4094 -7.22876 M -8.87398 -40.1597 L -8.87398 -6.6042 M -6.3386 -40.8221 L -6.3386 -9.46201 M 10.1414 -49.8368 L 10.1414 -25.6247 M 12.6767 -51.2152 L 12.6767 -27.6497 M 15.2121 -52.5668 L 15.2121 -29.5234 M -21.7683 -61.6021 L -10.1417 -54.768 L 30.3224 -75.857 M 4.43676 -30.644 C 4.43676 -32.0844 3.30164 -33.252 1.90138 -33.252 C 0.501134 -33.252 -0.633995 -32.0844 -0.633995 -30.644 C -0.633995 -29.2036 0.501134 -28.036 1.90138 -28.036 C 3.30164 -28.036 4.43676 -29.2036 4.43676 -30.644 Z M -0.633995 -33.252 C -2.53553 -37.164 0.633695 -36.512 1.90138 -35.86 C 3.16907 -36.512 6.3383 -37.164 4.43676 -33.252 C 8.23983 -35.208 7.60599 -31.948 6.97214 -30.644 C 7.60599 -29.34 8.31572 -26.1641 4.43676 -28.036 C 6.3383 -24.124 3.16907 -24.776 1.90138 -25.428 C 0.633695 -24.776 -2.53553 -24.124 -0.633995 -28.036 C -4.43707 -26.08 -3.80322 -29.34 -3.16938 -30.644 C -3.80322 -31.948 -4.43707 -35.208 -0.633995 -33.252 Z M -3.64833 -12.4466 C -3.6408 -13.1037 -3.40509 -13.8591 -3.16938 -14.344 C -3.80322 -15.648 -4.43707 -18.908 -0.633995 -16.952 C -2.53553 -20.864 0.633695 -20.212 1.90138 -19.56 C 2.39996 -19.8164 3.19265 -20.0729 3.85533 -20.0516 M 0.625094 -44.69 C 0.999952 -44.465 1.43603 -44.336 1.90138 -44.336 C 3.21285 -44.336 4.29174 -45.3603 4.42329 -46.6735 M 7.41206 -48.3742 C 7.33451 -47.8493 7.15333 -47.3167 6.97214 -46.944 C 7.60599 -45.64 8.31572 -42.4641 4.43676 -44.336 C 6.3383 -40.424 3.16907 -41.076 1.90138 -41.728 C 0.699237 -41.1097 -2.2129 -40.4914 -0.889234 -43.7652 M -31.3763 1.08609 L -22.8645 6.9232 M 32.3719 -73.931 L 48.8221 -48.5491 M 48.8516 -48.6446 L 42.8121 -39.3257 M 32.4298 -47.7618 L 38.2208 -38.8264 M 46.9037 -71.719 C 42.0594 -64.2444 37.1227 -56.6272 32.4505 -49.4182 M 32.3957 -42.4076 L 35.0982 -38.2377 M 46.4184 -39.4835 L 48.8059 -43.1672 M -26.7579 0.0880461 L -25.1598 -3.00574 C -23.6252 -5.6419 -20.1434 -3.45223 -21.541 -0.771886 L -23.3742 2.41999 M -21.541 -0.771886 C -20.0064 -3.40806 -16.8042 -1.07919 -18.2019 1.60116 L -19.7367 4.27359 M -30.2841 -1.92297 L -28.499 -5.3788 C -26.9644 -8.01497 -23.7622 -5.68608 -25.1598 -3.00574 M -68.4145 27.714 C -50.8518 11.0963 -36.1707 -25.333 -37.9129 -65.5014 M -68.4157 -1.71662 C -57.1749 -15.5375 -54.8361 -27.514 -52.4251 -39.5054 M -60.2154 -61.288 C -60.4314 -56.0476 -61.1663 -51.3772 -62.117 -46.944 M -60.2154 -61.288 C -59.073 -62.1617 -58.3903 -62.0204 -57.68 -61.94 C -56.8431 -54.9082 -58.3375 -50.4101 -59.5816 -45.64 C -61.2749 -45.2039 -62.1161 -45.6426 -62.117 -46.944 M -57.68 -61.94 C -53.877 -63.244 -50.3149 -65.6839 -45.637 -64.548 C -45.6959 -63.6239 -45.9152 -62.8566 -46.2597 -62.2118 C -47.0329 -60.7645 -48.4368 -59.9342 -50.0739 -59.332 C -47.338 -58.8546 -45.7366 -57.2532 -44.3693 -55.42 C -45.6412 -53.6662 -47.6943 -52.495 -50.6297 -52.4908 C -48.0057 -51.5491 -46.3897 -49.9027 -45.0031 -47.596 C -47.3474 -46.6633 -49.6945 -45.7242 -51.3416 -46.292 C -48.8963 -42.6804 -47.9491 -39.2358 -48.5814 -36.6019 C -52.3462 -38.9641 -56.4043 -43.3481 -59.5816 -45.64 M -48.351 -64.8265 C -50.8824 -61.7357 -53.7449 -59.2427 -57.4311 -58.2368 L -57.3913 -57.9742 C -53.9494 -57.7369 -50.6697 -57.0809 -48.1724 -55.5099 C -51.2843 -54.1125 -54.4218 -53.4591 -57.6788 -53.8927 L -57.6985 -53.5337 C -54.7442 -52.3211 -51.3456 -51.8403 -49.4401 -48.9 C -52.9854 -48.3975 -55.6602 -49.1864 -58.4353 -49.9079 L -58.5975 -49.2676 C -55.5619 -46.2555 -53.1309 -42.6534 -51.2733 -38.4916 M -30.4669 -66.153 C -28.4531 -66.4695 -26.5116 -66.7682 -25.1524 -66.9566 M -39.2323 -64.7918 C -38.8787 -64.831 -37.9625 -64.9694 -36.7369 -65.1611 M -45.7879 -63.7227 L -39.7365 -66.3163 L -39.2755 -65.954 C -38.9011 -56.6556 -39.3065 -47.2787 -40.5662 -37.816 L -48.5502 -40.006 M -41.7003 -65.495 C -41.6256 -64.8995 -41.5583 -64.3035 -41.4983 -63.7072 C -40.7218 -55.2772 -41.4885 -45.7328 -42.8558 -38.4145 M -51.1552 -130.4 L -35.4955 -110.84 C -12.5934 -115.726 9.11561 -112.887 30.4244 -109.536 L 47.327 -130.4 M 32.5533 -112.235 L 30.8651 -112.501 C 17.5163 -114.6 3.87222 -116.53 -10.2162 -116.46 C -18.6692 -116.418 -27.2822 -115.655 -36.0875 -113.777 L -37.638 -113.446"
       id="path1685"
       style="display:inline"
       inkscape:label="layer-16" />
    <path
       stroke="#4444ff"
       stroke-linecap="round"
       stroke-linejoin="round"
       stroke-width="0.7714300963794452"
       fill="none"
       d="M -28.5232 -76.284 C -27.8893 -73.024 -27.8893 -66.504 -32.3262 -65.2 C -36.7632 -63.896 -41.2001 -67.156 -41.2001 -67.156 M -73.5262 -56.5816 L -73.5262 -58.134 M -73.5262 -49.7565 L -73.5262 -54.9757 M -42.4678 -13.692 C -42.4678 -13.1519 -42.8934 -12.714 -43.4185 -12.714 C -43.9436 -12.714 -44.3693 -13.1519 -44.3693 -13.692 C -44.3693 -14.2321 -43.9436 -14.67 -43.4185 -14.67 C -42.8934 -14.67 -42.4678 -14.2321 -42.4678 -13.692 Z M -42.4678 -13.692 C -38.6647 -18.908 -32.3262 -13.04 -31.0586 -14.996 M -42.4678 -13.04 C -41.2102 -6.64961 -33.2886 -9.49841 -32.9601 -7.172 M -42.0916 -13.5351 C -37.9226 -15.8691 -31.6924 -9.78 -31.0586 -14.996 M -32.9601 -7.172 C -32.3262 -11.084 -41.3687 -9.8275 -42.1404 -13.2019 C -39.0106 -10.003 -33.5939 -9.128 -32.3262 -10.432 M -32.3262 -10.432 C -31.8152 -13.1678 -40.3635 -14.7635 -42.4678 -13.04 M -40.2559 -22.8036 C -40.226 -22.2643 -40.6246 -21.8022 -41.146 -21.7713 C -41.6675 -21.7404 -42.1144 -22.1526 -42.1443 -22.6918 C -42.1741 -23.2311 -41.7756 -23.6932 -41.2541 -23.7241 C -40.7326 -23.755 -40.2857 -23.3428 -40.2559 -22.8036 Z M -40.2559 -22.8036 C -36.7673 -28.2346 -30.1485 -22.7487 -28.9976 -24.776 M -40.2199 -22.1527 C -38.6179 -15.8466 -30.9085 -19.1563 -30.4537 -16.853 M -39.8737 -22.669 C -35.8624 -25.2443 -29.3389 -19.5313 -28.9976 -24.776 M -30.4537 -16.853 C -30.0404 -20.7959 -38.9509 -19.01 -39.9037 -22.3336 C -36.6188 -19.3238 -31.1912 -18.7686 -30.0044 -20.145 M -30.0044 -20.145 C -29.648 -22.9064 -38.2254 -23.997 -40.2199 -22.1527 M -38.3983 -32.8211 C -38.3583 -32.2827 -38.7289 -31.8111 -39.2261 -31.7678 C -39.7233 -31.7244 -40.1588 -32.1258 -40.1988 -32.6642 C -40.2388 -33.2026 -39.8682 -33.6741 -39.371 -33.7175 C -38.8738 -33.7608 -38.4383 -33.3595 -38.3983 -32.8211 Z M -38.3983 -32.8211 C -35.1837 -38.334 -28.7474 -33.0079 -27.6919 -35.0622 M -38.35 -32.1712 C -36.6859 -25.9051 -29.3962 -29.3983 -28.9129 -27.1065 M -38.0305 -32.6957 C -34.2559 -35.3661 -27.9057 -29.8107 -27.6919 -35.0622 M -28.9129 -27.1065 C -28.6025 -31.0582 -37.0714 -29.0597 -38.052 -32.3596 C -34.8516 -29.4292 -29.6579 -29.0039 -28.5542 -30.4083 M -28.5542 -30.4083 C -28.273 -33.1775 -36.4852 -34.0627 -38.35 -32.1712 M -36.9393 -41.7594 C -36.8599 -41.2267 -37.1791 -40.7224 -37.6522 -40.633 C -38.1254 -40.5436 -38.5733 -40.9029 -38.6527 -41.4356 C -38.7321 -41.9683 -38.4129 -42.4726 -37.9398 -42.562 C -37.4667 -42.6514 -37.0187 -42.292 -36.9393 -41.7594 Z M -36.9393 -41.7594 C -34.2795 -47.5509 -27.7055 -42.8431 -26.8508 -44.988 M -36.8435 -41.1164 C -34.7708 -35.0282 -28.0519 -39.1865 -27.4139 -36.9482 M -36.5773 -41.6686 C -33.164 -44.6803 -26.6551 -39.736 -26.8508 -44.988 M -27.4139 -36.9482 C -27.4179 -40.9141 -35.3809 -38.1353 -36.5723 -41.3318 C -33.2819 -38.7099 -28.2726 -38.7693 -27.3221 -40.2711 M -27.3221 -40.2711 C -27.2638 -43.0562 -35.2008 -43.1744 -36.8435 -41.1164 M -35.9178 -51.8456 C -35.8394 -51.3129 -36.1544 -50.8086 -36.6213 -50.7192 C -37.0882 -50.6298 -37.5302 -50.9891 -37.6085 -51.5218 C -37.6869 -52.0545 -37.3719 -52.5588 -36.905 -52.6482 C -36.4382 -52.7376 -35.9962 -52.3782 -35.9178 -51.8456 Z M -35.9178 -51.8456 C -33.2931 -57.6372 -26.8061 -52.9293 -25.9627 -55.0742 M -35.8232 -51.2026 C -33.778 -45.1145 -27.1479 -49.2728 -26.5183 -47.0344 M -35.5606 -51.7548 C -32.1924 -54.7665 -25.7695 -49.8222 -25.9627 -55.0742 M -26.5183 -47.0344 C -26.5223 -51.0003 -34.38 -48.2215 -35.5556 -51.418 C -32.3087 -48.7961 -27.3657 -48.8555 -26.4277 -50.3573 M -26.4277 -50.3573 C -26.3703 -53.1424 -34.2023 -53.2606 -35.8232 -51.2026 M -35.9014 -60.4152 C -35.8093 -59.8849 -36.1204 -59.3718 -36.5963 -59.2691 C -37.0723 -59.1665 -37.5328 -59.5131 -37.6249 -60.0434 C -37.717 -60.5737 -37.4059 -61.0868 -36.93 -61.1895 C -36.4541 -61.2921 -35.9935 -60.9455 -35.9014 -60.4152 Z M -35.9014 -60.4152 C -33.3442 -66.2796 -26.5982 -61.7578 -25.7829 -63.926 M -35.7902 -59.7751 C -33.5603 -53.747 -26.8663 -58.0926 -26.1718 -55.8728 M -35.5337 -60.3346 C -32.1532 -63.4412 -25.4676 -58.6811 -25.7829 -63.926 M -26.1718 -55.8728 C -26.2646 -59.8375 -34.2461 -56.836 -35.5211 -59.9981 C -32.1387 -57.4693 -27.0799 -57.6693 -26.1534 -59.1973 M -26.1534 -59.1973 C -26.1569 -61.9832 -34.177 -61.8785 -35.7902 -59.7751 M -45.2982 -4.69275 C -45.3642 -4.11854 -45.8532 -3.71023 -46.3903 -3.78076 C -46.9274 -3.85129 -47.3094 -4.37396 -47.2434 -4.94816 C -47.1774 -5.52237 -46.6885 -5.93068 -46.1514 -5.86015 C -45.6142 -5.78962 -45.2323 -5.26696 -45.2982 -4.69275 Z M -45.2982 -4.69275 C -40.7708 -9.72695 -35.0036 -2.63743 -33.4679 -4.54654 M -45.3779 -3.99962 C -44.8721 2.96278 -36.4206 0.998303 -36.3688 3.51556 M -44.9326 -4.47539 C -40.3828 -6.39668 -34.7535 0.913348 -33.4679 -4.54654 M -36.3688 3.51556 C -35.2426 -0.558049 -44.6461 -0.436861 -45.0232 -4.1278 C -42.2124 -0.306671 -36.7783 1.35106 -35.3222 0.135081 M -35.3222 0.135081 C -34.4653 -2.7047 -43.0148 -5.54919 -45.3779 -3.99962 M -49.1096 4.4418 C -49.18 5.01391 -49.6688 5.41641 -50.2013 5.34082 C -50.7339 5.26523 -51.1085 4.74016 -51.0382 4.16805 C -50.9678 3.59595 -50.479 3.19344 -49.9465 3.26904 C -49.4139 3.34463 -49.0393 3.8697 -49.1096 4.4418 Z M -49.1096 4.4418 C -44.5731 -0.535464 -38.9092 6.59232 -37.3687 4.70305 M -49.1946 5.13239 C -48.7517 12.0821 -40.3465 10.205 -40.3164 12.7164 M -48.7486 4.66218 C -44.2164 2.79013 -38.691 10.1365 -37.3687 4.70305 M -40.3164 12.7164 C -39.164 8.66409 -48.4985 8.69325 -48.8415 5.008 C -46.084 8.84684 -40.7045 10.5534 -39.2489 9.35467 M -39.2489 9.35467 C -38.3742 6.53047 -46.836 3.6098 -49.1946 5.13239 M -53.8147 13.3329 C -53.967 13.8973 -54.5215 14.2237 -55.0531 14.062 C -55.5847 13.9002 -55.8921 13.3116 -55.7398 12.7472 C -55.5874 12.1828 -55.033 11.8564 -54.5014 12.0181 C -53.9698 12.1798 -53.6624 12.7685 -53.8147 13.3329 Z M -53.8147 13.3329 C -48.4936 9.05398 -43.7316 17.1378 -41.8966 15.4844 M -53.9986 14.0142 C -54.5277 21.0789 -45.7047 20.542 -46.0282 23.0741 M -53.4782 13.6127 C -48.5993 12.4579 -44.0093 20.7394 -41.8966 15.4844 M -46.0282 23.0741 C -44.2833 19.1816 -53.792 17.7094 -53.6215 13.9458 C -51.3552 18.2524 -46.1183 20.835 -44.4671 19.8629 M -44.4671 19.8629 C -43.1782 17.1616 -51.3822 12.8614 -53.9986 14.0142 M -59.8992 22.3202 C -60.1114 22.8624 -60.7088 23.1242 -61.2335 22.9049 C -61.7582 22.6856 -62.0115 22.0683 -61.7993 21.526 C -61.5871 20.9838 -60.9897 20.722 -60.4651 20.9413 C -59.9404 21.1606 -59.687 21.7779 -59.8992 22.3202 Z M -59.8992 22.3202 C -54.05 18.6721 -50.0217 27.21 -47.9866 25.7758 M -60.1554 22.9747 C -61.4092 29.9152 -52.3746 30.3635 -52.9603 32.8362 M -59.585 22.6348 C -54.5023 22.0327 -50.6691 30.7474 -47.9866 25.7758 M -52.9603 32.8362 C -50.7902 29.1736 -60.3192 26.6587 -59.7646 22.9489 C -57.894 27.4674 -52.8253 30.6079 -51.0463 29.8282 M -51.0463 29.8282 C -49.4609 27.2951 -57.3757 22.1233 -60.1554 22.9747 M -66.4267 29.831 C -66.6813 30.397 -67.3183 30.636 -67.8496 30.3648 C -68.3809 30.0936 -68.6053 29.4149 -68.3507 28.8489 C -68.0961 28.2829 -67.4591 28.044 -66.9278 28.3151 C -66.3965 28.5863 -66.1722 29.265 -66.4267 29.831 Z M -66.4267 29.831 C -60.1206 26.3294 -56.473 35.7521 -54.2685 34.3572 M -66.734 30.5142 C -68.4734 37.8602 -59.1158 38.9663 -59.8798 41.5737 M -66.1201 30.1898 C -60.8019 29.8971 -57.3681 39.4956 -54.2685 34.3572 M -59.8798 41.5737 C -57.3948 37.8017 -67.1361 34.4482 -66.3265 30.5137 C -64.6674 35.4823 -59.5993 39.1967 -57.7021 38.485 M -57.7021 38.485 C -55.8957 35.8821 -63.7927 29.795 -66.734 30.5142 M -66.1101 47.3865 C -65.0708 46.1356 -66.4034 43.7017 -68.4554 41.728 M -68.4554 46.944 C -67.4744 47.6011 -66.7302 47.5578 -66.1101 47.3865 M -68.4554 50.204 C -67.7827 49.3532 -67.9033 48.5274 -68.3282 47.6126 M -68.4554 41.728 C -66.2129 44.1484 -64.427 46.5482 -62.3109 43.6403 M -68.3662 38.5714 C -65.5557 40.553 -63.8385 44.3539 -62.3399 43.582 M -80.3465 -50.9441 C -80.4033 -50.6727 -80.4462 -50.3992 -80.4717 -50.1233 M -64.6523 -54.768 C -68.4492 -54.7701 -69.7266 -57.3681 -68.4554 -62.592 C -70.0285 -61.738 -70.0356 -63.3949 -70.3569 -64.548 C -70.3569 -64.548 -71.4591 -63.0834 -72.7268 -61.1274 C -73.9945 -59.1714 -77.3292 -61.288 -75.4277 -63.896 C -73.5262 -66.504 -73.3405 -67.347 -72.8923 -67.808 C -72.2585 -68.46 -69.7231 -68.46 -67.1877 -67.808 C -64.6523 -67.156 -60.2154 -61.288 -60.2154 -61.288 C -60.4314 -56.0476 -61.1663 -51.3772 -62.117 -46.944 C -64.2188 -46.2189 -66.3049 -46.1074 -68.3765 -46.5656 M -73.3521 -60.3891 C -72.5716 -60.097 -72.093 -59.7027 -72.093 -59.2688 C -72.093 -58.3686 -74.1536 -57.6388 -76.6954 -57.6388 C -79.2372 -57.6388 -81.2978 -58.3686 -81.2978 -59.2688 C -81.2978 -60.1691 -79.2372 -60.8988 -76.6954 -60.8988 C -76.2479 -60.8988 -75.8153 -60.8762 -75.4062 -60.834 M -72.8923 -55.746 C -72.8923 -54.8458 -74.9275 -54.116 -77.438 -54.116 C -79.9485 -54.116 -81.9837 -54.8458 -81.9837 -55.746 C -81.9837 -56.6462 -79.9485 -57.376 -77.438 -57.376 C -74.9275 -57.376 -72.8923 -56.6462 -72.8923 -55.746 Z M -73.5262 -52.16 C -73.5262 -51.2598 -75.3845 -50.53 -77.6769 -50.53 C -79.9692 -50.53 -81.8276 -51.2598 -81.8276 -52.16 C -81.8276 -53.0602 -79.9692 -53.79 -77.6769 -53.79 C -75.3845 -53.79 -73.5262 -53.0602 -73.5262 -52.16 Z M -72.8923 -48.9 C -72.8923 -47.9998 -74.8788 -47.27 -77.3292 -47.27 C -79.7797 -47.27 -81.7662 -47.9998 -81.7662 -48.9 C -81.7662 -49.8002 -79.7797 -50.53 -77.3292 -50.53 C -74.8788 -50.53 -72.8923 -49.8002 -72.8923 -48.9 Z M -39.7365 -66.3163 L -39.2755 -65.954 M -0.785741 -113.164 C 6.58673 -98.4915 3.16907 -87.7518 3.16907 -74.328 C 3.16907 -64.548 13.9444 -65.2 13.9444 -73.676 C 13.9444 -80.196 6.3383 -79.5846 6.3383 -74.328 C 6.3383 -70.416 12.0429 -70.416 12.0429 -73.024 C 12.0429 -74.328 11.4091 -74.98 10.7752 -75.632 M 2.45156 -113.022 C 9.68502 -98.3735 5.45958 -86.8246 6.3383 -74.328 M 5.72858 -112.786 C 11.8464 -99.9335 7.76355 -88.8896 8.34733 -78.0497 M 9.04492 -112.458 C 14.7691 -99.8719 9.57046 -89.0293 10.9501 -78.3743 M 12.3897 -112.048 C 17.6245 -99.8908 11.8778 -89.8021 13.6209 -79.1086 M 15.7133 -111.682 C 20.4484 -100.245 15.5633 -90.6275 16.5953 -80.5804 M 19.0671 -111.225 C 23.2644 -100.557 19.203 -91.4592 19.6523 -82.083 M 22.4502 -110.664 C 26.0764 -100.823 22.795 -92.3033 22.7862 -83.6325 M 25.7762 -110.227 C 28.9392 -101.171 26.335 -93.2241 25.9916 -85.2253 M 29.119 -109.713 C 31.8274 -101.43 29.7945 -94.0651 29.2491 -86.7169 M 11.0539 -67.8558 C 13.952 -67.4412 17.1137 -69.7367 17.1137 -74.328 C 17.1137 -78.9936 13.2188 -80.0075 11.0034 -78.2807 M 14.1211 -68.4621 C 16.8609 -68.3814 19.649 -70.6685 19.649 -74.98 C 19.649 -79.5667 15.8848 -80.6242 13.6526 -79.0179 M 17.6828 -69.8465 C 20.051 -70.2901 22.1844 -72.5125 22.1844 -76.284 C 22.1844 -81.3512 17.5904 -82.111 15.543 -79.7305 M 20.2091 -71.1488 C 22.581 -71.5885 24.7198 -73.8117 24.7198 -77.588 C 24.7198 -82.7028 20.0389 -83.4289 18.0213 -80.9665 M 22.7974 -72.463 C 25.1481 -72.9256 27.2552 -75.1438 27.2552 -78.892 C 27.2552 -83.9776 22.6276 -84.7245 20.5914 -82.3124 M 24.8902 -73.1566 C 27.1627 -73.6995 29.1567 -75.8978 29.1567 -79.544 C 29.1567 -84.0465 25.5294 -85.1482 23.2846 -83.6677 M 27.5981 -74.5052 C 29.798 -75.116 31.6921 -77.2944 31.6921 -80.848 C 31.6921 -85.9449 27.0439 -86.6838 25.0148 -84.2522 M 30.1203 -75.8055 C 32.3258 -76.4113 34.2275 -78.5913 34.2275 -82.152 C 34.2275 -87.2259 29.6211 -87.981 27.5778 -85.589 M -32.518 -111.396 C -32.8723 -108.785 -33.5939 -103.348 -33.5939 -102.364 C -33.5939 -101.06 -32.9601 -98.452 -32.9601 -97.148 L -32.9601 -88.02 C -32.9601 -84.108 -24.4546 -68.1869 -23.4524 -67.156 C -21.5509 -65.2 -15.4435 -62.6084 -12.6771 -63.244 C -10.6782 -63.7032 -0.478689 -67.1799 3.50638 -71.4742 M -33.9012 -111.201 C -36.3489 -103.321 -35.9895 -94.9117 -36.7632 -86.716 C -36.9828 -84.3892 -40.0061 -83.2887 -40.5662 -86.716 M -32.9601 -87.368 C -34.2278 -80.848 -43.1016 -79.544 -43.1016 -85.412 C -43.1016 -91.0545 -36.7632 -90.628 -36.7632 -87.368 M -34.0196 -84.5994 C -35.9212 -81.3394 -32.4967 -73.7455 -33.5939 -71.068 C -34.8519 -67.9983 -40.5662 -67.156 -41.2001 -71.068 C -41.5296 -73.1018 -39.2985 -73.676 -39.2985 -73.676 M -33.8541 -76.284 C -34.2185 -69.9882 -37.4228 -70.3708 -38.6647 -70.416 C -40.565 -70.4852 -40.5662 -72.372 -39.2985 -73.676 M -30.9795 -81.6924 C -30.4685 -78.3268 -30.9239 -72.4532 -31.0586 -71.068 C -31.6924 -64.548 -42.4678 -64.548 -43.1016 -70.416 C -43.7355 -76.284 -35.6509 -78.3971 -36.1293 -73.676 C -36.5785 -69.2431 -42.3986 -70.0811 -39.2985 -73.676 M -21.5509 -74.328 C -20.917 -73.024 -19.0155 -71.72 -16.4801 -73.024 M -23.4524 -76.284 L -21.5509 -76.936 C -20.917 -76.936 -20.917 -76.284 -19.6493 -76.284 C -18.3817 -76.284 -18.3817 -76.936 -17.114 -76.936 C -15.8463 -76.936 -16.4801 -76.284 -15.2124 -76.284 C -13.9447 -76.284 -13.3109 -76.936 -13.3109 -76.936 M -32.9601 -101.712 C -31.5253 -103.555 -25.8134 -107.373 -22.8186 -103.016 C -22.996 -103.211 -22.6567 -102.163 -22.8186 -102.364 C -25.9888 -106.294 -31.2324 -103.379 -32.9601 -101.712 Z M -2.53553 -100.408 C -3.22487 -101.293 -5.41283 -104.39 -8.24014 -104.972 C -11.4094 -105.624 -13.3109 -104.972 -15.7288 -102.964 C -15.5514 -103.159 -15.9077 -102.127 -15.7288 -102.312 C -11.3752 -106.804 -3.66529 -103.403 -2.53553 -100.408 Z M -22.8186 -102.364 C -20.4515 -95.6278 -22.8186 -92.6486 -22.8186 -89.324 C -22.8186 -87.368 -23.5913 -84.7522 -23.4524 -83.456 C -23.2503 -81.5689 -21.5509 -81.5 -20.917 -80.196 M -15.2124 -81.5 C -16.4801 -82.804 -22.1847 -82.152 -17.7478 -81.5 C -13.3109 -80.848 -13.3109 -82.5339 -13.3109 -83.456 C -13.3109 -84.108 -13.9447 -85.412 -15.2124 -85.412 M -15.8463 -95.844 C -15.8463 -95.844 -13.9447 -98.452 -11.4094 -98.452 C -8.87398 -98.452 -5.70476 -95.192 -1.26784 -95.192 C -5.07091 -95.192 -7.60774 -93.9763 -10.1417 -93.888 C -12.7405 -93.7974 -14.5786 -95.844 -15.8463 -95.844 M -32.9601 -97.148 C -31.0586 -98.452 -29.7909 -99.104 -27.8893 -98.452 C -25.9878 -97.8 -22.1847 -95.844 -22.1847 -95.844 M -22.1847 -95.844 C -24.7201 -95.192 -27.2555 -93.888 -29.157 -93.888 C -30.9498 -93.888 -32.9601 -96.496 -32.9601 -96.496 M -46.3918 -124.442 C -54.9226 -123.284 -52.9781 -111.207 -60.2154 -105.624 C -48.3864 -101.974 -42.0763 -110.245 -39.7402 -116.135 M -60.2154 -105.624 C -52.6107 -104.421 -48.2452 -115.99 -43.133 -120.344 M -43.1016 -113.448 C -42.6425 -115.472 -43.176 -117.514 -43.9503 -119.559 M -50.0739 -119.316 C -47.7459 -120.347 -45.8274 -119.956 -43.9253 -119.509 M -51.9754 -114.752 C -50.2434 -115.964 -48.5053 -116.229 -46.7624 -116.183 M -45.637 -110.188 C -45.2228 -110.772 -46.0672 -114.885 -46.6148 -116.261 M -53.877 -110.188 C -52.3678 -111.17 -50.9647 -111.713 -49.6233 -111.999 M -49.4401 -107.58 C -49.3525 -108.719 -49.3621 -110.637 -49.6449 -112.094 M -55.7785 -108.232 C -54.857 -108.4 -54.0487 -108.312 -53.2979 -108.094 M -53.2431 -106.276 C -52.6746 -107.091 -52.7444 -107.775 -53.0149 -108.418"
       id="path1687"
       style="display:inline"
       inkscape:label="layer-17" />
    <path
       stroke="#4444ff"
       stroke-linecap="round"
       stroke-linejoin="round"
       stroke-width="0.7714300963794452"
       fill="none"
       d="M -68.4554 -68.0103 L -68.4554 -109.536 M -82.4 86.064 L -68.4554 71.72 L -68.4554 -56.6619 M -73.5262 -66.8862 L -73.5262 -104.32 L -82.4 -104.32 M -73.5262 -56.5816 L -73.5262 -58.134 M -73.5262 -49.7565 L -73.5262 -54.9757 M -82.4 78.24 L -73.5262 69.112 L -73.5262 -48.0703 M -82.4 -109.536 L -64.6523 -109.536 L -82.4 -130.074 M -82.4 -113.448 L -72.2585 -113.448 L -82.4 -123.88 M -80.4985 -104.32 C -80.4985 -101.156 -77.9631 -98.3564 -77.9631 -95.192 C -77.9631 -92.0276 -80.4985 -89.2284 -80.4985 -86.064 M -80.2123 -47.6083 C -79.5491 -45.2011 -77.9631 -42.9268 -77.9631 -40.424 C -77.9631 -37.2596 -80.4985 -34.4604 -80.4985 -31.296 M -80.4985 -86.064 C -80.4985 -82.8996 -77.9631 -80.1004 -77.9631 -76.936 C -77.9631 -73.7716 -80.4985 -70.9724 -80.4985 -67.808 C -80.4985 -65.3739 -78.9983 -63.1559 -78.3059 -60.8215 M -80.4985 -31.296 C -80.4985 -28.1316 -77.9631 -25.3324 -77.9631 -22.168 C -77.9631 -19.0036 -80.4985 -16.2044 -80.4985 -13.04 C -80.4985 -9.87558 -77.9631 -7.07642 -77.9631 -3.912 C -77.9631 -0.747579 -80.4985 2.05158 -80.4985 5.216 C -80.4985 8.38042 -77.9631 11.1796 -77.9631 14.344 C -77.9631 17.5084 -80.4985 20.3076 -80.4985 23.472 C -80.4985 26.6364 -77.9631 29.4356 -77.9631 32.6 C -77.9631 35.7644 -80.4985 38.5636 -80.4985 41.728 C -80.4985 44.8924 -77.9631 47.6916 -77.9631 50.856 C -77.9631 54.0204 -80.4985 56.8196 -80.4985 59.984 C -80.4985 63.1484 -77.9631 65.9476 -77.9631 69.112 C -77.9631 71.4582 -79.3568 73.6036 -80.0776 75.8459 M -78.5969 -104.32 C -78.5969 -101.156 -76.0616 -98.3564 -76.0616 -95.192 C -76.0616 -92.0276 -78.5969 -89.2284 -78.5969 -86.064 M -78.1979 -47.2267 C -77.4839 -44.9594 -76.0616 -42.7942 -76.0616 -40.424 C -76.0616 -37.2596 -78.5969 -34.4604 -78.5969 -31.296 M -78.5969 -86.064 C -78.5969 -82.8996 -76.0616 -80.1004 -76.0616 -76.936 C -76.0616 -73.7716 -78.5969 -70.9724 -78.5969 -67.808 C -78.5969 -65.4335 -77.1693 -63.2647 -76.4566 -60.9928 M -78.5969 -31.296 C -78.5969 -28.1316 -76.0616 -25.3324 -76.0616 -22.168 C -76.0616 -19.0036 -78.5969 -16.2044 -78.5969 -13.04 C -78.5969 -9.87558 -76.0616 -7.07642 -76.0616 -3.912 C -76.0616 -0.747579 -78.5969 2.05158 -78.5969 5.216 C -78.5969 8.38042 -76.0616 11.1796 -76.0616 14.344 C -76.0616 17.5084 -78.5969 20.3076 -78.5969 23.472 C -78.5969 26.6364 -76.0616 29.4356 -76.0616 32.6 C -76.0616 35.7644 -78.5969 38.5636 -78.5969 41.728 C -78.5969 44.8924 -76.0616 47.6916 -76.0616 50.856 C -76.0616 54.0204 -78.5969 56.8196 -78.5969 59.984 C -78.5969 63.1484 -76.0616 65.9476 -76.0616 69.112 C -76.0616 70.2521 -76.3907 71.3448 -76.8118 72.4243 M -76.6954 -104.32 C -76.6954 -101.156 -74.16 -98.3564 -74.16 -95.192 C -74.16 -92.0276 -76.6954 -89.2284 -76.6954 -86.064 M -76.3437 -47.3806 C -75.6474 -45.0572 -74.16 -42.8477 -74.16 -40.424 C -74.16 -37.2596 -76.6954 -34.4604 -76.6954 -31.296 M -76.6954 -86.064 C -76.6954 -82.8996 -74.16 -80.1004 -74.16 -76.936 C -74.16 -73.7716 -76.6954 -70.9724 -76.6954 -67.808 C -76.6954 -66.3699 -76.1717 -65.0072 -75.6004 -63.6514 M -76.6954 -31.296 C -76.6954 -28.1316 -74.16 -25.3324 -74.16 -22.168 C -74.16 -19.0036 -76.6954 -16.2044 -76.6954 -13.04 C -76.6954 -9.87558 -74.16 -7.07642 -74.16 -3.912 C -74.16 -0.747579 -76.6954 2.05158 -76.6954 5.216 C -76.6954 8.38042 -74.16 11.1796 -74.16 14.344 C -74.16 17.5084 -76.6954 20.3076 -76.6954 23.472 C -76.6954 26.6364 -74.16 29.4356 -74.16 32.6 C -74.16 35.7644 -76.6954 38.5636 -76.6954 41.728 C -76.6954 44.8924 -74.16 47.6916 -74.16 50.856 C -74.16 54.0204 -76.6954 56.8196 -76.6954 59.984 C -76.6954 63.1484 -74.16 65.9476 -74.16 69.112 C -74.16 69.3078 -74.1697 69.5023 -74.1879 69.6955 M -82.4 -115.404 L -74.2818 -115.404 M -82.4 -117.36 L -76.2073 -117.36 M -82.4 -119.316 L -77.9246 -119.316 M -82.4 -121.272 L -79.798 -121.272"
       id="path1516"
       style="display:inline"
       inkscape:label="layer-18" />
  </g>
</svg>
