<?xml version="1.0" encoding="UTF-8" standalone="no"?>
<!-- Created with Inkscape (http://www.inkscape.org/) -->

<svg
   width="210mm"
   height="297mm"
   viewBox="0 0 210 297"
   version="1.1"
   id="svg242"
   inkscape:version="1.2.1 (9c6d41e410, 2022-07-14)"
   sodipodi:docname="jc.svg"
   xmlns:inkscape="http://www.inkscape.org/namespaces/inkscape"
   xmlns:sodipodi="http://sodipodi.sourceforge.net/DTD/sodipodi-0.dtd"
   xmlns="http://www.w3.org/2000/svg"
   xmlns:svg="http://www.w3.org/2000/svg">
  <sodipodi:namedview
     id="namedview244"
     pagecolor="#505050"
     bordercolor="#eeeeee"
     borderopacity="1"
     inkscape:showpageshadow="0"
     inkscape:pageopacity="0"
     inkscape:pagecheckerboard="0"
     inkscape:deskcolor="#505050"
     inkscape:document-units="mm"
     showgrid="true"
     inkscape:zoom="0.89263468"
     inkscape:cx="276.1488"
     inkscape:cy="233.01806"
     inkscape:window-width="2560"
     inkscape:window-height="1377"
     inkscape:window-x="1912"
     inkscape:window-y="-8"
     inkscape:window-maximized="1"
     inkscape:current-layer="layer1">
    <inkscape:grid
       type="xygrid"
       id="grid873" />
  </sodipodi:namedview>
  <defs
     id="defs239" />
  <g
     inkscape:label="Layer 1"
     inkscape:groupmode="layer"
     id="layer1">
    <g
       inkscape:groupmode="layer"
       id="layer2"
       inkscape:label="background"
       style="display:inline">
      <rect
         style="fill:#ffffff;stroke-width:0.264583"
         id="rect1091"
         width="363.98801"
         height="530.56885"
         x="-29.047903"
         y="-61.652691" />
    </g>
    <g
       inkscape:groupmode="layer"
       id="layer3"
       inkscape:label="background 1" />
    <path
       d="M 0.400518,0.999554 V 439.54645 l 29.10417,-29.10417 c 0,-12.99505 0.0044,34.26939 -0.0375,-260.69624 -1.27062,-2.61538 -1.27337,-6.50034 -0.002,-11.66234 v -0.14315 c -3.24341,1.68465 -3.26203,-1.65766 -3.92995,-3.98787 0,0 -2.30064,2.97191 -4.94647,6.94066 -0.48619,0.72929 -1.11849,1.17739 -1.80144,1.39372 l 0.49661,0.10438 c 1.62898,0.59262 2.62775,1.39238 2.62775,2.27274 0,1.82656 -4.30048,3.30729 -9.60562,3.30729 -5.30514,0 -9.60562,-1.48073 -9.60562,-3.30729 0,-1.82657 4.30048,-3.3073 9.60562,-3.3073 0.93405,0 1.837,0.0457 2.69079,0.13126 l 0.28215,0.0594 c -1.56695,-1.24155 -2.30677,-3.63242 -0.32711,-6.27197 3.96875,-5.29166 4.35623,-7.00205 5.29167,-7.9375 1.0973,-1.0973 4.92666,-1.28112 9.22011,-0.5581 l -0.0119,-84.108566 h 7.989704 z m 10.35647,147.505216 c 5.2397,3e-5 9.48728,1.48074 9.48728,3.30729 0,1.82655 -4.24758,3.30726 -9.48728,3.30729 -5.2399,7e-5 -9.48779,-1.48067 -9.48779,-3.30729 0,-1.82662 4.24789,-3.30736 9.48779,-3.30729 z m -0.49867,7.27604 c 4.78446,0 10.33032,2.03649 10.33032,3.86305 0,1.82656 -5.54586,2.75153 -10.33032,2.75153 -4.78446,0 -8.10727,-0.92496 -8.10728,-2.75153 1e-5,-1.82657 3.32282,-3.86305 8.10728,-3.86305 z m 0.72553,6.61458 c 5.11439,0 9.26042,1.48072 9.26042,3.30729 0,1.82657 -4.14603,3.30729 -9.26042,3.30729 -5.11438,0 -8.03773,-0.92496 -8.03773,-2.75153 0,-1.82657 2.92335,-3.86305 8.03773,-3.86305 z"
       style="display:none;fill:#ffcc44;stroke-width:0.264583"
       id="path1244"
       sodipodi:nodetypes="cccccccsccssssccsscccccscscssssssssss"
       inkscape:label="layer-1" />
    <path
       d="m 127.19859,131.42987 c -4.61127,-2.04963 -3.51058,-3.65875 -7.1453,-6.88847 0.0108,-0.17727 0.0188,-0.33999 0.031,-0.52503 -5.64467,-10.38153 -16.4963,-31.482254 -16.4963,-37.688154 V 67.807384 c 0,-2.645832 -1.32292,-7.9375 -1.32292,-10.583332 0,-2.645833 2.64584,-21.166667 2.64584,-21.166667 l -2.64584,1.322916 c -5.64255,16.051539 -4.98131,33.255115 -6.54379,50.167995 -0.0709,-6.51199 -13.29996,-7.37712 -13.29996,4.07159 0,10.032014 13.14861,9.732884 18.91306,1.5627 -2.33082,4.0409 -0.72994,11.139164 0.41961,17.163804 -0.79249,12.5687 -7.48025,11.79235 -10.07225,11.70058 -1.7979,-0.0637 -2.77862,-0.88619 -3.0701,-2.01176 1.05173,2.82468 7.67889,1.94811 8.36176,-4.60282 0.99853,-9.57908 -15.875,-5.29167 -14.55208,6.61458 0.32427,2.91843 1.92003,5.12153 4.06642,6.60218 0,0 9.16275,6.62699 18.42317,3.98116 1.52627,-0.43608 2.8008,-1.15976 3.87004,-2.01383 4.20664,-0.56122 8.24974,-1.16525 11.0753,-1.55443 m 49.87757,-95.650499 c 16.69823,30.751156 9.26042,52.885185 9.26042,80.697919 0,10.50241 6.29979,15.07568 12.23077,14.50454 11.62492,-0.92754 29.21633,-11.45832 44.02005,-17.50229 4.60324,-1.2292 8.57208,-5.65247 8.57208,-12.877254 0,-2.64583 -1.32301,-10.583511 -10.39058,-9.26248 1.3352,-17.489041 6.94232,-35.024997 -4.1615,-55.560435 z m 65.91483,77.605089 -1.08314,0.53899 5.2121,0.11523 c -1.40408,-0.21964 -2.74519,-0.65422 -4.12895,-0.65422 z m -145.28983,4.41575 c -0.68981,0.77765 -1.16643,1.49097 -1.46916,2.13527 0.30971,-0.73489 0.80614,-1.47225 1.46916,-2.13527 z"
       style="display:none;fill:#ffcc44;stroke-width:0.264583"
       id="path1272"
       sodipodi:nodetypes="cccssscccsccscsscscccsccsccccccscccc"
       inkscape:label="layer-2" />
    <path
       fill="#ffcc44"
       d="m 29.50017,377.04318 c 27.85967,-23.15856 47.69198,-48.19697 61.85927,-74.67821 -0.49542,0.92958 -0.9989,1.86497 -1.51929,2.81379 36.86678,-9.13419 60.52694,-40.20053 86.48568,-66.4683 26.12076,-26.43172 53.5449,-48.73391 99.91225,-46.29743 1.99123,-2.36387 3.91924,-4.71682 5.79035,-7.03575 -1.1317,-0.10057 -2.25073,-0.18239 -3.36312,-0.25528 0.3056,0.0158 0.61201,0.0326 0.91726,0.0481 l -0.10075,-62.09078 c -1.71469,-0.80406 -3.43348,-1.53785 -5.22759,-2.24069 l 0.0254,64.05345 c 0.18288,0.01 0.36584,0.0192 0.5488,0.0289 -42.08106,-1.59939 -70.19308,16.73743 -94.21286,39.25445 5.82149,-5.46565 11.86819,-10.67948 18.29242,-15.40578 l -0.0362,-47.79088 c -3.67298,1.9527 -7.35926,3.91628 -11.03602,5.872 -0.16825,1.03882 -0.53567,2.0842 -0.90434,2.82153 1.32292,2.64583 2.80422,9.08982 -5.29166,5.29167 3.96875,7.9375 -2.64584,6.61458 -5.29167,5.29166 -2.50904,1.25452 -8.58712,2.50894 -5.82445,-4.1336 l 7.88737,-4.2571 c -7.74415,4.1205 -15.48049,8.23489 -23.22966,12.35945 l -1.33222,-0.74104 0.0682,67.8708 c -7.69347,8.05694 -15.35821,15.889 -23.39444,22.84149 3.09425,-2.68862 6.1259,-5.5163 9.10591,-8.46357 -8.00984,-6.4077 -16.43695,-12.56302 -26.79578,-17.9715 -1.8026,6.49552 -3.78741,12.92944 -5.97896,19.33111 l 17.80459,11.87783 0.0486,0.0424 c -9.2564,7.30308 -19.1061,13.30788 -30.12167,17.10023 25.28845,-50.80009 30.74533,-106.69669 32.61347,-164.68193 -2.08638,-1.20527 -2.74903,-1.59033 -7.34234,-2.36782 -2.72975,89.38174 -12.99049,171.19112 -90.35155,238.30593 -0.21989,4.52439 -0.06201,5.85388 -0.005,9.67487 z M 75.55503,12.427128 C 57.75004,14.777117 61.8077,39.280957 46.70256,50.60981 71.39122,58.016407 84.56161,41.234008 89.43739,29.28243 Z m 159.01096,99.128842 0.0207,78.55953 c 1.77048,-0.55775 3.53946,-1.07269 5.29994,-1.55856 l -0.10855,-76.88574 c -2.10852,-0.19133 -3.23572,-0.26994 -5.21209,-0.11523 z M 71.86534,133.35928 c -7.3041,0.0649 -13.42189,3.7362 -19.87111,5.88594 -1.48238,-0.16318 -2.90728,-0.44975 -5.29167,1.32292 -0.45075,10.63292 -1.98417,20.1091 -3.96841,29.10416 0.002,2.64062 1.75718,3.53066 5.29133,2.64583 6.63137,4.65033 14.89151,11.94738 22.74921,16.74028 1.31961,-5.34413 -0.44771,-10.73511 -5.55129,-18.06319 3.4376,1.15203 8.33647,-0.75337 13.22916,-2.64584 -2.894,-4.68026 -6.26681,-8.02088 -11.74347,-9.93169 6.12646,-0.008 10.4117,-2.3848 13.06639,-5.9433 -2.85379,-3.71965 -6.19612,-6.96879 -11.90625,-7.9375 4.93933,-1.76633 8.86195,-4.49984 9.2609,-10.58334 -1.83065,-0.43215 -3.57923,-0.60925 -5.26479,-0.59427 z m 100.59957,57.80266 c 1.341,0.008 2.8913,0.50385 3.88348,0.99994 2.64584,-1.32291 9.26042,-2.64583 5.29167,5.29167 7.9375,-3.96875 6.61458,2.64583 5.29167,5.29167 1.32291,2.64583 2.80421,9.08982 -5.29167,5.29166 3.96875,7.9375 -2.64583,6.61459 -5.29167,5.29167 -2.64583,1.32292 -9.26041,2.64583 -5.29166,-5.29167 -7.9375,3.96875 -6.61459,-2.64583 -5.29167,-5.29166 -1.32292,-2.64584 -2.64583,-9.26042 5.29167,-5.29167 -2.48047,-4.96094 -0.82683,-6.30452 1.40818,-6.29161 z m 0,33.07292 c 1.341,0.008 2.8913,0.50385 3.88348,0.99994 1.04059,-0.52029 2.69522,-1.04041 4.07831,-0.99736 l -3.90157,3.84422 c 0.25167,-0.24521 0.50668,-0.48683 0.75912,-0.73123 -1.28788,1.24502 -2.5654,2.49968 -3.83335,3.76256 0.0385,-0.0385 0.0767,-0.0773 0.11524,-0.11575 l -8.8005,8.67079 c 0.0157,-1.33324 0.50746,-2.86598 0.99942,-3.8499 -1.32292,-2.64583 -2.64583,-9.26041 5.29167,-5.29166 -2.48047,-4.96094 -0.82683,-6.30453 1.40818,-6.29161 z"
       id="path11-8"
       style="display:none;stroke-width:0.264583"
       inkscape:label="layer-3"
       sodipodi:nodetypes="cccsccccccccccccccccccccccccccccccccccccccccscccccccccccsccccccccccccccccccccc" />
    <path
       fill="#ffcc44"
       d="M 0.40052,0.999565 V 439.54644 l 29.10417,-29.10418 -0.005,-33.39951 c 27.859672,-23.15856 47.69198,-48.19697 61.859269,-74.67821 -0.495417,0.92958 -0.998895,1.86497 -1.519286,2.81379 36.866777,-9.13419 60.526937,-40.20053 86.485677,-66.4683 26.12076,-26.43172 53.5449,-48.73391 99.91225,-46.29743 1.99123,-2.36387 3.91924,-4.71682 5.79035,-7.03575 -1.1317,-0.10057 -2.25073,-0.18239 -3.36312,-0.25528 0.3056,0.0158 0.61201,0.0326 0.91726,0.0481 l -0.10075,-62.09078 c -1.71469,-0.80406 -3.43348,-1.53785 -5.22759,-2.24069 l 0.0254,64.05345 c 0.18288,0.01 0.36584,0.0192 0.5488,0.0289 -42.08106,-1.59939 -70.19308,16.73743 -94.21286,39.25445 5.82149,-5.46565 11.86819,-10.67948 18.29242,-15.40578 l -0.0362,-47.79088 c -3.67298,1.9527 -7.35926,3.91628 -11.03602,5.872 -0.16825,1.03882 -0.53567,2.0842 -0.90434,2.82153 1.32292,2.64583 2.80422,9.08982 -5.29166,5.29167 3.96875,7.9375 -2.64584,6.61458 -5.29167,5.29166 -2.50904,1.25452 -8.58712,2.50894 -5.82445,-4.1336 l 7.88737,-4.2571 c -7.74415,4.1205 -15.48049,8.23489 -23.22966,12.35945 l -1.33222,-0.74104 0.0682,67.8708 c -7.69347,8.05694 -15.35821,15.889 -23.39444,22.84149 3.09425,-2.68862 6.1259,-5.5163 9.10591,-8.46357 -8.00984,-6.4077 -16.43695,-12.56302 -26.79578,-17.9715 -1.8026,6.49552 -3.78741,12.92944 -5.97896,19.33111 l 17.80459,11.87783 0.0486,0.0424 c -9.2564,7.30308 -19.1061,13.30788 -30.121673,17.10023 25.288453,-50.80009 30.745333,-106.69669 32.613473,-164.68193 -4.61127,-2.04963 -3.51058,-3.65875 -7.1453,-6.88847 0.0108,-0.17727 0.0188,-0.33999 0.031,-0.52503 -5.64467,-10.38153 -16.4963,-31.482248 -16.4963,-37.688146 V 67.807291 c 0,-2.645833 -1.32292,-7.9375 -1.32292,-10.583333 0,-2.645833 2.64584,-21.166666 2.64584,-21.166666 l -2.64584,1.322916 c -5.642539,16.051538 -4.981301,33.255114 -6.543779,50.167997 -0.07093,-6.511996 -13.299964,-7.377123 -13.299964,4.071586 0,10.032009 13.148612,9.732879 18.913053,1.562695 -2.330808,4.040907 -0.72994,11.139164 0.41961,17.163804 -0.79249,12.5687 -7.480245,11.79235 -10.072246,11.70058 -1.797892,-0.0637 -2.778612,-0.88619 -3.070098,-2.01176 1.051727,2.82468 7.678891,1.94811 8.361764,-4.60282 0.99853,-9.57908 -15.874999,-5.29167 -14.552083,6.61458 0.324268,2.91843 1.920031,5.12153 4.066419,6.60218 0,0 9.162748,6.62699 18.423164,3.98116 1.52627,-0.43608 2.8008,-1.15976 3.87004,-2.01383 4.20664,-0.56122 8.24974,-1.16525 11.0753,-1.55443 -2.72975,89.38174 -12.99049,171.19112 -90.35155,238.30593 l -0.006,4.16203 -0.0315,-221.78387 c -1.27062,-2.61538 -1.27337,-6.50034 -0.002,-11.66234 v -0.14315 c -3.24341,1.68465 -3.26203,-1.65766 -3.92995,-3.98787 0,0 -2.30064,2.97191 -4.94647,6.94066 -0.48619,0.72929 -1.11849,1.1774 -1.80144,1.39372 l 0.49661,0.10438 c 1.62898,0.59262 2.62775,1.39238 2.62775,2.27274 0,1.82656 -4.30048,3.30729 -9.60562,3.30729 -5.30514,0 -9.60562,-1.48073 -9.60562,-3.30729 0,-1.82657 4.30048,-3.3073 9.60562,-3.3073 0.93405,0 1.837,0.0457 2.69079,0.13126 l 0.28215,0.0594 c -1.56695,-1.24155 -2.30677,-3.63242 -0.32711,-6.27198 3.96875,-5.29166 4.35623,-7.00205 5.29167,-7.93749 1.0973,-1.0973 4.92666,-1.28113 9.22011,-0.55811 l -0.0119,-84.108558 h 7.9897 z M 75.554554,12.426693 C 57.749559,14.776682 61.807219,39.280522 46.70208,50.609375 71.390742,58.015972 84.561132,41.233573 89.436908,29.281995 Z m 94.179256,20.984765 c 16.69823,30.751155 9.26043,52.885186 9.26043,80.697912 0,10.50241 6.29978,15.07568 12.23076,14.50454 11.62493,-0.92754 29.21634,-11.45832 44.02007,-17.50229 4.60323,-1.2292 8.57207,-5.65247 8.57207,-12.877246 0,-2.645833 -1.32301,-10.583513 -10.39058,-9.262483 1.3352,-17.489037 6.94233,-35.024996 -4.16149,-55.560433 z m 65.91484,77.605082 -1.08314,0.53899 0.0207,78.55954 c 1.77048,-0.55775 3.53946,-1.07269 5.29994,-1.55856 l -0.10855,-76.88575 c -1.40409,-0.21964 -2.7452,-0.65422 -4.12896,-0.65422 z m -145.289833,4.41575 c -0.689811,0.77765 -1.166426,1.49097 -1.46916,2.13527 0.309714,-0.73489 0.806141,-1.47225 1.46916,-2.13527 z m -18.493962,17.92656 c -7.304093,0.0649 -13.421887,3.7362 -19.871106,5.88594 -1.482379,-0.16318 -2.907279,-0.44975 -5.291669,1.32292 -0.45075,10.63292 -1.984175,20.1091 -3.968415,29.10416 0.002,2.64062 1.757185,3.53066 5.291335,2.64583 6.631373,4.65033 14.891514,11.94738 22.749213,16.74028 1.319609,-5.34413 -0.44771,-10.73511 -5.551297,-18.06319 3.437604,1.15203 8.336478,-0.75337 13.229166,-2.64584 -2.894002,-4.68026 -6.266815,-8.02088 -11.74347,-9.93169 6.126454,-0.008 10.411693,-2.3848 13.066387,-5.9433 -2.853793,-3.71965 -6.196124,-6.96879 -11.90625,-7.9375 4.939326,-1.76633 8.861955,-4.49984 9.260902,-10.58334 -1.830652,-0.43215 -3.579236,-0.60925 -5.264796,-0.59427 z M 10.75699,148.50477 c 5.239701,3e-5 9.487277,1.48074 9.48728,3.30729 -3e-6,1.82655 -4.247579,3.30726 -9.48728,3.30729 -5.2399,7e-5 -9.4877875,-1.48067 -9.48779,-3.30729 2.5e-6,-1.82662 4.24789,-3.30736 9.48779,-3.30729 z m -0.49867,7.27604 c 4.784459,0 10.330318,2.03649 10.33032,3.86305 -2e-6,1.82656 -5.545861,2.75153 -10.33032,2.75153 -4.7844633,0 -8.1072742,-0.92496 -8.1072765,-2.75153 2.3e-6,-1.82657 3.3228132,-3.86305 8.1072765,-3.86305 z m 0.72553,6.61458 c 5.114386,0 9.260418,1.48072 9.26042,3.30729 -2e-6,1.82657 -4.146034,3.30729 -9.26042,3.30729 -5.1143825,0 -8.0377279,-0.92496 -8.0377304,-2.75153 2.5e-6,-1.82657 2.9233479,-3.86305 8.0377304,-3.86305 z m 161.48058,28.76612 c 1.341,0.008 2.8913,0.50385 3.88348,0.99994 2.64584,-1.32291 9.26042,-2.64583 5.29167,5.29167 7.9375,-3.96875 6.61458,2.64583 5.29167,5.29167 1.32291,2.64583 2.80421,9.08982 -5.29167,5.29166 3.96875,7.9375 -2.64583,6.61459 -5.29167,5.29167 -2.64583,1.32292 -9.26041,2.64583 -5.29166,-5.29167 -7.9375,3.96875 -6.61459,-2.64583 -5.29167,-5.29166 -1.32292,-2.64584 -2.64583,-9.26042 5.29167,-5.29167 -2.48047,-4.96094 -0.82683,-6.30452 1.40818,-6.29161 z m 0,33.07292 c 1.341,0.008 2.8913,0.50385 3.88348,0.99994 1.04059,-0.52029 2.69522,-1.04041 4.07831,-0.99736 l -3.90157,3.84422 c 0.25167,-0.24521 0.50668,-0.48683 0.75912,-0.73123 -1.28788,1.24502 -2.5654,2.49968 -3.83335,3.76256 0.0385,-0.0385 0.0767,-0.0773 0.11524,-0.11575 l -8.8005,8.67079 c 0.0157,-1.33324 0.50746,-2.86598 0.99942,-3.8499 -1.32292,-2.64583 -2.64583,-9.26041 5.29167,-5.29166 -2.48047,-4.96094 -0.82683,-6.30453 1.40818,-6.29161 z"
       id="path11"
       style="display:none;stroke-width:0.264583"
       inkscape:label="yellow-fill"
       sodipodi:nodetypes="ccccccsccccccccccccccccccccccccccccccssscccsccccsscsccccccccsccssssccsscccccccccsccsccccccccsccccscccccccccccscscscssssssssssccccccccccccccccccccc" />
    <path
       fill="#ff0000"
       d="M 65.86651,0.6 98.550301,40.2875 C 146.34997,30.37464 191.65942,36.13355 236.13363,42.93333 L 271.41159,0.6 Z M 234.75439,111.96271 154.241,154.05833 127.619,138.89795 c -0.2315,5.27402 -0.91736,11.8238 -1.14689,16.89412 l 27.64069,15.46417 80.71187,-42.27752 -0.0139,-0.21445 z m 50.34163,14.00844 0.0703,56.44772 c 8.93215,-10.12764 18.95354,-19.88327 30.32581,-29.29847 l 0.0238,-4.36924 c -9.20758,-8.63964 -18.22567,-16.41197 -30.41984,-22.78001 z m -50.28892,16.21142 -30.363,16.2636 -0.0832,46.88448 c 9.22061,-6.17542 19.27012,-11.37811 30.47669,-14.95258 z m -109.25328,26.82162 c -1.55972,21.4638 -4.13648,42.47614 -8.6372,62.84836 11.96163,4.85377 22.31447,11.33673 31.84405,18.64899 l 0.003,-69.5415 z m -82.56602,0.92914 c -4.38674,1.47132 -8.74097,1.69733 -13.147,0.66146 L 29.8,261.63781 c 23.50245,-27.98037 28.750865,-52.96183 33.775595,-77.29975 -5.31349,-4.39399 -10.893385,-8.67144 -15.296105,-11.7589 -3.53415,0.88483 -5.28993,-0.005 -5.29167,-2.64583 z"
       id="path14-4"
       style="display:none;stroke-width:0.264583"
       inkscape:label="layer-4"
       sodipodi:nodetypes="cccccccccccccccccscccccccccccsccccss" />
    <path
       fill="#ff0000"
       d="m 85.492181,132.76299 -8.366931,2.55436 -1.15858,3.67316 10.054681,-3.06958 z m 0.9183,9.2909 -14.293711,0.84078 -2.71042,1.88257 2.87785,1.2883 14.439951,-0.84905 z m -7.171869,9.34368 c -0.1559,0.7084 -0.07981,3.13855 -0.392553,3.51321 l 7.779492,0.1064 0.133,-3.52127 z M 68.8162,157.99814 c -1.59578,0.0239 2.856601,3.5123 3.834551,4.24256 l 13.35,1.06988 0.36136,-3.31322 -15.895314,-1.27499 c -0.77294,-0.23652 -1.355087,-0.72866 -1.650597,-0.72423 z m 8.73332,8.75192 c 3.28907,0.96796 -3.16932,2.99355 -1.63453,2.96519 l 9.767361,1.4671 0.38861,-3.15226 z m 104.31662,3.73207 -7.92768,4.02456 c 0.78238,0.4567 1.69266,0.7183 2.66392,0.7183 2.7372,0 4.9892,-2.07823 5.26376,-4.74286 z m -115.69267,1.54306 1.81642,3.57756 16.812931,3.20032 0.2372,-3.18637 z m 3.96306,8.02018 0.94206,3.5078 12.386283,3.44059 0.701808,-3.44111 z m 106.46585,17.66921 c -2.9225,0 -5.29166,2.36916 -5.29166,5.29166 0,2.92251 2.36915,5.29167 5.29166,5.29167 2.92251,0 5.29167,-2.36916 5.29167,-5.29167 0,-2.92251 -2.36916,-5.29166 -5.29167,-5.29166 z"
       id="path1458"
       style="display:none;stroke-width:0.264583"
       inkscape:label="layer-5"
       sodipodi:nodetypes="ccccccccccccccccsccccscccccccscccccccccccsssss" />
    <path
       fill="#ff0000"
       d="M 65.86651,0.6 98.5503,40.287499 c 47.79967,-9.912863 93.10912,-4.153952 137.58333,2.645834 L 271.41159,0.6 Z M 234.75439,111.96271 154.241,154.05833 127.619,138.89795 c -0.2315,5.27402 -0.91736,11.8238 -1.14689,16.89412 l 27.64069,15.46417 80.71187,-42.27752 -0.0139,-0.21445 z m 50.34163,14.00844 0.0703,56.44772 c 8.93215,-10.12764 18.95354,-19.88327 30.32581,-29.29847 l 0.0238,-4.36924 c -9.20758,-8.63964 -18.22567,-16.41197 -30.41984,-22.78001 z m -199.60384,6.79184 -8.36693,2.55436 -1.15858,3.67316 10.05468,-3.06958 z m 0.9183,9.2909 -14.29371,0.84078 -2.71042,1.88257 2.87785,1.2883 14.43995,-0.84905 z m 148.39662,0.12868 -30.363,16.2636 -0.0832,46.88448 c 9.22061,-6.17542 19.27012,-11.37811 30.47669,-14.95258 z m -155.568488,9.215 c -0.1559,0.7084 -0.07981,3.13855 -0.392553,3.51321 l 7.779495,0.1064 0.132996,-3.52127 z M 68.8162,157.99814 c -1.59578,0.0239 2.856601,3.5123 3.834551,4.24256 l 13.349997,1.06988 0.36136,-3.31322 -15.895311,-1.27499 c -0.77294,-0.23652 -1.355087,-0.72866 -1.650597,-0.72423 z m 8.73332,8.75192 c 3.28907,0.96796 -3.16932,2.99355 -1.63453,2.96519 l 9.76736,1.4671 0.38861,-3.15226 z m 48.0043,2.25413 c -1.55972,21.4638 -4.13648,42.47614 -8.6372,62.84836 11.96163,4.85377 22.31447,11.33673 31.84405,18.64899 l 0.003,-69.5415 z m -82.56602,0.92914 c -4.38674,1.47132 -8.74097,1.69733 -13.147,0.66146 L 29.8,261.63781 c 23.50245,-27.98037 28.750865,-52.96183 33.775595,-77.29975 -5.31349,-4.39399 -10.893385,-8.67144 -15.296105,-11.7589 -3.53415,0.88483 -5.28993,-0.005 -5.29167,-2.64583 z m 138.87834,0.5488 -7.92768,4.02456 c 0.78238,0.4567 1.69266,0.7183 2.66392,0.7183 2.7372,0 4.9892,-2.07823 5.26376,-4.74286 z m -115.69267,1.54306 1.81642,3.57756 16.81293,3.20032 0.2372,-3.18637 z m 3.96306,8.02018 0.94206,3.5078 12.386283,3.44059 0.701807,-3.44111 z m 106.46585,17.66921 c -2.9225,0 -5.29166,2.36916 -5.29166,5.29166 0,2.92251 2.36915,5.29167 5.29166,5.29167 2.92251,0 5.29167,-2.36916 5.29167,-5.29167 0,-2.92251 -2.36916,-5.29166 -5.29167,-5.29166 z"
       id="path14"
       style="display:none;stroke-width:0.264583"
       inkscape:label="red-fill"
       sodipodi:nodetypes="cccccccccccccccccsccccccccccccccccccccccsccccsccccccccccsccccssccscccccccccccsssss" />
    <path
       fill="#4444ff"
       d="m 95.021793,296.45651 c 4.761337,-9.53471 8.778367,-19.17171 12.264837,-28.96774 l 17.83624,11.87121 c -9.25258,7.34857 -19.11997,13.36824 -30.101077,17.09653 z M 90.803832,130.34583 c 0.862293,19.23231 0.03522,38.62973 -2.645833,58.20834 l -16.669475,-4.44399 c 0.46859,2.4999 -0.0698,1.99862 -0.583219,4.07784 -2.690201,-1.64092 -4.561375,-2.24314 -7.214135,-4.44122 -4.949359,24.40032 -10.197598,50.01073 -33.70005,77.9143 l 0.001,59.65656 C 66.684276,287.79892 97.322853,213.90336 93.697083,132.41508"
       id="path1462"
       style="display:none;stroke-width:0.264583"
       inkscape:label="layer-6"
       sodipodi:nodetypes="cccccccccccc" />
    <path
       fill="#4444ff"
       d="m 240.31822,126.13989 -0.0264,10.93163 2.13114,3.19619 -2.14612,3.21944 -0.0263,11.00967 9.48624,-14.22911 z m 34.26921,-1.20768 -10.22365,15.3355 10.32547,15.48794 -0.0362,-11.02465 -2.97553,-4.46329 2.94608,-4.41885 z m -28.3533,-11.85922 10.8164,16.22433 7.71012,-11.56519 -6.2637,-1.57509 -1.44642,2.16989 -2.02882,-3.04426 z m 10.8164,38.16511 -10.32547,15.48794 10.32547,15.48795 5.16247,-7.74372 5.16248,-7.74423 -5.16248,-7.74423 z m 0,10.97039 0.0992,0.14883 2.91196,4.36872 -2.91196,4.36873 -0.0992,0.14883 -3.0117,-4.51756 z m -16.76072,26.72064 c 1.83001,-0.46142 3.69463,-0.90307 5.69068,-1.26505 l -5.61432,-8.35927 z m 29.44686,-3.74407 4.95258,-7.49377 0.036,7.55968 c -1.651,-0.0281 -3.31544,-0.0555 -4.98853,-0.0659 z m -4.61616,22.4955 c -3.19198,0.0679 -6.48792,0.16329 -9.4586,0.55302 l -1.65727,0.21756 1.36943,9.63197 1.56786,-0.14521 c 0.56094,-0.0519 1.1236,-0.10184 1.68855,-0.14914 l 2.07356,-3.45663 c -0.83677,0.0635 -1.66548,0.13371 -2.49345,0.20391 l -0.45269,-3.1812 c 1.68082,-0.18595 3.39143,-0.33359 5.13761,-0.42872 l 6.82401,-10.09467 -1.65208,0.008 c -9.35795,0.0457 -17.84505,1.18121 -25.71782,3.15794 l -1.7048,0.42789 3.96978,12.53101 c -5.88634,1.60422 -11.34345,3.77909 -16.49046,6.46162 l -1.71566,-2.66237 c 2.64762,-1.39047 5.34353,-2.68002 8.1318,-3.75274 l 1.70739,-0.65681 -4.47673,-8.85217 -1.41438,0.58136 c -7.93541,3.26157 -15.19163,7.50172 -22.01726,12.46901 l -1.38338,1.00667 8.01243,10.25777 c -5.09604,3.80591 -10.04548,8.12529 -15.02441,12.8788 l -2.27169,-2.40554 c 2.44684,-2.3105 4.89863,-4.55071 7.3489,-6.66522 l 1.26711,-1.09348 -6.48539,-7.33444 -1.23455,1.04077 c -6.28798,5.29869 -12.33675,11.16199 -18.42885,17.32504 l -1.60145,1.39578 9.53585,9.4971 c -5.19296,5.27262 -10.42672,10.94214 -15.92617,16.72559 l -2.41794,-2.29185 c 1.4305,-1.47624 2.84208,-2.95148 4.19561,-4.40026 l 1.12914,-1.20818 -2.41691,-2.25775 -1.12862,1.2082 c -1.72925,1.85093 -3.46241,3.70386 -5.29477,5.55367 l -1.18959,1.20094 7.24607,6.86832 1.13792,-1.18959 c 6.37105,-6.66231 12.29736,-13.19033 18.15445,-19.06704 l 1.16737,-1.17151 -9.40046,-9.36274 c 5.37223,-5.41258 10.6997,-10.55439 16.15302,-15.23628 l 2.12597,2.40451 c -2.4799,2.17522 -4.95724,4.43055 -7.42332,6.79028 l -1.18701,1.13585 6.82439,7.22746 1.20303,-1.16375 c 5.7685,-5.57903 11.41924,-10.54295 17.24649,-14.76344 l 1.38906,-1.00614 -7.9654,-10.19731 c 5.82029,-4.11152 11.94215,-7.65031 18.52652,-10.48566 l 1.45365,2.87476 c -2.8981,1.20011 -5.72292,2.53597 -8.44444,4.03179 l -1.55443,0.85421 5.3051,8.22947 1.34824,-0.73328 c 5.80889,-3.15905 11.97749,-5.63505 18.77508,-7.33392 l 1.70687,-0.42633 -3.93723,-12.42973 c 6.6612,-1.54857 13.78583,-2.47388 21.55631,-2.62465 l 0.008,1.33014"
       id="path1465"
       style="display:none;stroke-width:0.264583"
       inkscape:label="layer-7"
       sodipodi:nodetypes="ccccccccccccccccccccccccccccccccccccccccccsccccccccccccccccccsccssccccsccccccccccccsccccccccscccccccccccsccccc" />
    <path
       fill="#4444ff"
       d="m 114.1552,69.491669 c 0,2.922504 -1.18458,5.291662 -2.64583,5.291666 -1.46125,-4e-6 -2.64583,-2.369162 -2.64583,-5.291666 0,-2.922505 1.18458,-5.291665 2.64583,-5.291669 1.46125,4e-6 2.64583,2.369164 2.64583,5.291669 z m 37.27207,0.537615 c 0,2.922503 -1.18458,5.29166 -2.64583,5.291664 -1.46125,-4e-6 -2.64583,-2.369161 -2.64583,-5.291664 0,-2.922505 1.18458,-5.291666 2.64583,-5.29167 1.46125,4e-6 2.64583,2.369165 2.64583,5.29167 z"
       id="path1468"
       style="display:none;stroke-width:0.264583"
       inkscape:label="layer-8"
       sodipodi:nodetypes="ssssssssss" />
    <path
       fill="#4444ff"
       d="m 159.53033,184.58542 h 34.4849 l -0.0543,3.96875 h -34.32199 z m 0,34.39583 h 27.47931 l -4.01871,3.96875 h -23.24337 z m 80.78789,-92.84136 -0.0264,10.93163 2.13114,3.19619 -2.14612,3.21944 -0.0263,11.00967 9.48624,-14.22911 z m 34.26921,-1.20768 -10.22365,15.3355 10.32547,15.48794 -0.0362,-11.02465 -2.97553,-4.46329 2.94608,-4.41885 z m -28.3533,-11.85922 10.8164,16.22433 7.71012,-11.56519 -6.2637,-1.57509 -1.44642,2.16989 -2.02882,-3.04426 z m 10.8164,38.16511 -10.32547,15.48794 10.32547,15.48795 5.16247,-7.74372 5.16248,-7.74423 -5.16248,-7.74423 z m 0,10.97039 0.0992,0.14883 2.91196,4.36872 -2.91196,4.36873 -0.0992,0.14883 -3.0117,-4.51756 z m -16.76072,26.72064 c 1.83001,-0.46142 3.69463,-0.90307 5.69068,-1.26505 l -5.61432,-8.35927 z m 29.44686,-3.74407 4.95258,-7.49377 0.036,7.55968 c -1.651,-0.0281 -3.31544,-0.0555 -4.98853,-0.0659 z M 95.021793,296.45651 c 4.761337,-9.53471 8.778367,-19.17171 12.264837,-28.96774 l 17.83624,11.87121 c -9.25258,7.34857 -19.11997,13.36824 -30.101077,17.09653 z M 265.12051,207.68056 c -3.19198,0.0679 -6.48792,0.16329 -9.4586,0.55302 l -1.65727,0.21756 1.36943,9.63197 1.56786,-0.14521 c 0.56094,-0.0519 1.1236,-0.10184 1.68855,-0.14914 l 2.07356,-3.45663 c -0.83677,0.0635 -1.66548,0.13371 -2.49345,0.20391 l -0.45269,-3.1812 c 1.68082,-0.18595 3.39143,-0.33359 5.13761,-0.42872 l 6.82401,-10.09467 -1.65208,0.008 c -9.35795,0.0457 -17.84505,1.18121 -25.71782,3.15794 l -1.7048,0.42789 3.96978,12.53101 c -5.88634,1.60422 -11.34345,3.77909 -16.49046,6.46162 l -1.71566,-2.66237 c 2.64762,-1.39047 5.34353,-2.68002 8.1318,-3.75274 l 1.70739,-0.65681 -4.47673,-8.85217 -1.41438,0.58136 c -7.93541,3.26157 -15.19163,7.50172 -22.01726,12.46901 l -1.38338,1.00667 8.01243,10.25777 c -5.09604,3.80591 -10.04548,8.12529 -15.02441,12.8788 l -2.27169,-2.40554 c 2.44684,-2.3105 4.89863,-4.55071 7.3489,-6.66522 l 1.26711,-1.09348 -6.48539,-7.33444 -1.23455,1.04077 c -6.28798,5.29869 -12.33675,11.16199 -18.42885,17.32504 l -1.60145,1.39578 9.53585,9.4971 c -5.19296,5.27262 -10.42672,10.94214 -15.92617,16.72559 l -2.41794,-2.29185 c 1.4305,-1.47624 2.84208,-2.95148 4.19561,-4.40026 l 1.12914,-1.20818 -2.41691,-2.25775 -1.12862,1.2082 c -1.72925,1.85093 -3.46241,3.70386 -5.29477,5.55367 l -1.18959,1.20094 7.24607,6.86832 1.13792,-1.18959 c 6.37105,-6.66231 12.29736,-13.19033 18.15445,-19.06704 l 1.16737,-1.17151 -9.40046,-9.36274 c 5.37223,-5.41258 10.6997,-10.55439 16.15302,-15.23628 l 2.12597,2.40451 c -2.4799,2.17522 -4.95724,4.43055 -7.42332,6.79028 l -1.18701,1.13585 6.82439,7.22746 1.20303,-1.16375 c 5.7685,-5.57903 11.41924,-10.54295 17.24649,-14.76344 l 1.38906,-1.00614 -7.9654,-10.19731 c 5.82029,-4.11152 11.94215,-7.65031 18.52652,-10.48566 l 1.45365,2.87476 c -2.8981,1.20011 -5.72292,2.53597 -8.44444,4.03179 l -1.55443,0.85421 5.3051,8.22947 1.34824,-0.73328 c 5.80889,-3.15905 11.97749,-5.63505 18.77508,-7.33392 l 1.70687,-0.42633 -3.93723,-12.42973 c 6.6612,-1.54857 13.78583,-2.47388 21.55631,-2.62465 l 0.008,1.33014 M -1.8,442.5539 29.95,410.8039 M 90.803832,130.34583 c 0.862293,19.23231 0.03522,38.62973 -2.645833,58.20834 l -16.669475,-4.44399 c 0.46859,2.4999 -0.0698,1.99862 -0.583219,4.07784 -2.690201,-1.64092 -4.561375,-2.24314 -7.214135,-4.44122 -4.949359,24.40032 -10.197598,50.01073 -33.70005,77.9143 l 0.001,59.65656 C 66.684276,287.79892 97.322853,213.90336 93.697083,132.41508 M 114.1552,69.491669 c 0,2.922504 -1.18458,5.291662 -2.64583,5.291666 -1.46125,-4e-6 -2.64583,-2.369162 -2.64583,-5.291666 0,-2.922505 1.18458,-5.291665 2.64583,-5.291669 1.46125,4e-6 2.64583,2.369164 2.64583,5.291669 z m 37.27207,0.537615 c 0,2.922503 -1.18458,5.29166 -2.64583,5.291664 -1.46125,-4e-6 -2.64583,-2.369161 -2.64583,-5.291664 0,-2.922505 1.18458,-5.291666 2.64583,-5.29167 1.46125,4e-6 2.64583,2.369165 2.64583,5.29167 z"
       id="path17"
       style="display:none;stroke-width:0.264583"
       inkscape:label="blue-things"
       sodipodi:nodetypes="ccccccccccccccccccccccccccccccccccccccccccccccccccccsccccccccccccccccccccccsccssccccsccccccccccccsccccccccscccccccccccscccccccccccccccssssssssss" />
    <path
       fill="#000000"
       d="m 154.24247,184.40676 -28.26651,-15.78783 c 0.19335,-2.52749 0.13032,-3.54881 0.23308,-5.96922 l 27.93319,15.3092 80.85632,-41.82627 0.20851,5.73899 z m -36.89079,47.0746 c -0.58188,3.05067 -1.29942,6.15824 -2.07467,9.19918 11.60188,5.25647 21.46298,12.19664 30.93129,19.43503 2.74466,-2.84723 5.55973,-5.76986 8.3416,-8.63185 l -0.32741,-67.36522 -5.11917,-2.32275 0.0576,68.4975 c -9.52958,-7.31225 -19.88247,-13.79512 -31.80879,-18.81189 z m 82.21043,-22.65915 -0.15986,-47.72479 5.31578,-2.79235 0.10891,46.77284 c -1.73148,1.19892 -3.47659,2.42931 -5.26483,3.7443 z m 85.9683,-83.04094 c -1.66949,-0.90844 -3.45085,-1.78426 -5.32257,-2.61662 l -0.0499,62.05147 c 0.77565,0.0945 1.58832,0.16011 2.47938,0.26692 0.97407,-1.02585 1.88754,-2.08252 2.82909,-3.15958 z M 88.366912,188.24583 c 2.681052,-19.57861 3.508126,-38.97603 2.645833,-58.20833 -4.339129,1.3494 -4.781259,2.20095 -5.115105,2.53097 0.625094,16.89481 -0.08443,37.67527 -2.289294,54.43836 z M 240.97684,37.248104 237.45341,36.709346 c -27.86073,-4.259704 -56.33769,-8.17608 -85.74204,-8.033102 -17.64262,0.08579 -35.619,1.632879 -53.996708,5.444114 l -3.206371,0.636244 4.441959,5.322565 c 47.79967,-9.912864 93.10911,-4.153953 137.58332,2.645833 l 4.4813,-5.377561 L 276.22107,-4.9"
       id="path1471"
       style="display:none;stroke-width:0.264583"
       inkscape:label="layer-9"
       sodipodi:nodetypes="ccccccccccccccccccccccccccccccccccscccccc" />
    <path
       fill="#000000"
       d="m 68.69007,189.02253 -0.344164,1.63969 C 63.647025,213.062 57.712534,236.88328 36.333913,263.24694 l -0.354499,0.43718 v 43.25215 l 2.826183,-3.52436 C 59.021862,278.19916 76.36191,239.42375 84.089653,194.62529 l 0.247015,-1.42989 z m 2.406055,3.92792 9.597871,2.55954 c -7.388389,41.58538 -23.175221,77.80547 -41.539582,102.2387 V 264.79206 C 60.125759,238.7441 66.444681,214.8664 71.096133,192.95045 Z m 129.542885,-46.28076 -6.49802,-13.57626 -15.80879,8.46863 6.65496,13.5233 m 4.81867,-14.25494 c 1.82656,0 3.30729,1.48072 3.30729,3.30729 0,1.82657 -1.48073,3.30729 -3.30729,3.30729 -1.82657,0 -3.3073,-1.48072 -3.3073,-3.30729 0,-1.82657 1.48073,-3.30729 3.3073,-3.30729 z m 14.99581,-13.87252 6.65676,14.26449 15.71289,-8.28487 -6.46252,-13.84826 z m 11.22673,-0.22769 c 1.82656,0 3.30729,1.48072 3.30729,3.30729 0,1.82657 -1.48073,3.30729 -3.30729,3.30729 -1.82657,0 -3.30729,-1.48072 -3.30729,-3.30729 0,-1.82657 1.48072,-3.30729 3.30729,-3.30729 z m -60.82613,27.01896 6.38929,13.47425 15.80169,-8.09459 -6.56852,-13.57014 z m 11.15788,-0.49501 c 1.82656,0 3.30729,1.48073 3.30729,3.30729 0,1.82657 -1.48073,3.30729 -3.30729,3.30729 -1.82657,0 -3.3073,-1.48072 -3.3073,-3.30729 0,-1.82656 1.48073,-3.30729 3.3073,-3.30729 z m -29.60385,-9.23005 -7.38264,12.9298 15.45825,8.70923 7.15034,-12.61597 z m 6.57023,9.24498 c 1.05145,1.49359 0.69303,3.55675 -0.80056,4.6082 -1.49359,1.05145 -3.55674,0.69303 -4.60819,-0.80056 -1.05146,-1.49358 -0.69303,-3.55674 0.80055,-4.60819 1.49359,-1.05145 3.55674,-0.69303 4.6082,0.80055 z"
       id="path1473"
       style="display:none;stroke-width:0.264583"
       inkscape:label="layer-10"
       sodipodi:nodetypes="ccsccccccccccscccccssssscccccssssscccccssssscccccsssss" />
    <path
       fill="#000000"
       d="m 30.271538,255.97916 h 4.290248 l 2.389505,-3.175 h -6.625447 z m -0.05431,-7.9375 h 10.209699 l 1.637898,-3.175 H 30 Z m 0.02178,-15.875 h 19.202866 l 1.303366,-3.175 H 30.085407 Z m 0.03252,7.9375 H 45.26024 l 1.629206,-3.175 H 30.217222 Z m -0.03252,-15.875 h 22.678509 l 1.194753,-3.175 H 30.239008 Z m 0.153604,-7.9375 h 22.255551 c 0.885534,0.0125 1.610109,-0.70188 1.610109,-1.5875 0,-0.88562 -0.724575,-1.60002 -1.610109,-1.5875 H 30.239016 Z m -0.230404,-8.73125 h 17.194289 c 1.073406,0.0152 1.073406,-1.60268 0,-1.5875 H 30.162216 Z m 0,-7.9375 H 42.06483 c 1.073407,0.0152 1.073407,-1.60268 0,-1.5875 H 30.008612 Z"
       id="path1475"
       style="display:none;stroke-width:0.264583"
       inkscape:label="layer-11"
       sodipodi:nodetypes="cccccccccccccccccccccccccccsccccccccccccc" />
    <path
       fill="#000000"
       d="m 154.24247,184.40676 -28.26651,-15.78783 c 0.19335,-2.52749 0.13032,-3.54881 0.23308,-5.96922 l 27.93319,15.3092 80.85632,-41.82627 0.20851,5.73899 z m -36.89079,47.0746 c -0.58188,3.05067 -1.29942,6.15824 -2.07467,9.19918 11.60188,5.25647 21.46298,12.19664 30.93129,19.43503 2.74466,-2.84723 5.55973,-5.76986 8.3416,-8.63185 l -0.32741,-67.36522 -5.11917,-2.32275 0.0576,68.4975 c -9.52958,-7.31225 -19.88247,-13.79512 -31.80879,-18.81189 z m 82.21043,-22.65915 -0.15986,-47.72479 5.31578,-2.79235 0.10891,46.77284 c -1.73148,1.19892 -3.47659,2.42931 -5.26483,3.7443 z m 85.9683,-83.04094 c -1.66949,-0.90844 -3.45085,-1.78426 -5.32257,-2.61662 l -0.0499,62.05147 c 0.77565,0.0945 1.58832,0.16011 2.47938,0.26692 0.97407,-1.02585 1.88754,-2.08252 2.82909,-3.15958 z M 88.366912,188.24583 c 2.681052,-19.57861 3.508126,-38.97603 2.645833,-58.20833 -4.339129,1.3494 -4.781259,2.20095 -5.115105,2.53097 0.625094,16.89481 -0.08443,37.67527 -2.289294,54.43836 z m -58.095374,67.73333 h 4.290248 l 2.389505,-3.175 h -6.625447 z m -0.05431,-7.9375 h 10.209699 l 1.637898,-3.175 H 30 Z m 0.02178,-15.875 h 19.202866 l 1.303366,-3.175 H 30.085407 Z m 0.03252,7.9375 H 45.26024 l 1.629206,-3.175 H 30.217222 Z m -0.03252,-15.875 h 22.678509 l 1.194753,-3.175 H 30.239008 Z m 0.153604,-7.9375 h 22.255551 c 0.885534,0.0125 1.610109,-0.70188 1.610109,-1.5875 0,-0.88562 -0.724575,-1.60002 -1.610109,-1.5875 H 30.239016 Z m -0.230404,-8.73125 h 17.194289 c 1.073406,0.0152 1.073406,-1.60268 0,-1.5875 H 30.162216 Z m 0,-7.9375 H 42.06483 c 1.073407,0.0152 1.073407,-1.60268 0,-1.5875 H 30.008612 Z m 38.527862,-10.60038 -0.344164,1.63969 C 63.647025,213.062 57.712534,236.88328 36.333913,263.24694 l -0.354499,0.43718 v 43.25215 l 2.826183,-3.52436 C 59.021862,278.19916 76.36191,239.42375 84.089653,194.62529 l 0.247015,-1.42989 z m 2.406055,3.92792 9.597871,2.55954 c -7.388389,41.58538 -23.175221,77.80547 -41.539582,102.2387 V 264.79206 C 60.125759,238.7441 66.444681,214.8664 71.096133,192.95045 Z m 129.542885,-46.28076 -6.49802,-13.57626 -15.80879,8.46863 6.65496,13.5233 m 4.81867,-14.25494 c 1.82656,0 3.30729,1.48072 3.30729,3.30729 0,1.82657 -1.48073,3.30729 -3.30729,3.30729 -1.82657,0 -3.3073,-1.48072 -3.3073,-3.30729 0,-1.82657 1.48073,-3.30729 3.3073,-3.30729 z m 14.99581,-13.87252 6.65676,14.26449 15.71289,-8.28487 -6.46252,-13.84826 z m 11.22673,-0.22769 c 1.82656,0 3.30729,1.48072 3.30729,3.30729 0,1.82657 -1.48073,3.30729 -3.30729,3.30729 -1.82657,0 -3.30729,-1.48072 -3.30729,-3.30729 0,-1.82657 1.48072,-3.30729 3.30729,-3.30729 z m -60.82613,27.01896 6.38929,13.47425 15.80169,-8.09459 -6.56852,-13.57014 z m 11.15788,-0.49501 c 1.82656,0 3.30729,1.48073 3.30729,3.30729 0,1.82657 -1.48073,3.30729 -3.30729,3.30729 -1.82657,0 -3.3073,-1.48072 -3.3073,-3.30729 0,-1.82656 1.48073,-3.30729 3.3073,-3.30729 z m -29.60385,-9.23005 -7.38264,12.9298 15.45825,8.70923 7.15034,-12.61597 z m 6.57023,9.24498 c 1.05145,1.49359 0.69303,3.55675 -0.80056,4.6082 -1.49359,1.05145 -3.55674,0.69303 -4.60819,-0.80056 -1.05146,-1.49358 -0.69303,-3.55674 0.80055,-4.60819 1.49359,-1.05145 3.55674,-0.69303 4.6082,0.80055 z m 97.65034,-116.020986 -3.52343,-0.538758 c -27.86073,-4.259704 -56.33769,-8.17608 -85.74204,-8.033102 -17.64262,0.08579 -35.619,1.632879 -53.996708,5.444114 l -3.206371,0.636244 4.441959,5.322565 c 47.79967,-9.912864 93.10911,-4.153953 137.58332,2.645833 l 4.4813,-5.377561 L 276.22107,-4.9"
       id="path20"
       style="display:none;stroke-width:0.264583"
       inkscape:label="black-trace"
       sodipodi:nodetypes="cccccccccccccccccccccccccccccccccccccccccccccccccccccccccccscccccccccccccccsccccccccccscccccssssscccccssssscccccssssscccccsssssccscccccc" />
    <path
       stroke="#4444ff"
       stroke-linecap="round"
       stroke-linejoin="round"
       stroke-width="0.79375"
       fill="none"
       d="m 139.74465,136.47755 14.49635,6.95423 30.84986,-16.17323 M 17.447259,142.69577 c -1.839522,2.25516 -1.412702,2.91263 -0.202911,4.82487 m -0.774614,2.03499 c -1.839521,2.25515 -1.622293,3.33181 -0.412503,5.24404 m 0.436265,2.19409 c -1.839521,2.25515 -1.360303,2.96503 -0.150513,4.87726 m 0.7394,1.53668 c -1.839521,2.25516 -1.622294,3.48901 -0.412503,5.40125 m -6.555764,-25.37717 c -1.0554733,1.40968 -0.300592,1.91418 0,2.64583 m -0.217228,4.73991 c -1.0554733,1.40968 -0.300592,1.91418 0,2.64583 m 0.184774,4.74182 c -1.0554733,1.40968 -0.4577859,1.80939 -0.1571939,2.54104 m 0.1028839,4.08059 c -1.0554733,1.40968 -0.4577859,1.91418 -0.1571939,2.64583 m 6.8585379,-33.30127 c 1.322916,1.32292 -1.322917,6.61459 -1.322917,6.61459 M 105.36411,66.702613 c 3.96875,-5.291667 6.61459,-5.291667 10.58334,-5.291667 3.96875,0 10.58333,5.291667 10.58333,5.291667 m 15.875,1.322916 c 3.96875,-5.291666 7.36988,-6.798188 11.90625,-6.614583 3.17729,0.128598 7.9375,3.96875 7.9375,3.96875 m -47.58571,0.07203 c 0.7891,0.967166 1.28363,2.354943 1.28363,3.896723 0,2.922505 -1.77687,5.291666 -3.96875,5.291666 -2.19188,0 -3.96875,-2.369161 -3.96875,-5.291666 0,-1.637864 0.55808,-3.10193 1.43453,-4.072578 m 43.02141,1.44463 c 0.3329,0.774277 0.52322,1.671479 0.52322,2.627948 0,2.922505 -1.77686,5.291666 -3.96874,5.291666 -2.19188,0 -4.19916,-1.601144 -4.19916,-4.52365 0,-1.685959 0.59135,-3.187766 1.51257,-4.156805 m 16.50856,70.27564 20.28582,-10.56626 m -19.1111,7.92043 18.02821,-9.43412 m -54.19157,-1.89024 c 2.66128,-1.60057 6.61458,0 9.26041,1.32292"
       id="path1544"
       style="display:inline"
       inkscape:label="eyes-collar-hand"
       sodipodi:nodetypes="ccccccccccccccccccccccsccsccsssccsssccccccc" />
    <path
       stroke="#4444ff"
       stroke-linecap="round"
       stroke-linejoin="round"
       stroke-width="0.79375"
       fill="none"
       d="m 139.74465,136.47755 14.49635,6.95423 30.84986,-16.17323 M 17.447259,142.69577 c -1.839522,2.25516 -1.412702,2.91263 -0.202911,4.82487 m -0.774614,2.03499 c -1.839521,2.25515 -1.622293,3.33181 -0.412503,5.24404 m 0.436265,2.19409 c -1.839521,2.25515 -1.360303,2.96503 -0.150513,4.87726 m 0.7394,1.53668 c -1.839521,2.25516 -1.622294,3.48901 -0.412503,5.40125 m -6.555764,-25.37717 c -1.0554733,1.40968 -0.300592,1.91418 0,2.64583 m -0.217228,4.73991 c -1.0554733,1.40968 -0.300592,1.91418 0,2.64583 m 0.184774,4.74182 c -1.0554733,1.40968 -0.4577859,1.80939 -0.1571939,2.54104 m 0.1028839,4.08059 c -1.0554733,1.40968 -0.4577859,1.91418 -0.1571939,2.64583 m 6.8585379,-33.30127 c 1.322916,1.32292 -1.322917,6.61459 -1.322917,6.61459 M 105.36411,66.702613 c 3.96875,-5.291667 6.61459,-5.291667 10.58334,-5.291667 3.96875,0 10.58333,5.291667 10.58333,5.291667 m 15.875,1.322916 c 3.96875,-5.291666 7.36988,-6.798188 11.90625,-6.614583 3.17729,0.128598 7.9375,3.96875 7.9375,3.96875 m -47.58571,0.07203 c 0.7891,0.967166 1.28363,2.354943 1.28363,3.896723 0,2.922505 -1.77687,5.291666 -3.96875,5.291666 -2.19188,0 -3.96875,-2.369161 -3.96875,-5.291666 0,-1.637864 0.55808,-3.10193 1.43453,-4.072578 m 43.02141,1.44463 c 0.3329,0.774277 0.52322,1.671479 0.52322,2.627948 0,2.922505 -1.77686,5.291666 -3.96874,5.291666 -2.19188,0 -4.19916,-1.601144 -4.19916,-4.52365 0,-1.685959 0.59135,-3.187766 1.51257,-4.156805 m 16.50856,70.27564 20.28582,-10.56626 m -19.1111,7.92043 18.02821,-9.43412 m -54.19157,-1.89024 c 2.66128,-1.60057 6.61458,0 9.26041,1.32292"
       id="path26"
       style="display:none"
       inkscape:label="eyes-collar-hand"
       sodipodi:nodetypes="ccccccccccccccccccccccsccsccsssccsssccccccc" />
    <path
       stroke="#4444ff"
       stroke-linecap="round"
       stroke-linejoin="round"
       stroke-width="1.5875"
       fill="none"
       d="M 29.89799,127.04981 V 43.127168 M 0.79381999,440.00217 29.89799,410.898 V 150.40941 M 19.31465,129.66416 V 53.710501 H 0.79381999 M 19.31465,150.57233 v -2.88781 m 0,16.73607 3.5e-4,-2.75359 M 0.79381999,424.12717 19.31465,405.60633 V 167.84193 M 0.79381999,43.127168 H 37.835486 L 0.79381999,1.455293 m 0,33.734375 H 21.96049 L 0.79381999,14.023001 M 4.76257,53.710501 c 0,6.420652 5.29167,12.100181 5.29167,18.520833 0,6.420652 -5.29167,12.100182 -5.29167,18.520833 m 0.59729,78.027163 c 1.38424,4.88429 4.69438,9.49885 4.69438,14.57701 0,6.42065 -5.29167,12.10018 -5.29167,18.52083 m 2e-5,-111.125003 c 0,6.420652 5.29167,12.100183 5.29167,18.520833 0,6.42065 -5.29167,12.10018 -5.29167,18.52083 0,4.93888 3.13105,9.43923 4.57624,14.1757 m -4.57624,59.90764 c 0,6.42065 5.29167,12.10018 5.29167,18.52083 0,6.42065 -5.29167,12.10018 -5.29167,18.52084 0,6.42065 5.29167,12.10018 5.29167,18.52083 0,6.42065 -5.29167,12.10019 -5.29167,18.52083 0,6.42064 5.29167,12.10019 5.29167,18.52083 0,6.42065 -5.29167,12.10019 -5.29167,18.52084 0,6.42064 5.29167,12.10019 5.29167,18.52083 0,6.42064 -5.29167,12.10019 -5.29167,18.52083 0,6.42065 5.29167,12.10019 5.29167,18.52084 0,6.42064 -5.29167,12.10019 -5.29167,18.52083 0,6.42064 5.29167,12.10019 5.29167,18.52083 0,4.76047 -2.90892,9.11352 -4.41325,13.66327 M 8.73134,53.710501 c 0,6.420652 5.29167,12.100181 5.29167,18.520833 0,6.420652 -5.29167,12.100182 -5.29167,18.520833 m 0.83274,78.801303 c 1.49023,4.60041 4.45893,8.99375 4.45893,13.80287 0,6.42065 -5.29167,12.10018 -5.29167,18.52083 m 0,-111.125003 c 0,6.420652 5.29167,12.100183 5.29167,18.520833 0,6.42065 -5.29167,12.10018 -5.29167,18.52083 0,4.81791 2.97955,9.21851 4.46708,13.82809 m -4.46708,60.25525 c 0,6.42065 5.29167,12.10018 5.29167,18.52083 0,6.42065 -5.29167,12.10018 -5.29167,18.52084 0,6.42065 5.29167,12.10018 5.29167,18.52083 0,6.42065 -5.29167,12.10019 -5.29167,18.52083 0,6.42064 5.29167,12.10019 5.29167,18.52083 0,6.42065 -5.29167,12.10019 -5.29167,18.52084 0,6.42064 5.29167,12.10019 5.29167,18.52083 0,6.42064 -5.29167,12.10019 -5.29167,18.52083 0,6.42065 5.29167,12.10019 5.29167,18.52084 0,6.42064 -5.29167,12.10019 -5.29167,18.52083 0,6.42064 5.29167,12.10019 5.29167,18.52083 0,2.31331 -0.68692,4.53044 -1.56577,6.72066 M 12.70009,53.710501 c 0,6.420652 5.29167,12.100181 5.29167,18.520833 0,6.420652 -5.29167,12.100182 -5.29167,18.520833 m 0.760219,78.698673 c 1.45326,4.71427 4.531451,8.9877 4.531451,13.9055 0,6.42065 -5.29167,12.10018 -5.29167,18.52083 m 0,-111.125003 c 0,6.420652 5.29167,12.100183 5.29167,18.520833 0,6.42065 -5.29167,12.10018 -5.29167,18.52083 0,2.91798 1.09295,5.68289 2.28542,8.43386 m -2.28542,65.64948 c 0,6.42065 5.29167,12.10018 5.29167,18.52083 0,6.42065 -5.29167,12.10018 -5.29167,18.52084 0,6.42065 5.29167,12.10018 5.29167,18.52083 0,6.42065 -5.29167,12.10019 -5.29167,18.52083 0,6.42064 5.29167,12.10019 5.29167,18.52083 0,6.42065 -5.29167,12.10019 -5.29167,18.52084 0,6.42064 5.29167,12.10019 5.29167,18.52083 0,6.42064 -5.29167,12.10019 -5.29167,18.52083 0,6.42065 5.29167,12.10019 5.29167,18.52084 0,6.42064 -5.29167,12.10019 -5.29167,18.52083 0,6.42064 5.29167,12.10019 5.29167,18.52083 0,0.39738 -0.0203,0.79193 -0.0583,1.18399 M 0.79387999,31.220918 H 17.73761 M 0.79393999,27.252168 H 13.7189 m -12.92515001,-3.968751 8.95185561,1e-6 M 0.79385999,19.314668 H 5.9466583 M 19.315,157.50927 v -3.25377"
       id="path23"
       style="display:none"
       inkscape:label="1"
       sodipodi:nodetypes="ccccccccccccccccccccccsccsccssccsssssssssssccsccsccssccsssssssssssccsccsccssccsssssssssssccccccccccc" />
    <path
       stroke="#4444ff"
       stroke-linecap="round"
       stroke-linejoin="round"
       stroke-width="1.5875"
       fill="none"
       d="m 244.62281,32.894421 -6.63055,-1.013595 c -27.9167,-4.268261 -56.70106,-8.248375 -86.5849,-8.09873 -17.9303,0.08979 -36.25668,1.666455 -55.028161,5.559349 L 90.509786,30.55851 M 29.88529,377.50528 c 83.11278,-69.08313 94.79113,-154.68192 97.70692,-245.62005 M 94.913154,296.6247 C 159.2204,274.47063 183.79328,177.06707 282.30337,185.85132 M 90.169524,305.76812 c 36.931276,-9.26878 60.591246,-40.33502 86.549986,-66.60279 26.12077,-26.43173 53.54503,-48.73377 99.78871,-46.30117 M 120.38859,124.94233 C 117.85616,216.1096 108.5787,299.56411 29.89799,367.82381 M 285.2209,126.18852 v 56.5136 m -5.29167,-59.12033 v 62.00039 m -5.29166,-64.28128 v 64.01247 m -34.39584,-73.19034 v 76.87682 m -5.29166,-77.69143 v 79.26586 m 0.88674,-79.12044 c 43.74503,6.56188 61.39194,20.04318 79.8252,37.65571 M 109.56653,261.47543 c 7.45814,3.73851 14.01019,8.62206 20.52809,13.54874 m -16.83304,-26.80938 c 10.32379,5.40926 18.75123,11.56463 26.71158,17.90377 m -24.96814,-25.08924 c 11.61328,5.30986 21.47437,12.25003 31.029,19.47535 m -29.03533,-28.55155 c 12.01871,4.94718 22.3716,11.43005 31.84055,18.7278 m -22.1681,-94.82011 27.56986,15.58928 80.72279,-42.27753 m -108.61634,33.52211 27.89355,15.37 80.72948,-42.28103 m -109.18451,33.4515 28.45503,15.29591 80.70182,-42.09593 m -85.98234,39.55014 v 68.72466 m 5.29167,-65.79847 v 67.0657 m 5.29167,-69.94734 v 64.14882 m 34.39583,-81.92096 v 49.12669 m 5.29167,-51.92349 v 47.8146 m 5.29166,-50.5571 v 46.75542 m -77.25695,-66.79236 26.97497,15.57074 81.81918,-42.78996 m -54.02678,91.73788 c 0,-2.92251 -2.36916,-5.29167 -5.29167,-5.29167 -2.92251,0 -5.29166,2.36916 -5.29166,5.29167 0,2.9225 2.36916,5.29166 5.29166,5.29166 2.92251,0 5.29167,-2.36915 5.29167,-5.29166 v 0 m -10.58333,-5.29167 c -3.96875,-7.9375 2.64583,-6.61458 5.29166,-5.29167 2.64584,-1.32291 9.26042,-2.64583 5.29167,5.29167 7.9375,-3.96875 6.61458,2.64583 5.29167,5.29167 1.32291,2.64583 2.80421,9.08982 -5.29167,5.29166 3.96875,7.9375 -2.64583,6.61459 -5.29167,5.29167 -2.64583,1.32292 -9.26041,2.64583 -5.29166,-5.29167 -7.9375,3.96875 -6.61459,-2.64583 -5.29167,-5.29166 -1.32292,-2.64584 -2.64583,-9.26042 5.29167,-5.29167 v 0 m -6.29131,42.21449 c 0.0157,-1.33324 0.50768,-2.86599 0.99964,-3.84991 -1.32292,-2.64583 -2.64583,-9.26041 5.29167,-5.29166 -3.96875,-7.9375 2.64583,-6.61459 5.29166,-5.29167 1.04059,-0.52029 2.69505,-1.04058 4.07814,-0.99753 m -6.74192,-49.99167 c 0.78238,0.4567 1.69252,0.71837 2.66378,0.71837 2.7372,0 4.98899,-2.07823 5.26356,-4.74286 m 6.23794,-3.45068 c -0.16186,1.06498 -0.54001,2.14557 -0.91816,2.90187 1.32291,2.64583 2.80421,9.08982 -5.29167,5.29167 3.96875,7.9375 -2.64583,6.61458 -5.29167,5.29166 -2.50903,1.25452 -8.58705,2.50904 -5.82438,-4.1335 m -63.63049,91.00386 17.76533,11.84357 m 115.28555,-164.0543 34.33353,51.50033 m 0.0617,-0.19375 -12.60532,18.908 m -21.66921,-17.11681 12.08667,18.13 m 18.12227,-66.73945 c -10.11063,15.16594 -20.41432,30.62147 -30.16574,45.24861 m -0.11444,14.2246 5.64051,8.46062 m 23.62677,-2.52757 4.98306,-7.47444 m -157.71144,87.76554 3.33532,-6.27732 c 3.2029,-5.34882 10.46993,-0.90594 7.55294,4.53251 l -3.82606,6.47636 m 3.82606,-6.47636 c 3.20289,-5.34882 9.88627,-0.62353 6.96928,4.81493 l -3.20341,5.4224 m -22.01373,-12.5729 3.72563,-7.01191 c 3.2029,-5.34882 9.88628,-0.62348 6.96929,4.81497 m -90.278,62.33073 C 66.638956,287.89167 97.280259,213.97616 93.644167,132.474 M 29.98088,261.89412 C 53.441892,233.85137 58.48054,208.76493 63.512481,184.43416 M 47.095933,141.023 c -0.450752,10.63292 -1.984515,20.10911 -3.96875,29.10417 m 3.96875,-29.10417 c 2.38439,-1.77267 3.809283,-1.4861 5.291666,-1.32292 1.746896,14.26762 -1.372092,23.39434 -3.96875,33.07292 -3.534148,0.88483 -5.289925,-0.005 -5.291666,-2.64583 m 9.260416,-30.42709 c 7.9375,-2.64583 15.37194,-7.59649 25.135417,-5.29166 -0.122965,1.87509 -0.580647,3.43192 -1.29966,4.74027 -1.613736,2.93641 -4.543859,4.62116 -7.960757,5.84306 5.710126,0.96871 9.052457,4.21785 11.90625,7.9375 -2.654694,3.5585 -6.939793,5.93491 -13.066247,5.94335 5.476656,1.91081 8.849328,5.25139 11.74333,9.93165 -4.892688,1.89247 -9.791562,3.79787 -13.229166,2.64584 5.103587,7.32808 6.624254,11.63423 5.304645,16.97836 -7.857699,-4.7929 -15.871188,-11.00512 -22.502562,-15.65545 m 23.439612,-38.9296 c -5.283279,6.27129 -11.257684,11.32954 -18.951204,13.37049 l 0.083,0.53281 c 7.183665,0.48157 14.028748,1.81255 19.241095,5.00008 -6.495103,2.83549 -13.043286,4.16113 -19.841146,3.28138 l -0.04117,0.72845 c 6.166061,2.46041 13.259387,3.43586 17.236482,9.40181 -7.399573,1.01951 -12.982157,-0.58117 -18.774135,-2.04509 l -0.338614,1.29926 c 6.335644,6.11155 10.663181,10.67233 14.540353,19.11655 m 44.171918,-53.37736 c 4.20304,-0.64214 8.25512,-1.24824 11.09198,-1.63038 m -29.386522,4.39229 c 0.737928,-0.0794 2.65027,-0.36025 5.208193,-0.74921 m -18.890562,2.91854 12.629899,-5.26245 0.962287,0.73508 c 0.781478,18.86664 -0.06476,37.89237 -2.693964,57.09235 L 71.442869,184.20441 M 85.932715,132.7229 c 0.879636,14.88135 -0.121798,39.41712 -2.530899,54.48839 M 66.00584,0.79384999 98.689652,40.481335 C 146.48932,30.568471 191.79877,36.327382 236.27298,43.127168 L 271.55083,0.79374999 M 240.71625,37.650272 237.19282,37.111514 c -27.86074,-4.259704 -56.33769,-8.17608 -85.74205,-8.033102 -17.64261,0.08579 -35.61899,1.632879 -53.996701,5.444114 l -3.236156,0.671309"
       id="path1510"
       style="display:none"
       inkscape:label="2"
       sodipodi:nodetypes="ccscccccccsccccccccccccccccccccccccccccccccccccccccccccccccsssscccccccccscccccccsccccccccccccccccccccccccccccccccccccccccccsccccccccccccccccccccccccccccccccccscc" />
    <path
       stroke="#4444ff"
       stroke-linecap="round"
       stroke-linejoin="round"
       stroke-width="1.5875"
       fill="none"
       d="m 84.137569,237.59592 c -3e-6,1.09594 -0.888437,1.98437 -1.984375,1.98437 -1.095938,0 -1.984372,-0.88843 -1.984375,-1.98437 -3e-6,-1.09594 0.888433,-1.98438 1.984375,-1.98438 1.095942,0 1.984378,0.88844 1.984375,1.98438 v 0 m 0,0 c 7.9375,-10.58333 21.166661,1.32292 23.812501,-2.64583 m -23.812501,3.96875 c 2.624706,12.96617 19.158181,7.18593 19.843751,11.90624 M 84.922622,237.91435 c 8.701304,-4.7358 21.704528,7.61907 23.027448,-2.96426 m -3.96875,15.87499 c 1.32291,-7.9375 -17.549943,-5.38804 -19.160473,-12.23482 6.532261,6.49073 17.837553,8.26607 20.483383,5.62024 m 0,0 c 1.06656,-5.55106 -16.774824,-8.78865 -21.166661,-5.29166 m 4.616484,-19.81045 c 0.06229,1.09415 -0.769514,2.03189 -1.857875,2.09451 -1.088359,0.0626 -2.02114,-0.7736 -2.083429,-1.86775 -0.06229,-1.09415 0.769514,-2.03189 1.857875,-2.09451 1.088359,-0.0626 2.02114,0.7736 2.083429,1.86775 v 0 m 0,0 c 7.281127,-11.01956 21.095487,0.11138 23.497467,-4.00205 m -23.42228,5.32281 c 3.343471,12.79503 19.4341,6.07957 20.38321,10.75301 M 89.551777,219.38145 c 8.371983,-5.22522 21.987463,6.36652 22.699743,-4.27511 m -3.03907,16.07582 c 0.86265,-8.00012 -17.73481,-4.37651 -19.723329,-11.12009 6.855981,6.1069 18.183999,7.23341 20.661159,4.44073 m 0,0 c 0.7437,-5.60293 -17.158316,-7.81585 -21.32104,-4.07365 m 3.801843,-21.64634 c 0.0835,1.09241 -0.690036,2.04924 -1.72774,2.13714 -1.037704,0.0879 -1.94662,-0.72641 -2.030121,-1.81882 -0.0835,-1.09241 0.690036,-2.04924 1.727739,-2.13714 1.037705,-0.0879 1.946621,0.72641 2.030122,1.81882 v 0 m 0,0 c 6.709367,-11.18589 20.142727,-0.37909 22.345587,-4.54727 m -22.244792,5.86592 c 3.473149,12.71388 18.687682,5.62614 19.696472,10.27626 M 93.398681,199.03725 c 7.878119,-5.41846 21.131729,5.85364 21.577989,-4.80171 m -2.54832,16.14218 c 0.64785,-8.01803 -17.027918,-3.96303 -19.074537,-10.65858 6.679697,5.94588 17.519527,6.80873 19.823177,3.9592 m 0,0 c 0.58694,-5.61872 -16.553083,-7.41486 -20.445112,-3.57688 m 2.944236,-19.45459 c 0.165744,1.08082 -0.500418,2.10406 -1.487913,2.28547 -0.987493,0.18141 -1.922376,-0.54771 -2.088121,-1.62853 -0.165744,-1.08082 0.500417,-2.10406 1.487911,-2.28547 0.987494,-0.18141 1.922378,0.54771 2.088123,1.62853 v 0 m 0,0 c 5.551496,-11.75121 19.272246,-2.19899 21.056046,-6.55095 m -20.855979,7.85562 c 4.325919,12.35285 18.349189,3.9156 19.680789,8.45732 m -19.12533,-9.5779 c 7.12407,-6.11077 20.70907,3.92128 20.30052,-6.73504 m -1.17519,16.31294 c -0.008,-8.04698 -16.628182,-2.40871 -19.114816,-8.89446 6.867496,5.31992 17.322606,5.19944 19.306476,2.15215 m 0,0 c 0.12151,-5.65103 -16.444057,-5.89072 -19.872449,-1.71501 m 1.932009,-21.76972 c 0.163552,1.08082 -0.4938,2.10406 -1.468236,2.28547 -0.974434,0.18141 -1.896953,-0.54771 -2.060506,-1.62853 -0.163552,-1.08082 0.4938,-2.10406 1.468236,-2.28547 0.974434,-0.18141 1.896953,0.54771 2.060506,1.62853 v 0 m 0,0 c 5.47809,-11.75121 19.01738,-2.19899 20.7776,-6.55095 m -20.580176,7.85562 c 4.268706,12.35285 18.106536,3.9156 19.420526,8.45733 m -18.872415,-9.57791 c 7.029865,-6.11077 20.435215,3.92128 20.032065,-6.73504 m -1.15965,16.31295 c -0.008,-8.04699 -16.40829,-2.40872 -18.862038,-8.89447 6.776678,5.31993 17.093528,5.19944 19.051168,2.15215 m 0,0 c 0.1199,-5.65103 -16.2266,-5.89072 -19.609656,-1.71501 m -0.163216,-18.69253 c 0.1923,1.07596 -0.457062,2.11706 -1.45039,2.32536 -0.993324,0.2083 -1.954463,-0.49508 -2.146766,-1.57104 -0.1923,-1.07596 0.457062,-2.11706 1.45039,-2.32536 0.993324,-0.2083 1.954463,0.49508 2.146766,1.57104 v 0 m 0,0 c 5.337292,-11.89904 19.416942,-2.72419 21.118662,-7.12347 m -20.886538,8.42228 c 4.654068,12.23096 18.625268,3.41369 20.074898,7.91766 m -19.539603,-9.05305 c 7.055623,-6.30327 21.009203,3.35497 20.351243,-7.28689 m -0.81164,16.33994 c -0.19371,-8.04425 -16.85214,-1.95424 -19.513251,-8.37011 7.059541,5.13088 17.617821,4.72514 19.551671,1.62466 m 0,0 c -0.007,-5.65258 -16.74629,-5.44018 -20.113318,-1.17221 M 78.229984,255.85552 c -0.137704,1.16507 -1.158158,1.99354 -2.279248,1.85043 -1.121093,-0.14311 -1.918287,-1.2036 -1.780579,-2.36867 0.137704,-1.16507 1.158158,-1.99354 2.279247,-1.85043 1.121094,0.14311 1.918288,1.2036 1.78058,2.36867 v 0 m 0,0 c 9.449438,-10.21446 21.486188,4.17026 24.691406,0.29666 m -24.857628,1.1097 c 1.055751,14.12681 18.694929,10.14086 18.803131,15.2484 M 78.993042,256.29654 c 9.496039,-3.89832 21.245288,10.93382 23.928348,-0.14436 m -6.054497,16.3581 c 2.350611,-8.2654 -17.275691,-8.01951 -18.06289,-15.50848 5.866614,7.75313 17.20828,11.11669 20.247279,8.64945 m 0,0 c 1.788518,-5.76195 -16.055504,-11.53346 -20.98752,-8.38937 m -7.788658,17.12776 c -0.146859,1.16081 -1.166949,1.97749 -2.278438,1.82412 -1.111503,-0.15337 -1.893499,-1.21874 -1.746629,-2.37956 0.146863,-1.16081 1.166958,-1.97749 2.278446,-1.82411 1.111495,0.15337 1.893486,1.21874 1.746621,2.37955 v 0 m 0,0 c 9.468315,-10.09894 21.289726,4.36343 24.504925,0.53007 m -24.682196,0.87114 c 0.924446,14.10097 18.467086,10.29242 18.529853,15.38803 M 71.028624,274.83679 c 9.459378,-3.79841 20.991531,11.1075 23.751405,0.0829 m -6.152343,16.25917 c 2.405324,-8.22216 -17.076955,-8.163 -17.792854,-15.64042 5.755175,7.78907 16.982983,11.25168 20.020907,8.81947 m 0,0 c 1.825541,-5.73035 -15.835151,-11.65643 -20.757906,-8.56708 m -9.642803,16.63888 c -0.317917,1.14518 -1.475087,1.80751 -2.584596,1.47936 -1.109515,-0.32815 -1.751206,-1.52254 -1.433247,-2.66771 0.317938,-1.14516 1.4751,-1.80747 2.584595,-1.47931 1.109491,0.32815 1.751176,1.5225 1.433248,2.66766 v 0 m 0,0 c 11.105941,-8.68191 21.044696,7.72025 24.874603,4.36549 m -25.258384,-2.98315 c -1.104368,14.33438 17.310484,13.24517 16.635164,18.38269 M 61.157409,292.99753 c 10.182812,-2.3431 19.762692,14.46017 24.172224,3.79767 m -8.62322,15.39954 c 3.641968,-7.89781 -16.203943,-10.88493 -15.848121,-18.52141 4.730078,8.73816 15.660174,13.97836 19.106308,12.00592 m 0,0 c 2.690125,-5.48098 -14.432705,-14.20622 -19.893351,-11.8672 m -12.315423,16.85301 c -0.442863,1.10022 -1.689624,1.63143 -2.784715,1.18649 -1.095117,-0.44494 -1.623851,-1.69758 -1.180947,-2.79781 0.442883,-1.1002 1.689637,-1.63139 2.784713,-1.18644 1.09509,0.44494 1.62382,1.69754 1.180949,2.79776 v 0 m 0,0 c 12.208026,-7.40207 20.615598,9.92155 24.863139,7.01151 m -25.397726,-5.68344 c -2.616955,14.08237 16.239442,14.99203 15.017022,20.00904 M 48.41158,311.30347 c 10.608276,-1.22169 18.6088,16.46058 24.207385,6.3731 m -10.380704,14.3256 c 4.529404,-7.43135 -15.358999,-12.53414 -14.201508,-20.06148 3.904284,9.16808 14.483363,15.5402 18.196327,13.9582 m 0,0 C 69.54197,320.7592 53.022784,310.26554 47.221239,311.99313 M 34.1321,325.90473 c -0.531292,1.14844 -1.860913,1.63336 -2.96978,1.0831 -1.108889,-0.55027 -1.577089,-1.92737 -1.04574,-3.07581 0.531313,-1.14841 1.860921,-1.6333 2.96977,-1.08304 1.108859,0.55026 1.577058,1.92732 1.04575,3.07575 v 0 m 0,0 c 13.16178,-7.10477 20.774763,12.01388 25.375804,9.18356 M 33.49076,327.29096 c -3.63029,14.90499 15.900255,17.14929 14.30554,22.43982 M 34.77202,326.63257 c 11.099754,-0.59375 18.266655,18.8816 24.735884,8.45572 M 47.7963,349.73078 c 5.186547,-7.65337 -15.14469,-14.45776 -13.45493,-22.44098 3.462581,10.08134 14.040424,17.61799 18.000138,16.1739 m 0,0 C 56.111741,338.18232 39.629673,325.83165 33.49076,327.29096 m 1.30223,34.23396 c 2.169183,-2.53798 -0.6122,-7.47643 -4.895,-11.48109 m 0,10.58334 c 2.04741,1.33334 3.60073,1.2455 4.895,0.89775 m -4.895,5.71683 c 1.40398,-1.72619 1.15232,-3.40175 0.26549,-5.25793 m -0.26549,-11.93999 c 4.68032,4.91109 8.407835,9.78017 12.824488,3.88007 M 30.08419,343.63914 c 5.865968,4.02069 9.449956,11.73277 12.577635,10.16657 M 75.947694,12.882081 C 58.142699,15.23207 62.201039,39.735815 47.095903,51.064668 71.784562,58.471265 84.954547,41.688644 89.830328,29.737066 M 47.095903,51.064668 c 15.872118,2.441863 24.983376,-21.032893 35.653323,-29.86649 m 0.06543,13.99149 c 0.958303,-4.106802 -0.15518,-8.249194 -1.771353,-12.400222 m -12.78073,0.493972 c 4.858845,-2.090931 8.863026,-1.299089 12.832964,-0.391739 m -16.801714,9.652156 c 3.614931,-2.459506 7.242635,-2.996441 10.880289,-2.903707 M 77.52299,41.804251 C 78.387473,40.618643 76.625134,32.273235 75.4821,29.481653 M 60.325073,41.804251 c 3.149767,-1.993212 6.07822,-3.093323 8.877967,-3.674028 m 0.38245,8.965695 c 0.18266,-2.310239 0.16279,-6.202244 -0.427609,-9.159187 m -12.801558,7.83627 c 1.923415,-0.340368 3.610393,-0.162062 5.17742,0.279384 m 0.114247,3.689366 c 1.186564,-1.654572 1.04081,-3.041621 0.476268,-4.346144"
       id="path1512"
       style="display:none"
       inkscape:label="3"
       sodipodi:nodetypes="csssscccccccccccccsssscccccccccccccsssscccccccccccccsssscccccccccccccsssscccccccccccccsssscccccccccccccsssscccccccccccccsssscccccccccccccsssscccccccccccccsssscccccccccccccssssccccccccccccccccccccccccccccccccccccccccccc" />
    <path
       stroke="#4444ff"
       stroke-linecap="round"
       stroke-linejoin="round"
       stroke-width="1.5875"
       fill="none"
       d="m 113.24173,110.59592 c 1.32292,6.61458 1.32292,19.84375 -7.9375,22.48958 -9.260411,2.64583 -18.520828,-3.96875 -18.520828,-3.96875 M 19.31465,150.57233 v -2.88781 m 0,16.73607 3.5e-4,-2.75359 m -14.23521,0.34393 c -0.11855,0.55073 -0.20808,1.10553 -0.2613,1.66542 m 33.017026,-9.42418 c -7.924486,-0.004 -10.590556,-5.27574 -7.937496,-15.875 -3.28317,1.73276 -3.29811,-1.62905 -3.96875,-3.96875 0,0 -2.30044,2.97167 -4.94628,6.94042 -2.64583,3.96875 -9.60581,-0.32584 -5.63706,-5.61751 3.96875,-5.29166 4.35623,-7.00205 5.29167,-7.9375 1.32292,-1.32291 6.61458,-1.32291 11.90625,0 5.291666,1.32292 14.552083,13.22917 14.552083,13.22917 -0.450752,10.63292 -1.984515,20.10911 -3.96875,29.10417 -4.386742,1.47132 -8.740773,1.69748 -13.064433,0.76771 M 19.67792,142.84695 c 1.62898,0.59262 2.62799,1.39262 2.62799,2.27296 0,1.82657 -4.30067,3.3073 -9.60581,3.3073 -5.30514,0 -9.60581,-1.48073 -9.60581,-3.3073 0,-1.82656 4.30067,-3.30729 9.60581,-3.30729 0.93405,0 1.83697,0.0459 2.69076,0.13151 m 5.24674,10.32366 c -3e-6,1.82657 -4.247664,3.30729 -9.48742,3.30729 -5.2397555,0 -9.4874175,-1.48072 -9.48742,-3.30729 2.5e-6,-1.82657 4.2476645,-3.30729 9.48742,-3.30729 5.239756,0 9.487417,1.48072 9.48742,3.30729 v 0 m -0.0042,7.27604 c -2e-6,1.82657 -3.782545,3.30729 -8.567008,3.30729 -4.7844635,0 -9.7424607,-1.48072 -9.742463,-3.30729 2.3e-6,-1.82657 4.3816228,-3.30729 9.166086,-3.30729 4.784463,0 9.143385,1.48072 9.143385,3.30729 v 0.23157 m 0.0042,6.38302 c -2e-6,1.82657 -4.146034,3.30729 -9.26042,3.30729 -5.1143825,0 -8.4452877,-1.42514 -8.4452902,-3.25171 -1.3e-5,-1.82657 3.3308967,-3.36288 8.4452902,-3.36288 5.114397,0 9.260433,1.48073 9.26042,3.3073 v 0 m 69.200428,-35.33785 0.962287,0.73508 M 171.13335,35.765428 c 15.3873,29.771252 8.25422,51.562227 8.25422,78.799242 0,19.84375 22.48958,18.52083 22.48958,1.32291 0,-13.22916 -15.875,-11.98861 -15.875,-1.32291 0,7.9375 11.90625,7.9375 11.90625,2.64583 0,-2.64583 -1.32292,-3.96875 -2.64583,-5.29167 M 177.89002,36.053683 c 15.09718,29.722289 6.27813,53.15526 8.11213,78.510987 m -1.27257,-78.032795 c 12.76876,26.078823 4.24726,48.487097 5.46568,70.481455 m 1.45597,-69.814377 c 11.94719,25.53688 1.09685,47.536677 3.97634,69.155667 m 3.00459,-68.324171 c 10.92577,24.667056 -1.06839,45.137075 2.56967,66.834221 m 4.36713,-66.092451 c 9.8828,23.205955 -0.313,42.720532 1.84096,63.106301 m 5.15882,-62.178749 c 8.7604,21.645435 0.28362,40.105483 1.2214,59.129969 m 5.83956,-57.990826 c 7.56849,19.967849 0.71968,37.253647 0.7013,54.846883 m 6.24065,-53.960021 c 6.6015,18.374949 1.16614,34.498486 0.44939,50.728051 m 6.52735,-49.68668 c 5.65274,16.807031 1.40987,31.75074 0.27161,46.660217 m -37.97575,38.269576 c 6.04873,0.84121 12.64748,-3.81656 12.64748,-13.13227 0,-9.4666 -8.12899,-11.5238 -12.75299,-8.02005 m 6.50722,19.92211 c 5.71823,0.16368 11.53744,-4.47681 11.53744,-13.22498 0,-9.30651 -7.85638,-11.4521 -12.51546,-8.19302 m 8.41167,18.6089 c 4.94282,-0.90009 9.39546,-5.40938 9.39546,-13.06171 0,-10.28133 -9.58842,-11.823018 -13.86158,-6.99303 m 9.73882,17.41234 c 4.95038,-0.89199 9.41442,-5.40302 9.41442,-13.06515 0,-10.377992 -9.76957,-11.851229 -13.98068,-6.8551 m 9.96839,17.25389 c 4.90613,-0.9388 9.30396,-5.43953 9.30396,-13.04462 0,-10.3188 -9.65845,-11.834137 -13.90809,-6.939957 m 8.97207,18.577147 c 4.74296,-1.10145 8.90477,-5.56191 8.90477,-12.96011 0,-9.135725 -7.57069,-11.370939 -12.25581,-8.366968 m 9.00282,18.590858 c 4.59152,-1.23948 8.54466,-5.65937 8.54466,-12.86972 0,-10.341734 -9.70143,-11.840829 -13.93635,-6.907231 m 10.65579,17.138511 c 4.60325,-1.2292 8.57222,-5.65234 8.57222,-12.877113 0,-10.295051 -9.61403,-11.827116 -13.87865,-6.973649 M 104.90409,39.352752 c -0.73956,5.297236 -2.24569,16.33026 -2.24569,18.326499 0,2.645833 1.32292,7.9375 1.32292,10.583333 v 18.520833 c 0,7.9375 17.75203,40.241623 19.84375,42.333333 3.96875,3.96875 16.71559,9.22714 22.48958,7.9375 4.17187,-0.9318 25.45956,-7.986 33.77691,-16.69921 m -78.0744,-80.607178 c -5.108656,15.990609 -4.358576,33.052133 -5.973341,49.681389 -0.458438,4.721121 -6.768478,6.953959 -7.9375,0 m 15.875001,-1.322917 c -2.64584,13.229166 -21.166668,15.874996 -21.166668,3.96875 0,-11.448709 13.229167,-10.583333 13.229167,-3.96875 m 5.726121,5.617509 c -3.968748,6.614587 3.17849,22.022747 0.88846,27.455407 -2.62545,6.22839 -14.552081,7.9375 -15.874998,0 -0.687752,-4.12651 3.96875,-5.29167 3.96875,-5.29167 m 11.363178,-5.29166 c -0.76044,12.77424 -7.44826,11.99802 -10.040261,11.90625 -3.966266,-0.14043 -3.96875,-3.96875 -1.322917,-6.61459 M 108.11509,99.622268 c 1.06656,6.828782 0.11604,18.746362 -0.16502,21.556982 -1.32292,13.22917 -23.812501,13.22917 -25.135418,1.32292 -1.322916,-11.90625 15.550613,-16.19366 14.552083,-6.61459 -0.93759,8.99448 -13.084862,7.29416 -6.614583,0 m 37.041668,-1.32291 c 1.32292,2.64583 5.29166,5.29166 10.58333,2.64583 m -14.55208,-6.61458 3.96875,-1.32292 c 1.32292,0 1.32292,1.32292 3.96875,1.32292 2.64583,0 2.64583,-1.32292 5.29166,-1.32292 2.64584,0 1.32292,1.32292 3.96875,1.32292 2.64584,0 3.96875,-1.32292 3.96875,-1.32292 M 103.98132,59.002168 c 2.99464,-3.739579 14.91602,-11.486917 21.16667,-2.645834 -0.37025,-0.395734 0.33785,1.730044 0,1.322917 -6.6167,-7.973404 -17.56067,-2.059173 -21.16667,1.322917 v 0 m 63.5,2.645833 c -1.43874,-1.796632 -6.00529,-8.080224 -11.90625,-9.260417 -6.61459,-1.322916 -10.58334,0 -15.62972,4.074816 0.37024,-0.395734 -0.37349,1.697617 0,1.322917 9.08648,-9.115853 25.17801,-2.213308 27.53597,3.862684 v 0 m -42.33333,-3.96875 c 4.94044,13.66779 0,19.712754 0,26.458333 0,3.96875 -1.61271,9.276334 -1.32292,11.90625 0.42191,3.82887 3.96875,3.968746 5.29167,6.614586 m 11.90624,-2.64584 c -2.64583,-2.64583 -14.55208,-1.322913 -5.29166,0 9.26041,1.32292 9.26041,-2.097859 9.26041,-3.968746 0,-1.322917 -1.32291,-3.96875 -3.96875,-3.96875 m -1.32291,-21.166667 c 0,0 3.96875,-5.291666 9.26041,-5.291666 5.29167,0 11.90625,6.614583 21.16667,6.614583 -7.9375,0 -13.2322,2.466628 -18.52083,2.645833 -5.42419,0.183799 -9.26042,-3.96875 -11.90625,-3.96875 m -35.71875,-2.645833 c 3.96875,-2.645833 6.61458,-3.96875 10.58333,-2.645833 3.96875,1.322916 11.90625,5.291666 11.90625,5.291666 m 0,0 c -5.29167,1.322917 -10.58333,3.96875 -14.55208,3.96875 -3.74178,0 -7.9375,-5.291666 -7.9375,-5.291666 M 19.315,157.50927 v -3.25377"
       id="path1516"
       style="display:inline"
       inkscape:label="4"
       sodipodi:nodetypes="csccccccccccssssccccssssccssssccssssccssssccccssssccccccccccccccccccccsccsccsccsccsccsccsccsccsssssccsccsccssccsccssscccccsssccccsccsccsccssccssccscsccsccsccc" />
    <path
       stroke="#4444ff"
       stroke-linecap="round"
       stroke-linejoin="round"
       stroke-width="1.5875"
       fill="none"
       d="m 244.62281,32.894421 -6.63055,-1.013595 c -27.9167,-4.268261 -56.70106,-8.248375 -86.5849,-8.09873 -17.9303,0.08979 -36.25668,1.666455 -55.028161,5.559349 l -5.869413,1.217065 m 22.731944,80.03741 c 1.32292,6.61458 1.32292,19.84375 -7.9375,22.48958 -9.260411,2.64583 -18.520828,-3.96875 -18.520828,-3.96875 M 29.89799,127.04981 V 43.127168 M 0.79381999,440.00217 29.89799,410.898 V 150.40941 m -0.0127,227.09587 c 83.11278,-69.08313 94.79113,-154.68192 97.70692,-245.62005 M 94.913154,296.6247 C 159.2204,274.47063 183.79328,177.06707 282.30337,185.85132 M 90.169524,305.76812 c 36.931276,-9.26878 60.591246,-40.33502 86.549986,-66.60279 26.12077,-26.43173 53.54503,-48.73377 99.78871,-46.30117 M 120.38859,124.94233 C 117.85616,216.1096 108.5787,299.56411 29.89799,367.82381 M 285.2209,126.18852 v 56.5136 m -5.29167,-59.12033 v 62.00039 m -5.29166,-64.28128 v 64.01247 m -34.39584,-73.19034 v 76.87682 m -5.29166,-77.69143 v 79.26586 m 0.88674,-79.12044 c 43.74503,6.56188 61.39194,20.04318 79.8252,37.65571 M 109.56653,261.47543 c 7.45814,3.73851 14.01019,8.62206 20.52809,13.54874 m -16.83304,-26.80938 c 10.32379,5.40926 18.75123,11.56463 26.71158,17.90377 m -24.96814,-25.08924 c 11.61328,5.30986 21.47437,12.25003 31.029,19.47535 m -29.03533,-28.55155 c 12.01871,4.94718 22.3716,11.43005 31.84055,18.7278 m -22.1681,-94.82011 27.56986,15.58928 80.72279,-42.27753 m -108.61634,33.52211 27.89355,15.37 80.72948,-42.28103 m -109.18451,33.4515 28.45503,15.29591 80.70182,-42.09593 m -85.98234,39.55014 v 68.72466 m 5.29167,-65.79847 v 67.0657 m 5.29167,-69.94734 v 64.14882 m 34.39583,-81.92096 v 49.12669 m 5.29167,-51.92349 v 47.8146 m 5.29166,-50.5571 v 46.75542 m -77.25695,-66.79236 26.97497,15.57074 81.81918,-42.78996 m -54.02678,91.73788 c 0,-2.92251 -2.36916,-5.29167 -5.29167,-5.29167 -2.92251,0 -5.29166,2.36916 -5.29166,5.29167 0,2.9225 2.36916,5.29166 5.29166,5.29166 2.92251,0 5.29167,-2.36915 5.29167,-5.29166 v 0 m -10.58333,-5.29167 c -3.96875,-7.9375 2.64583,-6.61458 5.29166,-5.29167 2.64584,-1.32291 9.26042,-2.64583 5.29167,5.29167 7.9375,-3.96875 6.61458,2.64583 5.29167,5.29167 1.32291,2.64583 2.80421,9.08982 -5.29167,5.29166 3.96875,7.9375 -2.64583,6.61459 -5.29167,5.29167 -2.64583,1.32292 -9.26041,2.64583 -5.29166,-5.29167 -7.9375,3.96875 -6.61459,-2.64583 -5.29167,-5.29166 -1.32292,-2.64584 -2.64583,-9.26042 5.29167,-5.29167 v 0 m -6.29131,42.21449 c 0.0157,-1.33324 0.50768,-2.86599 0.99964,-3.84991 -1.32292,-2.64583 -2.64583,-9.26041 5.29167,-5.29166 -3.96875,-7.9375 2.64583,-6.61459 5.29166,-5.29167 1.04059,-0.52029 2.69505,-1.04058 4.07814,-0.99753 m -6.74192,-49.99167 c 0.78238,0.4567 1.69252,0.71837 2.66378,0.71837 2.7372,0 4.98899,-2.07823 5.26356,-4.74286 m 6.23794,-3.45068 c -0.16186,1.06498 -0.54001,2.14557 -0.91816,2.90187 1.32291,2.64583 2.80421,9.08982 -5.29167,5.29167 3.96875,7.9375 -2.64583,6.61458 -5.29167,5.29166 -2.50903,1.25452 -8.58705,2.50904 -5.82438,-4.1335 m -63.63049,91.00386 17.76533,11.84357 m 115.28555,-164.0543 34.33353,51.50033 m 0.0617,-0.19375 -12.60532,18.908 m -21.66921,-17.11681 12.08667,18.13 m 18.12227,-66.73945 c -10.11063,15.16594 -20.41432,30.62147 -30.16574,45.24861 m -0.11444,14.2246 5.64051,8.46062 m 23.62677,-2.52757 4.98306,-7.47444 m -157.71144,87.76554 3.33532,-6.27732 c 3.2029,-5.34882 10.46993,-0.90594 7.55294,4.53251 l -3.82606,6.47636 m 3.82606,-6.47636 c 3.20289,-5.34882 9.88627,-0.62353 6.96928,4.81493 l -3.20341,5.4224 m -22.01373,-12.5729 3.72563,-7.01191 c 3.2029,-5.34882 9.88628,-0.62348 6.96929,4.81497 M 19.31465,129.66416 V 53.710501 H 0.79381999 M 19.31465,150.57233 v -2.88781 m 0,16.73607 3.5e-4,-2.75359 M 0.79381999,424.12717 19.31465,405.60633 V 167.84193 M 0.79381999,43.127168 H 37.835486 L 0.79381999,1.455293 m 0,33.734375 H 21.96049 L 0.79381999,14.023001 M 84.137569,237.59592 c -3e-6,1.09594 -0.888437,1.98437 -1.984375,1.98437 -1.095938,0 -1.984372,-0.88843 -1.984375,-1.98437 -3e-6,-1.09594 0.888433,-1.98438 1.984375,-1.98438 1.095942,0 1.984378,0.88844 1.984375,1.98438 v 0 m 0,0 c 7.9375,-10.58333 21.166661,1.32292 23.812501,-2.64583 m -23.812501,3.96875 c 2.624706,12.96617 19.158181,7.18593 19.843751,11.90624 M 84.922622,237.91435 c 8.701304,-4.7358 21.704528,7.61907 23.027448,-2.96426 m -3.96875,15.87499 c 1.32291,-7.9375 -17.549943,-5.38804 -19.160473,-12.23482 6.532261,6.49073 17.837553,8.26607 20.483383,5.62024 m 0,0 c 1.06656,-5.55106 -16.774824,-8.78865 -21.166661,-5.29166 m 4.616484,-19.81045 c 0.06229,1.09415 -0.769514,2.03189 -1.857875,2.09451 -1.088359,0.0626 -2.02114,-0.7736 -2.083429,-1.86775 -0.06229,-1.09415 0.769514,-2.03189 1.857875,-2.09451 1.088359,-0.0626 2.02114,0.7736 2.083429,1.86775 v 0 m 0,0 c 7.281127,-11.01956 21.095487,0.11138 23.497467,-4.00205 m -23.42228,5.32281 c 3.343471,12.79503 19.4341,6.07957 20.38321,10.75301 M 89.551777,219.38145 c 8.371983,-5.22522 21.987463,6.36652 22.699743,-4.27511 m -3.03907,16.07582 c 0.86265,-8.00012 -17.73481,-4.37651 -19.723329,-11.12009 6.855981,6.1069 18.183999,7.23341 20.661159,4.44073 m 0,0 c 0.7437,-5.60293 -17.158316,-7.81585 -21.32104,-4.07365 m 3.801843,-21.64634 c 0.0835,1.09241 -0.690036,2.04924 -1.72774,2.13714 -1.037704,0.0879 -1.94662,-0.72641 -2.030121,-1.81882 -0.0835,-1.09241 0.690036,-2.04924 1.727739,-2.13714 1.037705,-0.0879 1.946621,0.72641 2.030122,1.81882 v 0 m 0,0 c 6.709367,-11.18589 20.142727,-0.37909 22.345587,-4.54727 m -22.244792,5.86592 c 3.473149,12.71388 18.687682,5.62614 19.696472,10.27626 M 93.398681,199.03725 c 7.878119,-5.41846 21.131729,5.85364 21.577989,-4.80171 m -2.54832,16.14218 c 0.64785,-8.01803 -17.027918,-3.96303 -19.074537,-10.65858 6.679697,5.94588 17.519527,6.80873 19.823177,3.9592 m 0,0 c 0.58694,-5.61872 -16.553083,-7.41486 -20.445112,-3.57688 m 2.944236,-19.45459 c 0.165744,1.08082 -0.500418,2.10406 -1.487913,2.28547 -0.987493,0.18141 -1.922376,-0.54771 -2.088121,-1.62853 -0.165744,-1.08082 0.500417,-2.10406 1.487911,-2.28547 0.987494,-0.18141 1.922378,0.54771 2.088123,1.62853 v 0 m 0,0 c 5.551496,-11.75121 19.272246,-2.19899 21.056046,-6.55095 m -20.855979,7.85562 c 4.325919,12.35285 18.349189,3.9156 19.680789,8.45732 m -19.12533,-9.5779 c 7.12407,-6.11077 20.70907,3.92128 20.30052,-6.73504 m -1.17519,16.31294 c -0.008,-8.04698 -16.628182,-2.40871 -19.114816,-8.89446 6.867496,5.31992 17.322606,5.19944 19.306476,2.15215 m 0,0 c 0.12151,-5.65103 -16.444057,-5.89072 -19.872449,-1.71501 m 1.932009,-21.76972 c 0.163552,1.08082 -0.4938,2.10406 -1.468236,2.28547 -0.974434,0.18141 -1.896953,-0.54771 -2.060506,-1.62853 -0.163552,-1.08082 0.4938,-2.10406 1.468236,-2.28547 0.974434,-0.18141 1.896953,0.54771 2.060506,1.62853 v 0 m 0,0 c 5.47809,-11.75121 19.01738,-2.19899 20.7776,-6.55095 m -20.580176,7.85562 c 4.268706,12.35285 18.106536,3.9156 19.420526,8.45733 m -18.872415,-9.57791 c 7.029865,-6.11077 20.435215,3.92128 20.032065,-6.73504 m -1.15965,16.31295 c -0.008,-8.04699 -16.40829,-2.40872 -18.862038,-8.89447 6.776678,5.31993 17.093528,5.19944 19.051168,2.15215 m 0,0 c 0.1199,-5.65103 -16.2266,-5.89072 -19.609656,-1.71501 m -0.163216,-18.69253 c 0.1923,1.07596 -0.457062,2.11706 -1.45039,2.32536 -0.993324,0.2083 -1.954463,-0.49508 -2.146766,-1.57104 -0.1923,-1.07596 0.457062,-2.11706 1.45039,-2.32536 0.993324,-0.2083 1.954463,0.49508 2.146766,1.57104 v 0 m 0,0 c 5.337292,-11.89904 19.416942,-2.72419 21.118662,-7.12347 m -20.886538,8.42228 c 4.654068,12.23096 18.625268,3.41369 20.074898,7.91766 m -19.539603,-9.05305 c 7.055623,-6.30327 21.009203,3.35497 20.351243,-7.28689 m -0.81164,16.33994 c -0.19371,-8.04425 -16.85214,-1.95424 -19.513251,-8.37011 7.059541,5.13088 17.617821,4.72514 19.551671,1.62466 m 0,0 c -0.007,-5.65258 -16.74629,-5.44018 -20.113318,-1.17221 M 78.229984,255.85552 c -0.137704,1.16507 -1.158158,1.99354 -2.279248,1.85043 -1.121093,-0.14311 -1.918287,-1.2036 -1.780579,-2.36867 0.137704,-1.16507 1.158158,-1.99354 2.279247,-1.85043 1.121094,0.14311 1.918288,1.2036 1.78058,2.36867 v 0 m 0,0 c 9.449438,-10.21446 21.486188,4.17026 24.691406,0.29666 m -24.857628,1.1097 c 1.055751,14.12681 18.694929,10.14086 18.803131,15.2484 M 78.993042,256.29654 c 9.496039,-3.89832 21.245288,10.93382 23.928348,-0.14436 m -6.054497,16.3581 c 2.350611,-8.2654 -17.275691,-8.01951 -18.06289,-15.50848 5.866614,7.75313 17.20828,11.11669 20.247279,8.64945 m 0,0 c 1.788518,-5.76195 -16.055504,-11.53346 -20.98752,-8.38937 m -7.788658,17.12776 c -0.146859,1.16081 -1.166949,1.97749 -2.278438,1.82412 -1.111503,-0.15337 -1.893499,-1.21874 -1.746629,-2.37956 0.146863,-1.16081 1.166958,-1.97749 2.278446,-1.82411 1.111495,0.15337 1.893486,1.21874 1.746621,2.37955 v 0 m 0,0 c 9.468315,-10.09894 21.289726,4.36343 24.504925,0.53007 m -24.682196,0.87114 c 0.924446,14.10097 18.467086,10.29242 18.529853,15.38803 M 71.028624,274.83679 c 9.459378,-3.79841 20.991531,11.1075 23.751405,0.0829 m -6.152343,16.25917 c 2.405324,-8.22216 -17.076955,-8.163 -17.792854,-15.64042 5.755175,7.78907 16.982983,11.25168 20.020907,8.81947 m 0,0 c 1.825541,-5.73035 -15.835151,-11.65643 -20.757906,-8.56708 m -9.642803,16.63888 c -0.317917,1.14518 -1.475087,1.80751 -2.584596,1.47936 -1.109515,-0.32815 -1.751206,-1.52254 -1.433247,-2.66771 0.317938,-1.14516 1.4751,-1.80747 2.584595,-1.47931 1.109491,0.32815 1.751176,1.5225 1.433248,2.66766 v 0 m 0,0 c 11.105941,-8.68191 21.044696,7.72025 24.874603,4.36549 m -25.258384,-2.98315 c -1.104368,14.33438 17.310484,13.24517 16.635164,18.38269 M 61.157409,292.99753 c 10.182812,-2.3431 19.762692,14.46017 24.172224,3.79767 m -8.62322,15.39954 c 3.641968,-7.89781 -16.203943,-10.88493 -15.848121,-18.52141 4.730078,8.73816 15.660174,13.97836 19.106308,12.00592 m 0,0 c 2.690125,-5.48098 -14.432705,-14.20622 -19.893351,-11.8672 m -12.315423,16.85301 c -0.442863,1.10022 -1.689624,1.63143 -2.784715,1.18649 -1.095117,-0.44494 -1.623851,-1.69758 -1.180947,-2.79781 0.442883,-1.1002 1.689637,-1.63139 2.784713,-1.18644 1.09509,0.44494 1.62382,1.69754 1.180949,2.79776 v 0 m 0,0 c 12.208026,-7.40207 20.615598,9.92155 24.863139,7.01151 m -25.397726,-5.68344 c -2.616955,14.08237 16.239442,14.99203 15.017022,20.00904 M 48.41158,311.30347 c 10.608276,-1.22169 18.6088,16.46058 24.207385,6.3731 m -10.380704,14.3256 c 4.529404,-7.43135 -15.358999,-12.53414 -14.201508,-20.06148 3.904284,9.16808 14.483363,15.5402 18.196327,13.9582 m 0,0 C 69.54197,320.7592 53.022784,310.26554 47.221239,311.99313 M 34.1321,325.90473 c -0.531292,1.14844 -1.860913,1.63336 -2.96978,1.0831 -1.108889,-0.55027 -1.577089,-1.92737 -1.04574,-3.07581 0.531313,-1.14841 1.860921,-1.6333 2.96977,-1.08304 1.108859,0.55026 1.577058,1.92732 1.04575,3.07575 v 0 m 0,0 c 13.16178,-7.10477 20.774763,12.01388 25.375804,9.18356 M 33.49076,327.29096 c -3.63029,14.90499 15.900255,17.14929 14.30554,22.43982 M 34.77202,326.63257 c 11.099754,-0.59375 18.266655,18.8816 24.735884,8.45572 M 47.7963,349.73078 c 5.186547,-7.65337 -15.14469,-14.45776 -13.45493,-22.44098 3.462581,10.08134 14.040424,17.61799 18.000138,16.1739 m 0,0 C 56.111741,338.18232 39.629673,325.83165 33.49076,327.29096 m -3.50734,-5.68174 C 66.638956,287.89167 97.280259,213.97616 93.644167,132.474 M 34.79299,361.52492 c 2.169183,-2.53798 -0.6122,-7.47643 -4.895,-11.48109 m 0,10.58334 c 2.04741,1.33334 3.60073,1.2455 4.895,0.89775 m -4.895,5.71683 c 1.40398,-1.72619 1.15232,-3.40175 0.26549,-5.25793 m -0.26549,-11.93999 c 4.68032,4.91109 8.407835,9.78017 12.824488,3.88007 M 30.08419,343.63914 c 5.865968,4.02069 9.449956,11.73277 12.577635,10.16657 M 29.98088,261.89412 C 53.441892,233.85137 58.48054,208.76493 63.512481,184.43416 M 4.76257,53.710501 c 0,6.420652 5.29167,12.100181 5.29167,18.520833 0,6.420652 -5.29167,12.100182 -5.29167,18.520833 m 0.59729,78.027163 c 1.38424,4.88429 4.69438,9.49885 4.69438,14.57701 0,6.42065 -5.29167,12.10018 -5.29167,18.52083 m 0.31722,-39.86624 c -0.11855,0.55073 -0.20808,1.10553 -0.2613,1.66542 M 4.76259,90.752167 c 0,6.420652 5.29167,12.100183 5.29167,18.520833 0,6.42065 -5.29167,12.10018 -5.29167,18.52083 0,4.93888 3.13105,9.43923 4.57624,14.1757 m -4.57624,59.90764 c 0,6.42065 5.29167,12.10018 5.29167,18.52083 0,6.42065 -5.29167,12.10018 -5.29167,18.52084 0,6.42065 5.29167,12.10018 5.29167,18.52083 0,6.42065 -5.29167,12.10019 -5.29167,18.52083 0,6.42064 5.29167,12.10019 5.29167,18.52083 0,6.42065 -5.29167,12.10019 -5.29167,18.52084 0,6.42064 5.29167,12.10019 5.29167,18.52083 0,6.42064 -5.29167,12.10019 -5.29167,18.52083 0,6.42065 5.29167,12.10019 5.29167,18.52084 0,6.42064 -5.29167,12.10019 -5.29167,18.52083 0,6.42064 5.29167,12.10019 5.29167,18.52083 0,4.76047 -2.90892,9.11352 -4.41325,13.66327 M 8.73134,53.710501 c 0,6.420652 5.29167,12.100181 5.29167,18.520833 0,6.420652 -5.29167,12.100182 -5.29167,18.520833 m 0.83274,78.801303 c 1.49023,4.60041 4.45893,8.99375 4.45893,13.80287 0,6.42065 -5.29167,12.10018 -5.29167,18.52083 m 0,-111.125003 c 0,6.420652 5.29167,12.100183 5.29167,18.520833 0,6.42065 -5.29167,12.10018 -5.29167,18.52083 0,4.81791 2.97955,9.21851 4.46708,13.82809 m -4.46708,60.25525 c 0,6.42065 5.29167,12.10018 5.29167,18.52083 0,6.42065 -5.29167,12.10018 -5.29167,18.52084 0,6.42065 5.29167,12.10018 5.29167,18.52083 0,6.42065 -5.29167,12.10019 -5.29167,18.52083 0,6.42064 5.29167,12.10019 5.29167,18.52083 0,6.42065 -5.29167,12.10019 -5.29167,18.52084 0,6.42064 5.29167,12.10019 5.29167,18.52083 0,6.42064 -5.29167,12.10019 -5.29167,18.52083 0,6.42065 5.29167,12.10019 5.29167,18.52084 0,6.42064 -5.29167,12.10019 -5.29167,18.52083 0,6.42064 5.29167,12.10019 5.29167,18.52083 0,2.31331 -0.68692,4.53044 -1.56577,6.72066 M 12.70009,53.710501 c 0,6.420652 5.29167,12.100181 5.29167,18.520833 0,6.420652 -5.29167,12.100182 -5.29167,18.520833 m 0.760219,78.698673 c 1.45326,4.71427 4.531451,8.9877 4.531451,13.9055 0,6.42065 -5.29167,12.10018 -5.29167,18.52083 m 0,-111.125003 c 0,6.420652 5.29167,12.100183 5.29167,18.520833 0,6.42065 -5.29167,12.10018 -5.29167,18.52083 0,2.91798 1.09295,5.68289 2.28542,8.43386 m -2.28542,65.64948 c 0,6.42065 5.29167,12.10018 5.29167,18.52083 0,6.42065 -5.29167,12.10018 -5.29167,18.52084 0,6.42065 5.29167,12.10018 5.29167,18.52083 0,6.42065 -5.29167,12.10019 -5.29167,18.52083 0,6.42064 5.29167,12.10019 5.29167,18.52083 0,6.42065 -5.29167,12.10019 -5.29167,18.52084 0,6.42064 5.29167,12.10019 5.29167,18.52083 0,6.42064 -5.29167,12.10019 -5.29167,18.52083 0,6.42065 5.29167,12.10019 5.29167,18.52084 0,6.42064 -5.29167,12.10019 -5.29167,18.52083 0,6.42064 5.29167,12.10019 5.29167,18.52083 0,0.39738 -0.0203,0.79193 -0.0583,1.18399 M 0.79387999,31.220918 H 17.73761 M 0.79393999,27.252168 H 13.7189 m -12.92515001,-3.968751 8.95185561,1e-6 M 0.79385999,19.314668 H 5.9466583 M 37.835516,154.25217 c -7.924486,-0.004 -10.590556,-5.27574 -7.937496,-15.875 -3.28317,1.73276 -3.29811,-1.62905 -3.96875,-3.96875 0,0 -2.30044,2.97167 -4.94628,6.94042 -2.64583,3.96875 -9.60581,-0.32584 -5.63706,-5.61751 3.96875,-5.29166 4.35623,-7.00205 5.29167,-7.9375 1.32292,-1.32291 6.61458,-1.32291 11.90625,0 5.291666,1.32292 14.552083,13.22917 14.552083,13.22917 -0.450752,10.63292 -1.984515,20.10911 -3.96875,29.10417 -4.386742,1.47132 -8.740773,1.69748 -13.064433,0.76771 M 19.67792,142.84695 c 1.62898,0.59262 2.62799,1.39262 2.62799,2.27296 0,1.82657 -4.30067,3.3073 -9.60581,3.3073 -5.30514,0 -9.60581,-1.48073 -9.60581,-3.3073 0,-1.82656 4.30067,-3.30729 9.60581,-3.30729 0.93405,0 1.83697,0.0459 2.69076,0.13151 m 5.24674,10.32366 c -3e-6,1.82657 -4.247664,3.30729 -9.48742,3.30729 -5.2397555,0 -9.4874175,-1.48072 -9.48742,-3.30729 2.5e-6,-1.82657 4.2476645,-3.30729 9.48742,-3.30729 5.239756,0 9.487417,1.48072 9.48742,3.30729 v 0 m -0.0042,7.27604 c -2e-6,1.82657 -3.782545,3.30729 -8.567008,3.30729 -4.7844635,0 -9.7424607,-1.48072 -9.742463,-3.30729 2.3e-6,-1.82657 4.3816228,-3.30729 9.166086,-3.30729 4.784463,0 9.143385,1.48072 9.143385,3.30729 v 0.23157 m 0.0042,6.38302 c -2e-6,1.82657 -4.146034,3.30729 -9.26042,3.30729 -5.1143825,0 -8.4452877,-1.42514 -8.4452902,-3.25171 -1.3e-5,-1.82657 3.3308967,-3.36288 8.4452902,-3.36288 5.114397,0 9.260433,1.48073 9.26042,3.3073 v 0 M 47.095933,141.023 c 2.38439,-1.77267 3.809283,-1.4861 5.291666,-1.32292 1.746896,14.26762 -1.372092,23.39434 -3.96875,33.07292 -3.534148,0.88483 -5.289925,-0.005 -5.291666,-2.64583 m 9.260416,-30.42709 c 7.9375,-2.64583 15.37194,-7.59649 25.135417,-5.29166 -0.122965,1.87509 -0.580647,3.43192 -1.29966,4.74027 -1.613736,2.93641 -4.543859,4.62116 -7.960757,5.84306 5.710126,0.96871 9.052457,4.21785 11.90625,7.9375 -2.654694,3.5585 -6.939793,5.93491 -13.066247,5.94335 5.476656,1.91081 8.849328,5.25139 11.74333,9.93165 -4.892688,1.89247 -9.791562,3.79787 -13.229166,2.64584 5.103587,7.32808 6.624254,11.63423 5.304645,16.97836 -7.857699,-4.7929 -15.871188,-11.00512 -22.502562,-15.65545 m 23.439612,-38.9296 c -5.283279,6.27129 -11.257684,11.32954 -18.951204,13.37049 l 0.083,0.53281 c 7.183665,0.48157 14.028748,1.81255 19.241095,5.00008 -6.495103,2.83549 -13.043286,4.16113 -19.841146,3.28138 l -0.04117,0.72845 c 6.166061,2.46041 13.259387,3.43586 17.236482,9.40181 -7.399573,1.01951 -12.982157,-0.58117 -18.774135,-2.04509 l -0.338614,1.29926 c 6.335644,6.11155 10.663181,10.67233 14.540353,19.11655 m 44.171918,-53.37736 c 4.20304,-0.64214 8.25512,-1.24824 11.09198,-1.63038 m -29.386522,4.39229 c 0.737928,-0.0794 2.65027,-0.36025 5.208193,-0.74921 m -18.890562,2.91854 12.629899,-5.26245 0.962287,0.73508 c 0.781478,18.86664 -0.06476,37.89237 -2.693964,57.09235 L 71.442869,184.20441 M 85.932715,132.7229 c 0.879636,14.88135 -0.121798,39.41712 -2.530899,54.48839 M 171.13335,35.765428 c 15.3873,29.771252 8.25422,51.562227 8.25422,78.799242 0,19.84375 22.48958,18.52083 22.48958,1.32291 0,-13.22916 -15.875,-11.98861 -15.875,-1.32291 0,7.9375 11.90625,7.9375 11.90625,2.64583 0,-2.64583 -1.32292,-3.96875 -2.64583,-5.29167 M 177.89002,36.053683 c 15.09718,29.722289 6.27813,53.15526 8.11213,78.510987 m -1.27257,-78.032795 c 12.76876,26.078823 4.24726,48.487097 5.46568,70.481455 m 1.45597,-69.814377 c 11.94719,25.53688 1.09685,47.536677 3.97634,69.155667 m 3.00459,-68.324171 c 10.92577,24.667056 -1.06839,45.137075 2.56967,66.834221 m 4.36713,-66.092451 c 9.8828,23.205955 -0.313,42.720532 1.84096,63.106301 m 5.15882,-62.178749 c 8.7604,21.645435 0.28362,40.105483 1.2214,59.129969 m 5.83956,-57.990826 c 7.56849,19.967849 0.71968,37.253647 0.7013,54.846883 m 6.24065,-53.960021 c 6.6015,18.374949 1.16614,34.498486 0.44939,50.728051 m 6.52735,-49.68668 c 5.65274,16.807031 1.40987,31.75074 0.27161,46.660217 m -37.97575,38.269576 c 6.04873,0.84121 12.64748,-3.81656 12.64748,-13.13227 0,-9.4666 -8.12899,-11.5238 -12.75299,-8.02005 m 6.50722,19.92211 c 5.71823,0.16368 11.53744,-4.47681 11.53744,-13.22498 0,-9.30651 -7.85638,-11.4521 -12.51546,-8.19302 m 8.41167,18.6089 c 4.94282,-0.90009 9.39546,-5.40938 9.39546,-13.06171 0,-10.28133 -9.58842,-11.823018 -13.86158,-6.99303 m 9.73882,17.41234 c 4.95038,-0.89199 9.41442,-5.40302 9.41442,-13.06515 0,-10.377992 -9.76957,-11.851229 -13.98068,-6.8551 m 9.96839,17.25389 c 4.90613,-0.9388 9.30396,-5.43953 9.30396,-13.04462 0,-10.3188 -9.65845,-11.834137 -13.90809,-6.939957 m 8.97207,18.577147 c 4.74296,-1.10145 8.90477,-5.56191 8.90477,-12.96011 0,-9.135725 -7.57069,-11.370939 -12.25581,-8.366968 m 9.00282,18.590858 c 4.59152,-1.23948 8.54466,-5.65937 8.54466,-12.86972 0,-10.341734 -9.70143,-11.840829 -13.93635,-6.907231 m 10.65579,17.138511 c 4.60325,-1.2292 8.57222,-5.65234 8.57222,-12.877113 0,-10.295051 -9.61403,-11.827116 -13.87865,-6.973649 M 104.90409,39.352752 c -0.73956,5.297236 -2.24569,16.33026 -2.24569,18.326499 0,2.645833 1.32292,7.9375 1.32292,10.583333 v 18.520833 c 0,7.9375 17.75203,40.241623 19.84375,42.333333 3.96875,3.96875 16.71559,9.22714 22.48958,7.9375 4.17187,-0.9318 25.45956,-7.986 33.77691,-16.69921 m -78.0744,-80.607178 c -5.108656,15.990609 -4.358576,33.052133 -5.973341,49.681389 -0.458438,4.721121 -6.768478,6.953959 -7.9375,0 m 15.875001,-1.322917 c -2.64584,13.229166 -21.166668,15.874996 -21.166668,3.96875 0,-11.448709 13.229167,-10.583333 13.229167,-3.96875 m 5.726121,5.617509 c -3.968748,6.614587 3.17849,22.022747 0.88846,27.455407 -2.62545,6.22839 -14.552081,7.9375 -15.874998,0 -0.687752,-4.12651 3.96875,-5.29167 3.96875,-5.29167 m 11.363178,-5.29166 c -0.76044,12.77424 -7.44826,11.99802 -10.040261,11.90625 -3.966266,-0.14043 -3.96875,-3.96875 -1.322917,-6.61459 M 108.11509,99.622268 c 1.06656,6.828782 0.11604,18.746362 -0.16502,21.556982 -1.32292,13.22917 -23.812501,13.22917 -25.135418,1.32292 -1.322916,-11.90625 15.550613,-16.19366 14.552083,-6.61459 -0.93759,8.99448 -13.084862,7.29416 -6.614583,0 m 37.041668,-1.32291 c 1.32292,2.64583 5.29166,5.29166 10.58333,2.64583 m -14.55208,-6.61458 3.96875,-1.32292 c 1.32292,0 1.32292,1.32292 3.96875,1.32292 2.64583,0 2.64583,-1.32292 5.29166,-1.32292 2.64584,0 1.32292,1.32292 3.96875,1.32292 2.64584,0 3.96875,-1.32292 3.96875,-1.32292 M 103.98132,59.002168 c 2.99464,-3.739579 14.91602,-11.486917 21.16667,-2.645834 -0.37025,-0.395734 0.33785,1.730044 0,1.322917 -6.6167,-7.973404 -17.56067,-2.059173 -21.16667,1.322917 v 0 m 63.5,2.645833 c -1.43874,-1.796632 -6.00529,-8.080224 -11.90625,-9.260417 -6.61459,-1.322916 -10.58334,0 -15.62972,4.074816 0.37024,-0.395734 -0.37349,1.697617 0,1.322917 9.08648,-9.115853 25.17801,-2.213308 27.53597,3.862684 v 0 m -42.33333,-3.96875 c 4.94044,13.66779 0,19.712754 0,26.458333 0,3.96875 -1.61271,9.276334 -1.32292,11.90625 0.42191,3.82887 3.96875,3.968746 5.29167,6.614586 m 11.90624,-2.64584 c -2.64583,-2.64583 -14.55208,-1.322913 -5.29166,0 9.26041,1.32292 9.26041,-2.097859 9.26041,-3.968746 0,-1.322917 -1.32291,-3.96875 -3.96875,-3.96875 m -1.32291,-21.166667 c 0,0 3.96875,-5.291666 9.26041,-5.291666 5.29167,0 11.90625,6.614583 21.16667,6.614583 -7.9375,0 -13.2322,2.466628 -18.52083,2.645833 -5.42419,0.183799 -9.26042,-3.96875 -11.90625,-3.96875 m -35.71875,-2.645833 c 3.96875,-2.645833 6.61458,-3.96875 10.58333,-2.645833 3.96875,1.322916 11.90625,5.291666 11.90625,5.291666 m 0,0 c -5.29167,1.322917 -10.58333,3.96875 -14.55208,3.96875 -3.74178,0 -7.9375,-5.291666 -7.9375,-5.291666 M 66.00584,0.79384999 98.689652,40.481335 C 146.48932,30.568471 191.79877,36.327382 236.27298,43.127168 L 271.55083,0.79374999 M 240.71625,37.650272 237.19282,37.111514 c -27.86074,-4.259704 -56.33769,-8.17608 -85.74205,-8.033102 -17.64261,0.08579 -35.61899,1.632879 -53.996701,5.444114 l -3.236156,0.671309 M 75.947694,12.882081 C 58.142699,15.23207 62.201039,39.735815 47.095903,51.064668 71.784562,58.471265 84.954547,41.688644 89.830328,29.737066 M 47.095903,51.064668 c 15.872118,2.441863 24.983376,-21.032893 35.653323,-29.86649 m 0.06543,13.99149 c 0.958303,-4.106802 -0.15518,-8.249194 -1.771353,-12.400222 m -12.78073,0.493972 c 4.858845,-2.090931 8.863026,-1.299089 12.832964,-0.391739 m -16.801714,9.652156 c 3.614931,-2.459506 7.242635,-2.996441 10.880289,-2.903707 M 77.52299,41.804251 C 78.387473,40.618643 76.625134,32.273235 75.4821,29.481653 M 60.325073,41.804251 c 3.149767,-1.993212 6.07822,-3.093323 8.877967,-3.674028 m 0.38245,8.965695 c 0.18266,-2.310239 0.16279,-6.202244 -0.427609,-9.159187 m -12.801558,7.83627 c 1.923415,-0.340368 3.610393,-0.162062 5.17742,0.279384 m 0.114247,3.689366 c 1.186564,-1.654572 1.04081,-3.041621 0.476268,-4.346144 M 19.315,157.50927 v -3.25377"
       id="path1514"
       style="display:none"
       inkscape:label="body-trace"
       sodipodi:nodetypes="ccscccscccccccccccsccccccccccccccccccccccccccccccccccccccccccccccccsssscccccccccscccccccscccccccccccccccccccccccccccccccccccccccccccccccsssscccccccccccccsssscccccccccccccsssscccccccccccccsssscccccccccccccsssscccccccccccccsssscccccccccccccsssscccccccccccccsssscccccccccccccsssscccccccccccccsssscccccccccccccsssscccccccccccccccccccccccccccsccsccccssccsssssssssssccsccsccssccsssssssssssccsccsccssccsssssssssssccccccccccccssssccccssssccssssccssssccsssscccccccscccccccccccccccccccccccccccccssssccccccccccccccccccccsccsccsccsccsccsccsccsccsssssccsccsccssccsccssscccccsssccccsccsccsccssccssccscsccsccscccccccsccccccccccccccccccccccccc" />
  </g>
</svg>
