<?xml version="1.0" encoding="UTF-8" standalone="no"?>
<svg
   class="card"
   face="JD"
   height="3.5in"
   preserveAspectRatio="none"
   viewBox="0 0 240 336"
   width="2.5in"
   version="1.1"
   id="svg89"
   sodipodi:docname="j-diamond.svg"
   inkscape:version="1.2.2 (b0a8486541, 2022-12-01)"
   xmlns:inkscape="http://www.inkscape.org/namespaces/inkscape"
   xmlns:sodipodi="http://sodipodi.sourceforge.net/DTD/sodipodi-0.dtd"
   xmlns="http://www.w3.org/2000/svg"
   xmlns:svg="http://www.w3.org/2000/svg">
  <sodipodi:namedview
     id="namedview91"
     pagecolor="#505050"
     bordercolor="#eeeeee"
     borderopacity="1"
     inkscape:showpageshadow="0"
     inkscape:pageopacity="0"
     inkscape:pagecheckerboard="0"
     inkscape:deskcolor="#505050"
     inkscape:document-units="in"
     showgrid="false"
     inkscape:zoom="3.0565476"
     inkscape:cx="49.23856"
     inkscape:cy="38.114899"
     inkscape:window-width="1278"
     inkscape:window-height="1368"
     inkscape:window-x="1266"
     inkscape:window-y="0"
     inkscape:window-maximized="0"
     inkscape:current-layer="layer1" />
  <defs
     id="defs45" />
  <g
     inkscape:groupmode="layer"
     id="layer1"
     inkscape:label="Layer 1"
     transform="translate(83.6677,130.78572)">
    <path
       d="M 1,0 0,1 -1,0 0,-1"
       id="path1736"
       fill="#ff0000"
       inkscape:label="layer-0"
       style="display:inline;stroke-width:0.264583" />
    <path
       fill="#ffcc44"
       d="m -82.4,-130.4 v 78.566 c 0,-0.6052 0.7012,-1.1857 1.9493,-1.6136 1.2481,-0.428 2.941,-0.6684 4.7061,-0.6684 2.5817,0.0011 4.9286,0.514 6.0215,1.316 v -25.78 c 13.7274,-5.3669 18.6632,-14.067 20.9169,-23.784 -6.3989,5.3683 -13.4118,8.7903 -20.9169,10.6526 V -117.36 Z m 0,78.566 v 4.238 c 0,-0.9471 1.763,-1.7595 4.2735,-2.1047 l 0.0381,-3e-4 c -2.5912,-0.3343 -4.3082,-1.1837 -4.3116,-2.133 z m 0,4.238 v 4.564 c 0,-0.6052 0.7012,-1.1857 1.9493,-1.6136 1.2481,-0.428 2.941,-0.6684 4.7061,-0.6684 2.5817,0.0011 4.9286,0.514 6.0215,1.316 v -2.2866 c -1.2617,0.5868 -3.3456,0.9706 -5.7046,0.9706 -3.8507,0 -6.9723,-1.0217 -6.9723,-2.282 z m 0,4.564 V 92.584 l 12.6769,-13.04 V -38.101 c -0.9879,0.7487 -3.0287,1.263 -5.3877,1.263 -3.3256,0 -6.0215,-1.0217 -6.0215,-2.282 0,-0.765 0.9935,-1.4421 2.518,-1.8562 -2.3101,-0.3785 -3.7822,-1.1779 -3.7857,-2.0558 z m 110.6594,-65.804 c 0.7039,2.592 2.165,8.09 2.165,9.08 0,1.304 -1.2677,5.216 -1.2677,7.172 0,1.956 -1.2677,9.128 -2.5354,12.388 -1.2677,3.26 -5.7045,11.736 -6.3746,13.1477 0.364,2.4244 2.7965,4.2792 5.3479,4.9598 l -0.1887,-0.0043 c -4.2925,3.099 -9.0598,5.0197 -14.2442,5.8196 -8.66006,1.3362 -18.66485,-0.5498 -29.4735,-6.1471 l -0.0832,0.0384 c 1.4711,-0.9601 2.927,-2.7823 4.1457,-5.8998 2.1802,-5.5771 -2.8647,-19.0863 7.27685,-39.2983 -8.61745,0 -16.93605,0.547 -24.24035,2.95 -7.7189,16.702 -7.3319,28.0061 -9.8565,33.4497 0.5031,-5.1037 -10.9061,-8.3637 -10.9061,1.4163 0,2.6834 1.9719,6.4936 5.4547,6.6621 8.2589,2.7476 16.4735,4.7755 25.694,1.5961 0.3014,-0.028 0.6078,-0.0854 0.9169,-0.1739 l -1.3474,0.6242 c 11.84691,6.5224 23.00907,8.8715 32.795,7.3615 6.619,-1.0213 12.6389,-3.7917 17.8786,-8.3059 l -0.2191,-0.005 c 1.2162,-0.34 2.1776,-1.1285 2.5542,-2.47 3.0488,-3.6929 4.3355,-5.738 5.9304,-8.0713 0.3583,-0.7832 0.5037,-1.8097 0.3486,-3.0858 -0.6338,-5.216 -6.3383,-2.608 -6.3233,-0.6163 -0.4276,-1.3604 -0.649,-2.8664 -0.6306,-4.6132 2.454,1.0074 5.6863,-0.7503 5.6863,-3.8985 0,-5.216 -5.0708,-0.652 -5.0708,-0.652 0,0 2.1302,-16.106 -2.1883,-23.313 z m 11.1911,39.2276 c -7.0525,10.4995 -16.5625,16.8002 -27.5363,18.4934 -11.161923,1.7222 -23.7621,-1.282 -36.8844,-9.0817 l -1.0176,0.2127 3.4646,4.1369 c 12.1858,6.4745 24.03922,8.9737 34.8135,7.3113 8.9724,-1.3844 17.0643,-5.7159 23.6837,-12.6406 l -0.3677,0.4141 2.1759,35.8113 2.2294,-7.6431 c -0.5613,-9.2376 -1.2272,-20.1972 -1.883,-30.9904 1.1926,-1.4229 2.3302,-2.9371 3.4079,-4.5416 l 0.4605,-0.6856 z m 9.1452,2.5853 c 3.3288,13.7383 10.0602,25.8218 20.9778,34.9488 l 0.1401,-5.0237 C 61.3007,-44.9096 55.8469,-54.7246 52.8068,-65.9366 Z m -84.6916,7.2426 19.151,22.1907 c -0.1092,-0.0078 -0.2183,-0.0135 -0.3268,-0.0151 -0.1644,-0.0024 -0.3278,0.0023 -0.4897,0.0138 -1.2955,0.092 -2.4958,0.6242 -3.3705,1.524 -1.4635,1.5054 -1.9257,3.9483 -1.0585,6.2182 -0.7515,-0.2424 -1.5143,-0.3314 -2.2467,-0.2794 -1.2955,0.0921 -2.496,0.6243 -3.3708,1.5241 -1.2259,1.261 -1.7485,3.1799 -1.3766,5.1039 -0.5357,-0.1096 -1.0711,-0.1449 -1.5911,-0.108 -1.2954,0.0921 -2.496,0.6243 -3.3707,1.5241 -1.2192,1.254 -1.7429,3.1588 -1.3828,5.0721 -0.036,-0.0078 -0.0718,-0.0174 -0.1077,-0.0245 -0.1243,-0.0264 -0.2508,-0.0399 -0.3776,-0.0405 -0.1103,-3e-4 -0.2185,0.0088 -0.3239,0.027 l 0.0493,0.2774 c -2.7403,-14.0887 -8.9865,-28.4718 -19.7747,-42.5728 l -8.062,5.4226 c 0.4849,1.9103 1.2538,4.8611 1.3749,6.9789 0.0446,0.7794 -0.0426,1.7442 -0.179,2.8413 19.824,29.7571 17.0244,58.2498 4.9217,82.561 3.4281,4.3408 6.3021,9.1659 8.6228,14.3657 5.5732,-9.5822 9.9331,-20.1396 12.4298,-31.3088 L -36.9947,21.7269 0.469539,-17.412 15.8289,0.384836 18.4955,-2.40094 -30.6775,-59.3776 Z m -33.6272,8.912 c -0.692,0.5064 -1.9022,0.9079 -3.4007,1.1285 l 0.0839,-7e-4 c 1.3498,0.161 2.5038,0.4549 3.3168,0.833 z m 0,8.802 c -0.5474,0.4004 -1.4223,0.7376 -2.5183,0.9706 l 0.134,-0.0025 c 1.0223,0.2234 1.8544,0.5575 2.3843,0.9589 z m 93.6367,2.6513 -3.2437,1.0725 c 1.0711,3.3407 2.8512,8.3196 4.6837,10.9587 1.3746,1.9795 3.5837,4.5723 5.645,6.874 0,0 2.9203,-1.574 2.0535,-2.5632 -1.7098,-1.9513 -3.4008,-3.9897 -4.5292,-5.6148 -1.7907,-2.5788 -3.5313,-7.3917 -4.6093,-10.7272 z m -6.5655,1.8964 -3.3868,0.6062 c 0.9931,3.2254 2.9902,9.1646 5.0539,12.1366 1.824,2.6268 5.1178,6.3334 7.5853,9.0068 0.9043,0.9797 2.1403,-2.4272 2.1403,-2.4272 -2.2934,-2.5225 -4.9763,-5.6082 -6.5564,-7.8836 -1.9226,-2.7688 -3.7872,-8.1129 -4.8363,-11.4388 z"
       id="path369"
       style="display:inline"
       inkscape:label="layer-3" />
    <path
       fill="#ff0000"
       d="m -57.1069,-130.4 19.987,21.592 3.2291,-0.639 c 19.01,-3.651 37.62198,-4.843 55.9549,-4.761 2.619,0.011 5.2324,0.049 7.8404,0.109 l 4.3703,0.205 15.2853,-16.506 H 38.1038 l -9.3336,14.175 -0.4142,-0.01 c -2.2108,-0.05 -4.4497,-0.079 -6.6935,-0.089 -1.799,-0.008 -3.5999,-0.004 -5.537,0.02 l -1.0035,0.012 3.6736,-14.108 H 5.85945 l -0.98543,14.396 -0.6794,0.029 c -3.664343,0.156 -7.35991,0.387 -11.10566,0.699 l -0.69896,0.058 -2.4106,-15.182 h -15.5998 l 5.7445,16.498 -0.9369,0.125 c -3.3206,0.442 -6.7124,0.965 -10.1301,1.581 l -0.4492,0.081 -13.9111,-18.285 z m 13.7354,0 12.619,16.587 c 2.9704,-0.529 5.9136,-0.984 8.8107,-1.381 l -5.2946,-15.206 z m 34.89243,0 2.14542,13.513 c 3.2949,-0.266 6.553084,-0.47 9.78523,-0.616 L 4.33426,-130.4 Z m 28.84957,0 -3.2618,12.528 c 1.5591,-0.014 3.0799,-0.023 4.5605,-0.017 2.1125,0.01 4.2176,0.04 6.3035,0.084 l 8.294,-12.595 z M -82.4,-123.88 v 9.128 l 10.1415,10.432 v -9.128 z m 0,19.56 v 14.3249 c 3.464,-0.1188 6.8473,-0.493 10.1415,-1.1497 v -2.7432 z m 28.6369,8.7039 c -8.7485,5.3827 -18.43,7.8899 -28.6369,8.229 v 9.6412 c 11.1483,-2.1186 18.1901,-5.6318 22.7711,-9.8444 2.636,-2.4241 4.4895,-5.1119 5.8658,-8.0258 z m -18.4954,17.9547 c -2.9887,1.003 -6.3549,1.8628 -10.1415,2.5632 v 1.4222 l 10.1415,10.432 z m 23.0826,13.5841 -6.9634,4.7835 c 8.3142,10.8055 13.9304,21.7849 17.3714,32.8116 l 16.5968,-17.1636 -13.9248,-16.1347 c -4.3627,-1.4184 -8.9643,-1.6509 -13.08,-4.2968 z m 109.444,0.2921 -5.3679,4.3383 1.2432,3.0489 h 8.4319 l -5.1356,6.6035 1.8203,2.7937 7.7812,-1.334 -2.24,8.2951 1.5469,1.5798 1.3923,-5.1558 -0.0755,-5.6577 -0.7693,-1.0197 -7.6532,1.3121 4.6543,-5.9846 -1.6579,-3.3884 h -7.6133 l 5.914,-4.78 z M -82.4,-63.244 v 11.41 c 0,-0.6052 0.7012,-1.1857 1.9493,-1.6136 1.2481,-0.428 2.941,-0.6684 4.7061,-0.6684 0.809,9e-4 1.6108,0.0523 2.366,0.1518 z m 0,11.41 v 4.238 c 0,-0.9471 1.763,-1.7595 4.2735,-2.1047 l 0.0381,-3e-4 c -2.5912,-0.3343 -4.3082,-1.1837 -4.3116,-2.133 z m 0,4.238 v 4.564 c 0,-0.6052 0.7012,-1.1857 1.9493,-1.6136 1.2481,-0.428 2.941,-0.6684 4.7061,-0.6684 1.2318,10e-4 2.4386,0.1193 3.4861,0.3415 v -0.5926 c -0.9516,0.1594 -2.0268,0.2511 -3.1692,0.2511 -3.8507,0 -6.9723,-1.0217 -6.9723,-2.282 z m 0,4.564 V -32.6 l 10.1415,10.432 V -37.11 c -0.8491,0.1734 -1.8201,0.272 -2.8523,0.272 -3.3256,0 -6.0215,-1.0217 -6.0215,-2.282 0,-0.765 0.9935,-1.4421 2.518,-1.8562 -2.3101,-0.3785 -3.7822,-1.1779 -3.7857,-2.0558 z m 21.57,-13.4312 c -0.1371,-0.002 -0.2647,0.0721 -0.3338,0.194 -0.0692,0.1218 -0.0692,0.2726 0,0.3944 0.0691,0.1219 0.1967,0.196 0.3338,0.194 h 1.0684 0.0483 c 0.1372,0.002 0.2647,-0.0721 0.3339,-0.194 0.0691,-0.1218 0.0691,-0.2726 0,-0.3944 -0.0692,-0.1219 -0.1967,-0.196 -0.3339,-0.194 h -0.0483 z m -12.3513,2.5237 c 0.3197,0.0467 0.6283,0.1018 0.9228,0.165 v -0.165 z m 9.4161,0.0843 c -0.1372,-0.002 -0.2647,0.0721 -0.3339,0.194 -0.0691,0.1218 -0.0691,0.2726 0,0.3944 0.0692,0.1219 0.1967,0.196 0.3339,0.194 h 5.9502 0.0451 c 0.1371,0.002 0.2647,-0.0721 0.3338,-0.194 0.0692,-0.1218 0.0692,-0.2726 0,-0.3944 -0.0691,-0.1219 -0.1967,-0.196 -0.3338,-0.194 h -0.0451 z m 1.9614,2.608 c -0.1371,-0.002 -0.2647,0.0721 -0.3338,0.194 -0.0692,0.1218 -0.0692,0.2726 0,0.3944 0.0691,0.1219 0.1967,0.196 0.3338,0.194 h 5.8114 0.0411 c 0.1371,0.002 0.2647,-0.0721 0.3338,-0.194 0.0692,-0.1218 0.0692,-0.2726 0,-0.3944 -0.0691,-0.1219 -0.1967,-0.196 -0.3338,-0.194 h -0.0411 z m -10.4547,1.3552 c -0.2787,0.0579 -0.5695,0.1087 -0.87,0.152 l 0.0886,-7e-4 c 0.2695,0.0321 0.5287,0.071 0.7814,0.1133 z m 12.2909,1.2528 c -0.1371,-0.002 -0.2647,0.0721 -0.3338,0.194 -0.0692,0.1218 -0.0692,0.2726 0,0.3944 0.0691,0.1219 0.1967,0.196 0.3338,0.194 h 5.7024 0.0376 c 0.1372,0.002 0.2648,-0.0721 0.3339,-0.194 0.0691,-0.1218 0.0691,-0.2726 0,-0.3944 -0.0691,-0.1219 -0.1967,-0.196 -0.3339,-0.194 h -0.0376 z m 1.7332,2.608 c -0.1372,-0.002 -0.2647,0.0721 -0.3339,0.194 -0.0691,0.1218 -0.0691,0.2726 0,0.3944 0.0692,0.1219 0.1967,0.196 0.3339,0.194 h 5.6031 0.0341 c 0.1372,0.002 0.2648,-0.0721 0.3339,-0.194 0.0692,-0.1218 0.0692,-0.2726 0,-0.3944 -0.0691,-0.1219 -0.1967,-0.196 -0.3339,-0.194 h -0.0341 z m 1.6316,2.608 c -0.1371,-0.002 -0.2647,0.0721 -0.3338,0.194 -0.0692,0.1218 -0.0692,0.2726 0,0.3944 0.0691,0.1219 0.1967,0.196 0.3338,0.194 h 5.4994 0.0317 c 0.1371,0.002 0.2647,-0.0721 0.3339,-0.194 0.0691,-0.1218 0.0691,-0.2726 0,-0.3944 -0.0692,-0.1219 -0.1968,-0.196 -0.3339,-0.194 h -0.0317 z m 1.5312,2.608 c -0.1372,-0.002 -0.2647,0.0721 -0.3339,0.194 -0.0691,0.1218 -0.0691,0.2726 0,0.3944 0.0692,0.1219 0.1967,0.196 0.3339,0.194 h 5.3778 c 0.1371,0.002 0.2647,-0.0721 0.3338,-0.194 0.0692,-0.1218 0.0692,-0.2726 0,-0.3944 -0.0691,-0.1219 -0.1967,-0.196 -0.3338,-0.194 z m 75.7415,2.4725 -3.3218,0.8239 c 1.0491,3.3259 2.9137,8.67 4.8363,11.4388 1.6102,2.3188 4.3655,5.4791 6.6868,8.0272 l 2.1274,-2.4572 c -2.0613,-2.3017 -4.2704,-4.8945 -5.645,-6.874 -1.8325,-2.6391 -3.6126,-7.618 -4.6837,-10.9587 z m -74.3129,0.1355 c -0.1371,-0.002 -0.2647,0.0721 -0.3339,0.194 -0.0691,0.1218 -0.0691,0.2726 0,0.3944 0.0692,0.1219 0.1968,0.196 0.3339,0.194 h 5.2713 c 0.1372,0.002 0.2647,-0.0721 0.3339,-0.194 0.0691,-0.1218 0.0691,-0.2726 0,-0.3944 -0.0692,-0.1219 -0.1967,-0.196 -0.3339,-0.194 z m 1.3066,2.608 c -0.1372,-0.002 -0.2648,0.0721 -0.3339,0.194 -0.0691,0.1218 -0.0691,0.2726 0,0.3944 0.0691,0.1219 0.1967,0.196 0.3339,0.194 h 5.2002 c 0.1372,0.002 0.2647,-0.0721 0.3339,-0.194 0.0691,-0.1218 0.0691,-0.2726 0,-0.3944 -0.0692,-0.1219 -0.1967,-0.196 -0.3339,-0.194 z m 1.2115,2.608 c -0.1372,-0.002 -0.2648,0.0721 -0.3339,0.194 -0.0692,0.1218 -0.0692,0.2726 0,0.3944 0.0691,0.1219 0.1967,0.196 0.3339,0.194 h 5.1299 c 0.1371,0.002 0.2647,-0.0721 0.3339,-0.194 0.0691,-0.1218 0.0691,-0.2726 0,-0.3944 -0.0692,-0.1219 -0.1968,-0.196 -0.3339,-0.194 z m 1.1174,2.608 c -0.1372,-0.002 -0.2648,0.0721 -0.3339,0.194 -0.0692,0.1218 -0.0692,0.2726 0,0.3944 0.0691,0.1219 0.1967,0.196 0.3339,0.194 h 5.0403 0.0198 c 0.1371,0.002 0.2647,-0.0721 0.3338,-0.194 0.0692,-0.1218 0.0692,-0.2726 0,-0.3944 -0.0691,-0.1219 -0.1967,-0.196 -0.3338,-0.194 h -0.0198 z m 1.0245,2.608 c -0.1372,-0.002 -0.2647,0.0721 -0.3339,0.194 -0.0691,0.1218 -0.0691,0.2726 0,0.3944 0.0692,0.1219 0.1967,0.196 0.3339,0.194 h 4.9618 c 0.1372,0.002 0.2647,-0.0721 0.3339,-0.194 0.0691,-0.1218 0.0691,-0.2726 0,-0.3944 -0.0692,-0.1219 -0.1967,-0.196 -0.3339,-0.194 z m 0.9322,2.608 c -0.1372,-0.002 -0.2647,0.0721 -0.3339,0.194 -0.0691,0.1218 -0.0691,0.2726 0,0.3944 0.0692,0.1219 0.1967,0.196 0.3339,0.194 h 4.8945 c 0.1371,0.002 0.2647,-0.0721 0.3338,-0.194 0.0692,-0.1218 0.0692,-0.2726 0,-0.3944 -0.0691,-0.1219 -0.1967,-0.196 -0.3338,-0.194 z m 0.8257,2.608 c -0.1371,-0.002 -0.2647,0.0721 -0.3338,0.194 -0.0692,0.1218 -0.0692,0.2726 0,0.3944 0.0691,0.1219 0.1967,0.196 0.3338,0.194 h 4.8507 c 0.1371,0.002 0.2647,-0.0721 0.3338,-0.194 0.0692,-0.1218 0.0692,-0.2726 0,-0.3944 -0.0691,-0.1219 -0.1967,-0.196 -0.3338,-0.194 z M -82.4,-22.168 V 8.476 l 10.1415,10.432 v -30.644 z m 35.9026,2.2168 c -0.1371,-0.002 -0.2647,0.0721 -0.3339,0.194 -0.0691,0.1218 -0.0691,0.2726 0,0.3944 0.0692,0.1219 0.1968,0.196 0.3339,0.194 h 4.793 c 0.1371,0.002 0.2647,-0.0721 0.3338,-0.194 0.0692,-0.1218 0.0692,-0.2726 0,-0.3944 -0.0691,-0.1219 -0.1967,-0.196 -0.3338,-0.194 z m 0.6393,2.608 c -0.1371,-0.002 -0.2647,0.0721 -0.3339,0.194 -0.0691,0.1218 -0.0691,0.2726 0,0.3944 0.0692,0.1219 0.1968,0.196 0.3339,0.194 h 4.7462 c 0.1371,0.002 0.2647,-0.0721 0.3338,-0.194 0.0692,-0.1218 0.0692,-0.2726 0,-0.3944 -0.0691,-0.1219 -0.1967,-0.196 -0.3338,-0.194 z m 0.5519,2.608 c -0.1372,-0.002 -0.2647,0.0721 -0.3339,0.194 -0.0691,0.1218 -0.0691,0.2726 0,0.3944 0.0692,0.1219 0.1967,0.196 0.3339,0.194 h 4.7098 c 0.1371,0.002 0.2647,-0.0721 0.3338,-0.194 0.0692,-0.1218 0.0692,-0.2726 0,-0.3944 -0.0691,-0.1219 -0.1967,-0.196 -0.3338,-0.194 z m 0.465,2.608 c -0.1372,-0.002 -0.2647,0.0721 -0.3339,0.194 -0.0691,0.1218 -0.0691,0.2726 0,0.3944 0.0692,0.1219 0.1967,0.196 0.3339,0.194 h 4.6835 c 0.1372,0.002 0.2647,-0.0721 0.3339,-0.194 0.0691,-0.1218 0.0691,-0.2726 0,-0.3944 -0.0692,-0.1219 -0.1967,-0.196 -0.3339,-0.194 z m 0.3786,2.608 c -0.1372,-0.002 -0.2648,0.07213 -0.3339,0.19399 -0.0692,0.12185 -0.0692,0.27257 0,0.39442 0.0691,0.12186 0.1967,0.19599 0.3339,0.19399 h 4.6431 c 0.1372,0.002 0.2647,-0.07213 0.3339,-0.19399 0.0691,-0.12185 0.0691,-0.27257 0,-0.39442 -0.0692,-0.12186 -0.1967,-0.19599 -0.3339,-0.19399 z m 0.2785,2.608 c -0.1372,-0.002 -0.2647,0.07213 -0.3339,0.19399 -0.0691,0.12185 -0.0691,0.27257 0,0.39442 0.0692,0.12186 0.1967,0.19599 0.3339,0.19399 h 4.6211 c 0.1372,0.002 0.2648,-0.07213 0.3339,-0.19399 0.0691,-0.12185 0.0691,-0.27257 0,-0.39442 -0.0691,-0.12186 -0.1967,-0.19599 -0.3339,-0.19399 z m 0.1889,2.608 c -0.1371,-0.002 -0.2647,0.07213 -0.3338,0.19399 -0.0692,0.12185 -0.0692,0.27257 0,0.39442 0.0691,0.12186 0.1967,0.19599 0.3338,0.19399 h 4.6142 c 0.1372,0.002 0.2647,-0.07213 0.3339,-0.19399 0.0691,-0.12185 0.0691,-0.27257 0,-0.39442 -0.0692,-0.12186 -0.1967,-0.19599 -0.3339,-0.19399 z m 0.1052,2.608 c -0.1371,-0.002 -0.2647,0.07213 -0.3338,0.19399 -0.0692,0.12185 -0.0692,0.27257 0,0.39442 0.0691,0.121862 0.1967,0.195985 0.3338,0.19399 h 4.5915 c 0.1371,0.001995 0.2647,-0.072128 0.3338,-0.19399 0.0692,-0.12185 0.0692,-0.27257 0,-0.39442 -0.0691,-0.12186 -0.1967,-0.19599 -0.3338,-0.19399 z m 0.0221,2.608 c -0.1372,-0.001995 -0.2647,0.072128 -0.3339,0.19399 -0.0691,0.12185 -0.0691,0.27257 0,0.39442 0.0692,0.12186 0.1967,0.19599 0.3339,0.19399 h 4.5694 c 0.1371,0.002 0.2647,-0.07213 0.3338,-0.19399 0.0692,-0.12185 0.0692,-0.27257 0,-0.39442 -0.0691,-0.121862 -0.1967,-0.195985 -0.3338,-0.19399 z m -0.0614,2.608 c -0.1372,-0.002 -0.2647,0.07213 -0.3339,0.19399 -0.0691,0.12185 -0.0691,0.27257 0,0.39442 0.0692,0.12186 0.1967,0.19599 0.3339,0.19399 h 4.6159 c 0.1372,0.002 0.2647,-0.07213 0.3339,-0.19399 0.0691,-0.12185 0.0691,-0.27257 0,-0.39442 -0.0692,-0.12186 -0.1967,-0.19599 -0.3339,-0.19399 z m -0.1441,2.608 c -0.1372,-0.002 -0.2647,0.07213 -0.3339,0.19399 -0.0691,0.12185 -0.0691,0.27257 0,0.39442 0.0692,0.12186 0.1967,0.19599 0.3339,0.19399 h 4.6204 c 0.1371,0.002 0.2647,-0.07213 0.3338,-0.19399 0.0692,-0.12185 0.0692,-0.27257 0,-0.39442 C -39.1883,6.20093 -39.3159,6.1268 -39.453,6.1288 Z M -44.3,8.7368 c -0.1371,-0.002 -0.2647,0.07213 -0.3338,0.19399 -0.0692,0.12185 -0.0692,0.27257 0,0.39442 0.0691,0.12186 0.1967,0.19599 0.3338,0.19399 h 4.634 c 0.1372,0.002 0.2648,-0.07213 0.3339,-0.19399 0.0691,-0.12185 0.0691,-0.27257 0,-0.39442 C -39.4012,8.80893 -39.5288,8.7348 -39.666,8.7368 Z m -0.3194,2.608 c -0.1371,-0.002 -0.2647,0.0721 -0.3338,0.194 -0.0692,0.1218 -0.0692,0.2726 0,0.3944 0.0691,0.1219 0.1967,0.196 0.3338,0.194 h 4.6672 c 0.1372,0.002 0.2647,-0.0721 0.3339,-0.194 0.0691,-0.1218 0.0691,-0.2726 0,-0.3944 -0.0692,-0.1219 -0.1967,-0.196 -0.3339,-0.194 z m -0.4036,2.608 c -0.1371,-0.002 -0.2647,0.0721 -0.3338,0.194 -0.0692,0.1218 -0.0692,0.2726 0,0.3944 0.0691,0.1219 0.1967,0.196 0.3338,0.194 h 4.7051 c 0.1372,0.002 0.2647,-0.0721 0.3339,-0.194 0.0691,-0.1218 0.0691,-0.2726 0,-0.3944 -0.0692,-0.1219 -0.1967,-0.196 -0.3339,-0.194 z m -0.485,2.608 c -0.1371,-0.002 -0.2647,0.0721 -0.3339,0.194 -0.0691,0.1218 -0.0691,0.2726 0,0.3944 0.0692,0.1219 0.1968,0.196 0.3339,0.194 h 4.7353 c 0.1371,0.002 0.2647,-0.0721 0.3338,-0.194 0.0692,-0.1218 0.0692,-0.2726 0,-0.3944 -0.0691,-0.1219 -0.1967,-0.196 -0.3338,-0.194 z M -82.4,18.908 v 30.644 l 10.1415,10.432 V 29.34 Z m 36.3258,0.2608 c -0.1372,-0.002 -0.2648,0.0721 -0.3339,0.194 -0.0692,0.1218 -0.0692,0.2726 0,0.3944 0.0691,0.1219 0.1967,0.196 0.3339,0.194 h 4.7736 c 0.1372,0.002 0.2647,-0.0721 0.3339,-0.194 0.0691,-0.1218 0.0691,-0.2726 0,-0.3944 -0.0692,-0.1219 -0.1967,-0.196 -0.3339,-0.194 z m -0.6478,2.608 c -0.1371,-0.002 -0.2647,0.0721 -0.3338,0.194 -0.0692,0.1218 -0.0692,0.2726 0,0.3944 0.0691,0.1219 0.1967,0.196 0.3338,0.194 h 4.8202 c 0.1372,0.002 0.2648,-0.0721 0.3339,-0.194 0.0691,-0.1218 0.0691,-0.2726 0,-0.3944 -0.0691,-0.1219 -0.1967,-0.196 -0.3339,-0.194 z m -0.7289,2.608 c -0.1371,-0.002 -0.2647,0.0721 -0.3338,0.194 -0.0692,0.1218 -0.0692,0.2726 0,0.3944 0.0691,0.1219 0.1967,0.196 0.3338,0.194 h 4.8737 c 0.1372,0.002 0.2647,-0.0721 0.3339,-0.194 0.0691,-0.1218 0.0691,-0.2726 0,-0.3944 -0.0692,-0.1219 -0.1967,-0.196 -0.3339,-0.194 z m -0.8109,2.608 c -0.1371,-0.002 -0.2647,0.0721 -0.3338,0.194 -0.0692,0.1218 -0.0692,0.2726 0,0.3944 0.0691,0.1219 0.1967,0.196 0.3338,0.194 h 4.9331 c 0.1372,0.002 0.2648,-0.0721 0.3339,-0.194 0.0692,-0.1218 0.0692,-0.2726 0,-0.3944 -0.0691,-0.1219 -0.1967,-0.196 -0.3339,-0.194 z m -0.8925,2.608 c -0.1372,-0.002 -0.2648,0.0721 -0.3339,0.194 -0.0691,0.1218 -0.0691,0.2726 0,0.3944 0.0691,0.1219 0.1967,0.196 0.3339,0.194 h 4.9942 c 0.1372,0.002 0.2647,-0.0721 0.3339,-0.194 0.0691,-0.1218 0.0691,-0.2726 0,-0.3944 -0.0692,-0.1219 -0.1967,-0.196 -0.3339,-0.194 z m -0.9751,2.608 c -0.1371,-0.002 -0.2647,0.0721 -0.3338,0.194 -0.0692,0.1218 -0.0692,0.2726 0,0.3944 0.0691,0.1219 0.1967,0.196 0.3338,0.194 h 5.051 c 0.1371,0.002 0.2647,-0.0721 0.3339,-0.194 0.0691,-0.1218 0.0691,-0.2726 0,-0.3944 -0.0692,-0.1219 -0.1968,-0.196 -0.3339,-0.194 z m -1.0574,2.608 c -0.1372,-0.002 -0.2648,0.0721 -0.3339,0.194 -0.0692,0.1218 -0.0692,0.2726 0,0.3944 0.0691,0.1219 0.1967,0.196 0.3339,0.194 h 5.1138 2e-4 8e-4 0.005 c 0.2059,-2e-4 0.3743,-0.1689 0.3799,-0.3807 0.0056,-0.2117 -0.1537,-0.3896 -0.3594,-0.4012 -0.0075,-2e-4 -0.015,-2e-4 -0.0225,0 h -0.004 z m -1.141,2.608 c -0.1371,-0.002 -0.2647,0.0721 -0.3338,0.194 -0.0692,0.1218 -0.0692,0.2726 0,0.3944 0.0691,0.1219 0.1967,0.196 0.3338,0.194 h 5.1827 c 0.1372,0.002 0.2647,-0.0721 0.3339,-0.194 0.0691,-0.1218 0.0691,-0.2726 0,-0.3944 -0.0692,-0.1219 -0.1967,-0.196 -0.3339,-0.194 z m -1.2246,2.608 c -0.1371,-0.002 -0.2647,0.0721 -0.3338,0.194 -0.0692,0.1218 -0.0692,0.2726 0,0.3944 0.0691,0.1219 0.1967,0.196 0.3338,0.194 h 5.2562 c 0.1372,0.002 0.2648,-0.0721 0.3339,-0.194 0.0691,-0.1218 0.0691,-0.2726 0,-0.3944 -0.0691,-0.1219 -0.1967,-0.196 -0.3339,-0.194 z m -1.1567,2.608 c -0.1372,-0.002 -0.2648,0.0721 -0.3339,0.194 -0.0692,0.1218 -0.0692,0.2726 0,0.3944 0.0691,0.1219 0.1967,0.196 0.3339,0.194 h 5.1819 c 0.1371,0.002 0.2647,-0.0721 0.3339,-0.194 0.0691,-0.1218 0.0691,-0.2726 0,-0.3944 -0.0692,-0.1219 -0.1968,-0.196 -0.3339,-0.194 z m 1.6249,2.608 c -0.1371,-0.002 -0.2647,0.0721 -0.3338,0.194 -0.0692,0.1218 -0.0692,0.2726 0,0.3944 0.0691,0.1219 0.1967,0.196 0.3338,0.194 h 2.2442 0.0159 c 0.1371,0.002 0.2647,-0.0721 0.3338,-0.194 0.0692,-0.1218 0.0692,-0.2726 0,-0.3944 -0.0691,-0.1219 -0.1967,-0.196 -0.3338,-0.194 H -50.84 Z M -82.4,59.9781 V 86.064 l 10.1415,-10.432 v -5.3161 z"
       id="path373"
       style="display:inline"
       inkscape:label="layer-6" />
    <path
       fill="#4444ff"
       d="m -17.8746,-31.5568 c 1.1409,0 3.5895,-0.1612 4.0566,0.5216 2.4086,3.5208 4.31614,7.06 7.85971,8.6064 0.74725,0.3261 1.30042,2.8559 0.25353,3.3904 -4.87024,2.4866 -6.86674,-5.7499 -8.11324,-9.2584 -0.9251,-2.6039 -3.4296,-2.131 -3.9298,-2.2168 -0.7606,-0.1304 -0.4675,-1.0432 -0.1268,-1.0432 z m -6.6758,7.4629 c 1.1409,0 3.5895,-0.1612 4.0566,0.5216 2.4086,3.5208 4.3161,7.06 7.8597,8.6064 0.7472,0.3261 1.3004,2.8559 0.2535,3.3904 -4.8703,2.48667 -6.8667,-5.7499 -8.1132,-9.2584 -0.9251,-2.6039 -3.4297,-2.131 -3.9298,-2.2168 -0.7607,-0.1304 -0.4675,-1.0432 -0.1268,-1.0432 z m -6.3385,6.52 c 1.141,0 3.5895,-0.1612 4.0566,0.5216 2.4087,3.5208 4.3162,7.06005 7.8597,8.60644 0.7473,0.32609 1.3004,2.85588 0.2536,3.3904 -4.8703,2.48663 -6.8668,-5.74994 -8.1133,-9.25844 -0.9251,-2.6039 -3.4296,-2.131 -3.9298,-2.2168 -0.7606,-0.1304 -0.4674,-1.0432 -0.1268,-1.0432 z m -4.4483,6.5093 c 0.9608,0.0245 1.8959,0.1369 2.1665,0.5323 2.4086,3.52083 4.3161,7.06004 7.8597,8.60643 0.7472,0.3261 1.3004,2.855896 0.2535,3.39041 -4.8703,2.48663 -6.8667,-5.74994 -8.1132,-9.25841 -0.4499,-1.26631 -1.2733,-1.80497 -2.0581,-2.03409 m 0.5306,12.31411 c 0.8894,0.87131 1.8801,1.59802 3.0487,2.10799 0.7473,0.32609 1.3004,2.85589 0.2536,3.3904 -1.3792,0.70417 -2.5279,0.54842 -3.4944,-0.11636 M 5.98963,-93.888 c 0,1.4404 -0.77329,2.608 -1.7272,2.608 -0.45808,0 -0.8974,-0.2748 -1.22132,-0.7639 -0.32391,-0.4891 -0.50588,-1.1524 -0.50588,-1.8441 0,-0.6917 0.18197,-1.355 0.50588,-1.8441 0.32392,-0.4891 0.76324,-0.7639 1.22132,-0.7639 0.95391,0 1.7272,1.1676 1.7272,2.608 z m 20.63167,0.5876 c 0,0.7018 -0.1669,1.3748 -0.4641,1.8711 -0.2972,0.4962 -0.7002,0.775 -1.1205,0.775 -0.8751,0 -1.5846,-1.1847 -1.5846,-2.6461 0,-1.4613 0.7095,-2.646 1.5846,-2.646 0.4203,0 0.8233,0.2788 1.1205,0.775 0.2972,0.4962 0.4641,1.1693 0.4641,1.871 z m 22.7282,40.3966 c -2.1563,-4.8669 -3.7872,-9.9945 -4.9337,-15.3136 l -2.4187,-0.5943 -0.4606,0.6856 c -1.0743,1.5993 -2.2076,3.1096 -3.4024,4.5267 0.6497,10.7971 1.316,21.7626 1.9071,30.9968 2.4647,-7.1241 5.6228,-13.9193 9.3083,-20.3012 z m 13.3502,-10.2136 6.9969,1.9436 m -6.9969,-1.9436 c 0.445,3.5232 3.854,10.1101 6.9651,13.8441 l 0.0318,-11.9005 m -134.657,22.8362 c -0.5512,0.987 -1.1225,1.6537 -1.6787,1.8396 -1.9062,0.6374 -3.084,-1.3211 -3.084,-1.3211 l 0.0099,64.7963 c 3.0395,2.3412 5.7945,4.8354 8.3741,7.489 10.4081,-21.8584 12.7599,-46.4763 -3.6213,-72.8038 z M -69.7231,79.544 -83.6677,93.888 m 46.2109,-115.6881 17.9528,-18.7553 2.6406,2.9708 c -0.1366,-0.0116 -0.2728,-0.0183 -0.4083,-0.0203 -0.1644,-0.0024 -0.3278,0.0023 -0.4897,0.0138 -1.2955,0.092 -2.4958,0.6242 -3.3705,1.524 -1.4635,1.5054 -1.9257,3.9483 -1.0585,6.2182 -0.7515,-0.2424 -1.5143,-0.3314 -2.2467,-0.2794 -1.2955,0.0921 -2.496,0.6243 -3.3708,1.5241 -1.2259,1.261 -1.7485,3.1799 -1.3766,5.1039 -0.5357,-0.1096 -1.0711,-0.1449 -1.5911,-0.108 -1.2954,0.0921 -2.496,0.6243 -3.3707,1.5241 -1.2192,1.254 -1.7429,3.1588 -1.3828,5.0721 -0.036,-0.0078 -0.0718,-0.0174 -0.1077,-0.0245 -0.1243,-0.0264 -0.2508,-0.0399 -0.3776,-0.0405 -0.1103,-3e-4 -0.2185,0.0089 -0.3239,0.0271 z M 57.0459,-62.592 c 0,0.3458 -0.1336,0.6775 -0.3713,0.9221 -0.2377,0.2445 -0.5602,0.3819 -0.8964,0.3819 -0.3362,0 -0.6586,-0.1374 -0.8964,-0.3819 -0.2377,-0.2446 -0.3713,-0.5763 -0.3713,-0.9221 0,-0.3458 0.1336,-0.6775 0.3713,-0.9221 0.2378,-0.2445 0.5602,-0.3819 0.8964,-0.3819 0.3362,0 0.6587,0.1374 0.8964,0.3819 0.2377,0.2446 0.3713,0.5763 0.3713,0.9221 z m 3.8031,8.476 c 0,0.3458 -0.1336,0.6775 -0.3713,0.9221 -0.2378,0.2445 -0.5602,0.3819 -0.8964,0.3819 -0.3362,0 -0.6587,-0.1374 -0.8964,-0.3819 -0.2378,-0.2446 -0.3713,-0.5763 -0.3713,-0.9221 0,-0.3458 0.1335,-0.6775 0.3713,-0.9221 0.2377,-0.2445 0.5602,-0.3819 0.8964,-0.3819 0.3362,0 0.6586,0.1374 0.8964,0.3819 0.2377,0.2446 0.3713,0.5763 0.3713,0.9221 z m 5.7046,9.128 c 0,0.3458 -0.1336,0.6775 -0.3713,0.9221 -0.2378,0.2445 -0.5602,0.3819 -0.8964,0.3819 -0.3362,0 -0.6587,-0.1374 -0.8964,-0.3819 -0.2377,-0.2446 -0.3713,-0.5763 -0.3713,-0.9221 0,-0.3458 0.1336,-0.6775 0.3713,-0.9221 0.2377,-0.2445 0.5602,-0.3819 0.8964,-0.3819 0.3362,0 0.6586,0.1374 0.8964,0.3819 0.2377,0.2446 0.3713,0.5763 0.3713,0.9221 z"
       id="path377"
       style="display:inline"
       inkscape:label="layer-9" />
    <path
       fill="#000000"
       d="m -65.92,7.4328 c -0.5143,-0.00743 -0.5143,0.78988 0,0.7824 h 7.6061 c 0.5143,0.00743 0.5143,-0.78988 0,-0.7824 z m -1.2677,3.26 c -0.5143,-0.0074 -0.5143,0.7899 0,0.7824 h 10.7753 c 0.5143,0.0074 0.5143,-0.7899 0,-0.7824 z m -2.5354,3.5208 v 1.5648 h 14.9582 l 0.2944,-1.5648 z m 0,3.26 v 1.5648 h 14.2222 l 0.3312,-1.5648 z m 0,3.26 v 1.5648 h 13.2287 l 0.4784,-1.5648 z m 0,3.26 v 1.5648 h 12.2719 l 0.4416,-1.5648 z m 2.2262,4.8248 h 8.6842 l 0.6256,-1.5648 h -11.0761 z m 3.7901,3.26 h 3.5326 l 0.6256,-1.5648 h -5.8877 z M 29.9045,-114.099 c -2.608,-0.06 -5.2214,-0.098 -7.8404,-0.109 -18.33292,-0.082 -36.9449,1.11 -55.9549,4.761 l -3.2824,0.581 4.2131,4.546 c 21.2787,-4.086 42.11559,-5.041 62.7507,-4.564 l 4.4827,-5.008 z m 6.1591,61.8258 c -12.2905,10.531 -29.85917,13.3653 -47.8046,8.9612 l 5.54175,6.3812 c 15.67973,2.3527 30.96455,-0.5146 42.71755,-9.1266 z m -14.9017,47.08646 -47.2227,-54.71696 -4.6167,0.5261 49.1729,56.97672 z m -40.6659,-35.36866 -17.9528,18.7553 -1.2765,-4.5442 16.5617,-17.302 z m 48.3714,27.2051 c -0.5612,-0.5897 -1.3402,-1.4153 -2.2246,-2.3981 l 6.4952,-7.2144 c 0.8303,0.9335 1.6753,1.8704 2.458,2.7247 m -93.5313,58.7757 c 12.03,-24.3906 14.8294,-52.8832 -4.9458,-82.5696 -0.6312,2.0345 -1.2049,4.2328 -2.0561,5.6412 16.358,26.3807 14.0062,50.9986 3.6861,72.8376 z"
       id="path381"
       style="display:inline"
       inkscape:label="layer-12" />
    <path
       id="path600"
       style="display:inline"
       d="m -13.4502,-47.882 c 0.2552,0.0684 2.656,-1.7488 2.7244,-2.0038 -0.0684,0.255 1.10211,3.029 1.35729,3.0974 -0.25518,-0.0684 -2.65609,1.7488 -2.72439,2.0038 0.0683,-0.255 -1.1021,-3.029 -1.3573,-3.0974 z m 5.9182,1.484 c 0.26013,0.0459 2.49354,-1.9736 2.53943,-2.2336 -0.04589,0.26 1.36201,2.9213 1.62201,2.9672 -0.26,-0.0459 -2.49342,1.9736 -2.53931,2.2336 0.04589,-0.26 -1.362,-2.9213 -1.62213,-2.9672 z m 6.18772,0.9651 c 0.26304,0.0231 2.311885,-2.1834 2.334957,-2.4465 -0.023072,0.2631 1.611483,2.7916 1.874533,2.8147 -0.26305,-0.0231 -2.311887,2.1834 -2.334959,2.4465 0.023072,-0.2631 -1.611491,-2.7916 -1.874531,-2.8147 z m 6.33034,0.4449 c 0.26418,0 2.11285,-2.3765 2.11285,-2.6406 0,0.2641 1.84868,2.6406 2.11286,2.6406 -0.26418,0 -2.11286,2.3765 -2.11286,2.6406 0,-0.2641 -1.84867,-2.6406 -2.11285,-2.6406 z m 6.47684,-0.4312 c 0.2627,-0.0275 1.8528,-2.5843 1.8251,-2.8469 0.0277,0.2626 2.1147,2.4328 2.3773,2.4053 -0.2626,0.0275 -1.8527,2.5843 -1.8251,2.8469 -0.0276,-0.2626 -2.1146,-2.4328 -2.3773,-2.4053 z m 6.2628,-1.1442 c 0.2563,-0.0639 1.4751,-2.817 1.4112,-3.0732 0.0639,0.2562 2.4327,2.1151 2.689,2.0512 -0.2563,0.0639 -1.4751,2.8169 -1.4112,3.0731 -0.0639,-0.2562 -2.4327,-2.115 -2.689,-2.0511 z m 5.9225,-1.8061 c 0.2449,-0.0989 1.0686,-2.9948 0.9697,-3.2397 0.0989,0.2449 2.7033,1.756 2.9482,1.657 -0.2449,0.099 -1.0685,2.9949 -0.9696,3.2397 -0.0989,-0.2448 -2.7034,-1.7559 -2.9483,-1.657 z m 5.3843,-3.1253 c 0.2374,-0.1157 0.8571,-3.0621 0.7412,-3.2994 0.1159,0.2373 2.8193,1.5631 3.0568,1.4473 -0.2375,0.1158 -0.8571,3.0621 -0.7412,3.2994 -0.1159,-0.2373 -2.8194,-1.563 -3.0568,-1.4473 z"
       fill="#ff0000"
       inkscape:label="layer-14" />
    <path
       d="M -8.45128,0 C -7.39487,0 0,-9.50616 0,-10.5624 0,-9.50616 7.39487,0 8.45128,0 7.39487,0 0,9.50616 0,10.5624 0,9.50616 -7.39487,0 -8.45128,0 Z"
       id="path242"
       fill="#ff0000"
       inkscape:label="layer-15"
       style="display:inline" />
    <path
       d="M -8.45128,0 C -7.39487,0 0,-9.50616 0,-10.5624 0,-9.50616 7.39487,0 8.45128,0 7.39487,0 0,9.50616 0,10.5624 0,9.50616 -7.39487,0 -8.45128,0 Z"
       id="path632"
       stroke="#4444ff"
       stroke-width="0.760554"
       stroke-linecap="round;stroke-linejoin:round"
       style="display:inline"
       fill="none"
       inkscape:label="layer-16" />
    <path
       id="path353"
       style="display:inline"
       inkscape:label="layer-17"
       d="m -1.5e-4,-16.9212 v 6.613122 M -1.90169,-14.9349 v 7.3362897 M -3.80322,-12.9483 v 7.8903042 M -5.70476,-10.9618 v 8.2808355 M -7.60629,-8.97519 v 8.26231859 m 5.7046,8.27066961 V 15.7529 M -3.80322,5.0049628 V 13.5496 M -5.70476,2.6974022 V 11.3463 M -7.60629,0.63532652 V 9.14302 M -69.7231,-37.8222 V 79.544 L -82.4,92.584 m 12.6769,-134.5583 v 1.814 m 0,-6.1274 v 2.2574 m 0,-6.853 v 1.935 m 0,-29.6294 v 25.7191 M -82.4,-130.4 l 12.6769,13.04 v 25.6406 m 0.0198,118.7481 c 13.6906,10.3469 21.7709,24.8695 25.2886,41.1952 M -56.1208,-59.2979 c 30.1807,39.3264 24.8952,80.8995 6.7663,112.189 M -36.9947,21.7269 0.469453,-17.4121 M -36.0959,-59.7804 15.8289,0.384863 M -9.50783,-6.98863 V 6.93973 M -11.4094,-5.00206 v 9.73847 m -1.9015,-7.75191 v 5.54862 m -1.9015,-3.56206 V 0.329821 M -30.6775,-59.3776 18.4954,-2.40088 M -26.0608,-59.9037 21.1619,-5.18674 M -35.6475,14.4418 -2.19814,-20.5029 m -35.25866,-1.2972 17.9528,-18.7553 m -19.2293,14.2111 16.5617,-17.302 m -41.9167,-10.2045 14.9125,-10.2264 m 85.9514,-6.28 32.921,9.1834 m -40.2801,-0.8261 c -5.2398,4.5141 -11.2597,7.2846 -17.8787,8.3059 -9.78593,1.51 -20.94809,-0.8392 -32.795,-7.3615 m -3.7129,0.859 c 13.1223,7.7996 25.722377,10.8037 36.8843,9.0815 10.9738,-1.6932 20.4838,-7.994 27.5363,-18.4935 m -14.0447,7.5158 c -4.2925,3.0991 -9.0597,5.0196 -14.2441,5.8195 -8.66006,1.3362 -18.66479,-0.5498 -29.4735,-6.1471 m 6.5708,19.1083 c 17.94543,4.4041 35.5141,1.5698 47.8046,-8.9612 m -0.4573,-8.4892 2.1759,35.8115 m 0.3455,-38.6503 c 0.6561,10.7989 1.3224,21.7644 1.884,31.007 m -46.21095,-4.3366 c 15.67973,2.3527 30.96455,-0.5146 42.71755,-9.1266 m -22.5569,9.1448 c 0.9931,3.2254 2.9901,9.1646 5.0538,12.1366 2.4925,3.5895 7.7295,9.1954 9.8522,11.4257 M 17.348,-37.5189 c 1.0491,3.3259 2.9138,8.6701 4.8364,11.4389 1.5801,2.2754 4.263,5.3612 6.5564,7.8837 M 20.67,-38.3427 c 1.0711,3.3407 2.8511,8.3196 4.6836,10.9587 1.3746,1.9795 3.5838,4.5723 5.6451,6.8739 m -7.085,-18.905 c 1.078,3.3355 2.8185,8.1483 4.6092,10.7271 1.7004,2.4488 4.6782,5.8362 7.0731,8.4499 M -62.8811,-44.032 c 19.7752,29.6864 16.9758,58.179 4.9458,82.5696 M 69.7136,-37.0979 C 62.9661,-43.363 58.1221,-50.9171 54.9002,-59.4468 54.105,-61.5522 53.4086,-63.717 52.8067,-65.9366 m 16.7669,33.8624 C 58.6559,-41.2012 51.9246,-53.2847 48.5958,-67.023 m 14.1039,3.9056 c 0.445,3.5232 3.854,10.1101 6.9651,13.8441 M -72.2585,-99.104 -82.4,-109.536 m 0,-5.216 10.1415,10.432 m 0,10.432 L -82.4,-104.32 M -72.2585,-58.028 -82.4,-68.46 m 0,-5.216 10.1415,10.432 m 0,46.292 L -82.4,-27.384 m 0,-5.216 10.1415,10.432 m 0,10.432 L -82.4,-22.168 M -72.2585,24.124 -82.4,13.692 m 0,-5.216 10.1415,10.432 m 0,10.432 L -82.4,18.908 M -72.2585,65.2 -82.4,54.768 m 0,-5.216 10.1415,10.432 m 0,10.432 L -82.4,59.984 m 10.1415,-97.0403 V 75.632 L -82.4,86.064 m 10.1415,-163.7548 v 23.8244 M -82.4,-123.88 l 10.1415,10.432 v 22.293 m 64.9896,75.8681 -12.6769,-14.344 c -2.5354,-3.912 1.2677,-7.824 5.0708,-5.216 l 12.67686,14.344 M -14.1319,-8.03573 -26.6216,-22.168 c -2.5354,-3.912 1.2676,-7.824 5.0707,-5.216 l 12.44781,14.0848 M -20.4246,-1.46395 -32.9601,-15.648 c -2.5354,-3.912 1.2677,-7.824 5.0708,-5.216 l 12.5002,14.14411 m -20.6064,-8.39581 c 0.5728,0.1132 1.1703,0.362 1.7677,0.7717 l 12.5356,14.184141 m -5.0234,5.269599 -7.976,-9.02493 m 0.0653,2.81225 6.639,7.51206 m -5.0571,5.23148 -1.9769,-2.23683 m 18.1579,-46.98837 c -0.1366,-0.0116 -0.2728,-0.0183 -0.4083,-0.0203 -0.1644,-0.0024 -0.3278,0.0023 -0.4897,0.0138 -1.2955,0.092 -2.4958,0.6242 -3.3705,1.524 -1.4635,1.5054 -1.9257,3.9483 -1.0585,6.2182 -0.7515,-0.2424 -1.5143,-0.3314 -2.2467,-0.2794 -1.2955,0.0921 -2.496,0.6243 -3.3708,1.5241 -1.2259,1.261 -1.7485,3.1799 -1.3766,5.1039 -0.5357,-0.1096 -1.0711,-0.1449 -1.5911,-0.108 -1.2954,0.0921 -2.496,0.6243 -3.3707,1.5241 -1.2192,1.254 -1.7429,3.1588 -1.3828,5.0721 -0.036,-0.0078 -0.0718,-0.0174 -0.1077,-0.0245 -0.1243,-0.0264 -0.2508,-0.0399 -0.3776,-0.0405 -0.1103,-3e-4 -0.2185,0.0089 -0.3239,0.0271 m 69.4884,-5.8866 -6.5034,7.1675 M 25.218,-35.6777 c 3.8586,-1.8573 7.7052,-3.9036 11.5361,-6.1943 m -10.1038,9.6793 c 3.464,-1.6534 6.9185,-3.4571 10.3607,-5.4513 m -8.6063,8.7814 c 2.9613,-1.4097 5.9157,-2.9288 8.8615,-4.5825 m -6.5344,7.6392 c 2.267,-1.0875 4.5298,-2.2399 6.7879,-3.4684 m -4.254,6.4232 c 1.5038,-0.7296 3.0057,-1.4883 4.5055,-2.2793 m -3.549,6.2947 c 0.795,-0.375 1.5896,-0.7577 2.3836,-1.1487 m -11.4967,-15.9948 5.3153,-4.4448 -6.3827,1.3857 m 2.5399,6.6779 5.7443,-4.8036 -6.6795,1.4502 m 2.693,6.7336 5.8881,-4.9238 -6.6796,1.4502 m 3.0339,6.4485 5.5472,-4.6387 -6.6796,1.4502 m 8.1902,1.8947 -6.2886,1.3653 m 1.6447,2.7601 4.6578,-3.895 m -0.3108,3.6445 -3.4563,0.7504 m 0.579,3.6512 2.3147,-1.9356 m -18.1776,-3.7102 -7.8273,-0.7596 6.3385,-2.608 m 4.0242,6.6276 -7.8273,-0.7596 5.8308,-2.3991 m 4.5319,6.4187 -7.8273,-0.7596 5.8685,-2.4146 m 4.4942,6.4342 -7.8273,-0.7596 6.0945,-2.5077 m 2.8411,6.4504 -7.0341,-0.6827 6.3384,-2.608 M 15.4498,-32.4492 c -5.79014,0.8402 -11.09472,1.4765 -16.2559,1.7334 m 16.2394,-1.7766 -7.82731,-0.7596 6.33841,-2.608 m 3.1012,7.3925 c -4.7615,0.7649 -9.63911,1.3225 -14.67236,1.6024 M 16.9778,-28.615 9.50752,-29.34 15.6769,-31.8784 m 3.4072,7.1971 c -4.3369,0.7188 -8.7689,1.2679 -13.32611,1.5937 l -0.04289,0.003 m 15.9068,1.6629 c -4.2687,0.7076 -8.6296,1.2507 -13.11126,1.5783 m 15.88726,1.6416 c -4.2628,0.7133 -8.6171,1.2634 -13.0915,1.5992 m 15.9488,1.6066 c -4.2828,0.7257 -8.6575,1.2875 -13.1531,1.6336 m 13.0485,1.9531 c -3.3685,0.526 -6.7959,0.9472 -10.2959,1.2387 m 6.2854,2.89617 c -1.1558,0.12786 -2.3193,0.24216 -3.4908,0.34197 m 5.1499,-2.00329 -1.9809,-0.19225 3.5042,-1.4418 m -91.2597,-27.821 c 16.358,26.3807 14.0062,50.9986 3.6861,72.8376 m -2.81,-88.2955 c 26.8031,34.4061 23.7558,68.7044 9.2297,96.6862 m 2.9444,4.8225 c 16.1715,-29.7547 20.1966,-67.5018 -8.2372,-104.2178 m -3.9222,2.7198 c 26.7884,34.3954 23.7411,68.6937 9.2635,96.7226 m -5.3032,-99.4571 c 28.3957,36.7307 24.3706,74.4778 8.2169,104.1667 M -69.7231,-37.816 c 0,0 1.1778,1.9554 3.084,1.318 1.9446,-0.6502 4.0752,-7.1782 3.8883,-10.446 -0.1861,-3.2544 -1.9015,-8.476 -1.9015,-9.128 0,-0.652 0.2419,-1.9157 0.2419,-4.5237 0,-3.912 -4.045,-5.9083 -4.3193,-0.3295 -0.0795,1.6159 0.2743,2.2452 0.9081,4.2012 m 0,0 c -0.0856,0.5935 -1.2677,1.956 -1.2677,2.608 0,2.608 1.0505,2.9743 1.0505,2.9743 M -82.4,-51.834 c 0,-0.6052 0.7012,-1.1857 1.9493,-1.6136 1.2481,-0.428 2.941,-0.6684 4.7061,-0.6684 1.7651,0 3.4579,0.2404 4.706,0.6684 1.2482,0.4279 1.9493,1.0084 1.9493,1.6136 0,0.6052 -0.7011,1.1857 -1.9493,1.6136 -1.2481,0.428 -2.9409,0.6684 -4.706,0.6684 -1.7651,0 -3.458,-0.2404 -4.7061,-0.6684 -1.2481,-0.4279 -1.9493,-1.0084 -1.9493,-1.6136 m 0,4.238 v 0 c 0,-0.9471 1.7629,-1.7595 4.2734,-2.1047 m 5.0868,-0.04 c 2.6746,0.3191 4.5844,1.1589 4.5844,2.1447 0,1.2603 -3.1216,2.282 -6.9723,2.282 -3.8507,0 -6.9723,-1.0217 -6.9723,-2.282 m 0,4.564 c 0,-0.6052 0.7012,-1.1857 1.9493,-1.6136 1.2481,-0.428 2.941,-0.6684 4.7061,-0.6684 1.7651,0 3.4579,0.2404 4.706,0.6684 1.2482,0.4279 1.9493,1.0084 1.9493,1.6136 0,0.6052 -0.7011,1.1857 -1.9493,1.6136 -1.2481,0.428 -2.9409,0.6684 -4.706,0.6684 -1.7651,0 -3.458,-0.2404 -4.7061,-0.6684 -1.2481,-0.4279 -1.9493,-1.0084 -1.9493,-1.6136 m 10.2925,1.9336 c 1.8039,0.3942 3.0182,1.1326 3.0182,1.9784 0,1.2603 -2.6959,2.282 -6.0215,2.282 -3.3256,0 -6.0215,-1.0217 -6.0215,-2.282 0,-0.7655 0.9946,-1.443 2.5207,-1.8569 m 5.257,-12.9626 -9.0454,-9.3045 m 0.0025,-26.7509 c 12.3643,-0.4236 23.7091,-4.0785 33.5913,-12.3691 -2.8419,12.2532 -9.9455,22.8906 -33.5694,27.2645 m -0.0211,-12.2861 c 10.2059,-0.3395 19.8859,-2.8483 28.6336,-8.2305 -1.3763,2.9139 -3.2298,5.6017 -5.8658,8.0258 -4.5758,4.2078 -11.6065,7.7178 -22.7327,9.8371 m 51.1489,-26.8768 c -8.5596,18.521 -7.1515,30.4046 -10.6212,34.866 -2.5354,3.26 -6.9723,3.912 -6.9723,0 0,-4.564 4.4242,-1.9072 4.4369,-1.304 m 15.2313,-33.938 c -8.773,18.7201 -7.5443,30.5615 -10.7944,35.242 -3.1692,4.564 -8.8738,3.912 -8.8738,0 m 21.7304,-35.585 c -8.9557,18.9139 -7.7783,30.8091 -10.9551,35.585 -8.2399,12.388 -13.9445,4.564 -13.9445,0 0,-9.78 11.4092,-6.52 10.7753,-1.304 m 16.1845,-34.62 c -9.1705,19.0859 -8.5829,30.7174 -11.1137,35.924 -2.5354,5.216 -9.8376,8.5555 -11.9889,6.3564 m 25.1428,-42.5674 c -9.3151,19.2561 -8.7089,30.9783 -11.2524,36.211 -2.5354,5.216 -8.1766,8.8849 -10.7753,7.172 m 24.0686,-43.671 c -9.4679,19.4167 -8.9969,30.9939 -11.0038,36.499 -1.9015,5.216 -8.1129,10.5044 -11.1633,7.824 m 24.2115,-44.614 c -9.599,19.6011 -8.6409,31.5255 -10.7587,37.018 -2.6774,6.944 -6.9171,11.2011 -10.4265,8.6082 m 23.2254,-45.9092 c -9.7495,19.7704 -8.8747,31.813 -10.6202,37.4721 -1.6869,5.4689 -6.1175,11.4037 -9.8198,9.0733 m 22.4518,-46.7684 c -9.8642,19.9026 -8.849,31.9951 -10.1209,37.8091 -1.0288,4.7029 -4.8855,12.0081 -9.4451,9.3233 m 21.579,-47.3564 c -9.9724,20.0418 -7.8438,32.8128 -9.6781,38.4892 -1.5831,4.8988 -4.9834,10.5611 -8.6585,9.294 m 20.3498,-48.0062 c -10.0993,20.1686 -7.6603,32.5059 -8.6259,38.4271 -0.8454,5.1839 -4.5759,9.9712 -8.6449,9.0796 M -8.87398,-107.58 c -10.14152,20.212 -6.65562,32.7065 -7.99722,38.5571 -0.8766,3.8229 -3.5595,8.9106 -7.2945,8.5608 M -6.97245,-107.58 c -10.14155,20.212 -5.09655,33.7211 -7.27675,39.2983 -1.8968,4.8523 -4.3688,6.5703 -6.5774,6.7759 m 49.0861,-47.3302 c 0.7039,2.592 2.1649,8.09 2.1649,9.08 0,1.304 -1.2677,5.216 -1.2677,7.172 0,1.956 -1.2677,9.128 -2.5354,12.388 -1.2677,3.26 -5.7046,11.736 -6.3384,13.04 -0.6339,1.304 -1.2435,5.159 -3.145,5.811 -1.9016,0.652 -6.3627,2.665 -8.26422,1.361 -1.90154,-1.304 -2.53538,-1.956 -3.80307,-1.956 -1.26769,0 -3.80307,0.652 -5.704605,0 -1.901535,-0.652 -10.775405,-1.956 -11.409205,-3.912 -0.5552,-1.7224 -1.2677,-2.608 -1.569,-4.931 M -6.3386,-97.8 c 4.85961,-2.135 8.39028,-6.944 17.1138,-1.304 v 0 l -0.6338,0.652 c -4.57878,-4.604 -10.453419,-2.377 -16.48,0.652 z m 36.1292,-1.304 c -4.437,-1.956 -5.7046,-3.912 -12.0431,0.652 v 0 c 3.8031,-1.956 8.4569,-3.336 12.0431,-0.652 z m -12.0431,0.652 c -0.7118,0.3646 -0.9201,2.7546 -0.6338,3.912 0.3125,1.2637 1.9015,6.52 1.9015,7.824 0,1.304 1.1326,6.805 1.1326,7.457 0,1.304 -2.4003,2.323 -4.3018,2.323 m -4.4369,-5.216 c -2.6379,0.2227 -4.80261,5.0972 1.181,4.0903 3.805,-0.6404 1.3543,-1.4823 -2.4487,-0.1783 m -4.43695,5.216 v 1.956 l 1.26769,-1.304 z m 13.94455,-0.652 -0.6338,1.304 -1.2677,-0.652 z m -13.3107,1.304 c 1.90153,0 3.8031,-1.304 4.4369,-1.304 0.6339,0 1.9015,1.304 2.5354,1.304 0.6338,0 1.9015,-1.304 2.5354,-1.304 0.6338,0 1.2677,0.652 1.9015,0.652 m -6.9723,3.912 c 1.2698,1.4125 5.0708,1.956 5.0708,-1.304 m -22.81845,-22.82 c 4.43692,0.652 10.14152,-3.912 15.21228,-3.912 m -10.14152,3.26 c -0.63384,1.956 6.9723,3.26 8.87383,1.956 1.90154,-1.304 2.53538,-0.652 2.53538,-0.652 m 8.35698,-0.6174 c 2.5354,0 6.6341,-2.9731 8.8739,-3.26 2.2398,-0.2869 2.5353,1.304 2.5353,1.304 m -11.5262,1.9214 c 2.5354,1.304 4.1923,2.608 6.6902,2.608 2.498,0 4.719,-1.956 4.719,-1.956 m 0.3472,-16.141 c 4.3185,7.207 2.0978,15.5422 2.1882,23.313 0.1112,2.1225 1.9015,1.304 2.5354,0.652 m -5.5942,-3.5335 c -1.6722,10.2816 8.1296,9.0159 8.1296,3.5335 0,-5.216 -5.0708,-3.26 -5.0708,-0.652 m -0.6338,4.564 c 0,5.868 2.5353,9.128 4.4369,5.868 m -8.4608,-6.1708 c -0.0138,11.499 12.0182,13.9293 10.9961,5.5188 -0.6338,-5.216 -6.3384,-2.608 -6.2565,-0.4334 m -6.4571,-0.9463 c 0.5048,6.4852 5.5428,9.5018 9.5444,7.8997 2.3659,-0.9472 2.7154,-2.3432 2.6781,-3.1863 m -13.9122,-1.3481 c 1.0361,5.5712 8.4219,8.9903 11.868,4.5344 m -13.0625,-2.2194 c 1.1701,5.3061 5.6608,7.6626 9.2962,6.2071 1.1887,-0.4942 2.2788,-1.4885 2.4704,-2.8205 m -12.8409,-1.3309 c 1.4106,4.7742 5.6439,6.8403 9.1028,5.4554 1.2778,-0.5116 1.9674,-1.1541 2.3256,-1.7697 m -12.5763,-1.3506 c 0.7794,4.8433 10.1495,7.4226 11.5411,2.4656 m 2.4961,-49.523 -4.3432,-0.101 c -2.608,-0.06 -5.2214,-0.098 -7.8404,-0.109 -18.33292,-0.082 -36.9449,1.11 -55.9549,4.761 l -3.2482,0.623 m -19.9676,-21.576 24.1465,26.08 c 21.2787,-4.086 42.11559,-5.041 62.7507,-4.564 L 49.5769,-130.4 m -72.1002,74.553 c 12.1858,6.4745 24.03932,8.9736 34.8136,7.3112 11.6737,-1.8012 21.8574,-8.5902 29.2462,-19.5903 l 0.4606,-0.6856"
       fill="none"
       stroke-width="0.77143"
       stroke="#4444ff"
       stroke-linejoin="round"
       stroke-linecap="round" />
    <path
       stroke="#4444ff"
       stroke-linecap="round"
       stroke-linejoin="round"
       stroke-width="0.385715"
       fill="none"
       d="m -71.6246,-53.464 c -0.5959,1.1377 -0.6576,2.2297 0,3.26 m 0.4703,0.8977 c -0.5959,1.1377 -0.6575,2.2297 0,3.26 m 0,1.304 c -0.5959,1.1377 -0.6575,2.2297 0,3.26 m 0,0.652 c -0.5959,1.1377 -0.6575,2.2297 0,3.26 M -65.92,-63.896 c 0,3.26 1.2677,3.912 1.2677,3.912 m -11.2916,7.4979 c -0.1434,0.3364 -0.1698,0.753 0,1.304 m 0,3.0024 c -0.1434,0.3364 -0.1698,0.7529 0,1.304 m 0,3.1916 c -0.1434,0.3364 -0.1698,0.753 0,1.304 m 0,3.2601 c -0.1434,0.3364 -0.1698,0.7529 0,1.304 m 0,-1.8048 c -0.1434,0.3364 -0.1698,0.7529 0,1.304 M 9.50752,-65.2 c 3.16918,-1.304 5.07078,-1.304 6.33848,-0.652 M 6.97214,-97.148 c -3.80307,-2.608 -7.726711,-0.9493 -11.40921,1.956 m 21.55077,0.652 c 3.1053,-3.9497 6.4494,-4.6894 8.8738,-3.26 m -20.59486,1.122 c 0.7351,0.5228 1.22147,1.431 1.22147,2.464 0,1.6204 -1.19687,2.934 -2.67329,2.934 -1.47641,0 -2.67328,-1.3136 -2.67328,-2.934 0,-0.4284 0.08366,-0.8354 0.23403,-1.2023 m 24.24813,-0.8529 c 0.8843,0.4432 1.5055,1.4884 1.5055,2.7072 0,1.6204 -1.0981,2.934 -2.4526,2.934 -1.3546,0 -2.4527,-1.3136 -2.4527,-2.934 0,-0.4977 0.1036,-0.9664 0.2864,-1.377 m 0.8158,5.918 c 1.4315,0.5175 3.3087,-0.0472 3.4315,-0.303 m -43.6212,25.4047 c 5.0161,3.0692 10.96805,5.9032 16.73745,5.8913 m -15.79935,-7.3981 c 5.0838,3.146 11.17073,6.1063 17.06704,6.0941"
       id="path389"
       style="display:inline"
       inkscape:label="layer-18" />
  </g>
</svg>
