<?xml version="1.0" encoding="UTF-8" standalone="no"?>
<svg
   class="card"
   face="JD"
   height="3.5in"
   preserveAspectRatio="none"
   viewBox="0 0 240 336"
   width="2.5in"
   version="1.1"
   id="svg89"
   sodipodi:docname="j-diamond.svg"
   inkscape:version="1.2.2 (b0a8486541, 2022-12-01)"
   xmlns:inkscape="http://www.inkscape.org/namespaces/inkscape"
   xmlns:sodipodi="http://sodipodi.sourceforge.net/DTD/sodipodi-0.dtd"
   xmlns:xlink="http://www.w3.org/1999/xlink"
   xmlns="http://www.w3.org/2000/svg"
   xmlns:svg="http://www.w3.org/2000/svg">
  <sodipodi:namedview
     id="namedview91"
     pagecolor="#505050"
     bordercolor="#eeeeee"
     borderopacity="1"
     inkscape:showpageshadow="0"
     inkscape:pageopacity="0"
     inkscape:pagecheckerboard="0"
     inkscape:deskcolor="#505050"
     inkscape:document-units="in"
     showgrid="false"
     inkscape:zoom="17.290444"
     inkscape:cx="80.188804"
     inkscape:cy="132.52986"
     inkscape:window-width="1278"
     inkscape:window-height="1368"
     inkscape:window-x="1266"
     inkscape:window-y="0"
     inkscape:window-maximized="0"
     inkscape:current-layer="layer1" />
  <defs
     id="defs45">
    <symbol
       id="VDJ"
       viewBox="-500 -500 1000 1000"
       preserveAspectRatio="xMinYMid">
      <path
         d="m 50,-460 h 200 m -100,0 v 710 a 200,200 0 0 1 -400,0 v -30"
         stroke="#ff0000"
         stroke-width="80"
         stroke-linecap="square"
         stroke-miterlimit="1.5"
         fill="none"
         id="path2" />
    </symbol>
    <symbol
       id="SDJ"
       viewBox="-600 -600 1200 1200"
       preserveAspectRatio="xMinYMid">
      <path
         d="M -400,0 C -350,0 0,-450 0,-500 0,-450 350,0 400,0 350,0 0,450 0,500 0,450 -350,0 -400,0 Z"
         fill="#ff0000"
         id="path5" />
    </symbol>
    <symbol
       id="DJ6"
       preserveAspectRatio="none"
       viewBox="0 0 1300 2000">
      <path
         stroke="#4444ff"
         stroke-linecap="round"
         stroke-linejoin="round"
         stroke-width="3"
         fill="none"
         d="m 85,590 c -4.700789,8.72507 -5.186787,17.0989 0,25 m 3.710078,6.88418 c -4.700789,8.72507 -5.186787,17.0989 0,25 m 0,10 c -4.700789,8.72507 -5.186787,17.0989 0,25 m 0,5 c -4.700789,8.72507 -5.186787,17.0989 0,25 M 130,510 c 0,25 10,30 10,30 m -89.072313,57.4996 c -1.13052,2.57966 -1.33893,5.77405 0,10 m 0,23.02404 c -1.13052,2.57966 -1.33893,5.77405 0,10 m 0,24.47596 c -1.13052,2.57966 -1.33893,5.77405 0,10 m 0,25.0004 c -1.13052,2.57966 -1.33893,5.77405 0,10 m 0,-13.84068 c -1.13052,2.57966 -1.33893,5.77405 0,10 M 725,500 c 25,-10 40,-10 50,-5 M 705,255 c -30,-20 -60.95115,-7.27972 -90,15 m 170,5 c 24.49605,-30.28885 50.8757,-35.96138 70,-25 m -162.45974,8.60402 c 5.79878,4.0092 9.63542,10.97454 9.63542,18.89598 0,12.42641 -9.44135,22.5 -21.08785,22.5 -11.6465,0 -21.08785,-10.07359 -21.08785,-22.5 0,-3.28538 0.65995,-6.40629 1.84613,-9.22005 m 191.2777,-6.54105 c 6.97583,3.39911 11.87622,11.41458 11.87622,20.7611 0,12.42641 -8.66208,22.5 -19.34729,22.5 -10.68521,0 -19.34729,-10.07359 -19.34729,-22.5 0,-3.81643 0.81704,-7.41094 2.25881,-10.55985 M 835,317.32348 c 11.29232,3.96884 26.09989,-0.36152 27.06897,-2.32348 M 517.96925,509.82169 C 557.53794,533.35836 604.4889,555.09153 650,555 M 525.36882,498.26604 C 565.47164,522.39165 613.48777,545.09355 660,545"
         id="path8" />
      <use
         xlink:href="#SDJ"
         height="200"
         width="200"
         transform="matrix(1,0,0,0.972,550,902.8)"
         stroke="#4444ff"
         stroke-width="36"
         stroke-linejoin="round"
         stroke-linecap="round"
         id="use10" />
      <use
         xlink:href="#SDJ"
         height="50"
         width="50"
         transform="matrix(0.89879405,-0.42609675,0.43837115,0.87362781,860.57087,586.81172)"
         id="use12" />
      <use
         xlink:href="#SDJ"
         height="50"
         width="50"
         transform="matrix(0.92718385,-0.36411761,0.37460659,0.90122271,819.45524,609.57237)"
         id="use14" />
      <use
         xlink:href="#SDJ"
         height="50"
         width="50"
         transform="matrix(0.97029573,-0.23514808,0.2419219,0.94312745,775.69456,621.30052)"
         id="use16" />
      <use
         xlink:href="#SDJ"
         height="50"
         width="50"
         transform="matrix(0.9945219,-0.10160167,0.10452846,0.96667528,729.52374,628.37316)"
         id="use18" />
      <use
         xlink:href="#SDJ"
         height="50"
         width="50"
         transform="matrix(1,0,0,0.972,681,630.7)"
         id="use20" />
      <use
         xlink:href="#SDJ"
         height="50"
         width="50"
         transform="matrix(0.9961947,0.08471538,-0.08715574,0.96830125,633.27403,626.67458)"
         id="use22" />
      <use
         xlink:href="#SDJ"
         height="50"
         width="50"
         transform="matrix(0.98480775,0.16878603,-0.17364818,0.95723314,586.72101,618.84952)"
         id="use24" />
      <use
         xlink:href="#SDJ"
         height="50"
         width="50"
         transform="matrix(0.96592583,0.25157211,-0.25881905,0.9388799,542.32233,607.2387)"
         id="use26" />
    </symbol>
    <symbol
       id="DJ5"
       preserveAspectRatio="none"
       viewBox="0 0 1300 2000">
      <path
         stroke="#4444ff"
         stroke-linecap="round"
         stroke-linejoin="round"
         stroke-width="6"
         fill="none"
         d="M 100,709.95247 V 1610 L -2.9802322e-6,1710 M 100,678.1109 v 13.91136 m 0,-46.98951 v 17.31193 m 0,-52.55406 v 14.83879 M 100,397.4104 V 594.64269 M 5.9604645e-7,5.9604645e-7 100,100 v 196.63027 m 0.15582,910.64513 c 107.99697,79.3471 171.73737,190.7171 199.48574,315.9144 M 207.29978,545.26132 C 445.37608,846.844 403.68199,1165.6564 260.67471,1405.6063 M 358.17377,1166.6171 653.7044,866.47198 M 365.26366,541.56136 774.86501,1002.9514 M 650,870.23634 V 1005 M 635,885.46875 V 1120.8047 M 620.00001,900.70314 620,1103.9082 m -15.00002,-187.97073 10e-6,171.07423 M 590,931.17188 V 1070.1152 M 575,946.40625 v 106.81255 m -15,-91.57818 -2e-5,74.68158 m -14.99996,-59.44717 -10e-6,42.55077 M 530,992.10938 v 10.41992 M 408.006,544.65043 795.89988,981.58838 M 444.42427,540.61584 816.93387,960.22437 M 368.80053,1110.7498 632.66142,842.76889 M 354.52828,832.82122 496.14627,688.99198 M 344.45919,797.9729 475.10329,665.28888 M 144.449,587.03401 262.0846,508.61027 m 678.01621,-48.1592 259.69239,70.42505 m -317.74426,-6.33574 c -41.33296,34.61757 -88.82013,55.86397 -141.03332,63.69595 -77.19506,11.57926 -165.24623,-6.43541 -258.69921,-56.45334 m -29.28845,6.58706 c 103.51317,59.81338 202.90746,82.85096 290.95642,69.64362 86.56533,-12.9848 161.58423,-61.30369 217.21688,-141.82113 m -110.7899,57.63645 C 816.55024,547.59478 778.9452,562.32257 738.04883,568.45703 669.735,578.7041 590.81405,564.2411 505.55124,521.31672 m 51.83299,146.53574 c 141.55979,33.77416 280.14805,12.0389 377.10013,-68.72074 m -3.60744,-65.10094 17.16427,274.62827 m 2.7251,-296.39834 c 5.17585,82.81351 10.43158,166.90516 14.86149,237.78369 M 601.09924,716.78811 c 123.68744,18.04212 244.25957,-3.94588 336.97192,-69.98917 M 760.13342,716.92782 C 767.96747,741.66243 783.7206,787.20884 800,810 c 19.66187,27.52662 60.97272,70.51679 77.7181,87.62075 M 786.84881,712.27861 C 795.12384,737.78359 809.83353,778.76694 825,800 c 12.46408,17.44971 33.62796,41.11357 51.71868,60.45788 M 813.05336,705.96085 C 821.50286,731.57961 835.54393,769.76151 850,790 c 10.84303,15.18024 28.27005,35.06333 44.5301,52.71421 M 838.64153,697.7371 C 847.14502,723.31589 860.87439,760.22415 875,780 c 13.41381,18.77933 36.90372,44.75588 55.79533,64.79992 M 153.97196,662.33132 C 309.96651,889.98768 287.88345,1108.4892 192.9867,1295.5334 M 1199.9275,715.50663 c -53.2268,-48.04534 -91.438,-105.97498 -116.8533,-171.3872 -6.2732,-16.14554 -11.7668,-32.74695 -16.5142,-49.76812 m 132.2628,259.68052 c -86.1222,-69.992 -139.2213,-162.65707 -165.4804,-268.01186 m 111.2572,29.95068 c 3.5097,27.01837 30.4012,77.53188 54.9427,106.16652 M 80,240 -2.9802322e-7,160 M 0,120 80,200 M 80,280 -2.9802322e-7,200 M 80,555 -2.9802322e-7,475 M 0,435 80,515 M 80,870 -2.9802322e-7,790 M 0,750 80,830 M 80,910 -2.9802322e-7,830 M 80,1185 -2.9802322e-7,1105 M 0,1065 l 80,80 m 0,80 L -2.9802322e-7,1145 M 80,1500 -2.9802322e-7,1420 M 0,1380 l 80,80 m 0,80 L -2.9802322e-7,1460 M 80,715.82616 V 1580 L -5.9604645e-7,1660 M 80,404.21152 V 586.91415 M 0,50 80,130 v 170.95825 m 512.66142,581.81064 -100,-110 c -20,-30 10,-60 40,-40 l 100,110 M 538.52391,938.3763 440,830 c -20,-30 10,-60 40,-40 l 98.19272,108.01199 M 488.88488,988.77337 390,880 c -20,-30 10,-60 40,-40 l 98.60644,108.46709 M 366.05543,884.0823 c 4.51896,0.86788 9.23176,2.77583 13.94457,5.9177 l 98.88554,108.77409 m -39.62634,40.41101 -62.91781,-69.20957 m 0.51486,21.56635 52.37077,57.60782 m -39.89231,40.1185 -15.594,-17.1534 M 516.97672,711.77469 c -1.07786,-0.0888 -2.15214,-0.14044 -3.22086,-0.15555 -1.29732,-0.0183 -2.58589,0.0172 -3.86328,0.10547 -10.21915,0.70597 -19.68751,4.78712 -26.58789,11.6875 -11.54426,11.54425 -15.19004,30.27838 -8.34961,47.68555 -5.92821,-1.85933 -11.94503,-2.54172 -17.72266,-2.14258 -10.21914,0.70597 -19.68946,4.78712 -26.58984,11.6875 -9.67033,9.67033 -13.79327,24.38609 -10.85938,39.14062 -4.22585,-0.84038 -8.44886,-1.11149 -12.55078,-0.82812 -10.21914,0.70597 -19.68946,4.78712 -26.58984,11.6875 -9.61698,9.61698 -13.7484,24.22394 -10.9082,38.89648 -0.28336,-0.0598 -0.56613,-0.13305 -0.84961,-0.1875 -0.98,-0.2026 -1.97781,-0.30663 -2.97852,-0.31054 -0.86967,-0.003 -1.72346,0.068 -2.55505,0.20782 m 548.14988,-45.14285 -51.30095,54.9653 M 848.93018,726.39834 c 30.43795,-14.24358 60.78089,-29.93562 91.00079,-47.50301 m -79.70245,74.22789 c 27.32544,-12.6791 54.57526,-26.51104 81.72919,-41.80447 m -67.89022,67.34248 c 23.36041,-10.81061 46.66577,-22.46044 69.90343,-35.14229 m -51.5463,58.58272 c 17.88294,-8.33956 35.73325,-17.17657 53.54525,-26.59757 m -33.55642,49.25769 c 11.86215,-5.5956 23.70971,-11.41378 35.541,-17.47981 m -27.99635,48.2721 c 6.27161,-2.87531 12.53932,-5.81026 18.80286,-8.80858 M 848.07126,724.08555 890,690 839.65088,700.6266 M 859.68627,751.83731 905,715 852.30913,726.12084 M 873.5528,777.75883 920,740 867.30913,751.12084 M 891.24185,800.57275 935,765 882.30913,776.12084 m 64.60704,14.53004 -49.60704,10.46996 m 12.97379,21.16674 36.74254,-29.86946 m -2.45175,27.94831 -27.26458,5.75441 m 4.56737,28.00068 18.25945,-14.84384 M 796.74486,810.82551 735,805 785,785 M 816.74486,835.82551 755,830 800.99542,811.60183 M 836.74486,860.82549 775,855 821.29268,836.48293 M 856.74486,885.82551 795,880 843.07627,860.76949 M 865.48731,910.23512 810,905 860,885 M 771.87513,751.15652 c -45.67506,6.44339 -87.51951,11.32255 -128.23276,13.29279 M 771.74486,750.82551 710,745 760,725 m 24.46281,56.69083 c -37.55991,5.86588 -76.03653,10.14182 -115.74062,12.28875 M 783.92844,780.55979 725,775 773.66615,755.53354 m 26.87701,55.19261 c -34.2109,5.51232 -69.17229,9.72296 -105.12088,12.22137 -0.11275,0.008 -0.22552,0.0157 -0.33829,0.0235 m 125.47846,12.75202 c -33.67312,5.42619 -68.07331,9.59137 -103.42624,12.10401 m 125.32413,12.5887 c -33.62642,5.4703 -67.97482,9.68837 -103.27051,12.26341 M 865,885 c -33.78449,5.56514 -68.2936,9.87349 -103.75657,12.52741 m 102.93184,14.97771 c -26.5723,4.03432 -53.60856,7.26393 -81.21807,9.49927 m 49.58189,22.2101 c -9.11779,0.98051 -18.29553,1.85704 -27.53732,2.62246 M 845.62647,931.47433 830,930 857.64283,918.94287 M 137.75257,705.59197 c 129.03807,202.3061 110.48599,391.09323 29.07803,558.57083 M 144.66368,587.05011 c 211.43274,263.85053 187.39438,526.87369 72.80724,741.45849 m 23.22689,36.9821 C 368.26421,1137.3105 400.01617,847.83877 175.71998,566.27445 m -30.93979,20.8572 C 356.09642,850.90064 332.05806,1113.9238 217.8535,1328.8699 M 176.02029,566.162 c 223.99588,281.67677 192.24392,571.1485 64.81741,798.8243 M 100,710 c 0,0 9.29102,14.99519 24.32798,10.10747 C 139.66775,715.12132 156.474,665.06009 155,640 c -1.46792,-24.95687 -15,-65 -15,-70 0,-5 1.90858,-14.69086 1.90858,-34.69086 0,-30 -31.90858,-45.30914 -34.07257,-2.52687 C 107.2092,545.17432 110,550 115,565 m 0,0 c -0.67582,4.55173 -10,15 -10,20 0,20 8.28635,22.80911 8.28635,22.80911 M 0,602.5 A 52.5,17.5 0 0 1 52.5,585 52.5,17.5 0 0 1 105,602.5 52.5,17.5 0 0 1 52.5,620 52.5,17.5 0 0 1 0,602.5 M 0,635 c 0,0 0,0 0,0 0,-7.26326 13.906764,-13.49304 33.710273,-16.14069 m 40.126321,-0.30605 C 94.935161,621.00027 110,627.44036 110,635 c 0,9.66498 -24.624339,17.5 -55,17.5 -30.375661,0 -55,-7.83502 -55,-17.5 m 0,35 A 52.5,17.5 0 0 1 52.5,652.5 52.5,17.5 0 0 1 105,670 52.5,17.5 0 0 1 52.5,687.5 52.5,17.5 0 0 1 0,670 m 81.190615,14.82855 C 95.42114,687.85126 105,693.5135 105,700 c 0,9.66498 -21.266474,17.5 -47.5,17.5 -26.233526,0 -47.5,-7.83502 -47.5,-17.5 0,-5.87034 7.845484,-11.06558 19.884218,-14.24016 M 71.353778,586.35378 1.8096853e-5,515.00002 M 0.01954654,309.85484 C 97.553847,306.60681 187.04569,278.57823 265,215 242.58207,308.96614 186.5467,390.54153 0.19208181,424.08377 M 0.02611495,329.86514 C 80.533659,327.26172 156.89334,308.02209 225.89844,266.74805 215.04176,289.09377 200.42052,309.7058 179.62695,328.29492 143.53144,360.56376 88.070217,387.48097 0.3030741,403.73347 M 403.78383,197.62419 C 336.26254,339.65518 347.37034,430.78708 320,465 c -20,25 -55,30 -55,0 0,-35 34.89995,-14.62572 35,-10 M 420.14983,194.7359 C 350.94562,338.29848 360.63805,429.10673 335,465 c -25,35 -70,30 -70,0 M 436.41732,192.11036 C 365.77167,337.15433 375.05923,428.37497 350,465 c -65,95 -110,35 -110,0 0,-75 90,-50 85,-10 M 452.66924,189.51025 C 380.3287,335.87349 384.96411,425.07179 365,465 c -20,40 -77.60248,65.60999 -94.57243,48.74508 M 468.76283,187.3051 C 395.28161,334.97808 400.06417,424.87166 380,465 c -20,40 -64.49987,68.13553 -85,55 M 484.86189,185.0972 C 410.17626,334.00089 413.8917,422.78304 398.06034,465 c -15,40 -63.99783,80.55502 -88.06034,60 M 500.98907,182.86551 C 425.26914,333.18324 432.82673,424.62811 416.12069,466.74877 395,520 361.55589,552.64659 333.87298,532.76206 M 517.08318,180.7002 C 440.17534,332.31117 447.07596,424.66245 433.30665,468.06034 420,510 385.05006,555.51218 355.84466,537.64093 M 532.95278,178.99081 C 455.14049,331.61469 463.1489,424.34891 453.11576,468.93473 445,505 414.57664,561.0215 378.60909,540.43286 M 548.83217,177.27211 C 470.16595,330.96483 486.95731,428.90208 472.48768,472.43227 460,510 433.17716,553.42269 404.18658,543.70568 M 564.71321,175.55622 C 485.04614,330.22679 504.28597,424.83822 496.66872,470.24631 490,510 460.57216,546.71261 428.47424,539.87503 M 580,175 C 500,330 527.49789,425.817 516.91502,470.6835 510,500 488.83632,539.01648 459.3735,536.33341 M 595,175 c -80,155 -40.20318,258.59763 -57.40148,301.367 -14.96324,37.21112 -34.46264,50.38617 -51.88548,51.96249 M 872.92278,165.36952 C 878.47536,185.24409 890,227.40901 890,235 c 0,10 -10,40 -10,55 0,15 -10,70 -20,95 -10,25 -45,90 -50,100 -5,10 -9.80911,39.56281 -24.80911,44.56281 C 770.19089,534.56281 735,550 720,540 c -15,-10 -20,-15 -30,-15 -10,0 -30,5 -45,0 -15,-5 -85,-15 -90,-30 -4.37927,-13.20852 -10,-20 -12.37685,-37.81404 M 600,250 c 38.33434,-16.37294 66.18557,-53.25333 135,-10 v 0 l -5,5 c -36.11885,-35.30746 -82.46014,-18.22506 -130,5 v 0 m 285,-10 c -35,-15 -45,-30 -95,5 v 0 c 30,-15 66.71102,-25.58291 95,-5 v 0 m -95,5 c -5.6154,2.79579 -7.25819,21.1243 -5,30 2.46569,9.69125 15,50 15,60 0,10 8.93473,52.18596 8.93473,57.18596 C 808.93473,402.18596 790,410 775,410 m -35,-40 c -20.80837,1.70765 -37.88441,39.0889 9.3165,31.367 C 779.33131,396.45667 760,390 730,400 m -35,40 v 15 l 10,-10 -10,-5 v 0 m 110,-5 -5,10 -10,-5 15,-5 v 0 m -105,10 c 15,0 30,-10 35,-10 5,0 15,10 20,10 5,0 15,-10 20,-10 5,0 10,5 15,5 m -55,30 c 10.01679,10.83217 40,15 40,-10 M 595,285 c 35,5 80,-30 120,-30 m -80,25 c -5,15 55,25 70,15 15,-10 20,-5 20,-5 m 65.92308,-4.73452 c 20,0 52.33169,-22.79967 70,-25 17.66831,-2.20033 20,10 20,10 M 790,285 c 20,10 33.07061,20 52.77504,20 C 862.47948,305 880,290 880,290 m 2.739,-123.7807 C 916.80465,221.49072 899.28677,285.40768 900,345 c 0.8771,16.2765 15,10 20,5 M 875.87082,322.90274 C 862.67976,401.7494 940,392.04303 940,350 c 0,-40 -40,-25 -40,-5 m -5,35 c 0,45 20,70 35,45 M 863.25836,377.67781 C 863.1492,465.86053 958.06226,484.49806 950,420 c -5,-40 -50,-20 -49.35411,-3.3237 m -50.93616,-7.25685 C 853.6922,459.1525 893.43355,482.28636 925,470 c 18.6631,-7.26409 21.41954,-17.96959 21.12553,-24.43459 M 836.38083,435.22668 C 844.55434,477.95113 902.81586,504.1707 930,470 M 826.95836,452.9799 c 9.23009,40.69099 44.6545,58.76253 73.33191,47.60065 9.37718,-3.78954 17.97636,-11.41482 19.48762,-21.62957 M 818.48383,468.74467 c 11.12771,36.61173 44.52103,52.45596 71.80644,41.83588 10.07967,-3.92323 15.51949,-8.85029 18.34481,-13.57099 m -99.20619,-10.35763 c 6.14859,37.14216 80.06298,56.92175 91.04012,18.90786 m 19.69043,-379.7803 -34.261,-0.76972 c -20.57241,-0.46203 -41.18813,-0.75012 -61.84766,-0.83985 -144.61668,-0.62811 -291.43473,8.51346 -441.39258,36.50977 l -25.62291,4.78298 M 199.52363,-1.861155e-4 390,200 C 557.85386,168.66261 722.223,161.34428 885,165 L 1041.0815,-4.7504902e-4 M 472.32911,571.72521 c 96.1261,49.65099 189.63098,68.81642 274.62206,56.06776 92.08707,-13.81305 172.41975,-65.87574 230.70508,-150.23242 l 3.63322,-5.2579"
         id="path29" />
    </symbol>
    <symbol
       id="DJ4"
       preserveAspectRatio="none"
       viewBox="0 0 1300 2000">
      <path
         fill="#000000"
         d="m 130,1057 c -4.05697,-0.057 -4.05697,6.0574 0,6 h 60 c 4.05697,0.057 4.05697,-6.0574 0,-6 z m -10,25 c -4.05697,-0.057 -4.05697,6.0574 0,6 h 85 c 4.05697,0.057 4.05697,-6.0574 0,-6 z m -20,27 v 12 h 117.99556 l 2.32219,-12 z m 0,25 v 12 h 112.19009 l 2.61246,-12 z m 0,25 v 12 h 104.3527 l 3.77356,-12 z m 0,25 v 12 h 96.80558 l 3.48329,-12 z m 17.56086,37 h 68.50459 l 4.93466,-12 h -87.37239 z m 29.89819,25 h 27.86628 l 4.93465,-12 h -46.4438 z M 885.89844,125.00977 c -20.57241,-0.46203 -41.18813,-0.75012 -61.84766,-0.83985 -144.61668,-0.62811 -291.43473,8.51346 -441.39258,36.50977 L 356.76536,165.14144 390,200 c 167.85386,-31.33739 332.223,-38.65572 495,-35 l 35.36136,-38.40799 z m 48.58592,474.12195 c -96.95208,80.75964 -235.54034,102.4949 -377.10013,68.72074 l 43.71501,48.93565 c 123.68744,18.04212 244.25957,-3.94588 336.97192,-69.98917 z M 816.93387,960.22437 444.42427,540.61584 408.006,544.65043 795.89988,981.58838 Z M 496.14627,688.99198 354.52828,832.82122 344.45919,797.9729 475.10329,665.28888 Z M 877.7181,897.62075 c -4.42741,-4.52222 -10.57209,-10.85403 -17.54891,-18.39031 l 51.2367,-55.32553 c 6.54934,7.15907 13.21499,14.3439 19.38944,20.89501 M 192.9867,1295.5334 c 94.89675,-187.0442 116.97981,-405.54572 -39.01474,-633.20208 -4.97928,15.60172 -9.5041,32.46041 -16.21939,43.26065 129.03807,202.3061 110.48599,391.09323 29.07803,558.57083 z"
         id="path32" />
    </symbol>
    <symbol
       id="DJ3"
       preserveAspectRatio="none"
       viewBox="0 0 1300 2000">
      <path
         fill="#4444ff"
         d="m 509,758 c 9,0 28.31504,-1.23652 32,4 19,27 34.04704,54.14117 62,66 5.8946,2.50074 10.25821,21.90098 2,26 -38.41841,19.06926 -54.16748,-44.09457 -64,-71 -7.29748,-19.96864 -27.05442,-16.3424 -31,-17 -6,-1 -3.68742,-8 -1,-8 z m -52.66142,57.23111 c 9,0 28.31504,-1.23652 32,4 19,27 34.04704,54.14117 62,66 5.8946,2.50074 10.25821,21.90098 2,26 -38.41841,19.06926 -54.16748,-44.09457 -64,-71 -7.29748,-19.96864 -27.05442,-16.3424 -31,-17 -6,-1 -3.68742,-8 -1,-8 z m -50,50 c 9,0 28.31504,-1.23652 32,4 19,27 34.04704,54.14117 62,66 5.8946,2.50074 10.25821,21.90098 2,26 -38.41841,19.06926 -54.16748,-44.09457 -64,-71 -7.29748,-19.96864 -27.05442,-16.3424 -31,-17 -6,-1 -3.68742,-8 -1,-8 z m -35.09045,49.9176 c 7.57939,0.18799 14.95627,1.04959 17.09045,4.08236 19.00001,27 34.04704,54.14117 62,66 5.8946,2.50074 10.25821,21.90103 2,26.00003 -38.41841,19.0693 -54.16749,-44.0946 -64,-71.00003 -3.54885,-9.71099 -10.04436,-13.8418 -16.23502,-15.59885 m 4.18594,94.43338 c 7.01586,6.6818 14.83067,12.2547 24.04908,16.1655 5.89459,2.5007 10.2582,21.901 2,26 -10.87943,5.4001 -19.94095,4.2057 -27.565,-0.8923 M 697.24958,280 a 13.624805,20 0 0 1 -13.6248,20 13.624805,20 0 0 1 -13.62481,-20 13.624805,20 0 0 1 13.62481,-20 13.624805,20 0 0 1 13.6248,20 z m 162.75043,4.5064 a 12.499983,20.291776 0 0 1 -12.49999,20.29178 12.499983,20.291776 0 0 1 -12.49998,-20.29178 12.499983,20.291776 0 0 1 12.49998,-20.29178 12.499983,20.291776 0 0 1 12.49999,20.29178 z m 179.28779,309.78935 c -17.0093,-37.3226 -29.8743,-76.64471 -38.9183,-117.43495 l -19.08023,-4.55815 -3.63322,5.2579 c -8.474,12.26447 -17.41404,23.84632 -26.83922,34.71371 5.12511,82.79996 10.38084,166.89161 15.04414,237.70574 19.44237,-54.63238 44.35443,-106.74317 73.42683,-155.68425 z m 105.3118,-78.3251 55.1936,14.90547 m -55.1936,-14.90547 c 3.5097,27.01837 30.4012,77.53188 54.9427,106.16652 l 0.2509,-91.26105 M 137.56981,706.00019 c -4.34778,7.56853 -8.85478,12.68128 -13.24183,14.10728 C 109.29102,724.99519 100,709.97624 100,709.97624 l 0.0779,496.90446 c 23.97722,17.9539 45.70919,37.0813 66.05805,57.431 82.1026,-167.6265 100.65468,-356.41363 -28.56615,-558.31151 z M 100,1610 -10,1720 m 364.52828,-887.17878 141.61799,-143.82924 20.83045,22.78271 c -1.07786,-0.0888 -2.15214,-0.14044 -3.22086,-0.15555 -1.29732,-0.0183 -2.58589,0.0172 -3.86328,0.10547 -10.21915,0.70597 -19.68751,4.78712 -26.58789,11.6875 -11.54426,11.54425 -15.19004,30.27838 -8.34961,47.68555 -5.92821,-1.85933 -11.94503,-2.54172 -17.72266,-2.14258 -10.21914,0.70597 -19.68946,4.78712 -26.58984,11.6875 -9.67033,9.67033 -13.79327,24.38609 -10.85938,39.14062 -4.22585,-0.84038 -8.44886,-1.11149 -12.55078,-0.82812 -10.21914,0.70597 -19.68946,4.78712 -26.58984,11.6875 -9.61698,9.61698 -13.7484,24.22394 -10.9082,38.89648 -0.28336,-0.0598 -0.56613,-0.13305 -0.84961,-0.1875 -0.98,-0.2026 -1.97781,-0.30663 -2.97852,-0.31054 -0.86967,-0.003 -1.72346,0.068 -2.55505,0.20782 z M 1100,520 a 9.9999998,9.9999998 0 0 1 -10,10 9.9999998,9.9999998 0 0 1 -10,-10 9.9999998,9.9999998 0 0 1 10,-10 9.9999998,9.9999998 0 0 1 10,10 z m 30,65 a 9.9999998,9.9999998 0 0 1 -10,10 9.9999998,9.9999998 0 0 1 -10,-10 9.9999998,9.9999998 0 0 1 10,-10 9.9999998,9.9999998 0 0 1 10,10 z m 45,70 a 9.9999998,9.9999998 0 0 1 -10,10 9.9999998,9.9999998 0 0 1 -10,-10 9.9999998,9.9999998 0 0 1 10,-10 9.9999998,9.9999998 0 0 1 10,10 z"
         id="path35" />
    </symbol>
    <symbol
       id="DJ2"
       preserveAspectRatio="none"
       viewBox="0 0 1300 2000">
      <path
         fill="#ff0000"
         d="m 199.52148,0 157.66407,165.58203 25.47265,-4.90234 c 149.95785,-27.99631 296.7759,-37.13788 441.39258,-36.50977 20.65953,0.0897 41.27525,0.37782 61.84766,0.83985 l 34.47461,1.57031 L 1040.9492,0 h -90.37108 l -73.62695,108.70117 -3.26758,-0.0723 c -17.43992,-0.38354 -35.10109,-0.6067 -52.80078,-0.6836 -14.19091,-0.0617 -28.39696,-0.0289 -43.67773,0.15235 l -7.91602,0.0937 L 798.26758,0 H 696.22266 l -7.77344,110.40039 -5.35938,0.2207 c -28.90564,1.19451 -58.05762,2.96537 -87.60546,5.35938 L 589.9707,116.42773 570.95508,0 H 447.89844 l 45.31445,126.51953 -7.39062,0.95703 c -26.19409,3.39116 -52.95007,7.40266 -79.91016,12.12305 L 402.36914,140.2207 292.63281,0 Z m 108.34961,0 99.54297,127.19727 c 23.43187,-4.05137 46.64908,-7.54037 69.50196,-10.58789 L 435.15039,0 Z m 275.24414,0 16.92383,103.62695 c 25.99132,-2.04096 51.6931,-3.60588 77.18946,-4.7207 L 684.19141,0 Z m 227.57618,0 -25.73047,96.070312 c 12.29871,-0.10653 24.2951,-0.175767 35.97461,-0.125 16.66399,0.07238 33.2704,0.301981 49.72461,0.644532 L 936.08594,0 Z M 0,50 v 70 l 80,80 v -70 z m 0,150 v 109.85352 c 27.325054,-0.91104 54.013626,-3.78058 80,-8.81641 V 280 Z m 225.89844,66.74805 C 156.88675,308.02603 80.516023,327.25303 0,329.85352 v 73.93554 c 87.941567,-16.24665 143.49015,-43.18838 179.62695,-75.49414 20.79357,-18.58912 35.41481,-39.20115 46.27149,-61.54687 z M 80,404.4375 C 56.423649,412.12851 29.870302,418.72246 0,424.09375 V 435 l 80,80 z m 182.08398,104.17188 -54.92968,36.68359 c 65.5852,82.86393 109.88762,167.06245 137.03125,251.62305 L 475.10742,665.29297 365.26367,541.56055 c -34.415,-10.87756 -70.71377,-12.66012 -103.17969,-32.95117 z m 863.33402,2.24023 -42.3438,33.26953 9.8067,23.38086 h 66.5136 l -40.5117,50.64062 14.3594,21.42383 61.3808,-10.23047 -17.6699,63.61329 12.2031,12.11523 10.9825,-39.53906 -0.5957,-43.38672 -6.0684,-7.82031 -60.3711,10.0625 36.7149,-45.89453 L 1156.7402,552.5 h -60.0566 l 46.6523,-36.65625 z M 0,515 v 87.5 a 52.5,17.5 0 0 1 52.5,-17.5 52.5,17.5 0 0 1 18.664062,1.16406 z m 0,87.5 V 635 c 0,-7.26326 13.907429,-13.49298 33.710938,-16.14062 l 0.300781,-0.002 A 52.5,17.5 0 0 1 0,602.5 Z M 0,635 v 35 a 52.5,17.5 0 0 1 52.5,-17.5 52.5,17.5 0 0 1 27.5,2.61914 v -4.54492 C 72.493327,651.79671 64.012037,652.5 55,652.5 24.624339,652.5 0,644.66498 0,635 Z m 0,35 v 80 l 80,80 V 715.41406 C 73.301978,716.74411 65.642419,717.5 57.5,717.5 31.266474,717.5 10,709.66498 10,700 c 0,-5.86678 7.836947,-11.05926 19.863281,-14.23438 A 52.5,17.5 0 0 1 0,670 Z M 170.15234,567 a 3.0003,3.0003 0 1 0 0,6 h 8.42774 0.38086 a 3.0003,3.0003 0 1 0 0,-6 h -0.38086 z M 72.720703,586.35352 A 52.5,17.5 0 0 1 80,587.61914 v -1.26562 z M 146.99805,587 a 3.0003,3.0003 0 1 0 0,6 h 46.9375 0.35547 a 3.0003,3.0003 0 1 0 0,-6 h -0.35547 z m 15.47265,20 a 3.0003,3.0003 0 1 0 0,6 h 45.8418 0.32422 a 3.0003,3.0003 0 1 0 0,-6 H 208.3125 Z M 80,617.39258 a 52.5,17.5 0 0 1 -6.863281,1.16601 l 0.699219,-0.006 c 2.125467,0.24652 4.170294,0.54449 6.164062,0.86915 z M 176.95508,627 a 3.0003,3.0003 0 1 0 0,6 h 44.98242 0.29688 a 3.0003,3.0003 0 1 0 0,-6 h -0.29688 z m 13.67187,20 a 3.0003,3.0003 0 1 0 0,6 h 44.19922 0.26953 a 3.0003,3.0003 0 1 0 0,-6 h -0.26953 z m 12.8711,20 a 3.0003,3.0003 0 1 0 0,6 h 43.38086 0.25 a 3.0003,3.0003 0 1 0 0,-6 h -0.25 z m 12.07812,20 a 3.0003,3.0003 0 1 0 0,6 h 42.42188 a 3.0003,3.0003 0 1 0 0,-6 z m 597.47656,18.96094 -26.20312,6.31836 C 795.12464,737.78428 809.83353,778.76694 825,800 c 12.70132,17.78185 34.43655,42.01754 52.74805,61.55859 L 894.5293,842.71484 C 878.26925,825.06396 860.84303,805.18024 850,790 835.54393,769.76151 821.50223,731.5797 813.05273,705.96094 Z M 226.8457,707 a 3.0003,3.0003 0 1 0 0,6 h 41.58203 a 3.0003,3.0003 0 1 0 0,-6 z m 10.30664,20 a 3.0003,3.0003 0 1 0 0,6 h 41.02149 a 3.0003,3.0003 0 1 0 0,-6 z m 9.55664,20 a 3.0003,3.0003 0 1 0 0,6 h 40.4668 a 3.0003,3.0003 0 1 0 0,-6 z m 8.81446,20 a 3.0003,3.0003 0 1 0 0,6 h 39.75976 0.15625 a 3.0003,3.0003 0 1 0 0,-6 h -0.15625 z m 8.08203,20 a 3.0003,3.0003 0 1 0 0,6 h 39.14062 a 3.0003,3.0003 0 1 0 0,-6 z m 7.35351,20 a 3.0003,3.0003 0 1 0 0,6 h 38.60938 a 3.0003,3.0003 0 1 0 0,-6 z m 6.51368,20 a 3.0003,3.0003 0 1 0 0,6 h 38.26367 a 3.0003,3.0003 0 1 0 0,-6 z M 0,830 v 235 l 80,80 V 910 Z m 283.21289,17 a 3.0003,3.0003 0 1 0 0,6 h 37.80859 a 3.0003,3.0003 0 1 0 0,-6 z m 5.04297,20 a 3.0003,3.0003 0 1 0 0,6 h 37.43945 a 3.0003,3.0003 0 1 0 0,-6 z m 4.35352,20 a 3.0003,3.0003 0 1 0 0,6 h 37.15234 a 3.0003,3.0003 0 1 0 0,-6 z m 3.66796,20 a 3.0003,3.0003 0 1 0 0,6 h 36.94532 a 3.0003,3.0003 0 1 0 0,-6 z m 2.98633,20 a 3.0003,3.0003 0 1 0 0,6 h 36.62695 a 3.0003,3.0003 0 1 0 0,-6 z m 2.19727,20 a 3.0003,3.0003 0 1 0 0,6 h 36.45312 a 3.0003,3.0003 0 1 0 0,-6 z m 1.49023,20 a 3.0003,3.0003 0 1 0 0,6 h 36.39844 a 3.0003,3.0003 0 1 0 0,-6 z m 0.83008,20 a 3.0003,3.0003 0 1 0 0,6 H 340 a 3.0003,3.0003 0 1 0 0,-6 z m 0.17383,20 a 3.0003,3.0003 0 1 0 0,6 H 340 a 3.0003,3.0003 0 1 0 0,-6 z m -0.48438,20 a 3.0003,3.0003 0 1 0 0,6 h 36.41211 a 3.0003,3.0003 0 1 0 0,-6 z m -1.13672,20 a 3.0003,3.0003 0 1 0 0,6 h 36.44727 a 3.0003,3.0003 0 1 0 0,-6 z m -1.7871,20 a 3.0003,3.0003 0 1 0 0,6 h 36.55468 a 3.0003,3.0003 0 1 0 0,-6 z m -2.51954,20 a 3.0003,3.0003 0 1 0 0,6 h 36.81641 a 3.0003,3.0003 0 1 0 0,-6 z m -3.18359,20 a 3.0003,3.0003 0 1 0 0,6 h 37.11523 a 3.0003,3.0003 0 1 0 0,-6 z m -3.82617,20 a 3.0003,3.0003 0 1 0 0,6 h 37.35351 a 3.0003,3.0003 0 1 0 0,-6 z M 0,1145 v 235 l 80,80 v -235 z m 286.55078,2 a 3.0003,3.0003 0 1 0 0,6 h 37.65625 a 3.0003,3.0003 0 1 0 0,-6 z m -5.10937,20 a 3.0003,3.0003 0 1 0 0,6 h 38.02343 a 3.0003,3.0003 0 1 0 0,-6 z m -5.75,20 a 3.0003,3.0003 0 1 0 0,6 h 38.44531 a 3.0003,3.0003 0 1 0 0,-6 z m -6.39649,20 a 3.0003,3.0003 0 1 0 0,6 h 38.91406 a 3.0003,3.0003 0 1 0 0,-6 z m -7.04101,20 a 3.0003,3.0003 0 1 0 0,6 h 39.39648 a 3.0003,3.0003 0 1 0 0,-6 z m -7.69141,20 a 3.0003,3.0003 0 1 0 0,6 h 39.84375 a 3.0003,3.0003 0 1 0 0,-6 z m -8.3418,20 a 3.0003,3.0003 0 1 0 0,6 h 40.33985 a 3.0003,3.0003 0 0 0 0.002,0 3.0003,3.0003 0 0 0 0.006,0 h 0.0391 a 3.0003,3.0003 0 0 0 0.16211,-5.9961 3.0003,3.0003 0 0 0 -0.17773,0 h -0.0312 z m -9,20 a 3.0003,3.0003 0 1 0 0,6 h 40.88282 a 3.0003,3.0003 0 1 0 0,-6 z m -9.66015,20 a 3.0003,3.0003 0 1 0 0,6 h 41.46289 a 3.0003,3.0003 0 1 0 0,-6 z m -9.125,20 a 3.0003,3.0003 0 1 0 0,6 h 40.87695 a 3.0003,3.0003 0 1 0 0,-6 z m 12.81836,20 a 3.0003,3.0003 0 1 0 0,6 h 17.70312 0.125 a 3.0003,3.0003 0 1 0 0,-6 h -0.125 z M 0,1459.9551 V 1660 l 80,-80 v -40.7676 z"
         id="path38" />
    </symbol>
    <symbol
       id="DJ1"
       preserveAspectRatio="none"
       viewBox="0 0 1300 2000">
      <path
         fill="#ffcc44"
         d="M 0,0 V 602.5 A 52.5,17.5 0 0 1 52.5,585 52.5,17.5 0 0 1 100,595.0918 V 397.39258 C 208.28637,356.23552 247.22219,289.51677 265,215 214.52335,256.16791 159.20261,282.41009 100,296.69141 V 100 Z M 0,602.5 V 635 c 0,-7.26326 13.907429,-13.49298 33.710938,-16.14062 l 0.300781,-0.002 A 52.5,17.5 0 0 1 0,602.5 Z M 0,635 v 35 A 52.5,17.5 0 0 1 52.5,652.5 52.5,17.5 0 0 1 100,662.5918 V 645.05664 C 90.047496,649.55699 73.608746,652.5 55,652.5 24.624339,652.5 0,644.66498 0,635 Z m 0,35 V 1710 L 100,1610 V 707.81445 C 92.207412,713.55569 76.108357,717.5 57.5,717.5 31.266474,717.5 10,709.66498 10,700 c 0,-5.86678 7.836947,-11.05926 19.863281,-14.23438 A 52.5,17.5 0 0 1 0,670 Z M 872.92188,165.36914 C 878.47445,185.24371 890,227.40901 890,235 c 0,10 -10,40 -10,55 0,15 -10,70 -20,95 -10,25 -44.99961,90.00021 -50.28516,100.82617 2.871,18.59214 22.05956,32.81595 42.18555,38.03516 l -1.48828,-0.0332 c -33.86112,23.7658 -71.46691,38.49444 -112.36328,44.6289 C 669.735,578.7041 590.81359,564.24079 505.55078,521.31641 l -0.65625,0.29492 c 11.60466,-7.36262 23.08961,-21.33691 32.70313,-45.24414 C 554.79596,433.59782 515,330 595,175 527.02204,174.999 461.4023,179.19548 403.7832,197.625 342.89407,325.70524 345.94685,412.39376 326.03125,454.13867 330,415.0003 240,390 240,465 c 0,20.57808 15.55526,49.79775 43.0293,51.08984 65.14888,21.07077 129.94852,36.62181 202.68359,12.24024 2.37743,-0.2151 4.79446,-0.65535 7.23242,-1.33399 l -10.6289,4.78711 c 93.45298,50.01793 181.50418,68.03239 258.69921,56.45313 52.21322,-7.83198 99.70025,-29.07774 141.03321,-63.69531 l -1.72852,-0.0391 c 9.59362,-2.60702 17.17768,-8.65363 20.14844,-18.9414 24.05022,-28.31987 34.1997,-44.00268 46.78125,-61.89649 2.82625,-6.00578 3.97324,-13.87818 2.75,-23.66406 -5,-40 -49.99945,-19.9998 -49.88086,-4.72656 -3.37335,-10.43234 -5.11978,-21.98096 -4.97461,-35.37696 C 914.50267,387.62207 940,374.14289 940,350 c 0,-40 -40,-5 -40,-5 0,0 16.80393,-123.50983 -17.26172,-178.78125 z m 88.27929,300.82422 C 905.56852,546.7108 830.5497,595.02887 743.98438,608.01367 655.93542,621.22101 556.54051,598.18252 453.02734,538.36914 L 445,540 l 27.33008,31.72461 c 96.1261,49.65099 189.63001,68.81702 274.62109,56.06836 70.77778,-10.61666 134.6094,-43.83375 186.82617,-96.9375 l -2.90039,3.17578 17.16407,274.62695 17.58593,-58.61328 c -4.42751,-70.84011 -9.68038,-154.88625 -14.85351,-237.65625 9.40756,-10.91156 18.38141,-22.524 26.88281,-34.82812 l 3.63281,-5.25782 z m 72.14063,19.82617 c 26.2591,105.35479 79.3583,198.01972 165.4805,268.01172 l 1.1054,-38.52539 C 1133.5631,655.6016 1090.5416,580.33244 1066.5605,494.35156 Z m -668.07813,55.54102 151.07031,170.17383 c -0.86201,-0.0593 -1.72222,-0.10314 -2.57812,-0.11524 -1.29732,-0.0183 -2.58589,0.0172 -3.86328,0.10547 -10.21915,0.70597 -19.68751,4.78712 -26.58789,11.6875 -11.54426,11.54425 -15.19004,30.27838 -8.34961,47.68555 -5.92821,-1.85933 -11.94503,-2.54172 -17.72266,-2.14258 -10.21914,0.70597 -19.68946,4.78712 -26.58984,11.6875 -9.67033,9.67033 -13.79327,24.38609 -10.85938,39.14062 -4.22585,-0.84038 -8.44886,-1.11149 -12.55078,-0.82812 -10.21914,0.70597 -19.68946,4.78712 -26.58984,11.6875 -9.61698,9.61698 -13.74842,24.22394 -10.9082,38.89648 -0.28337,-0.0598 -0.56613,-0.13305 -0.84961,-0.1875 -0.98,-0.2026 -1.97781,-0.30663 -2.97852,-0.31054 -0.86967,-0.003 -1.7231,0.0672 -2.55469,0.20703 l 0.38867,2.12695 C 342.12366,763.33303 292.8512,653.03287 207.75,544.89648 l -63.5957,41.58399 C 147.97971,601.13005 154.04474,623.7592 155,640 c 0.35155,5.97684 -0.33635,13.3761 -1.41211,21.78906 156.379,228.19892 134.2947,446.70094 38.82422,633.13674 27.04234,33.2885 49.71315,70.2902 68.01953,110.166 43.96344,-73.4827 78.35645,-154.4443 98.05078,-240.0977 l -0.30859,1.6231 295.53125,-300.14454 121.16015,136.47854 21.03516,-21.36331 -387.89453,-436.9375 z M 100,609.9043 a 52.5,17.5 0 0 1 -26.826172,8.65429 l 0.66211,-0.006 c 10.647705,1.23492 19.750557,3.48913 26.164062,6.38868 z m 0,67.5 a 52.5,17.5 0 0 1 -19.865234,7.44336 l 1.05664,-0.0195 c 8.064723,1.71304 14.628656,4.27541 18.808594,7.35352 z m 738.64062,20.33203 -25.58789,8.22461 C 821.50223,731.5797 835.54393,769.76151 850,790 c 10.84303,15.18024 28.26925,35.06396 44.5293,52.71484 0,0 23.03621,-12.07085 16.19922,-19.65625 C 897.24079,808.09442 883.90157,792.46219 875,780 860.87439,760.22415 847.14413,723.31512 838.64062,697.73633 Z m -51.79101,14.54297 -26.7168,4.64843 C 767.96686,741.66234 783.7206,787.20884 800,810 c 14.38872,20.1442 40.37142,48.56889 59.83594,69.07031 7.13332,7.51333 16.88281,-18.61328 16.88281,-18.61328 C 858.62803,841.11272 837.46408,817.44971 825,800 809.83353,778.76694 795.12464,737.78428 786.84961,712.2793 Z"
         id="path41" />
    </symbol>
    <rect
       id="XDJ"
       width="164.8"
       height="260.79999"
       x="-82.400002"
       y="-130.39999" />
  </defs>
  <g
     inkscape:groupmode="layer"
     id="layer1"
     inkscape:label="Layer 1"
     transform="translate(83.6677,130.78572)">
    <path
       d="M 1,0 0,1 -1,0 0,-1"
       id="path1736"
       fill="#ff0000"
       inkscape:label="layer-0"
       style="display:inline;stroke-width:0.264583" />
    <path
       fill="#ffcc44"
       d="m -82.4,-130.4 v 78.566 c 0,-0.6052 0.7012,-1.1857 1.9493,-1.6136 1.2481,-0.428 2.941,-0.6684 4.7061,-0.6684 2.5817,0.0011 4.9286,0.514 6.0215,1.316 v -25.78 c 13.7274,-5.3669 18.6632,-14.067 20.9169,-23.784 -6.3989,5.3683 -13.4118,8.7903 -20.9169,10.6526 V -117.36 Z m 0,78.566 v 4.238 c 0,-0.9471 1.763,-1.7595 4.2735,-2.1047 l 0.0381,-3e-4 c -2.5912,-0.3343 -4.3082,-1.1837 -4.3116,-2.133 z m 0,4.238 v 4.564 c 0,-0.6052 0.7012,-1.1857 1.9493,-1.6136 1.2481,-0.428 2.941,-0.6684 4.7061,-0.6684 2.5817,0.0011 4.9286,0.514 6.0215,1.316 v -2.2866 c -1.2617,0.5868 -3.3456,0.9706 -5.7046,0.9706 -3.8507,0 -6.9723,-1.0217 -6.9723,-2.282 z m 0,4.564 V 92.584 l 12.6769,-13.04 V -38.101 c -0.9879,0.7487 -3.0287,1.263 -5.3877,1.263 -3.3256,0 -6.0215,-1.0217 -6.0215,-2.282 0,-0.765 0.9935,-1.4421 2.518,-1.8562 -2.3101,-0.3785 -3.7822,-1.1779 -3.7857,-2.0558 z m 110.6594,-65.804 c 0.7039,2.592 2.165,8.09 2.165,9.08 0,1.304 -1.2677,5.216 -1.2677,7.172 0,1.956 -1.2677,9.128 -2.5354,12.388 -1.2677,3.26 -5.7045,11.736 -6.3746,13.1477 0.364,2.4244 2.7965,4.2792 5.3479,4.9598 l -0.1887,-0.0043 c -4.2925,3.099 -9.0598,5.0197 -14.2442,5.8196 -8.66006,1.3362 -18.66485,-0.5498 -29.4735,-6.1471 l -0.0832,0.0384 c 1.4711,-0.9601 2.927,-2.7823 4.1457,-5.8998 2.1802,-5.5771 -2.8647,-19.0863 7.27685,-39.2983 -8.61745,0 -16.93605,0.547 -24.24035,2.95 -7.7189,16.702 -7.3319,28.0061 -9.8565,33.4497 0.5031,-5.1037 -10.9061,-8.3637 -10.9061,1.4163 0,2.6834 1.9719,6.4936 5.4547,6.6621 8.2589,2.7476 16.4735,4.7755 25.694,1.5961 0.3014,-0.028 0.6078,-0.0854 0.9169,-0.1739 l -1.3474,0.6242 c 11.84691,6.5224 23.00907,8.8715 32.795,7.3615 6.619,-1.0213 12.6389,-3.7917 17.8786,-8.3059 l -0.2191,-0.005 c 1.2162,-0.34 2.1776,-1.1285 2.5542,-2.47 3.0488,-3.6929 4.3355,-5.738 5.9304,-8.0713 0.3583,-0.7832 0.5037,-1.8097 0.3486,-3.0858 -0.6338,-5.216 -6.3383,-2.608 -6.3233,-0.6163 -0.4276,-1.3604 -0.649,-2.8664 -0.6306,-4.6132 2.454,1.0074 5.6863,-0.7503 5.6863,-3.8985 0,-5.216 -5.0708,-0.652 -5.0708,-0.652 0,0 2.1302,-16.106 -2.1883,-23.313 z m 11.1911,39.2276 c -7.0525,10.4995 -16.5625,16.8002 -27.5363,18.4934 -11.161923,1.7222 -23.7621,-1.282 -36.8844,-9.0817 l -1.0176,0.2127 3.4646,4.1369 c 12.1858,6.4745 24.03922,8.9737 34.8135,7.3113 8.9724,-1.3844 17.0643,-5.7159 23.6837,-12.6406 l -0.3677,0.4141 2.1759,35.8113 2.2294,-7.6431 c -0.5613,-9.2376 -1.2272,-20.1972 -1.883,-30.9904 1.1926,-1.4229 2.3302,-2.9371 3.4079,-4.5416 l 0.4605,-0.6856 z m 9.1452,2.5853 c 3.3288,13.7383 10.0602,25.8218 20.9778,34.9488 l 0.1401,-5.0237 C 61.3007,-44.9096 55.8469,-54.7246 52.8068,-65.9366 Z m -84.6916,7.2426 19.151,22.1907 c -0.1092,-0.0078 -0.2183,-0.0135 -0.3268,-0.0151 -0.1644,-0.0024 -0.3278,0.0023 -0.4897,0.0138 -1.2955,0.092 -2.4958,0.6242 -3.3705,1.524 -1.4635,1.5054 -1.9257,3.9483 -1.0585,6.2182 -0.7515,-0.2424 -1.5143,-0.3314 -2.2467,-0.2794 -1.2955,0.0921 -2.496,0.6243 -3.3708,1.5241 -1.2259,1.261 -1.7485,3.1799 -1.3766,5.1039 -0.5357,-0.1096 -1.0711,-0.1449 -1.5911,-0.108 -1.2954,0.0921 -2.496,0.6243 -3.3707,1.5241 -1.2192,1.254 -1.7429,3.1588 -1.3828,5.0721 -0.036,-0.0078 -0.0718,-0.0174 -0.1077,-0.0245 -0.1243,-0.0264 -0.2508,-0.0399 -0.3776,-0.0405 -0.1103,-3e-4 -0.2185,0.0088 -0.3239,0.027 l 0.0493,0.2774 c -2.7403,-14.0887 -8.9865,-28.4718 -19.7747,-42.5728 l -8.062,5.4226 c 0.4849,1.9103 1.2538,4.8611 1.3749,6.9789 0.0446,0.7794 -0.0426,1.7442 -0.179,2.8413 19.824,29.7571 17.0244,58.2498 4.9217,82.561 3.4281,4.3408 6.3021,9.1659 8.6228,14.3657 5.5732,-9.5822 9.9331,-20.1396 12.4298,-31.3088 L -36.9947,21.7269 0.469539,-17.412 15.8289,0.384836 18.4955,-2.40094 -30.6775,-59.3776 Z m -33.6272,8.912 c -0.692,0.5064 -1.9022,0.9079 -3.4007,1.1285 l 0.0839,-7e-4 c 1.3498,0.161 2.5038,0.4549 3.3168,0.833 z m 0,8.802 c -0.5474,0.4004 -1.4223,0.7376 -2.5183,0.9706 l 0.134,-0.0025 c 1.0223,0.2234 1.8544,0.5575 2.3843,0.9589 z m 93.6367,2.6513 -3.2437,1.0725 c 1.0711,3.3407 2.8512,8.3196 4.6837,10.9587 1.3746,1.9795 3.5837,4.5723 5.645,6.874 0,0 2.9203,-1.574 2.0535,-2.5632 -1.7098,-1.9513 -3.4008,-3.9897 -4.5292,-5.6148 -1.7907,-2.5788 -3.5313,-7.3917 -4.6093,-10.7272 z m -6.5655,1.8964 -3.3868,0.6062 c 0.9931,3.2254 2.9902,9.1646 5.0539,12.1366 1.824,2.6268 5.1178,6.3334 7.5853,9.0068 0.9043,0.9797 2.1403,-2.4272 2.1403,-2.4272 -2.2934,-2.5225 -4.9763,-5.6082 -6.5564,-7.8836 -1.9226,-2.7688 -3.7872,-8.1129 -4.8363,-11.4388 z"
       id="path369"
       style="display:inline"
       inkscape:label="layer-3" />
    <path
       fill="#ff0000"
       d="m -57.1069,-130.4 19.987,21.592 3.2291,-0.639 c 19.01,-3.651 37.62198,-4.843 55.9549,-4.761 2.619,0.011 5.2324,0.049 7.8404,0.109 l 4.3703,0.205 15.2853,-16.506 H 38.1038 l -9.3336,14.175 -0.4142,-0.01 c -2.2108,-0.05 -4.4497,-0.079 -6.6935,-0.089 -1.799,-0.008 -3.5999,-0.004 -5.537,0.02 l -1.0035,0.012 3.6736,-14.108 H 5.85945 l -0.98543,14.396 -0.6794,0.029 c -3.664343,0.156 -7.35991,0.387 -11.10566,0.699 l -0.69896,0.058 -2.4106,-15.182 h -15.5998 l 5.7445,16.498 -0.9369,0.125 c -3.3206,0.442 -6.7124,0.965 -10.1301,1.581 l -0.4492,0.081 -13.9111,-18.285 z m 13.7354,0 12.619,16.587 c 2.9704,-0.529 5.9136,-0.984 8.8107,-1.381 l -5.2946,-15.206 z m 34.89243,0 2.14542,13.513 c 3.2949,-0.266 6.553084,-0.47 9.78523,-0.616 L 4.33426,-130.4 Z m 28.84957,0 -3.2618,12.528 c 1.5591,-0.014 3.0799,-0.023 4.5605,-0.017 2.1125,0.01 4.2176,0.04 6.3035,0.084 l 8.294,-12.595 z M -82.4,-123.88 v 9.128 l 10.1415,10.432 v -9.128 z m 0,19.56 v 14.3249 c 3.464,-0.1188 6.8473,-0.493 10.1415,-1.1497 v -2.7432 z m 28.6369,8.7039 c -8.7485,5.3827 -18.43,7.8899 -28.6369,8.229 v 9.6412 c 11.1483,-2.1186 18.1901,-5.6318 22.7711,-9.8444 2.636,-2.4241 4.4895,-5.1119 5.8658,-8.0258 z m -18.4954,17.9547 c -2.9887,1.003 -6.3549,1.8628 -10.1415,2.5632 v 1.4222 l 10.1415,10.432 z m 23.0826,13.5841 -6.9634,4.7835 c 8.3142,10.8055 13.9304,21.7849 17.3714,32.8116 l 16.5968,-17.1636 -13.9248,-16.1347 c -4.3627,-1.4184 -8.9643,-1.6509 -13.08,-4.2968 z m 109.444,0.2921 -5.3679,4.3383 1.2432,3.0489 h 8.4319 l -5.1356,6.6035 1.8203,2.7937 7.7812,-1.334 -2.24,8.2951 1.5469,1.5798 1.3923,-5.1558 -0.0755,-5.6577 -0.7693,-1.0197 -7.6532,1.3121 4.6543,-5.9846 -1.6579,-3.3884 h -7.6133 l 5.914,-4.78 z M -82.4,-63.244 v 11.41 c 0,-0.6052 0.7012,-1.1857 1.9493,-1.6136 1.2481,-0.428 2.941,-0.6684 4.7061,-0.6684 0.809,9e-4 1.6108,0.0523 2.366,0.1518 z m 0,11.41 v 4.238 c 0,-0.9471 1.763,-1.7595 4.2735,-2.1047 l 0.0381,-3e-4 c -2.5912,-0.3343 -4.3082,-1.1837 -4.3116,-2.133 z m 0,4.238 v 4.564 c 0,-0.6052 0.7012,-1.1857 1.9493,-1.6136 1.2481,-0.428 2.941,-0.6684 4.7061,-0.6684 1.2318,10e-4 2.4386,0.1193 3.4861,0.3415 v -0.5926 c -0.9516,0.1594 -2.0268,0.2511 -3.1692,0.2511 -3.8507,0 -6.9723,-1.0217 -6.9723,-2.282 z m 0,4.564 V -32.6 l 10.1415,10.432 V -37.11 c -0.8491,0.1734 -1.8201,0.272 -2.8523,0.272 -3.3256,0 -6.0215,-1.0217 -6.0215,-2.282 0,-0.765 0.9935,-1.4421 2.518,-1.8562 -2.3101,-0.3785 -3.7822,-1.1779 -3.7857,-2.0558 z m 21.57,-13.4312 c -0.1371,-0.002 -0.2647,0.0721 -0.3338,0.194 -0.0692,0.1218 -0.0692,0.2726 0,0.3944 0.0691,0.1219 0.1967,0.196 0.3338,0.194 h 1.0684 0.0483 c 0.1372,0.002 0.2647,-0.0721 0.3339,-0.194 0.0691,-0.1218 0.0691,-0.2726 0,-0.3944 -0.0692,-0.1219 -0.1967,-0.196 -0.3339,-0.194 h -0.0483 z m -12.3513,2.5237 c 0.3197,0.0467 0.6283,0.1018 0.9228,0.165 v -0.165 z m 9.4161,0.0843 c -0.1372,-0.002 -0.2647,0.0721 -0.3339,0.194 -0.0691,0.1218 -0.0691,0.2726 0,0.3944 0.0692,0.1219 0.1967,0.196 0.3339,0.194 h 5.9502 0.0451 c 0.1371,0.002 0.2647,-0.0721 0.3338,-0.194 0.0692,-0.1218 0.0692,-0.2726 0,-0.3944 -0.0691,-0.1219 -0.1967,-0.196 -0.3338,-0.194 h -0.0451 z m 1.9614,2.608 c -0.1371,-0.002 -0.2647,0.0721 -0.3338,0.194 -0.0692,0.1218 -0.0692,0.2726 0,0.3944 0.0691,0.1219 0.1967,0.196 0.3338,0.194 h 5.8114 0.0411 c 0.1371,0.002 0.2647,-0.0721 0.3338,-0.194 0.0692,-0.1218 0.0692,-0.2726 0,-0.3944 -0.0691,-0.1219 -0.1967,-0.196 -0.3338,-0.194 h -0.0411 z m -10.4547,1.3552 c -0.2787,0.0579 -0.5695,0.1087 -0.87,0.152 l 0.0886,-7e-4 c 0.2695,0.0321 0.5287,0.071 0.7814,0.1133 z m 12.2909,1.2528 c -0.1371,-0.002 -0.2647,0.0721 -0.3338,0.194 -0.0692,0.1218 -0.0692,0.2726 0,0.3944 0.0691,0.1219 0.1967,0.196 0.3338,0.194 h 5.7024 0.0376 c 0.1372,0.002 0.2648,-0.0721 0.3339,-0.194 0.0691,-0.1218 0.0691,-0.2726 0,-0.3944 -0.0691,-0.1219 -0.1967,-0.196 -0.3339,-0.194 h -0.0376 z m 1.7332,2.608 c -0.1372,-0.002 -0.2647,0.0721 -0.3339,0.194 -0.0691,0.1218 -0.0691,0.2726 0,0.3944 0.0692,0.1219 0.1967,0.196 0.3339,0.194 h 5.6031 0.0341 c 0.1372,0.002 0.2648,-0.0721 0.3339,-0.194 0.0692,-0.1218 0.0692,-0.2726 0,-0.3944 -0.0691,-0.1219 -0.1967,-0.196 -0.3339,-0.194 h -0.0341 z m 1.6316,2.608 c -0.1371,-0.002 -0.2647,0.0721 -0.3338,0.194 -0.0692,0.1218 -0.0692,0.2726 0,0.3944 0.0691,0.1219 0.1967,0.196 0.3338,0.194 h 5.4994 0.0317 c 0.1371,0.002 0.2647,-0.0721 0.3339,-0.194 0.0691,-0.1218 0.0691,-0.2726 0,-0.3944 -0.0692,-0.1219 -0.1968,-0.196 -0.3339,-0.194 h -0.0317 z m 1.5312,2.608 c -0.1372,-0.002 -0.2647,0.0721 -0.3339,0.194 -0.0691,0.1218 -0.0691,0.2726 0,0.3944 0.0692,0.1219 0.1967,0.196 0.3339,0.194 h 5.3778 c 0.1371,0.002 0.2647,-0.0721 0.3338,-0.194 0.0692,-0.1218 0.0692,-0.2726 0,-0.3944 -0.0691,-0.1219 -0.1967,-0.196 -0.3338,-0.194 z m 75.7415,2.4725 -3.3218,0.8239 c 1.0491,3.3259 2.9137,8.67 4.8363,11.4388 1.6102,2.3188 4.3655,5.4791 6.6868,8.0272 l 2.1274,-2.4572 c -2.0613,-2.3017 -4.2704,-4.8945 -5.645,-6.874 -1.8325,-2.6391 -3.6126,-7.618 -4.6837,-10.9587 z m -74.3129,0.1355 c -0.1371,-0.002 -0.2647,0.0721 -0.3339,0.194 -0.0691,0.1218 -0.0691,0.2726 0,0.3944 0.0692,0.1219 0.1968,0.196 0.3339,0.194 h 5.2713 c 0.1372,0.002 0.2647,-0.0721 0.3339,-0.194 0.0691,-0.1218 0.0691,-0.2726 0,-0.3944 -0.0692,-0.1219 -0.1967,-0.196 -0.3339,-0.194 z m 1.3066,2.608 c -0.1372,-0.002 -0.2648,0.0721 -0.3339,0.194 -0.0691,0.1218 -0.0691,0.2726 0,0.3944 0.0691,0.1219 0.1967,0.196 0.3339,0.194 h 5.2002 c 0.1372,0.002 0.2647,-0.0721 0.3339,-0.194 0.0691,-0.1218 0.0691,-0.2726 0,-0.3944 -0.0692,-0.1219 -0.1967,-0.196 -0.3339,-0.194 z m 1.2115,2.608 c -0.1372,-0.002 -0.2648,0.0721 -0.3339,0.194 -0.0692,0.1218 -0.0692,0.2726 0,0.3944 0.0691,0.1219 0.1967,0.196 0.3339,0.194 h 5.1299 c 0.1371,0.002 0.2647,-0.0721 0.3339,-0.194 0.0691,-0.1218 0.0691,-0.2726 0,-0.3944 -0.0692,-0.1219 -0.1968,-0.196 -0.3339,-0.194 z m 1.1174,2.608 c -0.1372,-0.002 -0.2648,0.0721 -0.3339,0.194 -0.0692,0.1218 -0.0692,0.2726 0,0.3944 0.0691,0.1219 0.1967,0.196 0.3339,0.194 h 5.0403 0.0198 c 0.1371,0.002 0.2647,-0.0721 0.3338,-0.194 0.0692,-0.1218 0.0692,-0.2726 0,-0.3944 -0.0691,-0.1219 -0.1967,-0.196 -0.3338,-0.194 h -0.0198 z m 1.0245,2.608 c -0.1372,-0.002 -0.2647,0.0721 -0.3339,0.194 -0.0691,0.1218 -0.0691,0.2726 0,0.3944 0.0692,0.1219 0.1967,0.196 0.3339,0.194 h 4.9618 c 0.1372,0.002 0.2647,-0.0721 0.3339,-0.194 0.0691,-0.1218 0.0691,-0.2726 0,-0.3944 -0.0692,-0.1219 -0.1967,-0.196 -0.3339,-0.194 z m 0.9322,2.608 c -0.1372,-0.002 -0.2647,0.0721 -0.3339,0.194 -0.0691,0.1218 -0.0691,0.2726 0,0.3944 0.0692,0.1219 0.1967,0.196 0.3339,0.194 h 4.8945 c 0.1371,0.002 0.2647,-0.0721 0.3338,-0.194 0.0692,-0.1218 0.0692,-0.2726 0,-0.3944 -0.0691,-0.1219 -0.1967,-0.196 -0.3338,-0.194 z m 0.8257,2.608 c -0.1371,-0.002 -0.2647,0.0721 -0.3338,0.194 -0.0692,0.1218 -0.0692,0.2726 0,0.3944 0.0691,0.1219 0.1967,0.196 0.3338,0.194 h 4.8507 c 0.1371,0.002 0.2647,-0.0721 0.3338,-0.194 0.0692,-0.1218 0.0692,-0.2726 0,-0.3944 -0.0691,-0.1219 -0.1967,-0.196 -0.3338,-0.194 z M -82.4,-22.168 V 8.476 l 10.1415,10.432 v -30.644 z m 35.9026,2.2168 c -0.1371,-0.002 -0.2647,0.0721 -0.3339,0.194 -0.0691,0.1218 -0.0691,0.2726 0,0.3944 0.0692,0.1219 0.1968,0.196 0.3339,0.194 h 4.793 c 0.1371,0.002 0.2647,-0.0721 0.3338,-0.194 0.0692,-0.1218 0.0692,-0.2726 0,-0.3944 -0.0691,-0.1219 -0.1967,-0.196 -0.3338,-0.194 z m 0.6393,2.608 c -0.1371,-0.002 -0.2647,0.0721 -0.3339,0.194 -0.0691,0.1218 -0.0691,0.2726 0,0.3944 0.0692,0.1219 0.1968,0.196 0.3339,0.194 h 4.7462 c 0.1371,0.002 0.2647,-0.0721 0.3338,-0.194 0.0692,-0.1218 0.0692,-0.2726 0,-0.3944 -0.0691,-0.1219 -0.1967,-0.196 -0.3338,-0.194 z m 0.5519,2.608 c -0.1372,-0.002 -0.2647,0.0721 -0.3339,0.194 -0.0691,0.1218 -0.0691,0.2726 0,0.3944 0.0692,0.1219 0.1967,0.196 0.3339,0.194 h 4.7098 c 0.1371,0.002 0.2647,-0.0721 0.3338,-0.194 0.0692,-0.1218 0.0692,-0.2726 0,-0.3944 -0.0691,-0.1219 -0.1967,-0.196 -0.3338,-0.194 z m 0.465,2.608 c -0.1372,-0.002 -0.2647,0.0721 -0.3339,0.194 -0.0691,0.1218 -0.0691,0.2726 0,0.3944 0.0692,0.1219 0.1967,0.196 0.3339,0.194 h 4.6835 c 0.1372,0.002 0.2647,-0.0721 0.3339,-0.194 0.0691,-0.1218 0.0691,-0.2726 0,-0.3944 -0.0692,-0.1219 -0.1967,-0.196 -0.3339,-0.194 z m 0.3786,2.608 c -0.1372,-0.002 -0.2648,0.07213 -0.3339,0.19399 -0.0692,0.12185 -0.0692,0.27257 0,0.39442 0.0691,0.12186 0.1967,0.19599 0.3339,0.19399 h 4.6431 c 0.1372,0.002 0.2647,-0.07213 0.3339,-0.19399 0.0691,-0.12185 0.0691,-0.27257 0,-0.39442 -0.0692,-0.12186 -0.1967,-0.19599 -0.3339,-0.19399 z m 0.2785,2.608 c -0.1372,-0.002 -0.2647,0.07213 -0.3339,0.19399 -0.0691,0.12185 -0.0691,0.27257 0,0.39442 0.0692,0.12186 0.1967,0.19599 0.3339,0.19399 h 4.6211 c 0.1372,0.002 0.2648,-0.07213 0.3339,-0.19399 0.0691,-0.12185 0.0691,-0.27257 0,-0.39442 -0.0691,-0.12186 -0.1967,-0.19599 -0.3339,-0.19399 z m 0.1889,2.608 c -0.1371,-0.002 -0.2647,0.07213 -0.3338,0.19399 -0.0692,0.12185 -0.0692,0.27257 0,0.39442 0.0691,0.12186 0.1967,0.19599 0.3338,0.19399 h 4.6142 c 0.1372,0.002 0.2647,-0.07213 0.3339,-0.19399 0.0691,-0.12185 0.0691,-0.27257 0,-0.39442 -0.0692,-0.12186 -0.1967,-0.19599 -0.3339,-0.19399 z m 0.1052,2.608 c -0.1371,-0.002 -0.2647,0.07213 -0.3338,0.19399 -0.0692,0.12185 -0.0692,0.27257 0,0.39442 0.0691,0.121862 0.1967,0.195985 0.3338,0.19399 h 4.5915 c 0.1371,0.001995 0.2647,-0.072128 0.3338,-0.19399 0.0692,-0.12185 0.0692,-0.27257 0,-0.39442 -0.0691,-0.12186 -0.1967,-0.19599 -0.3338,-0.19399 z m 0.0221,2.608 c -0.1372,-0.001995 -0.2647,0.072128 -0.3339,0.19399 -0.0691,0.12185 -0.0691,0.27257 0,0.39442 0.0692,0.12186 0.1967,0.19599 0.3339,0.19399 h 4.5694 c 0.1371,0.002 0.2647,-0.07213 0.3338,-0.19399 0.0692,-0.12185 0.0692,-0.27257 0,-0.39442 -0.0691,-0.121862 -0.1967,-0.195985 -0.3338,-0.19399 z m -0.0614,2.608 c -0.1372,-0.002 -0.2647,0.07213 -0.3339,0.19399 -0.0691,0.12185 -0.0691,0.27257 0,0.39442 0.0692,0.12186 0.1967,0.19599 0.3339,0.19399 h 4.6159 c 0.1372,0.002 0.2647,-0.07213 0.3339,-0.19399 0.0691,-0.12185 0.0691,-0.27257 0,-0.39442 -0.0692,-0.12186 -0.1967,-0.19599 -0.3339,-0.19399 z m -0.1441,2.608 c -0.1372,-0.002 -0.2647,0.07213 -0.3339,0.19399 -0.0691,0.12185 -0.0691,0.27257 0,0.39442 0.0692,0.12186 0.1967,0.19599 0.3339,0.19399 h 4.6204 c 0.1371,0.002 0.2647,-0.07213 0.3338,-0.19399 0.0692,-0.12185 0.0692,-0.27257 0,-0.39442 C -39.1883,6.20093 -39.3159,6.1268 -39.453,6.1288 Z M -44.3,8.7368 c -0.1371,-0.002 -0.2647,0.07213 -0.3338,0.19399 -0.0692,0.12185 -0.0692,0.27257 0,0.39442 0.0691,0.12186 0.1967,0.19599 0.3338,0.19399 h 4.634 c 0.1372,0.002 0.2648,-0.07213 0.3339,-0.19399 0.0691,-0.12185 0.0691,-0.27257 0,-0.39442 C -39.4012,8.80893 -39.5288,8.7348 -39.666,8.7368 Z m -0.3194,2.608 c -0.1371,-0.002 -0.2647,0.0721 -0.3338,0.194 -0.0692,0.1218 -0.0692,0.2726 0,0.3944 0.0691,0.1219 0.1967,0.196 0.3338,0.194 h 4.6672 c 0.1372,0.002 0.2647,-0.0721 0.3339,-0.194 0.0691,-0.1218 0.0691,-0.2726 0,-0.3944 -0.0692,-0.1219 -0.1967,-0.196 -0.3339,-0.194 z m -0.4036,2.608 c -0.1371,-0.002 -0.2647,0.0721 -0.3338,0.194 -0.0692,0.1218 -0.0692,0.2726 0,0.3944 0.0691,0.1219 0.1967,0.196 0.3338,0.194 h 4.7051 c 0.1372,0.002 0.2647,-0.0721 0.3339,-0.194 0.0691,-0.1218 0.0691,-0.2726 0,-0.3944 -0.0692,-0.1219 -0.1967,-0.196 -0.3339,-0.194 z m -0.485,2.608 c -0.1371,-0.002 -0.2647,0.0721 -0.3339,0.194 -0.0691,0.1218 -0.0691,0.2726 0,0.3944 0.0692,0.1219 0.1968,0.196 0.3339,0.194 h 4.7353 c 0.1371,0.002 0.2647,-0.0721 0.3338,-0.194 0.0692,-0.1218 0.0692,-0.2726 0,-0.3944 -0.0691,-0.1219 -0.1967,-0.196 -0.3338,-0.194 z M -82.4,18.908 v 30.644 l 10.1415,10.432 V 29.34 Z m 36.3258,0.2608 c -0.1372,-0.002 -0.2648,0.0721 -0.3339,0.194 -0.0692,0.1218 -0.0692,0.2726 0,0.3944 0.0691,0.1219 0.1967,0.196 0.3339,0.194 h 4.7736 c 0.1372,0.002 0.2647,-0.0721 0.3339,-0.194 0.0691,-0.1218 0.0691,-0.2726 0,-0.3944 -0.0692,-0.1219 -0.1967,-0.196 -0.3339,-0.194 z m -0.6478,2.608 c -0.1371,-0.002 -0.2647,0.0721 -0.3338,0.194 -0.0692,0.1218 -0.0692,0.2726 0,0.3944 0.0691,0.1219 0.1967,0.196 0.3338,0.194 h 4.8202 c 0.1372,0.002 0.2648,-0.0721 0.3339,-0.194 0.0691,-0.1218 0.0691,-0.2726 0,-0.3944 -0.0691,-0.1219 -0.1967,-0.196 -0.3339,-0.194 z m -0.7289,2.608 c -0.1371,-0.002 -0.2647,0.0721 -0.3338,0.194 -0.0692,0.1218 -0.0692,0.2726 0,0.3944 0.0691,0.1219 0.1967,0.196 0.3338,0.194 h 4.8737 c 0.1372,0.002 0.2647,-0.0721 0.3339,-0.194 0.0691,-0.1218 0.0691,-0.2726 0,-0.3944 -0.0692,-0.1219 -0.1967,-0.196 -0.3339,-0.194 z m -0.8109,2.608 c -0.1371,-0.002 -0.2647,0.0721 -0.3338,0.194 -0.0692,0.1218 -0.0692,0.2726 0,0.3944 0.0691,0.1219 0.1967,0.196 0.3338,0.194 h 4.9331 c 0.1372,0.002 0.2648,-0.0721 0.3339,-0.194 0.0692,-0.1218 0.0692,-0.2726 0,-0.3944 -0.0691,-0.1219 -0.1967,-0.196 -0.3339,-0.194 z m -0.8925,2.608 c -0.1372,-0.002 -0.2648,0.0721 -0.3339,0.194 -0.0691,0.1218 -0.0691,0.2726 0,0.3944 0.0691,0.1219 0.1967,0.196 0.3339,0.194 h 4.9942 c 0.1372,0.002 0.2647,-0.0721 0.3339,-0.194 0.0691,-0.1218 0.0691,-0.2726 0,-0.3944 -0.0692,-0.1219 -0.1967,-0.196 -0.3339,-0.194 z m -0.9751,2.608 c -0.1371,-0.002 -0.2647,0.0721 -0.3338,0.194 -0.0692,0.1218 -0.0692,0.2726 0,0.3944 0.0691,0.1219 0.1967,0.196 0.3338,0.194 h 5.051 c 0.1371,0.002 0.2647,-0.0721 0.3339,-0.194 0.0691,-0.1218 0.0691,-0.2726 0,-0.3944 -0.0692,-0.1219 -0.1968,-0.196 -0.3339,-0.194 z m -1.0574,2.608 c -0.1372,-0.002 -0.2648,0.0721 -0.3339,0.194 -0.0692,0.1218 -0.0692,0.2726 0,0.3944 0.0691,0.1219 0.1967,0.196 0.3339,0.194 h 5.1138 2e-4 8e-4 0.005 c 0.2059,-2e-4 0.3743,-0.1689 0.3799,-0.3807 0.0056,-0.2117 -0.1537,-0.3896 -0.3594,-0.4012 -0.0075,-2e-4 -0.015,-2e-4 -0.0225,0 h -0.004 z m -1.141,2.608 c -0.1371,-0.002 -0.2647,0.0721 -0.3338,0.194 -0.0692,0.1218 -0.0692,0.2726 0,0.3944 0.0691,0.1219 0.1967,0.196 0.3338,0.194 h 5.1827 c 0.1372,0.002 0.2647,-0.0721 0.3339,-0.194 0.0691,-0.1218 0.0691,-0.2726 0,-0.3944 -0.0692,-0.1219 -0.1967,-0.196 -0.3339,-0.194 z m -1.2246,2.608 c -0.1371,-0.002 -0.2647,0.0721 -0.3338,0.194 -0.0692,0.1218 -0.0692,0.2726 0,0.3944 0.0691,0.1219 0.1967,0.196 0.3338,0.194 h 5.2562 c 0.1372,0.002 0.2648,-0.0721 0.3339,-0.194 0.0691,-0.1218 0.0691,-0.2726 0,-0.3944 -0.0691,-0.1219 -0.1967,-0.196 -0.3339,-0.194 z m -1.1567,2.608 c -0.1372,-0.002 -0.2648,0.0721 -0.3339,0.194 -0.0692,0.1218 -0.0692,0.2726 0,0.3944 0.0691,0.1219 0.1967,0.196 0.3339,0.194 h 5.1819 c 0.1371,0.002 0.2647,-0.0721 0.3339,-0.194 0.0691,-0.1218 0.0691,-0.2726 0,-0.3944 -0.0692,-0.1219 -0.1968,-0.196 -0.3339,-0.194 z m 1.6249,2.608 c -0.1371,-0.002 -0.2647,0.0721 -0.3338,0.194 -0.0692,0.1218 -0.0692,0.2726 0,0.3944 0.0691,0.1219 0.1967,0.196 0.3338,0.194 h 2.2442 0.0159 c 0.1371,0.002 0.2647,-0.0721 0.3338,-0.194 0.0692,-0.1218 0.0692,-0.2726 0,-0.3944 -0.0691,-0.1219 -0.1967,-0.196 -0.3338,-0.194 H -50.84 Z M -82.4,59.9781 V 86.064 l 10.1415,-10.432 v -5.3161 z"
       id="path373"
       style="display:inline"
       inkscape:label="layer-6" />
    <path
       fill="#4444ff"
       d="m -17.8746,-31.5568 c 1.1409,0 3.5895,-0.1612 4.0566,0.5216 2.4086,3.5208 4.31614,7.06 7.85971,8.6064 0.74725,0.3261 1.30042,2.8559 0.25353,3.3904 -4.87024,2.4866 -6.86674,-5.7499 -8.11324,-9.2584 -0.9251,-2.6039 -3.4296,-2.131 -3.9298,-2.2168 -0.7606,-0.1304 -0.4675,-1.0432 -0.1268,-1.0432 z m -6.6758,7.4629 c 1.1409,0 3.5895,-0.1612 4.0566,0.5216 2.4086,3.5208 4.3161,7.06 7.8597,8.6064 0.7472,0.3261 1.3004,2.8559 0.2535,3.3904 -4.8703,2.48667 -6.8667,-5.7499 -8.1132,-9.2584 -0.9251,-2.6039 -3.4297,-2.131 -3.9298,-2.2168 -0.7607,-0.1304 -0.4675,-1.0432 -0.1268,-1.0432 z m -6.3385,6.52 c 1.141,0 3.5895,-0.1612 4.0566,0.5216 2.4087,3.5208 4.3162,7.06005 7.8597,8.60644 0.7473,0.32609 1.3004,2.85588 0.2536,3.3904 -4.8703,2.48663 -6.8668,-5.74994 -8.1133,-9.25844 -0.9251,-2.6039 -3.4296,-2.131 -3.9298,-2.2168 -0.7606,-0.1304 -0.4674,-1.0432 -0.1268,-1.0432 z m -4.4483,6.5093 c 0.9608,0.0245 1.8959,0.1369 2.1665,0.5323 2.4086,3.52083 4.3161,7.06004 7.8597,8.60643 0.7472,0.3261 1.3004,2.855896 0.2535,3.39041 -4.8703,2.48663 -6.8667,-5.74994 -8.1132,-9.25841 -0.4499,-1.26631 -1.2733,-1.80497 -2.0581,-2.03409 m 0.5306,12.31411 c 0.8894,0.87131 1.8801,1.59802 3.0487,2.10799 0.7473,0.32609 1.3004,2.85589 0.2536,3.3904 -1.3792,0.70417 -2.5279,0.54842 -3.4944,-0.11636 M 5.98963,-93.888 c 0,1.4404 -0.77329,2.608 -1.7272,2.608 -0.45808,0 -0.8974,-0.2748 -1.22132,-0.7639 -0.32391,-0.4891 -0.50588,-1.1524 -0.50588,-1.8441 0,-0.6917 0.18197,-1.355 0.50588,-1.8441 0.32392,-0.4891 0.76324,-0.7639 1.22132,-0.7639 0.95391,0 1.7272,1.1676 1.7272,2.608 z m 20.63167,0.5876 c 0,0.7018 -0.1669,1.3748 -0.4641,1.8711 -0.2972,0.4962 -0.7002,0.775 -1.1205,0.775 -0.8751,0 -1.5846,-1.1847 -1.5846,-2.6461 0,-1.4613 0.7095,-2.646 1.5846,-2.646 0.4203,0 0.8233,0.2788 1.1205,0.775 0.2972,0.4962 0.4641,1.1693 0.4641,1.871 z m 22.7282,40.3966 c -2.1563,-4.8669 -3.7872,-9.9945 -4.9337,-15.3136 l -2.4187,-0.5943 -0.4606,0.6856 c -1.0743,1.5993 -2.2076,3.1096 -3.4024,4.5267 0.6497,10.7971 1.316,21.7626 1.9071,30.9968 2.4647,-7.1241 5.6228,-13.9193 9.3083,-20.3012 z m 13.3502,-10.2136 6.9969,1.9436 m -6.9969,-1.9436 c 0.445,3.5232 3.854,10.1101 6.9651,13.8441 l 0.0318,-11.9005 m -134.657,22.8362 c -0.5512,0.987 -1.1225,1.6537 -1.6787,1.8396 -1.9062,0.6374 -3.084,-1.3211 -3.084,-1.3211 l 0.0099,64.7963 c 3.0395,2.3412 5.7945,4.8354 8.3741,7.489 10.4081,-21.8584 12.7599,-46.4763 -3.6213,-72.8038 z M -69.7231,79.544 -83.6677,93.888 m 46.2109,-115.6881 17.9528,-18.7553 2.6406,2.9708 c -0.1366,-0.0116 -0.2728,-0.0183 -0.4083,-0.0203 -0.1644,-0.0024 -0.3278,0.0023 -0.4897,0.0138 -1.2955,0.092 -2.4958,0.6242 -3.3705,1.524 -1.4635,1.5054 -1.9257,3.9483 -1.0585,6.2182 -0.7515,-0.2424 -1.5143,-0.3314 -2.2467,-0.2794 -1.2955,0.0921 -2.496,0.6243 -3.3708,1.5241 -1.2259,1.261 -1.7485,3.1799 -1.3766,5.1039 -0.5357,-0.1096 -1.0711,-0.1449 -1.5911,-0.108 -1.2954,0.0921 -2.496,0.6243 -3.3707,1.5241 -1.2192,1.254 -1.7429,3.1588 -1.3828,5.0721 -0.036,-0.0078 -0.0718,-0.0174 -0.1077,-0.0245 -0.1243,-0.0264 -0.2508,-0.0399 -0.3776,-0.0405 -0.1103,-3e-4 -0.2185,0.0089 -0.3239,0.0271 z M 57.0459,-62.592 c 0,0.3458 -0.1336,0.6775 -0.3713,0.9221 -0.2377,0.2445 -0.5602,0.3819 -0.8964,0.3819 -0.3362,0 -0.6586,-0.1374 -0.8964,-0.3819 -0.2377,-0.2446 -0.3713,-0.5763 -0.3713,-0.9221 0,-0.3458 0.1336,-0.6775 0.3713,-0.9221 0.2378,-0.2445 0.5602,-0.3819 0.8964,-0.3819 0.3362,0 0.6587,0.1374 0.8964,0.3819 0.2377,0.2446 0.3713,0.5763 0.3713,0.9221 z m 3.8031,8.476 c 0,0.3458 -0.1336,0.6775 -0.3713,0.9221 -0.2378,0.2445 -0.5602,0.3819 -0.8964,0.3819 -0.3362,0 -0.6587,-0.1374 -0.8964,-0.3819 -0.2378,-0.2446 -0.3713,-0.5763 -0.3713,-0.9221 0,-0.3458 0.1335,-0.6775 0.3713,-0.9221 0.2377,-0.2445 0.5602,-0.3819 0.8964,-0.3819 0.3362,0 0.6586,0.1374 0.8964,0.3819 0.2377,0.2446 0.3713,0.5763 0.3713,0.9221 z m 5.7046,9.128 c 0,0.3458 -0.1336,0.6775 -0.3713,0.9221 -0.2378,0.2445 -0.5602,0.3819 -0.8964,0.3819 -0.3362,0 -0.6587,-0.1374 -0.8964,-0.3819 -0.2377,-0.2446 -0.3713,-0.5763 -0.3713,-0.9221 0,-0.3458 0.1336,-0.6775 0.3713,-0.9221 0.2377,-0.2445 0.5602,-0.3819 0.8964,-0.3819 0.3362,0 0.6586,0.1374 0.8964,0.3819 0.2377,0.2446 0.3713,0.5763 0.3713,0.9221 z"
       id="path377"
       style="display:inline"
       inkscape:label="layer-9" />
    <path
       fill="#000000"
       d="m -65.92,7.4328 c -0.5143,-0.00743 -0.5143,0.78988 0,0.7824 h 7.6061 c 0.5143,0.00743 0.5143,-0.78988 0,-0.7824 z m -1.2677,3.26 c -0.5143,-0.0074 -0.5143,0.7899 0,0.7824 h 10.7753 c 0.5143,0.0074 0.5143,-0.7899 0,-0.7824 z m -2.5354,3.5208 v 1.5648 h 14.9582 l 0.2944,-1.5648 z m 0,3.26 v 1.5648 h 14.2222 l 0.3312,-1.5648 z m 0,3.26 v 1.5648 h 13.2287 l 0.4784,-1.5648 z m 0,3.26 v 1.5648 h 12.2719 l 0.4416,-1.5648 z m 2.2262,4.8248 h 8.6842 l 0.6256,-1.5648 h -11.0761 z m 3.7901,3.26 h 3.5326 l 0.6256,-1.5648 h -5.8877 z M 29.9045,-114.099 c -2.608,-0.06 -5.2214,-0.098 -7.8404,-0.109 -18.33292,-0.082 -36.9449,1.11 -55.9549,4.761 l -3.2824,0.581 4.2131,4.546 c 21.2787,-4.086 42.11559,-5.041 62.7507,-4.564 l 4.4827,-5.008 z m 6.1591,61.8258 c -12.2905,10.531 -29.85917,13.3653 -47.8046,8.9612 l 5.54175,6.3812 c 15.67973,2.3527 30.96455,-0.5146 42.71755,-9.1266 z m -14.9017,47.08646 -47.2227,-54.71696 -4.6167,0.5261 49.1729,56.97672 z m -40.6659,-35.36866 -17.9528,18.7553 -1.2765,-4.5442 16.5617,-17.302 z m 48.3714,27.2051 c -0.5612,-0.5897 -1.3402,-1.4153 -2.2246,-2.3981 l 6.4952,-7.2144 c 0.8303,0.9335 1.6753,1.8704 2.458,2.7247 m -93.5313,58.7757 c 12.03,-24.3906 14.8294,-52.8832 -4.9458,-82.5696 -0.6312,2.0345 -1.2049,4.2328 -2.0561,5.6412 16.358,26.3807 14.0062,50.9986 3.6861,72.8376 z"
       id="path381"
       style="display:inline"
       inkscape:label="layer-12" />
    <path
       id="path600"
       style="display:inline"
       d="m -13.4502,-47.882 c 0.2552,0.0684 2.656,-1.7488 2.7244,-2.0038 -0.0684,0.255 1.10211,3.029 1.35729,3.0974 -0.25518,-0.0684 -2.65609,1.7488 -2.72439,2.0038 0.0683,-0.255 -1.1021,-3.029 -1.3573,-3.0974 z m 5.9182,1.484 c 0.26013,0.0459 2.49354,-1.9736 2.53943,-2.2336 -0.04589,0.26 1.36201,2.9213 1.62201,2.9672 -0.26,-0.0459 -2.49342,1.9736 -2.53931,2.2336 0.04589,-0.26 -1.362,-2.9213 -1.62213,-2.9672 z m 6.18772,0.9651 c 0.26304,0.0231 2.311885,-2.1834 2.334957,-2.4465 -0.023072,0.2631 1.611483,2.7916 1.874533,2.8147 -0.26305,-0.0231 -2.311887,2.1834 -2.334959,2.4465 0.023072,-0.2631 -1.611491,-2.7916 -1.874531,-2.8147 z m 6.33034,0.4449 c 0.26418,0 2.11285,-2.3765 2.11285,-2.6406 0,0.2641 1.84868,2.6406 2.11286,2.6406 -0.26418,0 -2.11286,2.3765 -2.11286,2.6406 0,-0.2641 -1.84867,-2.6406 -2.11285,-2.6406 z m 6.47684,-0.4312 c 0.2627,-0.0275 1.8528,-2.5843 1.8251,-2.8469 0.0277,0.2626 2.1147,2.4328 2.3773,2.4053 -0.2626,0.0275 -1.8527,2.5843 -1.8251,2.8469 -0.0276,-0.2626 -2.1146,-2.4328 -2.3773,-2.4053 z m 6.2628,-1.1442 c 0.2563,-0.0639 1.4751,-2.817 1.4112,-3.0732 0.0639,0.2562 2.4327,2.1151 2.689,2.0512 -0.2563,0.0639 -1.4751,2.8169 -1.4112,3.0731 -0.0639,-0.2562 -2.4327,-2.115 -2.689,-2.0511 z m 5.9225,-1.8061 c 0.2449,-0.0989 1.0686,-2.9948 0.9697,-3.2397 0.0989,0.2449 2.7033,1.756 2.9482,1.657 -0.2449,0.099 -1.0685,2.9949 -0.9696,3.2397 -0.0989,-0.2448 -2.7034,-1.7559 -2.9483,-1.657 z m 5.3843,-3.1253 c 0.2374,-0.1157 0.8571,-3.0621 0.7412,-3.2994 0.1159,0.2373 2.8193,1.5631 3.0568,1.4473 -0.2375,0.1158 -0.8571,3.0621 -0.7412,3.2994 -0.1159,-0.2373 -2.8194,-1.563 -3.0568,-1.4473 z"
       fill="#ff0000"
       inkscape:label="layer-14" />
    <path
       d="M -8.45128,0 C -7.39487,0 0,-9.50616 0,-10.5624 0,-9.50616 7.39487,0 8.45128,0 7.39487,0 0,9.50616 0,10.5624 0,9.50616 -7.39487,0 -8.45128,0 Z"
       id="path242"
       fill="#ff0000"
       inkscape:label="layer-15"
       style="display:inline" />
    <path
       d="M -8.45128,0 C -7.39487,0 0,-9.50616 0,-10.5624 0,-9.50616 7.39487,0 8.45128,0 7.39487,0 0,9.50616 0,10.5624 0,9.50616 -7.39487,0 -8.45128,0 Z"
       id="path632"
       stroke="#4444ff"
       stroke-width="0.760554"
       stroke-linecap="round;stroke-linejoin:round"
       style="display:inline"
       fill="none"
       inkscape:label="layer-16" />
    <path
       id="path353"
       style="display:inline"
       inkscape:label="layer-17"
       d="m -1.5e-4,-16.9212 v 6.613122 M -1.90169,-14.9349 v 7.3362897 M -3.80322,-12.9483 v 7.8903042 M -5.70476,-10.9618 v 8.2808355 M -7.60629,-8.97519 v 8.26231859 m 5.7046,8.27066961 V 15.7529 M -3.80322,5.0049628 V 13.5496 M -5.70476,2.6974022 V 11.3463 M -7.60629,0.63532652 V 9.14302 M -69.7231,-37.8222 V 79.544 L -82.4,92.584 m 12.6769,-134.5583 v 1.814 m 0,-6.1274 v 2.2574 m 0,-6.853 v 1.935 m 0,-29.6294 v 25.7191 M -82.4,-130.4 l 12.6769,13.04 v 25.6406 m 0.0198,118.7481 c 13.6906,10.3469 21.7709,24.8695 25.2886,41.1952 M -56.1208,-59.2979 c 30.1807,39.3264 24.8952,80.8995 6.7663,112.189 M -36.9947,21.7269 0.469453,-17.4121 M -36.0959,-59.7804 15.8289,0.384863 M -9.50783,-6.98863 V 6.93973 M -11.4094,-5.00206 v 9.73847 m -1.9015,-7.75191 v 5.54862 m -1.9015,-3.56206 V 0.329821 M -30.6775,-59.3776 18.4954,-2.40088 M -26.0608,-59.9037 21.1619,-5.18674 M -35.6475,14.4418 -2.19814,-20.5029 m -35.25866,-1.2972 17.9528,-18.7553 m -19.2293,14.2111 16.5617,-17.302 m -41.9167,-10.2045 14.9125,-10.2264 m 85.9514,-6.28 32.921,9.1834 m -40.2801,-0.8261 c -5.2398,4.5141 -11.2597,7.2846 -17.8787,8.3059 -9.78593,1.51 -20.94809,-0.8392 -32.795,-7.3615 m -3.7129,0.859 c 13.1223,7.7996 25.722377,10.8037 36.8843,9.0815 10.9738,-1.6932 20.4838,-7.994 27.5363,-18.4935 m -14.0447,7.5158 c -4.2925,3.0991 -9.0597,5.0196 -14.2441,5.8195 -8.66006,1.3362 -18.66479,-0.5498 -29.4735,-6.1471 m 6.5708,19.1083 c 17.94543,4.4041 35.5141,1.5698 47.8046,-8.9612 m -0.4573,-8.4892 2.1759,35.8115 m 0.3455,-38.6503 c 0.6561,10.7989 1.3224,21.7644 1.884,31.007 m -46.21095,-4.3366 c 15.67973,2.3527 30.96455,-0.5146 42.71755,-9.1266 m -22.5569,9.1448 c 0.9931,3.2254 2.9901,9.1646 5.0538,12.1366 2.4925,3.5895 7.7295,9.1954 9.8522,11.4257 M 17.348,-37.5189 c 1.0491,3.3259 2.9138,8.6701 4.8364,11.4389 1.5801,2.2754 4.263,5.3612 6.5564,7.8837 M 20.67,-38.3427 c 1.0711,3.3407 2.8511,8.3196 4.6836,10.9587 1.3746,1.9795 3.5838,4.5723 5.6451,6.8739 m -7.085,-18.905 c 1.078,3.3355 2.8185,8.1483 4.6092,10.7271 1.7004,2.4488 4.6782,5.8362 7.0731,8.4499 M -62.8811,-44.032 c 19.7752,29.6864 16.9758,58.179 4.9458,82.5696 M 69.7136,-37.0979 C 62.9661,-43.363 58.1221,-50.9171 54.9002,-59.4468 54.105,-61.5522 53.4086,-63.717 52.8067,-65.9366 m 16.7669,33.8624 C 58.6559,-41.2012 51.9246,-53.2847 48.5958,-67.023 m 14.1039,3.9056 c 0.445,3.5232 3.854,10.1101 6.9651,13.8441 M -72.2585,-99.104 -82.4,-109.536 m 0,-5.216 10.1415,10.432 m 0,10.432 L -82.4,-104.32 M -72.2585,-58.028 -82.4,-68.46 m 0,-5.216 10.1415,10.432 m 0,46.292 L -82.4,-27.384 m 0,-5.216 10.1415,10.432 m 0,10.432 L -82.4,-22.168 M -72.2585,24.124 -82.4,13.692 m 0,-5.216 10.1415,10.432 m 0,10.432 L -82.4,18.908 M -72.2585,65.2 -82.4,54.768 m 0,-5.216 10.1415,10.432 m 0,10.432 L -82.4,59.984 m 10.1415,-97.0403 V 75.632 L -82.4,86.064 m 10.1415,-163.7548 v 23.8244 M -82.4,-123.88 l 10.1415,10.432 v 22.293 m 64.9896,75.8681 -12.6769,-14.344 c -2.5354,-3.912 1.2677,-7.824 5.0708,-5.216 l 12.67686,14.344 M -14.1319,-8.03573 -26.6216,-22.168 c -2.5354,-3.912 1.2676,-7.824 5.0707,-5.216 l 12.44781,14.0848 M -20.4246,-1.46395 -32.9601,-15.648 c -2.5354,-3.912 1.2677,-7.824 5.0708,-5.216 l 12.5002,14.14411 m -20.6064,-8.39581 c 0.5728,0.1132 1.1703,0.362 1.7677,0.7717 l 12.5356,14.184141 m -5.0234,5.269599 -7.976,-9.02493 m 0.0653,2.81225 6.639,7.51206 m -5.0571,5.23148 -1.9769,-2.23683 m 18.1579,-46.98837 c -0.1366,-0.0116 -0.2728,-0.0183 -0.4083,-0.0203 -0.1644,-0.0024 -0.3278,0.0023 -0.4897,0.0138 -1.2955,0.092 -2.4958,0.6242 -3.3705,1.524 -1.4635,1.5054 -1.9257,3.9483 -1.0585,6.2182 -0.7515,-0.2424 -1.5143,-0.3314 -2.2467,-0.2794 -1.2955,0.0921 -2.496,0.6243 -3.3708,1.5241 -1.2259,1.261 -1.7485,3.1799 -1.3766,5.1039 -0.5357,-0.1096 -1.0711,-0.1449 -1.5911,-0.108 -1.2954,0.0921 -2.496,0.6243 -3.3707,1.5241 -1.2192,1.254 -1.7429,3.1588 -1.3828,5.0721 -0.036,-0.0078 -0.0718,-0.0174 -0.1077,-0.0245 -0.1243,-0.0264 -0.2508,-0.0399 -0.3776,-0.0405 -0.1103,-3e-4 -0.2185,0.0089 -0.3239,0.0271 m 69.4884,-5.8866 -6.5034,7.1675 M 25.218,-35.6777 c 3.8586,-1.8573 7.7052,-3.9036 11.5361,-6.1943 m -10.1038,9.6793 c 3.464,-1.6534 6.9185,-3.4571 10.3607,-5.4513 m -8.6063,8.7814 c 2.9613,-1.4097 5.9157,-2.9288 8.8615,-4.5825 m -6.5344,7.6392 c 2.267,-1.0875 4.5298,-2.2399 6.7879,-3.4684 m -4.254,6.4232 c 1.5038,-0.7296 3.0057,-1.4883 4.5055,-2.2793 m -3.549,6.2947 c 0.795,-0.375 1.5896,-0.7577 2.3836,-1.1487 m -11.4967,-15.9948 5.3153,-4.4448 -6.3827,1.3857 m 2.5399,6.6779 5.7443,-4.8036 -6.6795,1.4502 m 2.693,6.7336 5.8881,-4.9238 -6.6796,1.4502 m 3.0339,6.4485 5.5472,-4.6387 -6.6796,1.4502 m 8.1902,1.8947 -6.2886,1.3653 m 1.6447,2.7601 4.6578,-3.895 m -0.3108,3.6445 -3.4563,0.7504 m 0.579,3.6512 2.3147,-1.9356 m -18.1776,-3.7102 -7.8273,-0.7596 6.3385,-2.608 m 4.0242,6.6276 -7.8273,-0.7596 5.8308,-2.3991 m 4.5319,6.4187 -7.8273,-0.7596 5.8685,-2.4146 m 4.4942,6.4342 -7.8273,-0.7596 6.0945,-2.5077 m 2.8411,6.4504 -7.0341,-0.6827 6.3384,-2.608 M 15.4498,-32.4492 c -5.79014,0.8402 -11.09472,1.4765 -16.2559,1.7334 m 16.2394,-1.7766 -7.82731,-0.7596 6.33841,-2.608 m 3.1012,7.3925 c -4.7615,0.7649 -9.63911,1.3225 -14.67236,1.6024 M 16.9778,-28.615 9.50752,-29.34 15.6769,-31.8784 m 3.4072,7.1971 c -4.3369,0.7188 -8.7689,1.2679 -13.32611,1.5937 l -0.04289,0.003 m 15.9068,1.6629 c -4.2687,0.7076 -8.6296,1.2507 -13.11126,1.5783 m 15.88726,1.6416 c -4.2628,0.7133 -8.6171,1.2634 -13.0915,1.5992 m 15.9488,1.6066 c -4.2828,0.7257 -8.6575,1.2875 -13.1531,1.6336 m 13.0485,1.9531 c -3.3685,0.526 -6.7959,0.9472 -10.2959,1.2387 m 6.2854,2.89617 c -1.1558,0.12786 -2.3193,0.24216 -3.4908,0.34197 m 5.1499,-2.00329 -1.9809,-0.19225 3.5042,-1.4418 m -91.2597,-27.821 c 16.358,26.3807 14.0062,50.9986 3.6861,72.8376 m -2.81,-88.2955 c 26.8031,34.4061 23.7558,68.7044 9.2297,96.6862 m 2.9444,4.8225 c 16.1715,-29.7547 20.1966,-67.5018 -8.2372,-104.2178 m -3.9222,2.7198 c 26.7884,34.3954 23.7411,68.6937 9.2635,96.7226 m -5.3032,-99.4571 c 28.3957,36.7307 24.3706,74.4778 8.2169,104.1667 M -69.7231,-37.816 c 0,0 1.1778,1.9554 3.084,1.318 1.9446,-0.6502 4.0752,-7.1782 3.8883,-10.446 -0.1861,-3.2544 -1.9015,-8.476 -1.9015,-9.128 0,-0.652 0.2419,-1.9157 0.2419,-4.5237 0,-3.912 -4.045,-5.9083 -4.3193,-0.3295 -0.0795,1.6159 0.2743,2.2452 0.9081,4.2012 m 0,0 c -0.0856,0.5935 -1.2677,1.956 -1.2677,2.608 0,2.608 1.0505,2.9743 1.0505,2.9743 M -82.4,-51.834 c 0,-0.6052 0.7012,-1.1857 1.9493,-1.6136 1.2481,-0.428 2.941,-0.6684 4.7061,-0.6684 1.7651,0 3.4579,0.2404 4.706,0.6684 1.2482,0.4279 1.9493,1.0084 1.9493,1.6136 0,0.6052 -0.7011,1.1857 -1.9493,1.6136 -1.2481,0.428 -2.9409,0.6684 -4.706,0.6684 -1.7651,0 -3.458,-0.2404 -4.7061,-0.6684 -1.2481,-0.4279 -1.9493,-1.0084 -1.9493,-1.6136 m 0,4.238 v 0 c 0,-0.9471 1.7629,-1.7595 4.2734,-2.1047 m 5.0868,-0.04 c 2.6746,0.3191 4.5844,1.1589 4.5844,2.1447 0,1.2603 -3.1216,2.282 -6.9723,2.282 -3.8507,0 -6.9723,-1.0217 -6.9723,-2.282 m 0,4.564 c 0,-0.6052 0.7012,-1.1857 1.9493,-1.6136 1.2481,-0.428 2.941,-0.6684 4.7061,-0.6684 1.7651,0 3.4579,0.2404 4.706,0.6684 1.2482,0.4279 1.9493,1.0084 1.9493,1.6136 0,0.6052 -0.7011,1.1857 -1.9493,1.6136 -1.2481,0.428 -2.9409,0.6684 -4.706,0.6684 -1.7651,0 -3.458,-0.2404 -4.7061,-0.6684 -1.2481,-0.4279 -1.9493,-1.0084 -1.9493,-1.6136 m 10.2925,1.9336 c 1.8039,0.3942 3.0182,1.1326 3.0182,1.9784 0,1.2603 -2.6959,2.282 -6.0215,2.282 -3.3256,0 -6.0215,-1.0217 -6.0215,-2.282 0,-0.7655 0.9946,-1.443 2.5207,-1.8569 m 5.257,-12.9626 -9.0454,-9.3045 m 0.0025,-26.7509 c 12.3643,-0.4236 23.7091,-4.0785 33.5913,-12.3691 -2.8419,12.2532 -9.9455,22.8906 -33.5694,27.2645 m -0.0211,-12.2861 c 10.2059,-0.3395 19.8859,-2.8483 28.6336,-8.2305 -1.3763,2.9139 -3.2298,5.6017 -5.8658,8.0258 -4.5758,4.2078 -11.6065,7.7178 -22.7327,9.8371 m 51.1489,-26.8768 c -8.5596,18.521 -7.1515,30.4046 -10.6212,34.866 -2.5354,3.26 -6.9723,3.912 -6.9723,0 0,-4.564 4.4242,-1.9072 4.4369,-1.304 m 15.2313,-33.938 c -8.773,18.7201 -7.5443,30.5615 -10.7944,35.242 -3.1692,4.564 -8.8738,3.912 -8.8738,0 m 21.7304,-35.585 c -8.9557,18.9139 -7.7783,30.8091 -10.9551,35.585 -8.2399,12.388 -13.9445,4.564 -13.9445,0 0,-9.78 11.4092,-6.52 10.7753,-1.304 m 16.1845,-34.62 c -9.1705,19.0859 -8.5829,30.7174 -11.1137,35.924 -2.5354,5.216 -9.8376,8.5555 -11.9889,6.3564 m 25.1428,-42.5674 c -9.3151,19.2561 -8.7089,30.9783 -11.2524,36.211 -2.5354,5.216 -8.1766,8.8849 -10.7753,7.172 m 24.0686,-43.671 c -9.4679,19.4167 -8.9969,30.9939 -11.0038,36.499 -1.9015,5.216 -8.1129,10.5044 -11.1633,7.824 m 24.2115,-44.614 c -9.599,19.6011 -8.6409,31.5255 -10.7587,37.018 -2.6774,6.944 -6.9171,11.2011 -10.4265,8.6082 m 23.2254,-45.9092 c -9.7495,19.7704 -8.8747,31.813 -10.6202,37.4721 -1.6869,5.4689 -6.1175,11.4037 -9.8198,9.0733 m 22.4518,-46.7684 c -9.8642,19.9026 -8.849,31.9951 -10.1209,37.8091 -1.0288,4.7029 -4.8855,12.0081 -9.4451,9.3233 m 21.579,-47.3564 c -9.9724,20.0418 -7.8438,32.8128 -9.6781,38.4892 -1.5831,4.8988 -4.9834,10.5611 -8.6585,9.294 m 20.3498,-48.0062 c -10.0993,20.1686 -7.6603,32.5059 -8.6259,38.4271 -0.8454,5.1839 -4.5759,9.9712 -8.6449,9.0796 M -8.87398,-107.58 c -10.14152,20.212 -6.65562,32.7065 -7.99722,38.5571 -0.8766,3.8229 -3.5595,8.9106 -7.2945,8.5608 M -6.97245,-107.58 c -10.14155,20.212 -5.09655,33.7211 -7.27675,39.2983 -1.8968,4.8523 -4.3688,6.5703 -6.5774,6.7759 m 49.0861,-47.3302 c 0.7039,2.592 2.1649,8.09 2.1649,9.08 0,1.304 -1.2677,5.216 -1.2677,7.172 0,1.956 -1.2677,9.128 -2.5354,12.388 -1.2677,3.26 -5.7046,11.736 -6.3384,13.04 -0.6339,1.304 -1.2435,5.159 -3.145,5.811 -1.9016,0.652 -6.3627,2.665 -8.26422,1.361 -1.90154,-1.304 -2.53538,-1.956 -3.80307,-1.956 -1.26769,0 -3.80307,0.652 -5.704605,0 -1.901535,-0.652 -10.775405,-1.956 -11.409205,-3.912 -0.5552,-1.7224 -1.2677,-2.608 -1.569,-4.931 M -6.3386,-97.8 c 4.85961,-2.135 8.39028,-6.944 17.1138,-1.304 v 0 l -0.6338,0.652 c -4.57878,-4.604 -10.453419,-2.377 -16.48,0.652 z m 36.1292,-1.304 c -4.437,-1.956 -5.7046,-3.912 -12.0431,0.652 v 0 c 3.8031,-1.956 8.4569,-3.336 12.0431,-0.652 z m -12.0431,0.652 c -0.7118,0.3646 -0.9201,2.7546 -0.6338,3.912 0.3125,1.2637 1.9015,6.52 1.9015,7.824 0,1.304 1.1326,6.805 1.1326,7.457 0,1.304 -2.4003,2.323 -4.3018,2.323 m -4.4369,-5.216 c -2.6379,0.2227 -4.80261,5.0972 1.181,4.0903 3.805,-0.6404 1.3543,-1.4823 -2.4487,-0.1783 m -4.43695,5.216 v 1.956 l 1.26769,-1.304 z m 13.94455,-0.652 -0.6338,1.304 -1.2677,-0.652 z m -13.3107,1.304 c 1.90153,0 3.8031,-1.304 4.4369,-1.304 0.6339,0 1.9015,1.304 2.5354,1.304 0.6338,0 1.9015,-1.304 2.5354,-1.304 0.6338,0 1.2677,0.652 1.9015,0.652 m -6.9723,3.912 c 1.2698,1.4125 5.0708,1.956 5.0708,-1.304 m -22.81845,-22.82 c 4.43692,0.652 10.14152,-3.912 15.21228,-3.912 m -10.14152,3.26 c -0.63384,1.956 6.9723,3.26 8.87383,1.956 1.90154,-1.304 2.53538,-0.652 2.53538,-0.652 m 8.35698,-0.6174 c 2.5354,0 6.6341,-2.9731 8.8739,-3.26 2.2398,-0.2869 2.5353,1.304 2.5353,1.304 m -11.5262,1.9214 c 2.5354,1.304 4.1923,2.608 6.6902,2.608 2.498,0 4.719,-1.956 4.719,-1.956 m 0.3472,-16.141 c 4.3185,7.207 2.0978,15.5422 2.1882,23.313 0.1112,2.1225 1.9015,1.304 2.5354,0.652 m -5.5942,-3.5335 c -1.6722,10.2816 8.1296,9.0159 8.1296,3.5335 0,-5.216 -5.0708,-3.26 -5.0708,-0.652 m -0.6338,4.564 c 0,5.868 2.5353,9.128 4.4369,5.868 m -8.4608,-6.1708 c -0.0138,11.499 12.0182,13.9293 10.9961,5.5188 -0.6338,-5.216 -6.3384,-2.608 -6.2565,-0.4334 m -6.4571,-0.9463 c 0.5048,6.4852 5.5428,9.5018 9.5444,7.8997 2.3659,-0.9472 2.7154,-2.3432 2.6781,-3.1863 m -13.9122,-1.3481 c 1.0361,5.5712 8.4219,8.9903 11.868,4.5344 m -13.0625,-2.2194 c 1.1701,5.3061 5.6608,7.6626 9.2962,6.2071 1.1887,-0.4942 2.2788,-1.4885 2.4704,-2.8205 m -12.8409,-1.3309 c 1.4106,4.7742 5.6439,6.8403 9.1028,5.4554 1.2778,-0.5116 1.9674,-1.1541 2.3256,-1.7697 m -12.5763,-1.3506 c 0.7794,4.8433 10.1495,7.4226 11.5411,2.4656 m 2.4961,-49.523 -4.3432,-0.101 c -2.608,-0.06 -5.2214,-0.098 -7.8404,-0.109 -18.33292,-0.082 -36.9449,1.11 -55.9549,4.761 l -3.2482,0.623 m -19.9676,-21.576 24.1465,26.08 c 21.2787,-4.086 42.11559,-5.041 62.7507,-4.564 L 49.5769,-130.4 m -72.1002,74.553 c 12.1858,6.4745 24.03932,8.9736 34.8136,7.3112 11.6737,-1.8012 21.8574,-8.5902 29.2462,-19.5903 l 0.4606,-0.6856"
       fill="none"
       stroke-width="0.77143"
       stroke="#4444ff"
       stroke-linejoin="round"
       stroke-linecap="round" />
    <path
       stroke="#4444ff"
       stroke-linecap="round"
       stroke-linejoin="round"
       stroke-width="0.385715"
       fill="none"
       d="m -71.6246,-53.464 c -0.5959,1.1377 -0.6576,2.2297 0,3.26 m 0.4703,0.8977 c -0.5959,1.1377 -0.6575,2.2297 0,3.26 m 0,1.304 c -0.5959,1.1377 -0.6575,2.2297 0,3.26 m 0,0.652 c -0.5959,1.1377 -0.6575,2.2297 0,3.26 M -65.92,-63.896 c 0,3.26 1.2677,3.912 1.2677,3.912 m -11.2916,7.4979 c -0.1434,0.3364 -0.1698,0.753 0,1.304 m 0,3.0024 c -0.1434,0.3364 -0.1698,0.7529 0,1.304 m 0,3.1916 c -0.1434,0.3364 -0.1698,0.753 0,1.304 m 0,3.2601 c -0.1434,0.3364 -0.1698,0.7529 0,1.304 m 0,-1.8048 c -0.1434,0.3364 -0.1698,0.7529 0,1.304 M 9.50752,-65.2 c 3.16918,-1.304 5.07078,-1.304 6.33848,-0.652 M 6.97214,-97.148 c -3.80307,-2.608 -7.726711,-0.9493 -11.40921,1.956 m 21.55077,0.652 c 3.1053,-3.9497 6.4494,-4.6894 8.8738,-3.26 m -20.59486,1.122 c 0.7351,0.5228 1.22147,1.431 1.22147,2.464 0,1.6204 -1.19687,2.934 -2.67329,2.934 -1.47641,0 -2.67328,-1.3136 -2.67328,-2.934 0,-0.4284 0.08366,-0.8354 0.23403,-1.2023 m 24.24813,-0.8529 c 0.8843,0.4432 1.5055,1.4884 1.5055,2.7072 0,1.6204 -1.0981,2.934 -2.4526,2.934 -1.3546,0 -2.4527,-1.3136 -2.4527,-2.934 0,-0.4977 0.1036,-0.9664 0.2864,-1.377 m 0.8158,5.918 c 1.4315,0.5175 3.3087,-0.0472 3.4315,-0.303 m -43.6212,25.4047 c 5.0161,3.0692 10.96805,5.9032 16.73745,5.8913 m -15.79935,-7.3981 c 5.0838,3.146 11.17073,6.1063 17.06704,6.0941"
       id="path389"
       style="display:inline"
       inkscape:label="layer-18" />
  </g>
</svg>
