<?xml version="1.0" encoding="UTF-8" standalone="no"?>
<svg
   class="card"
   face="JH"
   height="3.5in"
   preserveAspectRatio="none"
   viewBox="-120 -168 240 336"
   width="2.5in"
   version="1.1"
   id="svg89"
   sodipodi:docname="j-heart.svg"
   inkscape:version="1.2.2 (732a01da63, 2022-12-09)"
   xmlns:inkscape="http://www.inkscape.org/namespaces/inkscape"
   xmlns:sodipodi="http://sodipodi.sourceforge.net/DTD/sodipodi-0.dtd"
   xmlns="http://www.w3.org/2000/svg"
   xmlns:svg="http://www.w3.org/2000/svg">
  <sodipodi:namedview
     id="namedview91"
     pagecolor="#505050"
     bordercolor="#eeeeee"
     borderopacity="1"
     inkscape:showpageshadow="0"
     inkscape:pageopacity="0"
     inkscape:pagecheckerboard="0"
     inkscape:deskcolor="#505050"
     inkscape:document-units="in"
     showgrid="false"
     inkscape:zoom="3.0565476"
     inkscape:cx="109.4372"
     inkscape:cy="169.63583"
     inkscape:window-width="1278"
     inkscape:window-height="1368"
     inkscape:window-x="0"
     inkscape:window-y="0"
     inkscape:window-maximized="0"
     inkscape:current-layer="layer1" />
  <defs
     id="defs45" />
  <g
     inkscape:groupmode="layer"
     id="layer1"
     inkscape:label="Layer 1">
    <path
       d="M 1,0 0,1 -1,0 0,-1"
       id="path1736"
       fill="#ff0000"
       inkscape:label="layer-0"
       style="display:inline;stroke-width:0.264583" />
    <path
       fill="#ffcc44"
       d="M -82.4 -126.857 L -82.4 -117.105 L -74.7939 -107.58 L -74.7939 -45.0726 L -69.0893 -49.1409 L -69.0893 -87.0624 C -63.0617 -85.2518 -61.7706 -79.25 -61.5086 -72.3504 C -56.1356 -82.6303 -60.564 -85.8202 -62.7508 -90.628 C -59.9068 -91.514 -57.1601 -92.669 -55.1447 -95.844 C -57.6195 -98.6267 -60.1917 -99.382 -62.7508 -100.408 C -56.9701 -109.497 -60.1633 -113.057 -63.014 -116.845 C -62.4737 -112.426 -62.2048 -107.925 -69.0204 -101.595 L -69.0893 -93.7902 L -69.0893 -110.188 Z M -4.26672 -114.747 C -15.6779 -114.744 -26.7248 -112.69 -35.9817 -110.054 C -42.5242 -94.0845 -33.7383 -81.4889 -41.8339 -67.808 C -39.2985 -74.98 -52.1855 -77.5535 -51.3416 -67.156 C -51.136 -64.623 -49.4088 -63.4167 -47.2912 -63.2593 C -47.8398 -63.2859 -48.3392 -63.3564 -48.7525 -63.4842 L -54.4655 -59.4306 L -54.466 -59.4313 L -82.4 -39.6146 L -82.4 -35.7026 L -52.5494 -56.8789 L -54.4143 -59.3626 L -19.3324 -12.714 L -19.3277 -10.432 L 19.3321 -10.432 L 19.3321 -12.714 C 22.9511 -27.991 28.5194 -41.8994 37.7047 -54.3169 L 24.5415 -64.2355 C 22.1374 -61.4963 20.0056 -58.6292 18.0993 -55.6561 L 18.3658 -56.072 L -30.3888 -56.072 L -36.7632 -64.548 L -39.5291 -64.548 C -38.6377 -64.8204 -37.7144 -65.1196 -36.7686 -65.4361 C -36.2844 -65.5159 -35.7978 -65.5929 -35.3103 -65.6689 L -36.7632 -64.548 L -35.2806 -62.592 L 22.9886 -62.592 L 24.5353 -64.2322 L 21.5506 -66.504 L -30.0568 -66.504 C -25.6377 -67.2744 -21.3701 -68.3435 -17.9018 -70.7354 C -16.9697 -71.3782 -16.2806 -72.3558 -15.2912 -72.9698 C -13.8595 -73.8581 -12.4756 -74.7341 -11.704 -76.284 L -14.9495 -75.034 L -11.754 -76.2741 C -10.6163 -76.6277 -9.81783 -77.6022 -8.87398 -79.544 C -1.25279 -95.223 -11.3793 -96.4922 -0.715206 -114.68 C -1.90189 -114.725 -3.08625 -114.747 -4.26672 -114.747 Z M 65.0952 -69.8195 C 62.0646 -69.8468 58.4431 -68.5599 55.7782 -66.504 C 50.7074 -62.592 45.6367 -64.548 46.2705 -69.764 C 37.3967 -65.852 45.6367 -51.508 54.5105 -57.376 C 59.8597 -60.9133 67.8213 -62.592 69.089 -58.028 C 73.1129 -66.5364 69.8231 -69.777 65.0952 -69.8195 Z M -44.9873 -63.4648 L -45.3342 -63.3311 C -45.6853 -63.2928 -46.0293 -63.2676 -46.3632 -63.2552 C -45.9109 -63.2833 -45.4492 -63.3541 -44.9873 -63.4648 Z M 18.0766 -55.6204 C 9.81505 -42.7193 5.79641 -27.8252 2.21063 -12.7242 L -29.9865 -55.5372 L -28.8225 -54.116 L 17.1137 -54.116 Z M 46.8343 -47.313 C 40.1901 -38.7489 35.3213 -29.4861 31.68 -19.5483 L 34.4095 -16.4946 C 37.9061 -26.8641 42.6443 -36.521 49.2209 -45.4398 C 48.5349 -41.9444 48.1721 -38.3007 48.1721 -34.556 C 48.1721 -16.7382 56.3877 -1.20956 68.5487 6.94839 L 68.2196 6.74107 C 62.4197 21.8453 53.5723 36.1942 44.6854 46.4168 L 46.4411 48.6983 C 55.6212 38.8008 65.0062 24.2117 71.2675 8.66115 L 70.473 8.16069 C 74.1629 10.3285 78.175 11.8349 82.3997 12.5553 L 82.3997 10.1467 C 64.2113 7.64805 50.0736 -11.1886 50.0736 -34.0599 C 50.0736 -37.5246 50.3985 -40.8966 51.0122 -44.1335 L 49.2355 -45.4597 C 49.249 -45.4781 49.2623 -45.4966 49.2758 -45.5149 Z M 58.041 -38.8885 L 60.2911 -37.1676 C 60.235 -36.3058 60.2065 -35.4349 60.2065 -34.556 C 60.2065 -18.5217 69.7282 -5.13915 82.3997 -2.00083 L 82.3997 -6.00884 C 71.5557 -9.07601 63.4886 -20.6927 63.4886 -34.556 C 63.4886 -34.6448 63.4885 -34.7335 63.4899 -34.8221 Z M 55.4707 -37.1617 C 54.0747 -37.1912 52.8353 -36.2191 53.6561 -33.7576 C 48.026 -34.8948 50.4187 -26.1105 54.5808 -29.963 C 55.5334 -24.3131 63.2733 -30.6158 57.1925 -32.653 C 59.5906 -35.1998 57.3837 -37.1213 55.4707 -37.1617 Z M 23.1483 -25.8773 L 19.347 -12.1213 C 25.5276 -7.55472 29.5417 -0.175753 29.5417 8.15 C 29.5417 12.9769 28.1927 17.4856 25.8543 21.3125 L 34.3802 32.763 C 39.8298 26.0664 43.1013 17.494 43.1013 8.15 C 43.1013 -6.51704 35.0405 -19.283 23.1483 -25.8773 Z M 58.2294 -23.3322 C 56.5832 -23.3331 55.0297 -22.101 56.5368 -19.5468 C 50.8006 -19.4217 54.9609 -11.3652 58.2277 -16.0428 C 60.3306 -10.7322 66.5845 -18.5891 60.2211 -19.2442 C 61.8394 -21.9329 59.9818 -23.3312 58.2294 -23.3322 Z M 65.8143 -10.865 C 63.8602 -10.8436 61.7414 -8.95937 64.3277 -6.58444 C 58.8773 -4.74081 65.1444 1.71363 66.9401 -3.74161 C 70.4597 0.705164 74.209 -8.6882 67.9371 -7.40224 C 68.5786 -9.90406 67.2402 -10.8805 65.8143 -10.865 Z M 77.5174 -1.03607 C 75.3423 -1.08707 72.7587 1.94664 76.4304 3.65299 C 71.7679 7.09247 79.6281 11.3176 79.7514 5.55958 C 80.8647 6.31482 81.7591 6.30939 82.3997 5.90875 L 82.3997 1.30579 C 81.7631 1.0139 80.8509 1.07474 79.6355 1.75963 C 79.5444 -0.250565 78.5796 -1.01116 77.5174 -1.03607 Z"
       id="path197"
       style="display:inline"
       inkscape:label="layer-1" />
    <path
       fill="#ff0000"
       d="m -57.0908,-130.4 19.7829,20.715 c 16.2862,-4.792 38.39477,-7.954 58.2246,-1.155 L 39.3559,-130.4 H 28.4214 l -9.1598,11.528 -0.3751,-0.078 c -4.4633,-0.937 -8.8382,-1.553 -13.0996,-1.931 l -0.63756,-0.057 0.88219,-9.462 H -2.5385 l -0.01065,9.255 -0.6336,-0.001 c -4.9294,-0.004 -9.68525,0.352 -14.25825,0.936 l -0.5893,0.075 -1.9018,-10.265 h -9.8219 l 4.1698,11.508 -0.7388,0.143 c -3.6592,0.712 -7.1446,1.542 -10.4644,2.416 l -0.4355,0.115 -9.1774,-14.182 z m 12.2134,0 8.2148,12.695 c 2.9833,-0.779 6.1089,-1.515 9.3702,-2.168 l -3.8147,-10.527 z m 26.2358,0 1.6356,8.829 c 4.2395,-0.522 8.63917,-0.844 13.19065,-0.868 l 0.00916,-7.961 z m 25.94627,0 -0.77225,8.285 c 3.98358,0.374 8.06538,0.956 12.22798,1.814 L 26.784,-130.4 Z M -82.4,-117.105 v 77.5271 l 7.6061,-5.4947 V -107.58 Z m 55.1316,55.6545 c -0.7809,0 -1.5582,0.476 -0.6702,1.426 0.178,-0.1824 0.419,-0.2848 0.6702,-0.285 0.2513,3e-4 0.4923,0.1028 0.6703,0.2853 0.8882,-0.9502 0.1107,-1.4263 -0.6703,-1.4263 z m 0.6703,1.4263 c -0.0129,0.0138 -0.0228,0.0267 -0.0364,0.0407 0.0137,-0.0141 0.0264,-0.0241 0.0398,-0.0374 z m 0.0034,0.0033 c 0.1773,0.1831 0.2769,0.431 0.2771,0.6894 -2e-4,0.2585 -0.0999,0.5064 -0.2773,0.6895 1.8473,1.8271 1.8475,-3.2058 2e-4,-1.3789 z m -2e-4,1.3789 c -0.0135,-0.0134 -0.026,-0.0235 -0.0396,-0.0375 0.0137,0.0141 0.0234,0.0271 0.0364,0.041 z m -0.0032,0.0035 c -0.1781,0.1824 -0.419,0.2848 -0.6703,0.285 -0.2513,-2e-4 -0.4922,-0.1028 -0.6702,-0.2852 -1.7763,1.9002 3.1164,1.9003 1.3405,2e-4 z m -1.3405,-3e-4 c 0.0129,-0.0138 0.0227,-0.0267 0.0364,-0.0407 -0.0137,0.0141 -0.0264,0.0241 -0.0399,0.0374 l 0.0035,0.0034 z m -0.0035,-0.0033 c -0.1773,-0.1831 -0.2769,-0.431 -0.277,-0.6894 2e-4,-0.2585 0.0999,-0.5064 0.2773,-0.6894 -1.8473,-1.8272 -1.8475,3.2057 -3e-4,1.3788 z m 3e-4,-1.3788 c 0.0134,0.0133 0.0259,0.0234 0.0396,0.0374 -0.0137,-0.0141 -0.0234,-0.0271 -0.0364,-0.041 z m 9.1041,-1.4296 c -0.7809,0 -1.5582,0.476 -0.6703,1.426 0.178,-0.1824 0.419,-0.2848 0.6703,-0.285 0.2512,2e-4 0.4922,0.1028 0.6702,0.2852 0.8882,-0.9501 0.1107,-1.4262 -0.6702,-1.4262 z m 0.6702,1.4262 c -0.0129,0.0139 -0.0228,0.0268 -0.0364,0.0408 0.0137,-0.0141 0.0264,-0.0241 0.0399,-0.0374 z m 0.0035,0.0034 c 0.1772,0.1831 0.2769,0.431 0.277,0.6894 -2e-4,0.2585 -0.0999,0.5063 -0.2773,0.6894 1.8473,1.8272 1.8475,-3.2057 3e-4,-1.3788 z m -3e-4,1.3788 c -0.0134,-0.0133 -0.026,-0.0234 -0.0396,-0.0374 0.0137,0.0141 0.0234,0.0271 0.0364,0.041 z m -0.0032,0.0036 c -0.178,0.1824 -0.419,0.2848 -0.6703,0.285 -0.2512,-2e-4 -0.4922,-0.1028 -0.6702,-0.2853 -1.7763,1.9003 3.1165,1.9004 1.3405,3e-4 z m -1.3405,-3e-4 c 0.0129,-0.0138 0.0228,-0.0267 0.0364,-0.0407 -0.0137,0.0141 -0.0264,0.0241 -0.0399,0.0374 z m -0.0035,-0.0033 c -0.1772,-0.1831 -0.2768,-0.431 -0.277,-0.6894 2e-4,-0.2585 0.0999,-0.5064 0.2773,-0.6895 -1.8473,-1.8271 -1.8475,3.2058 -3e-4,1.3789 z m 3e-4,-1.3789 c 0.0134,0.0133 0.026,0.0235 0.0396,0.0375 -0.0137,-0.0141 -0.0234,-0.0271 -0.0364,-0.041 l -0.0032,0.0036 z m 9.1041,-1.4295 c -0.7809,0 -1.5582,0.4759 -0.6702,1.426 0.178,-0.1824 0.4189,-0.2848 0.6702,-0.285 0.2513,2e-4 0.49224,0.1028 0.67023,0.2852 0.88817,-0.9501 0.1107,-1.4262 -0.67023,-1.4262 z m 0.67023,1.4262 c -0.01293,0.0139 -0.02275,0.0268 -0.03639,0.0408 0.01369,-0.0141 0.02637,-0.0241 0.03986,-0.0375 l -0.00346,-0.0033 z m 0.00346,0.0033 c 0.17729,0.1832 0.2769,0.431 0.27706,0.6895 -2.3e-4,0.2585 -0.09993,0.5063 -0.2773,0.6894 1.8473,1.8272 1.84745,-3.2057 2.5e-4,-1.3789 z m -2.5e-4,1.3789 c -0.01345,-0.0133 -0.02597,-0.0234 -0.03961,-0.0374 0.01369,0.0141 0.02342,0.0271 0.03639,0.041 z m -0.00322,0.0036 c -0.17803,0.1823 -0.41902,0.2848 -0.67022,0.285 -0.2513,-3e-4 -0.4923,-0.1028 -0.6703,-0.2853 -1.7763,1.9003 3.11649,1.9004 1.34052,3e-4 z m -1.34052,-3e-4 c 0.013,-0.0138 0.0228,-0.0267 0.0364,-0.0407 -0.0137,0.0141 -0.0263,0.0241 -0.0398,0.0374 z m -0.0034,-0.0033 c -0.1773,-0.1831 -0.2769,-0.431 -0.2771,-0.6894 3e-4,-0.2585 0.1,-0.5064 0.2773,-0.6895 -1.8473,-1.8271 -1.8474,3.2057 -2e-4,1.3789 z m 2e-4,-1.3789 c 0.0135,0.0133 0.026,0.0234 0.0396,0.0375 -0.0136,-0.0141 -0.0234,-0.0272 -0.0364,-0.041 z m 9.10388,-1.4295 c -0.7809,0 -1.5582,0.4759 -0.67025,1.426 0.17804,-0.1824 0.419,-0.2849 0.67025,-0.285 0.25128,2e-4 0.49225,0.1028 0.67024,0.2852 0.888167,-0.9501 0.11069,-1.4262 -0.67024,-1.4262 z m 0.67024,1.4262 c -0.01293,0.0139 -0.02275,0.0267 -0.0364,0.0408 0.01369,-0.0141 0.02637,-0.0241 0.03987,-0.0375 l -0.00348,-0.0033 z m 0.00347,0.0033 c 0.17728,0.1832 0.27689,0.431 0.27706,0.6895 -2.3e-4,0.2585 -0.09993,0.5063 -0.27731,0.6894 1.84731,1.8272 1.847461,-3.2057 2.6e-4,-1.3789 z m -2.5e-4,1.3789 c -0.01345,-0.0133 -0.02597,-0.0234 -0.03962,-0.0374 0.01369,0.0141 0.02343,0.0271 0.0364,0.041 z m -0.00322,0.0036 c -0.17803,0.1823 -0.419,0.2848 -0.67024,0.285 -0.25128,-3e-4 -0.49225,-0.1028 -0.67025,-0.2853 -1.77629,1.9002 3.116454,1.9004 1.34049,3e-4 z m -1.34049,-3e-4 c 0.01294,-0.0138 0.02276,-0.0267 0.0364,-0.0407 -0.01369,0.014 -0.02637,0.0241 -0.03986,0.0374 z m -0.00346,-0.0033 c -0.17728,-0.1831 -0.27689,-0.431 -0.27706,-0.6894 2.4e-4,-0.2585 0.09994,-0.5064 0.27731,-0.6895 -1.84731,-1.8271 -1.84746,3.2057 -2.5e-4,1.3789 z m 2.6e-4,-1.3789 c 0.01345,0.0133 0.02597,0.0234 0.03961,0.0375 -0.01369,-0.0141 -0.02342,-0.0272 -0.03639,-0.041 z m 9.10409,-1.4295 c -0.7809,0 -1.5582,0.4759 -0.67024,1.426 0.17803,-0.1824 0.419,-0.2849 0.67024,-0.285 0.25128,2e-4 0.49225,0.1028 0.67024,0.2852 0.88817,-0.9501 0.1107,-1.4262 -0.67024,-1.4262 z m 0.67024,1.4262 c -0.01293,0.0138 -0.02275,0.0267 -0.03639,0.0408 0.01369,-0.0141 0.02637,-0.0241 0.03986,-0.0375 l -0.00346,-0.0033 z m 0.00346,0.0033 c 0.17729,0.1832 0.2769,0.431 0.27706,0.6895 -2.3e-4,0.2584 -0.09993,0.5063 -0.2773,0.6894 1.8473,1.8272 1.84745,-3.2057 2.5e-4,-1.3789 z m -2.5e-4,1.3789 c -0.01345,-0.0133 -0.02597,-0.0234 -0.03961,-0.0374 0.01369,0.014 0.02342,0.0271 0.03639,0.041 z m -0.00322,0.0036 c -0.17803,0.1823 -0.41899,0.2848 -0.67024,0.285 -0.25128,-3e-4 -0.49225,-0.1028 -0.67024,-0.2853 -1.7763,1.9002 3.11645,1.9004 1.34048,3e-4 z m -1.34048,-3e-4 c 0.01293,-0.0138 0.02275,-0.0267 0.03639,-0.0407 -0.01369,0.014 -0.02637,0.024 -0.03986,0.0374 l 0.00346,0.0033 z m -0.00346,-0.0033 c -0.17729,-0.1831 -0.27689,-0.431 -0.27706,-0.6894 2.3e-4,-0.2585 0.09993,-0.5064 0.2773,-0.6895 -1.8473,-1.8272 -1.84745,3.2057 -2.5e-4,1.3789 z m 2.5e-4,-1.3789 c 0.01345,0.0133 0.02597,0.0234 0.03962,0.0375 -0.01369,-0.0141 -0.02343,-0.0272 -0.0364,-0.0411 z m 9.10384,-1.4295 c -0.7809,0 -1.5582,0.4759 -0.6702,1.4259 0.178,-0.1823 0.419,-0.2848 0.6702,-0.2849 0.2513,2e-4 0.4923,0.1027 0.6702,0.2852 0.8882,-0.9501 0.1107,-1.4262 -0.6702,-1.4262 z m 0.6702,1.4262 c -0.0129,0.0138 -0.0227,0.0267 -0.0363,0.0408 0.0136,-0.0141 0.0263,-0.0241 0.0398,-0.0375 l -0.0034,-0.0033 z m 0.0035,0.0033 c 0.1773,0.1831 0.2769,0.431 0.2771,0.6895 -3e-4,0.2584 -0.1,0.5063 -0.2773,0.6894 1.8473,1.8272 1.8474,-3.2057 2e-4,-1.3789 z m -2e-4,1.3789 c -0.0135,-0.0133 -0.026,-0.0234 -0.0397,-0.0374 0.0137,0.014 0.0235,0.0271 0.0364,0.041 z m -0.0033,0.0036 c -0.178,0.1823 -0.419,0.2848 -0.6702,0.2849 -0.2513,-2e-4 -0.4923,-0.1027 -0.6702,-0.2852 -1.7763,1.9002 3.1164,1.9004 1.3404,3e-4 z m -1.3404,-3e-4 c 0.0129,-0.0138 0.0227,-0.0267 0.0363,-0.0408 -0.0136,0.0141 -0.0263,0.0241 -0.0398,0.0375 l 0.0034,0.0033 z m -0.0035,-0.0033 c -0.1773,-0.1832 -0.2769,-0.431 -0.2771,-0.6895 3e-4,-0.2584 0.1,-0.5063 0.2773,-0.6894 -1.8473,-1.8272 -1.8474,3.2057 -2e-4,1.3789 z m 2e-4,-1.3789 c 0.0135,0.0133 0.026,0.0234 0.0397,0.0374 -0.0137,-0.014 -0.0235,-0.0271 -0.0364,-0.041 z m -37.0294,7.861 23.452295,31.296 C 2.85202,-32.0068 6.3383,-42.38 11.4091,-52.16 Z m 86.3084,17.3379 c -0.0012,0.0886 -0.0012,0.1773 -0.0012,0.2661 0,13.8633 8.0671,25.47999 18.9111,28.54716 V -14.1387 C 76.5544,-16.4579 72.0369,-22.241 70.5646,-29.447 Z m -37.4585,15.4702 c -0.6493,0.0118 -1.3264,0.3318 -1.9453,1.0959 l -2.4312,3.001 4.3919,3.9675 2.4762,-3.0565 c 1.4558,-1.7971 -0.3703,-5.0466 -2.4916,-5.0079 z m 6.1619,7.0187 c -0.4638,0.0125 -0.973,0.1752 -1.515,0.534 l -3.2816,2.17252 3.1353,5.0721 3.2405,-2.14523 c 2.1075,-1.39517 0.9254,-5.70129 -1.5792,-5.63339 z m -12.8462,0.2119 -0.0112,1.4738 c -0.0708,-0.1146 -0.1943,-0.1832 -0.3263,-0.1813 -0.2099,0.0032 -0.3776,0.1808 -0.3746,0.3968 v 2.608 c -0.0021,0.16719 0.0993,0.3173 0.2523,0.37356 0.1531,0.05627 0.324,0.00625 0.4254,-0.12448 l -0.0439,5.76256 c 5.3632,5.17981 3.6194,11.07375 1.9687,16.95836 l 4.6169,6.1665 c 2.3384,-3.8269 3.6874,-8.3356 3.6874,-13.1625 0,-8.325753 -4.0141,-15.70472 -10.1947,-20.2713 z m -38.3682,1.2925 c -0.2099,0.0032 -0.3776,0.1808 -0.3746,0.3968 v 2.608 c -0.0019,0.14108 0.0701,0.27231 0.1886,0.34343 0.1184,0.07112 0.265,0.07112 0.3834,0 0.1185,-0.07112 0.1905,-0.20235 0.1886,-0.34343 v -2.608 c 0.0015,-0.1057 -0.0387,-0.2076 -0.1114,-0.2823 -0.0728,-0.0748 -0.1718,-0.1161 -0.2746,-0.1145 z m 1.9015,0 c -0.2099,0.0032 -0.3776,0.1808 -0.3746,0.3968 v 2.608 c -0.0019,0.14108 0.0701,0.27231 0.1886,0.34343 0.1185,0.07112 0.265,0.07112 0.3835,0 0.1184,-0.07112 0.1905,-0.20235 0.1885,-0.34343 v -2.608 c 0.0015,-0.1057 -0.0387,-0.2076 -0.1114,-0.2823 -0.0727,-0.0748 -0.1718,-0.1161 -0.2746,-0.1145 z m 1.9016,0 c -0.21,0.0032 -0.3776,0.1808 -0.3746,0.3968 v 2.608 c -0.002,0.14108 0.0701,0.27231 0.1885,0.34343 0.1185,0.07112 0.265,0.07112 0.3835,0 0.1185,-0.07112 0.1905,-0.20235 0.1886,-0.34343 v -2.608 c 0.0015,-0.1057 -0.0388,-0.2076 -0.1115,-0.2823 -0.0727,-0.0748 -0.1717,-0.1161 -0.2745,-0.1145 z m 1.9015,0 c -0.2099,0.0032 -0.3776,0.1808 -0.3746,0.3968 v 2.608 c -0.0019,0.14108 0.0701,0.27231 0.1886,0.34343 0.1184,0.07112 0.265,0.07112 0.3834,0 0.1185,-0.07112 0.1906,-0.20235 0.1886,-0.34343 v -2.608 c 0.0015,-0.1057 -0.0387,-0.2076 -0.1114,-0.2823 -0.0728,-0.0748 -0.1718,-0.1161 -0.2746,-0.1145 z m 1.9015,0 c -0.2099,0.0032 -0.3776,0.1808 -0.3746,0.3968 v 2.608 c -0.0019,0.14108 0.0702,0.27231 0.1886,0.34343 0.1185,0.07112 0.265,0.07112 0.3835,0 0.1184,-0.07112 0.1905,-0.20235 0.1885,-0.34343 v -2.608 c 0.0015,-0.1057 -0.0387,-0.2076 -0.1114,-0.2823 -0.0727,-0.0748 -0.1718,-0.1161 -0.2746,-0.1145 z m 1.90158,0 c -0.20994,0.0032 -0.37762,0.1808 -0.37461,0.3968 v 2.608 c -0.00194,0.14108 0.07012,0.27231 0.18858,0.34343 0.11847,0.07112 0.26498,0.07112 0.38345,0 0.11846,-0.07112 0.19052,-0.20235 0.18858,-0.34343 v -2.608 c 0.00148,-0.1057 -0.03873,-0.2076 -0.11145,-0.2823 -0.07271,-0.0748 -0.17175,-0.1161 -0.27455,-0.1145 z m 1.90154,0 c -0.20995,0.0032 -0.37763,0.1808 -0.37462,0.3968 v 2.608 c -0.00194,0.14108 0.07012,0.27231 0.18859,0.34343 0.11846,0.07112 0.26498,0.07112 0.38344,0 0.11847,-0.07112 0.19053,-0.20235 0.18859,-0.34343 v -2.608 c 0.00147,-0.1057 -0.03873,-0.2076 -0.11145,-0.2823 -0.07272,-0.0748 -0.17176,-0.1161 -0.27455,-0.1145 z m 1.90153,0 c -0.20994,0.0032 -0.37762,0.1808 -0.37461,0.3968 v 2.608 c -0.00194,0.14108 0.07012,0.27231 0.18858,0.34343 0.11847,0.07112 0.26498,0.07112 0.38345,0 0.11846,-0.07112 0.19052,-0.20235 0.18858,-0.34343 v -2.608 c 0.00148,-0.1057 -0.03873,-0.2076 -0.11145,-0.2823 -0.07271,-0.0748 -0.17175,-0.1161 -0.27455,-0.1145 z m 1.90154,0 c -0.20995,0.0032 -0.37763,0.1808 -0.37462,0.3968 v 2.608 c -0.00194,0.14108 0.07012,0.27231 0.18859,0.34343 0.11846,0.07112 0.26498,0.07112 0.38344,0 0.11847,-0.07112 0.19053,-0.20235 0.18859,-0.34343 v -2.608 c 0.00147,-0.1057 -0.03873,-0.2076 -0.11145,-0.2823 -0.07272,-0.0748 -0.17176,-0.1161 -0.27455,-0.1145 z m 1.90153,0 c -0.20994,0.0032 -0.37762,0.1808 -0.37461,0.3968 v 2.608 c -0.00194,0.14108 0.07012,0.27231 0.18858,0.34343 0.11847,0.07112 0.26498,0.07112 0.38345,0 0.11846,-0.07112 0.19052,-0.20235 0.18858,-0.34343 v -2.608 c 0.00148,-0.1057 -0.03873,-0.2076 -0.11145,-0.2823 -0.07271,-0.0748 -0.17175,-0.1161 -0.27455,-0.1145 z m 1.90153554,0 C -0.215785,-10.8256 -0.383467,-10.648 -0.380457,-10.432 v 2.608 c -0.00194,0.14108 0.070119,0.27231 0.188584,0.34343 0.1184646,0.07112 0.2649814,0.07112 0.383446,0 0.118465,-0.07112 0.190524,-0.20235 0.188584,-0.34343 v -2.608 c 0.001474,-0.1057 -0.038729,-0.2076 -0.111448,-0.2823 -0.072718,-0.0748 -0.1717583,-0.1161 -0.27455346,-0.1145 z m 1.90153446,0 c -0.20994,0.0032 -0.37762,0.1808 -0.37461,0.3968 v 2.608 c -0.00194,0.14108 0.07012,0.27231 0.18858,0.34343 0.11847,0.07112 0.26498,0.07112 0.38345,0 0.11846,-0.07112 0.19052,-0.20235 0.18858,-0.34343 v -2.608 c 0.00148,-0.1057 -0.03873,-0.2076 -0.11145,-0.2823 -0.07271,-0.0748 -0.17175,-0.1161 -0.27455,-0.1145 z m 1.90154,0 c -0.20995,0.0032 -0.37763,0.1808 -0.37462,0.3968 v 2.608 c -0.00194,0.14108 0.07012,0.27231 0.18859,0.34343 0.11846,0.07112 0.26498,0.07112 0.38344,0 0.11847,-0.07112 0.19053,-0.20235 0.18859,-0.34343 v -2.608 C 4.1847,-10.5377 4.1445,-10.6396 4.07178,-10.7143 3.99906,-10.7891 3.90002,-10.8304 3.79723,-10.8288 Z m 1.90153,0 c -0.20994,0.0032 -0.37762,0.1808 -0.37461,0.3968 v 2.608 c -0.00194,0.14108 0.07012,0.27231 0.18858,0.34343 0.11847,0.07112 0.26498,0.07112 0.38345,0 C 6.01464,-7.55169 6.0867,-7.68292 6.08476,-7.824 v -2.608 c 0.00148,-0.1057 -0.03873,-0.2076 -0.11145,-0.2823 -0.07271,-0.0748 -0.17175,-0.1161 -0.27455,-0.1145 z m 1.90154,0 c -0.20995,0.0032 -0.37763,0.1808 -0.37462,0.3968 v 2.608 c -0.00194,0.14108 0.07012,0.27231 0.18859,0.34343 0.11846,0.07112 0.26498,0.07112 0.38344,0 C 7.91618,-7.55169 7.98824,-7.68292 7.9863,-7.824 v -2.608 c 0.00147,-0.1057 -0.03873,-0.2076 -0.11145,-0.2823 -0.07272,-0.0748 -0.17176,-0.1161 -0.27455,-0.1145 z m 1.90153,0 c -0.20994,0.0032 -0.37762,0.1808 -0.37461,0.3968 v 2.608 c -0.00194,0.14108 0.07012,0.27231 0.18858,0.34343 0.11847,0.07112 0.26498,0.07112 0.38345,0 0.11846,-0.07112 0.19052,-0.20235 0.18858,-0.34343 v -2.608 c 0.00148,-0.1057 -0.03873,-0.2076 -0.11145,-0.2823 -0.07271,-0.0748 -0.17175,-0.1161 -0.27455,-0.1145 z m 1.90157,0 c -0.21,0.0032 -0.3777,0.1808 -0.3746,0.3968 v 2.608 c -0.002,0.14108 0.0701,0.27231 0.1885,0.34343 0.1185,0.07112 0.265,0.07112 0.3835,0 0.1184,-0.07112 0.1905,-0.20235 0.1886,-0.34343 v -2.608 c 0.0014,-0.1057 -0.0388,-0.2076 -0.1115,-0.2823 -0.0727,-0.0748 -0.1717,-0.1161 -0.2745,-0.1145 z m 1.9015,0 c -0.2099,0.0032 -0.3776,0.1808 -0.3746,0.3968 v 2.608 c -0.002,0.14108 0.0701,0.27231 0.1886,0.34343 0.1184,0.07112 0.265,0.07112 0.3834,0 0.1185,-0.07112 0.1905,-0.20235 0.1886,-0.34343 v -2.608 c 0.0015,-0.1057 -0.0387,-0.2076 -0.1114,-0.2823 -0.0728,-0.0748 -0.1718,-0.1161 -0.2746,-0.1145 z m 1.9015,0 c -0.2099,0.0032 -0.3776,0.1808 -0.3746,0.3968 v 2.608 c -0.0019,0.14108 0.0701,0.27231 0.1886,0.34343 0.1185,0.07112 0.265,0.07112 0.3835,0 0.1184,-0.07112 0.1905,-0.20235 0.1885,-0.34343 v -2.608 c 0.0015,-0.1057 -0.0387,-0.2076 -0.1114,-0.2823 -0.0727,-0.0748 -0.1718,-0.1161 -0.2746,-0.1145 z m 1.9016,0 c -0.21,0.0032 -0.3777,0.1808 -0.3746,0.3968 v 2.608 c -0.002,0.14108 0.0701,0.27231 0.1885,0.34343 0.1185,0.07112 0.265,0.07112 0.3835,0 0.1185,-0.07112 0.1905,-0.20235 0.1886,-0.34343 v -2.608 c 0.0014,-0.1057 -0.0388,-0.2076 -0.1115,-0.2823 -0.0727,-0.0748 -0.1717,-0.1161 -0.2745,-0.1145 z m 18.8021,7.08795 c -0.2668,-0.0013 -0.5563,0.03515 -0.869,0.11537 l -3.6738,0.94235 1.6284,5.77708 3.3807,-0.86721 c 2.6568,-0.6816 2.682,-5.95266 -0.4663,-5.96759 z m -2.599,9.27088 -0.0894,6.01037 3.2361,0.0963 c 2.9691,0.0882 4.3735,-5.88332 0.2498,-6.00582 z m -0.5576,8.77957 -1.8403,5.7254 3.5973,0.8998 c 2.8861,0.7221 5.4683,-4.8175 1.4598,-5.8204 z m -2.5331,7.2013 -1.8909,3.1258 3.2851,4.3022 c 2.0955,-0.4966 3.9778,-3.2016 1.5405,-5.119 z"
       id="path205"
       style="display:inline"
       inkscape:label="layer-4" />
    <path
       fill="#4444ff"
       d="M 45.7936 40.3391 L 39.6196 32.0798 C 44.2248 25.2482 46.9044 17.0151 46.9044 8.15 C 46.9044 -1.67038 43.6162 -10.7153 38.0788 -17.9717 C 40.7523 -25.2273 44.0934 -32.0772 48.3071 -38.5765 C 48.2199 -37.2617 48.1721 -35.9155 48.1721 -34.556 C 48.1721 -18.4463 54.8868 -4.20598 65.2125 4.43887 C 60.5188 17.5863 53.3857 30.2619 45.7936 40.3391 Z M 12.4232 -82.6736 C 14.9592 -83.0086 17.849 -85.7898 18.5081 -86.4552 C 19.027 -86.979 20.3998 -85.8893 20.2829 -85.1512 C 17.7752 -83.8083 14.1925 -82.3309 12.4232 -82.6736 M 4.6903 -101.19 C 4.94977 -100.738 13.0149 -106.256 14.4515 -106.798 C 16.2142 -107.462 17.8228 -105.925 17.7475 -106.015 L 18.001 -104.581 C 18.001 -104.581 15.9209 -106.128 14.8318 -105.754 C 13.6909 -105.363 4.82422 -100.519 4.6903 -101.19 Z M 17.494 -99.9516 C 17.494 -99.4155 17.3804 -98.9014 17.1784 -98.5224 C 16.9763 -98.1433 16.7022 -97.9304 16.4164 -97.9304 C 16.1307 -97.9304 15.8566 -98.1433 15.6545 -98.5224 C 15.4524 -98.9014 15.3389 -99.4155 15.3389 -99.9516 C 15.3389 -100.488 15.4524 -101.002 15.6545 -101.381 C 15.8566 -101.76 16.1307 -101.973 16.4164 -101.973 C 16.7022 -101.973 16.9763 -101.76 17.1784 -101.381 C 17.3804 -101.002 17.494 -100.488 17.494 -99.9516 Z"
       id="path213"
       style="display:inline"
       inkscape:label="layer-7" />
    <path
       fill="#000000"
       d="M -2.17033 -118.174 C -16.186 -118.243 -28.9169 -115.5 -39.8539 -112.363 L -37.3079 -109.685 C -21.0217 -114.477 1.08687 -117.639 20.9167 -110.84 L 24.3353 -114.493 C 15.1108 -117.081 6.23906 -118.134 -2.17033 -118.174 Z M -48.6891 -63.5562 L -49.1561 -63.2491 L -50.0179 -60.3676 L -48.6133 -58.6953 L -42.4252 -59.6746 L -44.3042 -53.8763 L -42.9964 -52.1646 L -37.1212 -52.6681 L -38.6323 -45.9331 L -37.1885 -44.3538 L -31.4208 -45.3425 L -32.9319 -38.0893 L -31.4839 -36.5298 L -25.9011 -37.4869 L -27.8334 -31.0276 L -26.4288 -29.3553 L -20.1884 -30.343 L -22.1288 -23.8556 L -20.917 -22.168 L -14.487 -22.168 L -16.4039 -16.7457 L -15.2124 -14.996 L -8.94108 -14.996 L -9.93196 -12.7537 L -7.17126 -12.699 L -5.8184 -15.7603 L -6.97245 -17.604 L -13.4025 -17.604 L -11.4856 -23.0263 L -12.6771 -24.776 L -19.2005 -24.776 L -17.1699 -31.5644 L -18.5745 -33.2367 L -24.8149 -32.249 L -22.8745 -38.7364 L -24.2947 -40.4062 L -30.0625 -39.4175 L -28.5514 -46.6707 L -29.9993 -48.2302 L -35.7356 -47.2468 L -34.2602 -53.8229 L -35.6007 -55.4154 L -41.2912 -54.9277 L -39.3637 -60.8757 L -40.7591 -62.5767 L -46.9995 -61.589 L -46.5217 -63.1864 Z M 30.8332 -59.5625 L 25.1608 -58.6647 L 24.1184 -57.0829 L 25.7349 -49.8775 L 18.7302 -48.2146 L 17.8451 -46.4425 L 20.5268 -39.8222 L 14.0908 -37.0637 L 13.4081 -35.3585 L 16.156 -28.5744 L 10.7569 -25.2421 L 10.3008 -23.4908 L 12.9498 -18.5858 L 7.44802 -14.0582 C 7.0536 -13.7455 6.88819 -13.2419 6.97809 -12.7723 L 9.86877 -12.7107 L 15.3701 -17.2378 L 15.6865 -18.8892 L 13.1128 -23.6549 L 18.3997 -26.9179 L 18.9176 -28.5375 L 16.2359 -35.1578 L 22.6719 -37.9163 L 23.3546 -39.6215 L 20.7625 -46.0205 L 27.5402 -47.6294 L 28.4904 -49.1931 L 26.8959 -56.3007 L 33.5493 -57.3538 Z M -38.0309 -58.68 C -38.283 -58.68 -38.5248 -58.577 -38.7031 -58.3936 C -38.8814 -58.2101 -38.9816 -57.9614 -38.9816 -57.702 C -38.9816 -57.4426 -38.8814 -57.1939 -38.7031 -57.0104 C -38.5248 -56.827 -38.283 -56.724 -38.0309 -56.724 C -37.7787 -56.724 -37.5369 -56.827 -37.3586 -57.0104 C -37.1803 -57.1939 -37.0801 -57.4426 -37.0801 -57.702 C -37.0801 -57.9614 -37.1803 -58.2101 -37.3586 -58.3936 C -37.5369 -58.577 -37.7787 -58.68 -38.0309 -58.68 Z M -45.9539 -57.702 C -46.2061 -57.702 -46.4479 -57.599 -46.6262 -57.4156 C -46.8045 -57.2321 -46.9047 -56.9834 -46.9047 -56.724 C -46.9047 -56.4646 -46.8045 -56.2159 -46.6262 -56.0324 C -46.4479 -55.849 -46.2061 -55.746 -45.9539 -55.746 C -45.7018 -55.746 -45.4599 -55.849 -45.2816 -56.0324 C -45.1033 -56.2159 -45.0031 -56.4646 -45.0031 -56.724 C -45.0031 -56.9834 -45.1033 -57.2321 -45.2816 -57.4156 C -45.4599 -57.599 -45.7018 -57.702 -45.9539 -57.702 Z M 30.7413 -55.094 C 30.4892 -55.094 30.2473 -54.991 30.069 -54.8076 C 29.8907 -54.6241 29.7906 -54.3754 29.7906 -54.116 C 29.7906 -53.8566 29.8907 -53.6079 30.069 -53.4244 C 30.2473 -53.241 30.4892 -53.138 30.7413 -53.138 C 30.9935 -53.138 31.2353 -53.241 31.4136 -53.4244 C 31.5919 -53.6079 31.6921 -53.8566 31.6921 -54.116 C 31.6921 -54.3754 31.5919 -54.6241 31.4136 -54.8076 C 31.2353 -54.991 30.9935 -55.094 30.7413 -55.094 Z M -26.6216 -54.116 L 1.26754 -16.952 C 4.35799 -30.1182 8.47541 -43.0149 14.5783 -54.116 Z M 22.5013 -53.138 C 22.2492 -53.138 22.0074 -53.035 21.8291 -52.8516 C 21.6507 -52.6681 21.5506 -52.4194 21.5506 -52.16 C 21.5506 -51.9006 21.6507 -51.6519 21.8291 -51.4684 C 22.0074 -51.285 22.2492 -51.182 22.5013 -51.182 C 22.7535 -51.182 22.9953 -51.285 23.1736 -51.4684 C 23.3519 -51.6519 23.4521 -51.9006 23.4521 -52.16 C 23.4521 -52.4194 23.3519 -52.6681 23.1736 -52.8516 C 22.9953 -53.035 22.7535 -53.138 22.5013 -53.138 Z M -22.8186 -52.16 L 11.4091 -52.16 C 6.3383 -42.38 2.85202 -32.0068 0.633695 -20.864 Z M -40.2493 -51.182 C -40.5015 -51.182 -40.7433 -51.079 -40.9216 -50.8956 C -41.0999 -50.7121 -41.2001 -50.4634 -41.2001 -50.204 C -41.2001 -49.9446 -41.0999 -49.6959 -40.9216 -49.5124 C -40.7433 -49.329 -40.5015 -49.226 -40.2493 -49.226 C -39.9971 -49.226 -39.7553 -49.329 -39.577 -49.5124 C -39.3987 -49.6959 -39.2985 -49.9446 -39.2985 -50.204 C -39.2985 -50.4634 -39.3987 -50.7121 -39.577 -50.8956 C -39.7553 -51.079 -39.9971 -51.182 -40.2493 -51.182 Z M -32.6432 -51.182 C -32.8953 -51.182 -33.1372 -51.079 -33.3155 -50.8956 C -33.4938 -50.7121 -33.5939 -50.4634 -33.5939 -50.204 C -33.5939 -49.9446 -33.4938 -49.6959 -33.3155 -49.5124 C -33.1372 -49.329 -32.8953 -49.226 -32.6432 -49.226 C -32.391 -49.226 -32.1492 -49.329 -31.9709 -49.5124 C -31.7926 -49.6959 -31.6924 -49.9446 -31.6924 -50.204 C -31.6924 -50.4634 -31.7926 -50.7121 -31.9709 -50.8956 C -32.1492 -51.079 -32.391 -51.182 -32.6432 -51.182 Z M 49.2508 -45.4908 C 42.6702 -36.5753 37.9158 -26.8931 34.3795 -16.4974 C 39.8175 -9.79825 43.1013 -1.21138 43.1013 8.15 C 43.1013 17.494 39.8298 26.0664 34.3966 32.765 L 44.652 46.3771 C 53.5725 36.1942 62.4196 21.8455 68.2229 6.71916 C 67.2025 6.01563 66.2095 5.27628 65.253 4.47282 C 60.5187 17.5864 53.3858 30.262 45.7937 40.3392 L 39.6196 32.0799 C 44.2249 25.2483 46.9044 17.0151 46.9044 8.15 C 46.9044 7.51636 46.8901 6.88611 46.863 6.2592 L 50.7074 6.2592 C 50.8446 6.2612 50.9722 6.18707 51.0413 6.06521 C 51.1105 5.94336 51.1105 5.79264 51.0413 5.67079 C 50.9722 5.54893 50.8446 5.4748 50.7074 5.4768 L 46.8219 5.4768 C 46.7573 4.42267 46.6533 3.37938 46.5142 2.3472 L 52.2921 2.3472 C 52.4292 2.3492 52.5568 2.27507 52.6259 2.15321 C 52.6951 2.03136 52.6951 1.88064 52.6259 1.75879 C 52.5568 1.63693 52.4292 1.5628 52.2921 1.5648 L 46.4018 1.5648 C 46.2396 0.508599 46.0401 -0.535369 45.8026 -1.5648 L 52.609 -1.5648 C 52.7461 -1.5628 52.8737 -1.63693 52.9429 -1.75879 C 53.012 -1.88064 53.012 -2.03136 52.9429 -2.15321 C 52.8737 -2.27507 52.7461 -2.3492 52.609 -2.3472 L 45.6137 -2.3472 C 45.3818 -3.27211 45.1207 -4.18543 44.83 -5.0856 L 54.5105 -5.0856 C 54.7204 -5.0828 54.9221 -5.16934 55.0679 -5.32475 C 54.7938 -5.7607 54.5273 -6.20346 54.2654 -6.6504 L 44.2913 -6.6504 C 44.0006 -7.444 43.6867 -8.22652 43.3514 -8.9976 L 52.609 -8.9976 C 52.7213 -8.99627 52.8325 -9.02054 52.9346 -9.06866 C 52.681 -9.56088 52.4351 -10.059 52.196 -10.5624 L 42.6331 -10.5624 C 42.2483 -11.3585 41.8403 -12.1414 41.4087 -12.9096 L 51.1506 -12.9096 C 50.9356 -13.4261 50.7284 -13.9478 50.5284 -14.4744 L 40.486 -14.4744 C 39.991 -15.2747 39.4694 -16.0569 38.9246 -16.8216 L 49.6973 -16.8216 C 49.5278 -17.3386 49.3677 -17.8611 49.2127 -18.3864 L 38.2346 -18.3864 C 38.5279 -19.1733 38.8278 -19.9562 39.1373 -20.7336 L 48.5757 -20.7336 C 48.4473 -21.2518 48.3256 -21.7733 48.2114 -22.2984 L 39.7754 -22.2984 C 40.1027 -23.0855 40.4375 -23.8683 40.7826 -24.6456 L 47.7539 -24.6456 C 47.6639 -25.1643 47.5806 -25.6859 47.5046 -26.2104 L 41.4937 -26.2104 C 41.8586 -26.9976 42.2319 -27.7804 42.6163 -28.5576 L 47.2131 -28.5576 C 47.1596 -29.0768 47.1129 -29.5984 47.0732 -30.1224 L 43.4091 -30.1224 C 44.8959 -33.0024 46.522 -35.8144 48.306 -38.5597 C 48.4759 -40.9142 48.7842 -43.2209 49.2508 -45.4908 Z M 24.4029 -45.314 C 24.1507 -45.314 23.9089 -45.211 23.7306 -45.0276 C 23.5523 -44.8441 23.4521 -44.5954 23.4521 -44.336 C 23.4521 -44.0766 23.5523 -43.8279 23.7306 -43.6444 C 23.9089 -43.461 24.1507 -43.358 24.4029 -43.358 C 24.655 -43.358 24.8969 -43.461 25.0752 -43.6444 C 25.2535 -43.8279 25.3536 -44.0766 25.3536 -44.336 C 25.3536 -44.5954 25.2535 -44.8441 25.0752 -45.0276 C 24.8969 -45.211 24.655 -45.314 24.4029 -45.314 Z M -34.5447 -43.358 C -34.7969 -43.358 -35.0387 -43.255 -35.217 -43.0716 C -35.3953 -42.8881 -35.4955 -42.6394 -35.4955 -42.38 C -35.4955 -42.1206 -35.3953 -41.8719 -35.217 -41.6884 C -35.0387 -41.505 -34.7969 -41.402 -34.5447 -41.402 C -34.2925 -41.402 -34.0507 -41.505 -33.8724 -41.6884 C -33.6941 -41.8719 -33.5939 -42.1206 -33.5939 -42.38 C -33.5939 -42.6394 -33.6941 -42.8881 -33.8724 -43.0716 C -34.0507 -43.255 -34.2925 -43.358 -34.5447 -43.358 Z M -26.9386 -43.358 C -27.1907 -43.358 -27.4326 -43.255 -27.6109 -43.0716 C -27.7892 -42.8881 -27.8893 -42.6394 -27.8893 -42.38 C -27.8893 -42.1206 -27.7892 -41.8719 -27.6109 -41.6884 C -27.4326 -41.505 -27.1907 -41.402 -26.9386 -41.402 C -26.6864 -41.402 -26.4446 -41.505 -26.2663 -41.6884 C -26.088 -41.8719 -25.9878 -42.1206 -25.9878 -42.38 C -25.9878 -42.6394 -26.088 -42.8881 -26.2663 -43.0716 C -26.4446 -43.255 -26.6864 -43.358 -26.9386 -43.358 Z M 16.7967 -42.054 C 16.5446 -42.054 16.3028 -41.951 16.1244 -41.7676 C 15.9461 -41.5841 15.846 -41.3354 15.846 -41.076 C 15.846 -40.8166 15.9461 -40.5679 16.1244 -40.3844 C 16.3028 -40.201 16.5446 -40.098 16.7967 -40.098 C 17.0489 -40.098 17.2907 -40.201 17.469 -40.3844 C 17.6473 -40.5679 17.7475 -40.8166 17.7475 -41.076 C 17.7475 -41.3354 17.6473 -41.5841 17.469 -41.7676 C 17.2907 -41.951 17.0489 -42.054 16.7967 -42.054 Z M -21.234 -36.186 C -21.4861 -36.186 -21.7279 -36.083 -21.9063 -35.8996 C -22.0846 -35.7161 -22.1847 -35.4674 -22.1847 -35.208 C -22.1847 -34.9486 -22.0846 -34.6999 -21.9063 -34.5164 C -21.7279 -34.333 -21.4861 -34.23 -21.234 -34.23 C -20.9818 -34.23 -20.74 -34.333 -20.5617 -34.5164 C -20.3834 -34.6999 -20.2832 -34.9486 -20.2832 -35.208 C -20.2832 -35.4674 -20.3834 -35.7161 -20.5617 -35.8996 C -20.74 -36.083 -20.9818 -36.186 -21.234 -36.186 Z M -29.4739 -35.534 C -29.7261 -35.534 -29.9679 -35.431 -30.1462 -35.2476 C -30.3245 -35.0641 -30.4247 -34.8154 -30.4247 -34.556 C -30.4247 -34.2966 -30.3245 -34.0479 -30.1462 -33.8644 C -29.9679 -33.681 -29.7261 -33.578 -29.4739 -33.578 C -29.2218 -33.578 -28.98 -33.681 -28.8016 -33.8644 C -28.6233 -34.0479 -28.5232 -34.2966 -28.5232 -34.556 C -28.5232 -34.8154 -28.6233 -35.0641 -28.8016 -35.2476 C -28.98 -35.431 -29.2218 -35.534 -29.4739 -35.534 Z M 19.649 -34.556 C 19.3969 -34.556 19.1551 -34.453 18.9768 -34.2696 C 18.7984 -34.0861 18.6983 -33.8374 18.6983 -33.578 C 18.6983 -33.3186 18.7984 -33.0699 18.9768 -32.8864 C 19.1551 -32.703 19.3969 -32.6 19.649 -32.6 C 19.9012 -32.6 20.143 -32.703 20.3213 -32.8864 C 20.4996 -33.0699 20.5998 -33.3186 20.5998 -33.578 C 20.5998 -33.8374 20.4996 -34.0861 20.3213 -34.2696 C 20.143 -34.453 19.9012 -34.556 19.649 -34.556 Z M 12.6767 -30.644 C 12.4246 -30.644 12.1828 -30.541 12.0045 -30.3576 C 11.8262 -30.1741 11.726 -29.9254 11.726 -29.666 C 11.726 -29.4066 11.8262 -29.1579 12.0045 -28.9744 C 12.1828 -28.791 12.4246 -28.688 12.6767 -28.688 C 12.9289 -28.688 13.1707 -28.791 13.349 -28.9744 C 13.5273 -29.1579 13.6275 -29.4066 13.6275 -29.666 C 13.6275 -29.9254 13.5273 -30.1741 13.349 -30.3576 C 13.1707 -30.541 12.9289 -30.644 12.6767 -30.644 Z M 70.5879 -29.437 C 72.0387 -22.2403 76.5546 -16.4581 82.3997 -14.139 L 82.3997 -20.5174 C 78.4692 -23.4877 74.5391 -26.4578 70.5879 -29.437 Z M -23.7693 -28.362 C -24.0215 -28.362 -24.2633 -28.259 -24.4416 -28.0756 C -24.6199 -27.8921 -24.7201 -27.6434 -24.7201 -27.384 C -24.7201 -27.1246 -24.6199 -26.8759 -24.4416 -26.6924 C -24.2633 -26.509 -24.0215 -26.406 -23.7693 -26.406 C -23.5172 -26.406 -23.2753 -26.509 -23.097 -26.6924 C -22.9187 -26.8759 -22.8186 -27.1246 -22.8186 -27.384 C -22.8186 -27.6434 -22.9187 -27.8921 -23.097 -28.0756 C -23.2753 -28.259 -23.5172 -28.362 -23.7693 -28.362 Z M -15.5294 -28.362 C -15.7815 -28.362 -16.0233 -28.259 -16.2016 -28.0756 C -16.38 -27.8921 -16.4801 -27.6434 -16.4801 -27.384 C -16.4801 -27.1246 -16.38 -26.8759 -16.2016 -26.6924 C -16.0233 -26.509 -15.7815 -26.406 -15.5294 -26.406 C -15.2772 -26.406 -15.0354 -26.509 -14.8571 -26.6924 C -14.6788 -26.8759 -14.5786 -27.1246 -14.5786 -27.384 C -14.5786 -27.6434 -14.6788 -27.8921 -14.8571 -28.0756 C -15.0354 -28.259 -15.2772 -28.362 -15.5294 -28.362 Z M 16.1629 -23.798 C 15.9107 -23.798 15.6689 -23.695 15.4906 -23.5116 C 15.3123 -23.3281 15.2121 -23.0794 15.2121 -22.82 C 15.2121 -22.5606 15.3123 -22.3119 15.4906 -22.1284 C 15.6689 -21.945 15.9107 -21.842 16.1629 -21.842 C 16.4151 -21.842 16.6569 -21.945 16.8352 -22.1284 C 17.0135 -22.3119 17.1137 -22.5606 17.1137 -22.82 C 17.1137 -23.0794 17.0135 -23.3281 16.8352 -23.5116 C 16.6569 -23.695 16.4151 -23.798 16.1629 -23.798 Z M -18.0647 -20.538 C -18.3169 -20.538 -18.5587 -20.435 -18.737 -20.2516 C -18.9153 -20.0681 -19.0155 -19.8194 -19.0155 -19.56 C -19.0155 -19.3006 -18.9153 -19.0519 -18.737 -18.8684 C -18.5587 -18.685 -18.3169 -18.582 -18.0647 -18.582 C -17.8126 -18.582 -17.5707 -18.685 -17.3924 -18.8684 C -17.2141 -19.0519 -17.114 -19.3006 -17.114 -19.56 C -17.114 -19.8194 -17.2141 -20.0681 -17.3924 -20.2516 C -17.5707 -20.435 -17.8126 -20.538 -18.0647 -20.538 Z M -9.82475 -20.538 C -10.0769 -20.538 -10.3187 -20.435 -10.497 -20.2516 C -10.6753 -20.0681 -10.7755 -19.8194 -10.7755 -19.56 C -10.7755 -19.3006 -10.6753 -19.0519 -10.497 -18.8684 C -10.3187 -18.685 -10.0769 -18.582 -9.82475 -18.582 C -9.57259 -18.582 -9.33076 -18.685 -9.15245 -18.8684 C -8.97415 -19.0519 -8.87398 -19.3006 -8.87398 -19.56 C -8.87398 -19.8194 -8.97415 -20.0681 -9.15245 -20.2516 C -9.33076 -20.435 -9.57259 -20.538 -9.82475 -20.538 Z M 9.50752 -20.212 C 9.25537 -20.212 9.01353 -20.109 8.83523 -19.9256 C 8.65693 -19.7421 8.55676 -19.4934 8.55676 -19.234 C 8.55676 -18.9746 8.65693 -18.7259 8.83523 -18.5424 C 9.01353 -18.359 9.25537 -18.256 9.50752 -18.256 C 9.75968 -18.256 10.0015 -18.359 10.1798 -18.5424 C 10.3581 -18.7259 10.4583 -18.9746 10.4583 -19.234 C 10.4583 -19.4934 10.3581 -19.7421 10.1798 -19.9256 C 10.0015 -20.109 9.75968 -20.212 9.50752 -20.212 Z"
       id="path221"
       style="display:inline"
       inkscape:label="layer-10" />
    <path
       stroke="#4444ff"
       stroke-linecap="round"
       stroke-linejoin="round"
       stroke-width="0.7714300963794452"
       fill="none"
       d="M -19.3324 12.714 L -19.3324 -12.714 L 19.3321 -12.714 M -19.3277 -10.432 L 19.2858 -10.432 M -19.3017 -7.824 L 19.3378 -7.824 M -19.3324 -12.714 L -54.479 -59.4488 M -15.5294 -12.714 L -51.9902 -61.1964 M -1.58476 -12.714 L -40.3073 -64.2037 M 2.21831 -12.714 L -36.7632 -64.548 M 24.5354 -64.2323 C 11.696 -49.5997 6.62435 -31.3134 2.21831 -12.714 M 26.8245 -62.4467 C 15.0916 -48.1262 10.25 -30.5643 6.02138 -12.714 M 35.212 -56.1656 C 25.2589 -43.24 19.3229 -28.7291 15.5291 -12.714 M 37.6644 -54.3685 C 28.5194 -41.8993 22.9511 -27.991 19.3321 -12.714 M 46.8342 -47.3132 C 40.19 -38.749 35.3214 -29.4861 31.6801 -19.5484 M 49.2757 -45.515 C 42.6703 -36.5753 37.9158 -26.8931 34.4094 -16.4945 M 23.1484 -25.8773 C 35.0406 -19.283 43.1013 -6.51704 43.1013 8.15 C 43.1013 17.494 39.8297 26.0664 34.3802 32.763 M 20.2151 -16.2636 C 28.1565 -11.1012 33.4159 -2.09581 33.4159 8.15 C 33.4159 14.2889 31.5278 19.9826 28.3059 24.6711 M 19.347 -12.1214 C 25.5276 -7.55479 29.5417 -0.175753 29.5417 8.15 C 29.5417 12.9769 28.1925 17.4855 25.8542 21.3124 M -30.368 -56.072 L 18.3889 -56.072 M -35.2805 -62.592 L 22.9886 -62.592 M -34.2278 -66.504 L 21.5506 -66.504 L 82.3997 -20.5181 M -48.6712 -63.5421 L -82.4 -39.6146 M -52.5495 -56.8789 L -82.4 -35.7027 M 38.091 -17.9233 C 43.6162 -10.7153 46.9044 -1.67038 46.9044 8.15 C 46.9044 17.0151 44.2248 25.2482 39.6389 32.0686 M 82.3967 12.5575 C 63.0465 9.25668 48.1721 -10.5792 48.1721 -34.556 C 48.1721 -38.3102 48.5367 -41.9629 49.2261 -45.4665 M 82.3994 -1.99985 C 69.728 -5.13825 60.2064 -18.5218 60.2064 -34.556 C 60.2064 -35.4349 60.2351 -36.3059 60.2912 -37.1676 M 82.3911 -6.01032 C 71.5512 -9.08103 63.4885 -20.6962 63.4885 -34.556 C 63.4885 -34.6448 63.4885 -34.7335 63.4898 -34.8222 M 82.3979 -14.1372 C 76.5532 -16.4566 72.037 -22.2415 70.5647 -29.447 M 71.2675 8.66122 C 65.0061 24.2118 55.6212 38.8009 46.4411 48.6984 M 68.2196 6.74118 C 62.4196 21.8454 53.5724 36.1942 44.6855 46.4168 M 65.2627 4.47196 C 60.5188 17.5863 53.3857 30.2619 45.806 40.3218 M 39.6002 32.091 L 45.7811 40.3563 M 48.3006 -38.5607 C 44.0934 -32.0772 40.7523 -25.2273 38.0666 -18.0201 M -28.8225 -54.116 L 17.101 -54.116 M 82.3975 10.1506 C 64.2096 7.65119 50.0736 -11.1891 50.0736 -34.0598 C 50.0736 -37.5652 50.4057 -40.9758 51.0335 -44.2475 M 51.8989 -33.7593 C 51.8989 -33.8594 51.8977 -33.9596 51.8977 -34.0598 C 51.8977 -37.1325 52.1663 -40.1287 52.6764 -43.0151 M 54.2457 -18.7302 C 53.2063 -21.9889 52.4885 -25.444 52.14 -29.0372 M 62.157 -4.03033 C 59.608 -7.11231 57.4493 -10.6745 55.7796 -14.5966 M 74.9817 5.80094 C 71.0477 4.10395 67.44 1.56367 64.3044 -1.642 M 82.3947 7.9079 C 81.3706 7.75949 80.3603 7.5565 79.3656 7.3014 M 54.0688 -36.7374 C 54.1581 -38.3758 54.3289 -39.9871 54.5762 -41.5651 M 56.2485 -19.5121 C 55.2148 -22.7152 54.5123 -26.1218 54.1926 -29.6691 M 63.3885 -6.14897 C 61.1605 -8.9005 59.2595 -12.0476 57.7626 -15.4961 M 76.3999 3.68418 C 72.7763 2.23723 69.4329 0.0342691 66.4948 -2.772 M 56.1914 -37.0558 C 56.2583 -38.0785 56.3591 -39.0895 56.4925 -40.0872 M 57.4133 -23.2068 C 57.0489 -24.6649 56.756 -26.1612 56.5397 -27.6894 M 63.4884 -9.7879 C 62.4917 -11.1961 61.5801 -12.6967 60.7636 -14.2777 M 74.9777 0.317002 C 73.2273 -0.559765 71.5586 -1.62999 69.9895 -2.87188 M 58.2022 -35.0078 C 58.2294 -36.2389 58.3092 -37.4539 58.4391 -38.6497 M 58.1957 -34.6418 C 58.1974 -34.7639 58.1995 -34.886 58.2022 -35.0078 M 58.233 -32.1794 C 58.2056 -32.802 58.1918 -33.4289 58.1918 -34.0598 C 58.1918 -34.2542 58.1931 -34.4482 58.1957 -34.6418 M 59.688 -22.9406 C 59.1927 -24.7223 58.8131 -26.5692 58.5602 -28.468 M 60.9788 -19.0837 C 60.8494 -19.412 60.7241 -19.7433 60.6029 -20.0773 M 65.5281 -10.8386 C 64.4224 -12.3273 63.4215 -13.934 62.5396 -15.6416 M 68.4397 -7.43654 C 68.2922 -7.58591 68.1461 -7.73707 68.0012 -7.88999 M 82.3966 0.158006 C 78.3383 -0.564406 74.5592 -2.33719 71.2503 -4.92707 M 60.221 -19.2441 C 63.3595 -24.4586 53.4253 -24.8199 56.5368 -19.5467 C 50.8005 -19.4216 54.9609 -11.3651 58.2277 -16.0426 C 60.3306 -10.7321 66.5844 -18.589 60.221 -19.2441 Z M 57.1925 -32.6531 C 61.3407 -37.0583 51.7105 -39.5924 53.656 -33.7576 C 48.026 -34.8948 50.4188 -26.1105 54.5809 -29.963 C 55.5334 -24.3131 63.2734 -30.6159 57.1925 -32.6531 Z M 67.9371 -7.40236 C 69.4575 -13.3326 59.8542 -10.6925 64.3277 -6.58446 C 58.8773 -4.74083 65.1445 1.71374 66.9401 -3.74149 C 70.4597 0.705281 74.2089 -8.68832 67.9371 -7.40236 Z M 82.4168 1.31298 C 81.7794 1.0123 80.8615 1.06875 79.6356 1.75964 C 79.3579 -4.3667 70.9656 1.1132 76.4305 3.65288 C 71.768 7.09236 79.628 11.3176 79.7513 5.55956 C 80.8683 6.31736 81.7656 6.31032 82.4067 5.90565 M 19.3125 5.38347 C 20.8707 4.58956 24.028 3.05509 25.9875 2.608 C 30.0317 1.68525 30.2565 7.63562 26.6213 7.824 C 24.7458 7.9212 21.128 8.23211 19.3779 8.38682 M 19.3015 6.93538 L 23.4521 5.868 M 19.3957 2.24643 C 20.4627 1.0258 22.417 -1.11693 23.8021 -2.09318 C 26.8128 -4.2153 28.8987 0.572521 25.9875 1.956 C 23.9596 2.91972 19.4605 5.27597 19.4605 5.27597 M 19.35 3.98156 L 22.7717 1.42909 M 19.3703 -4.09818 C 19.8612 -5.00841 20.3824 -5.88073 20.8589 -6.48965 C 23.1475 -9.41417 26.4861 -5.44768 24.086 -3.26 C 22.8396 -2.12391 20.4947 0.160405 19.382 1.24951 M 19.34 -0.760558 L 20.859 -2.81138 M 19.355 -10.9225 C 20.9283 -10.8079 22.3415 -8.7703 21.0389 -6.99359 C 20.5958 -6.38913 19.9855 -5.52109 19.3664 -4.62877 M 19.4219 8.84165 C 21.0979 8.62539 24.6985 8.22524 26.7425 8.476 C 30.8558 8.98062 29.1553 14.6728 25.664 13.6142 C 24.0915 13.1374 21.2136 12.3627 19.3759 11.8748 M 19.4103 10.321 L 23.3018 10.6903 M 19.3733 11.9227 C 21.0368 12.3677 24.4529 13.3492 26.2366 14.344 C 29.5108 16.1702 26.9118 20.109 24.2719 19.2061 M 20.4349 14.1494 L 22.2442 15.0952 M 21.6548 -15.2551 L 24.086 -18.256 C 26.727 -21.516 30.4244 -16.6912 28.5229 -14.344 L 26.0467 -11.2875 M 27.3965 -9.62669 L 30.6783 -11.7993 C 34.1473 -14.0959 36.27 -8.35335 33.7723 -6.69981 L 30.5319 -4.55463 M 31.3672 -2.68305 L 35.0411 -3.62553 C 39.0439 -4.6524 39.2583 1.48725 36.3763 2.22661 L 32.9957 3.09386 M 33.3112 5.53003 L 36.7076 5.63092 C 40.8313 5.75342 39.4268 11.7248 36.4578 11.6366 L 33.2218 11.5404 M 32.7534 14.3095 L 35.9703 15.1144 C 39.9788 16.1173 37.3966 21.657 34.5104 20.9349 L 30.9133 20.0349 M 30.2203 21.5109 L 33.1552 23.8198 C 35.5925 25.7372 33.71 28.4423 31.6145 28.9389 M 22.897 -25.3122 C 23.9505 -23.8524 24.3818 -21.9682 23.5223 -20.3801 C 27.8299 -25.6972 33.8605 -17.8279 30.759 -13.9995 C 36.4171 -17.7453 39.8793 -8.37912 35.8055 -5.68216 C 42.3341 -7.35702 42.6839 2.65691 37.9832 3.86281 C 44.7091 4.0626 42.4184 13.802 37.5758 13.6582 C 44.1138 15.294 39.9021 24.3294 35.1948 23.1516 C 38.922 26.0839 36.4554 30.1455 33.316 31.3086 M -82.4 -126.857 L -69.0893 -110.188 L -69.0893 -49.1409 M -82.4 -117.105 L -74.7939 -107.58 L -74.7939 -45.0726 M -69.0205 -101.595 C -60.61 -109.406 -62.9874 -114.431 -63.3847 -119.968 C -44.2231 -103.176 -49.4618 -86.7456 -61.4831 -70.416 C -61.5758 -78.1499 -62.52 -85.1302 -69.1484 -87.0808 M -62.9958 -116.839 C -60.1633 -113.057 -56.9701 -109.497 -62.7508 -100.408 C -60.1917 -99.382 -57.6195 -98.6267 -55.1447 -95.844 C -57.1601 -92.669 -59.9068 -91.514 -62.7508 -90.628 C -60.564 -85.8202 -56.1356 -82.6303 -61.4908 -72.379 M 55.2761 -41.0037 C 55.4946 -42.9267 55.9339 -46.493 56.4121 -46.944 C 57.0765 -47.5707 62.0318 -54.0287 62.7505 -54.768 C 63.3843 -55.42 67.1874 -56.072 67.8213 -56.072 C 68.4551 -56.072 71.2097 -54.8292 71.6243 -52.812 C 72.8388 -46.9033 70.3259 -42.9843 67.1874 -51.508 C 65.9197 -50.204 65.2859 -50.204 63.3843 -50.204 C 68.7998 -45.7841 67.0465 -42.3528 61.4828 -39.772 M 68.4337 -56.0942 C 68.9036 -56.7196 69.539 -57.3738 70.3566 -58.028 C 74.2546 -61.1466 80.1197 -59.0205 74.1597 -54.116 C 73.288 -53.3987 72.4763 -52.8663 71.7394 -52.4935 M 73.6484 -53.6941 C 78.39 -55.1898 82.1177 -52.4943 74.7173 -48.1916 C 67.6694 -44.0939 64.8161 -46.484 67.8195 -49.8976 M 74.5518 -48.128 C 78.8976 -48.474 81.4825 -45.7135 74.2265 -43.1374 C 66.6234 -40.4379 64.4712 -43.3814 68.6673 -46.0535 M 74.4761 -43.2171 C 78.8052 -43.4847 81.5618 -40.2626 74.518 -38.468 C 67.2716 -36.6218 65.8522 -40.073 70.5229 -42.1728 M 66.9113 -32.1683 C 69.7348 -33.067 73.3205 -36.3328 73.669 -38.2481 M 65.7387 -42.6935 C 66.3572 -40.1722 63.7251 -36.9888 63.3843 -37.164 M 46.2705 -69.764 C 45.6367 -64.548 50.7074 -62.592 55.7782 -66.504 C 62.6002 -71.7671 75.6924 -71.9905 69.089 -58.028 C 67.8213 -62.592 59.8597 -60.9133 54.5105 -57.376 C 45.6367 -51.508 37.3967 -65.852 46.2705 -69.764 Z M 46.2705 -69.764 C 40.5085 -62.8978 48.0726 -56.4688 57.6797 -63.244 C 67.0952 -69.884 71.944 -60.1551 69.089 -58.028 L 68.4551 -56.072 M 66.4049 -69.7278 C 67.5023 -67.6389 68.323 -65.5403 68.468 -63.4181 M 63.4289 -69.7236 C 64.6864 -68.2707 65.7038 -66.7365 66.2569 -65.0452 M 58.2998 -68.0733 C 59.4637 -67.1836 60.5488 -66.2293 61.4308 -65.1509 M 54.0482 -65.3812 C 55.6917 -65.0588 57.228 -64.5784 58.565 -63.8043 M 50.5815 -64.4153 C 51.8355 -63.437 52.9366 -62.3701 53.7658 -61.1456 M 46.8789 -66.3292 C 47.8158 -64.3559 48.5417 -62.3871 48.7472 -60.4293 M 65.2878 -60.7709 C 65.9969 -62.0777 65.8342 -63.6039 65.2946 -65.3493 M 62.3649 -60.5753 C 62.9568 -61.8899 62.7943 -63.5226 62.3671 -65.4102 M 57.1909 -58.897 C 57.7799 -60.0394 57.8569 -61.521 57.7559 -63.2388 M 50.9965 -56.0125 C 51.9037 -57.1089 52.2834 -58.7576 52.5546 -60.716 M 44.9429 -58.3523 C 45.7975 -58.884 46.5546 -59.7466 47.3066 -60.8017 M 19.92 -111.222 C 20.6481 -108.849 21.5506 -105.75 21.5506 -104.972 C 21.5506 -103.514 20.9167 -103.26 20.9167 -102.364 C 20.9167 -101.712 25.9875 -93.236 25.9875 -90.628 C 25.9875 -88.02 23.4521 -88.02 22.8183 -88.02 C 22.1844 -88.02 22.8183 -85.412 22.8183 -84.76 C 22.8183 -84.108 22.1844 -82.804 22.1844 -82.804 C 22.1844 -82.804 22.8183 -81.7701 22.8183 -80.848 C 22.8183 -78.892 19.0152 -78.892 19.0152 -78.892 C 19.0152 -78.892 19.649 -76.936 19.649 -76.284 C 19.649 -75.632 22.1844 -76.284 22.1844 -73.024 C 22.1844 -71.72 18.3814 -68.46 17.1137 -68.46 C 15.846 -68.46 14.5783 -69.764 13.3106 -69.764 C 12.0429 -69.764 10.1414 -68.46 8.87368 -68.46 C 7.60599 -68.46 1.13743 -71.1349 -1.26784 -72.372 C -2.53553 -73.024 -2.35514 -74.9764 -4.51315 -75.8365 C -5.83094 -76.3617 -7.26893 -78.3395 -8.37944 -80.5471 M 19.0152 -91.932 C 14.0685 -91.4752 17.0179 -86.6793 21.5506 -89.976 C 22.5857 -90.7288 21.5506 -89.324 21.5506 -89.324 C 20.3991 -89.324 19.2666 -88.7071 18.3814 -88.8024 M 12.4232 -82.6736 C 14.9592 -83.0086 17.849 -85.7898 18.5081 -86.4552 C 19.027 -86.979 20.3998 -85.8893 20.2829 -85.1512 C 17.7752 -83.8083 14.1925 -82.3309 12.4232 -82.6736 M 16.9869 -81.6304 C 18.7759 -81.9147 20.5553 -81.7324 22.1844 -82.9344 M 4.6903 -101.19 C 4.94977 -100.738 13.0149 -106.256 14.4515 -106.798 C 16.2142 -107.462 17.8228 -105.925 17.7475 -106.015 L 18.001 -104.581 C 18.001 -104.581 15.9209 -106.128 14.8318 -105.754 C 13.6909 -105.363 4.82422 -100.519 4.6903 -101.19 Z M 8.23983 -98.452 C 12.4672 -98.7347 15.8746 -102.565 19.2687 -102.364 M 12.0378 -99.5228 C 10.4615 -95.8123 17.2054 -98.5022 19.3955 -97.2784 M 21.5506 -66.504 L 18.3949 -68.9386 M -35.9456 -110.051 C -42.5242 -94.0846 -33.7383 -81.4889 -41.8339 -67.808 C -43.0423 -65.7659 -48.1724 -64.548 -48.8062 -67.808 C -49.925 -73.562 -42.4365 -71.4451 -44.3693 -69.112 M -33.1083 -110.814 C -40.437 -94.5748 -32.2263 -82.3576 -39.2985 -67.808 C -41.8339 -62.592 -50.8547 -61.1563 -51.3416 -67.156 C -52.1855 -77.5535 -39.2985 -74.98 -41.8339 -67.808 M -30.2075 -111.599 C -38.1694 -94.9668 -29.5773 -82.5913 -36.7632 -67.808 C -38.328 -64.5886 -42.3636 -62.8093 -45.3383 -63.3296 M -27.3638 -112.237 C -35.9131 -95.2817 -27.5843 -82.7796 -34.8616 -67.808 C -35.9451 -65.579 -37.7484 -64.6244 -39.7427 -64.4207 M -24.5492 -112.786 C -33.5571 -95.6411 -24.9713 -84.2432 -32.3262 -69.112 C -33.8911 -65.8926 -36.9577 -64.0277 -39.9324 -64.548 M -21.7604 -113.263 C -31.1812 -95.8861 -22.3682 -85.0346 -29.7909 -69.764 C -31.2948 -66.6699 -33.6004 -65.4292 -36.4182 -65.7991 M -18.9801 -113.708 C -28.7972 -96.0707 -19.7695 -85.1648 -27.2555 -69.764 C -28.8204 -66.5446 -30.6193 -65.9837 -33.5939 -66.504 M -16.2667 -114.025 C -26.3704 -96.2009 -17.1894 -85.2568 -24.7201 -69.764 C -26.285 -66.5446 -28.7177 -65.9837 -31.6924 -66.504 M -13.5625 -114.321 C -23.9367 -96.342 -14.6125 -86.6462 -22.1847 -71.068 C -23.7496 -67.8486 -25.5485 -66.6357 -28.5232 -67.156 M -10.9043 -114.533 C -21.4746 -96.423 -12.0475 -87.3592 -19.6493 -71.72 C -21.2142 -68.5006 -23.0131 -67.2877 -25.9878 -67.808 M -8.29328 -114.662 C -18.9841 -96.4682 -9.49405 -88.0483 -17.114 -72.372 C -18.4269 -69.671 -19.4584 -68.8412 -21.5132 -68.9513 M -5.70476 -114.752 C -16.4801 -96.496 -6.94608 -90.0302 -14.5786 -74.328 C -15.7467 -71.9248 -16.692 -70.6397 -18.3336 -70.3589 M -3.16938 -114.752 C -13.9447 -96.496 -4.4107 -91.3342 -12.0432 -75.632 C -12.8232 -74.0273 -13.9763 -73.2451 -15.3052 -72.9285 M -0.681759 -114.671 C -11.3793 -96.4923 -1.25279 -95.223 -8.87398 -79.544 C -9.81783 -77.6022 -10.6162 -76.6276 -11.7539 -76.274 M -39.854 -112.374 C -22.3547 -117.382 -0.263154 -121.392 24.3301 -114.515 M -57.0908 -130.4 L -37.3079 -109.685 C -21.0217 -114.477 1.08687 -117.639 20.9167 -110.84 L 39.3559 -130.4"
       id="path229"
       style="display:inline"
       inkscape:label="layer-16" />
    <path
       stroke="#4444ff"
       stroke-linecap="round"
       stroke-linejoin="round"
       stroke-width="0.3857150481897226"
       fill="none"
       d="M -67.8216 -102.776 L -67.8216 -86.581 M -66.5539 -104.167 L -66.5539 -85.8704 M -65.2862 -105.806 L -65.2862 -84.8489 M -64.0185 -107.985 L -64.0185 -83.2637 M -62.7508 -118.664 L -62.7508 -80.5617 M -61.4831 -118.22 L -61.4831 -71.068 M -60.2154 -116.964 L -60.2154 -72.2052 M -58.9477 -115.605 L -58.9477 -74.043 M -57.68 -114.13 L -57.68 -76.0003 M -56.4124 -112.505 L -56.4124 -78.1272 M -55.1447 -110.678 L -55.1447 -80.4285 M -53.877 -108.516 L -53.877 -82.9999 M 69.9763 -41.728 C 71.2199 -40.582 70.9433 -38.228 70.4834 -38.2072 M 68.9622 -45.7704 C 70.2057 -44.6244 69.9292 -42.2704 69.4693 -42.2496 M 71.6243 -51.7688 C 70.4834 -51.1168 71.1173 -47.0744 71.1173 -47.0744 M 72.3849 -45.9008 C 72.7926 -45.2863 72.87 -44.5597 72.892 -43.8144 M 73.6526 -41.4672 C 74.0603 -40.8527 74.1377 -40.1261 74.1597 -39.3808 M 19.5223 -97.2784 C 19.1528 -97.6111 16.2212 -96.5773 16.0995 -95.844 M 19.3955 -102.494 C 17.8743 -102.103 16.4798 -103.798 14.7051 -103.798 C 14.1824 -103.798 11.9161 -102.755 11.9161 -102.755 M 17.1639 -101.974 C 17.6247 -101.612 17.8629 -100.896 17.8743 -100.082 C 17.8743 -98.7497 17.0513 -97.6696 16.0361 -97.6696 C 15.0209 -97.6696 14.198 -98.7497 14.198 -100.082 C 14.198 -100.283 14.2168 -100.479 14.2522 -100.666 M -7.07236 -78.24 L -9.54425 -78.24 M -5.30301 -76.284 L -11.7039 -76.284 M -2.8051 -74.328 L -12.9268 -74.328 M -1.29594 -72.372 L -15.685 -72.372 M 2.53523 -70.416 L -17.7478 -70.416 M -0.633995 -68.46 L -22.2159 -68.46"
       id="path237"
       style="display:inline"
       inkscape:label="layer-17" />
    <path
       id="path246"
       d="M -4.43693 3.16872 C -4.43693 4.22496 -5.49334 5.2812 -6.54975 5.2812 C -7.60616 5.2812 -8.66257 4.22496 -8.66257 2.6406 C -8.66257 0 -4.43693 -4.22496 -4.43693 -5.2812 C -4.43693 -4.22496 -0.21129 0 -0.21129 2.6406 C -0.21129 4.22496 -1.2677 5.2812 -2.32411 5.2812 C -3.38052 5.2812 -4.43693 4.22496 -4.43693 3.16872 Z M -13.184 -3.16872 C -13.184 -4.22496 -12.1276 -5.2812 -11.0712 -5.2812 C -10.0148 -5.2812 -8.95837 -4.22496 -8.95837 -2.6406 C -8.95837 0 -13.184 4.22496 -13.184 5.2812 C -13.184 4.22496 -17.4096 0 -17.4096 -2.6406 C -17.4096 -4.22496 -16.3532 -5.2812 -15.2968 -5.2812 C -14.2404 -5.2812 -13.184 -4.22496 -13.184 -3.16872 Z"
       style="display:inline;fill:#ff0303;fill-opacity:1"
       inkscape:label="layer-13" />
    <path
       id="path259"
       d="M 39.7495 -48.1331 C 40.1456 -48.8192 41.2279 -49.1091 41.9141 -48.7131 C 42.6002 -48.317 42.8903 -47.2348 42.296 -46.2058 C 41.3056 -44.4906 36.9764 -43.3308 36.5802 -42.6448 C 36.9764 -43.3308 35.8164 -47.6594 36.8067 -49.3745 C 37.401 -50.4036 38.4833 -50.6935 39.1695 -50.2974 C 39.8556 -49.9013 40.1456 -48.8192 39.7495 -48.1331 Z M 34.8055 -39.6571 C 35.2016 -40.3432 36.2839 -40.6331 36.9701 -40.2371 C 37.6562 -39.841 37.9463 -38.7588 37.352 -37.7298 C 36.3616 -36.0146 32.0324 -34.8548 31.6362 -34.1688 C 32.0324 -34.8548 30.8724 -39.1834 31.8627 -40.8985 C 32.457 -41.9276 33.5393 -42.2175 34.2255 -41.8214 C 34.9116 -41.4253 35.2016 -40.3432 34.8055 -39.6571 Z M 30.7488 -31.1811 C 31.145 -31.8672 32.2273 -32.1571 32.9135 -31.7611 C 33.5996 -31.365 33.8896 -30.2828 33.2954 -29.2538 C 32.305 -27.5386 27.9758 -26.3788 27.5796 -25.6928 C 27.9758 -26.3788 26.8157 -30.7074 27.8061 -32.4225 C 28.4004 -33.4516 29.4827 -33.7415 30.1688 -33.3454 C 30.855 -32.9493 31.145 -31.8672 30.7488 -31.1811 Z"
       style="display:inline;fill:#ff0303;fill-opacity:1"
       inkscape:label="layer-14" />
    <path
       id="path276"
       d="M -68.1949 -23.9217 C -67.5088 -24.3178 -66.4265 -24.0278 -66.0303 -23.3418 C -65.6341 -22.6557 -65.9241 -21.5736 -66.9534 -20.9794 C -68.6688 -19.9892 -72.998 -21.149 -73.6842 -20.7529 C -72.998 -21.149 -71.838 -25.4776 -70.1226 -26.4678 C -69.0934 -27.062 -68.0111 -26.772 -67.6149 -26.0859 C -67.2188 -25.3999 -67.5088 -24.3178 -68.1949 -23.9217 Z M -73.7728 -36.5705 C -73.0866 -36.9666 -72.0043 -36.6766 -71.6081 -35.9906 C -71.212 -35.3045 -71.502 -34.2224 -72.5312 -33.6282 C -74.2466 -32.638 -78.5759 -33.7978 -79.262 -33.4018 C -78.5759 -33.7978 -77.4159 -38.1264 -75.7005 -39.1166 C -74.6712 -39.7108 -73.5889 -39.4208 -73.1928 -38.7347 C -72.7966 -38.0487 -73.0866 -36.9666 -73.7728 -36.5705 Z M -60.7155 -36.5705 C -60.0294 -36.9666 -58.9471 -36.6766 -58.5509 -35.9906 C -58.1548 -35.3045 -58.4448 -34.2224 -59.474 -33.6282 C -61.1894 -32.638 -65.5186 -33.7978 -66.2048 -33.4018 C -65.5186 -33.7978 -64.3586 -38.1264 -62.6432 -39.1166 C -61.614 -39.7108 -60.5317 -39.4208 -60.1355 -38.7347 C -59.7394 -38.0487 -60.0294 -36.9666 -60.7155 -36.5705 Z M -52.4755 -48.9585 C -51.7894 -49.3546 -50.7071 -49.0646 -50.3109 -48.3786 C -49.9147 -47.6925 -50.2048 -46.6104 -51.234 -46.0162 C -52.9494 -45.026 -57.2786 -46.1858 -57.9648 -45.7898 C -57.2786 -46.1858 -56.1186 -50.5144 -54.4032 -51.5046 C -53.374 -52.0988 -52.2917 -51.8088 -51.8955 -51.1227 C -51.4994 -50.4367 -51.7894 -49.3546 -52.4755 -48.9585 Z"
       style="display:inline;fill:#ff0303;fill-opacity:1"
       inkscape:label="layer-15" />
    <path
       d="m 0,-300 c 0,-100 100,-200 200,-200 100,0 200,100 200,250 C 400,0 0,400 0,500 0,400 -400,0 -400,-250 c 0,-150 100,-250 200,-250 100,0 200,100 200,200 z"
       fill="#ff0000"
       id="path289"
       transform="matrix(0.0464,0,0,0.0464,61.84,-104.32)"
       style="display:none" />
  </g>
</svg>
