<?xml version="1.0" encoding="UTF-8" standalone="no"?>
<svg
   class="card"
   face="JS"
   height="3.5in"
   preserveAspectRatio="none"
   viewBox="-120 -168 240 336"
   width="2.5in"
   version="1.1"
   id="svg77"
   sodipodi:docname="j-spade.svg"
   inkscape:version="1.2.2 (b0a8486541, 2022-12-01)"
   xmlns:inkscape="http://www.inkscape.org/namespaces/inkscape"
   xmlns:sodipodi="http://sodipodi.sourceforge.net/DTD/sodipodi-0.dtd"
   xmlns="http://www.w3.org/2000/svg"
   xmlns:svg="http://www.w3.org/2000/svg">
  <sodipodi:namedview
     id="namedview79"
     pagecolor="#505050"
     bordercolor="#eeeeee"
     borderopacity="1"
     inkscape:showpageshadow="0"
     inkscape:pageopacity="0"
     inkscape:pagecheckerboard="0"
     inkscape:deskcolor="#505050"
     inkscape:document-units="in"
     showgrid="false"
     inkscape:zoom="3.0565476"
     inkscape:cx="120.23369"
     inkscape:cy="169.30867"
     inkscape:window-width="1278"
     inkscape:window-height="1368"
     inkscape:window-x="0"
     inkscape:window-y="0"
     inkscape:window-maximized="0"
     inkscape:current-layer="layer1" />
  <defs
     id="defs33" />
  <g
     inkscape:groupmode="layer"
     id="layer1"
     inkscape:label="Layer 1">
    <path
       d="M 1,0 0,1 -1,0 0,-1"
       id="path1736"
       fill="#ff0000"
       inkscape:label="layer-0"
       style="display:inline;stroke-width:0.264583" />
    <path
       fill="#ffcc44"
       d="M 72.2619 -125.933 C 68.2799 -125.933 65.0519 -119.802 65.0519 -112.241 C 65.0539 -107.013 66.6232 -102.244 69.0964 -99.9491 L 63.2979 -93.9845 L 69.1008 -88.0154 C 66.6267 -85.7235 65.0557 -80.9562 65.0519 -75.7285 C 65.0519 -71.3926 66.1133 -67.5274 67.7695 -65.0187 C 67.8882 -64.526 73.816 -61.6787 74.339 -62.6131 C 77.3085 -64.3067 79.4719 -69.5378 79.4719 -75.7285 C 79.4698 -80.9559 77.9006 -85.7249 75.4274 -88.02 L 81.2258 -93.9845 L 75.4229 -99.9536 C 77.8971 -102.246 79.4681 -107.013 79.4719 -112.241 C 79.4719 -119.802 76.2439 -125.933 72.2619 -125.933 Z M 72.2619 -120.065 C 74.5373 -120.065 76.3819 -116.562 76.3819 -112.241 C 76.3819 -107.919 74.5373 -104.417 72.2619 -104.417 C 69.9865 -104.417 68.1419 -107.919 68.1419 -112.241 C 68.1419 -116.562 69.9865 -120.065 72.2619 -120.065 Z M 5.58289 -108.345 C -2.51615 -107.505 -10.6236 -106.134 -18.6374 -104.398 C -16.4169 -96.1583 -25.2333 -90.9395 -24.0863 -81.5 C -23.8558 -79.6032 -22.6193 -78.4823 -21.1302 -78.0355 C -21.5427 -74.557 -23.7518 -70.3436 -26.5907 -71.0927 C -25.6312 -71.0613 -24.7224 -71.7137 -24.7201 -73.024 C -24.7143 -76.284 -31.0586 -78.2696 -31.0586 -71.068 C -31.0586 -67.6189 -27.0056 -65.664 -23.3707 -66.8631 C -24.0312 -66.6287 -24.701 -66.4797 -25.3572 -66.3896 L -25.3473 -31.5565 C -26.6701 -32.9843 -28.7356 -33.904 -31.0586 -33.904 C -35.0518 -33.904 -38.2888 -31.1892 -38.2888 -27.8404 C -38.2887 -27.7055 -38.283 -27.5708 -38.272 -27.4362 L -38.2888 -27.4362 L -38.294 -26.5071 C -35.193 -22.5949 -32.3449 -18.3206 -29.7087 -13.7142 L 12.6508 -13.692 L 12.6767 -23.3734 L 12.6577 -23.3734 C 12.6683 -23.4682 12.6746 -23.5631 12.6767 -23.6582 C 12.6768 -26.0171 10.1227 -27.9295 6.97214 -27.9295 C 5.78353 -27.8517 4.8198 -27.5863 3.975 -27.1571 C 4.72386 -27.5418 5.56332 -27.8012 6.57054 -27.914 L 7.90583 -29.9301 L 16.1156 -24.1777 L 17.4222 -26.1062 L 9.24953 -31.8859 L 8.39433 -30.6677 L 24.3623 -54.7764 L 32.5213 -49.0062 L 33.7652 -50.9793 L 25.653 -56.7161 L 25.2343 -56.0929 L 31.7879 -65.988 L 39.9445 -60.2198 L 41.2909 -62.1201 L 33.9789 -67.2912 L 32.9598 -67.156 L 31.8511 -66.0833 L 32.3571 -66.8473 C 31.8776 -66.6316 31.2336 -66.504 30.4244 -66.504 C 27.2552 -66.504 23.4521 -67.156 20.9167 -67.156 C 19.6811 -67.156 17.3915 -67.9304 15.2376 -68.7129 C 13.9225 -68.263 11.7703 -67.5749 10.1414 -67.156 C 7.90615 -66.5812 3.70045 -68.5402 2.72117 -69.0287 C 1.38536 -66.9783 -0.361071 -65.7277 -2.13616 -65.13 C 1.18281 -66.2588 4.39907 -69.6787 4.99534 -76.3561 C 8.1315 -77.0718 10.7752 -79.3755 10.7752 -82.152 C 10.7752 -89.3536 3.80292 -88.02 3.80292 -83.456 C 3.80292 -82.212 4.23541 -81.5048 4.8302 -81.1763 C -5.35013 -85.2695 9.65556 -97.2627 5.58289 -108.345 Z M 72.2619 -97.8038 L 75.9748 -93.9845 L 72.2619 -90.1652 L 68.5489 -93.9845 Z M 72.2619 -83.5525 C 74.5373 -83.5525 76.3819 -80.0496 76.3819 -75.7285 C 76.3819 -71.4075 74.5373 -67.9045 72.2619 -67.9045 C 69.9865 -67.9045 68.1419 -71.4075 68.1419 -75.7285 C 68.1419 -80.0496 69.9865 -83.5525 72.2619 -83.5525 Z M -20.8655 -68.3133 C -20.863 -68.2924 -20.8596 -68.2722 -20.8569 -68.2514 C -20.8587 -68.265 -20.8611 -68.278 -20.8628 -68.2917 C -20.9111 -68.2593 -20.9598 -68.2248 -21.0086 -68.19 C -20.9607 -68.2306 -20.9128 -68.2712 -20.8655 -68.3133 Z M -21.5727 -67.7581 L -21.5509 -63.244 L 26.6213 -63.244 L 1.27299 -25.7912 L 1.26754 -24.9451 L 1.26754 -26.1595 L 1.24749 -26.1595 C 1.25864 -26.2815 1.26532 -26.4036 1.26754 -26.526 C 1.26754 -29.5637 -1.42839 -32.0264 -4.75399 -32.0264 C -7.79638 -32.0264 -10.3119 -29.9652 -10.7508 -27.4798 C -10.9499 -30.7786 -13.8047 -33.252 -17.3019 -33.252 C -19.5813 -33.252 -21.5862 -32.2005 -22.7532 -30.615 C -22.4206 -31.0703 -22.021 -31.4851 -21.5628 -31.8461 L -21.5771 -67.755 C -21.5756 -67.7561 -21.5741 -67.7571 -21.5727 -67.7581 Z M -9.69451 -67.2497 C -9.67609 -67.2158 -9.6557 -67.183 -9.63633 -67.1496 C -9.65008 -67.1728 -9.66438 -67.1957 -9.67768 -67.2192 C -11.6319 -65.0204 -14.3756 -63.9767 -16.6628 -64.2077 C -14.3783 -63.9841 -11.6396 -65.0357 -9.69451 -67.2497 Z M 41.924 -63.0751 L 12.6767 -18.908 L 12.6767 -13.692 L 34.9081 -47.3217 L 19.9717 -24.6792 C 24.6617 -24.3901 29.2651 -23.4729 33.6917 -21.9729 C 29.2648 -23.4691 24.6588 -24.3838 19.9645 -24.6683 L 17.4695 -20.9058 C 25.3371 -20.7514 33.0201 -18.7484 40.0111 -15.08 L 40.8321 -14.6397 C 46.071 -11.7702 50.9041 -7.95578 55.1154 -3.29515 C 65.2801 7.95403 70.9905 23.2113 70.9905 39.12 C 70.9905 43.6521 70.5271 48.1314 69.6151 52.4829 C 70.6647 53.0421 71.745 53.5845 72.867 54.1145 C 73.9651 49.2226 74.5254 44.2386 74.5254 39.12 C 74.5254 26.3013 71.0447 13.8798 64.6991 3.43038 C 64.6533 3.39571 64.6077 3.36007 64.5619 3.3252 C 69.906 7.40256 75.9517 10.5252 82.3997 12.5752 L 82.3997 -13.1047 C 75.8442 -16.4551 68.4587 -24.4068 69.5594 -32.8692 C 65.1072 -36.0806 60.5018 -39.2556 55.7616 -42.3841 C 65.2617 -36.1231 74.188 -29.7207 82.3997 -23.3141 L 82.3997 -38.0198 C 69.1388 -46.9719 56.9651 -54.763 44.4247 -61.7482 L 44.4151 -61.7334 Z M -39.9324 -62.592 L -42.4678 -61.4861 L -42.4678 -31.5293 L -39.9324 -28.5851 Z M -32.9601 -60.1669 C -34.7224 -60.1669 -36.4848 -59.0457 -34.3048 -56.8032 C -38.6648 -61.2881 -38.6648 -49.5519 -34.3048 -54.0368 C -38.6648 -49.5519 -27.2554 -49.5519 -31.6154 -54.0368 C -28.2918 -50.618 -27.4572 -56.6708 -29.2135 -57.7201 C -29.7612 -58.0473 -30.5607 -57.8882 -31.6154 -56.8032 C -29.4354 -59.0457 -31.1978 -60.1669 -32.9601 -60.1669 Z M -21.5509 -56.072 L -21.5509 -52.812 L 19.5297 -52.812 L 21.5506 -56.072 Z M 44.2353 -49.7361 C 44.2726 -49.7131 44.3094 -49.6899 44.3467 -49.6669 C 44.3095 -49.6898 44.2725 -49.7129 44.2353 -49.7359 Z M -33.0371 -45.2498 C -34.7994 -45.2498 -36.5615 -44.1286 -34.3815 -41.8862 C -38.7416 -46.3711 -38.7416 -34.6351 -34.3815 -39.12 C -38.7416 -34.6351 -27.3324 -34.6351 -31.6924 -39.12 C -28.3688 -35.7012 -27.534 -41.754 -29.2902 -42.8033 C -29.8379 -43.1305 -30.6377 -42.9711 -31.6924 -41.8862 C -29.5124 -44.1286 -31.2748 -45.2498 -33.0371 -45.2498 Z M 17.4449 -44.3054 L 16.1468 -42.3711 L 24.3427 -36.5749 L 25.6406 -38.5095 Z M -22.7918 -30.5615 C -22.8181 -30.5249 -22.8439 -30.4881 -22.8693 -30.4509 C -22.844 -30.4881 -22.818 -30.5248 -22.7918 -30.5615 Z M -23.8404 -27.4533 C -23.8375 -27.4375 -23.8334 -27.4231 -23.8283 -27.4107 L -23.8283 -27.41 C -23.8335 -27.4225 -23.8375 -27.4372 -23.8404 -27.4533 Z M 3.84774 -27.0898 C 3.78642 -27.057 3.72563 -27.0233 3.6655 -26.9887 C 3.72551 -27.0235 3.78657 -27.0568 3.84774 -27.0898 Z M 46.5951 -20.4295 C 46.6349 -20.3263 46.6752 -20.2233 46.7157 -20.1203 C 46.6753 -20.2233 46.6349 -20.3263 46.5951 -20.4295 Z M 46.9858 -19.4472 C 47.0249 -19.3516 47.0633 -19.2557 47.103 -19.1604 C 47.0633 -19.2558 47.0249 -19.3516 46.9858 -19.4472 Z M 47.4526 -18.3395 C 47.5177 -18.1901 47.5843 -18.0412 47.6509 -17.8923 C 47.5844 -18.0412 47.5176 -18.1901 47.4526 -18.3395 Z M 47.844 -17.4649 C 47.9197 -17.2995 47.9954 -17.1343 48.0728 -16.9696 C 47.9954 -17.1343 47.9196 -17.2995 47.844 -17.4649 Z M 48.1904 -16.7238 C 48.3578 -16.3723 48.5288 -16.0222 48.7042 -15.674 C 48.5289 -16.0222 48.3577 -16.3722 48.1904 -16.7238 Z M 48.8279 -15.429 C 48.9316 -15.2257 49.0361 -15.0228 49.1424 -14.8208 C 49.0361 -15.0228 48.9315 -15.2257 48.8279 -15.429 Z M 49.1793 -14.752 C 49.4187 -14.2988 49.6644 -13.8484 49.9171 -13.4014 C 50.3094 -12.7078 50.7176 -12.022 51.1417 -11.3443 C 50.7812 -11.9191 50.431 -12.4989 50.0944 -13.0848 C 50.0341 -13.1898 49.9767 -13.2961 49.9171 -13.4014 C 49.6644 -13.8484 49.4186 -14.2987 49.1793 -14.752 Z M 18.3536 -12.4221 C 18.6634 -11.4807 18.9803 -10.5496 19.3017 -9.62515 L 19.0152 -10.432 L -27.8893 -10.432 L -26.2785 -7.21122 L 20.145 -7.25019 L 20.115 -7.335 C 20.2942 -6.84244 20.4746 -6.35172 20.657 -5.86469 C 46.2706 -5.21605 61.1795 19.312 58.2938 45.6186 C 59.7136 46.6106 61.1895 47.5902 62.7022 48.5363 C 61.8775 47.2742 61.8767 46.4142 62.958 46.0821 C 63.2405 43.7875 63.3843 41.4619 63.3843 39.12 C 63.3843 38.4213 63.3715 37.7242 63.346 37.0288 C 61.6424 35.7203 61.8496 34.5402 63.1001 33.4305 C 62.7743 30.182 62.1714 26.9896 61.3068 23.8938 C 58.989 22.1236 59.8547 21.5048 60.3251 20.743 C 59.2838 17.7219 57.9864 14.8111 56.4482 12.0508 C 55.3876 11.516 54.5872 10.9142 55.2102 9.94554 C 53.603 7.35322 51.7742 4.91156 49.7371 2.65716 C 49.0901 1.94115 48.426 1.24821 47.746 0.579159 C 47.242 0.26938 46.7192 -0.00036512 46.3971 -0.697843 C 43.4227 -3.40679 40.1722 -5.68236 36.7265 -7.48756 L 36.0211 -7.84921 C 32.5179 -9.60594 28.8216 -10.8811 25.0154 -11.6367 L 23.4033 -11.9245 C 21.7369 -12.1889 20.052 -12.3541 18.3536 -12.4221 Z M 51.1885 -11.2704 C 51.3152 -11.0688 51.4429 -10.8677 51.5723 -10.6676 C 51.4427 -10.8677 51.3153 -11.069 51.1885 -11.2704 Z M -16.7738 -4.70713 C -18.5361 -4.70713 -20.2982 -3.58593 -18.1182 -1.34348 C -22.4782 -5.82838 -22.4782 5.90759 -18.1182 1.42269 C -22.4782 5.90759 -11.0691 5.90759 -15.4291 1.42269 C -12.1055 4.84145 -11.2709 -1.21131 -13.0272 -2.26061 C -13.5748 -2.58783 -14.3743 -2.42842 -15.4291 -1.34348 C -13.2491 -3.58593 -15.0115 -4.70713 -16.7738 -4.70713 Z M -5.60151 -4.70713 C -7.36381 -4.70713 -9.12596 -3.58593 -6.94595 -1.34348 C -11.306 -5.82838 -11.306 5.90759 -6.94595 1.42269 C -11.306 5.90759 0.103201 5.90759 -4.25681 1.42269 C -0.933251 4.84145 -0.098401 -1.21131 -1.85464 -2.26061 C -2.40233 -2.58783 -3.20208 -2.42842 -4.25681 -1.34348 C -2.07681 -3.58593 -3.83921 -4.70713 -5.60151 -4.70713 Z M 23.2196 0.645636 L 25.3891 5.21346 C 38.3681 9.23683 47.9933 22.1419 48.5752 37.6321 L 52.1064 40.7915 C 52.1274 40.2372 52.1381 39.68 52.1381 39.12 C 52.1381 19.9448 39.6719 3.99184 23.2196 0.645636 Z"
       id="path1621"
       style="display:inline"
       inkscape:label="layer-1" />
    <path
       fill="#ff0000"
       d="M -39.2993 -130.4 C -33.2854 -124.193 -26.5522 -116.994 -21.5085 -108.784 C -6.32701 -115.107 23.9717 -118.773 39.1212 -112.154 C 44.5155 -118.752 51.0181 -124.716 57.9734 -130.4 Z M 72.2619 -120.065 C 71.1692 -120.065 70.1213 -119.24 69.3486 -117.773 C 68.576 -116.306 68.1419 -114.316 68.1419 -112.241 C 68.1419 -110.165 68.576 -108.175 69.3486 -106.708 C 70.1213 -105.241 71.1692 -104.417 72.2619 -104.417 C 73.3546 -104.417 74.4025 -105.241 75.1752 -106.708 C 75.9478 -108.175 76.3819 -110.165 76.3819 -112.241 C 76.3819 -114.316 75.9478 -116.306 75.1752 -117.773 C 74.4025 -119.24 73.3546 -120.065 72.2619 -120.065 Z M 72.2619 -97.8038 L 68.5489 -93.9845 L 72.2619 -90.1652 L 75.9748 -93.9845 Z M 72.2619 -83.5525 C 71.1692 -83.5525 70.1213 -82.7282 69.3486 -81.2609 C 68.576 -79.7936 68.1419 -77.8036 68.1419 -75.7285 C 68.1419 -73.6535 68.576 -71.6634 69.3486 -70.1961 C 70.1213 -68.7288 71.1692 -67.9045 72.2619 -67.9045 C 73.3546 -67.9045 74.4025 -68.7288 75.1752 -70.1961 C 75.9478 -71.6634 76.3819 -73.6535 76.3819 -75.7285 C 76.3819 -77.8036 75.9478 -79.7936 75.1752 -81.2609 C 74.4025 -82.7282 73.3546 -83.5525 72.2619 -83.5525 Z M 42.9693 -59.5195 L 40.402 -55.6673 C 55.6943 -46.5202 69.864 -36.8019 82.3997 -27.0651 L 82.3997 -33.2571 C 70.5349 -42.324 57.244 -50.9243 42.9693 -59.5195 Z M -46.9039 -59.3058 C -52.9729 -56.2762 -59.0114 -53.1324 -64.9368 -49.836 C -58.1934 -45.9086 -52.2148 -41.3473 -46.8824 -36.1058 Z M -32.9324 -57.3757 C -33.4463 -57.3835 -33.9413 -57.177 -34.3048 -56.8032 C -34.6615 -56.4364 -34.8618 -55.9388 -34.8618 -55.42 C -34.8618 -54.9012 -34.6615 -54.4036 -34.3048 -54.0368 C -33.9482 -53.6699 -33.4645 -53.4638 -32.9601 -53.4638 C -32.4557 -53.4638 -31.972 -53.6699 -31.6154 -54.0368 C -31.2587 -54.4036 -31.0583 -54.9012 -31.0583 -55.42 C -31.0583 -55.9388 -31.2587 -56.4364 -31.6154 -56.8032 C -31.9653 -57.163 -32.4377 -57.3684 -32.9324 -57.3757 Z M -21.5509 -47.5685 L -21.5066 -31.8887 C -20.3329 -32.7463 -18.8831 -33.252 -17.3019 -33.252 C -13.8047 -33.252 -10.9499 -30.7786 -10.7508 -27.4798 C -10.3119 -29.9652 -7.79638 -32.0264 -4.75399 -32.0264 C -1.42839 -32.0264 1.26754 -29.5637 1.26754 -26.526 C 1.26532 -26.4036 1.25864 -26.2815 1.24749 -26.1595 L 1.26754 -26.1595 L 1.27299 -25.7723 L 15.9502 -47.542 Z M -33.0091 -42.459 C -33.523 -42.4667 -34.0181 -42.26 -34.3815 -41.8862 C -35.1241 -41.1223 -35.1241 -39.8839 -34.3815 -39.12 C -33.6389 -38.3562 -32.435 -38.3562 -31.6924 -39.12 C -30.9498 -39.8839 -30.9498 -41.1223 -31.6924 -41.8862 C -32.0422 -42.246 -32.5145 -42.4515 -33.0091 -42.459 Z M 79.5486 -25.4871 C 78.0394 -22.5409 80.6746 -19.2576 82.3997 -17.7673 L 82.3997 -23.3123 C 81.4697 -24.037 80.5295 -24.7617 79.5486 -25.4871 Z M 20.145 -7.25019 C 20.1545 -7.22395 20.1644 -7.19822 20.1739 -7.172 L 20.2225 -7.172 Z M 0.16252 -7.23338 L -26.197 -7.172 L -26.2785 -7.21122 C -24.0624 -2.70845 -22.0403 2.06332 -20.1953 7.11292 L -20.2228 7.172 L 0.174157 7.172 Z M 20.6558 -5.868 L 23.2196 0.645636 C 39.6719 3.99184 52.1381 19.9448 52.1381 39.12 C 52.1381 39.68 52.1274 40.2372 52.1064 40.7915 L 58.3136 45.64 C 61.1795 19.312 46.2706 -5.216 20.6558 -5.868 Z M -16.7738 -4.70713 C -15.0115 -4.70713 -13.2491 -3.58593 -15.4291 -1.34348 C -14.3743 -2.42842 -13.5748 -2.58783 -13.0272 -2.26061 C -11.2709 -1.21131 -12.1055 4.84145 -15.4291 1.42269 C -11.0691 5.90759 -22.4782 5.90759 -18.1182 1.42269 C -22.4782 5.90759 -22.4782 -5.82838 -18.1182 -1.34348 C -20.2982 -3.58593 -18.5361 -4.70713 -16.7738 -4.70713 Z M -18.1182 -1.34348 C -18.8608 -0.579615 -18.8608 0.658829 -18.1182 1.42269 C -17.3756 2.18653 -16.1717 2.18653 -15.4291 1.42269 C -14.6865 0.658829 -14.6865 -0.579615 -15.4291 -1.34348 C -16.1717 -2.10732 -17.3756 -2.10732 -18.1182 -1.34348 Z M -5.60151 -4.70713 C -3.83921 -4.70713 -2.07681 -3.58593 -4.25681 -1.34348 C -3.20208 -2.42842 -2.40233 -2.58783 -1.85464 -2.26061 C -0.098401 -1.21131 -0.933254 4.84145 -4.25681 1.42269 C 0.103202 5.90759 -11.306 5.90759 -6.94595 1.42269 C -11.306 5.90759 -11.306 -5.82838 -6.94595 -1.34348 C -9.12596 -3.58593 -7.36381 -4.70713 -5.60151 -4.70713 Z M -6.94595 -1.34348 C -7.68853 -0.579615 -7.68853 0.658829 -6.94595 1.42269 C -6.20336 2.18653 -4.99941 2.18653 -4.25681 1.42269 C -3.51424 0.658829 -3.51424 -0.579615 -4.25681 -1.34348 C -4.99941 -2.10732 -6.20336 -2.10732 -6.94595 -1.34348 Z M 25.3643 5.23842 C 31.4191 18.1487 39.0149 28.8941 48.5383 37.6622 C 47.9934 22.1421 38.3681 9.23683 25.3643 5.23842 Z M 71.0504 7.61999 C 75.6126 17.2524 78.0601 28.0465 78.0601 39.12 C 78.0601 44.7514 77.4271 50.3106 76.2299 55.6849 C 78.2455 56.5699 80.2974 57.4087 82.3997 58.2058 L 82.3997 12.5744 C 78.4427 11.3164 74.6366 9.65557 71.0504 7.61999 Z"
       id="path1617"
       style="display:inline"
       inkscape:label="layer-4" />
    <path
       fill="#4444ff"
       d="M -17.114 -63.244 L -17.114 -56.072 L -10.1417 -56.072 L -10.1417 -63.244 Z M -13.6278 -61.94 C -13.0394 -61.94 -12.4752 -61.6996 -12.0591 -61.2716 C -11.6431 -60.8437 -11.4094 -60.2632 -11.4094 -59.658 C -11.4094 -59.0528 -11.6431 -58.4723 -12.0591 -58.0444 C -12.4752 -57.6164 -13.0394 -57.376 -13.6278 -57.376 C -14.2162 -57.376 -14.7805 -57.6164 -15.1965 -58.0444 C -15.6125 -58.4723 -15.8463 -59.0528 -15.8463 -59.658 C -15.8463 -60.2632 -15.6125 -60.8437 -15.1965 -61.2716 C -14.7805 -61.6996 -14.2162 -61.94 -13.6278 -61.94 Z M -1.90169 -63.244 L -1.90169 -56.072 L 5.07061 -56.072 L 5.07061 -63.244 Z M 1.58446 -61.94 C 2.17283 -61.94 2.73711 -61.6996 3.15315 -61.2716 C 3.56919 -60.8437 3.80292 -60.2632 3.80292 -59.658 C 3.80292 -59.0528 3.56919 -58.4723 3.15315 -58.0444 C 2.73711 -57.6164 2.17283 -57.376 1.58446 -57.376 C 0.996091 -57.376 0.431818 -57.6164 0.0157762 -58.0444 C -0.400265 -58.4723 -0.633995 -59.0528 -0.633995 -59.658 C -0.633995 -60.2632 -0.400265 -60.8437 0.0157762 -61.2716 C 0.431818 -61.6996 0.996091 -61.94 1.58446 -61.94 Z M 13.3106 -63.244 L 13.3106 -56.072 L 20.2829 -56.072 L 20.2829 -63.244 Z M 16.7967 -61.94 C 17.3851 -61.94 17.9494 -61.6996 18.3654 -61.2716 C 18.7815 -60.8437 19.0152 -60.2632 19.0152 -59.658 C 19.0152 -59.0528 18.7815 -58.4723 18.3654 -58.0444 C 17.9494 -57.6164 17.3851 -57.376 16.7967 -57.376 C 16.2084 -57.376 15.6441 -57.6164 15.2281 -58.0444 C 14.812 -58.4723 14.5783 -59.0528 14.5783 -59.658 C 14.5783 -60.2632 14.812 -60.8437 15.2281 -61.2716 C 15.6441 -61.6996 16.2084 -61.94 16.7967 -61.94 Z M -17.4309 -29.992 C -18.6917 -29.992 -19.9008 -29.4768 -20.7924 -28.5598 C -21.6839 -27.6427 -22.1847 -26.3989 -22.1847 -25.102 C -22.1845 -24.9932 -22.1808 -24.8845 -22.1736 -24.776 L -22.1847 -24.776 L -22.1847 -13.692 L -12.6771 -13.692 L -12.6771 -24.776 L -12.6929 -24.776 C -12.6841 -24.8845 -12.6788 -24.9932 -12.6771 -25.102 C -12.6771 -26.3989 -13.1779 -27.6427 -14.0694 -28.5598 C -14.9609 -29.4768 -16.1701 -29.992 -17.4309 -29.992 Z M -31.1174 -29.992 C -33.7428 -29.992 -35.8712 -27.8027 -35.8712 -25.102 C -35.8711 -24.9932 -35.8673 -24.8845 -35.8601 -24.776 L -35.8712 -24.776 L -35.8712 -23.1787 L -29.7357 -13.692 L -26.3635 -13.692 L -26.3635 -24.776 L -26.3794 -24.776 C -26.3706 -24.8845 -26.3653 -24.9932 -26.3635 -25.102 C -26.3635 -27.8027 -28.4919 -29.992 -31.1174 -29.992 Z M -4.74606 -27.6634 C -5.83665 -27.6634 -6.88257 -27.2218 -7.65374 -26.4358 C -8.4249 -25.6497 -8.85813 -24.5836 -8.85813 -23.472 C -8.85797 -23.3788 -8.85476 -23.2856 -8.8485 -23.1926 L -8.85813 -23.1926 L -8.85813 -13.692 L -0.633995 -13.692 L -0.633995 -23.1926 L -0.647701 -23.1926 C -0.640083 -23.2855 -0.635512 -23.3787 -0.633995 -23.472 C -0.633995 -24.5836 -1.06723 -25.6497 -1.83839 -26.4358 C -2.60955 -27.2218 -3.65548 -27.6634 -4.74606 -27.6634 Z M 6.66315 -24.776 C 5.74066 -24.776 4.85596 -24.4198 4.20367 -23.7857 C 3.55138 -23.1516 3.18492 -22.2916 3.18492 -21.3949 C 3.18506 -21.3197 3.18778 -21.2445 3.19307 -21.1695 L 3.18492 -21.1695 L 3.18492 -13.5057 L 10.1414 -13.5057 L 10.1414 -21.1695 L 10.1298 -21.1695 C 10.1362 -21.2445 10.1401 -21.3197 10.1414 -21.3949 C 10.1414 -22.2916 9.77492 -23.1516 9.12262 -23.7857 C 8.47033 -24.4198 7.58563 -24.776 6.66315 -24.776 Z M 45.7399 -57.8451 L 43.4195 -53.857 L 47.7613 -51.1624 L 50.0686 -55.1281 Z M 53.7662 -52.8084 L 51.4975 -48.9092 L 55.7582 -46.0753 L 58.0786 -50.0634 Z M 61.7599 -47.7157 L 59.4038 -43.6664 L 63.6059 -40.7319 L 66.0465 -44.9264 Z M 69.6693 -42.4783 L 67.2288 -38.2841 L 71.3403 -35.194 L 73.8683 -39.5385 Z M 77.4134 -36.9569 L 74.9342 -32.6958 L 79.0619 -29.6334 L 81.5477 -33.9058 Z M 25.4954 -32.8684 L 28.5229 -30.644 C 34.8613 -26.08 39.9321 -35.208 34.8613 -39.772 L 31.444 -42.1155 Z M 31.6921 -36.512 C 32.7423 -36.512 33.5936 -35.6363 33.5936 -34.556 C 33.5936 -33.4757 32.7423 -32.6 31.6921 -32.6 C 30.6419 -32.6 29.7906 -33.4757 29.7906 -34.556 C 29.7906 -35.6363 30.6419 -36.512 31.6921 -36.512 Z M 44.1649 -49.7794 L 38.799 -53.0069 L 34.1675 -46.2429 L 36.7629 -44.336 C 39.3684 -42.4599 41.7598 -42.8974 43.3205 -44.3805 Z M 39.9321 -50.204 C 40.9823 -50.204 41.8336 -49.3283 41.8336 -48.248 C 41.8336 -47.1677 40.9823 -46.292 39.9321 -46.292 C 38.8819 -46.292 38.0305 -47.1677 38.0305 -48.248 C 38.0305 -49.3283 38.8819 -50.204 39.9321 -50.204 Z M 20.2829 -24.776 L 27.3497 -23.7412 C 27.147 -25.0488 26.5174 -26.3366 25.3536 -27.384 L 22.9008 -29.0661 Z M 43.5242 -32.6179 L 36.0507 -21.1155 C 41.0134 -19.1749 45.7525 -16.4679 50.103 -13.0696 C 46.6341 -19.1086 44.3857 -25.7399 43.5242 -32.6179 Z M 34.8613 -78.892 C 34.8613 -78.892 32.9598 -79.544 32.3259 -79.544 C 31.6921 -79.544 31.0583 -77.588 29.7906 -77.588 C 28.5229 -77.588 28.5229 -76.936 28.5229 -76.936 C 28.4444 -76.8948 31.4262 -76.4633 32.3259 -77.588 C 32.7287 -78.0915 34.8846 -77.8794 34.8846 -77.8794 M 25.3536 -78.892 C 27.2552 -78.892 29.7914 -82.3663 31.0583 -82.4128 L 34.2275 -82.5432 L 33.7204 -81.5 C 33.7204 -81.5 32.0724 -81.2392 31.4386 -81.2392 C 30.8047 -81.2392 28.5229 -78.24 27.2552 -78.24 C 25.9875 -78.24 25.3536 -78.892 25.3536 -78.892 Z M 33.2133 -84.4992 C 36.512 -85.0025 38.8242 -86.817 36.7629 -86.716 C 34.1007 -86.5856 33.0866 -85.2816 32.5795 -84.6296 M 32.833 -104.711 L 31.8189 -103.668 C 31.8189 -103.668 27.889 -105.233 25.734 -104.972 C 23.6844 -104.724 15.846 -100.669 15.846 -100.669 C 17.6207 -103.016 26.8749 -108.754 32.833 -104.711 Z M 28.0158 -98.126 C 28.0158 -96.8657 27.5617 -95.844 27.0016 -95.844 C 26.4415 -95.844 25.9875 -96.8657 25.9875 -98.126 C 25.9875 -98.7312 26.0943 -99.3117 26.2845 -99.7396 C 26.4747 -100.168 26.7327 -100.408 27.0016 -100.408 C 27.2706 -100.408 27.5286 -100.168 27.7188 -99.7396 C 27.9089 -99.3117 28.0158 -98.7312 28.0158 -98.126"
       id="path1613"
       style="display:inline"
       inkscape:label="layer-7" />
    <path
       fill="#000000"
       d="M -46.9047 -59.332 L -42.4678 -61.4861 L -42.4678 -31.5524 L -46.8825 -36.1058 Z M -27.8623 -10.432 L -29.7909 -13.692 L 17.9328 -13.692 L 19.0215 -10.432 Z M -21.5509 -52.812 L 19.5297 -52.812 L 15.9235 -47.596 L -21.5509 -47.596 Z M 72.8766 54.1191 C 73.9651 49.2226 74.5253 44.2386 74.5253 39.12 C 74.5253 26.3013 71.0448 13.8798 64.6776 3.41402 C 66.7712 5.00183 68.9554 6.43443 71.1384 7.66965 C 75.6127 17.2523 78.0602 28.0465 78.0602 39.12 C 78.0602 44.7514 77.4272 50.3106 76.1044 55.6292 C 74.9413 55.1045 73.8938 54.6195 72.8766 54.1191 Z M 38.7038 -19.9962 L 42.4675 -26.08 C 43.169 -22.9809 43.9688 -19.9253 44.7836 -16.8763 M -21.4894 -108.753 C -20.6044 -107.288 -19.7773 -105.819 -19.0155 -104.32 C -0.794894 -108.286 17.9615 -110.407 36.129 -108.232 C 37.0771 -109.549 38.0688 -110.839 39.1232 -112.156 C 23.9716 -118.772 -6.32698 -115.107 -21.4894 -108.753 Z"
       id="path1609"
       style="display:inline"
       inkscape:label="layer-10" />
    <path
       stroke="#4444ff"
       stroke-linecap="round"
       stroke-linejoin="round"
       stroke-width="0.7714300963794452"
       fill="none"
       d="M 82.3863 -38.0301 C 65.3144 -49.5546 50.0484 -59.1487 33.4237 -67.5734 M 16.326 -18.9806 C 27.7495 20.3833 47.6839 45.04 82.3893 58.2029 M 17.9328 -13.692 L -29.6837 -13.692 M 19.0256 -10.432 L -27.8623 -10.432 M 20.0664 -7.172 L -26.197 -7.172 M 32.2999 -66.8115 L 6.55336 -27.9307 M 41.924 -63.0753 C 32.2117 -48.3085 22.3421 -33.6508 12.6602 -18.8629 M -29.5128 -67.6429 C -41.448 -62.1021 -53.3108 -56.2834 -65.0056 -49.8191 M -39.9324 -62.577 L -39.9324 -28.5852 M -25.354 -66.2585 L -25.354 -31.5295 M -46.9047 -59.3032 L -46.9047 -36.0795 M -42.4678 -61.4797 L -42.4678 -31.5294 M -21.5509 -67.7536 L -21.5509 -31.8702 M -21.5509 -63.244 L 26.6213 -63.244 L 1.27856 -25.7306 M -21.5509 -56.072 L 21.6639 -56.072 M -21.5509 -52.812 L 19.5297 -52.812 M -21.5509 -47.596 L 15.9235 -47.596 M -31.6155 -56.8031 C -30.8729 -56.0392 -30.8729 -54.8008 -31.6155 -54.0369 C -32.3581 -53.273 -33.5621 -53.273 -34.3047 -54.0369 C -35.0473 -54.8008 -35.0473 -56.0392 -34.3047 -56.8031 C -33.5621 -57.567 -32.3581 -57.567 -31.6155 -56.8031 Z M -31.6155 -56.8031 C -30.5608 -57.888 -29.7611 -58.0474 -29.2134 -57.7202 C -27.4572 -56.6709 -28.2919 -50.6181 -31.6155 -54.0369 C -27.2555 -49.552 -38.6647 -49.552 -34.3047 -54.0369 C -38.6647 -49.552 -38.6647 -61.288 -34.3047 -56.8031 C -38.6647 -61.288 -27.2555 -61.288 -31.6155 -56.8031 Z M -31.6924 -41.8862 C -30.9498 -41.1223 -30.9498 -39.8839 -31.6924 -39.12 C -32.435 -38.3561 -33.639 -38.3561 -34.3816 -39.12 C -35.1242 -39.8839 -35.1242 -41.1223 -34.3816 -41.8862 C -33.639 -42.6501 -32.435 -42.6501 -31.6924 -41.8862 Z M -31.6924 -41.8862 C -30.6377 -42.9711 -29.838 -43.1305 -29.2903 -42.8033 C -27.5341 -41.754 -28.3688 -35.7012 -31.6924 -39.12 C -27.3324 -34.6351 -38.7416 -34.6351 -34.3816 -39.12 C -38.7416 -34.6351 -38.7416 -46.3711 -34.3816 -41.8862 C -38.7416 -46.3711 -27.3324 -46.3711 -31.6924 -41.8862 Z M -39.9324 -49.552 L -25.354 -49.552 M -39.9324 -46.944 L -25.354 -46.944 M -30.828 -44.336 L -25.354 -44.336 M -39.9324 -44.336 L -35.2621 -44.336 M -28.565 -41.728 L -25.354 -41.728 M -39.9324 -41.728 L -37.4712 -41.728 M -28.6017 -39.12 L -25.354 -39.12 M -39.9324 -39.12 L -37.4148 -39.12 M -30.92 -36.512 L -25.354 -36.512 M -39.9324 -36.512 L -35.1333 -36.512 M -28.7857 -57.376 L -25.354 -57.376 M -39.9324 -57.376 L -37.102 -57.376 M -28.3442 -54.768 L -25.354 -54.768 M -39.9324 -54.768 L -37.5436 -54.768 M -30.6072 -52.16 L -25.354 -52.16 M -39.9324 -52.16 L -35.3357 -52.16 M -34.7102 -65.2 L -25.354 -65.2 M -40.1957 -62.592 L -25.354 -62.592 M -31.6928 -59.984 L -25.354 -59.984 M -39.9324 -59.984 L -34.2318 -59.984 M -39.9324 -33.904 L -25.354 -33.904 M -39.9324 -31.296 L -37.0652 -31.296 M -39.9324 -28.688 L -38.5555 -28.688 M -15.4291 -1.34355 C -14.6865 -0.579685 -14.6865 0.658785 -15.4291 1.42265 C -16.1717 2.18652 -17.3757 2.18652 -18.1183 1.42265 C -18.8609 0.658785 -18.8609 -0.579685 -18.1183 -1.34355 C -17.3757 -2.10742 -16.1717 -2.10742 -15.4291 -1.34355 Z M -4.25681 -1.34355 C -3.51422 -0.579685 -3.51422 0.658785 -4.25681 1.42265 C -4.99941 2.18652 -6.20339 2.18652 -6.94599 1.42265 C -7.68858 0.658785 -7.68858 -0.579685 -6.94599 -1.34355 C -6.20339 -2.10742 -4.99941 -2.10742 -4.25681 -1.34355 Z M -15.4291 -1.34355 C -14.3744 -2.42849 -13.5747 -2.58786 -13.027 -2.26064 C -11.2708 -1.21134 -12.1055 4.84141 -15.4291 1.42265 C -11.0691 5.90755 -22.4783 5.90755 -18.1183 1.42265 C -22.4783 5.90755 -22.4783 -5.82845 -18.1183 -1.34355 C -22.4783 -5.82845 -11.0691 -5.82845 -15.4291 -1.34355 Z M -4.25681 -1.34355 C -3.20208 -2.42849 -2.40242 -2.58786 -1.85474 -2.26064 C -0.0984961 -1.21134 -0.93325 4.84141 -4.25681 1.42265 C 0.103203 5.90755 -11.306 5.90755 -6.94599 1.42265 C -11.306 5.90755 -11.306 -5.82845 -6.94599 -1.34355 C -11.306 -5.82845 0.103203 -5.82845 -4.25681 -1.34355 Z M 12.6767 -13.692 L 12.6767 -23.3735 L 12.6577 -23.3735 C 12.6683 -23.4683 12.6746 -23.5632 12.6767 -23.6583 C 12.6768 -26.0172 10.1227 -27.9296 6.97214 -27.9296 C 4.35832 -27.7583 2.83143 -26.6815 1.26754 -24.9452 L 1.26754 -26.1594 L 1.24747 -26.1594 C 1.25862 -26.2813 1.26532 -26.4036 1.26754 -26.526 C 1.26754 -29.5638 -1.42839 -32.0264 -4.75399 -32.0264 C -7.79638 -32.0264 -10.3118 -29.9653 -10.7507 -27.4799 C -10.9498 -30.7787 -13.8046 -33.252 -17.3018 -33.252 C -20.9062 -33.252 -23.8281 -30.6248 -23.8281 -27.4101 C -23.8702 -27.5105 -23.8303 -27.7389 -23.8281 -27.8404 C -23.8281 -31.1892 -27.0653 -33.904 -31.0586 -33.904 C -35.0518 -33.904 -38.289 -31.1892 -38.289 -27.8404 C -38.2888 -27.7055 -38.283 -27.5707 -38.272 -27.4362 L -38.289 -27.4362 L -38.289 -26.444 M 44.4491 -61.7545 L 12.6767 -13.692 M 33.9785 -67.2913 L 41.2909 -62.1201 M 16.1467 -42.3711 L 24.3428 -36.5749 M 17.4449 -44.3055 L 25.6572 -38.4978 M 24.3537 -54.7824 L 32.5213 -49.0063 M 25.653 -56.7161 L 33.7651 -50.9792 M 31.7675 -66.0024 L 39.9444 -60.2198 M 7.99247 -29.9224 L 16.1156 -24.1778 M 9.24951 -31.886 L 17.4566 -26.082 M 38.799 -53.0069 C 54.727 -43.5122 69.4558 -33.4151 82.4091 -23.3083 M 40.3951 -55.6917 C 55.6983 -46.5183 69.877 -36.7965 82.4153 -27.0569 M 42.9475 -59.4898 C 57.25 -50.9178 70.5493 -42.3152 82.4189 -33.2432 M 82.3894 0.378499 C 65.9853 -6.23699 54.5105 -21.4323 54.5105 -39.12 C 54.5105 -40.4562 54.576 -41.7782 54.7041 -43.0833 M 82.3943 12.5737 C 74.0342 9.91494 66.3498 5.45324 59.9953 -0.555164 C 49.1783 -10.7832 43.1013 -24.6554 43.1013 -39.12 C 43.1013 -42.7231 43.4784 -46.2895 44.2119 -49.7719 M 82.3904 -2.77854 C 68.1455 -9.28415 58.3136 -23.1123 58.3136 -39.12 C 58.3136 -39.643 58.3241 -40.1637 58.3449 -40.6818 M 82.3912 -5.1676 C 69.4732 -11.5132 60.6417 -24.3354 60.6417 -39.12 M 82.3941 7.59036 C 75.0549 5.1324 68.3114 1.20893 62.6845 -3.98111 C 52.5807 -13.3005 46.9044 -25.9404 46.9044 -39.12 C 46.9044 -41.9747 47.1707 -44.8041 47.6906 -47.58 M 48.3446 -35.1711 C 48.23 -36.4799 48.1721 -37.7972 48.1721 -39.12 C 48.1721 -41.7193 48.3958 -44.2972 48.8333 -46.8316 M 52.1242 -20.5685 C 50.1976 -24.9137 48.9475 -29.5173 48.4357 -34.2408 M 59.8625 -8.45668 C 56.8998 -11.8563 54.4586 -15.5924 52.5872 -19.5569 M 70.2177 0.588495 C 67.8692 -0.965926 65.6479 -2.70672 63.5809 -4.62347 C 62.6892 -5.45038 61.8328 -6.30391 61.0126 -7.18205 M 80.3647 5.84196 C 77.8172 4.84723 75.354 3.66629 72.9992 2.30845 M 49.4916 -36.9684 C 49.4571 -37.6836 49.4398 -38.401 49.4398 -39.12 C 49.4398 -41.1876 49.5803 -43.2245 49.853 -45.223 M 52.4767 -22.8978 C 51.2232 -26.1434 50.3443 -29.5192 49.8651 -32.9684 M 58.8446 -11.4995 C 57.1303 -13.763 55.6349 -16.1547 54.3713 -18.6455 M 68.1549 -2.15304 C 66.8813 -3.13056 65.6537 -4.16883 64.4773 -5.26584 C 64.3531 -5.38169 64.2296 -5.49807 64.1067 -5.61498 M 79.3325 4.37891 C 78.439 3.99578 77.557 3.58862 76.6877 3.15786 M 40.8322 -14.6397 C 46.0711 -11.7702 50.9041 -7.95573 55.1154 -3.2951 C 65.28 7.95409 70.9905 23.2113 70.9905 39.12 C 70.9905 43.6521 70.527 48.1314 69.6292 52.4802 M 40.011 -15.08 C 40.2858 -14.9358 40.5595 -14.789 40.8322 -14.6397 M 17.4628 -20.8594 C 25.3371 -20.7512 33.02 -18.7483 40.011 -15.08 M 69.024 49.4578 C 68.9656 49.8238 68.9038 50.1894 68.8385 50.5546 M 69.4665 46.0743 C 69.4247 46.4816 69.3789 46.8882 69.3291 47.2941 M 69.8089 38.4619 C 69.811 38.6812 69.8122 38.9005 69.8122 39.12 L 69.8122 39.12 C 69.8122 40.7723 69.7576 42.4058 69.6435 44.0254 M 69.7117 35.5068 C 69.7411 36.0353 69.7641 36.5649 69.7807 37.0954 M 69.3769 31.6149 C 69.4566 32.299 69.5255 32.9855 69.5835 33.674 M 68.028 24.025 C 68.5369 26.1407 68.9398 28.2916 69.2329 30.4682 M 67.3077 21.2982 C 67.4563 21.8143 67.5986 22.3328 67.7344 22.8536 M 66.2263 17.9068 C 66.4056 18.4188 66.5785 18.9336 66.7449 19.4511 M 63.1698 10.6824 C 64.0798 12.5002 64.9013 14.369 65.631 16.2805 M 61.7764 8.06133 C 61.9179 8.31249 62.0578 8.56478 62.1958 8.81816 M 59.8672 4.90648 C 60.1427 5.33126 60.4128 5.75979 60.6775 6.19195 M 54.4838 -2.14871 C 56.0861 -0.356205 57.5738 1.53875 58.9414 3.52216 M 52.5135 -4.24222 C 52.7132 -4.04074 52.9116 -3.83744 53.1087 -3.63233 M 50.1732 -6.46931 C 50.4078 -6.25889 50.6409 -6.04613 50.8725 -5.83103 M 43.2295 -11.7441 C 45.0387 -10.5923 46.7897 -9.32021 48.4723 -7.93249 M 40.8188 -13.1883 C 41.0013 -13.0856 41.1834 -12.9817 41.3649 -12.8766 M 38.1355 -14.5947 C 38.3137 -14.508 38.4915 -14.4201 38.6689 -14.3312 M 29.3066 -17.9017 C 31.5399 -17.3011 33.7326 -16.5413 35.871 -15.6285 M 26.5437 -18.5588 C 26.8955 -18.4859 27.2464 -18.4091 27.5964 -18.3285 M 23.3158 -19.114 C 23.6911 -19.0625 24.0656 -19.0066 24.4394 -18.9463 M 16.7894 -19.56 C 18.2882 -19.56 19.7804 -19.4898 21.2624 -19.351 M 68.6332 38.8098 C 68.6332 38.9132 68.6344 39.0166 68.6344 39.12 C 68.6344 40.7119 68.5747 42.2969 68.4565 43.8715 M 68.3439 33.0576 C 68.3515 33.1365 68.3589 33.2154 68.3662 33.2944 M 66.9651 24.6789 C 67.399 26.5253 67.7504 28.3987 68.0169 30.2924 M 62.1672 11.3704 C 63.0107 13.0599 63.776 14.7942 64.4606 16.5665 M 53.6499 -1.22741 C 55.1652 0.468045 56.5755 2.25722 57.8762 4.12772 M 42.5929 -10.6449 C 44.3497 -9.52927 46.0507 -8.29768 47.6859 -6.95462 M 29.1482 -16.6021 C 31.2852 -16.0215 33.3839 -15.2917 35.4317 -14.4183 M 16.5379 -18.2553 C 16.6217 -18.2557 16.7056 -18.256 16.7894 -18.256 C 18.2294 -18.256 19.6632 -18.1897 21.0875 -18.0586 M 67.4544 38.7322 C 67.4557 38.8614 67.4557 38.9907 67.4557 39.12 C 67.4557 40.7559 67.3911 42.3845 67.2635 44.0015 M 65.7858 24.8428 C 66.2383 26.7444 66.6012 28.6756 66.8715 30.6287 M 61.0433 11.8165 C 61.9194 13.5557 62.7105 15.3441 63.4136 17.1736 M 52.6119 -0.533262 C 52.6132 -0.531801 52.6146 -0.530354 52.6158 -0.528893 C 54.2123 1.2379 55.6912 3.11046 57.047 5.07389 M 41.7022 -9.70553 C 43.5732 -8.53639 45.3804 -7.2334 47.1116 -5.80215 M 28.6392 -15.3971 C 30.8728 -14.8024 33.0641 -14.0411 35.1983 -13.1199 M 17.152 -16.9506 C 18.5119 -16.9398 19.8658 -16.8686 21.2109 -16.7382 M 65.9147 38.3439 C 65.918 38.6024 65.9197 38.8611 65.9197 39.12 C 65.9197 40.9053 65.8403 42.6815 65.6838 44.443 M 64.1738 24.7534 C 64.7119 26.9267 65.1288 29.1411 65.4201 31.3843 M 59.4574 12.1647 C 60.468 14.124 61.3664 16.1493 62.1483 18.2283 M 51.045 0.14387 C 51.2076 0.318893 51.3692 0.495285 51.5298 0.673034 C 53.2013 2.52287 54.7399 4.49229 56.1389 6.5631 M 40.2771 -8.63648 C 42.4716 -7.31463 44.5793 -5.80499 46.5796 -4.11694 M 27.6674 -13.9029 C 30.2237 -13.2605 32.7253 -12.3938 35.1485 -11.3133 M 17.5665 -15.2454 C 18.9404 -15.2214 20.3077 -15.1338 21.6652 -14.984 M 64.6373 37.8041 C 64.6472 38.2421 64.652 38.6808 64.652 39.12 C 64.652 41.1153 64.5503 43.099 64.35 45.0626 M 62.7808 24.4532 C 63.4428 26.9956 63.9341 29.5979 64.2467 32.2393 M 58.0443 12.264 C 59.25 14.5326 60.2999 16.8951 61.1864 19.3309 M 49.568 0.521887 C 49.9279 0.896265 50.2831 1.27735 50.6334 1.66506 C 52.4325 3.65614 54.0736 5.78941 55.5478 8.041 M 38.8329 -7.89722 C 41.4659 -6.38539 43.9769 -4.59987 46.3298 -2.5572 M 26.6017 -12.7244 C 29.6196 -12.0248 32.5633 -11.0053 35.3925 -9.68451 M 17.8813 -13.8355 C 19.3633 -13.7981 20.8371 -13.6848 22.2985 -13.4974 M 63.3461 37.0286 C 63.3715 37.724 63.3843 38.4213 63.3843 39.12 C 63.3843 41.4619 63.2404 43.7874 62.9579 46.082 M 61.3069 23.8938 C 62.1715 26.9896 62.7743 30.1821 63.1 33.4306 M 56.4483 12.0507 C 57.9865 14.8109 59.2838 17.7218 60.325 20.7429 M 55.2102 9.94546 C 55.2291 9.97599 55.248 10.0065 55.2669 10.0371 M 47.7459 0.579263 C 48.426 1.24832 49.09 1.9411 49.737 2.65711 C 51.7741 4.9115 53.603 7.35314 55.2102 9.94546 M 36.7265 -7.4875 C 40.1722 -5.68231 43.4228 -3.40667 46.3971 -0.697723 M 36.021 -7.84916 C 36.257 -7.73079 36.4922 -7.61023 36.7265 -7.4875 M 25.0153 -11.6366 C 28.8215 -10.8811 32.5178 -9.60589 36.021 -7.84916 M 18.3553 -12.4172 C 20.052 -12.3542 21.737 -12.1888 23.4034 -11.9244 M 20.6557 -5.868 C 46.2705 -5.216 61.1795 19.312 58.3136 45.64 M 23.2196 0.645689 C 39.6719 3.9919 52.1379 19.9448 52.1379 39.12 C 52.1379 39.68 52.1273 40.2373 52.1063 40.7916 M 25.389 5.21337 C 38.368 9.23674 47.9934 22.142 48.5752 37.6322 M 64.6629 3.40283 C 71.0448 13.8798 74.5253 26.3013 74.5253 39.12 C 74.5253 44.2386 73.9651 49.2226 72.892 54.116 M 20.0019 -24.6771 C 30.8619 -24.0078 41.2865 -19.959 50.0996 -13.0698 M 71.0492 7.62314 C 75.6127 17.2523 78.0602 28.0465 78.0602 39.12 C 78.0602 44.7514 77.4272 50.3106 76.2049 55.6811 M 67.8213 20.212 C 68.0232 21.0879 66.3921 22.2359 64.1782 22.776 C 61.9642 23.3161 60.0057 23.0439 59.8037 22.168 C 59.6017 21.2921 61.2328 20.1441 63.4468 19.604 C 65.6608 19.0639 67.6193 19.3361 67.8213 20.212 Z M 60.1007 21.3379 C 60.3034 20.4832 61.0365 19.322 62.1167 18.256 C 63.7586 16.6356 65.5808 15.8486 66.1867 16.4982 C 66.6423 16.9867 66.354 18.0727 65.4483 19.3079 M 66.3575 22.0123 C 67.6045 22.5107 68.2117 23.2035 68.1079 23.8212 C 67.9589 24.7083 66.0205 25.1043 63.7783 24.7059 C 61.9222 24.376 60.4399 23.6051 60.0689 22.8462 M 70.3566 34.556 C 70.4058 35.4548 68.604 36.2901 66.3322 36.4216 C 64.0604 36.5532 62.1789 35.9312 62.1297 35.0324 C 62.0805 34.1336 63.8823 33.2983 66.1541 33.1668 C 68.4259 33.0352 70.3075 33.6572 70.3566 34.556 Z M 62.5639 34.2689 C 62.9094 33.4641 63.8294 32.4535 65.0749 31.5993 C 66.9681 30.3009 68.8964 29.8555 69.3819 30.6046 C 69.747 31.1678 69.2776 32.1848 68.175 33.2371 M 68.6081 36.0637 C 69.7506 36.7797 70.2299 37.5715 70.0223 38.1608 C 69.7241 39.0072 67.7482 39.0467 65.6089 38.2492 C 63.8381 37.589 62.5105 36.5621 62.2749 35.7479 M 70.21 48.6288 C 70.033 49.5105 68.0831 49.8415 65.8547 49.3683 C 63.6263 48.8951 61.9632 47.7968 62.1402 46.9151 C 62.3171 46.0335 64.267 45.7024 66.4955 46.1756 C 68.7239 46.6489 70.3869 47.7472 70.21 48.6288 Z M 62.7505 46.292 C 63.2854 45.6055 64.4269 44.872 65.844 44.3756 C 67.9979 43.6211 69.9727 43.7002 70.2548 44.5524 C 70.467 45.1932 69.7594 46.052 68.431 46.7776 M 62.2465 48.2415 C 62.1567 48.0253 62.1069 47.8241 62.1018 47.645 M 68.1436 49.6238 C 69.0689 50.6178 69.3344 51.5097 68.9865 52.0243 M 62.1167 6.52 C 62.5897 7.27735 61.4214 8.91703 59.5071 10.1823 C 57.5929 11.4476 55.6575 11.8593 55.1844 11.102 C 54.7113 10.3446 55.8796 8.70494 57.7939 7.43969 C 59.7082 6.17441 61.6436 5.76265 62.1167 6.52 Z M 55.1968 10.2175 C 55.1123 9.34206 55.4292 7.99645 56.1043 6.6221 C 57.1305 4.53304 58.5955 3.16864 59.3766 3.57463 C 59.964 3.87991 60.0424 5.00277 59.5865 6.47716 M 61.3166 8.71794 C 62.6537 8.76242 63.45 9.20874 63.5514 9.82681 C 63.697 10.7145 61.9962 11.7498 59.7525 12.1393 C 57.8952 12.4617 56.2482 12.2405 55.6533 11.6512 M 52.609 -5.868 C 53.2046 -5.20846 52.3361 -3.38237 50.669 -1.78933 C 49.002 -0.196312 47.1677 0.560433 46.572 -0.0991014 C 45.9764 -0.75864 46.8449 -2.58472 48.512 -4.17774 C 50.1791 -5.77078 52.0133 -6.52754 52.609 -5.868 Z M 46.4325 -0.971914 C 46.199 -1.81825 46.28 -3.20028 46.7086 -4.67564 C 47.3601 -6.91824 48.568 -8.52727 49.4065 -8.26951 C 50.037 -8.07569 50.3069 -6.9847 50.1112 -5.45067 M 52.1987 -3.55929 C 53.5225 -3.75834 54.3829 -3.46363 54.5887 -2.87369 C 54.8844 -2.02639 53.388 -0.698468 51.2464 0.0923493 C 49.4736 0.746957 47.8145 0.82834 47.1278 0.356331 M 40.5659 -14.996 C 41.3013 -14.5079 40.8974 -12.5179 39.6637 -10.5512 C 38.4301 -8.58447 36.8339 -7.38578 36.0985 -7.87384 C 35.3632 -8.36191 35.7671 -10.3519 37.0007 -12.3186 C 38.2344 -14.2854 39.8306 -15.4841 40.5659 -14.996 Z M 35.754 -8.68429 C 35.3248 -9.44525 35.072 -10.8051 35.1336 -12.3437 C 35.2274 -14.6823 36.0122 -16.548 36.8866 -16.5109 C 37.5441 -16.483 38.0672 -15.4942 38.2453 -13.9579 M 40.7218 -12.6545 C 41.957 -13.1832 42.8614 -13.1159 43.2024 -12.5964 C 43.6921 -11.8503 42.5603 -10.1838 40.6744 -8.87409 C 39.1133 -7.78998 37.5249 -7.29022 36.7464 -7.57347 M 25.7812 -19.8259 C 26.6308 -19.6098 26.8768 -17.5927 26.3307 -15.3205 C 25.7846 -13.0484 24.6532 -11.3816 23.8036 -11.5976 C 22.954 -11.8137 22.708 -13.8308 23.2541 -16.1029 C 23.8002 -18.3751 24.9317 -20.0419 25.7812 -19.8259 Z M 23.222 -12.2491 C 22.5759 -12.8255 21.9075 -14.0273 21.4803 -15.5031 C 20.8308 -17.7463 20.9843 -19.7731 21.8231 -20.03 C 22.4538 -20.2232 23.2606 -19.4626 23.914 -18.0691 M 26.6677 -17.6633 C 27.6691 -18.5758 28.5458 -18.8142 29.0323 -18.4367 C 29.7309 -17.8945 29.1864 -15.9403 27.816 -14.0718 C 26.6816 -12.5251 25.337 -11.5219 24.5112 -11.5298 M 26.9 1.60469 L 28.6913 -4.84439 M 33.6213 4.6772 L 37.0792 -1.54736 M 39.0276 8.66119 L 43.9169 3.17456 M 43.9463 13.9429 L 49.7977 9.77585 M 48.1778 20.9546 L 54.5064 18.1647 M 50.8392 28.4001 L 57.3991 27.0505 M 52.0588 35.208 L 58.5352 35.208 M 22.7036 -0.779282 L 28.685 -4.82173 L 33.6213 4.6772 L 43.9169 3.17456 L 43.9463 13.9429 L 54.5064 18.1647 L 50.8392 28.4001 L 58.5253 35.208 L 53.1147 41.6709 M 20.6557 -5.868 L 26.9 1.60469 L 37.0792 -1.54736 L 39.0276 8.66119 L 49.7977 9.77585 L 48.1778 20.9546 L 57.3506 27.0605 L 52.0588 35.208 L 58.5826 42.3066 L 56.5039 44.3551 M 53.5363 41.9358 L 58.6148 42.309 M 77.9628 56.4378 L 77.9628 24.776 M 79.8643 57.224 L 79.8643 26.08 M 81.7659 58.0269 L 81.7659 27.384 M 51.3121 -19.4199 C 55.9753 -20.8003 54.507 -13.1761 60.9509 -17.253 M 55.7754 -29.0459 C 48.5556 -25.5454 55.1097 -22.5623 51.2254 -19.6177 M 59.7575 -6.88514 C 63.4776 -8.69683 64.2623 -1.63686 69.2622 -7.46192 M 60.9934 -17.1767 C 55.1909 -11.9367 61.5038 -10.8209 59.4615 -7.26067 M 71.4103 2.55939 C 74.3252 0.989697 76.8148 6.5804 80.0131 -0.550957 M 69.4473 -7.41297 C 65.2815 -1.03275 70.7777 -1.26106 70.5427 2.04638 M 80.0125 -0.550957 C 77.6467 5.77783 80.8405 5.79663 82.4203 7.38243 M 47.1464 -34.4692 C 52.3188 -34.4086 48.3232 -27.496 55.7448 -29.1742 M 54.5232 -42.0568 C 46.6317 -41.1153 52.0938 -36.002 47.1328 -34.613 M 49.6727 -46.2173 C 50.1068 -44.2274 49.8628 -41.9013 54.5232 -42.0822 M 54.8053 -34.2779 C 53.7451 -33.9683 52.6701 -33.6876 51.3413 -33.904 M 52.609 -37.164 C 52.6832 -34.894 53.7237 -34.8428 54.7488 -34.7565 M 54.813 -33.9028 C 53.8488 -33.2469 52.76 -32.4004 52.609 -31.296 M 57.8736 -23.0578 C 56.8719 -22.391 55.8792 -21.715 54.4364 -21.507 M 54.7239 -25.0057 C 55.5005 -22.6717 56.6248 -23.1835 57.7131 -23.4012 M 57.8983 -22.7224 C 57.1283 -21.7778 56.2091 -20.5657 56.3889 -19.3932 M 64.9762 -11.8212 C 64.647 -10.7401 64.2859 -9.66222 63.3822 -8.6383 M 61.4264 -11.5159 C 63.4282 -10.2632 63.9948 -11.3164 64.6734 -12.1896 M 65.2888 -11.3606 C 65.3082 -10.2342 65.442 -8.98093 66.1976 -8.2994 M 74.9208 -3.40222 C 74.63 -2.53316 74.2541 -1.67258 73.5255 -0.847073 M 71.5697 -3.72465 C 73.1096 -2.76098 73.8003 -3.16192 74.3459 -3.79579 M 75.4477 -3.10321 C 75.4996 -2.11174 75.6884 -1.09676 76.3409 -0.508177 M 79.507 -25.4884 C 78.0273 -22.5387 80.6775 -19.2496 82.4046 -17.7611 M 76.0083 -28.2052 C 70.3506 -29.3206 61.1407 -30.4153 62.1167 -33.904 C 62.4942 -35.0691 63.5464 -36.0028 64.3356 -36.5675 M 65.4639 -30.4875 C 60.3403 -26.3994 63.945 -24.2512 79.0785 -23.5551 M 67.2053 -24.8567 C 63.7087 -17.2054 72.8146 -20.6327 79.3963 -21.8411 M 69.6721 -20.0037 C 67.9966 -12.9266 73.5328 -15.5493 80.4158 -19.9836 M 72.3239 -15.7392 C 73.3173 -8.12191 77.1797 -12.0846 81.64 -18.4602 M 75.9675 -12.0085 C 79.503 -2.7548 80.9035 -11.4999 82.3989 -16.9057 M 80.158 -9.37689 C 81.193 -7.16769 81.9093 -6.15008 82.4029 -5.95911 M 30.9031 -26.0927 L 30.7163 -25.8091 M 39.448 -39.068 L 39.1252 -38.5778 M 32.3753 -25.7514 L 31.5193 -24.4515 M 40.9717 -38.8047 L 39.904 -37.1834 M 34.2325 -25.9945 L 32.0126 -22.6236 M 43.051 -39.3852 L 40.3222 -35.2416 M 36.9934 -27.6099 L 33.3671 -22.1034 M 43.1494 -36.9576 L 39.7966 -31.8664 M 38.0305 -39.772 C 43.9977 -34.8616 37.0445 -23.5949 30.9209 -26.0995 C 30.5398 -26.2554 30.1619 -26.4646 29.7906 -26.732 M 43.0591 -39.2211 C 41.4467 -38.5449 39.6747 -38.5882 38.0305 -39.772 M 29.7906 -26.732 C 31.1625 -25.603 31.8515 -24.138 32.0245 -22.5816 M 72.2619 -83.5525 C 74.5373 -83.5525 76.3819 -80.0496 76.3819 -75.7285 C 76.3819 -71.4075 74.5373 -67.9045 72.2619 -67.9045 C 69.9865 -67.9045 68.1419 -71.4075 68.1419 -75.7285 C 68.1419 -80.0496 69.9865 -83.5525 72.2619 -83.5525 Z M 72.2619 -97.8038 L 75.9748 -93.9845 L 72.2619 -90.1652 L 68.5489 -93.9845 L 72.2619 -97.8038 Z M 72.2619 -120.065 C 74.5373 -120.065 76.3819 -116.562 76.3819 -112.241 C 76.3819 -107.919 74.5373 -104.417 72.2619 -104.417 C 69.9865 -104.417 68.1419 -107.919 68.1419 -112.241 C 68.1419 -116.562 69.9865 -120.065 72.2619 -120.065 Z M 74.3062 -62.5947 C 77.2925 -64.2684 79.4719 -69.5151 79.4719 -75.7285 C 79.4698 -80.9559 77.9006 -85.7249 75.4274 -88.02 L 81.2258 -93.9845 L 75.4229 -99.9536 C 77.8971 -102.246 79.4681 -107.013 79.4719 -112.241 C 79.4719 -119.802 76.2439 -125.933 72.2619 -125.933 C 68.2799 -125.933 65.0519 -119.802 65.0519 -112.241 C 65.0539 -107.013 66.6232 -102.244 69.0964 -99.9491 L 63.2979 -93.9845 L 69.1008 -88.0154 C 66.6267 -85.7235 65.0557 -80.9562 65.0519 -75.7285 C 65.0519 -71.3181 66.15 -67.3947 67.8553 -64.8906 M 56.4775 -54.7779 C 56.7587 -56.5273 57.8974 -59.975 58.9474 -60.636 C 60.1556 -61.3965 64.652 -65.2 66.5536 -65.2 C 68.4551 -65.2 70.3566 -62.592 74.1597 -62.592 C 77.3289 -62.592 76.6951 -59.984 74.1597 -59.984 C 71.6243 -59.984 69.7228 -60.636 69.7228 -60.636 C 67.8191 -58.4384 66.5371 -58.6355 65.2859 -58.028 C 64.0042 -57.4057 67.1874 -58.68 67.8213 -57.376 C 68.3809 -56.2247 65.9759 -50.4991 65.405 -49.1741 M 75.9716 -60.5597 C 78.2199 -60.3245 79.8643 -59.5719 79.8643 -58.68 C 79.8643 -57.5997 77.4522 -56.724 74.4766 -56.724 C 71.5011 -56.724 69.089 -57.5997 69.089 -58.68 C 69.089 -59.3217 69.94 -59.8911 71.2546 -60.2478 M 75.7836 -56.8154 C 78.0431 -56.8539 79.7623 -56.3057 79.8643 -55.42 C 79.9879 -54.3472 77.6927 -53.1856 74.7379 -52.8253 C 71.783 -52.4651 69.2874 -53.0427 69.1638 -54.1155 C 69.0904 -54.7527 70.3566 -56.072 73.5259 -56.724 M 75.8393 -52.89 C 78.0988 -52.9286 79.8179 -52.3804 79.92 -51.4947 C 80.0436 -50.4219 77.7484 -49.2602 74.7936 -48.9 C 71.8387 -48.5398 69.3431 -49.1174 69.2195 -50.1901 C 69.1488 -50.8043 70.3226 -52.0523 73.2457 -52.7255 M 75.7204 -48.8872 C 77.7033 -48.6695 79.8705 -47.7258 79.8643 -46.8515 C 79.8568 -45.7925 77.7217 -44.9201 75.0954 -44.9029 C 72.469 -44.8858 70.3459 -45.7304 70.3534 -46.7893 C 70.3577 -47.3956 71.5201 -48.4787 74.1524 -48.8044 M 35.5033 -108.319 C 35.5095 -104.957 34.2327 -101.81 34.3542 -101.06 C 34.5627 -99.7737 40.6588 -89.3015 40.9462 -87.368 C 41.4709 -83.8379 36.2435 -83.7892 36.0022 -83.3256 C 35.833 -83.0004 36.129 -80.848 36.129 -80.848 C 36.129 -80.196 34.8613 -78.24 34.8613 -78.24 C 34.8613 -78.24 34.8613 -76.936 35.4952 -76.284 C 36.129 -75.632 32.3259 -73.676 32.3259 -73.676 C 32.3259 -73.676 34.2275 -71.068 34.2275 -69.764 C 34.2275 -68.46 33.5936 -66.504 30.4244 -66.504 C 27.2552 -66.504 23.4521 -67.156 20.9167 -67.156 C 18.3814 -67.156 11.4091 -70.416 10.1414 -70.416 M 2.73583 -69.0121 C 3.70035 -68.5402 7.90615 -66.5812 10.1414 -67.156 C 11.7703 -67.5749 13.9225 -68.2629 15.2532 -68.7014 M 34.8613 -78.892 C 34.8613 -78.892 32.9598 -79.2832 32.3259 -79.2832 C 31.6921 -79.2832 31.0583 -77.588 29.7906 -77.588 C 28.5229 -77.588 28.5229 -76.936 28.5229 -76.936 C 28.4444 -76.8948 31.4262 -76.4633 32.3259 -77.588 C 32.7287 -78.0915 34.8846 -77.8794 34.8846 -77.8794 M 25.3536 -78.892 C 27.2552 -78.892 29.7914 -82.3663 31.0583 -82.4128 L 34.2275 -82.5432 L 33.7204 -81.5 C 33.7204 -81.5 32.0724 -81.2392 31.4386 -81.2392 C 30.8047 -81.2392 28.5229 -78.24 27.2552 -78.24 C 25.9875 -78.24 25.3536 -78.892 25.3536 -78.892 Z M 33.2133 -88.5416 C 31.2967 -88.5283 29.8676 -83.9888 33.2133 -84.4992 C 36.512 -85.0025 38.8242 -86.817 36.7629 -86.716 C 34.1007 -86.5856 33.0866 -85.2816 32.5795 -84.6296 M 32.833 -104.711 L 31.8189 -103.668 C 31.8189 -103.668 27.889 -105.233 25.734 -104.972 C 23.6844 -104.724 15.846 -100.669 15.846 -100.669 C 17.6207 -103.016 26.8749 -108.754 32.833 -104.711 Z M 18.3814 -97.0176 C 22.438 -96.3656 24.3395 -101.06 31.4386 -101.06 M 22.8183 -98.1912 C 18.7617 -94.4096 31.185 -95.5832 31.185 -95.5832 M -18.6457 -104.393 C -16.417 -96.1584 -25.2333 -90.9395 -24.0863 -81.5 C -23.4524 -76.284 -15.2124 -76.936 -15.2124 -81.5 C -15.2124 -84.76 -19.0155 -84.108 -19.0155 -82.152 C -19.0155 -80.196 -17.7478 -79.544 -17.7478 -79.544 M -16.0895 -104.942 C -13.571 -96.5387 -22.6079 -91.3087 -21.4474 -81.759 C -21.1475 -79.2912 -19.452 -78.8087 -17.7485 -79.4686 M -13.9867 -105.384 C -10.7794 -96.7371 -19.8205 -91.6328 -19.0155 -82.152 M -11.6138 -105.797 C -8.19287 -97.4395 -16.3252 -92.3154 -16.671 -83.7629 M -9.29122 -106.281 C -5.39242 -97.5588 -14.86 -90.8694 -15.2124 -82.152 M -7.23506 -106.588 C -3.06994 -97.4695 -13.0915 -91.1609 -13.1998 -82.532 C -13.3109 -73.676 -3.80322 -75.632 -3.80322 -80.196 C -3.80322 -84.76 -10.373 -84.975 -10.1417 -80.848 C -9.9103 -76.721 -5.25895 -79.1928 -6.3386 -80.196 M -4.64139 -107.051 C -0.971507 -98.414 -10.5351 -91.6871 -10.6428 -83.1068 C -10.6683 -81.0741 -10.1547 -79.7181 -9.34828 -78.8904 M -1.99886 -107.435 C 1.23843 -99.1627 -7.4641 -91.8446 -8.19284 -83.7214 M -3.79736 -80.1739 C 0.058274 -72.8888 10.7752 -76.5618 10.7752 -82.152 C 10.7752 -89.3536 3.80292 -88.02 3.80292 -83.456 C 3.80292 -78.9377 9.50752 -81.5 6.97214 -84.108 M 0.661698 -107.794 C 3.55457 -99.372 -5.07091 -89.6929 -5.07091 -84.76 C -5.07091 -84.0959 -4.90826 -83.482 -4.77929 -82.9064 M 3.08594 -108.109 C 6.28603 -99.7616 -2.68648 -91.5288 -1.90169 -83.456 C -1.26784 -76.936 8.23983 -77.9621 8.23983 -81.5 C 8.23983 -82.804 6.97214 -84.108 6.97214 -84.108 M 5.5679 -108.38 C 9.65547 -97.2628 -5.35018 -85.2693 4.85109 -81.165 M -20.8629 -68.3459 C -24.8035 -64.803 -31.0586 -66.7832 -31.0586 -71.068 C -31.0586 -78.2696 -24.7143 -76.284 -24.7201 -73.024 C -24.7249 -70.3434 -28.5232 -70.416 -28.5232 -73.676 M -17.7569 -78.1631 C -17.6398 -75.8454 -17.8874 -73.9223 -18.3881 -72.3518 M -19.5999 -77.8584 C -18.296 -70.0838 -28.4157 -66.072 -29.157 -71.068 C -29.2527 -71.7125 -29.157 -72.372 -28.5232 -73.676 M -21.1215 -78.0276 C -21.5429 -74.5571 -23.7518 -70.3435 -26.6216 -71.068 M -9.70176 -67.2162 C -13.6579 -62.7396 -20.917 -63.0539 -20.917 -69.112 C -20.917 -73.078 -14.5786 -73.676 -14.5786 -70.416 C -14.5786 -66.504 -18.3817 -67.808 -18.3817 -69.112 M -7.38288 -76.4445 C -7.21889 -75.4098 -7.17047 -74.4364 -7.21997 -73.5259 M -9.35083 -76.3831 C -9.25681 -74.6313 -9.38427 -71.4111 -10.7755 -69.764 C -14.4939 -65.3618 -18.1929 -67.8225 -18.3817 -69.112 C -18.4779 -69.7698 -18.1704 -70.0527 -17.7478 -70.416 M -10.9221 -77.006 C -11.6755 -71.2154 -13.1316 -67.6283 -15.8253 -67.9223 M -12.2971 -78.4181 C -12.9741 -75.4569 -13.6967 -72.6564 -14.5786 -70.416 M -13.1242 -81.2783 C -14.0582 -78.2444 -15.3827 -74.7662 -16.6352 -72.5214 M 4.99286 -76.3633 C 3.65661 -61.3598 -10.8949 -62.7908 -10.1417 -69.764 C -9.50783 -75.632 -3.94992 -73.6725 -3.80322 -70.416 C -3.65306 -67.0829 -7.60629 -67.156 -7.60629 -69.764 M 3.0741 -76.12 C 2.22707 -70.6615 -2.90147 -63.7217 -6.49144 -67.9572 M 1.09444 -76.2702 C 0.483993 -72.3107 -0.894496 -69.2506 -4.30438 -68.5694 M -0.840609 -77.0689 C -1.35767 -74.0117 -2.61547 -72.0464 -3.83817 -70.4989 M -2.60582 -78.4889 C -2.84738 -76.1967 -3.6392 -74.0948 -4.51764 -72.211 M -5.59697 -77.1381 C -5.32451 -75.8356 -5.37769 -74.4912 -5.57928 -73.1277 M -39.376 -130.479 C -32.276 -123.153 -24.1587 -114.443 -19.0155 -104.32 C -0.794894 -108.286 17.9615 -110.407 36.129 -108.232 C 42.0597 -116.471 49.6992 -123.639 57.9788 -130.405 M -21.495 -108.781 C -6.32698 -115.107 23.9716 -118.772 39.1466 -112.208"
       id="path1605"
       style="display:inline"
       inkscape:label="layer-16" />
    <path
       stroke="#4444ff"
       stroke-linecap="round"
       stroke-linejoin="round"
       stroke-width="0.3857150481897226"
       fill="none"
       d="M 72.892 -62.592 C 72.892 -61.288 76.0612 -61.288 76.0612 -61.288 M 71.2546 -60.2478 C 72.0222 -59.099 71.3926 -57.2952 71.2546 -57.376 M 71.2504 -55.5103 C 72.018 -54.3615 71.3884 -52.5577 71.2504 -52.6385 M 71.4419 -51.9195 C 72.2095 -50.7707 71.5799 -48.9669 71.4419 -49.0477 M 72.5181 -48.3383 C 73.2857 -47.1895 72.6561 -45.3857 72.5181 -45.4665 M 74.7936 -59.332 C 75.1506 -58.7596 74.9798 -58.3908 74.7936 -58.028 M 75.2189 -55.4046 C 75.5759 -54.8322 75.4051 -54.4634 75.2189 -54.1006 M 75.2189 -51.4926 C 75.5759 -50.9202 75.4051 -50.5514 75.2189 -50.1886 M 75.2189 -47.5806 C 75.5759 -47.0082 75.4051 -46.6394 75.2189 -46.2766 M 36.0022 -80.196 C 34.6302 -80.0577 33.0762 -80.3759 31.8189 -79.1528 M 29.1567 -95.4528 C 28.2693 -95.3224 26.7481 -93.1056 26.7481 -93.1056 M 28.0713 -100.63 C 28.3529 -100.096 28.5229 -99.4037 28.5229 -98.6476 C 28.5229 -96.9552 27.6715 -95.5832 26.6213 -95.5832 C 25.5712 -95.5832 24.7198 -96.9552 24.7198 -98.6476 C 24.7198 -98.8939 24.7378 -99.1334 24.7719 -99.3629 M 17.2404 -98.7128 C 20.79 -98.7128 24.593 -102.755 27.0016 -102.755 C 28.4594 -102.755 28.5229 -101.06 28.5229 -101.06"
       id="path1595"
       style="display:inline"
       inkscape:label="layer-17" />
    <path
       id="path1672"
       d="M 18.6562 -37.2686 C 18.2419 -35.1762 19.289 -33.0794 18.0592 -31.1859 C 17.828 -30.8299 17.4243 -30.6243 17.0003 -30.6465 C 16.5763 -30.6687 16.1963 -30.9154 16.0036 -31.2937 C 15.8108 -31.6719 15.8345 -32.1243 16.0658 -32.4803 C 16.0812 -32.504 16.0827 -32.5342 16.0699 -32.5594 C 16.057 -32.5846 16.0317 -32.6011 16.0034 -32.6026 C 15.9752 -32.604 15.9483 -32.5903 15.9329 -32.5666 C 15.0698 -31.2378 15.3373 -30.9225 15.2048 -30.0639 L 13.4772 -31.1857 C 14.2077 -31.6559 14.6047 -31.5399 15.4677 -32.8686 C 15.4831 -32.8923 15.4847 -32.9225 15.4719 -32.9477 C 15.459 -32.9729 15.4337 -32.9894 15.4054 -32.9909 C 15.3771 -32.9923 15.3502 -32.9786 15.3348 -32.9549 C 15.1036 -32.5989 14.6999 -32.3932 14.2759 -32.4154 C 13.8519 -32.4377 13.4719 -32.6844 13.2792 -33.0626 C 13.0864 -33.4409 13.1101 -33.8932 13.3414 -34.2493 C 14.5712 -36.1427 16.9129 -36.0391 18.6562 -37.2686 Z M 26.8962 -50.0478 C 26.4819 -47.9554 27.529 -45.8586 26.2992 -43.9651 C 26.068 -43.6091 25.6643 -43.4035 25.2403 -43.4257 C 24.8163 -43.4479 24.4363 -43.6946 24.2436 -44.0729 C 24.0508 -44.4511 24.0745 -44.9035 24.3058 -45.2595 C 24.3212 -45.2832 24.3228 -45.3134 24.3099 -45.3386 C 24.2971 -45.3638 24.2717 -45.3803 24.2435 -45.3818 C 24.2152 -45.3832 24.1883 -45.3695 24.1729 -45.3458 C 23.3098 -44.017 23.5773 -43.7017 23.4448 -42.8431 L 21.7172 -43.9649 C 22.4477 -44.4351 22.8447 -44.3191 23.7077 -45.6478 C 23.7231 -45.6715 23.7247 -45.7017 23.7119 -45.7269 C 23.699 -45.7521 23.6737 -45.7686 23.6454 -45.7701 C 23.6172 -45.7715 23.5902 -45.7578 23.5748 -45.7341 C 23.2173 -45.1838 22.4813 -45.0275 21.9309 -45.3848 C 21.3805 -45.7422 21.224 -46.4781 21.5814 -47.0285 C 22.8112 -48.9219 25.1529 -48.8183 26.8962 -50.0478 Z M 35.2478 -62.3579 C 34.7607 -60.2812 35.734 -58.1492 34.4388 -56.2998 C 34.0623 -55.7623 33.3213 -55.6317 32.7837 -56.0081 C 32.2461 -56.3845 32.1154 -57.1253 32.4918 -57.6629 C 32.5169 -57.6987 32.5082 -57.7481 32.4723 -57.7732 C 32.4365 -57.7983 32.3871 -57.7896 32.362 -57.7538 C 31.4531 -56.4559 31.7094 -56.1314 31.547 -55.278 L 29.8596 -56.4594 C 30.6061 -56.9039 30.9988 -56.774 31.9077 -58.0718 C 31.9327 -58.1077 31.924 -58.157 31.8882 -58.1821 C 31.8523 -58.2072 31.803 -58.1985 31.7778 -58.1627 C 31.4013 -57.6252 30.6603 -57.4946 30.1227 -57.871 C 29.5851 -58.2474 29.4544 -58.9883 29.8308 -59.5258 C 31.126 -61.3752 33.4626 -61.19 35.2478 -62.3579 Z"
       style="display:inline"
       inkscape:label="layer-13" />
    <path
       d="M -63.928 -127.52 C -59.288 -115.92 -47.456 -108.96 -47.456 -95.736 C -47.456 -93.2494 -48.7826 -90.9517 -50.936 -89.7085 C -53.0894 -88.4652 -55.7426 -88.4652 -57.896 -89.7085 C -60.0494 -90.9517 -61.376 -93.2494 -61.376 -95.736 C -61.376 -95.9018 -61.4644 -96.055 -61.608 -96.1378 C -61.7516 -96.2207 -61.9284 -96.2207 -62.072 -96.1378 C -62.2156 -96.055 -62.304 -95.9018 -62.304 -95.736 C -62.304 -86.456 -59.984 -85.76 -57.896 -81.12 L -69.96 -81.12 C -67.872 -85.76 -65.552 -86.456 -65.552 -95.736 C -65.552 -95.9018 -65.6404 -96.055 -65.784 -96.1378 C -65.9276 -96.2207 -66.1044 -96.2207 -66.248 -96.1378 C -66.3916 -96.055 -66.48 -95.9018 -66.48 -95.736 C -66.48 -93.2494 -67.8066 -90.9517 -69.96 -89.7085 C -72.1134 -88.4652 -74.7666 -88.4652 -76.92 -89.7085 C -79.0734 -90.9517 -80.4 -93.2494 -80.4 -95.736 C -80.4 -108.96 -68.568 -115.92 -63.928 -127.52 Z"
       fill="#000000"
       id="path1591"
       style="display:none" />
  </g>
</svg>
