<?xml version="1.0" encoding="UTF-8" standalone="no"?>
<svg
   class="card"
   face="KC"
   height="3.5in"
   preserveAspectRatio="none"
   viewBox="-120 -168 240 336"
   width="2.5in"
   version="1.1"
   id="svg77"
   sodipodi:docname="k-club.svg"
   inkscape:version="1.2.2 (b0a8486541, 2022-12-01)"
   xmlns:inkscape="http://www.inkscape.org/namespaces/inkscape"
   xmlns:sodipodi="http://sodipodi.sourceforge.net/DTD/sodipodi-0.dtd"
   xmlns="http://www.w3.org/2000/svg"
   xmlns:svg="http://www.w3.org/2000/svg">
  <sodipodi:namedview
     id="namedview79"
     pagecolor="#505050"
     bordercolor="#eeeeee"
     borderopacity="1"
     inkscape:showpageshadow="0"
     inkscape:pageopacity="0"
     inkscape:pagecheckerboard="0"
     inkscape:deskcolor="#505050"
     inkscape:document-units="in"
     showgrid="false"
     inkscape:zoom="3.0565476"
     inkscape:cx="120.23369"
     inkscape:cy="168.65433"
     inkscape:window-width="1278"
     inkscape:window-height="1368"
     inkscape:window-x="0"
     inkscape:window-y="0"
     inkscape:window-maximized="0"
     inkscape:current-layer="layer1" />
  <defs
     id="defs33" />
  <g
     inkscape:groupmode="layer"
     id="layer1"
     inkscape:label="Layer 1">
    <path
       d="M 1,0 0,1 -1,0 0,-1"
       id="path1736"
       fill="#ff0000"
       inkscape:label="layer-0"
       style="display:inline;stroke-width:0.264583" />
    <path
       fill="#ffcc44"
       d="M -42.3556 -26.1747 C -43.9481 -26.1747 -45.4858 -25.9331 -46.9327 -25.4744 C -46.9938 -21.848 -47.0042 -18.2537 -46.9745 -14.6827 C -50.811 -14.2487 -54.4826 -13.4165 -58.0294 -12.2484 C -58.1457 -11.4612 -58.2017 -10.6748 -58.2017 -9.87474 C -58.2017 -7.34863 -57.643 -4.9567 -56.6302 -2.85658 C -45.7643 -5.70481 -37.9424 -5.78959 -27.7363 -3.6405 C -26.9376 -5.55471 -26.5095 -7.66336 -26.5095 -9.87474 C -26.5095 -11.103 -26.6414 -12.2994 -26.9024 -13.4348 C -30.524 -14.2549 -33.9924 -14.751 -37.3284 -14.9476 C -37.4768 -18.4797 -37.6778 -22.0051 -37.9236 -25.5222 C -39.3195 -25.9476 -40.8118 -26.1747 -42.3556 -26.1747 Z M -42.4678 -17.604 C -41.9634 -17.604 -41.4798 -17.3979 -41.1232 -17.0311 C -40.7666 -16.6643 -40.5662 -16.1668 -40.5662 -15.648 C -40.5662 -15.1292 -40.7666 -14.6317 -41.1232 -14.2649 C -41.4798 -13.8981 -41.9634 -13.692 -42.4678 -13.692 C -42.9721 -13.692 -43.4557 -13.8981 -43.8124 -14.2649 C -44.169 -14.6317 -44.3693 -15.1292 -44.3693 -15.648 C -44.3693 -16.1668 -44.169 -16.6643 -43.8124 -17.0311 C -43.4557 -17.3979 -42.9721 -17.604 -42.4678 -17.604 Z M -48.8062 -11.736 C -48.3019 -11.736 -47.8182 -11.5299 -47.4616 -11.1631 C -47.105 -10.7963 -46.9047 -10.2988 -46.9047 -9.78 C -46.9047 -9.26124 -47.105 -8.76372 -47.4616 -8.3969 C -47.8182 -8.03008 -48.3019 -7.824 -48.8062 -7.824 C -49.3105 -7.824 -49.7942 -8.03008 -50.1508 -8.3969 C -50.5074 -8.76372 -50.7078 -9.26124 -50.7078 -9.78 C -50.7078 -10.2988 -50.5074 -10.7963 -50.1508 -11.1631 C -49.7942 -11.5299 -49.3105 -11.736 -48.8062 -11.736 Z M -36.1293 -11.736 C -35.625 -11.736 -35.1413 -11.5299 -34.7847 -11.1631 C -34.4281 -10.7963 -34.2278 -10.2988 -34.2278 -9.78 C -34.2278 -9.26124 -34.4281 -8.76372 -34.7847 -8.3969 C -35.1413 -8.03008 -35.625 -7.824 -36.1293 -7.824 C -36.6336 -7.824 -37.1173 -8.03008 -37.4739 -8.3969 C -37.8305 -8.76372 -38.0309 -9.26124 -38.0309 -9.78 C -38.0309 -10.2988 -37.8305 -10.7963 -37.4739 -11.1631 C -37.1173 -11.5299 -36.6336 -11.736 -36.1293 -11.736 Z M -46.2401 -25.6628 C -46.2409 -25.6932 -46.2414 -25.7236 -46.2414 -25.754 C -46.2414 -26.7051 -45.832 -27.6172 -45.1032 -28.2897 C -44.3745 -28.9622 -43.3861 -29.34 -42.3556 -29.34 C -41.325 -29.34 -40.3366 -28.9622 -39.6079 -28.2897 C -38.8791 -27.6172 -38.4697 -26.7051 -38.4697 -25.754 L -38.4697 -25.754 C -38.4697 -25.7218 -38.4702 -25.6896 -38.4711 -25.6573 M -43.9464 -28.9535 C -44.3482 -30.8114 -45.713 -35.7383 -48.8062 -35.208 C -51.8407 -34.6878 -54.0848 -27.5122 -51.3416 -26.08 C -49.1935 -24.9585 -49.3019 -32.1922 -46.9047 -31.948 C -45.7191 -31.8272 -45.183 -29.1451 -45.0423 -28.2933 M -41.0811 -29.1373 C -40.89 -32.5471 -40.3616 -35.8881 -39.2985 -39.12 L -42.4678 -43.032 L -45.637 -39.12 C -44.5659 -35.8638 -44.0376 -32.4969 -43.8502 -29.0605 M -39.8608 -28.4807 C -39.6803 -29.4819 -39.1397 -31.8351 -38.0309 -31.948 C -35.6336 -32.1922 -35.7421 -24.9585 -33.5939 -26.08 C -30.8507 -27.5122 -33.0949 -34.6878 -36.1293 -35.208 C -39.172 -35.7296 -40.5423 -30.9708 -40.9687 -29.0469 M 5.33106 -4.44174 C 7.47978 -9.66939 3.83094 -12.2803 -0.00015 -12.3569 C -3.83124 -12.2803 -7.48008 -9.66939 -5.33136 -4.44174 C -11.036 -8.94668 -13.6191 -4.15042 -13.652 0 C -13.6191 4.15042 -11.036 8.94669 -5.33136 4.44174 C -7.48008 9.66939 -3.83124 12.2803 -0.00015 12.3569 C 3.83094 12.2803 7.47978 9.66939 5.33106 4.44174 C 11.0357 8.94669 13.6188 4.15042 13.6517 -2.84217e-14 C 13.6188 -4.15042 11.0357 -8.94668 5.33106 -4.44174 Z M -3.12728 -11.666 C -3.29088 -12.6925 -3.45685 -13.7131 -3.6252 -14.7283 C -3.45655 -13.7128 -3.2895 -12.6936 -3.12555 -11.6667 Z M 12.6418 -5.17314 L 19.8035 -5.23077 C 19.8991 -19.5133 22.1129 -33.5022 29.7217 -46.8189 L 8.95514 -36.5596 L -10.6309 -45.6194 C -11.8666 -49.4714 -13.2471 -53.1597 -14.8133 -56.6613 L -19.1836 -57.0001 C -13.9454 -46.0409 -10.6565 -32.7624 -8.04652 -17.956 C -11.8764 -28.8714 -17.7688 -37.0986 -25.2864 -42.8035 C -32.5243 -48.2962 -41.1178 -51.4057 -50.4775 -52.7651 C -52.5669 -51.7562 -54.688 -50.6221 -56.7833 -49.4127 C -33.7111 -48.0221 -16.0513 -36.9123 -9.52843 -9.20515 C -1.90169 -14.344 7.73754 -13.8653 12.6418 -5.17314 Z M -5.09889 -23.053 C -5.08263 -22.9674 -5.06606 -22.882 -5.04986 -22.7963 C -5.06605 -22.8821 -5.08264 -22.9674 -5.09889 -23.053 Z M -4.67624 -20.7828 C -4.65216 -20.6507 -4.6284 -20.5177 -4.60444 -20.3854 C -4.62838 -20.5178 -4.65218 -20.6506 -4.67624 -20.7828 Z M -4.33481 -18.8762 C -4.29035 -18.6245 -4.24592 -18.3727 -4.20185 -18.1203 C -4.24588 -18.3728 -4.29037 -18.6244 -4.33481 -18.8762 Z M -4.11643 -17.6244 C -3.9608 -16.7259 -3.80756 -15.8226 -3.6564 -14.9148 C -3.8074 -15.823 -3.96092 -16.7256 -4.11643 -17.6244 Z M 71.614 7.16407 C 72.4181 7.77918 72.892 8.74923 72.892 9.78 L 72.892 9.78 C 72.892 10.6446 72.5581 11.4738 71.9638 12.0852 C 71.3694 12.6965 70.5633 13.04 69.7228 13.04 C 68.8823 13.04 68.0762 12.6965 67.4818 12.0852 C 66.8875 11.4738 66.5536 10.6446 66.5536 9.78 C 66.5536 8.52107 67.2583 7.37466 68.3639 6.83488 M 77.3289 4.564 C 77.3289 5.25568 76.6945 5.91904 75.5653 6.40813 C 74.436 6.89723 72.9044 7.172 71.3074 7.172 C 69.7104 7.172 68.1788 6.89723 67.0495 6.40813 C 65.9203 5.91904 65.2859 5.25568 65.2859 4.564 C 65.2859 3.87232 65.9203 3.20896 67.0495 2.71987 C 68.1788 2.23077 69.7104 1.956 71.3074 1.956 C 72.9044 1.956 74.436 2.23077 75.5653 2.71987 C 76.6945 3.20896 77.3289 3.87232 77.3289 4.564 Z M 57.6797 -18.256 C 57.6797 -20.864 62.7505 -22.521 62.7505 -18.256 C 62.7505 -17.2841 61.4828 -17.2737 61.4828 -18.256 C 61.4828 -18.908 60.2241 -18.9242 60.2151 -17.604 C 60.1839 -13.0401 68.4551 -18.908 69.7228 -20.212 C 70.9905 -18.908 79.2617 -13.0401 79.2305 -17.604 C 79.2215 -18.9242 77.9628 -18.908 77.9628 -18.256 C 77.9628 -17.2737 76.6951 -17.2841 76.6951 -18.256 C 76.6951 -22.521 81.7659 -20.864 81.7659 -18.256 C 81.7659 -11.736 70.9905 -14.657 69.7228 -16.3 C 68.4551 -14.657 57.6797 -11.736 57.6797 -18.256 Z M 39.4894 -60.1313 L 34.7816 -60.2052 L 8.81946 -47.3469 L -12.3308 -57.1765 C -12.8644 -56.9798 -13.6022 -56.8525 -14.5786 -56.724 L -13.4152 -53.3493 L 8.87368 -43.032 L 36.5993 -56.7828 C 37.5277 -57.9238 38.4844 -59.0307 39.4894 -60.1313 Z M -40.4499 -130.4 C -34.6776 -121.544 -30.9487 -115.288 -28.1332 -109.541 C -4.38844 -112.638 15.0335 -112.046 34.0958 -109.375 C 36.369 -114.439 39.9394 -120.574 46.8516 -130.4 Z M 19.809 -5.216 L 12.4244 -5.216 L 13.2126 -3.26 L 19.7057 -3.26 Z M -12.4282 -5.21599 L -19.9543 -5.216 L -19.9664 -3.26 L -13.3306 -3.26 Z"
       id="path1259"
       style="display:inline"
       inkscape:label="layer-1" />
    <path
       fill="#ff0000"
       d="M -40.5662 -21.516 C -40.5662 -20.9972 -40.7666 -20.4997 -41.1232 -20.1329 C -41.4798 -19.7661 -41.9634 -19.56 -42.4678 -19.56 C -42.9721 -19.56 -43.4557 -19.7661 -43.8124 -20.1329 C -44.169 -20.4997 -44.3693 -20.9972 -44.3693 -21.516 C -44.3693 -22.0348 -44.169 -22.5323 -43.8124 -22.8991 C -43.4557 -23.2659 -42.9721 -23.472 -42.4678 -23.472 C -41.9634 -23.472 -41.4798 -23.2659 -41.1232 -22.8991 C -40.7666 -22.5323 -40.5662 -22.0348 -40.5662 -21.516 Z M -40.5662 -9.78 C -40.5662 -9.26124 -40.7666 -8.76372 -41.1232 -8.3969 C -41.4798 -8.03008 -41.9634 -7.824 -42.4678 -7.824 C -42.9721 -7.824 -43.4557 -8.03008 -43.8124 -8.3969 C -44.169 -8.76372 -44.3693 -9.26124 -44.3693 -9.78 C -44.3693 -10.2988 -44.169 -10.7963 -43.8124 -11.1631 C -43.4557 -11.5299 -42.9721 -11.736 -42.4678 -11.736 C -41.9634 -11.736 -41.4798 -11.5299 -41.1232 -11.1631 C -40.7666 -10.7963 -40.5662 -10.2988 -40.5662 -9.78 Z M -52.6093 -8.476 C -52.6093 -7.95724 -52.8096 -7.45972 -53.1662 -7.0929 C -53.5228 -6.72608 -54.0065 -6.52 -54.5108 -6.52 C -55.0151 -6.52 -55.4988 -6.72608 -55.8554 -7.0929 C -56.212 -7.45972 -56.4124 -7.95724 -56.4124 -8.476 C -56.4124 -8.99476 -56.212 -9.49228 -55.8554 -9.8591 C -55.4988 -10.2259 -55.0151 -10.432 -54.5108 -10.432 C -54.0065 -10.432 -53.5228 -10.2259 -53.1662 -9.8591 C -52.8096 -9.49228 -52.6093 -8.99476 -52.6093 -8.476 Z M -28.5232 -9.128 C -28.5232 -8.60924 -28.7235 -8.11172 -29.0801 -7.7449 C -29.4367 -7.37808 -29.9204 -7.172 -30.4247 -7.172 C -30.929 -7.172 -31.4127 -7.37808 -31.7693 -7.7449 C -32.1259 -8.11172 -32.3262 -8.60924 -32.3262 -9.128 C -32.3262 -9.64676 -32.1259 -10.1443 -31.7693 -10.5111 C -31.4127 -10.8779 -30.929 -11.084 -30.4247 -11.084 C -29.9204 -11.084 -29.4367 -10.8779 -29.0801 -10.5111 C -28.7235 -10.1443 -28.5232 -9.64676 -28.5232 -9.128 Z M -64.6751 -7.13206 C -63.7091 -6.64724 -62.6672 -6.00305 -61.7353 -5.18626 L -57.5296 -5.19257 C -57.9674 -6.65897 -58.2017 -8.23865 -58.2017 -9.87463 C -58.2017 -17.4819 -53.1355 -23.872 -46.2843 -25.6697 L -46.2401 -25.6628 C -46.241 -25.6932 -46.2414 -25.7236 -46.2414 -25.754 C -46.2414 -26.7733 -45.7805 -27.6933 -45.0415 -28.3197 C -45.183 -29.1451 -45.7191 -31.8272 -46.9047 -31.948 C -49.3019 -32.1922 -49.1935 -24.9585 -51.3416 -26.08 C -54.0848 -27.5122 -51.8407 -34.6878 -48.8062 -35.208 C -45.713 -35.7383 -44.3482 -30.8114 -43.9464 -28.9535 L -43.8502 -29.0605 C -44.0376 -32.4969 -44.5659 -35.8638 -45.637 -39.12 L -42.4678 -43.032 L -39.2985 -39.12 C -40.3616 -35.8881 -40.89 -32.5471 -41.0811 -29.1373 L -40.9687 -29.0469 C -40.5423 -30.9708 -39.172 -35.7296 -36.1293 -35.208 C -33.0949 -34.6878 -30.8507 -27.5122 -33.5939 -26.08 C -35.7421 -24.9585 -35.6336 -32.1922 -38.0309 -31.948 C -39.1397 -31.8351 -39.6803 -29.4819 -39.8954 -28.5182 C -39.0399 -27.8987 -38.4697 -26.8878 -38.4697 -25.754 C -38.4697 -25.754 -38.4702 -25.6896 -38.4273 -25.6578 C -31.5543 -23.845 -26.5094 -17.4658 -26.5094 -9.87463 C -26.5094 -8.27124 -26.7345 -6.72192 -27.1658 -5.23714 L -24.0488 -5.216 L -24.0531 -36.6857 C -32.5593 -44.778 -43.8203 -48.6289 -56.7722 -49.4192 C -59.4585 -47.8662 -62.1045 -46.1829 -64.6693 -44.4092 L -64.6523 -7.824 Z M -6.32924 -2.84217e-14 C -6.32924 0.691685 -6.59636 1.35504 -7.07183 1.84413 C -7.54731 2.33323 -8.19219 2.608 -8.86462 2.608 C -9.53704 2.608 -10.1819 2.33323 -10.6574 1.84413 C -11.1329 1.35504 -11.4 0.691685 -11.4 -2.84217e-14 C -11.4 -0.691685 -11.1329 -1.35504 -10.6574 -1.84413 C -10.1819 -2.33323 -9.53704 -2.608 -8.86462 -2.608 C -8.19219 -2.608 -7.54731 -2.33323 -7.07183 -1.84413 C -6.59636 -1.35504 -6.32924 -0.691685 -6.32924 -2.84217e-14 Z M 2.53523 -7.28014 C 2.53523 -6.58845 2.26811 -5.9251 1.79263 -5.436 C 1.31716 -4.94691 0.672275 -4.67214 -0.00015 -4.67214 C -0.672575 -4.67214 -1.31746 -4.94691 -1.79293 -5.436 C -2.26841 -5.9251 -2.53553 -6.58845 -2.53553 -7.28014 C -2.53553 -7.97182 -2.26841 -8.63518 -1.79293 -9.12427 C -1.31746 -9.61337 -0.672575 -9.88814 -0.00015 -9.88814 C 0.672275 -9.88814 1.31716 -9.61337 1.79263 -9.12427 C 2.26811 -8.63518 2.53523 -7.97182 2.53523 -7.28014 Z M -19.9943 -3.33076 C -19.8799 -1.16079 -19.8543 1.12392 -19.8487 3.29393 L -13.0727 3.2495 C -13.4564 2.2395 -13.6433 1.09719 -13.652 -2.84217e-14 C -13.6431 -1.12338 -13.4473 -2.29407 -13.0504 -3.31593 M 37.9665 -5.7902 C 32.783 -4.24496 28.7154 -0.0944396 27.1339 5.19849 L 22.2629 5.21504 C 21.0822 -17.6407 23.1634 -39.3935 41.7296 -59.2905 L 53.8916 -54.709 C 40.3282 -39.3188 37.2558 -23.1864 37.9665 -5.7902 Z M 27.7862 -60.5267 L 34.7816 -60.2052 L 8.81946 -47.3469 L -12.3779 -57.1604 C -11.7691 -57.3547 -11.3176 -57.6279 -10.8497 -58.0419 C -8.24014 -54.768 -4.43707 -57.376 -4.43707 -60.636 C -3.16938 -56.724 -2.53553 -55.42 0.584951 -54.9024 C 4.1747 -55.0547 7.71837 -55.2788 10.4402 -56.7823 C 12.4708 -55.8752 14.7129 -56.1149 15.7958 -57.3084 C 19.5491 -56.6961 23.991 -58.869 24.652 -60.3993 C 25.7123 -60.2328 26.8183 -60.2633 27.7862 -60.5267 Z M -33.5853 -119.472 C -32.2005 -118.49 -30.6664 -117.635 -28.9692 -117.23 C -28.5551 -115.846 -28.0932 -114.224 -27.1402 -112.436 C -26.6678 -111.55 -26.0425 -110.684 -25.3549 -109.874 C -18.2472 -110.738 -11.4399 -111.264 -4.90524 -111.479 C -3.51296 -113.361 -2.48286 -115.67 -1.98387 -118.348 C -0.775271 -118.918 0.282389 -119.713 1.13818 -120.641 C 1.94116 -119.661 2.95304 -118.803 4.12806 -118.16 C 4.45134 -115.662 5.24439 -113.451 6.29476 -111.58 C 14.2204 -111.45 21.871 -110.861 29.3958 -109.898 C 29.5272 -110.035 29.6711 -110.196 29.8114 -110.362 C 31.5238 -112.394 32.4791 -115.082 32.7245 -118.209 C 36.0739 -118.94 38.5851 -119.927 40.4952 -120.94 C 35.7521 -113.465 33.6386 -108.801 32.0685 -104.262 C 14.2561 -106.651 -3.81649 -107.172 -25.8677 -104.554 C -27.8586 -109.265 -30.1903 -113.789 -33.5853 -119.472 Z"
       id="path1255"
       style="display:inline"
       inkscape:label="layer-4" />
    <path
       fill="#4444ff"
       d="M 69.7228 -112.796 C 69.7181 -110.799 69.9404 -108.393 69.9404 -106.437 C 69.9404 -104.481 68.0389 -98.345 68.0389 -96.389 C 68.0389 -94.433 69.368 -90.4673 69.368 -87.8593 C 69.368 -85.2513 67.3008 -79.5002 67.3008 -76.8922 C 67.3008 -74.2842 69.2732 -69.5498 69.2732 -66.9418 C 69.2732 -64.3338 67.9347 -61.0738 67.9347 -58.4658 C 67.9347 -55.8578 69.6894 -52.1256 69.6894 -48.8656 C 69.6894 -45.6056 67.3008 -41.577 67.3008 -38.969 C 67.3008 -36.361 68.5447 -35.1642 68.5447 -31.9042 C 68.5447 -28.8715 67.2549 -21.3596 67.1822 -18.23 L 69.7745 -20.1308 C 70.0164 -23.7575 70.7673 -29.4484 70.7001 -31.9834 C 70.6136 -35.2422 69.3386 -36.4037 69.2694 -39.0107 C 69.2003 -41.6178 71.4813 -45.712 71.3948 -48.9708 C 71.3084 -52.2296 69.455 -55.9112 69.3858 -58.5183 C 69.3166 -61.1253 70.5682 -64.4216 70.499 -67.0287 C 70.4298 -69.6357 68.3327 -74.3127 68.2635 -76.9197 C 68.1943 -79.5267 70.1082 -85.334 70.039 -87.941 C 69.9698 -90.5481 68.536 -94.4748 68.4841 -96.43 C 68.4322 -98.3853 70.1703 -104.572 70.1185 -106.527 C 70.0666 -108.483 69.7794 -110.882 69.7228 -112.796 Z M 0.286319 -92.0586 C -0.0498935 -92.0586 -0.372335 -91.8182 -0.610073 -91.3902 C -0.847811 -90.9622 -0.981371 -90.3818 -0.981371 -89.7766 C -0.981371 -89.1714 -0.847811 -88.5909 -0.610073 -88.163 C -0.372335 -87.735 -0.0498935 -87.4946 0.286319 -87.4946 C 0.622531 -87.4946 0.944973 -87.735 1.18271 -88.163 C 1.42045 -88.5909 1.55401 -89.1714 1.55401 -89.7766 C 1.55401 -90.3818 1.42045 -90.9622 1.18271 -91.3902 C 0.944973 -91.8182 0.622531 -92.0586 0.286319 -92.0586 Z M -18.7347 -91.3839 C -19.0709 -91.3839 -19.3934 -91.1435 -19.6311 -90.7155 C -19.8689 -90.2876 -20.0024 -89.7071 -20.0024 -89.1019 C -20.0024 -88.4967 -19.8689 -87.9163 -19.6311 -87.4883 C -19.3934 -87.0603 -19.0709 -86.8199 -18.7347 -86.8199 C -18.3985 -86.8199 -18.0761 -87.0603 -17.8383 -87.4883 C -17.6006 -87.9163 -17.467 -88.4967 -17.467 -89.1019 C -17.467 -89.7071 -17.6006 -90.2876 -17.8383 -90.7155 C -18.0761 -91.1435 -18.3985 -91.3839 -18.7347 -91.3839 Z M -12.6771 -75.632 C -16.4801 -74.328 -15.8463 -72.372 -18.3817 -71.72 L -18.4495 -71.5914 C -16.5983 -71.5943 -14.5786 -74.0543 -12.6771 -74.328 Z M -6.3386 -75.632 L -6.3386 -74.328 C -2.24177 -74.328 -0.542647 -71.5264 2.19256 -71.5914 L 2.09228 -71.72 C -1.65473 -72.372 0.265764 -74.98 -6.3386 -75.632 Z M 60.3419 -52.2825 C 46.3739 -37.6198 43.4109 -23.1819 44.2269 -6.30835 C 50.5363 -5.56002 55.7326 -0.960147 57.5054 5.18671 L 61.7438 5.20683 C 59.5529 3.3237 57.6797 0.446151 57.6797 -3.912 C 57.6797 -12.388 63.3843 -13.692 64.652 -13.692 C 66.0103 -13.692 67.1539 -12.695 67.9329 -11.3275 C 68.3838 -12.0053 69.7606 -12.7607 72.0517 -13.2657 C 80.508 -15.1296 79.7368 -10.3309 74.6542 -9.47769 C 79.3412 -9.93494 79.5797 -7.47957 77.1289 -6.07684 C 79.8317 -5.35148 78.8248 -3.00531 75.7688 -2.23947 C 79.729 -1.70542 77.94 1.80827 73.6058 2.06144 C 75.8056 2.55275 77.3289 3.48134 77.3289 4.564 C 77.3289 4.80318 77.2547 5.03474 77.1227 5.23535 L 82.3997 5.21982 L 82.3997 -43.9881 L 75.4274 -46.6175 L 75.4143 -16.5066 C 77.449 -15.6165 79.2451 -15.4727 79.2305 -17.604 C 79.2215 -18.9242 77.9628 -18.908 77.9628 -18.256 C 77.9628 -17.2737 76.6951 -17.2841 76.6951 -18.256 C 76.6951 -22.521 81.7659 -20.864 81.7659 -18.256 C 81.7659 -11.736 70.9905 -14.657 69.7228 -16.3 C 69.1896 -15.609 66.9744 -14.6928 64.5867 -14.3471 C 64.5525 -14.3421 64.5184 -14.3373 64.4842 -14.3325 C 64.3406 -14.3128 64.1965 -14.2944 64.0521 -14.2791 C 60.9175 -13.945 57.6797 -14.6821 57.6797 -18.256 C 57.6797 -20.864 62.7505 -22.521 62.7505 -18.256 C 62.7505 -17.2841 61.4828 -17.2737 61.4828 -18.256 C 61.4828 -18.908 60.2241 -18.9242 60.2151 -17.604 C 60.2007 -15.5008 61.9493 -15.613 63.9907 -16.489 L 64.0182 -50.9591 Z M 74.6542 -9.47769 C 74.4045 -9.45333 74.1457 -9.4229 73.8705 -9.38141 C 74.1419 -9.40303 74.4032 -9.43556 74.6542 -9.47769 Z M -24.0642 -36.6961 L -24.0994 -5.216 L -12.5946 -5.20658 L -9.46697 -9.2258 C -12.3374 -21.3722 -17.3583 -30.3334 -24.0642 -36.6961 Z M 21.8524 -36.0014 C 21.5162 -36.0014 21.1937 -35.864 20.956 -35.6194 C 20.7183 -35.3749 20.5847 -35.0432 20.5847 -34.6974 C 20.5847 -34.3515 20.7183 -34.0198 20.956 -33.7753 C 21.1937 -33.5307 21.5162 -33.3934 21.8524 -33.3934 C 22.1886 -33.3934 22.5111 -33.5307 22.7488 -33.7753 C 22.9865 -34.0198 23.1201 -34.3515 23.1201 -34.6974 C 23.1201 -35.0432 22.9865 -35.3749 22.7488 -35.6194 C 22.5111 -35.864 22.1886 -36.0014 21.8524 -36.0014 Z M -3.80322 -34.556 C -4.13943 -34.556 -4.46187 -34.4186 -4.69961 -34.1741 C -4.93735 -33.9295 -5.07091 -33.5978 -5.07091 -33.252 C -5.07091 -32.9062 -4.93735 -32.5745 -4.69961 -32.3299 C -4.46187 -32.0854 -4.13943 -31.948 -3.80322 -31.948 C -3.46701 -31.948 -3.14457 -32.0854 -2.90683 -32.3299 C -2.66909 -32.5745 -2.53553 -32.9062 -2.53553 -33.252 C -2.53553 -33.5978 -2.66909 -33.9295 -2.90683 -34.1741 C -3.14457 -34.4186 -3.46701 -34.556 -3.80322 -34.556 Z M 2.28541 -34.1279 C 1.94919 -34.1279 1.62675 -33.9905 1.38901 -33.7459 C 1.15128 -33.5014 1.01772 -33.1697 1.01772 -32.8239 C 1.01772 -32.478 1.15128 -32.1464 1.38901 -31.9018 C 1.62675 -31.6573 1.94919 -31.5199 2.28541 -31.5199 C 2.62162 -31.5199 2.94406 -31.6573 3.1818 -31.9018 C 3.41954 -32.1464 3.5531 -32.478 3.5531 -32.8239 C 3.5531 -33.1697 3.41954 -33.5014 3.1818 -33.7459 C 2.94406 -33.9905 2.62162 -34.1279 2.28541 -34.1279 Z M 16.18 -33.9672 C 15.8438 -33.9672 15.5213 -33.8298 15.2836 -33.5852 C 15.0459 -33.3407 14.9123 -33.009 14.9123 -32.6632 C 14.9123 -32.3173 15.0459 -31.9856 15.2836 -31.7411 C 15.5213 -31.4965 15.8438 -31.3592 16.18 -31.3592 C 16.5162 -31.3592 16.8386 -31.4965 17.0764 -31.7411 C 17.3141 -31.9856 17.4477 -32.3173 17.4477 -32.6632 C 17.4477 -33.009 17.3141 -33.3407 17.0764 -33.5852 C 16.8386 -33.8298 16.5162 -33.9672 16.18 -33.9672 Z M 6.44873 -31.9865 C 6.11251 -31.9865 5.79007 -31.8491 5.55234 -31.6045 C 5.3146 -31.36 5.18104 -31.0283 5.18104 -30.6825 C 5.18104 -30.3366 5.3146 -30.0049 5.55234 -29.7604 C 5.79007 -29.5158 6.11251 -29.3785 6.44873 -29.3785 C 6.78494 -29.3785 7.10738 -29.5158 7.34512 -29.7604 C 7.58286 -30.0049 7.71642 -30.3366 7.71642 -30.6825 C 7.71642 -31.0283 7.58286 -31.36 7.34512 -31.6045 C 7.10738 -31.8491 6.78494 -31.9865 6.44873 -31.9865 Z M 12.1729 -31.7188 C 11.8367 -31.7188 11.5142 -31.5814 11.2765 -31.3368 C 11.0388 -31.0923 10.9052 -30.7606 10.9052 -30.4148 C 10.9052 -30.0689 11.0388 -29.7373 11.2765 -29.4927 C 11.5142 -29.2482 11.8367 -29.1108 12.1729 -29.1108 C 12.5091 -29.1108 12.8315 -29.2482 13.0693 -29.4927 C 13.307 -29.7373 13.4406 -30.0689 13.4406 -30.4148 C 13.4406 -30.7606 13.307 -31.0923 13.0693 -31.3368 C 12.8315 -31.5814 12.5091 -31.7188 12.1729 -31.7188 Z M -75.7446 -29.666 C -75.9968 -29.666 -76.2386 -29.563 -76.4169 -29.3796 C -76.5952 -29.1961 -76.6954 -28.9474 -76.6954 -28.688 C -76.6954 -28.4286 -76.5952 -28.1799 -76.4169 -27.9964 C -76.2386 -27.813 -75.9968 -27.71 -75.7446 -27.71 C -75.4925 -27.71 -75.2506 -27.813 -75.0723 -27.9964 C -74.894 -28.1799 -74.7939 -28.4286 -74.7939 -28.688 C -74.7939 -28.9474 -74.894 -29.1961 -75.0723 -29.3796 C -75.2506 -29.563 -75.4925 -29.666 -75.7446 -29.666 Z M -21.234 -28.362 C -20.3588 -28.362 -19.6493 -27.6322 -19.6493 -26.732 C -19.6493 -25.8318 -20.3588 -25.102 -21.234 -25.102 C -22.1091 -25.102 -22.8186 -25.8318 -22.8186 -26.732 C -22.8186 -27.6322 -22.1091 -28.362 -21.234 -28.362 Z M -2.86657 -27.9183 C -3.20278 -27.9183 -3.52522 -27.7809 -3.76296 -27.5364 C -4.0007 -27.2919 -4.13426 -26.9602 -4.13426 -26.6143 C -4.13426 -26.2685 -4.0007 -25.9368 -3.76296 -25.6923 C -3.52522 -25.4477 -3.20278 -25.3103 -2.86657 -25.3103 C -2.53035 -25.3103 -2.20791 -25.4477 -1.97017 -25.6923 C -1.73244 -25.9368 -1.59888 -26.2685 -1.59888 -26.6143 C -1.59888 -26.9602 -1.73244 -27.2919 -1.97017 -27.5364 C -2.20791 -27.7809 -2.53035 -27.9183 -2.86657 -27.9183 Z M 16.7524 -27.5434 C 16.4162 -27.5434 16.0938 -27.406 15.856 -27.1615 C 15.6183 -26.917 15.4847 -26.5853 15.4847 -26.2394 C 15.4847 -25.8936 15.6183 -25.5619 15.856 -25.3174 C 16.0938 -25.0728 16.4162 -24.9354 16.7524 -24.9354 C 17.0886 -24.9354 17.4111 -25.0728 17.6488 -25.3174 C 17.8866 -25.5619 18.0201 -25.8936 18.0201 -26.2394 C 18.0201 -26.5853 17.8866 -26.917 17.6488 -27.1615 C 17.4111 -27.406 17.0886 -27.5434 16.7524 -27.5434 Z M 2.59762 -27.4365 C 2.26141 -27.4365 1.93897 -27.2991 1.70123 -27.0545 C 1.46349 -26.81 1.32993 -26.4783 1.32993 -26.1325 C 1.32993 -25.7866 1.46349 -25.4549 1.70123 -25.2104 C 1.93897 -24.9659 2.26141 -24.8285 2.59762 -24.8285 C 2.93384 -24.8285 3.25628 -24.9659 3.49402 -25.2104 C 3.73175 -25.4549 3.86531 -25.7866 3.86531 -26.1325 C 3.86531 -26.4783 3.73175 -26.81 3.49402 -27.0545 C 3.25628 -27.2991 2.93384 -27.4365 2.59762 -27.4365 Z M -77.6462 -27.384 C -77.8983 -27.384 -78.1402 -27.281 -78.3185 -27.0976 C -78.4968 -26.9141 -78.5969 -26.6654 -78.5969 -26.406 C -78.5969 -26.1466 -78.4968 -25.8979 -78.3185 -25.7144 C -78.1402 -25.531 -77.8983 -25.428 -77.6462 -25.428 C -77.394 -25.428 -77.1522 -25.531 -76.9739 -25.7144 C -76.7956 -25.8979 -76.6954 -26.1466 -76.6954 -26.406 C -76.6954 -26.6654 -76.7956 -26.9141 -76.9739 -27.0976 C -77.1522 -27.281 -77.394 -27.384 -77.6462 -27.384 Z M -73.2092 -27.058 C -73.4614 -27.058 -73.7032 -26.955 -73.8815 -26.7716 C -74.0598 -26.5881 -74.16 -26.3394 -74.16 -26.08 C -74.16 -25.8206 -74.0598 -25.5719 -73.8815 -25.3884 C -73.7032 -25.205 -73.4614 -25.102 -73.2092 -25.102 C -72.9571 -25.102 -72.7153 -25.205 -72.537 -25.3884 C -72.3586 -25.5719 -72.2585 -25.8206 -72.2585 -26.08 C -72.2585 -26.3394 -72.3586 -26.5881 -72.537 -26.7716 C -72.7153 -26.955 -72.9571 -27.058 -73.2092 -27.058 Z M -75.4277 -25.428 L -78.5969 -15.648 L -76.6954 -17.604 L -75.4277 -13.692 L -74.7939 -17.604 L -73.5262 -15.648 Z M 6.76095 -25.2953 C 6.42473 -25.2953 6.10229 -25.1579 5.86455 -24.9134 C 5.62682 -24.6688 5.49326 -24.3371 5.49326 -23.9913 C 5.49326 -23.6455 5.62682 -23.3138 5.86455 -23.0692 C 6.10229 -22.8247 6.42473 -22.6873 6.76095 -22.6873 C 7.09716 -22.6873 7.4196 -22.8247 7.65734 -23.0692 C 7.89508 -23.3138 8.02864 -23.6455 8.02864 -23.9913 C 8.02864 -24.3371 7.89508 -24.6688 7.65734 -24.9134 C 7.4196 -25.1579 7.09716 -25.2953 6.76095 -25.2953 Z M 12.7453 -25.2953 C 12.4091 -25.2953 12.0867 -25.1579 11.8489 -24.9134 C 11.6112 -24.6688 11.4776 -24.3371 11.4776 -23.9913 C 11.4776 -23.6455 11.6112 -23.3138 11.8489 -23.0692 C 12.0867 -22.8247 12.4091 -22.6873 12.7453 -22.6873 C 13.0815 -22.6873 13.404 -22.8247 13.6417 -23.0692 C 13.8795 -23.3138 14.013 -23.6455 14.013 -23.9913 C 14.013 -24.3371 13.8795 -24.6688 13.6417 -24.9134 C 13.404 -25.1579 13.0815 -25.2953 12.7453 -25.2953 Z M -34.6529 -24.1212 C -34.5265 -22.0742 -34.4107 -20.0196 -34.3075 -17.9639 C -32.2859 -17.7508 -30.2243 -17.4363 -28.1297 -17.0465 C -29.5632 -20.0496 -31.8406 -22.5075 -34.6529 -24.1212 Z M -50.1336 -24.067 C -53.227 -22.2788 -55.665 -19.4572 -57.0373 -16.0109 C -54.8099 -16.6063 -52.5082 -17.1284 -50.1482 -17.5156 C -50.1527 -19.6899 -50.1465 -21.871 -50.1336 -24.067 Z M -16.1632 -22.494 C -15.288 -22.494 -14.5786 -21.7642 -14.5786 -20.864 C -14.5786 -19.9638 -15.288 -19.234 -16.1632 -19.234 C -17.0384 -19.234 -17.7478 -19.9638 -17.7478 -20.864 C -17.7478 -21.7642 -17.0384 -22.494 -16.1632 -22.494 Z M -2.18989 -20.7988 C -2.5261 -20.7988 -2.84854 -20.6614 -3.08628 -20.4169 C -3.32402 -20.1723 -3.45758 -19.8406 -3.45758 -19.4948 C -3.45758 -19.149 -3.32402 -18.8173 -3.08628 -18.5727 C -2.84854 -18.3282 -2.5261 -18.1908 -2.18989 -18.1908 C -1.85367 -18.1908 -1.53123 -18.3282 -1.29349 -18.5727 C -1.05576 -18.8173 -0.922197 -19.149 -0.922197 -19.4948 C -0.922197 -19.8406 -1.05576 -20.1723 -1.29349 -20.4169 C -1.53123 -20.6614 -1.85367 -20.7988 -2.18989 -20.7988 Z M 3.2743 -20.3704 C 2.93809 -20.3704 2.61565 -20.233 2.37791 -19.9885 C 2.14017 -19.7439 2.00661 -19.4123 2.00661 -19.0664 C 2.00661 -18.7206 2.14017 -18.3889 2.37791 -18.1443 C 2.61565 -17.8998 2.93809 -17.7624 3.2743 -17.7624 C 3.61052 -17.7624 3.93296 -17.8998 4.1707 -18.1443 C 4.40843 -18.3889 4.54199 -18.7206 4.54199 -19.0664 C 4.54199 -19.4123 4.40843 -19.7439 4.1707 -19.9885 C 3.93296 -20.233 3.61052 -20.3704 3.2743 -20.3704 Z M 17.0646 -20.0493 C 16.7284 -20.0493 16.406 -19.9119 16.1682 -19.6673 C 15.9305 -19.4228 15.797 -19.0911 15.797 -18.7453 C 15.797 -18.3994 15.9305 -18.0677 16.1682 -17.8232 C 16.406 -17.5786 16.7284 -17.4413 17.0646 -17.4413 C 17.4009 -17.4413 17.7233 -17.5786 17.961 -17.8232 C 18.1988 -18.0677 18.3323 -18.3994 18.3323 -18.7453 C 18.3323 -19.0911 18.1988 -19.4228 17.961 -19.6673 C 17.7233 -19.9119 17.4009 -20.0493 17.0646 -20.0493 Z M 7.43738 -18.2293 C 7.10116 -18.2293 6.77872 -18.0919 6.54098 -17.8473 C 6.30325 -17.6028 6.16969 -17.2711 6.16969 -16.9253 C 6.16969 -16.5794 6.30325 -16.2477 6.54098 -16.0032 C 6.77872 -15.7586 7.10116 -15.6213 7.43738 -15.6213 C 7.77359 -15.6213 8.09603 -15.7586 8.33377 -16.0032 C 8.57151 -16.2477 8.70507 -16.5794 8.70507 -16.9253 C 8.70507 -17.2711 8.57151 -17.6028 8.33377 -17.8473 C 8.09603 -18.0919 7.77359 -18.2293 7.43738 -18.2293 Z M 13.0578 -17.8009 C 12.7216 -17.8009 12.3991 -17.6635 12.1614 -17.4189 C 11.9237 -17.1744 11.7901 -16.8427 11.7901 -16.4969 C 11.7901 -16.151 11.9237 -15.8194 12.1614 -15.5748 C 12.3991 -15.3303 12.7216 -15.1929 13.0578 -15.1929 C 13.394 -15.1929 13.7165 -15.3303 13.9542 -15.5748 C 14.1919 -15.8194 14.3255 -16.151 14.3255 -16.4969 C 14.3255 -16.8427 14.1919 -17.1744 13.9542 -17.4189 C 13.7165 -17.6635 13.394 -17.8009 13.0578 -17.8009 Z M -42.4678 -17.604 C -42.9721 -17.604 -43.4557 -17.3979 -43.8124 -17.0311 C -44.169 -16.6643 -44.3693 -16.1668 -44.3693 -15.648 C -44.3693 -15.1292 -44.169 -14.6317 -43.8124 -14.2649 C -43.4557 -13.8981 -42.9721 -13.692 -42.4678 -13.692 C -41.9634 -13.692 -41.4798 -13.8981 -41.1232 -14.2649 C -40.7666 -14.6317 -40.5662 -15.1292 -40.5662 -15.648 C -40.5662 -16.1668 -40.7666 -16.6643 -41.1232 -17.0311 C -41.4798 -17.3979 -41.9634 -17.604 -42.4678 -17.604 Z M -21.234 -17.278 C -20.3588 -17.278 -19.6493 -16.5482 -19.6493 -15.648 C -19.6493 -14.7478 -20.3588 -14.018 -21.234 -14.018 C -22.1091 -14.018 -22.8186 -14.7478 -22.8186 -15.648 C -22.8186 -16.5482 -22.1091 -17.278 -21.234 -17.278 Z M -42.8429 -16.9596 C -42.6402 -16.9597 -42.4459 -16.8763 -42.3026 -16.7277 C -42.1593 -16.5792 -42.0788 -16.3777 -42.0788 -16.1676 C -42.0788 -15.9575 -42.1593 -15.756 -42.3026 -15.6074 C -42.4459 -15.4589 -42.6402 -15.3754 -42.8429 -15.3755 C -43.2647 -15.3755 -43.6067 -15.7301 -43.6067 -16.1676 C -43.6067 -16.605 -43.2647 -16.9596 -42.8429 -16.9596 Z M 17.7413 -14.0004 C 17.4051 -14.0004 17.0827 -13.863 16.8449 -13.6185 C 16.6072 -13.3739 16.4736 -13.0423 16.4736 -12.6964 C 16.4736 -12.3506 16.6072 -12.0189 16.8449 -11.7744 C 17.0827 -11.5298 17.4051 -11.3924 17.7413 -11.3924 C 18.0775 -11.3924 18.4 -11.5298 18.6377 -11.7744 C 18.8755 -12.0189 19.009 -12.3506 19.009 -12.6964 C 19.009 -13.0423 18.8755 -13.3739 18.6377 -13.6185 C 18.4 -13.863 18.0775 -14.0004 17.7413 -14.0004 Z M 3.58652 -13.1439 C 3.08917 -13.1439 2.63778 -12.8447 2.43223 -12.3788 L 4.85149 -11.7551 C 4.85329 -11.7833 4.8542 -11.8116 4.85421 -11.8399 C 4.85421 -12.1858 4.72065 -12.5174 4.48291 -12.762 C 4.24518 -13.0065 3.92274 -13.1439 3.58652 -13.1439 Z M -14.2617 -12.388 C -13.3865 -12.388 -12.6771 -11.6582 -12.6771 -10.758 C -12.6771 -9.85778 -13.3865 -9.128 -14.2617 -9.128 C -15.1368 -9.128 -15.8463 -9.85778 -15.8463 -10.758 C -15.8463 -11.6582 -15.1368 -12.388 -14.2617 -12.388 Z M 13.7342 -11.752 C 13.398 -11.752 13.0756 -11.6147 12.8378 -11.3701 C 12.6001 -11.1256 12.4665 -10.7939 12.4665 -10.448 C 12.4665 -10.1022 12.6001 -9.77053 12.8378 -9.52598 C 13.0756 -9.28143 13.398 -9.14405 13.7342 -9.14405 C 14.0704 -9.14405 14.3929 -9.28143 14.6306 -9.52598 C 14.8684 -9.77053 15.0019 -10.1022 15.0019 -10.448 C 15.0019 -10.7939 14.8684 -11.1256 14.6306 -11.3701 C 14.3929 -11.6147 14.0704 -11.752 13.7342 -11.752 Z M -48.8062 -11.736 C -49.3105 -11.736 -49.7942 -11.5299 -50.1508 -11.1631 C -50.5074 -10.7963 -50.7078 -10.2988 -50.7078 -9.78 C -50.7078 -9.26124 -50.5074 -8.76372 -50.1508 -8.3969 C -49.7942 -8.03008 -49.3105 -7.824 -48.8062 -7.824 C -48.3019 -7.824 -47.8182 -8.03008 -47.4616 -8.3969 C -47.105 -8.76372 -46.9047 -9.26124 -46.9047 -9.78 C -46.9047 -10.2988 -47.105 -10.7963 -47.4616 -11.1631 C -47.8182 -11.5299 -48.3019 -11.736 -48.8062 -11.736 Z M -36.1293 -11.736 C -36.6336 -11.736 -37.1173 -11.5299 -37.4739 -11.1631 C -37.8305 -10.7963 -38.0309 -10.2988 -38.0309 -9.78 C -38.0309 -9.26124 -37.8305 -8.76372 -37.4739 -8.3969 C -37.1173 -8.03008 -36.6336 -7.824 -36.1293 -7.824 C -35.625 -7.824 -35.1413 -8.03008 -34.7847 -8.3969 C -34.4281 -8.76372 -34.2278 -9.26124 -34.2278 -9.78 C -34.2278 -10.2988 -34.4281 -10.7963 -34.7847 -11.1631 C -35.1413 -11.5299 -35.625 -11.736 -36.1293 -11.736 Z M -36.5594 -11.0916 C -36.1375 -11.0916 -35.7956 -10.737 -35.7956 -10.2996 C -35.7956 -9.86214 -36.1375 -9.50752 -36.5594 -9.50748 C -36.762 -9.50744 -36.9564 -9.59086 -37.0997 -9.73941 C -37.243 -9.88796 -37.3235 -10.0895 -37.3235 -10.2996 C -37.3235 -10.5097 -37.243 -10.7112 -37.0997 -10.8597 C -36.9564 -11.0083 -36.762 -11.0917 -36.5594 -11.0916 Z M -49.3101 -11.084 C -49.1074 -11.084 -48.9131 -11.0006 -48.7698 -10.8521 C -48.6265 -10.7035 -48.546 -10.502 -48.546 -10.2919 C -48.546 -10.0818 -48.6265 -9.88032 -48.7698 -9.73177 C -48.9131 -9.58322 -49.1074 -9.49979 -49.3101 -9.49984 C -49.7319 -9.49988 -50.0739 -9.8545 -50.0739 -10.2919 C -50.0739 -10.7293 -49.7319 -11.084 -49.3101 -11.084 Z M 7.7496 -11.0028 C 7.49534 -11.0027 7.24698 -10.924 7.03677 -10.7768 L 8.99723 -9.46724 C 9.0106 -9.54365 9.01731 -9.62112 9.01729 -9.69875 C 9.01729 -10.0446 8.88373 -10.3763 8.64599 -10.6208 C 8.40825 -10.8654 8.08581 -11.0028 7.7496 -11.0028 Z M -41.1255 -1.90761 C -45.4206 -1.8755 -49.7545 -1.24866 -54.8946 0.0359122 C -52.0298 3.9269 -47.4764 6.42525 -42.3556 6.42525 C -36.9363 6.42525 -32.1522 3.62696 -29.3194 -0.646907 C -33.5762 -1.50134 -37.3358 -1.93594 -41.1255 -1.90761 Z"
       id="path1251"
       style="display:inline"
       inkscape:label="layer-7" />
    <path
       fill="#000000"
       d="M 2.90687 -106.269 C -6.05506 -106.284 -15.5053 -105.716 -25.8189 -104.431 L -24.4601 -101.004 C -3.43923 -103.545 13.8538 -103.057 30.9241 -100.724 L 32.0422 -104.171 C 22.5933 -105.488 13.0637 -106.253 2.90687 -106.269 Z M -31.5186 -59.6195 C -38.0943 -58.0853 -44.4044 -55.7506 -50.4886 -52.7598 C -41.1178 -51.4058 -32.5243 -48.2962 -25.2864 -42.8035 C -17.7688 -37.0986 -11.8764 -28.8714 -8.04652 -17.956 C -10.6565 -32.7624 -13.9454 -46.0409 -19.1836 -57.0001 L -28.5232 -58.028 Z M 36.5814 -56.7548 L 8.87368 -43.032 L -13.4151 -53.3494 L -10.645 -45.6321 L 8.95514 -36.5596 L 29.744 -46.8559 Z M 57.112 -53.4963 C 43.4417 -38.5921 40.3746 -23.3833 41.1136 -6.37839 L 44.2531 -6.30097 C 43.411 -23.1821 46.3739 -37.6198 60.3595 -52.2713 Z M 75.4274 -46.6442 L 75.4274 -22.1647 L 82.3997 -24.5585 L 82.3997 -43.9952 Z M -64.6632 -44.4134 C -66.3921 -43.2212 -69.7328 -40.7169 -69.7328 -40.7169 L -69.7231 -13.04 C -67.9728 -13.04 -66.5539 -11.5804 -66.5539 -9.78 C -66.5539 -9.13595 -66.7353 -8.53561 -67.0842 -8.07741 C -66.4422 -7.9104 -65.5622 -7.58242 -64.6122 -7.10043 L -64.6523 -7.824 Z M 50.7074 -27.7752 C 50.1931 -27.7827 50.1931 -26.9853 50.7074 -26.9928 L 60.2151 -26.9928 C 60.7294 -26.9853 60.7294 -27.7827 60.2151 -27.7752 Z M 47.2268 -24.5152 L 47.0821 -23.7328 L 62.1167 -23.7328 L 62.1167 -24.5152 Z M 46.6976 -21.4508 L 46.5402 -20.2772 L 56.3353 -20.2772 L 57.2526 -21.4508 Z M 46.3178 -18.1908 L 46.2146 -17.0172 L 55.9136 -17.0172 L 55.7824 -18.1908 Z M 46.099 -14.8656 L 46.0366 -12.5184 L 58.5399 -12.5184 L 56.8008 -14.8656 Z M 46.0227 -10.8232 L 46.0395 -10.0408 L 56.9927 -10.0408 L 57.3814 -10.8232 Z M 46.0794 -8.2152 L 47.9559 -7.4328 L 56.1479 -7.4328 L 56.3246 -8.2152 Z M 51.728 -5.6072 L 52.8519 -4.8248 L 55.8161 -4.8248 L 55.8614 -5.6072 Z M 54.9188 -2.9992 L 55.6185 -2.2168 L 55.8765 -2.2168 L 55.8077 -2.9992 Z M -37.0075 -2.13224 C -37.0803 -2.12973 -37.1509 -2.10577 -37.2108 -2.06322 C -38.6632 -1.06403 -40.4253 -0.485943 -42.3556 -0.485943 C -44.0958 -0.485943 -45.6991 -0.955986 -47.0624 -1.78052 C -47.1797 -1.85432 -47.3265 -1.85729 -47.4465 -1.78828 C -47.5665 -1.71927 -47.641 -1.58902 -47.6412 -1.44761 C -47.6415 -1.3062 -47.5676 -1.17564 -47.4479 -1.10611 C -45.9687 -0.211418 -44.2292 0.296451 -42.3556 0.296451 C -40.2774 0.296451 -38.3642 -0.328575 -36.7879 -1.41301 C -36.6446 -1.50864 -36.5809 -1.69082 -36.6321 -1.85846 C -36.6833 -2.0261 -36.8368 -2.13807 -37.0075 -2.13224 Z M -32.8091 -1.65343 C -32.9211 -1.65393 -33.0276 -1.60361 -33.1002 -1.5159 C -35.348 1.11926 -38.6479 2.77405 -42.3556 2.77405 C -45.8276 2.77405 -48.9415 1.32303 -51.1695 -1.02537 C -51.2638 -1.12808 -51.4046 -1.17052 -51.5379 -1.13639 C -51.6712 -1.10226 -51.7762 -0.996866 -51.8127 -0.860661 C -51.8492 -0.724455 -51.8115 -0.578597 -51.714 -0.479067 C -49.3477 2.01507 -46.0339 3.55645 -42.3556 3.55645 C -38.4276 3.55645 -34.9158 1.79884 -32.5285 -0.999903 C -32.4279 -1.11441 -32.4022 -1.27905 -32.4628 -1.42023 C -32.5234 -1.56141 -32.659 -1.65275 -32.8091 -1.65343 Z"
       id="path1247"
       style="display:inline"
       inkscape:label="layer-10" />
    <path
       stroke="#4444ff"
       stroke-linecap="round"
       stroke-linejoin="round"
       stroke-width="0.7714300963794452"
       fill="none"
       d="M -16.1126 -129.946 C -14.934 -121.091 -8.00765 -121.675 -7.52355 -115.753 C -7.08733 -110.417 -14.0706 -109.821 -14.4796 -115.16 C -14.756 -118.768 -10.7774 -119.058 -10.5047 -115.499 C -10.3684 -113.719 -12.8527 -113.507 -12.989 -115.287 M -16.1126 -129.946 C -15.9278 -121.006 -22.853 -120.408 -22.4294 -114.481 C -22.0476 -109.141 -15.0643 -109.736 -15.4733 -115.075 C -15.7497 -118.683 -19.7209 -118.295 -19.4482 -114.736 C -19.3119 -112.956 -16.8276 -113.168 -16.9639 -114.948 M 19.4615 -130.399 C 19.2565 -121.475 27.0703 -120.7 26.5859 -114.783 C 26.1491 -109.447 18.2571 -110.218 18.7247 -115.551 C 19.0407 -119.155 23.5285 -118.668 23.2168 -115.112 C 23.061 -113.335 20.2534 -113.609 20.4092 -115.386 M 19.4587 -130.399 C 18.1086 -121.587 10.293 -122.338 9.74036 -116.428 C 9.24201 -111.098 17.134 -110.327 17.6016 -115.661 C 17.9176 -119.265 13.4212 -119.655 13.1095 -116.099 C 12.9536 -114.321 15.7612 -114.047 15.9171 -115.825 M 29.3799 -109.88 C 29.5272 -110.035 29.6711 -110.196 29.8114 -110.362 C 31.5238 -112.394 32.4791 -115.082 32.7245 -118.209 C 36.0739 -118.94 38.5851 -119.927 40.5659 -121.036 M 24.1829 -110.5 C 27.7092 -112.007 29.7486 -115.216 29.3616 -121.203 C 40.5708 -122.903 41.5618 -126.742 46.412 -129.774 M -33.6399 -119.553 C -32.2005 -118.49 -30.6664 -117.635 -28.9692 -117.23 C -28.5551 -115.846 -28.0932 -114.224 -27.1402 -112.436 C -26.6678 -111.55 -26.0425 -110.684 -25.2613 -109.879 M -20.1999 -110.443 C -25.0027 -112.742 -24.9125 -116.774 -26.5082 -120.544 C -30.5588 -120.315 -35.4373 -125.527 -39.76 -130.426 M -4.89795 -111.469 C -3.51296 -113.361 -2.48286 -115.67 -1.98387 -118.348 C -0.775271 -118.918 0.282389 -119.713 1.13818 -120.641 C 1.94116 -119.661 2.95304 -118.803 4.12806 -118.16 C 4.45134 -115.662 5.24439 -113.451 6.37064 -111.571 M 1.40838 -130.4 C 0.619488 -125.889 -0.505265 -121.776 -5.05557 -121.074 C -5.32324 -116.294 -7.15571 -113.255 -9.91205 -111.247 M 10.708 -111.443 C 8.62038 -113.568 7.34776 -116.501 7.34531 -120.691 C 2.84161 -121.672 1.94633 -125.848 1.40838 -130.4 L 1.40838 -130.4 M 46.8306 -130.372 C 35.5348 -114.313 33.1902 -108.141 30.9159 -100.703 M -40.3975 -130.321 C -31.7486 -117.048 -27.7145 -109.642 -24.4424 -100.992 M -25.819 -104.431 C -3.81649 -107.172 14.2561 -106.651 32.0423 -104.171 M -24.4601 -101.004 C -3.43919 -103.545 13.8538 -103.057 30.9241 -100.724 M -28.1266 -109.531 C -4.38848 -112.638 15.0335 -112.046 34.0677 -109.287 M -82.4083 -29.8274 C -68.0589 -43.5657 -50.9479 -55.0862 -31.5186 -59.6194 M 64.0182 -50.9037 L 39.2215 -60.2355 M 82.3997 -43.9861 L 75.4274 -46.6101 M 34.7816 -60.2052 L 8.81946 -47.3469 L -12.3889 -57.164 M -13.4152 -53.3493 L 8.87368 -43.032 L 36.5814 -56.7548 M -10.645 -45.6322 L 8.95514 -36.5596 L 29.7441 -46.8558 M -9.14066 -40.646 L 9.00936 -32.2447 L 26.7751 -41.0436 M -0.373559 -31.6342 L 9.60929 -25.3245 L 19.3148 -31.5693 M -0.118717 -24.95 L 10.2092 -18.4044 L 19.5914 -24.6008 M 0.18925 -16.8733 L 10.8091 -11.4842 L 19.877 -17.4021 M 19.0899 -37.2373 L 20.0696 -12.5479 M -3.04704 -37.8254 L -7.719 -35.204 M -0.373461 -31.6341 L -6.15667 -28.2358 M -0.118636 -24.9499 L -4.88226 -21.8207 M 0.189276 -16.8733 L -3.68134 -15.0122 M 19.3148 -31.5693 L 22.9666 -30.5036 M 19.877 -17.4021 L 20.466 -17.1131 M 19.5913 -24.6008 L 21.4478 -23.817 M -5.60547 -5.216 L -6.42947 -5.216 M 6.42917 -5.216 L 5.60517 -5.216 M -24.0863 -5.216 L -24.0863 -36.7127 M -26.5094 -9.87463 C -26.5094 -5.5516 -28.1789 -1.40563 -31.1506 1.65121 C -34.1224 4.70805 -38.1529 6.42537 -42.3555 6.42537 C -46.5582 6.42537 -50.5887 4.70805 -53.5604 1.65121 C -56.5322 -1.40563 -58.2017 -5.5516 -58.2017 -9.87463 C -58.2017 -14.1977 -56.5322 -18.3436 -53.5604 -21.4005 C -50.5887 -24.4573 -46.5582 -26.1746 -42.3555 -26.1746 C -38.1529 -26.1746 -34.1224 -24.4573 -31.1506 -21.4005 C -28.1789 -18.3436 -26.5094 -14.1977 -26.5094 -9.87463 Z M 39.4894 -60.1313 C 21.0396 -39.9287 18.8889 -17.5753 20.0531 5.21543 M 22.2737 5.21412 C 21.0822 -17.6407 23.1634 -39.3935 41.7611 -59.2774 M 38.002 -5.79881 C 37.2558 -23.1864 40.3282 -39.3188 53.889 -54.7043 M 44.2531 -6.30088 C 43.4109 -23.182 46.3739 -37.6198 60.3595 -52.2713 M 41.1136 -6.37834 C 40.3746 -23.3832 43.4417 -38.5922 57.112 -53.4964 M 3.486 -2.84217e-14 C 3.486 0.951066 3.11871 1.86318 2.46493 2.53568 C 1.81115 3.20819 0.924434 3.586 -0.00015 3.586 C -0.924734 3.586 -1.81145 3.20819 -2.46523 2.53568 C -3.11901 1.86318 -3.4863 0.951066 -3.4863 -2.84217e-14 C -3.4863 -0.951066 -3.11901 -1.86318 -2.46523 -2.53568 C -1.81145 -3.20819 -0.924734 -3.586 -0.00015 -3.586 C 0.924434 -3.586 1.81115 -3.20819 2.46493 -2.53568 C 3.11871 -1.86318 3.486 -0.951066 3.486 -2.84217e-14 Z M 5.33106 -4.44174 C 7.47978 -9.66939 3.83094 -12.2803 -0.00015 -12.3569 C -3.83124 -12.2803 -7.48008 -9.66939 -5.33136 -4.44174 C -11.036 -8.94668 -13.6191 -4.15042 -13.652 0 C -13.6191 4.15042 -11.036 8.94669 -5.33136 4.44174 C -7.48008 9.66939 -3.83124 12.2803 -0.00015 12.3569 C 3.83094 12.2803 7.47978 9.66939 5.33106 4.44174 C 11.0357 8.94669 13.6188 4.15042 13.6517 -2.84217e-14 C 13.6188 -4.15042 11.0357 -8.94668 5.33106 -4.44174 Z M -19.1836 -57.0001 C -13.9454 -46.0409 -10.6565 -32.7624 -8.04652 -17.956 C -11.8764 -28.8714 -17.7688 -37.0986 -25.2864 -42.8035 C -32.5243 -48.2962 -41.1179 -51.4057 -50.5455 -52.7189 M -57.5278 -5.216 L -61.7805 -5.216 M -64.6523 -44.419 L -64.6523 -7.824 M -69.7231 -40.7136 L -69.7231 -13.04 M 71.614 7.16407 C 72.4181 7.77918 72.892 8.74923 72.892 9.78 L 72.892 9.78 C 72.892 10.6446 72.5581 11.4738 71.9638 12.0852 C 71.3694 12.6965 70.5633 13.04 69.7228 13.04 C 68.8823 13.04 68.0762 12.6965 67.4818 12.0852 C 66.8875 11.4738 66.5536 10.6446 66.5536 9.78 C 66.5536 8.52107 67.2583 7.37466 68.3639 6.83488 M 67.07 8.10898 C 64.1605 7.17788 57.6797 4.19411 57.6797 -3.912 C 57.6797 -12.388 63.3843 -13.692 64.652 -13.692 C 67.1874 -13.692 68.9755 -10.2179 68.9755 -7.60988 C 68.9755 -2.39388 64.0182 -3.20604 64.0182 -7.172 C 64.0182 -9.78 65.2859 -11.084 65.2859 -11.084 L 61.4828 -8.476 M 77.3289 4.564 C 77.3289 5.25568 76.6945 5.91904 75.5653 6.40813 C 74.436 6.89723 72.9044 7.172 71.3074 7.172 C 69.7104 7.172 68.1788 6.89723 67.0495 6.40813 C 65.9203 5.91904 65.2859 5.25568 65.2859 4.564 C 65.2859 3.87232 65.9203 3.20896 67.0495 2.71987 C 68.1788 2.23077 69.7104 1.956 71.3074 1.956 C 72.9044 1.956 74.436 2.23077 75.5653 2.71987 C 76.6945 3.20896 77.3289 3.87232 77.3289 4.564 Z M 68.9431 -7.8968 C 69.6534 -8.36072 70.7604 -8.79785 72.2582 -9.128 L 72.2582 -9.128 C 81.132 -11.084 79.8446 -5.70331 74.1597 -5.216 C 71.4109 -4.98038 69.5911 -5.24755 68.6804 -5.74936 M 77.0964 -6.065 C 80.3029 -5.22856 78.3669 -2.14873 74.0487 -2.00263 C 67.6555 -1.78632 66.3841 -4.01253 69.8231 -5.35373 M 75.7487 -2.23836 C 79.7291 -1.70543 77.9401 1.80827 73.575 1.96457 C 66.3902 2.22183 66.0512 -0.975801 71.9037 -2.03053 M 67.9427 -11.2867 C 68.3839 -12.0053 69.7606 -12.7606 72.0517 -13.2656 L 72.0517 -13.2656 C 80.9255 -15.2216 79.6381 -9.84094 73.9532 -9.35363 C 71.2968 -9.12592 69.508 -9.36778 68.5688 -9.83719 M 64.2841 -5.56519 C 64.9179 -2.95719 62.7505 3.26 62.7505 3.26 M 64.0182 -16.505 L 64.0182 -106.928 L 69.7228 -112.796 L 75.4274 -106.928 L 75.4274 -16.505 M 57.6797 -18.256 C 57.6797 -20.864 62.7505 -22.521 62.7505 -18.256 C 62.7505 -17.2841 61.4828 -17.2737 61.4828 -18.256 C 61.4828 -18.908 60.2241 -18.9242 60.2151 -17.604 C 60.1839 -13.0401 68.4551 -18.908 69.7228 -20.212 C 70.9905 -18.908 79.2617 -13.0401 79.2305 -17.604 C 79.2215 -18.9242 77.9628 -18.908 77.9628 -18.256 C 77.9628 -17.2737 76.6951 -17.2841 76.6951 -18.256 C 76.6951 -22.521 81.7659 -20.864 81.7659 -18.256 C 81.7659 -11.736 70.9905 -14.657 69.7228 -16.3 C 68.4551 -14.657 57.6797 -11.736 57.6797 -18.256 Z M 69.7745 -20.1307 C 70.0163 -23.7574 70.7675 -29.4484 70.7002 -31.9834 C 70.6137 -35.2422 69.3387 -36.4038 69.2695 -39.0108 C 69.2003 -41.6178 71.4812 -45.7121 71.3947 -48.9708 C 71.3082 -52.2296 69.4551 -55.9111 69.3859 -58.5182 C 69.3168 -61.1252 70.5682 -64.4215 70.4991 -67.0286 C 70.4299 -69.6356 68.3327 -74.3127 68.2636 -76.9197 C 68.1944 -79.5268 70.1081 -85.3339 70.0389 -87.941 C 69.9697 -90.548 68.5359 -94.4747 68.4841 -96.43 C 68.4322 -98.3853 70.1702 -104.572 70.1184 -106.527 C 70.0665 -108.483 69.7794 -110.882 69.7228 -112.796 C 69.7181 -110.799 69.9403 -108.393 69.9403 -106.437 C 69.9403 -104.481 68.0388 -98.3449 68.0388 -96.3889 C 68.0388 -94.4329 69.3679 -90.4674 69.3679 -87.8594 C 69.3679 -85.2514 67.3009 -79.5001 67.3009 -76.8921 C 67.3009 -74.2841 69.2732 -69.5499 69.2732 -66.9419 C 69.2732 -64.3339 67.9347 -61.0739 67.9347 -58.4659 C 67.9347 -55.8579 69.6895 -52.1257 69.6895 -48.8657 C 69.6895 -45.6057 67.3009 -41.577 67.3009 -38.969 C 67.3009 -36.361 68.5446 -35.1641 68.5446 -31.9041 C 68.5446 -28.8714 67.2549 -21.3597 67.1822 -18.2301 M -56.6146 -2.89045 C -45.7643 -5.70471 -37.9423 -5.78959 -27.7594 -3.64907 M -46.9294 -25.4652 C -46.9937 -21.8479 -47.0043 -18.2537 -46.9746 -14.6827 C -50.8111 -14.2486 -54.4825 -13.4165 -58.0212 -12.2665 M -37.9386 -25.5204 C -37.6778 -22.0051 -37.4769 -18.4798 -37.3285 -14.9477 C -33.9925 -14.751 -30.524 -14.2549 -26.9131 -13.4196 M -54.8626 0.0214247 C -45.2191 -2.38219 -38.4005 -2.4697 -29.3441 -0.652104 M -50.1191 -24.0629 C -50.1465 -21.8709 -50.1527 -19.6899 -50.1482 -17.5156 C -52.5082 -17.1284 -54.81 -16.6064 -57.0541 -15.961 M -28.1209 -17.0116 C -30.2242 -17.4363 -32.2859 -17.7508 -34.3075 -17.9639 C -34.4107 -20.0196 -34.5264 -22.0741 -34.6641 -24.1261 M -40.5662 -15.648 C -40.5662 -15.1292 -40.7666 -14.6317 -41.1232 -14.2649 C -41.4798 -13.8981 -41.9634 -13.692 -42.4678 -13.692 C -42.9721 -13.692 -43.4557 -13.8981 -43.8124 -14.2649 C -44.169 -14.6317 -44.3693 -15.1292 -44.3693 -15.648 C -44.3693 -16.1668 -44.169 -16.6643 -43.8124 -17.0311 C -43.4557 -17.3979 -42.9721 -17.604 -42.4678 -17.604 C -41.9634 -17.604 -41.4798 -17.3979 -41.1232 -17.0311 C -40.7666 -16.6643 -40.5662 -16.1668 -40.5662 -15.648 Z M -40.5662 -21.516 C -40.5662 -20.9972 -40.7666 -20.4997 -41.1232 -20.1329 C -41.4798 -19.7661 -41.9634 -19.56 -42.4678 -19.56 C -42.9721 -19.56 -43.4557 -19.7661 -43.8124 -20.1329 C -44.169 -20.4997 -44.3693 -20.9972 -44.3693 -21.516 C -44.3693 -22.0348 -44.169 -22.5323 -43.8124 -22.8991 C -43.4557 -23.2659 -42.9721 -23.472 -42.4678 -23.472 C -41.9634 -23.472 -41.4798 -23.2659 -41.1232 -22.8991 C -40.7666 -22.5323 -40.5662 -22.0348 -40.5662 -21.516 Z M -40.5662 -9.78 C -40.5662 -9.26124 -40.7666 -8.76372 -41.1232 -8.3969 C -41.4798 -8.03008 -41.9634 -7.824 -42.4678 -7.824 C -42.9721 -7.824 -43.4557 -8.03008 -43.8124 -8.3969 C -44.169 -8.76372 -44.3693 -9.26124 -44.3693 -9.78 C -44.3693 -10.2988 -44.169 -10.7963 -43.8124 -11.1631 C -43.4557 -11.5299 -42.9721 -11.736 -42.4678 -11.736 C -41.9634 -11.736 -41.4798 -11.5299 -41.1232 -11.1631 C -40.7666 -10.7963 -40.5662 -10.2988 -40.5662 -9.78 Z M -46.9047 -9.78 C -46.9047 -9.26124 -47.105 -8.76372 -47.4616 -8.3969 C -47.8182 -8.03008 -48.3019 -7.824 -48.8062 -7.824 C -49.3105 -7.824 -49.7942 -8.03008 -50.1508 -8.3969 C -50.5074 -8.76372 -50.7078 -9.26124 -50.7078 -9.78 C -50.7078 -10.2988 -50.5074 -10.7963 -50.1508 -11.1631 C -49.7942 -11.5299 -49.3105 -11.736 -48.8062 -11.736 C -48.3019 -11.736 -47.8182 -11.5299 -47.4616 -11.1631 C -47.105 -10.7963 -46.9047 -10.2988 -46.9047 -9.78 Z M -52.6093 -8.476 C -52.6093 -7.95724 -52.8096 -7.45972 -53.1662 -7.0929 C -53.5228 -6.72608 -54.0065 -6.52 -54.5108 -6.52 C -55.0151 -6.52 -55.4988 -6.72608 -55.8554 -7.0929 C -56.212 -7.45972 -56.4124 -7.95724 -56.4124 -8.476 C -56.4124 -8.99476 -56.212 -9.49228 -55.8554 -9.8591 C -55.4988 -10.2259 -55.0151 -10.432 -54.5108 -10.432 C -54.0065 -10.432 -53.5228 -10.2259 -53.1662 -9.8591 C -52.8096 -9.49228 -52.6093 -8.99476 -52.6093 -8.476 Z M -34.2278 -9.78 C -34.2278 -9.26124 -34.4281 -8.76372 -34.7847 -8.3969 C -35.1413 -8.03008 -35.625 -7.824 -36.1293 -7.824 C -36.6336 -7.824 -37.1173 -8.03008 -37.4739 -8.3969 C -37.8305 -8.76372 -38.0309 -9.26124 -38.0309 -9.78 C -38.0309 -10.2988 -37.8305 -10.7963 -37.4739 -11.1631 C -37.1173 -11.5299 -36.6336 -11.736 -36.1293 -11.736 C -35.625 -11.736 -35.1413 -11.5299 -34.7847 -11.1631 C -34.4281 -10.7963 -34.2278 -10.2988 -34.2278 -9.78 Z M -28.5232 -9.128 C -28.5232 -8.60924 -28.7235 -8.11172 -29.0801 -7.7449 C -29.4367 -7.37808 -29.9204 -7.172 -30.4247 -7.172 C -30.929 -7.172 -31.4127 -7.37808 -31.7693 -7.7449 C -32.1259 -8.11172 -32.3262 -8.60924 -32.3262 -9.128 C -32.3262 -9.64676 -32.1259 -10.1443 -31.7693 -10.5111 C -31.4127 -10.8779 -30.929 -11.084 -30.4247 -11.084 C -29.9204 -11.084 -29.4367 -10.8779 -29.0801 -10.5111 C -28.7235 -10.1443 -28.5232 -9.64676 -28.5232 -9.128 Z M -46.2401 -25.6628 C -46.2409 -25.6932 -46.2414 -25.7236 -46.2414 -25.754 C -46.2414 -26.7051 -45.832 -27.6172 -45.1032 -28.2897 C -44.3745 -28.9622 -43.3861 -29.34 -42.3556 -29.34 C -41.325 -29.34 -40.3366 -28.9622 -39.6079 -28.2897 C -38.8791 -27.6172 -38.4697 -26.7051 -38.4697 -25.754 L -38.4697 -25.754 C -38.4697 -25.7218 -38.4702 -25.6896 -38.4711 -25.6573 M -43.9464 -28.9535 C -44.3482 -30.8114 -45.713 -35.7383 -48.8062 -35.208 C -51.8407 -34.6878 -54.0848 -27.5122 -51.3416 -26.08 C -49.1935 -24.9585 -49.3019 -32.1922 -46.9047 -31.948 C -45.7191 -31.8272 -45.183 -29.1451 -45.0423 -28.2933 M -43.8502 -29.0605 L -43.85 -29.0574 M -41.0811 -29.1373 C -40.89 -32.5471 -40.3616 -35.8881 -39.2985 -39.12 L -42.4678 -43.032 L -45.637 -39.12 C -44.5659 -35.8638 -44.0376 -32.4969 -43.8502 -29.0605 M -41.0812 -29.1353 L -41.0811 -29.1373 M -39.8608 -28.4807 C -39.6803 -29.4819 -39.1397 -31.8351 -38.0309 -31.948 C -35.6336 -32.1922 -35.7421 -24.9585 -33.5939 -26.08 C -30.8507 -27.5122 -33.0949 -34.6878 -36.1293 -35.208 C -39.172 -35.7296 -40.5423 -30.9708 -40.9687 -29.0469 M -59.8864 -7.172 L -64.7722 -7.172 M -60.0664 -9.128 L -64.6523 -9.128 M -60.0624 -11.084 L -64.6523 -11.084 M -59.8302 -13.04 L -64.6523 -13.04 M -59.381 -14.996 L -64.6523 -14.996 M -58.6784 -16.952 L -64.6523 -16.952 M -57.7298 -18.908 L -64.6523 -18.908 M -56.4619 -20.864 L -64.6523 -20.864 M -54.7921 -22.82 L -64.6523 -22.82 M -52.8294 -24.776 L -64.6523 -24.776 M -54.1476 -26.732 L -64.6523 -26.732 M -54.4833 -28.688 L -64.6523 -28.688 M -54.2875 -30.644 L -64.6523 -30.644 M -53.6935 -32.6 L -64.6523 -32.6 M -24.0863 -7.172 L -24.8248 -7.172 M -24.0863 -9.128 L -24.6448 -9.128 M -24.0863 -11.084 L -24.6486 -11.084 M -24.0863 -13.04 L -24.8813 -13.04 M -24.0863 -14.996 L -25.3302 -14.996 M -24.0863 -16.952 L -26.0306 -16.952 M -24.0863 -18.908 L -26.9779 -18.908 M -24.0863 -20.864 L -28.2459 -20.864 M -24.0863 -22.82 L -29.9184 -22.82 M -24.0863 -24.776 L -32.0947 -24.776 M -24.0863 -26.732 L -30.7904 -26.732 M -24.0863 -28.688 L -30.4522 -28.688 M -24.0863 -30.644 L -30.648 -30.644 M -24.0863 -32.6 L -31.242 -32.6 M 82.3997 5.216 L 77.1299 5.216 M 75.4274 -22.168 L 82.3997 -24.5587 M 27.3235 -60.397 C 30.5675 -59.9068 33.5695 -61.3154 33.5486 -64.7373 C 33.5295 -67.8553 30.5989 -69.0592 28.7441 -68.2615 M 29.9038 -60.2433 C 33.1479 -59.7531 36.1499 -61.1617 36.1289 -64.5836 C 36.1104 -67.6024 33.3629 -68.8269 31.5047 -68.1779 M 32.4392 -60.2433 C 35.6833 -59.7531 38.6852 -61.1617 38.6643 -64.5836 C 38.6452 -67.7016 35.7147 -68.9055 33.8598 -68.1078 M 34.3407 -60.2433 C 37.5848 -59.7531 40.5868 -61.1617 40.5658 -64.5836 C 40.5476 -67.5621 37.8727 -68.7939 36.0165 -68.2029 M 36.8761 -60.2433 C 40.1202 -59.7531 43.1222 -61.1617 43.1012 -64.5836 C 43.0821 -67.7016 40.1516 -68.9055 38.2967 -68.1078 M 39.4115 -60.2433 C 42.6556 -59.7531 45.6575 -61.1617 45.6366 -64.5836 C 45.6175 -67.7016 42.687 -68.9055 40.8321 -68.1078 M 41.9469 -60.2433 C 45.1909 -59.7531 48.1929 -61.1617 48.172 -64.5836 C 48.1529 -67.7016 45.2223 -68.9055 43.3675 -68.1078 M 13.3028 -102.386 C 20.6993 -86.7042 16.7395 -74.5418 16.8644 -69.465 C 17.1137 -59.332 31.0583 -57.376 31.0132 -64.7373 C 30.9852 -69.3012 24.7198 -69.764 24.7198 -65.852 C 24.6452 -63.6869 28.6919 -63.1699 27.889 -65.852 M 15.5898 -102.248 C 22.9721 -86.6281 20.3055 -74.4511 20.4301 -69.3892 C 20.534 -65.1659 23.4005 -63.7373 26.7055 -64.0404 M 17.8744 -102.109 C 25.1948 -86.5562 22.8413 -74.4362 22.9655 -69.3892 C 23.018 -67.2553 23.7758 -65.8348 24.9391 -64.9907 M 20.414 -101.892 C 26.4281 -91.2077 24.7702 -78.928 25.6713 -67.9042 M 22.8278 -101.666 C 28.8723 -91.3182 27.5967 -79.4505 29.1573 -68.46 M 25.1445 -101.435 C 30.9652 -90.9915 30.1198 -78.1874 32.6433 -68.4728 M 27.5251 -101.148 C 33.2157 -90.6832 32.5095 -77.4934 36.1293 -68.4036 M 29.9266 -100.859 C 35.5833 -90.2812 34.9174 -76.2073 39.6153 -68.2439 M 31.3923 -102.168 C 37.9303 -91.2618 38.259 -74.0636 43.1013 -68.46 M 15.7857 -57.2257 C 19.5491 -56.6961 23.991 -58.869 24.7198 -60.3683 M 13.3106 -102.364 C 24.8933 -73.8704 8.99971 -72.6588 9.38864 -63.1282 C 9.49582 -60.5019 10.7752 -59.332 12.4594 -58.7354 M 16.4742 -58.8911 C 19.2065 -58.2062 22.6301 -59.2301 24.8495 -60.3647 M 17.8039 -80.6298 C 16.6247 -74.376 11.24 -71.088 11.6077 -64.5593 C 11.6906 -63.0881 12.5737 -62.4572 13.0521 -61.5453 M 17.7091 -78.6988 C 16.3778 -74.6421 13.4669 -72.1289 13.779 -66.5879 C 14.1719 -59.6123 19.5257 -59.5542 23.6205 -60.6987 M 17.5256 -76.7323 C 16.4106 -74.1826 14.9861 -72.1499 15.2307 -67.8077 C 15.5597 -61.9672 19.2374 -60.578 22.829 -60.9523 M 6.3383 -64.548 C 5.75782 -55.2601 16.4798 -54.116 16.4798 -59.332 C 16.4798 -63.244 10.1414 -61.94 12.6767 -58.68 M 4.18323 -63.7656 C 4.18323 -59.8536 7.33123 -53.6159 10.6648 -56.6483 M 2.02815 -62.9832 C 2.02815 -58.4192 4.89002 -53.7384 8.28492 -55.7228 M -0.126919 -62.2008 C -0.126919 -58.2888 1.90138 -54.116 5.75782 -55.2601 M -2.28199 -61.4184 C -1.64815 -57.5064 -0.633995 -54.116 3.48002 -55.0244 M -4.43707 -60.636 C -3.16938 -56.724 -2.53553 -55.42 0.584951 -54.9024 M -9.50783 -60.636 C -10.7755 -57.5329 -11.4581 -57.1346 -14.5786 -56.724 M -11.6629 -61.2566 C -12.2967 -58.1535 -13.6338 -56.6554 -17.7478 -57.376 M -13.818 -61.8772 C -13.818 -58.7741 -17.6944 -56.4685 -21.5509 -57.376 M -18.1281 -63.1185 C -18.1281 -60.0154 -21.6924 -55.4421 -25.026 -57.8475 M -20.2832 -63.7391 C -19.0155 -56.4985 -32.3262 -56.072 -32.4636 -61.9122 C -32.587 -67.1564 -25.354 -66.504 -25.354 -62.592 C -25.354 -59.509 -30.5284 -58.6507 -30.4247 -61.94 C -30.3909 -63.0117 -29.157 -63.896 -27.8893 -63.244 M -10.7755 -58.028 C -8.24014 -54.768 -4.43707 -57.376 -4.43707 -60.636 M -15.973 -62.4979 C -15.973 -59.8675 -18.5761 -57.558 -21.718 -57.468 M -23.6469 -101.077 C -25.1684 -95.7863 -22.8186 -94.9246 -22.8186 -88.02 C -22.8186 -80.848 -31.0586 -82.152 -31.0586 -87.368 C -31.0586 -91.28 -25.9878 -90.628 -25.9878 -87.368 C -25.9878 -84.968 -29.7909 -84.76 -29.7909 -86.716 C -29.7909 -88.672 -27.8893 -88.02 -27.8893 -88.02 M -24.5283 -101.082 C -26.3794 -95.2655 -25.3973 -91.6098 -26.0041 -87.1016 M -27.9294 -76.8457 C -27.9294 -76.8457 -29.831 -77.4977 -29.831 -75.5417 C -29.831 -73.5857 -26.0279 -73.7937 -26.0279 -76.1937 C -26.0279 -79.4537 -31.6191 -80.1593 -31.6191 -76.2473 C -31.6191 -71.0313 -23.4524 -70.416 -23.3791 -76.8993 C -23.3412 -80.2458 -24.0863 -80.848 -23.2323 -85.72 C -25.354 -82.152 -23.2115 -77.4514 -26.1012 -75.5785 M -23.4524 -77.588 C -21.0543 -65.9228 -23.0936 -61.2752 -27.2555 -59.984 M -23.4524 -94.54 C -23.4524 -94.54 -20.917 -97.148 -18.3817 -97.148 C -15.8463 -97.148 -14.8901 -96.3576 -14.257 -96.3258 C -13.5567 -96.2906 -12.6771 -97.148 -12.0432 -97.8 L -12.0432 -96.496 C -12.0432 -96.496 -13.5711 -95.8879 -14.2049 -95.8879 C -14.8388 -95.8879 -17.5066 -96.6453 -18.5378 -96.7101 C -19.0414 -96.7418 -22.6229 -95.6621 -23.4524 -94.54 M 11.4091 -93.236 C 11.4091 -93.236 7.23755 -97.5762 4.70217 -97.5762 C 2.16679 -97.5762 -1.54753 -96.4647 -2.18062 -96.4328 C -2.88086 -96.3976 -4.43707 -96.496 -5.07091 -97.8 L -5.07091 -96.496 C -5.07091 -96.496 -2.8665 -95.995 -2.23266 -95.995 C -1.59881 -95.995 4.12685 -97.1991 4.85829 -97.1384 C 6.87201 -96.9711 10.5795 -94.3581 11.4091 -93.236 M -12.0432 -96.496 C -12.0432 -96.496 -10.1417 -94.54 -10.1417 -93.888 C -10.1417 -91.28 -11.6269 -89.9225 -11.6269 -87.3145 C -11.6269 -84.7065 -13.3109 -79.544 -13.2589 -78.4102 C -13.229 -77.759 -11.4094 -76.936 -10.7755 -76.936 C -10.1417 -76.936 -10.1417 -74.328 -10.1417 -74.328 M -5.70476 -81.5 C -2.53553 -80.848 -2.03179 -76.7633 -4.43707 -77.588 C -10.1417 -79.544 -10.1417 -76.284 -6.02636 -77.9092 M -15.2124 -70.416 L -15.2124 -69.112 L -14.5786 -69.764 L -15.2124 -70.416 Z M -0.633995 -70.416 L -0.633995 -69.112 L -1.26784 -69.764 L -0.633995 -70.416 Z M -14.5786 -69.764 C -13.3109 -69.764 -12.6771 -71.068 -11.4094 -71.068 C -10.1417 -71.068 -9.50783 -70.416 -8.87398 -70.416 C -8.24014 -70.416 -6.77365 -71.3453 -6.13981 -71.3453 C -5.50596 -71.3453 -3.16938 -69.764 -1.26784 -69.764 M -10.7755 -67.156 C -10.0325 -65.5442 -6.97245 -65.2 -6.3386 -67.156 M -22.8186 -89.976 C -21.5509 -90.628 -20.2832 -91.28 -18.2869 -91.1729 C -16.2853 -91.0656 -14.5786 -88.02 -12.6771 -88.02 C -15.8463 -88.02 -16.4801 -86.716 -18.3817 -86.716 C -20.2832 -86.716 -21.5509 -87.368 -22.8186 -88.02 M -3.80322 -89.324 C -3.80322 -89.324 -1.26784 -91.932 0.633695 -91.932 C 2.53523 -91.932 6.97214 -89.324 8.23983 -89.324 C 5.40696 -89.3306 2.56511 -87.368 0.633695 -87.368 C -1.90169 -87.368 -3.80322 -89.324 -3.80322 -89.324 M -19.6493 -74.328 C -18.9117 -74.1403 -17.7478 -75.9787 -19.6493 -75.9509 C -22.521 -75.9091 -21.4618 -71.5866 -18.4496 -71.5914 C -16.5983 -71.5944 -14.5786 -74.0543 -12.6771 -74.328 L -12.6771 -75.632 C -16.4801 -74.328 -15.8463 -72.372 -18.3817 -71.72 M 5.07061 -73.676 C 3.50109 -74.328 2.57673 -76.4758 5.37838 -76.7035 C 8.23983 -76.936 7.60599 -71.72 2.19253 -71.5914 C -0.542674 -71.5264 -2.24177 -74.328 -6.3386 -74.328 L -6.3386 -75.632 C 0.265764 -74.98 -1.65484 -72.372 2.09217 -71.72 M 13.6715 -2.84217e-14 C 13.6715 6.95317 7.5505 12.5898 -0.00015 12.5898 C -7.5508 12.5898 -13.6718 6.95317 -13.6718 -2.99872e-09 C -13.6718 -6.95318 -7.5508 -12.5898 -0.00015 -12.5898 C 7.5505 -12.5898 13.6715 -6.95318 13.6715 4.03622e-09 Z M -14.8132 -56.6614 C -9.13385 -43.9636 -5.88094 -28.829 -3.22257 -12.2262 M 9.00936 -32.2447 L 11.1787 -7.22142 M -0.565706 -36.6768 L 0.353203 -12.5734 M -12.4282 -5.21599 L -27.1777 -5.216 M 19.809 -5.216 L 12.4244 -5.216 M 12.4242 -5.21665 L 19.9302 -10.0423 M -56.7945 -49.4079 C -33.6457 -48.0181 -15.9507 -36.8488 -9.43827 -9.10401 M 13.2126 -3.26 L 19.7057 -3.26 M -19.9664 -3.26 L -13.3306 -3.26"
       id="path1243"
       style="display:inline"
       inkscape:label="layer-16" />
    <path
       stroke="#4444ff"
       stroke-linecap="round"
       stroke-linejoin="round"
       stroke-width="0.3857150481897226"
       fill="none"
       d="M 70.3566 -54.0867 L 70.3566 -65.0691 M 70.3566 -43.806 L 70.3566 -54.0867 M 70.3566 -34.4167 L 70.3566 -43.806 M 70.3566 -68.2346 L 70.3566 -112.144 M 74.1597 -17.1428 L 74.1597 -108.232 M 72.892 -17.8719 L 72.892 -109.536 M 71.6243 -18.7037 L 71.6243 -110.84 M 70.3566 -19.6601 L 70.3566 -26.5071 M 69.089 -100.403 L 69.089 -101.854 M 69.089 -93.1433 L 69.089 -100.403 M 69.089 -82.1278 L 69.089 -85.6634 M 69.089 -73.0153 L 69.089 -82.1278 M 69.7936 -12.5047 C 70.2863 -11.8708 70.3772 -11.2565 70.1087 -9.39803 M 70.3566 -8.476 C 70.8494 -7.84207 71.207 -6.64619 70.6783 -5.2963 M 70.1551 -5.45257 C 70.6478 -4.81864 70.7452 -3.46218 70.2685 -2.35316 M 69.7034 -1.32645 C 70.1961 -0.692519 70.1634 0.556886 69.7128 1.61237 M 74.7936 -12.0936 C 74.9553 -11.5923 74.9784 -11.1482 74.7936 -10.7896 M 74.8716 -7.92591 C 75.0334 -7.42467 75.0564 -6.98053 74.8716 -6.62191 M 74.5594 -4.23767 C 74.7211 -3.73643 74.7442 -3.29228 74.5594 -2.93367 M 74.3679 -0.759061 C 74.5297 -0.257827 74.5527 0.186329 74.3679 0.544942 M 68.9431 -7.8968 C 66.8242 -7.824 67.1874 -3.912 67.1874 -3.912 M -21.5509 -90.628 C -20.917 -91.932 -19.1184 -93.236 -17.114 -93.236 C -15.2124 -93.236 -13.3109 -90.628 -13.3109 -90.628 M -2.53553 -90.353 C -2.53553 -90.353 -0.559072 -93.4181 1.59549 -93.4436 C 3.73399 -93.4689 5.49152 -92.1888 5.95673 -91.4616 M -3.80322 -89.324 C -3.16938 -87.368 -1.92566 -85.1686 1.26754 -85.412 M -22.8186 -88.02 C -23.2323 -85.72 -18.3817 -84.76 -18.3817 -84.76 M -16.6197 -90.5204 C -16.5296 -90.2064 -16.4801 -89.8648 -16.4801 -89.5076 C -16.4801 -87.9658 -17.401 -86.716 -18.537 -86.716 C -19.673 -86.716 -20.5939 -87.9658 -20.5939 -89.5076 C -20.5939 -90.0497 -20.48 -90.5557 -20.283 -90.984 M 2.31459 -91.5876 C 2.50623 -91.1634 2.61672 -90.6644 2.61672 -90.1304 C 2.61672 -88.5886 1.69583 -87.3388 0.559851 -87.3388 C -0.576126 -87.3388 -1.49702 -88.5886 -1.49702 -90.1304 C -1.49702 -90.6101 -1.40784 -91.0616 -1.25076 -91.456 M -11.4094 -63.244 C -9.50783 -64.548 -6.97245 -63.896 -6.3386 -63.244"
       id="path1233"
       style="display:inline"
       inkscape:label="layer-17" />
    <path
       id="path2269"
       d="M 43.0109 -50.6167 C 42.1097 -48.572 42.4803 -48.2419 42.4662 -47.1996 L 40.2258 -48.2441 C 41.0154 -48.9249 41.5065 -48.8532 42.4939 -50.8578 C 42.5082 -50.8886 42.5051 -50.9247 42.4856 -50.9525 C 42.4661 -50.9803 42.4333 -50.9956 42.3994 -50.9927 C 42.3656 -50.9897 42.3359 -50.9689 42.3215 -50.9381 C 41.7999 -50.2056 40.8528 -49.9122 40.0083 -50.2215 C 39.1638 -50.5308 38.6303 -51.3665 38.7054 -52.2626 C 38.7805 -53.1587 39.4455 -53.8941 40.3297 -54.0586 C 41.214 -54.2231 42.099 -53.7763 42.4915 -52.9672 C 42.5138 -52.9254 42.5634 -52.9065 42.6079 -52.9226 C 42.6524 -52.9388 42.6782 -52.9852 42.6684 -53.0315 C 42.0747 -53.8359 42.1022 -54.9405 42.7353 -55.7143 C 43.3685 -56.4881 44.4459 -56.7339 45.3521 -56.3114 C 46.2583 -55.8889 46.7624 -54.9057 46.5765 -53.9234 C 46.3907 -52.9411 45.5621 -52.21 44.5641 -52.1477 C 44.5224 -52.1254 44.5034 -52.0758 44.5196 -52.0313 C 44.5358 -51.9869 44.5822 -51.9611 44.6285 -51.9708 C 45.5007 -52.1903 46.412 -51.7996 46.8543 -51.0166 C 47.2966 -50.2336 47.1607 -49.2516 46.5224 -48.6181 C 45.8841 -47.9846 44.9009 -47.856 44.1211 -48.304 C 43.3413 -48.752 42.9573 -49.666 43.1832 -50.5364 C 43.1976 -50.5672 43.1944 -50.6033 43.1749 -50.6311 C 43.1555 -50.6589 43.1226 -50.6742 43.0888 -50.6713 C 43.0549 -50.6683 43.0252 -50.6475 43.0109 -50.6167 Z M 35.0215 -34.9304 C 34.4891 -32.7603 34.9114 -32.4996 35.0786 -31.4706 L 32.6908 -32.1103 C 33.3502 -32.9178 33.8463 -32.9325 34.4705 -35.0781 C 34.484 -35.1288 34.4539 -35.1808 34.4032 -35.1944 C 34.3525 -35.208 34.3004 -35.1779 34.2868 -35.1273 C 33.9003 -34.3153 33.0185 -33.8619 32.1331 -34.0199 C 31.2477 -34.1779 30.5773 -34.9083 30.4956 -35.8038 C 30.4139 -36.6993 30.9411 -37.5389 31.7833 -37.8545 C 32.6255 -38.17 33.5748 -37.8836 34.1018 -37.155 C 34.131 -37.1178 34.1832 -37.1077 34.2242 -37.1313 C 34.2651 -37.155 34.2825 -37.2052 34.2648 -37.2491 C 33.5404 -37.9382 33.3757 -39.0307 33.8648 -39.9027 C 34.3539 -40.7746 35.3723 -41.2038 36.3381 -40.9451 C 37.3039 -40.6863 37.9712 -39.8056 37.9587 -38.8059 C 37.9462 -37.8063 37.2572 -36.9424 36.2853 -36.7078 C 36.248 -36.6786 36.238 -36.6265 36.2616 -36.5855 C 36.2853 -36.5445 36.3355 -36.5272 36.3794 -36.5448 C 37.2002 -36.9124 38.1655 -36.6858 38.7371 -35.9915 C 39.3087 -35.2972 39.3454 -34.3065 38.8268 -33.5718 C 38.3082 -32.8371 37.3623 -32.5398 36.5165 -32.8456 C 35.6707 -33.1514 35.1338 -33.9848 35.2052 -34.8812 C 35.2188 -34.932 35.1887 -34.9841 35.1379 -34.9977 C 35.0872 -35.0113 35.0351 -34.9812 35.0215 -34.9304 Z M 30.9648 -16.941 C 30.8174 -14.7114 31.2786 -14.528 31.6219 -13.5437 L 29.1593 -13.7591 C 29.6684 -14.6688 30.1544 -14.7694 30.3965 -16.9907 C 30.3995 -17.0246 30.3842 -17.0574 30.3563 -17.0769 C 30.3285 -17.0964 30.2924 -17.0995 30.2616 -17.0852 C 30.2308 -17.0708 30.2101 -17.0411 30.2071 -17.0073 C 29.9675 -16.1406 29.1779 -15.541 28.2785 -15.5428 C 27.3791 -15.5447 26.592 -16.1476 26.356 -17.0153 C 26.12 -17.8831 26.4934 -18.8015 27.268 -19.2584 C 28.0426 -19.7154 29.0272 -19.5982 29.6728 -18.9721 C 29.708 -18.9405 29.7611 -18.9397 29.7973 -18.9701 C 29.8336 -19.0005 29.8419 -19.0529 29.817 -19.0931 C 28.9839 -19.6459 28.6319 -20.6933 28.9622 -21.6369 C 29.2924 -22.5805 30.2207 -23.18 31.2168 -23.0929 C 32.2129 -23.0057 33.023 -22.2542 33.1843 -21.2676 C 33.3457 -20.281 32.8171 -19.3106 31.9007 -18.9108 C 31.8691 -18.8756 31.8682 -18.8225 31.8987 -18.7862 C 31.9291 -18.75 31.9815 -18.7416 32.0217 -18.7666 C 32.7662 -19.2711 33.7562 -19.2156 34.4397 -18.6311 C 35.1231 -18.0466 35.3314 -17.0773 34.9483 -16.2637 C 34.5651 -15.4501 33.6853 -14.9931 32.7992 -15.1474 C 31.9132 -15.3017 31.2397 -16.0293 31.1542 -16.9245 C 31.1588 -16.9768 31.1201 -17.0229 31.0678 -17.0274 C 31.0155 -17.032 30.9694 -16.9933 30.9648 -16.941 Z"
       style="display:inline"
       inkscape:label="layer-13" />
    <path
       d="M -57.363 -97.36 C -57.131 -86.456 -54.811 -85.76 -52.723 -81.12 L -64.787 -81.12 C -62.699 -85.76 -60.379 -86.456 -60.147 -97.36 C -60.147 -97.5258 -60.2354 -97.679 -60.379 -97.7618 C -60.5226 -97.8447 -60.6994 -97.8447 -60.843 -97.7618 C -60.9866 -97.679 -61.075 -97.5258 -61.075 -97.36 C -61.8711 -93.0435 -65.455 -89.7922 -69.8284 -89.4187 C -74.2017 -89.0453 -78.2849 -91.642 -79.8014 -95.761 C -81.3178 -99.88 -79.8931 -104.504 -76.3216 -107.056 C -72.7502 -109.607 -67.9136 -109.456 -64.5086 -106.686 C -64.3239 -106.548 -64.0654 -106.566 -63.9021 -106.73 C -63.7388 -106.893 -63.7205 -107.151 -63.859 -107.336 C -68.1444 -109.67 -70.3011 -114.613 -69.097 -119.342 C -67.8929 -124.071 -63.6347 -127.38 -58.755 -127.38 C -53.8753 -127.38 -49.6171 -124.071 -48.413 -119.342 C -47.2089 -114.613 -49.3656 -109.67 -53.651 -107.336 C -53.7895 -107.151 -53.7712 -106.893 -53.6079 -106.73 C -53.4446 -106.566 -53.1861 -106.548 -53.0014 -106.686 C -49.5964 -109.456 -44.7598 -109.607 -41.1884 -107.056 C -37.6169 -104.504 -36.1922 -99.88 -37.7086 -95.761 C -39.2251 -91.642 -43.3083 -89.0453 -47.6816 -89.4187 C -52.055 -89.7922 -55.6389 -93.0435 -56.435 -97.36 C -56.435 -97.5258 -56.5234 -97.679 -56.667 -97.7618 C -56.8106 -97.8447 -56.9874 -97.8447 -57.131 -97.7618 C -57.2746 -97.679 -57.363 -97.5258 -57.363 -97.36 Z"
       fill="#000000"
       id="path1229"
       style="display:none" />
  </g>
</svg>
