<?xml version="1.0" encoding="UTF-8" standalone="no"?>
<svg
   class="card"
   face="KD"
   height="3.5in"
   preserveAspectRatio="none"
   viewBox="-120 -168 240 336"
   width="2.5in"
   version="1.1"
   id="svg93"
   sodipodi:docname="k-diamond.svg"
   inkscape:version="1.2.2 (732a01da63, 2022-12-09)"
   xmlns:inkscape="http://www.inkscape.org/namespaces/inkscape"
   xmlns:sodipodi="http://sodipodi.sourceforge.net/DTD/sodipodi-0.dtd"
   xmlns="http://www.w3.org/2000/svg"
   xmlns:svg="http://www.w3.org/2000/svg">
  <sodipodi:namedview
     id="namedview95"
     pagecolor="#505050"
     bordercolor="#eeeeee"
     borderopacity="1"
     inkscape:showpageshadow="0"
     inkscape:pageopacity="0"
     inkscape:pagecheckerboard="0"
     inkscape:deskcolor="#505050"
     inkscape:document-units="in"
     showgrid="false"
     inkscape:zoom="3.0565476"
     inkscape:cx="120.56086"
     inkscape:cy="169.963"
     inkscape:window-width="1278"
     inkscape:window-height="1368"
     inkscape:window-x="0"
     inkscape:window-y="0"
     inkscape:window-maximized="0"
     inkscape:current-layer="svg93" />
  <defs
     id="defs49" />
  <g
     inkscape:groupmode="layer"
     id="layer1"
     inkscape:label="Layer 1">
    <path
       d="M 1,0 0,1 -1,0 0,-1"
       id="path1736"
       fill="#ff0000"
       inkscape:label="layer-0"
       style="display:inline;stroke-width:0.264583" />
    <path
       fill="#ffcc44"
       d="M -28.3608 -130.4 C -23.7373 -122.339 -19.6795 -114.388 -17.7478 -105.624 C 10.1414 -112.144 19.0152 -88.02 44.369 -95.844 C 43.5897 -109.888 51.4827 -121.642 58.5617 -130.4 Z M 82.3997 -119.968 L 72.2582 -109.536 L 72.3164 -51.6264 C 76.0126 -49.6296 79.527 -47.3521 82.3997 -45.1288 Z M 10.1951 -57.376 L 7.85879 -55.2557 C -1.56786 -46.6999 -6.82656 -44.8337 -18.0873 -41.9037 L -15.7492 -25.0292 C -3.72827 -28.1205 5.68604 -31.4546 16.3323 -40.424 L 26.8548 -40.424 C 22.1918 -30.1684 19.2464 -20.4291 17.5274 -11.084 L -15.5061 -11.084 L -15.5596 -7.824 L 16.9733 -7.824 C 13.4233 15.012 17.0028 35.5317 20.3809 55.5563 C 26.5021 55.0922 32.417 54.8194 31.0583 61.288 L 46.5365 54.9404 C 35.2444 20.3448 23.8919 -3.63596 47.641 -44.555 L 55.082 -57.376 Z M 52.0762 -45.8308 L 50.133 -42.4709 C 63.9285 -33.4761 72.0165 -22.8478 76.6391 -8.26104 L 80.1461 -9.80598 C 75.2265 -25.0228 66.4133 -36.472 52.0762 -45.8308 Z M 49.131 -40.7019 L 47.7274 -38.1079 C 48.307 -36.2013 44.1635 -33.5676 46.4976 -31.9564 C 49.0938 -30.1643 50.973 -32.2845 53.2428 -34.556 C 51.3534 -31.9419 49.3514 -29.5094 51.9751 -27.384 C 54.4389 -25.2023 56.6048 -27.6703 58.9455 -29.8644 C 56.9741 -27.3151 55.1444 -24.776 56.7151 -22.4993 C 58.3367 -20.149 61.5502 -22.6153 64.3502 -24.137 C 61.8214 -22.1763 58.6099 -20.4484 60.2151 -17.604 C 61.8057 -14.7855 65.1831 -16.1971 68.1429 -17.3554 C 65.4001 -15.7273 62.645 -13.9768 64.0182 -11.084 C 65.333 -8.31429 68.2318 -9.62691 71.3332 -10.2853 C 68.3 -9.28265 64.7203 -7.79607 67.6185 -3.54729 L 70.5485 -5.38562 C 67.9226 -4.7893 68.4116 -6.78886 70.084 -7.05255 C 75.1353 -7.84894 73.4228 -10.6389 74.3808 -11.531 C 72.8906 -11.5831 72.6519 -14.8339 68.1275 -12.39 C 65.6275 -11.3709 65.8002 -13.4249 67.4105 -13.9594 C 72.2738 -15.5736 70.151 -18.0473 70.9585 -19.085 C 69.4793 -18.8922 68.74 -22.0621 64.7885 -19.0572 C 62.5646 -17.8809 62.4921 -19.9414 64.0269 -20.6743 C 68.662 -22.8877 66.2611 -25.0759 66.9393 -26.2073 C 65.4941 -25.83 64.3838 -28.8835 60.7012 -25.239 C 58.7386 -23.3479 58.1672 -25.324 59.4748 -26.4287 C 63.4239 -29.7648 60.5671 -31.2653 60.9485 -32.5353 C 59.641 -31.7979 57.8232 -34.4685 55.1444 -29.992 C 53.2428 -28.036 52.609 -29.9919 53.8809 -31.1399 C 57.7221 -34.6068 54.819 -36.0107 55.16 -37.2929 C 53.8765 -36.512 51.9751 -39.12 49.4398 -34.556 C 47.7327 -32.4186 46.9166 -34.3016 48.0735 -35.5717 C 50.5853 -38.329 49.7297 -39.6759 49.131 -40.7019 Z M 82.3997 3.32469 C 67.7049 9.83413 57.0628 18.4037 50.5435 35.4385 L 50.1429 36.7229 C 48.3465 37.5535 46.5099 38.3567 44.6552 39.1154 C 46.1999 43.7726 47.8785 48.697 49.4638 53.6018 C 59.4819 49.1017 69.7874 43.3325 82.3997 34.7654 Z"
       id="path995"
       style="display:inline"
       inkscape:label="layer-1" />
    <path
       fill="#ff0000"
       d="M 12.6844 -121.087 C 11.6589 -120.167 10.4263 -119.414 9.05121 -118.922 C 8.4072 -116.641 7.41932 -114.65 6.12413 -112.99 C -1.14537 -114.094 -8.86117 -114.735 -17.0575 -113.943 C -17.0871 -114.11 -17.1889 -114.277 -17.2855 -114.444 C -18.3962 -116.367 -18.9625 -118.126 -19.4676 -119.626 C -20.8063 -119.898 -22.0624 -120.425 -23.2298 -120.931 C -20.8399 -115.871 -18.9095 -110.894 -17.7478 -105.624 C 10.1414 -112.144 19.0152 -88.02 44.369 -95.844 C 43.9756 -102.933 45.7921 -109.439 48.5883 -115.238 C 47.6634 -115.027 46.6852 -114.875 45.6367 -114.752 C 45.2886 -112.71 44.6743 -110.87 43.7121 -109.265 C 35.7969 -107.55 27.0783 -109.182 17.3229 -111.024 C 16.3797 -113.098 15.8012 -115.463 15.7016 -118.06 C 14.4831 -118.888 13.4637 -119.933 12.6844 -121.087 Z M 82.3997 -112.591 L 77.3289 -107.375 L 77.4889 -48.5743 C 79.2942 -47.4128 80.9385 -46.2568 82.3997 -45.1276 Z M 58.7018 -56.9675 L 57.8031 -55.705 L 50.3621 -42.884 Z M 47.5457 -53.5649 C 46.4347 -53.5318 44.4544 -52.9876 44.2128 -53.4655 C 43.9832 -53.071 43.8619 -52.6198 43.8619 -52.16 C 43.8619 -50.8271 44.8626 -49.7204 46.1549 -49.6238 C 45.8297 -50.2672 48.5954 -52.7275 48.2701 -53.3708 C 48.1896 -53.5301 47.916 -53.5759 47.5457 -53.5649 Z M 12.1132 -53.4655 C 11.5467 -52.9824 11.2189 -52.2649 11.2189 -51.508 C 11.2189 -50.1037 12.3257 -48.9652 13.6909 -48.9652 C 15.0561 -48.9652 16.1629 -50.1037 16.1629 -51.508 C 16.1629 -52.2645 15.8355 -52.9817 15.2696 -53.4648 Z M 22.3451 -53.4655 C 22.1156 -53.071 21.9943 -52.6198 21.9943 -52.16 C 21.9943 -50.7557 23.101 -49.6172 24.4663 -49.6172 C 25.8315 -49.6172 26.9383 -50.7557 26.9383 -52.16 C 26.9383 -52.6198 26.8171 -53.071 26.5877 -53.4655 Z M 33.4374 -53.4655 C 33.2079 -53.071 33.0866 -52.6198 33.0866 -52.16 C 33.0866 -50.7557 34.1933 -49.6172 35.5586 -49.6172 C 36.9238 -49.6172 38.0305 -50.7557 38.0305 -52.16 C 38.0305 -52.6198 37.9094 -53.071 37.68 -53.4655 Z M 4.81707 -47.5308 C 4.7336 -47.5308 4.65029 -47.5265 4.56725 -47.5178 L 2.61 -46.1336 C 2.43576 -45.7784 2.34508 -45.3859 2.34508 -44.988 C 2.34508 -43.5837 3.45183 -42.4452 4.81707 -42.4452 C 6.18232 -42.4452 7.28907 -43.5837 7.28907 -44.988 C 7.28907 -46.3923 6.18232 -47.5308 4.81707 -47.5308 Z M 40.6293 -44.9228 C 39.2641 -44.9228 38.1573 -43.7843 38.1573 -42.38 C 38.1573 -40.9757 39.2641 -39.8372 40.6293 -39.8372 C 40.6571 -39.8372 40.6848 -39.8379 40.7125 -39.8387 L 42.7572 -43.6743 C 42.3123 -44.4481 41.5033 -44.9228 40.6293 -44.9228 Z M -4.3202 -42.286 L -6.63547 -41.3416 C -6.97699 -40.8939 -7.1626 -40.3411 -7.1626 -39.772 C -7.1626 -38.3677 -6.05585 -37.2292 -4.6906 -37.2292 C -3.32536 -37.2292 -2.21861 -38.3677 -2.21861 -39.772 C -2.21861 -41.0292 -3.11184 -42.0976 -4.3202 -42.286 Z M 16.3323 -40.424 C 5.68604 -31.4546 -3.7284 -28.1205 -15.9198 -24.9026 L 20.9026 -24.8017 C 22.4696 -29.8982 24.4302 -35.0913 26.8548 -40.424 Z M -14.098 -38.9402 L -16.6269 -38.2604 C -17.0618 -37.7881 -17.3041 -37.1625 -17.3041 -36.512 C -17.3041 -35.1077 -16.1974 -33.9692 -14.8321 -33.9692 C -13.4669 -33.9692 -12.3601 -35.1077 -12.3601 -36.512 C -12.3601 -37.6255 -13.0643 -38.6095 -14.098 -38.9402 Z M 35.5586 -35.1428 C 34.1933 -35.1428 33.0866 -34.0043 33.0866 -32.6 C 33.0866 -31.1957 34.1933 -30.0572 35.5586 -30.0572 C 35.7933 -30.0572 36.027 -30.0916 36.2523 -30.1593 L 37.7763 -33.7234 C 37.3602 -34.5924 36.5003 -35.1428 35.5586 -35.1428 Z M 31.7555 -24.7108 C 30.3902 -24.7108 29.2835 -23.5723 29.2835 -22.168 C 29.2835 -20.7637 30.3902 -19.6252 31.7555 -19.6252 C 32.0689 -19.6252 32.3797 -19.6866 32.6708 -19.806 L 33.8189 -23.568 C 33.3615 -24.2814 32.5863 -24.7108 31.7555 -24.7108 Z M 41.0577 -23.0062 C 37.2182 -11.9717 36.3164 -2.22823 37.106 7.28661 C 37.6188 13.4654 38.8815 19.5789 40.6313 25.9756 C 45.1274 16.4034 51.1273 8.98941 58.1509 3.15864 L 57.3633 0.465567 C 54.1366 -11.1512 50.9769 -16.4064 41.0577 -23.0062 Z M 82.0964 -7.10604 L 80.9206 -6.61882 L 82.3997 -2.8418 L 82.3997 -6.33153 Z M 69.6951 -1.03581 L 68.5938 -0.389926 L 73.2503 8.00789 L 74.3514 7.36175 Z M 82.3997 7.04339 L 79.6883 8.16274 L 81.0293 11.0657 L 82.3997 10.4348 Z M 58.1007 7.39918 L 57.1608 8.27428 L 63.4329 15.4022 L 64.3728 14.5274 Z M 74.2882 11.1189 L 70.2549 13.8089 L 72.0423 16.3922 L 75.852 13.866 Z M 65.7712 17.548 L 62.4289 21.055 L 64.7753 23.1457 L 67.8579 19.875 Z M 48.8289 18.0115 L 48.1206 19.0929 L 55.9585 24.5249 L 56.6668 23.4435 Z M 58.7068 26.1131 L 56.4581 30.0569 L 59.2247 31.5667 L 61.3347 27.8666 Z M 42.309 30.4046 L 41.8311 31.6123 L 50.5995 35.2844 L 51.0776 34.0767 Z"
       id="path991"
       style="display:inline"
       inkscape:label="layer-4" />
    <path
       fill="#4444ff"
       d="M -6.3386 -72.372 C -11.4094 -72.372 -17.114 -76.936 -17.114 -76.936 L -17.114 -78.892 C -12.0432 -76.936 -13.3109 -73.024 -6.3386 -72.372 M -15.8463 -103.016 L -16.4801 -101.06 C -16.4801 -101.06 -10.7755 -101.712 -9.50783 -101.712 C -5.70476 -101.712 -1.90169 -95.844 2.53523 -95.844 C -1.90169 -95.844 -5.70476 -103.016 -9.54462 -103.167 C -10.8114 -103.217 -11.2705 -101.939 -13.8058 -101.939 C -14.4034 -101.939 -15.8463 -103.016 -15.8463 -103.016 Z M -9.55004 -93.4888 C -9.55004 -92.7838 -9.70028 -92.1077 -9.96771 -91.6092 C -10.2351 -91.1107 -10.5979 -90.8306 -10.9761 -90.8306 C -11.3543 -90.8306 -11.717 -91.1107 -11.9844 -91.6092 C -12.2518 -92.1077 -12.4021 -92.7838 -12.4021 -93.4888 C -12.4021 -94.9568 -11.7636 -96.1469 -10.9761 -96.1469 C -10.1885 -96.1469 -9.55004 -94.9568 -9.55004 -93.4888 Z M -20.4088 -55.7201 L -3.46728 -55.2214 C -0.936282 -55.1533 3.16809 -55.9461 5.78538 -60.223 C 6.90369 -58.7035 8.56127 -58.0414 10.3329 -58.0102 L 10.1951 -57.376 L 7.85879 -55.2557 C -1.56786 -46.6999 -6.82647 -44.8337 -18.1226 -41.9378 C -18.8624 -46.5941 -19.6413 -51.1698 -20.4088 -55.7201 Z M 19.0152 -51.508 C 19.0152 -48.4832 16.6314 -46.0312 13.6909 -46.0312 C 9.90819 -45.9481 9.2284 -51.2553 7.42945 -49.7601 C 9.10454 -48.7898 10.1414 -46.9659 10.1414 -44.988 C 10.1414 -41.9632 7.7576 -39.5112 4.81707 -39.5112 C 2.16409 -39.5112 -0.0832167 -41.5202 -0.454488 -44.2211 C -0.680504 -44.0932 -0.906456 -43.9687 -1.13265 -43.846 C -0.00860422 -42.8073 0.633695 -41.3264 0.633695 -39.772 C 0.633695 -36.7472 -1.75007 -34.2952 -4.6906 -34.2952 C -6.95655 -34.2952 -8.89064 -35.7519 -9.65935 -37.804 C -9.56012 -37.3837 -9.50783 -36.9503 -9.50783 -36.512 C -9.50783 -33.4872 -11.8916 -31.0352 -14.8321 -31.0352 C -15.4859 -31.0352 -16.1339 -31.1589 -16.7441 -31.4004 L -16.463 -28.878 C -4.26001 -32.0255 4.35965 -35.0861 14.9492 -44.336 L 33.0004 -44.336 C 13.1247 -5.57126 19.3212 24.627 24.2791 55.4531 C 28.1581 55.5024 30.8421 56.7827 30.9381 60.7291 L 43.0208 56.4561 C 33.5979 30.8233 25.3979 9.75229 31.8355 -16.692 C 31.8088 -16.6916 31.7822 -16.6912 31.7555 -16.6912 C 28.815 -16.6912 26.4312 -19.1432 26.4312 -22.168 C 26.4312 -25.1928 28.815 -27.6448 31.7555 -27.6448 C 32.8715 -27.6448 33.9591 -27.2838 34.8648 -26.6136 C 34.9298 -26.7913 34.9953 -26.9691 35.0616 -27.1474 C 32.3263 -27.4111 30.2343 -29.7728 30.2343 -32.6 C 30.2343 -35.6248 32.618 -38.0768 35.5586 -38.0768 C 36.8757 -38.0768 38.1455 -37.5743 39.1234 -36.6674 C 39.1881 -36.8022 39.2526 -36.9371 39.318 -37.0723 C 36.9585 -37.6891 35.305 -39.8741 35.305 -42.38 C 35.305 -45.4048 37.6888 -47.8568 40.6293 -47.8568 C 41.9816 -47.8568 43.283 -47.3276 44.2697 -46.3766 C 44.3052 -46.4379 44.3398 -46.499 44.3754 -46.5604 L 44.6166 -46.9758 C 42.4597 -47.7318 41.0096 -49.816 41.0096 -52.16 C 41.0096 -52.5995 41.0612 -53.0372 41.1629 -53.464 L 40.7296 -53.464 C 40.8313 -53.0372 40.8829 -52.5994 40.8829 -52.16 C 40.8829 -49.1352 38.4991 -46.6832 35.5586 -46.6832 C 32.618 -46.6832 30.2343 -49.1352 30.2343 -52.16 C 30.2343 -52.5995 30.2858 -53.0372 30.3875 -53.464 L 29.6373 -53.464 C 29.739 -53.0372 29.7906 -52.5994 29.7906 -52.16 C 29.7906 -49.1352 27.4068 -46.6832 24.4663 -46.6832 C 21.5257 -46.6832 19.142 -49.1352 19.142 -52.16 C 19.142 -52.5995 19.1935 -53.0372 19.2952 -53.464 C 18.1289 -53.6215 19.0085 -52.4902 19.0152 -51.508 Z M 41.2129 -53.464 L 48.257 -53.2483 L 48.3823 -53.464 Z M 44.2087 -30.9179 C 56.1989 -23.0415 61.5629 -15.1707 65.2395 -2.03016 L 67.6184 -3.54729 C 64.7203 -7.79608 68.3 -9.28258 71.3331 -10.2852 C 68.2317 -9.62684 65.333 -8.31429 64.0182 -11.084 C 62.645 -13.9768 65.4 -15.7274 68.1428 -17.3555 C 65.183 -16.1972 61.8057 -14.7855 60.2151 -17.604 C 58.6099 -20.4484 61.8213 -22.1762 64.3502 -24.1369 C 61.5502 -22.6152 58.3366 -20.149 56.715 -22.4994 C 55.1444 -24.776 56.974 -27.315 58.9454 -29.8644 C 56.6047 -27.6703 54.4389 -25.2023 51.9751 -27.384 C 49.3514 -29.5094 51.3534 -31.9419 53.2428 -34.556 C 50.973 -32.2845 49.0939 -30.1642 46.4977 -31.9563 C 44.1636 -33.5675 48.3072 -36.2012 47.7275 -38.1078 M 76.6392 -8.26094 C 72.0166 -22.8477 63.9284 -33.4762 50.1329 -42.471 L 49.131 -40.7018 C 49.7297 -39.6758 50.5852 -38.329 48.0734 -35.5717 C 46.9165 -34.3016 47.7327 -32.4186 49.4398 -34.556 C 51.9751 -39.12 53.8767 -36.512 55.1601 -37.2929 C 54.8192 -36.0107 57.722 -34.6069 53.8808 -31.1399 C 52.609 -29.992 53.2428 -28.036 55.1444 -29.992 C 57.8232 -34.4685 59.641 -31.7981 60.9484 -32.5354 C 60.567 -31.2654 63.4238 -29.7649 59.4747 -26.4287 C 58.1671 -25.3241 58.7386 -23.3478 60.7012 -25.239 C 64.3838 -28.8834 65.4941 -25.83 66.9394 -26.2073 C 66.2611 -25.0759 68.6619 -22.8877 64.0268 -20.6743 C 62.4921 -19.9414 62.5646 -17.881 64.7884 -19.0574 C 68.74 -22.0622 69.4792 -18.8922 70.9585 -19.085 C 70.1509 -18.0473 72.2738 -15.5737 67.4105 -13.9595 C 65.8002 -13.4251 65.6274 -11.3709 68.1274 -12.3901 C 72.6518 -14.8339 72.8905 -11.5832 74.3807 -11.531 C 73.4227 -10.639 75.1353 -7.84905 70.084 -7.05267 C 68.4115 -6.78898 67.9227 -4.78942 70.5486 -5.38574 Z M 62.466 -0.149751 L 62.239 -0.967303 C 58.7358 -13.5795 54.2102 -20.4718 42.9198 -27.9103 L 41.0632 -22.9735 C 50.977 -16.4064 54.1366 -11.1512 57.3633 0.465567 L 58.1225 3.1991"
       id="path987"
       style="display:inline"
       inkscape:label="layer-7" />
    <path
       fill="#000000"
       d="M 55.082 -57.376 L 47.641 -44.555 C 23.8919 -3.63596 35.2444 20.3448 46.5365 54.9404 L 49.4638 53.6018 L 42.1414 30.7151 C 50.3112 10.3651 64.8635 -0.041745 82.3997 -7.24459 L 82.3997 -10.743 C 64.9029 -3.72804 49.6517 6.57935 40.6709 26.0803 L 40.7717 26.4335 L 40.5917 25.8709 C 38.8815 19.579 37.6188 13.4654 37.106 7.28661 C 35.8779 -7.51097 38.7411 -22.8615 50.3621 -42.884 L 57.8031 -55.705 L 54.0277 -49.1959 C 67.7815 -40.1987 76.9657 -29.0334 82.3997 -14.8636 L 82.3997 -45.1294 C 75.7934 -50.2445 65.8344 -55.6231 58.5696 -56.9973 L 58.5615 -56.9833 Z M -16.0902 -24.776 L -15.5061 -11.084 L 17.5356 -11.084 L 20.9009 -24.776 Z M 43.2008 -15.404 L 42.9087 -14.17 C 41.1421 -6.70893 40.8376 0.126514 41.4006 6.90941 C 41.527 8.43297 41.7067 9.95905 41.9287 11.4905 L 42.1973 13.3436 L 43.2895 11.8442 C 45.9894 8.13803 48.9649 4.82548 52.1623 1.85285 L 52.5152 1.52482 L 52.3829 1.05466 C 50.2 -6.69941 48.5477 -10.7205 44.141 -14.5806 Z M 44.1043 -12.4853 C 47.4528 -9.20771 48.8734 -5.70743 50.7894 1.03556 C 48.0886 3.58063 45.551 6.37968 43.1954 9.44152 C 43.087 8.55068 42.9898 7.66193 42.9164 6.77647 C 42.3982 0.533349 42.6446 -5.71149 44.1043 -12.4853 Z"
       id="path983"
       style="display:inline"
       inkscape:label="layer-10" />
    <path
       fill="#000000"
       d="M 54.5108 48.9 C 59.3588 46.7003 60.9418 43.7074 60.8725 40.3132 C 62.5573 40.3586 64.363 39.6858 66.4023 37.6275 C 66.029 38.919 65.969 40.3215 65.92 41.728 C 70.7768 39.5243 72.3568 36.5247 72.2815 33.1229 C 73.4415 33.0263 74.6633 32.5642 75.9813 31.5301 C 75.5449 32.8842 75.4796 34.3697 75.4277 35.86 C 80.313 33.6433 81.8831 30.6213 81.7877 27.1948 C 81.9898 27.1676 82.1939 27.1281 82.4 27.0771 L 82.4 25.3233 C 81.5817 25.4306 80.7483 25.4476 79.5782 25.3997 C 80.7253 25.0579 81.5332 24.8178 82.4 24.6436 L 82.4 22.8218 C 80.4736 22.8217 78.3311 23.6196 75.8848 25.5403 C 77.3379 26.2951 78.7941 27.0317 80.345 27.207 C 78.6728 27.8708 77.5823 28.7408 76.8665 29.7434 C 74.0501 28.1478 70.7883 28.1982 66.6636 31.4366 C 68.0331 32.1479 69.4053 32.8428 70.8568 33.0674 C 68.3437 34.0599 67.139 35.5164 66.545 37.189 C 63.6257 35.3236 60.2363 35.1948 55.8882 38.6086 C 57.1223 39.2496 58.3586 39.8779 59.6531 40.1604 C 57.4341 40.9912 56.1921 42.1683 55.4891 43.5363 C 52.6333 41.8393 49.3224 41.8235 45.1128 45.1286 C 48.1271 46.6943 51.1539 48.186 55.0147 44.73 C 54.6229 46.0407 54.5607 47.4681 54.5108 48.9 Z M 56.4124 45.64 C 57.5906 43.216 58.2414 42.4622 60.3603 40.2765 C 60.4196 40.2831 60.4789 40.29 60.5385 40.2949 C 58.8816 43.0858 58.2017 43.7994 56.4124 45.64 Z M 49.785 45.0132 C 49.4836 45.0111 49.1603 45.0025 48.8062 44.988 C 51.2343 44.2645 52.1706 43.9961 55.3385 43.8495 C 55.313 43.9065 55.2901 43.9644 55.2662 44.022 C 52.7791 44.7591 51.7212 45.0266 49.785 45.0132 Z M 60.5603 38.4932 C 60.259 38.4911 59.9356 38.4825 59.5816 38.468 C 62.1087 37.715 63.005 37.4541 66.5006 37.3115 C 66.494 37.3313 66.4886 37.3516 66.4821 37.3716 C 63.6629 38.2111 62.6091 38.5074 60.5603 38.4932 Z M 67.8216 38.468 C 68.9931 36.0578 69.6426 35.2992 71.7326 33.1425 C 71.8004 33.1434 71.8686 33.1425 71.9369 33.141 C 70.2878 35.9167 69.607 36.6314 67.8216 38.468 Z M 77.3292 32.6 C 78.5066 30.1779 79.1571 29.4233 81.272 27.2416 C 81.338 27.2388 81.4044 27.2338 81.4708 27.2286 C 79.8024 30.0416 79.1242 30.7536 77.3292 32.6 Z M 71.3357 31.3212 C 71.0344 31.3191 70.711 31.3105 70.3569 31.296 C 72.7074 30.5956 73.6557 30.3214 76.5862 30.1716 C 76.5331 30.2612 76.483 30.3519 76.4349 30.4433 C 74.2069 31.098 73.1743 31.3339 71.3357 31.3212 Z"
       id="path979"
       style="display:inline"
       inkscape:label="layer-11" />
    <path
       stroke="#4444ff"
       stroke-linecap="round"
       stroke-linejoin="round"
       stroke-width="0.7714300963794452"
       fill="none"
       d="M 70.3566 -96.3419 L 70.3566 -83.6101 M 68.4551 -97.5224 L 68.4551 -82.4296 M 66.5536 -84.7195 L 66.5536 -80.808 M 66.5536 -92.531 L 66.5536 -87.421 M 66.5536 -99.144 L 66.5536 -95.2325 M 64.652 -82.3642 L 64.652 -78.715 M 64.652 -91.4944 L 64.6521 -88.4576 M 64.652 -101.237 L 64.652 -97.5878 M 62.7505 -90.5142 L 62.7505 -89.4378 M -16.4631 -28.878 C -4.26005 -32.0255 4.35965 -35.0861 14.9492 -44.336 L 33.0004 -44.336 C 13.1247 -5.57126 19.3213 24.6269 24.2791 55.4531 M -15.7492 -25.0292 C -3.72828 -28.1205 5.68604 -31.4546 16.3323 -40.424 L 26.8548 -40.424 C 10.1408 -3.66405 15.4737 26.4683 20.3809 55.5563 M 43.021 56.4561 C 30.3299 21.9331 19.8566 -4.31513 44.3754 -46.5604 L 48.3823 -53.464 L 11.6329 -53.464 L 10.3751 -52.3222 C 0.442843 -43.3075 -5.83216 -41.059 -17.5307 -38.0142 M 46.5364 54.9405 C 35.2443 20.3449 23.8919 -3.63596 47.641 -44.555 L 55.082 -57.376 L 10.1951 -57.376 L 7.85879 -55.2557 C -1.56786 -46.6999 -6.82647 -44.8337 -18.0872 -41.9037 M -28.3595 -130.399 C -23.7361 -122.339 -19.6795 -114.387 -17.7478 -105.624 C 10.1414 -112.144 19.0152 -88.02 44.369 -95.844 C 43.5896 -109.888 51.4836 -121.644 58.5629 -130.402 M -4.46765 -130.396 C -2.34698 -125 2.6247 -123.922 2.5783 -118.656 C 2.52661 -112.789 -5.1519 -112.889 -5.07026 -118.757 C -5.01509 -122.722 -0.645229 -122.611 -0.699654 -118.699 C -0.726871 -116.743 -3.4585 -116.779 -3.43128 -118.735 M -6.4532 -130.394 C -8.72868 -125.08 -13.7115 -124.128 -13.8115 -118.871 C -13.9231 -113.005 -6.24456 -112.904 -6.16292 -118.771 C -6.10774 -122.736 -10.4791 -122.74 -10.5335 -118.828 C -10.5607 -116.873 -7.82911 -116.837 -7.80189 -118.792 M 32.9598 -129.955 C 32.458 -120.169 41.0101 -119.058 40.3048 -112.589 C 39.6692 -106.76 31.0452 -107.872 31.7144 -113.697 C 32.1667 -117.633 37.0693 -116.947 36.6232 -113.064 C 36.4001 -111.122 33.3321 -111.518 33.5552 -113.459 M 32.9598 -129.955 C 31.2308 -120.327 22.6769 -121.422 21.8969 -114.963 C 21.1941 -109.143 29.818 -108.031 30.4872 -113.855 C 30.9395 -117.792 26.0246 -118.371 25.5785 -114.488 C 25.3554 -112.547 28.4234 -112.151 28.6464 -114.092 M -20.0443 -113.604 C 7.60599 -117.36 29.1567 -104.32 46.347 -109.98 M 43.7872 -109.285 C 44.6743 -110.87 45.2886 -112.71 45.6367 -114.752 C 46.6852 -114.875 47.6634 -115.028 48.5783 -115.205 M 38.2192 -108.574 C 40.6556 -110.333 42.1353 -113.419 42.2635 -118.38 C 46.1205 -118.582 48.919 -119.116 51.1127 -119.84 M -23.2598 -121.108 C -22.0624 -120.425 -20.8063 -119.898 -19.4677 -119.626 C -18.9625 -118.126 -18.3962 -116.367 -17.2856 -114.444 C -17.189 -114.277 -17.0872 -114.11 -16.9802 -113.945 M -12.3438 -114.244 C -15.058 -116.699 -15.4032 -120.13 -16.8948 -123.345 C -20.0678 -123.059 -23.8102 -125.815 -27.4858 -129.316 M 6.18674 -112.966 C 7.41935 -114.65 8.40729 -116.64 9.0513 -118.922 C 10.4264 -119.414 11.659 -120.167 12.6845 -121.087 C 13.4639 -119.933 14.483 -118.887 15.7015 -118.06 C 15.8011 -115.463 16.3796 -113.098 17.3168 -111.019 M 13.5758 -130.393 C 12.3106 -126.104 10.5437 -122.477 5.96925 -122.226 C 5.38238 -118.247 3.8913 -115.485 1.78036 -113.559 M 22.1259 -110.139 C 20.117 -112.667 19.0567 -115.972 19.4623 -120.475 C 15.0671 -121.894 14.2127 -125.89 13.9928 -130.394 M -82.3838 -34.7803 C -62.0064 -48.6212 -47.6721 -55.1395 -30.9454 -61.084 M 55.082 -57.376 C 62.505 -57.376 74.7373 -51.0656 82.4142 -45.1189 M 52.0763 -45.8307 C 66.4134 -36.472 75.2264 -25.0228 80.146 -9.80596 M 50.1329 -42.471 C 63.9284 -33.4762 72.0166 -22.8477 76.6392 -8.26094 M 82.4087 -14.8409 C 76.9758 -29.0215 67.7887 -40.1931 54.0251 -49.1871 M 44.2087 -30.9179 C 56.1989 -23.0415 61.5629 -15.1707 65.2395 -2.03016 M 42.9198 -27.9103 C 54.2102 -20.4718 58.7358 -13.5795 62.239 -0.967303 L 62.466 -0.149751 M 41.0632 -22.9735 C 50.977 -16.4064 54.1366 -11.1512 57.3633 0.465567 L 58.1225 3.1991 M 50.1204 36.7196 L 50.5435 35.4385 C 57.0621 18.4054 67.7017 9.83551 82.3941 3.32633 M 63.9029 29.7245 C 68.4428 22.3945 74.2888 17.8835 82.3876 13.9758 M 58.742 32.5257 C 64.1632 21.4884 71.6513 15.4347 82.3866 10.4172 M 54.2407 34.7621 C 60.2859 20.2382 69.3836 12.7799 82.3841 6.87007 M 40.6709 26.0803 C 49.6512 6.58045 64.8987 -3.73057 82.3943 -10.7456 M 42.0543 30.9295 C 50.2077 10.4374 64.801 -0.0165295 82.3989 -7.24462 M 44.6578 39.1386 C 58.3612 33.3535 71.2127 26.3965 82.4023 17.1531 M 40.5917 25.8708 C 38.8815 19.5789 37.6188 13.4654 37.106 7.28661 C 35.8779 -7.51097 38.7411 -22.8615 50.3621 -42.884 L 57.8031 -55.705 L 58.7018 -56.9675 M 49.4261 53.543 C 46.9329 45.7355 44.0996 37.7256 42.023 30.8586 M -16.0902 -24.776 L 20.9009 -24.776 M -15.5061 -11.084 L 17.5356 -11.084 M -15.5596 -7.824 L 16.9814 -7.824 M 58.7067 26.1132 L 61.3347 27.8666 M 62.4289 21.055 L 64.7754 23.1457 M 65.7711 17.548 L 67.8579 19.8751 M 70.2548 13.8089 L 72.0423 16.3921 M 74.2881 11.1189 L 75.8519 13.8659 M 79.6882 8.16281 L 81.0293 11.0658 M 56.4581 30.0569 L 59.2246 31.5667 M 72.2582 -51.656 L 72.2582 -109.536 L 82.3997 -119.968 M 77.3289 -48.6721 L 77.3289 -107.375 L 82.3996 -112.591 M 72.2559 -84.4126 C 66.9973 -82.6729 62.9517 -77.4999 59.5813 -70.416 C 59.3992 -75.6793 58.5284 -81.1201 62.1167 -85.412 C 60.0804 -86.5218 58.2273 -86.646 55.7782 -89.976 C 58.2273 -93.306 60.0804 -93.4302 62.1167 -94.54 C 58.5284 -98.8319 59.3992 -104.273 59.5813 -109.536 C 62.9517 -102.452 66.9973 -97.2791 72.2559 -95.5394 M 63.169 -76.7489 C 63.1761 -77.1658 63.1936 -77.5672 63.2249 -77.9517 C 63.3922 -80.0063 63.8232 -81.4536 65.0002 -82.8613 L 68.1053 -86.5754 L 63.8971 -88.8689 C 62.8021 -89.4657 62.1191 -89.7205 61.5261 -89.976 C 62.1191 -90.2315 62.8021 -90.4863 63.8971 -91.0831 L 68.1053 -93.3766 L 65.0002 -97.0907 C 63.8232 -98.4984 63.3922 -99.9457 63.2249 -102 C 63.1936 -102.385 63.1761 -102.786 63.169 -103.203 M 59.5813 -109.536 C 49.4076 -94.3144 53.0216 -82.0493 59.5813 -70.416 M 7.42327 -49.7638 C 9.10207 -48.7944 10.1414 -46.9684 10.1414 -44.988 L 10.1414 -44.988 C 10.1414 -43.5355 9.58042 -42.1424 8.58192 -41.1153 C 7.58342 -40.0882 6.22916 -39.5112 4.81707 -39.5112 C 2.16039 -39.5112 -0.0897523 -41.5257 -0.456304 -44.2323 M 4.56715 -47.5178 C 4.65019 -47.5265 4.7336 -47.5308 4.81707 -47.5308 C 5.47269 -47.5308 6.10145 -47.2629 6.56504 -46.786 C 7.02863 -46.3092 7.28907 -45.6624 7.28907 -44.988 C 7.28907 -44.3136 7.02863 -43.6668 6.56504 -43.19 C 6.10145 -42.7131 5.47269 -42.4452 4.81707 -42.4452 C 4.16146 -42.4452 3.5327 -42.7131 3.06911 -43.19 C 2.60552 -43.6668 2.34508 -44.3136 2.34508 -44.988 C 2.34508 -45.3859 2.43585 -45.7782 2.6101 -46.1335 M 18.6639 -53.4645 C 18.8961 -52.8398 19.0152 -52.1767 19.0152 -51.508 C 19.0152 -50.0555 18.4542 -48.6624 17.4557 -47.6353 C 16.4572 -46.6082 15.103 -46.0312 13.6909 -46.0312 C 11.0859 -46.0312 8.86336 -47.9701 8.43804 -50.6138 M 15.2696 -53.4647 C 15.8355 -52.9816 16.1629 -52.2644 16.1629 -51.508 C 16.1629 -50.1037 15.0561 -48.9652 13.6909 -48.9652 C 13.0353 -48.9652 12.4065 -49.2331 11.9429 -49.71 C 11.4793 -50.1868 11.2189 -50.8336 11.2189 -51.508 C 11.2189 -52.2649 11.5467 -52.9825 12.1133 -53.4656 M 29.6371 -53.4654 C 29.739 -53.0382 29.7906 -52.5999 29.7906 -52.16 C 29.7906 -50.7075 29.2296 -49.3144 28.2311 -48.2873 C 27.2326 -47.2602 25.8784 -46.6832 24.4663 -46.6832 C 21.5257 -46.6832 19.142 -49.1352 19.142 -52.16 C 19.142 -52.6 19.1935 -53.0383 19.2955 -53.4656 M 26.5876 -53.4655 C 26.8171 -53.0709 26.9383 -52.6198 26.9383 -52.16 C 26.9383 -51.4856 26.6778 -50.8388 26.2142 -50.362 C 25.7506 -49.8851 25.1219 -49.6172 24.4663 -49.6172 C 23.8107 -49.6172 23.1819 -49.8851 22.7183 -50.362 C 22.2547 -50.8388 21.9943 -51.4856 21.9943 -52.16 C 21.9943 -52.6198 22.1155 -53.071 22.345 -53.4656 M 40.7294 -53.4653 C 40.8313 -53.0381 40.8829 -52.5999 40.8829 -52.16 C 40.8829 -50.7075 40.3219 -49.3144 39.3234 -48.2873 C 38.3249 -47.2602 36.9706 -46.6832 35.5586 -46.6832 C 34.1465 -46.6832 32.7922 -47.2602 31.7937 -48.2873 C 30.7952 -49.3144 30.2343 -50.7075 30.2343 -52.16 C 30.2343 -52.6 30.2858 -53.0383 30.3878 -53.4656 M 37.6799 -53.4655 C 37.9094 -53.0709 38.0306 -52.6198 38.0305 -52.16 C 38.0305 -51.4856 37.7701 -50.8388 37.3065 -50.362 C 36.8429 -49.8851 36.2142 -49.6172 35.5586 -49.6172 C 34.9029 -49.6172 34.2742 -49.8851 33.8106 -50.362 C 33.347 -50.8388 33.0866 -51.4856 33.0866 -52.16 C 33.0866 -52.6198 33.2078 -53.071 33.4373 -53.4656 M 44.6176 -46.9756 C 42.4602 -47.7313 41.0096 -49.8157 41.0096 -52.16 C 41.0096 -52.6 41.0612 -53.0383 41.1631 -53.4656 M 46.1548 -49.6239 C 44.8625 -49.7205 43.8619 -50.8271 43.8619 -52.16 C 43.8619 -52.6198 43.9831 -53.071 44.2127 -53.4656 M 39.3355 -37.0674 C 36.9665 -37.6778 35.305 -39.8679 35.305 -42.38 C 35.305 -43.8325 35.866 -45.2256 36.8645 -46.2527 C 37.863 -47.2798 39.2172 -47.8568 40.6293 -47.8568 C 41.9828 -47.8568 43.2855 -47.3266 44.2725 -46.3739 M 40.7126 -39.8386 C 40.6848 -39.8377 40.6571 -39.8372 40.6293 -39.8372 C 39.9737 -39.8372 39.3449 -40.1051 38.8813 -40.582 C 38.4178 -41.0588 38.1573 -41.7056 38.1573 -42.38 C 38.1573 -43.0544 38.4178 -43.7012 38.8813 -44.178 C 39.3449 -44.6549 39.9737 -44.9228 40.6293 -44.9228 C 41.5033 -44.9228 42.3123 -44.4481 42.7571 -43.6743 M 35.0724 -27.1461 C 32.3318 -27.4046 30.2343 -29.769 30.2343 -32.6 C 30.2343 -34.0525 30.7952 -35.4456 31.7937 -36.4727 C 32.7922 -37.4998 34.1465 -38.0768 35.5586 -38.0768 C 36.8817 -38.0768 38.1574 -37.57 39.1371 -36.6553 M 36.2522 -30.1594 C 36.0269 -30.0916 35.7933 -30.0572 35.5586 -30.0572 C 34.9029 -30.0572 34.2742 -30.3251 33.8106 -30.802 C 33.347 -31.2788 33.0866 -31.9256 33.0866 -32.6 C 33.0866 -33.2744 33.347 -33.9212 33.8106 -34.398 C 34.2742 -34.8749 34.9029 -35.1428 35.5586 -35.1428 C 36.5003 -35.1428 37.3602 -34.5924 37.7762 -33.7234 M 31.8489 -16.692 C 31.8178 -16.6915 31.7866 -16.6912 31.7555 -16.6912 C 30.3434 -16.6912 28.9891 -17.2682 27.9906 -18.2953 C 26.9921 -19.3224 26.4312 -20.7155 26.4312 -22.168 C 26.4312 -23.6205 26.9921 -25.0136 27.9906 -26.0407 C 28.9891 -27.0678 30.3434 -27.6448 31.7555 -27.6448 C 32.8772 -27.6448 33.9702 -27.2804 34.8786 -26.6036 M 32.6707 -19.8059 C 32.3795 -19.6865 32.0689 -19.6252 31.7555 -19.6252 C 31.0999 -19.6252 30.4711 -19.8931 30.0075 -20.37 C 29.5439 -20.8468 29.2835 -21.4936 29.2835 -22.168 C 29.2835 -22.8424 29.5439 -23.4892 30.0075 -23.966 C 30.4711 -24.4429 31.0999 -24.7108 31.7555 -24.7108 C 32.5863 -24.7108 33.3616 -24.2815 33.819 -23.5681 M -1.13561 -43.8491 C -0.00961769 -42.8103 0.633695 -41.3279 0.633695 -39.772 C 0.633695 -38.3195 0.0727438 -36.9264 -0.925756 -35.8993 C -1.92426 -34.8722 -3.27851 -34.2952 -4.6906 -34.2952 C -6.10269 -34.2952 -7.45695 -34.8722 -8.45545 -35.8993 C -9.45395 -36.9264 -10.0149 -38.3195 -10.0149 -39.772 C -10.0149 -39.9003 -10.0105 -40.0286 -10.0018 -40.1566 M -4.32009 -42.2861 C -3.11173 -42.0976 -2.21861 -41.0292 -2.21861 -39.772 C -2.21861 -39.0976 -2.47905 -38.4508 -2.94264 -37.974 C -3.40623 -37.4971 -4.03499 -37.2292 -4.6906 -37.2292 C -5.34622 -37.2292 -5.97498 -37.4971 -6.43857 -37.974 C -6.90216 -38.4508 -7.1626 -39.0976 -7.1626 -39.772 C -7.1626 -40.3411 -6.97698 -40.8938 -6.63545 -41.3416 M -10.686 -39.948 C -9.92357 -38.9745 -9.50782 -37.7621 -9.50783 -36.512 C -9.50783 -35.0595 -10.0688 -33.6664 -11.0673 -32.6393 C -12.0658 -31.6122 -13.42 -31.0352 -14.8321 -31.0352 C -15.4859 -31.0352 -16.134 -31.159 -16.7441 -31.4005 M -14.0981 -38.9401 C -13.0644 -38.6095 -12.3601 -37.6255 -12.3601 -36.512 C -12.3601 -35.8376 -12.6206 -35.1908 -13.0842 -34.714 C -13.5477 -34.2371 -14.1765 -33.9692 -14.8321 -33.9692 C -15.4877 -33.9692 -16.1165 -34.2371 -16.5801 -34.714 C -17.0437 -35.1908 -17.3041 -35.8376 -17.3041 -36.512 C -17.3041 -37.1625 -17.0618 -37.7882 -16.6269 -38.2605 M 18.4015 -98.2679 C 11.6091 -81.1328 19.0152 -75.3438 19.0152 -65.2 C 19.0152 -58.028 4.43676 -53.464 4.43676 -65.2 C 4.43676 -72.372 13.9444 -72.372 13.9444 -66.504 C 13.9444 -61.94 5.98776 -60.6503 6.3383 -65.2 C 6.72518 -70.2215 12.3582 -67.7238 10.7752 -65.852 M 16.7989 -99.0085 C 9.47924 -81.3263 16.5412 -76.5591 16.5412 -66.2706 C 16.5412 -59.0986 5.70445 -58.68 6.3383 -65.2 M 15.2121 -99.756 C 7.37932 -81.4582 13.9444 -76.936 13.9444 -66.504 M 20.029 -97.5625 C 13.7144 -80.9717 20.9167 -75.2034 20.9167 -65.2 C 20.9167 -61.1807 16.3381 -57.9804 12.3127 -58.0092 M 21.6834 -96.9001 C 15.808 -80.816 22.8183 -75.0691 22.8183 -65.2 C 22.8183 -61.1807 18.2396 -57.9804 14.2142 -58.0092 M 23.3663 -96.2896 C 17.8873 -80.6687 24.7198 -74.9432 24.7198 -65.2 C 24.7198 -61.1807 20.1412 -57.9804 16.1158 -58.0092 M 25.0682 -95.7085 C 19.9585 -80.525 26.6213 -74.8214 26.6213 -65.2 C 26.6213 -61.1807 22.0427 -57.9804 18.0173 -58.0092 M 26.8069 -95.2157 C 22.0044 -80.4002 28.5229 -74.7166 28.5229 -65.2 C 28.5229 -61.1807 23.9442 -57.9804 19.9189 -58.0092 M 28.5815 -94.818 C 24.0227 -80.2976 30.4244 -74.631 30.4244 -65.2 C 30.4244 -61.1807 25.8458 -57.9804 21.8204 -58.0092 M 30.3911 -94.5215 C 26.0115 -80.22 32.3259 -74.5665 32.3259 -65.2 C 32.3259 -61.1807 27.7473 -57.9804 23.7219 -58.0092 M 32.2351 -94.3319 C 27.9688 -80.1698 34.2275 -74.525 34.2275 -65.2 C 34.2275 -61.1807 29.6488 -57.9804 25.6235 -58.0092 M 34.1134 -94.2547 C 29.8931 -80.1493 36.129 -74.508 36.129 -65.2 C 36.129 -61.1807 31.5504 -57.9804 27.525 -58.0092 M 36.0269 -94.2947 C 31.7829 -80.1599 38.0305 -74.5168 38.0305 -65.2 C 38.0305 -61.1807 33.4519 -57.9804 29.4265 -58.0092 M 37.9777 -94.4574 C 33.6365 -80.2031 39.9321 -74.5525 39.9321 -65.2 C 39.9321 -61.1807 35.3534 -57.9804 31.3281 -58.0092 M 39.9688 -94.748 C 35.4525 -80.2794 41.8336 -74.6158 41.8336 -65.2 C 41.8336 -61.1807 37.255 -57.9804 33.2296 -58.0092 M 42.0051 -95.1723 C 37.2294 -80.3891 43.7352 -74.7073 43.7352 -65.2 C 43.7352 -61.1807 39.1565 -57.9804 35.1311 -58.0092 M 44.099 -95.7545 C 38.9604 -80.5365 45.6367 -74.8311 45.6367 -65.2 C 45.6367 -61.1807 41.058 -57.9804 37.0327 -58.0092 M -16.4801 -60.9258 C -23.3515 -52.355 -31.0586 -54.768 -31.0586 -59.984 C -31.0586 -65.2 -22.8186 -65.852 -22.8186 -60.636 C -22.8186 -56.724 -28.5232 -57.376 -28.5232 -59.984 L -27.8893 -61.94 M -19.0155 -60.7084 C -22.1952 -57.2149 -25.2496 -56.6216 -27.5677 -58.3492 M -13.9447 -60.9982 C -16.4801 -55.7822 -21.2866 -55.0411 -24.0105 -55.1143 M -11.4094 -60.7809 C -13.9447 -55.5649 -18.491 -55.1481 -21.2149 -55.2214 M -8.87398 -60.636 C -11.4094 -55.42 -15.9556 -55.1481 -18.6796 -55.2214 M -6.3386 -60.8533 C -8.87398 -55.6373 -13.4203 -55.1481 -16.1442 -55.2214 M -3.80322 -61.0707 C -6.3386 -55.8547 -10.8849 -55.1481 -13.6088 -55.2214 M -1.26784 -61.2156 C -3.80322 -55.9996 -8.3495 -55.1481 -11.0734 -55.2214 M 1.26754 -61.1431 C -1.26784 -55.9271 -5.81412 -55.1481 -8.53804 -55.2214 M 3.80292 -61.288 C 1.26754 -56.072 -3.27874 -55.1481 -6.00266 -55.2214 M 5.7707 -60.2432 C 3.16809 -55.9461 -0.936282 -55.1533 -3.46728 -55.2214 M -16.7556 -105.777 C -17.1284 -104.201 -17.7478 -101.516 -17.7478 -101.06 C -17.7478 -100.408 -15.8463 -98.452 -15.8463 -97.8 C -15.8463 -97.148 -19.0155 -93.888 -20.2832 -91.932 C -21.5509 -89.976 -23.4524 -84.108 -23.4524 -82.804 C -23.4524 -81.5 -24.0863 -80.196 -22.1847 -80.196 C -20.2832 -80.196 -19.6493 -78.24 -19.6493 -78.24 L -20.917 -76.284 L -19.6493 -73.024 C -19.6493 -73.024 -19.8823 -71.2407 -20.2832 -70.416 C -20.917 -69.112 -17.7478 -68.46 -17.7478 -67.808 C -17.7478 -67.156 -20.3386 -65.8495 -20.2832 -65.2 C -19.7878 -59.391 -23.3743 -57.8663 -23.4524 -58.68 M -14.5786 -84.76 C -12.6771 -84.76 -13.3109 -79.544 -15.8463 -80.848 C -19.6493 -82.804 -21.5509 -80.196 -17.7478 -81.5 M -4.43707 -76.936 C -4.15757 -77.7266 -3.50108 -78.24 -2.53553 -78.24 C 0.633695 -78.24 -1.26784 -72.372 -6.3386 -72.372 C -11.4094 -72.372 -17.114 -76.936 -17.114 -76.936 L -17.114 -78.892 C -12.0432 -76.936 -13.3109 -73.024 -6.3386 -72.372 M -19.6493 -73.024 C -17.114 -73.024 -14.5786 -72.372 -12.0432 -70.416 C -14.9494 -72.5733 -17.114 -74.98 -20.917 -76.284 M -15.8463 -103.016 L -16.4801 -101.06 C -16.4801 -101.06 -10.7755 -101.712 -9.50783 -101.712 C -5.70476 -101.712 -1.90169 -95.844 2.53523 -95.844 C -1.90169 -95.844 -5.70476 -103.016 -9.54462 -103.167 C -10.8114 -103.217 -11.2705 -101.939 -13.8058 -101.939 C -14.4034 -101.939 -15.8463 -103.016 -15.8463 -103.016 Z M -2.53553 -92.584 C -6.3386 -92.584 -8.28394 -95.8333 -10.7755 -95.844 C -12.0607 -95.8495 -14.5786 -95.192 -14.5786 -95.192 M -6.86205 -93.9344 C -4.96027 -91.3261 -11.7423 -90.097 -13.3109 -91.932 M -51.992 -52.5361 C -52.7575 -54.4441 -54.1348 -57.6771 -55.7785 -60.636 C -58.3139 -65.2 -61.4831 -62.592 -60.2154 -59.984 C -58.9477 -57.376 -57.68 -55.42 -57.68 -55.42 M -60.1786 -59.9925 C -60.3917 -60.1257 -62.8692 -63.5756 -66.5539 -65.2 C -70.9908 -67.156 -70.7674 -64.2582 -67.8216 -61.94 C -66.3977 -60.8195 -61.4831 -53.464 -61.4831 -53.464 M -69.0893 -63.2061 C -71.6246 -65.852 -74.7939 -65.2 -72.2585 -61.288 C -69.7231 -57.376 -65.2862 -51.508 -65.2862 -51.508 M -72.2585 -61.288 C -74.16 -63.896 -76.0616 -61.288 -74.16 -58.68 C -71.7547 -55.3811 -69.0893 -48.248 -69.0893 -48.248 M -73.2686 -57.3003 C -76.6954 -61.288 -76.8141 -57.1404 -75.5464 -54.5324 C -74.9125 -53.2284 -72.8923 -46.292 -72.2585 -44.988 L -70.9019 -42.1971 M 49.131 -40.7018 C 49.7297 -39.6758 50.5852 -38.329 48.0734 -35.5717 C 46.9165 -34.3016 47.7327 -32.4186 49.4398 -34.556 C 51.9751 -39.12 53.8767 -36.512 55.1601 -37.2929 C 54.8192 -36.0107 57.722 -34.6069 53.8808 -31.1399 C 52.609 -29.992 53.2428 -28.036 55.1444 -29.992 C 57.8232 -34.4685 59.641 -31.7981 60.9484 -32.5354 C 60.567 -31.2654 63.4238 -29.7649 59.4747 -26.4287 C 58.1671 -25.3241 58.7386 -23.3478 60.7012 -25.239 C 64.3838 -28.8834 65.4941 -25.83 66.9394 -26.2073 C 66.2611 -25.0759 68.6619 -22.8877 64.0268 -20.6743 C 62.4921 -19.9414 62.5646 -17.881 64.7884 -19.0574 C 68.74 -22.0622 69.4792 -18.8922 70.9585 -19.085 C 70.1509 -18.0473 72.2738 -15.5737 67.4105 -13.9595 C 65.8002 -13.4251 65.6274 -11.3709 68.1274 -12.3901 C 72.6518 -14.8339 72.8905 -11.5832 74.3807 -11.531 C 73.4227 -10.639 75.1353 -7.84905 70.084 -7.05267 C 68.4115 -6.78898 67.9227 -4.78942 70.5486 -5.38574 M 47.7275 -38.1078 C 48.3072 -36.2012 44.1636 -33.5675 46.4977 -31.9563 C 49.0939 -30.1642 50.973 -32.2845 53.2428 -34.556 C 51.3534 -31.9419 49.3514 -29.5094 51.9751 -27.384 C 54.4389 -25.2023 56.6047 -27.6703 58.9454 -29.8644 C 56.974 -27.315 55.1444 -24.776 56.715 -22.4994 C 58.3366 -20.149 61.5502 -22.6152 64.3502 -24.1369 C 61.8213 -22.1762 58.6099 -20.4484 60.2151 -17.604 C 61.8057 -14.7855 65.183 -16.1972 68.1428 -17.3555 C 65.4 -15.7274 62.645 -13.9768 64.0182 -11.084 C 65.333 -8.31429 68.2317 -9.62684 71.3331 -10.2852 C 68.3 -9.28258 64.7203 -7.79608 67.6184 -3.54729"
       id="path975"
       style="display:inline"
       inkscape:label="layer-16" />
    <path
       stroke="#4444ff"
       stroke-linecap="round"
       stroke-linejoin="round"
       stroke-width="0.3857150481897226"
       fill="none"
       d="M -13.3109 -95.844 C -12.9762 -97.0868 -11.0742 -98.9176 -9.77369 -98.717 C -7.45329 -98.359 -5.07091 -93.888 -3.80322 -93.888 M -2.53553 -92.584 C -3.80322 -92.584 -5.07091 -91.28 -5.07091 -91.28 M -8.4927 -94.9519 C -8.44792 -94.6937 -8.42412 -94.4232 -8.42412 -94.1444 C -8.42412 -92.344 -9.41736 -90.8844 -10.6426 -90.8844 C -11.8678 -90.8844 -12.861 -92.344 -12.861 -94.1444 C -12.861 -94.7219 -12.7589 -95.2643 -12.5796 -95.7348 M -67.086 -65.6153 C -67.5582 -63.87 -67.9886 -63.6247 -69.1362 -63.368 M -70.1715 -64.0927 C -70.6438 -62.3474 -71.6076 -62.3481 -72.7552 -62.0914 M -72.2322 -61.2955 C -72.7044 -59.5501 -73.2084 -59.4562 -74.5399 -59.5023 M -73.5781 -57.6002 C -74.2159 -56.2144 -74.9774 -56.2341 -76.0698 -56.3559 M -59.3341 -62.9516 C -58.5448 -60.9095 -55.7785 -60.636 -55.7785 -60.636 M -74.16 -53.464 C -73.5519 -53.3473 -73.1539 -53.6088 -72.8923 -54.116 M -68.6831 -58.5462 C -68.075 -58.4295 -67.6769 -58.9252 -67.4154 -59.4324 M -74.16 -53.464 C -73.5519 -53.3473 -73.1539 -53.6088 -72.8923 -54.116 M -65.1561 -60.9371 C -64.548 -60.8204 -64.3126 -61.2826 -64.051 -61.7898 M -71.7912 -56.4874 C -71.1831 -56.3707 -70.785 -56.8329 -70.5235 -57.3401"
       id="path949"
       style="display:inline"
       inkscape:label="layer-17" />
    <path
       id="path1028"
       d="M 45.8929 25.3524 C 46.3046 25.59 51.3257 23.5489 51.5634 23.1373 C 51.3257 23.5489 52.0684 28.9172 52.4801 29.1548 C 52.0684 28.9172 47.0473 30.9583 46.8096 31.3699 C 47.0473 30.9583 46.3046 25.59 45.8929 25.3524 Z M 53.3723 13.2038 C 53.7364 13.5093 59.0357 12.371 59.3413 12.0069 C 59.0357 12.371 58.8347 17.7866 59.1989 18.0922 C 58.8347 17.7866 53.5354 18.925 53.2299 19.2891 C 53.5354 18.925 53.7364 13.5093 53.3723 13.2038 Z M 63.8558 3.86793 C 64.1614 4.23204 69.5778 4.03109 69.942 3.72557 C 69.5778 4.03109 68.4394 9.32954 68.7449 9.69364 C 68.4394 9.32954 63.0229 9.53049 62.6587 9.83601 C 63.0229 9.53049 64.1614 4.23204 63.8558 3.86793 Z M 75.301 -3.29305 C 75.5387 -2.88142 80.9078 -2.1389 81.3195 -2.37656 C 80.9078 -2.1389 78.8664 2.88139 79.104 3.29301 C 78.8664 2.88139 73.4973 2.13887 73.0856 2.37653 C 73.4973 2.13887 75.5387 -2.88142 75.301 -3.29305 Z"
       style="display:inline;fill:#ff0000;fill-opacity:1"
       inkscape:label="layer-13" />
    <path
       id="path988"
       d="M 29.5153 -8.39434 C 28.9952 -8.48605 24.5284 -4.44714 24.4367 -3.92705 C 24.5284 -4.44714 21.7126 -9.76995 21.1925 -9.86166 C 21.7126 -9.76995 26.1794 -13.8089 26.2711 -14.329 C 26.1794 -13.8089 28.9952 -8.48605 29.5153 -8.39434 Z M 28.7344 2.34717 C 28.1534 2.34716 24.0862 7.57553 24.0862 8.15646 C 24.0862 7.57553 20.019 2.34716 19.438 2.34716 C 20.019 2.34716 24.0862 -2.88121 24.0862 -3.46214 C 24.0862 -2.88121 28.1534 2.34716 28.7344 2.34717 Z M 30.446 14.5172 C 29.762 14.5771 25.5122 21.1514 25.572 21.8353 C 25.5122 21.1514 20.1852 15.4148 19.5012 15.4746 C 20.1852 15.4148 24.435 8.84045 24.3751 8.15651 C 24.435 8.84045 29.762 14.5771 30.446 14.5172 Z M 33.4976 29.5434 C 32.7173 29.681 28.4937 37.6652 28.6312 38.4453 C 28.4937 37.6652 21.7935 31.6068 21.0133 31.7444 C 21.7935 31.6068 26.0172 23.6226 25.8796 22.8424 C 26.0172 23.6226 32.7173 29.681 33.4976 29.5434 Z M 38.6311 45.0849 C 37.7638 45.3173 33.784 54.7487 34.0164 55.6159 C 33.784 54.7487 25.6209 48.5704 24.7535 48.8028 C 25.6209 48.5704 29.6007 39.1389 29.3683 38.2717 C 29.6007 39.1389 37.7638 45.3173 38.6311 45.0849 Z"
       style="fill:#ff0000;fill-opacity:1;stroke:#4444ff;stroke-linecap:round;stroke-linejoin:round;stroke-width:0.760552555190221"
       inkscape:label="layer-14" />
    <path
       id="path1008"
       d="M 15.2123 0 C 14.5784 0 10.1415 5.7037 10.1415 6.33745 C 10.1415 5.7037 5.70459 0 5.07074 0 C 5.70459 0 10.1415 -5.7037 10.1415 -6.33745 C 10.1415 -5.7037 14.5784 0 15.2123 0 Z M 5.07074 0 C 4.4369 0 -2e-05 5.7037 -2e-05 6.33745 C -2e-05 5.7037 -4.43693 0 -5.07078 0 C -4.43693 0 -2e-05 -5.7037 -2e-05 -6.33745 C -2e-05 -5.7037 4.4369 0 5.07074 0 Z"
       style="fill:#ff0000;fill-opacity:1"
       inkscape:label="layer-15" />
    <path
       d="m -80.4,-104.32 c 2.32,0 18.56,-20.88 18.56,-23.2 0,2.32 16.24,23.2 18.56,23.2 -2.32,0 -18.56,20.88 -18.56,23.2 0,-2.32 -16.24,-23.2 -18.56,-23.2 z"
       fill="#ff0000"
       id="path919"
       style="display:none" />
  </g>
</svg>
