<?xml version="1.0" encoding="UTF-8" standalone="no"?>
<svg
   class="card"
   face="KH"
   height="3.5in"
   preserveAspectRatio="none"
   viewBox="-120 -168 240 336"
   width="2.5in"
   version="1.1"
   id="svg79"
   sodipodi:docname="k-heart.svg"
   inkscape:version="1.2.2 (732a01da63, 2022-12-09)"
   xmlns:inkscape="http://www.inkscape.org/namespaces/inkscape"
   xmlns:sodipodi="http://sodipodi.sourceforge.net/DTD/sodipodi-0.dtd"
   xmlns="http://www.w3.org/2000/svg"
   xmlns:svg="http://www.w3.org/2000/svg">
  <sodipodi:namedview
     id="namedview81"
     pagecolor="#505050"
     bordercolor="#eeeeee"
     borderopacity="1"
     inkscape:showpageshadow="0"
     inkscape:pageopacity="0"
     inkscape:pagecheckerboard="0"
     inkscape:deskcolor="#505050"
     inkscape:document-units="in"
     showgrid="false"
     inkscape:zoom="17.290444"
     inkscape:cx="159.7125"
     inkscape:cy="90.830518"
     inkscape:window-width="1278"
     inkscape:window-height="1368"
     inkscape:window-x="0"
     inkscape:window-y="0"
     inkscape:window-maximized="0"
     inkscape:current-layer="layer1" />
  <defs
     id="defs35" />
  <g
     inkscape:groupmode="layer"
     id="layer1"
     inkscape:label="Layer 1">
    <path
       d="M 1,0 0,1 -1,0 0,-1"
       id="path1736"
       fill="#ff0000"
       inkscape:label="layer-0"
       style="display:inline;stroke-width:0.264583" />
    <path
       fill="#ffcc44"
       d="M -41.7891 -130.4 C -34.1024 -118.013 -30.2287 -110.412 -27.1109 -101.73 C -3.43224 -103.906 15.9857 -102.866 35.099 -99.8013 C 37.7729 -107.644 40.4976 -114.19 52.7011 -130.4 Z M 55.7782 -120.155 C 53.8767 -120.147 51.9751 -118.99 51.9751 -116.056 C 51.9751 -113.448 53.8757 -105.494 51.3413 -103.668 C 54.6442 -98.4091 54.6224 -94.5092 51.837 -91.7389 C 52.5071 -92.7228 52.227 -94.5751 50.2724 -94.7542 C 47.1157 -95.0435 47.5382 -88.672 51.9751 -88.672 C 60.2395 -88.672 55.1444 -105.624 55.1444 -116.708 C 55.7782 -114.1 59.5813 -114.1 59.5813 -117.36 C 59.5813 -119.022 57.6797 -120.163 55.7782 -120.155 Z M 73.5259 -106.276 C 73.4456 -106.276 73.3654 -106.27 73.2855 -106.258 C 73.3197 -104.103 72.7807 -101.961 71.5914 -99.8355 C 72.0731 -98.958 72.7806 -98.452 73.5259 -98.452 C 74.9261 -98.452 76.0612 -100.203 76.0612 -102.364 C 76.0612 -104.525 74.9261 -106.276 73.5259 -106.276 Z M 76.0612 -102.364 C 76.0612 -101.499 76.3618 -100.67 76.8967 -100.059 C 77.4316 -99.4475 78.1571 -99.104 78.9136 -99.104 C 79.67 -99.104 80.3955 -99.4475 80.9304 -100.059 C 81.4653 -100.67 81.7659 -101.499 81.7659 -102.364 C 81.7659 -103.229 81.4653 -104.058 80.9304 -104.669 C 80.3955 -105.281 79.67 -105.624 78.9136 -105.624 C 78.1571 -105.624 77.4316 -105.281 76.8967 -104.669 C 76.3618 -104.058 76.0612 -103.229 76.0612 -102.364 Z M 69.7379 -86.7369 C 69.2392 -86.7328 68.7484 -86.6078 68.3056 -86.3719 C 63.8017 -84.0555 61.6993 -84.0555 57.1954 -86.3719 C 56.1805 -86.9113 54.9619 -86.8472 54.0058 -86.204 C 53.0497 -85.5608 52.5041 -84.4382 52.5776 -83.2655 C 52.6511 -82.0928 53.3325 -81.0516 54.361 -80.5401 C 57.9573 -78.6904 61.4992 -78.0227 65.0561 -78.5329 L 63.4594 -71.1212 C 63.0097 -69.0341 62.275 -66.9219 61.2555 -64.7826 C 60.1473 -66.6163 59.2722 -68.4331 58.885 -70.4084 L 57.3992 -77.9884 L 53.1609 -71.6021 C 50.8755 -68.1586 48.7274 -66.3094 46.7286 -65.3729 C 46.3219 -64.6406 44.2798 -62.5055 43.0679 -61.571 L 42.6447 -61.5307 C 42.6732 -61.464 42.7034 -61.3972 42.7321 -61.3305 C 42.7057 -61.3133 42.6763 -61.292 42.6514 -61.2768 C 42.6862 -61.276 42.7209 -61.2765 42.7557 -61.276 C 50.137 -44.2136 66.9917 -26.0033 82.3997 -12.4868 L 82.3997 -17.796 C 68.277 -30.5773 53.4962 -47.1277 46.8019 -61.9054 C 49.8698 -62.9537 52.8711 -65.3838 55.7782 -69.764 C 56.6238 -65.4494 59.0769 -62.0785 61.4828 -58.68 C 64.0062 -62.5772 65.7076 -66.489 66.5536 -70.416 C 70.1216 -63.2438 76.264 -61.1836 82.3997 -59.1102 L 82.3997 -59.4797 C 80.4325 -60.7979 78.7066 -62.3644 77.4475 -64.411 C 74.0865 -65.9275 71.3275 -67.9763 69.3749 -71.9011 L 65.9952 -78.6944 C 67.7028 -79.0386 69.4151 -79.6529 71.14 -80.5401 C 72.4759 -81.2029 73.1863 -82.7299 72.8501 -84.2157 C 72.5139 -85.7016 71.221 -86.749 69.7379 -86.7369 Z M 9.01654 -60.2007 L 5.8748 -57.0304 C 5.43875 -56.2017 4.63215 -55.3687 3.64 -54.7736 L -17.6505 -33.3674 C -16.6129 -29.9276 -15.6665 -26.4271 -14.8185 -22.8707 C -12.8129 -25.0305 -12.8247 -28.4314 -14.8467 -30.5707 C -15.0108 -30.7443 -15.186 -30.9069 -15.338 -31.0905 C -15.1643 -30.9295 -15.0111 -30.7445 -14.8467 -30.5707 C -12.7725 -28.3761 -9.36162 -28.327 -7.22821 -30.4606 C -5.0948 -32.5943 -5.04678 -36.1028 -7.121 -38.2974 C -7.29421 -38.4806 -7.47961 -38.6512 -7.63897 -38.8452 C -7.45515 -38.6761 -7.29432 -38.4807 -7.121 -38.2974 C -5.04678 -36.1028 -1.63589 -36.0534 0.497517 -38.1871 C 2.63092 -40.3207 2.67894 -43.8293 0.604726 -46.0238 C 0.422597 -46.2165 0.227005 -46.3954 0.060263 -46.5999 C 0.254019 -46.4229 0.422469 -46.2166 0.604726 -46.0238 C 2.67894 -43.8293 6.08984 -43.7799 8.22325 -45.9135 C 10.3567 -48.0472 10.4047 -51.556 8.33045 -53.7505 C 8.13938 -53.9527 7.93356 -54.1395 7.7595 -54.3546 C 7.96326 -54.1699 8.13921 -53.9529 8.33045 -53.7505 C 9.57759 -52.4311 11.3801 -51.8344 13.1459 -52.2125 C 13.5504 -54.2701 13.9931 -56.332 14.478 -58.3983 C 12.5042 -58.816 10.6197 -59.4084 9.01654 -60.2007 Z M 8.22325 -45.9135 C 6.08984 -43.7799 6.04182 -40.2713 8.11604 -38.0768 C 8.25793 -37.9267 8.408 -37.7849 8.54066 -37.6275 C 8.39139 -37.7684 8.25789 -37.9267 8.11604 -38.0768 C 6.04182 -40.2713 2.63092 -40.3207 0.497517 -38.1871 C -1.63589 -36.0534 -1.68391 -32.5449 0.390309 -30.3503 C 0.541126 -30.1908 0.7013 -30.0406 0.841675 -29.8728 C 0.682609 -30.0219 0.541123 -30.1908 0.390309 -30.3503 C -1.68391 -32.5449 -5.0948 -32.5943 -7.22821 -30.4606 C -9.36162 -28.327 -9.40964 -24.8181 -7.33542 -22.6236 C -7.17569 -22.4546 -7.00566 -22.2964 -6.85756 -22.1181 C -7.02641 -22.2752 -7.17558 -22.4545 -7.33542 -22.6236 C -9.36005 -24.7657 -12.6699 -24.8707 -14.818 -22.8689 C -13.9566 -19.2563 -13.1967 -15.5861 -12.5468 -11.8631 L 10.6725 -35.2375 C 11.0606 -39.3004 11.5961 -43.3833 12.2848 -47.4844 C 10.7795 -47.5617 9.3055 -46.9959 8.22325 -45.9135 Z M 38.8984 -54.9972 L 37.3123 -52.0541 C 38.5543 -50.8159 39.689 -49.4871 40.7046 -48.097 C 45.815 -41.1017 48.489 -32.3191 48.489 -23.012 C 48.489 -13.705 45.8151 -4.92222 40.7046 2.07315 C 37.6962 6.19112 33.6415 9.77061 28.8519 12.0505 L 34.5612 12.4861 C 37.9651 10.158 40.8969 7.23665 43.2382 4.03171 C 48.7951 -3.57472 51.6582 -13.0627 51.6582 -23.012 C 51.6582 -32.9614 48.795 -42.4493 43.2382 -50.0555 C 41.9609 -51.8039 40.5079 -53.4679 38.8984 -54.9972 Z M 12.9333 -51.1188 C 12.7639 -50.2346 12.6015 -49.3374 12.4462 -48.4347 C 12.6015 -49.3286 12.7632 -50.2232 12.9333 -51.1188 Z M 32.06 -40.2888 C 26.5653 -25.8445 25.0278 -12.4946 26.4881 0.00382072 C 28.3891 -1.26474 30.1263 -2.98249 31.5837 -4.97736 C 35.0445 -9.71467 37.0798 -16.0617 37.0798 -23.012 C 37.0798 -29.6234 35.2382 -35.6886 32.06 -40.2888 Z M 60.849 -33.7344 L 60.849 3.912 L 64.652 3.912 L 74.1597 3.912 L 76.0612 1.62032 L 76.0612 -7.20053 L 70.5453 -14.1639 L 74.8337 -19.1046 L 69.342 -24.5256 L 64.652 -19.1217 L 64.652 -29.4691 Z M -10.0486 -9.78 L -11.9028 -7.91238 L -11.3522 -3.97083 L -10.1417 -5.216 L -7.60629 -2.608 L -5.07091 -5.216 L -2.53553 -2.608 L -0.00015 -5.216 L 2.53523 -2.608 L 5.07061 -5.216 L 7.60599 -2.608 L 10.1414 -5.216 L 10.4249 -4.92438 L 10.1183 -9.78 Z M 64.652 -9.2174 L 69.6755 -2.87593 L 64.652 2.29168 Z M 55.7782 1.304 C 53.1033 5.00933 50.596 8.84523 46.3582 11.3344 C 46.0584 11.1152 45.7033 10.9902 45.3359 10.9745 C 44.7326 10.9497 44.1538 11.221 43.7762 11.7055 C 43.3985 12.19 43.267 12.8302 43.4217 13.4304 C 44.6532 18.4976 44.6501 20.409 43.4626 24.0736 C 43.1548 24.9772 43.528 25.9771 44.3446 26.4366 C 45.1612 26.8961 46.1811 26.6801 46.7548 25.9262 L 55.7782 35.208 C 56.2554 32.4239 56.3913 29.3487 53.2428 23.472 C 56.9705 22.1785 59.976 20.0595 62.1167 16.952 C 60.0055 16.0836 57.0509 15.2143 53.2428 14.344 C 56.1196 9.52254 56.4252 5.30197 55.7782 1.304 Z M 51.8914 10.7201 C 51.5874 11.3943 51.2452 12.0831 50.8119 12.8093 L 48.7198 16.3158 L 52.6241 17.2082 C 54.2234 17.5737 55.6263 17.9377 56.8939 18.2965 C 55.5967 19.2897 54.0913 20.0811 52.3312 20.6918 L 49.0978 21.814 L 50.7448 24.8881 C 51.1465 25.6378 51.4768 26.3073 51.7659 26.9314 L 48.7718 23.8515 C 48.4518 23.5137 48.0722 23.2727 47.667 23.1279 C 48.2867 20.2925 48.2106 17.6221 47.4632 14.0453 C 47.5676 13.9982 47.6703 13.9443 47.771 13.8833 C 49.3504 12.9558 50.69 11.8723 51.8914 10.7201 Z M 82.3997 37.506 C 74.3623 44.5437 65.1243 50.2165 55.2845 55.2927 L 58.122 58.217 C 66.75 53.7051 74.9773 48.6674 82.3997 42.5741 Z"
       id="path1291"
       style="display:inline"
       inkscape:label="layer-1" />
    <path
       fill="#ff0000"
       d="M 2.17126 -122.497 C 1.18469 -121.506 -0.0252021 -120.666 -1.39857 -120.077 C -2.02891 -117.17 -3.24206 -114.68 -4.84015 -112.651 C -12.1711 -112.596 -19.8238 -112.221 -27.8547 -111.481 C -28.6383 -112.386 -29.3176 -113.353 -29.8245 -114.337 C -30.8473 -116.323 -31.3225 -118.114 -31.7506 -119.641 C -33.6467 -120.134 -35.3476 -121.115 -36.9043 -122.279 C -33.2186 -115.921 -30.6974 -110.85 -28.5883 -105.621 C -3.75862 -107.889 16.5344 -106.791 36.463 -103.597 C 38.3526 -108.554 40.8841 -113.676 46.4941 -121.808 C 44.2291 -120.622 41.3807 -119.614 37.5975 -118.911 C 37.2376 -115.493 36.0919 -112.577 34.1131 -110.402 C 33.9509 -110.223 33.7849 -110.052 33.6152 -109.886 L 7.76024 -111.746 L 33.5112 -109.946 C 25.1447 -111.185 16.646 -112.043 7.77832 -112.42 C 6.59158 -114.502 5.76009 -116.947 5.46404 -119.692 C 4.16105 -120.431 3.04718 -121.401 2.17126 -122.497 Z M 55.7782 -85.412 C 55.2739 -85.412 54.7902 -85.2059 54.4336 -84.8391 C 54.077 -84.4723 53.8767 -83.9748 53.8767 -83.456 C 53.8767 -82.9372 54.077 -82.4397 54.4336 -82.0729 C 54.7902 -81.7061 55.2739 -81.5 55.7782 -81.5 C 56.2825 -81.5 56.7662 -81.7061 57.1228 -82.0729 C 57.4794 -82.4397 57.6797 -82.9372 57.6797 -83.456 C 57.6797 -83.9748 57.4794 -84.4723 57.1228 -84.8391 C 56.7662 -85.2059 56.2825 -85.412 55.7782 -85.412 Z M 69.7228 -85.412 C 69.2185 -85.412 68.7348 -85.2059 68.3782 -84.8391 C 68.0216 -84.4723 67.8213 -83.9748 67.8213 -83.456 C 67.8213 -82.9372 68.0216 -82.4397 68.3782 -82.0729 C 68.7348 -81.7061 69.2185 -81.5 69.7228 -81.5 C 70.2271 -81.5 70.7108 -81.7061 71.0674 -82.0729 C 71.424 -82.4397 71.6243 -82.9372 71.6243 -83.456 C 71.6243 -83.9748 71.424 -84.4723 71.0674 -84.8391 C 70.7108 -85.2059 70.2271 -85.412 69.7228 -85.412 Z M 62.7505 -83.456 C 62.2462 -83.456 61.7625 -83.2499 61.4059 -82.8831 C 61.0493 -82.5163 60.849 -82.0188 60.849 -81.5 C 60.849 -80.9812 61.0493 -80.4837 61.4059 -80.1169 C 61.7625 -79.7501 62.2462 -79.544 62.7505 -79.544 C 63.2548 -79.544 63.7385 -79.7501 64.0951 -80.1169 C 64.4517 -80.4837 64.652 -80.9812 64.652 -81.5 C 64.652 -82.0188 64.4517 -82.5163 64.0951 -82.8831 C 63.7385 -83.2499 63.2548 -83.456 62.7505 -83.456 Z M 12.2964 -58.9408 L 10.1312 -56.7426 C 10.2389 -56.4856 10.396 -56.2415 10.6026 -56.0228 C 11.4829 -55.0915 12.8343 -55.072 13.7397 -55.9775 C 13.8376 -56.0755 13.9254 -56.1793 14.0026 -56.2875 L 14.4334 -58.4037 Z M -13.0504 -58.3436 C -14.7309 -56.8611 -16.7838 -55.8155 -18.8892 -55.1503 C -20.8826 -54.5205 -22.9937 -54.1384 -25.1066 -53.8471 C -22.7229 -48.291 -20.5905 -42.6266 -18.7186 -36.8095 L -4.59998 -51.0114 C -7.59428 -52.0759 -10.5616 -54.4579 -13.0504 -58.3436 Z M -18.7186 -36.8095 L -18.7206 -36.8074 L -18.6968 -36.7428 C -18.704 -36.765 -18.7115 -36.7872 -18.7186 -36.8095 Z M 5.39199 -51.9733 L 2.42059 -48.981 C 2.52768 -48.7368 2.67966 -48.5051 2.87691 -48.2964 C 3.75717 -47.3651 5.10857 -47.3456 6.01395 -48.2511 C 6.91933 -49.1565 6.93853 -50.5466 6.05827 -51.4779 C 5.85718 -51.6907 5.63132 -51.8559 5.39199 -51.9733 Z M 11.776 -44.2323 C 11.2943 -44.1842 10.8221 -43.9659 10.4325 -43.5763 C 9.52717 -42.6708 9.50821 -41.2807 10.3885 -40.3494 C 10.4824 -40.25 10.7097 -40.095 10.905 -39.9691 Z M -2.29809 -44.2288 L -5.28855 -41.2176 C -5.18255 -40.987 -5.0361 -40.7681 -4.84882 -40.5699 C -3.96856 -39.6386 -2.61716 -39.6189 -1.71178 -40.5244 C -0.806403 -41.4298 -0.78745 -42.8202 -1.66771 -43.7515 C -1.85882 -43.9537 -2.07195 -44.1127 -2.29809 -44.2288 Z M 82.3997 -40.4225 L 60.743 -40.4092 C 67.2905 -32.3555 74.9373 -24.5513 82.3997 -17.7976 Z M 4.28474 -36.5158 C 3.72368 -36.5239 3.1595 -36.3025 2.70681 -35.8498 C 1.80144 -34.9443 1.78248 -33.5542 2.66274 -32.6229 C 2.81898 -32.4576 2.99001 -32.3209 3.17081 -32.2131 L 6.2202 -35.2842 C 6.12164 -35.468 5.99625 -35.643 5.84385 -35.8042 C 5.40372 -36.2699 4.8458 -36.5077 4.28474 -36.5158 Z M -9.98866 -36.4837 L -12.9969 -33.4542 C -12.8925 -33.2371 -12.7518 -33.0308 -12.5745 -32.8432 C -11.6943 -31.9119 -10.3429 -31.8924 -9.43751 -32.7979 C -8.53213 -33.7034 -8.51318 -35.0935 -9.39344 -36.0248 C -9.5746 -36.2164 -9.77558 -36.3694 -9.98866 -36.4837 Z M 31.9981 -34.4422 C 30.4591 -33.9573 29.437 -32.4585 29.437 -30.7688 C 29.437 -28.6083 31.087 -26.8568 33.1225 -26.8568 C 33.4053 -26.8568 33.6871 -26.8914 33.9801 -26.84 C 33.9024 -26.728 33.8069 -26.732 33.7112 -26.732 C 31.6758 -26.732 30.0258 -24.9805 30.0258 -22.82 C 30.0258 -20.6595 31.6758 -18.908 33.7112 -18.908 C 33.7892 -18.908 33.8671 -18.9105 33.9267 -18.7478 C 33.6037 -18.6645 33.2903 -18.7076 32.9754 -18.7076 C 30.94 -18.7076 29.2899 -16.9561 29.2899 -14.7956 C 29.2899 -13.395 29.994 -12.1261 31.0951 -11.4248 C 30.6849 -11.5828 30.2507 -11.667 29.8106 -11.667 C 27.7752 -11.667 26.1252 -9.91552 26.1252 -7.75498 C 26.1252 -6.5495 26.6487 -5.41138 27.5857 -4.70051 C 31.7595 -9.05448 34.2275 -15.7981 34.2275 -23.012 C 34.2275 -27.022 33.4623 -30.9441 31.9981 -34.4422 Z M 10.2706 -30.2459 L -9.9894 -9.8396 L 10.1131 -9.79528 C 9.76801 -16.5199 9.80736 -23.338 10.2706 -30.2459 Z M 64.6827 -29.5891 L 64.652 -19.3071 L 69.3358 -24.6843 C 67.7705 -26.4357 66.2279 -28.0597 64.6827 -29.5891 Z M -3.44099 -28.7894 C -4.00205 -28.7975 -4.56623 -28.5758 -5.01891 -28.1231 C -5.92429 -27.2176 -5.94349 -25.8275 -5.06323 -24.8962 C -4.89698 -24.7203 -4.7137 -24.5771 -4.52001 -24.4663 L -1.48671 -27.5218 C -1.58796 -27.7188 -1.71956 -27.906 -1.88188 -28.0778 C -2.32201 -28.5434 -2.87993 -28.7812 -3.44099 -28.7894 Z M -11.1667 -21.0627 C -11.7278 -21.0708 -12.292 -20.8494 -12.7446 -20.3966 C -13.65 -19.4912 -13.6692 -18.1011 -12.789 -17.1698 C -12.6128 -16.9834 -12.4178 -16.8335 -12.2113 -16.7202 L -9.19412 -19.7589 C -9.2976 -19.9692 -9.43534 -20.1691 -9.60761 -20.3513 C -10.0477 -20.817 -10.6057 -21.0545 -11.1667 -21.0627 Z M 74.8337 -19.1046 L 70.5453 -14.1639 L 76.0613 -7.20053 L 76.0613 -17.9516 Z M 78.5721 -15.7687 L 78.6117 3.912 L 82.3997 3.912 L 82.3997 -12.4845 C 81.1242 -13.5957 79.8446 -14.7118 78.5721 -15.7687 Z M 64.652 -9.2174 L 64.652 2.29168 L 69.6755 -2.87593 Z M 76.0612 1.6812 L 73.8198 3.912 L 76.0746 3.912 Z M 82.3997 3.91353 L 56.0421 3.94486 C 56.1665 7.18715 55.4871 10.5827 53.2428 14.344 C 57.0509 15.2143 60.0055 16.0836 62.1167 16.952 C 61.5826 17.7272 60.9947 18.4409 60.2877 19.1596 C 68.9658 17.2663 76.8278 9.96103 82.3997 4.96105 Z M 82.1796 25.3735 L 76.0865 30.0549 L 80.2914 35.6792 L 76.6389 38.237 L 74.8777 36.1649 L 75.2697 35.8745 L 76.2742 37.1734 L 79.2438 35.2202 L 75.4675 30.4675 L 69.3673 35.0137 L 73.2827 40.7166 L 69.5223 43.0934 L 67.8572 40.939 L 68.2617 40.6677 L 69.2063 42.0135 L 72.2614 40.2052 L 68.7017 35.2717 L 62.4722 39.5441 L 66.1089 45.4778 L 62.2241 47.622 L 60.6843 45.3713 L 61.1038 45.1248 L 61.9701 46.525 L 65.1227 44.9034 L 61.8495 39.7641 L 55.3494 43.6781 L 59.0098 49.6506 L 55.1251 51.7948 L 53.5853 49.5441 L 54.0047 49.2976 L 54.871 50.6978 L 58.0237 49.0762 L 54.7594 43.9509 L 48.4915 47.5328 L 49.5069 48.7423 L 54.2617 46.0251 L 55.8144 48.463 L 55.4177 48.667 L 54.5093 47.1984 L 51.3792 49.0383 L 54.6566 53.8292 L 61.1669 50.2358 L 57.4747 44.2115 L 61.3697 41.8663 L 62.9134 44.2902 L 62.5168 44.4942 L 61.6083 43.0256 L 58.4782 44.8655 L 61.7557 49.6564 L 68.2659 46.063 L 64.55 39.9999 L 68.3422 37.3988 L 70.0212 39.7259 L 69.6366 39.9533 L 68.6463 38.5421 L 65.6261 40.5669 L 69.1702 45.1525 L 75.4608 41.1766 L 71.477 35.3738 L 75.1979 32.6008 L 76.9843 34.8491 L 76.6104 35.0949 L 75.5571 33.7326 L 72.6323 35.9005 L 76.3806 40.3107 L 82.3997 36.0958 L 82.3997 35.9323 L 78.2329 30.359 L 81.9233 27.5236 L 82.3997 28.1231 L 82.3997 25.6506 Z M 82.2759 28.647 L 79.3511 30.8149 L 82.3997 34.4019 L 82.3997 32.0244 L 81.5965 31.0793 L 81.9884 30.7889 L 82.3997 31.3207 L 82.3997 28.8072 Z"
       id="path1287"
       style="display:inline"
       inkscape:label="layer-4" />
    <path
       fill="#4444ff"
       d="M -5.93898 -94.2626 C -6.63907 -94.2626 -7.20661 -93.2912 -7.20667 -92.0927 C -7.20668 -91.5171 -7.07313 -90.9651 -6.83539 -90.5582 C -6.59765 -90.1512 -6.2752 -89.9225 -5.93898 -89.9225 C -5.60276 -89.9225 -5.28031 -90.1512 -5.04257 -90.5582 C -4.80483 -90.9651 -4.67128 -91.5171 -4.67129 -92.0927 C -4.67135 -93.2912 -5.2389 -94.2626 -5.93898 -94.2626 Z M -21.5509 -94.1022 C -21.8871 -94.1022 -22.2095 -93.8735 -22.4473 -93.4666 C -22.685 -93.0596 -22.8186 -92.5076 -22.8186 -91.932 C -22.8186 -91.3564 -22.685 -90.8044 -22.4473 -90.3974 C -22.2095 -89.9905 -21.8871 -89.7618 -21.5509 -89.7618 C -21.2147 -89.7618 -20.8922 -89.9905 -20.6545 -90.3974 C -20.4167 -90.8044 -20.2832 -91.3564 -20.2832 -91.932 C -20.2832 -92.5076 -20.4167 -93.0596 -20.6545 -93.4666 C -20.8922 -93.8735 -21.2147 -94.1022 -21.5509 -94.1022 Z M 69.7332 -91.2904 C 67.7458 -89.7471 64.9345 -88.672 62.7505 -88.672 C 60.6843 -88.672 58.6182 -89.8268 57.1449 -90.9 L 57.3519 -86.297 C 61.6992 -84.0556 63.8017 -84.0555 68.3056 -86.3719 C 68.7484 -86.6078 69.2391 -86.7328 69.7302 -86.7364 Z M -15.2124 -75.632 C -16.4801 -74.328 -18.3318 -73.9149 -18.4557 -73.7534 L -19.0155 -73.024 C -17.8965 -74.4824 -11.6793 -73.7009 -7.76252 -74.0993 L -8.87398 -74.328 C -10.1417 -74.328 -11.4094 -75.632 -11.4094 -75.632 C -11.4094 -75.632 -12.2608 -74.328 -13.5285 -74.328 C -15.2125 -74.328 -15.2124 -75.632 -15.2124 -75.632 Z M -7.76252 -74.0993 L -5.70476 -73.676 L -6.3386 -74.328 C -6.76045 -74.2253 -7.24198 -74.1522 -7.76252 -74.0993 Z M 66.5536 -70.416 C 65.7076 -66.489 64.0062 -62.5772 61.4828 -58.68 C 59.0769 -62.0785 56.6238 -65.4494 55.7782 -69.764 C 52.875 -65.3896 49.8778 -62.9594 46.8031 -61.9176 C 49.9498 -54.9576 54.8958 -47.6009 60.7294 -40.4265 L 82.3997 -40.4243 L 82.3997 -59.1102 C 76.264 -61.1836 70.1216 -63.2438 66.5536 -70.416 Z M 42.6447 -61.5307 C 41.9123 -60.3334 41.2061 -59.1428 40.5191 -57.9249 C 42.4824 -56.0883 44.2447 -54.1046 45.7719 -52.0141 C 51.7749 -43.7969 54.8274 -33.6048 54.8274 -23.012 C 54.8274 -12.4193 51.7751 -2.22708 45.7719 5.99025 C 45.3487 6.56955 44.9074 7.1406 44.4569 7.72136 C 44.7992 7.72527 45.1271 7.70328 45.4626 7.71706 C 45.6508 7.72475 45.8258 7.75324 46.0041 7.7764 C 48.8003 5.67314 50.8288 2.69209 53.2339 -0.639495 L 55.7782 1.304 C 55.9113 2.12628 56.0041 2.95803 56.0387 3.85725 L 60.8314 3.912 L 60.9151 -33.8149 C 53.2447 -42.8414 46.5654 -52.3566 42.6447 -61.5307 Z M 33.6323 -58.0601 C 33.3939 -58.052 33.1802 -57.9069 33.0791 -57.6847 C 32.9309 -57.3586 33.0677 -56.9706 33.3847 -56.818 C 33.5369 -56.7447 33.7113 -56.7366 33.8694 -56.7955 C 34.0274 -56.8545 34.1562 -56.9756 34.2275 -57.1323 C 34.3757 -57.4584 34.2389 -57.8464 33.9219 -57.999 C 33.8314 -58.0425 33.7322 -58.0635 33.6323 -58.0601 Z M 18.6077 -56.9295 C 18.2992 -56.9324 18.0336 -56.7066 17.9783 -56.3944 C 17.9156 -56.0402 18.1439 -55.7007 18.4883 -55.6362 C 18.8327 -55.5718 19.1627 -55.8066 19.2254 -56.1609 C 19.2881 -56.5151 19.0597 -56.8546 18.7154 -56.9191 C 18.6798 -56.9257 18.6438 -56.9292 18.6077 -56.9295 Z M 30.8357 -56.5266 C 30.5973 -56.5185 30.3836 -56.3734 30.2825 -56.1512 C 30.1343 -55.8251 30.2711 -55.4371 30.5881 -55.2845 C 30.7403 -55.2112 30.9147 -55.2031 31.0728 -55.2621 C 31.2308 -55.321 31.3597 -55.4421 31.4309 -55.5988 C 31.5791 -55.9249 31.4424 -56.3129 31.1254 -56.4655 C 31.0348 -56.5091 30.9356 -56.53 30.8357 -56.5266 Z M 22.3493 -56.2284 C 22.0408 -56.2314 21.775 -56.0055 21.7197 -55.6933 C 21.657 -55.339 21.8854 -54.9996 22.2297 -54.9351 C 22.574 -54.8706 22.904 -55.1053 22.9668 -55.4595 C 22.997 -55.6296 22.9602 -55.8051 22.8646 -55.9474 C 22.7689 -56.0896 22.6222 -56.187 22.4568 -56.2179 C 22.4213 -56.2246 22.3854 -56.228 22.3493 -56.2284 Z M 20.3589 -55.2855 L 17.7485 -47.8222 L 19.3363 -49.5128 L 19.5054 -46.8299 L 20.2933 -49.4323 L 21.4899 -47.1208 Z M 34.2805 -54.8691 C 34.0421 -54.861 33.8284 -54.7159 33.7273 -54.4937 C 33.6561 -54.3371 33.6482 -54.1577 33.7055 -53.9951 C 33.7628 -53.8325 33.8806 -53.7 34.0329 -53.6267 C 34.1851 -53.5534 34.3595 -53.5454 34.5176 -53.6043 C 34.6756 -53.6632 34.8045 -53.7844 34.8757 -53.941 C 34.947 -54.0977 34.9548 -54.277 34.8975 -54.4396 C 34.8402 -54.6022 34.7224 -54.7347 34.5702 -54.808 C 34.4796 -54.8516 34.3804 -54.8725 34.2805 -54.8691 Z M 32.3106 -54.4555 L 27.9393 -47.9212 L 29.8933 -49.1404 L 29.3932 -46.5019 L 30.799 -48.8121 L 31.3841 -46.2637 Z M 11.0441 -50.8794 C 11.1455 -50.1579 11.1355 -49.4234 11.0144 -48.7052 C 11.5095 -48.7788 12.0109 -48.7953 12.5086 -48.7548 L 12.88 -50.8135 C 12.2686 -50.7491 11.6504 -50.7713 11.0441 -50.8794 Z M 22.8178 -44.1755 C 22.5331 -44.1668 22.289 -43.9639 22.2211 -43.6794 C 22.1375 -43.3297 22.3454 -42.9766 22.6853 -42.8906 C 23.0253 -42.8047 23.3686 -43.0185 23.4521 -43.3682 C 23.5357 -43.7179 23.3278 -44.071 22.9879 -44.157 C 22.9323 -44.171 22.875 -44.1773 22.8178 -44.1755 Z M 3.31837 -43.1527 C 3.41975 -42.4312 3.40973 -41.6967 3.28866 -40.9785 C 3.99008 -41.0827 4.70411 -41.0724 5.40239 -40.9479 C 5.30101 -41.6694 5.31104 -42.4039 5.4321 -43.1222 C 4.73069 -43.0179 4.01665 -43.0282 3.31837 -43.1527 Z M 20.3661 -42.1098 C 20.0814 -42.1011 19.8373 -41.8981 19.7694 -41.6136 C 19.6858 -41.264 19.8937 -40.9108 20.2336 -40.8249 C 20.5736 -40.7389 20.9169 -40.9527 21.0004 -41.3024 C 21.084 -41.6521 20.8761 -42.0052 20.5362 -42.0912 C 20.4806 -42.1053 20.4233 -42.1115 20.3661 -42.1098 Z M 24.0592 -41.1761 C 23.7745 -41.1674 23.5305 -40.9645 23.4625 -40.68 C 23.379 -40.3303 23.5868 -39.9771 23.9268 -39.8912 C 24.2667 -39.8053 24.61 -40.0191 24.6936 -40.3687 C 24.7771 -40.7184 24.5693 -41.0716 24.2293 -41.1575 C 24.1737 -41.1716 24.1165 -41.1778 24.0592 -41.1761 Z M 22.0802 -40.358 L 19.0335 -33.0714 L 20.7184 -34.6597 L 20.7288 -31.9714 L 21.6689 -34.5196 L 22.7267 -32.1377 Z M -4.40735 -35.4263 C -4.30598 -34.7048 -4.316 -33.9703 -4.43707 -33.252 C -3.73565 -33.3563 -3.02162 -33.346 -2.32334 -33.2214 C -2.42472 -33.9429 -2.41469 -34.6774 -2.29363 -35.3957 C -2.99504 -35.2914 -3.70908 -35.3017 -4.40735 -35.4263 Z M 14.3502 -28.6643 C 14.018 -28.6806 13.73 -28.43 13.6907 -28.0902 C 13.6492 -27.7328 13.8973 -27.4084 14.2448 -27.3657 C 14.5924 -27.323 14.9077 -27.5784 14.9492 -27.9359 C 14.9906 -28.2934 14.7426 -28.6177 14.3951 -28.6605 C 14.3802 -28.6623 14.3652 -28.6636 14.3502 -28.6643 Z M 28.3451 -28.3658 C 26.9556 -22.6103 26.2098 -17.0717 26.0303 -11.6945 L 26.0548 -11.6283 C 26.5978 -12.2112 27.2618 -12.6708 28.0044 -12.9588 C 27.8099 -13.5397 27.7053 -14.1593 27.7053 -14.7956 C 27.7053 -16.5566 28.5085 -18.1505 29.7579 -19.1724 C 28.9383 -20.1539 28.4412 -21.4351 28.4412 -22.82 C 28.4412 -24.2178 28.9473 -25.5104 29.7807 -26.4954 C 29.1824 -27.0154 28.6945 -27.6701 28.3451 -28.3658 Z M -12.1331 -27.6996 C -12.0317 -26.9781 -12.0417 -26.2438 -12.1628 -25.5255 C -11.4614 -25.6298 -10.7473 -25.6195 -10.0491 -25.495 C -10.1504 -26.2165 -10.1404 -26.9507 -10.0194 -27.669 C -10.7208 -27.5647 -11.4348 -27.575 -12.1331 -27.6996 Z M 22.7898 -27.3443 C 22.4816 -27.3278 22.2298 -27.0854 22.1933 -26.7702 C 22.1519 -26.4126 22.4001 -26.0882 22.7477 -26.0456 C 23.0952 -26.003 23.4106 -26.2582 23.4521 -26.6156 C 23.4721 -26.7874 23.4249 -26.9602 23.3209 -27.0962 C 23.2169 -27.2321 23.0647 -27.32 22.8977 -27.3404 C 22.8829 -27.3423 22.8681 -27.3435 22.8532 -27.3443 C 22.8321 -27.3454 22.8109 -27.3454 22.7898 -27.3443 Z M 12.0984 -26.3064 C 11.7902 -26.2899 11.5384 -26.0475 11.5019 -25.7324 C 11.4605 -25.3748 11.7087 -25.0504 12.0563 -25.0078 C 12.4039 -24.9651 12.7193 -25.2205 12.7607 -25.578 C 12.8021 -25.9355 12.5541 -26.2598 12.2066 -26.3026 C 12.1917 -26.3044 12.1767 -26.3057 12.1618 -26.3064 C 12.1406 -26.3075 12.1195 -26.3075 12.0984 -26.3064 Z M 15.9198 -25.8437 C 15.9047 -25.8439 15.8897 -25.8437 15.8747 -25.8429 C 15.5665 -25.8264 15.3147 -25.584 15.2782 -25.2688 C 15.2368 -24.9112 15.485 -24.5868 15.8326 -24.5442 C 16.1802 -24.5016 16.4956 -24.7569 16.537 -25.1145 C 16.5785 -25.4719 16.3304 -25.7963 15.9829 -25.839 C 15.9619 -25.8417 15.9409 -25.8432 15.9198 -25.8436 Z M 20.6013 -24.9864 C 20.2931 -24.9699 20.0413 -24.7275 20.0048 -24.4123 C 19.9634 -24.0547 20.2116 -23.7303 20.5592 -23.6877 C 20.9067 -23.6451 21.2221 -23.9003 21.2636 -24.2577 C 21.2836 -24.4295 21.2364 -24.6023 21.1324 -24.7383 C 21.0284 -24.8742 20.8762 -24.9621 20.7092 -24.9826 C 20.6944 -24.9844 20.6796 -24.9856 20.6647 -24.9864 C 20.6436 -24.9875 20.6224 -24.9875 20.6013 -24.9864 Z M 13.9444 -24.776 L 11.7844 -17.1616 L 13.2685 -18.9493 L 13.5976 -16.2824 L 14.2284 -18.9296 L 15.5607 -16.6981 Z M 24.4224 -24.5236 C 24.4075 -24.5239 24.3926 -24.5236 24.3776 -24.5228 C 24.0695 -24.5063 23.8176 -24.2639 23.7812 -23.9488 C 23.7397 -23.5913 23.9878 -23.2669 24.3353 -23.2242 C 24.5023 -23.2036 24.6703 -23.2522 24.8025 -23.3591 C 24.9346 -23.4661 25.0201 -23.6227 25.0399 -23.7944 C 25.0814 -24.152 24.8332 -24.4764 24.4856 -24.519 C 24.4646 -24.5216 24.4435 -24.5231 24.4224 -24.5236 Z M 22.4474 -23.456 L 20.2873 -15.8416 L 21.7714 -17.6292 L 22.1005 -14.9624 L 22.7314 -17.6096 L 24.0637 -15.378 Z M 17.7475 -12.388 C 17.5794 -12.388 17.4182 -12.3193 17.2993 -12.197 C 17.1804 -12.0748 17.1137 -11.9089 17.1137 -11.736 C 17.1137 -11.5631 17.1804 -11.3972 17.2993 -11.275 C 17.4182 -11.1527 17.5794 -11.084 17.7475 -11.084 C 17.9156 -11.084 18.0768 -11.1527 18.1957 -11.275 C 18.3146 -11.3972 18.3814 -11.5631 18.3814 -11.736 C 18.3814 -11.9089 18.3146 -12.0748 18.1957 -12.197 C 18.0768 -12.3193 17.9156 -12.388 17.7475 -12.388 Z M 15.846 -9.78 C 15.6779 -9.78 15.5166 -9.71131 15.3978 -9.58903 C 15.2789 -9.46676 15.2121 -9.30092 15.2121 -9.128 C 15.2121 -8.95508 15.2789 -8.78924 15.3978 -8.66697 C 15.5166 -8.54469 15.6779 -8.476 15.846 -8.476 C 16.0141 -8.476 16.1753 -8.54469 16.2942 -8.66697 C 16.413 -8.78924 16.4798 -8.95508 16.4798 -9.128 C 16.4798 -9.30092 16.413 -9.46676 16.2942 -9.58903 C 16.1753 -9.71131 16.0141 -9.78 15.846 -9.78 Z M 19.649 -9.78 C 19.4809 -9.78 19.3197 -9.71131 19.2008 -9.58903 C 19.082 -9.46676 19.0152 -9.30092 19.0152 -9.128 C 19.0152 -8.95508 19.082 -8.78924 19.2008 -8.66697 C 19.3197 -8.54469 19.4809 -8.476 19.649 -8.476 C 19.8172 -8.476 19.9784 -8.54469 20.0972 -8.66697 C 20.2161 -8.78924 20.2829 -8.95508 20.2829 -9.128 C 20.2829 -9.30092 20.2161 -9.46676 20.0972 -9.58903 C 19.9784 -9.71131 19.8172 -9.78 19.649 -9.78 Z M 17.7475 -8.476 L 16.4798 -0.652 L 17.7475 -2.608 L 18.3814 -2.84217e-14 L 18.703 -2.70555 L 20.2829 -0.652 Z M 22.9663 2.62379 C 22.9452 2.6227 22.9241 2.6227 22.9029 2.62379 C 22.7351 2.63377 22.578 2.71194 22.4662 2.84109 C 22.3544 2.97025 22.297 3.13981 22.3067 3.31246 C 22.3164 3.48512 22.3924 3.64674 22.518 3.76176 C 22.6435 3.87678 22.8084 3.93577 22.9762 3.92576 C 23.1441 3.91578 23.3012 3.83761 23.413 3.70845 C 23.5248 3.5793 23.5822 3.40973 23.5724 3.23708 C 23.5537 2.90271 23.2916 2.63738 22.9663 2.62328 Z M 14.0291 3.01397 C 13.9868 3.01285 13.9445 3.01608 13.9028 3.02362 C 13.5581 3.08622 13.328 3.42443 13.3888 3.77903 C 13.4497 4.13363 13.7785 4.37035 14.1232 4.30776 C 14.4679 4.24517 14.6981 3.90696 14.6372 3.55236 C 14.5848 3.24697 14.3305 3.02182 14.0291 3.01395 Z M 82.3997 5.02702 C 76.7588 10.0252 68.9274 17.2758 60.2686 19.1792 C 58.3998 21.0844 56.022 22.5076 53.2428 23.472 C 56.3913 29.3487 56.2554 32.4239 55.7782 35.208 L 46.7556 25.9267 C 46.2756 26.5617 45.4409 26.8501 44.6545 26.5805 C 43.984 26.3506 43.5224 25.7743 43.3917 25.1109 C 41.6447 25.71 37.8933 26.9962 35.3595 27.8503 C 38.0732 33.0692 41.3048 38.1268 44.9573 43.0004 C 58.8112 35.4609 71.8675 27.6815 82.3997 17.8009 Z M 43.3917 25.1109 C 43.4147 25.1031 43.4666 25.0854 43.4888 25.0778 L 43.3727 24.9999 C 43.3779 25.0372 43.3845 25.0741 43.3917 25.1109 Z M 25.0112 5.11438 C 24.9901 5.11329 24.969 5.11329 24.9478 5.11438 C 24.78 5.12436 24.6229 5.20253 24.5111 5.33168 C 24.3992 5.46084 24.3419 5.6304 24.3516 5.80306 C 24.3718 6.1625 24.6714 6.43706 25.0209 6.41635 C 25.1887 6.40637 25.3459 6.3282 25.4577 6.19904 C 25.5695 6.06988 25.6268 5.90032 25.6171 5.72766 C 25.5983 5.39339 25.3364 5.12809 25.0112 5.11387 Z M 16.3424 5.24224 C 16.3001 5.24111 16.2578 5.24434 16.2161 5.25189 C 15.8714 5.31448 15.6413 5.65269 15.7021 6.00729 C 15.763 6.36189 16.0918 6.5986 16.4365 6.53601 C 16.7812 6.47342 17.0113 6.13522 16.9505 5.78062 C 16.8981 5.47523 16.6438 5.25008 16.3424 5.24221 Z M 21.2143 5.34055 C 21.1932 5.33946 21.1721 5.33946 21.151 5.34055 C 20.8015 5.36133 20.5346 5.66952 20.5547 6.02897 C 20.5645 6.20162 20.6404 6.36324 20.766 6.47826 C 20.8916 6.59328 21.0564 6.65227 21.2242 6.64225 C 21.3921 6.63227 21.5492 6.55411 21.661 6.42495 C 21.7728 6.2958 21.8302 6.12624 21.8205 5.95358 C 21.8015 5.61931 21.5396 5.35412 21.2143 5.34004 Z M 12.597 5.92225 C 12.5548 5.92114 12.5126 5.92437 12.471 5.9319 C 12.1263 5.99449 11.8961 6.3327 11.957 6.6873 C 12.0178 7.04191 12.3466 7.27863 12.6914 7.21604 C 13.0361 7.15344 13.2662 6.81523 13.2054 6.46063 C 13.1529 6.15515 12.8985 5.92997 12.597 5.92222 Z M 23.1226 6.52968 L 22.5234 12.2494 L 25.2561 12.0314 Z M 14.5639 6.87606 L 14.6375 14.8075 L 15.5553 12.6547 L 16.6202 15.1098 L 16.4798 12.388 L 18.3826 14.1278 Z M 33.9975 29.6342 L 33.5936 31.948 L 32.0011 29.8165 L 32.7553 32.4294 L 30.5101 31.1946 L 35.8693 37.3288 Z M 22.9844 32.2195 L 22.4204 34.4974 L 20.9801 32.2541 L 21.5506 34.9159 L 19.3972 33.5189 L 24.3155 40.0323 Z M 37.8592 36.4944 C 37.7744 36.4954 37.6906 36.5138 37.6129 36.5487 C 37.4587 36.6177 37.3375 36.7468 37.2759 36.9077 C 37.2144 37.0687 37.2175 37.2481 37.2845 37.4067 C 37.3516 37.5653 37.4772 37.69 37.6336 37.7533 C 37.7901 37.8166 37.9645 37.8134 38.1187 37.7444 C 38.2729 37.6754 38.394 37.5463 38.4556 37.3854 C 38.5172 37.2244 38.5141 37.045 38.447 36.8864 C 38.3454 36.6461 38.1139 36.4917 37.8592 36.4944 Z M 34.3718 38.0552 C 34.287 38.056 34.2033 38.0744 34.1255 38.1091 C 33.9713 38.1781 33.8501 38.3073 33.7885 38.4682 C 33.727 38.6291 33.7301 38.8086 33.7972 38.9672 C 33.8642 39.1258 33.9898 39.2504 34.1462 39.3138 C 34.3027 39.3771 34.4772 39.3739 34.6313 39.3049 C 34.7855 39.2359 34.9067 39.1067 34.9682 38.9458 C 35.0298 38.7849 35.0267 38.6054 34.9596 38.4469 C 34.858 38.2067 34.6265 38.0524 34.3718 38.0552 Z M 26.3398 39.3457 C 26.3249 39.3451 26.3099 39.3451 26.295 39.3457 C 26.2316 39.3482 26.1689 39.3604 26.1091 39.3821 C 25.7789 39.5017 25.6055 39.874 25.7218 40.2136 C 25.8381 40.5533 26.2001 40.7316 26.5302 40.612 C 26.8604 40.4923 27.0338 40.12 26.9175 39.7804 C 26.8306 39.5267 26.6012 39.354 26.3398 39.3454 Z M 37.1271 39.6663 C 37.0423 39.6672 36.9585 39.6855 36.8807 39.7203 C 36.7265 39.7892 36.6053 39.9184 36.5436 40.0793 C 36.482 40.2402 36.4851 40.4197 36.5522 40.5783 C 36.6192 40.7369 36.7448 40.8616 36.9012 40.9249 C 37.0577 40.9882 37.2322 40.9851 37.3863 40.9161 C 37.7072 40.7724 37.8542 40.3884 37.7146 40.0583 C 37.6131 39.8181 37.3817 39.6637 37.1271 39.6663 Z M 22.7527 40.6453 C 22.7378 40.6448 22.7229 40.6448 22.7081 40.6453 C 22.6446 40.6478 22.5818 40.6601 22.5219 40.6817 C 22.1917 40.8014 22.0184 41.1737 22.1347 41.5133 C 22.251 41.8529 22.6129 42.0313 22.9431 41.9116 C 23.2732 41.792 23.4466 41.4197 23.3303 41.0801 C 23.2434 40.8264 23.014 40.6536 22.7527 40.6451 Z M 33.1982 40.694 L 32.9598 43.032 L 31.2202 41.0258 L 32.1578 43.575 L 29.8312 42.5124 L 35.6115 48.2276 Z M 25.3886 42.4554 C 25.3736 42.4548 25.3587 42.4548 25.3437 42.4554 C 25.2803 42.4579 25.2177 42.4702 25.1578 42.4918 C 24.8276 42.6114 24.6543 42.9837 24.7706 43.3234 C 24.8869 43.663 25.2488 43.8413 25.579 43.7217 C 25.9091 43.602 26.0825 43.2298 25.9662 42.8901 C 25.8793 42.6365 25.6499 42.4637 25.3886 42.4551 Z M 37.6002 47.2438 C 37.494 47.2419 37.389 47.2676 37.2949 47.3184 C 36.9851 47.4858 36.8659 47.8798 37.0285 48.1986 C 37.1912 48.5174 37.5743 48.6402 37.8842 48.4729 C 38.1941 48.3055 38.3135 47.9115 38.1509 47.5927 C 38.0432 47.3816 37.832 47.2477 37.6002 47.2438 Z M 34.2329 49.0622 C 34.1268 49.0604 34.0219 49.0861 33.9279 49.1369 C 33.618 49.3042 33.4986 49.6982 33.6612 50.0171 C 33.7394 50.1702 33.8734 50.2851 34.034 50.3366 C 34.1945 50.388 34.3683 50.3718 34.5172 50.2914 C 34.666 50.2109 34.7777 50.073 34.8277 49.9079 C 34.8776 49.7428 34.8618 49.564 34.7836 49.4109 C 34.6758 49.1999 34.4646 49.0662 34.2329 49.0622 Z M 44.7755 49.931 L 44.5371 52.269 L 42.7973 50.2628 L 43.7352 52.812 L 41.4085 51.7494 L 47.1886 57.4644 Z M 37.0951 50.462 C 36.9889 50.4602 36.8839 50.4858 36.7898 50.5366 C 36.641 50.617 36.5293 50.755 36.4794 50.9201 C 36.4294 51.0852 36.4453 51.264 36.5234 51.4171 C 36.6861 51.7358 37.0692 51.8586 37.3791 51.6914 C 37.528 51.611 37.6397 51.4731 37.6898 51.308 C 37.7398 51.1428 37.724 50.964 37.6458 50.8109 C 37.5381 50.5998 37.3269 50.466 37.0951 50.462 Z M 33.4971 52.4829 L 32.9598 54.768 L 31.4935 52.5428 L 32.0949 55.1971 L 29.9255 53.8269 L 32.3316 56.9354 L 34.4374 57.6358 Z M 49.1776 56.4805 C 49.0713 56.4787 48.9663 56.5043 48.8723 56.5551 C 48.7234 56.6356 48.6117 56.7735 48.5618 56.9386 C 48.5118 57.1037 48.5277 57.2825 48.6059 57.4356 C 48.7685 57.7544 49.1516 57.8772 49.4616 57.7099 C 49.6104 57.6295 49.7222 57.4916 49.7722 57.3265 C 49.8222 57.1614 49.8064 56.9826 49.7282 56.8294 C 49.6205 56.6183 49.4093 56.4845 49.1776 56.4805 Z M 45.8102 58.299 C 45.7041 58.2972 45.5992 58.3229 45.5052 58.3736 C 45.3563 58.454 45.2446 58.5919 45.1946 58.757 C 45.1446 58.9221 45.1604 59.1009 45.2386 59.2541 C 45.4013 59.5727 45.7844 59.6954 46.0943 59.5281 C 46.4041 59.3608 46.5235 58.9667 46.3609 58.6479 C 46.2532 58.4368 46.042 58.303 45.8102 58.299 Z M 36.8911 59.5678 C 36.8277 59.5712 36.7651 59.5843 36.7054 59.6068 C 36.5672 59.6588 36.4508 59.7587 36.3764 59.8893 L 36.6987 60.8288 C 36.8411 60.8842 36.998 60.8852 37.1409 60.8314 C 37.4696 60.7077 37.6387 60.3334 37.5185 59.9953 C 37.4311 59.7492 37.2089 59.5808 36.9545 59.5679 C 36.9334 59.5668 36.9122 59.5668 36.8911 59.5679 Z M 48.6725 59.699 C 48.5662 59.6972 48.4613 59.7228 48.3672 59.7736 C 48.0574 59.9411 47.9381 60.3351 48.1008 60.6538 C 48.2635 60.9726 48.6465 61.0954 48.9565 60.9281 C 49.2663 60.7608 49.3857 60.3667 49.2231 60.0479 C 49.1154 59.8368 48.9042 59.703 48.6725 59.699 Z"
       id="path1283"
       inkscape:label="layer-7"
       style="display:inline" />
    <path
       fill="#000000"
       d="M -2.34117 -106.796 C -10.5911 -106.814 -19.2566 -106.415 -28.5554 -105.531 L -27.1208 -101.737 C -3.43237 -103.906 15.9858 -102.866 35.104 -99.8128 L 36.4531 -103.555 C 24.004 -105.578 11.4087 -106.765 -2.34117 -106.796 Z M 53.5937 -77.303 L 52.5268 -74.9375 C 58.8321 -71.9363 65.7305 -71.8026 72.0886 -74.5363 L 71.1257 -76.9472 C 65.3809 -74.4586 59.307 -74.5773 53.5937 -77.303 Z M -12.6771 -64.548 C -14.1864 -59.3726 -20.1054 -57.579 -26.581 -57.1032 C -26.0879 -56.0951 -25.6208 -55.0364 -25.1475 -53.942 C -22.9938 -54.1384 -20.8826 -54.5205 -18.8892 -55.1503 C -16.7838 -55.8155 -14.7309 -56.8611 -13.0504 -58.3436 C -10.5616 -54.4579 -7.59442 -52.0759 -4.6193 -50.992 L -18.7308 -36.8433 C -18.3779 -35.7529 -18.0247 -34.6209 -17.6624 -33.4069 L 3.6712 -54.7927 C -0.305005 -52.2884 -7.75863 -52.5897 -12.6771 -64.548 Z M 40.5124 -57.891 L 38.8984 -54.9972 C 40.5079 -53.4679 41.9609 -51.8039 43.2382 -50.0555 C 48.795 -42.4493 51.6582 -32.9614 51.6582 -23.012 C 51.6582 -13.0627 48.7951 -3.57472 43.2382 4.03171 C 40.8969 7.23665 37.965 10.1579 34.6377 12.4838 C 38.2067 12.6972 41.657 12.8763 43.3392 12.9478 C 43.3645 11.8422 44.2327 10.9291 45.3359 10.9745 C 45.7791 10.9927 46.1878 11.1678 46.4312 11.3934 C 50.5954 8.84631 53.1029 5.00979 55.7782 1.304 L 53.2339 -0.639521 C 50.8288 2.69207 48.8003 5.67312 46.0041 7.77638 C 45.8258 7.75322 45.6508 7.72473 45.4626 7.71703 C 45.1271 7.70324 44.7991 7.72525 44.4651 7.74071 C 44.9074 7.14053 45.3487 6.56955 45.7719 5.99025 C 51.7751 -2.22708 54.8274 -12.4193 54.8274 -23.012 C 54.8274 -33.6048 51.7749 -43.7969 45.7719 -52.0141 C 44.2447 -54.1046 42.4824 -56.0884 40.5124 -57.891 Z M 50.3413 -55.1592 L 50.8137 -54.3768 L 82.3997 -54.3768 L 82.3997 -55.1592 Z M 51.9224 -52.5512 L 52.4364 -51.7688 L 82.3997 -51.7688 L 82.3997 -52.5512 Z M 53.507 -50.1388 L 54.3053 -48.9652 L 82.3997 -48.9652 L 82.3997 -50.1388 Z M 55.6403 -47.0744 L 56.7852 -45.5096 L 82.3997 -45.5096 L 82.3997 -47.0744 Z M 57.9132 -44.01 L 59.4364 -42.054 L 82.3997 -42.054 L 82.3997 -44.01 Z M 10.671 -35.2118 L -12.5424 -11.831 L -11.9028 -7.91238 L 10.2748 -30.25 Z M 76.0612 -17.9516 L 76.0612 3.912 L 78.5966 3.912 L 78.5966 -15.5996 Z M -10.1417 -5.216 L -11.3522 -3.97083 L -10.7916 0.652 L 10.9191 0.652 L 10.4249 -4.92438 L 10.1414 -5.216 L 7.60599 -2.608 L 5.07061 -5.216 L 2.53523 -2.608 L -0.00015 -5.216 L -2.53553 -2.608 L -5.07091 -5.216 L -7.60629 -2.608 Z M 55.9634 6.3896 L 55.7376 7.9544 L 79.0844 7.9544 L 80.8584 6.3896 Z M 55.4672 9.1932 L 55.0929 10.3668 L 76.2351 10.3668 L 77.6248 9.1932 Z M 54.7254 11.3448 L 54.3909 12.1272 L 73.9809 12.1272 L 74.9835 11.3448 Z M 82.3997 17.8009 C 71.8674 27.6814 58.8109 35.4594 44.9531 42.9783 L 47.3612 46.1015 C 60.0129 39.2289 72.1375 32.0309 82.3997 23.0189 Z"
       id="path1279"
       style="display:inline"
       inkscape:label="layer-10" />
    <path
       stroke="#4444ff"
       stroke-linecap="round"
       stroke-linejoin="round"
       stroke-width="0.77143"
       fill="none"
       d="m -16.395,-130.38 c 2.1132,6.906 8.35879,7.183 8.70194,12.983 0.34654,5.857 -7.51624,6.306 -7.83214,0.447 -0.2135,-3.96 4.2649,-4.161 4.4755,-0.255 0.1053,1.953 -2.6919,2.112 -2.7972,0.159 m -3.3673,-13.334 c -1.3393,7.147 -7.545,8.124 -7.2619,13.941 0.2852,5.86 8.148,5.412 7.8321,-0.447 -0.2135,-3.96 -4.6861,-3.651 -4.4755,0.255 0.1053,1.953 2.9025,1.794 2.7972,-0.159 m 41.4089,-13.59 c 0.8599,7.715 8.1661,9.114 7.5212,15.042 -0.6344,5.831 -9.4816,4.757 -8.8126,-1.071 0.4521,-3.938 5.4817,-3.273 5.0358,0.612 -0.223,1.943 -3.3704,1.56 -3.1474,-0.382 m -1.2698,-14.196 c -2.6101,7.211 -9.9779,6.847 -10.6902,12.743 -0.7034,5.823 8.1437,6.898 8.8126,1.071 0.4521,-3.939 -4.5898,-4.497 -5.0357,-0.612 -0.223,1.942 2.9243,2.325 3.1473,0.382 m 14.9674,6.905 c 0.1697,-0.166 0.3357,-0.337 0.4979,-0.516 1.9788,-2.175 3.1245,-5.091 3.4845,-8.509 3.7832,-0.703 6.6314,-1.711 8.887,-2.867 m -18.6923,11.061 c 4.0029,-1.547 6.3809,-5.002 6.1072,-11.572 11.6436,-1.413 13.5947,-5.067 18.1529,-8.119 m -88.9887,8.087 c 1.5888,1.206 3.2895,2.187 5.1857,2.68 0.4281,1.527 0.9033,3.318 1.9261,5.304 0.507,0.984 1.1863,1.951 2.0424,2.856 m 5.7024,-0.47 c -5.3348,-2.659 -5.1249,-7.072 -6.8164,-11.248 -3.4384,0.1 -7.3227,-3.206 -11.0521,-7.193 m 35.09008,17.764 c 1.60718,-2.032 2.82678,-4.531 3.45954,-7.449 1.373364,-0.589 2.58319,-1.428 3.56977,-2.42 0.87591,1.096 1.9898,2.066 3.29279,2.805 0.29605,2.745 1.12763,5.19 2.34255,7.281 m -5.72278,-17.976 c -1.02995,3.72 -2.725569,6.722 -6.86047,7.235 -0.42941,5.227 -2.57024,8.502 -5.72148,10.621 m 23.1749,0.387 c -2.2885,-2.388 -3.63955,-5.638 -3.52952,-10.227 -4.07674,-0.977 -5.43809,-4.179 -6.06441,-8.018 m 49.54143,0.09 c -12.1413,16.139 -14.8568,22.671 -17.53,30.5091 m -76.8418,-30.5491 c 7.6699,12.363 11.5239,19.938 14.6465,28.616 m -1.4543,-3.808 c 24.79679,-2.359 45.09,-1.26 65.0086,1.976 m -63.5739,1.818 c 23.68843,-2.169 43.1065,-1.129 62.2246,1.9243 M -31.011,-111.184 c 26.7568,-2.709 48.5642,-1.494 69.8777,2.085 M 29.0316,12.1436 c -6.2312,-21.47448 -3.4647,-45.7593 13.6132,-73.6743 7.3237,17.1372 24.2736,35.4645 39.7594,49.0485 M 57.9863,58.1399 C 48.781,48.7059 40.9639,38.6467 35.3606,27.835 M -82.4022,-42.5734 c 13.7077,-11.2536 30.1621,-18.9043 46.8125,-26.2978 m 50.0605,10.4671 C 4.65616,-16.3812 11.4718,23.7263 26.5379,57.0913 M -17.643,-33.3304 3.6912,-54.8185 m -8.31865,3.8161 -14.09325,14.1949 m 2.0997,7.0103 C -6.97414,-39.5134 2.67233,-49.23 12.3192,-58.9462 M -11.7065,-6.52 h 22.0214 m -22.8572,-5.311 23.2133,-23.3807 m 0.5761,-5.1428 -24.5053,24.682 m 1.3553,7.76007 L 10.2748,-30.25 m -0.1565,20.47 h -20.1669 m -23.5453,-54.768 c -1.2677,0 -2.4596,3.7233 0.6338,3.912 2.4052,0.1467 5.0708,-5.868 0,-5.868 -5.7046,0 -5.0873,9.6286 1.2511,9.6286 8.2301,0 17.1304,-1.1526 19.0319,-7.6726 6.97234,16.952 19.03917,10.4783 19.0154,5.868 -0.01865,-3.6159 -4.43692,-3.912 -5.07076,-1.956 -0.866303,2.6733 1.26769,3.912 3.16922,1.956 m -15.78896,54.70917 1.2105,-1.24517 2.53541,2.608 2.53538,-2.608 2.53538,2.608 2.53538,-2.608 2.53538,2.608 2.53538,-2.608 2.53538,2.608 2.53541,-2.608 0.2835,0.29162 M -7.67573,-38.8082 c 0.19612,0.1569 0.38145,0.3276 0.55466,0.5109 2.07422,2.1945 2.02623,5.7031 -0.10717,7.8368 -2.13341,2.1336 -5.54436,2.0842 -7.61856,-0.1103 -0.1643,-0.1738 -0.3174,-0.3586 -0.4582,-0.5531 M 7.71484,-54.3094 c 0.21872,0.1699 0.42451,0.3568 0.61559,0.559 0.99607,1.0538 1.54437,2.4715 1.52427,3.9412 -0.02009,1.4697 -0.60694,2.871 -1.63144,3.8956 -1.0245,1.0246 -2.40273,1.5886 -3.83149,1.5679 -1.42876,-0.0207 -2.79102,-0.6243 -3.787092,-1.6782 -0.182258,-0.1928 -0.350628,-0.399 -0.503777,-0.617 m -0.0812167,0.082 c 0.2073507,0.1635 0.4028647,0.3423 0.5849937,0.535 2.074222,2.1945 2.026232,5.7032 -0.107171,7.8368 -2.133407,2.1336 -5.544357,2.0843 -7.618577,-0.1102 -0.17332,-0.1834 -0.33408,-0.3789 -0.48115,-0.5851 m -7.76848,7.8255 c 0.1848,0.1501 0.3598,0.3125 0.5239,0.4861 2.025,2.1425 2.0341,5.5508 0.0206,7.7047 m -0.0025,0.0107 c 2.1491,-2.016 5.46578,-1.9134 7.49329,0.2317 0.15984,0.1691 0.30903,0.3485 0.44664,0.5372 m 0.06248,-0.0632 c -0.17934,-0.1467 -0.34939,-0.305 -0.50912,-0.474 -2.07422,-2.1946 -2.02624,-5.7032 0.10717,-7.8368 1.0245,-1.0246 2.40272,-1.5886 3.83148,-1.568 1.42877,0.0207 2.791024,0.6244 3.787099,1.6782 0.150815,0.1596 0.292149,0.3283 0.423235,0.5054 M 13.1424,-52.1584 c -1.7615,0.3243 -3.56454,-0.2723 -4.81197,-1.592 -0.19124,-0.2024 -0.36718,-0.4194 -0.52628,-0.6493 m 0.76136,16.7474 c -0.15748,-0.1327 -0.30753,-0.2744 -0.44942,-0.4246 -2.07422,-2.1945 -2.02624,-5.7031 0.10717,-7.8367 1.08231,-1.0825 2.55644,-1.6482 4.06354,-1.5595 M 0.869541,-29.9009 c -0.168361,-0.1398 -0.328385,-0.2898 -0.479202,-0.4494 -2.074219,-2.1945 -2.026239,-5.7032 0.107168,-7.8368 1.024503,-1.0246 2.402723,-1.5886 3.831483,-1.5679 1.42876,0.0206 2.79102,0.6243 3.7871,1.6781 0.14185,0.1501 0.27532,0.3084 0.39978,0.474 m -2.66723,-19.3886 3.18405,-3.207 m -34.16549,6.2855 c 2.1391,-0.2254 4.2502,-0.6075 6.2436,-1.2373 2.1054,-0.6652 4.1583,-1.7108 5.8388,-3.1933 2.4888,3.8857 5.45608,6.2678 8.43946,7.362 M 37.9215,-62.1673 c 6.1745,2.0716 12.1941,0.9352 17.8567,-7.5967 0.8456,4.3146 3.2987,7.6855 5.7046,11.084 2.5234,-3.8972 4.2248,-7.809 5.0708,-11.736 3.5671,7.1704 9.7076,9.2311 15.8418,11.304 m 0.0062,41.3197 C 68.2719,-30.5797 53.4822,-47.1429 46.7921,-61.9263 m -15.9682,25.0321 c 2.2085,3.9967 3.4036,8.871 3.4036,13.8823 v 0 c 0,8.0571 -3.0785,15.52743 -8.1162,19.69476 M 26.443,0.0553548 C 28.3891,-1.26483 30.1263,-2.98249 31.5837,-4.97736 c 3.4608,-4.73731 5.4961,-11.08434 5.4961,-18.03464 0,-6.6114 -1.8416,-12.6767 -5,-17.33 M 28.852,12.0506 C 33.6416,9.77072 37.6962,6.19112 40.7046,2.07315 45.8151,-4.92223 48.489,-13.705 48.489,-23.012 c 0,-9.3071 -2.674,-18.0897 -7.7844,-25.085 -1.0156,-1.3901 -2.1504,-2.7189 -3.3924,-3.957 m -2.751,64.54 c 3.4038,-2.3281 6.3357,-5.24935 8.677,-8.45429 5.5569,-7.60643 8.42,-17.09441 8.42,-27.04371 0,-9.9494 -2.8632,-19.4373 -8.42,-27.0435 -1.2773,-1.7484 -2.7303,-3.4124 -4.3398,-4.9417 M 44.4487,7.702 c 0.4587,-0.56134 0.9,-1.13245 1.3232,-1.71175 6.0032,-8.21733 9.0555,-18.40955 9.0555,-29.00225 0,-10.5928 -3.0525,-20.7849 -9.0555,-29.0021 -1.5272,-2.0905 -3.2894,-4.0742 -5.2594,-5.8768 m 24.5443,-20.6456 -1.5974,7.4153 c -0.4497,2.0871 -1.1844,4.1993 -2.2039,6.3386 -1.1082,-1.8337 -1.9833,-3.6505 -2.3705,-5.6258 l -1.4858,-7.58 -4.2383,6.3863 c -2.2854,3.4435 -4.4336,5.2928 -6.4324,6.2293 m 30.7191,0.9617 c -3.361,-1.5165 -6.1201,-3.5652 -8.0727,-7.49 l -3.3804,-6.7948 m -23.4621,17.3657 c 6.687,-5.1738 9.3414,-12.1534 12.3924,-18.9553 m 14.8131,-6.4514 c -0.4987,0.0041 -0.9895,0.1291 -1.4323,0.365 -4.5039,2.3164 -6.6063,2.3164 -11.1102,0 -1.0149,-0.5394 -2.2335,-0.4753 -3.1896,0.1679 -0.9561,0.6432 -1.5017,1.7658 -1.4282,2.9385 0.0735,1.1727 0.7549,2.2139 1.7834,2.7254 5.6377,2.8996 11.1414,2.8996 16.779,0 1.3359,-0.6628 2.0463,-2.1898 1.7101,-3.6756 -0.3362,-1.4859 -1.6291,-2.5333 -3.1122,-2.5212 z m 0.27,6.7237 c 3.2759,9.4851 7.1719,17.0619 12.3891,20.5735 m 0.0039,96.9453 C 74.3633,44.5436 65.1247,50.2164 55.2845,55.2927 M 82.4063,23.0161 C 72.143,32.0302 60.0149,39.2278 47.3612,46.1015 M 82.4041,17.8 C 71.8714,27.6816 58.8119,35.4587 44.953,42.9782 M 56.0347,3.912 h 26.365 M 64.6521,-9.21742 69.6755,-2.87593 64.652,2.29168 m 11.4093,-9.49224 -5.516,-6.96334 4.2883,-4.9408 m -5.4915,-5.4209 -4.69,5.4039 M 73.8334,3.912 76.0612,1.62032 M 60.849,-33.7344 V 3.912 m 3.803,-33.3811 V 3.912 m 7.4147,-25.7028 -6.519,7.511 9.2459,11.6718 -6.3385,6.52 m 7.6061,-21.8636 V 3.912 m 2.5354,-19.5116 V 3.912 M 60.7341,-40.424 H 82.3997 M 45.3359,10.9745 c -0.6033,-0.0248 -1.1821,0.2465 -1.5597,0.731 -0.3777,0.4845 -0.5092,1.1247 -0.3545,1.7249 1.2315,5.0672 1.2284,6.9786 0.0409,10.6432 -0.2288,0.6667 -0.09,1.4085 0.3631,1.9403 0.453,0.5317 1.1497,0.7706 1.8223,0.6248 0.6726,-0.1458 1.2164,-0.6535 1.4223,-1.3281 1.3478,-4.1594 1.3447,-7.464 0.0408,-12.8289 -0.1954,-0.8556 -0.9215,-1.4721 -1.7752,-1.5072 z m 1.4189,14.9517 9.0234,9.2818 c 0.4772,-2.7841 0.6131,-5.8593 -2.5354,-11.736 3.7277,-1.2935 6.7332,-3.4125 8.8739,-6.52 -2.1112,-0.8684 -5.0658,-1.7377 -8.8739,-2.608 2.8768,-4.82146 3.1824,-9.04203 2.5354,-13.04 -2.6753,3.70579 -5.1827,7.54222 -9.4214,10.0313 M 82.4911,4.9458 C 76.8436,9.94636 68.9691,17.2689 60.2202,19.2236 M 43.3215,12.985 c -3.5077,-0.1869 -14.8098,-0.9553 -18.0086,-0.9553 -6.9723,0 -10.0095,3.6183 -1.2269,3.6183 M 55.7782,1.304 53.2339,-0.639521 C 50.8288,2.69207 48.8003,5.67312 46.0041,7.77638 45.8258,7.75322 45.6508,7.72473 45.4626,7.71703 45.1271,7.70324 44.7992,7.72538 44.4651,7.74084 M 31.6921,22.82 c -5.0708,0 -7.6061,0.652 -10.1415,0.652 -3.8031,0 -5.0708,3.26 -1.2677,3.26 h 10.5037 m -0.3622,-7.824 c -0.6338,0 -7.6061,0.652 -10.1415,0.652 -2.5354,0 -5.7046,3.26 0,3.912 m 9.5077,-7.824 H 24.086 c -5.0708,0 -9.5077,3.26 -4.437,3.912 m 23.8398,5.5178 c -2.5028,0.8582 -9.5429,3.2721 -10.529,3.6102 -1.9015,0.652 -3.1692,1.304 -4.5593,2.1045 -3.3642,1.9373 -4.3145,-1.4525 -2.413,-2.7565 1.9015,-1.304 3.1692,-1.304 3.1692,-1.304 M 47.4599,14.0467 c 0.1055,-0.0473 0.2094,-0.1018 0.3111,-0.1634 1.5794,-0.9275 2.919,-2.011 4.1204,-3.1632 -0.304,0.6742 -0.6462,1.363 -1.0795,2.0892 l -2.0921,3.5065 3.9043,0.8924 c 1.5993,0.3655 3.0022,0.7295 4.2698,1.0883 -1.2972,0.9932 -2.8026,1.7846 -4.5627,2.3953 l -3.2334,1.1222 1.647,3.0741 c 0.4017,0.7497 0.732,1.4192 1.0211,2.0433 L 48.7718,23.8515 C 48.4484,23.5101 48.0642,23.2672 47.6543,23.123 m 9.4737,-114.0413 0.3805,4.6964 m 12.2143,-5.079 v 4.565 M 55.1444,-116.708 c 0,11.084 5.0951,28.036 -3.1693,28.036 -4.4369,0 -4.8594,-6.3714 -1.7027,-6.0821 2.3366,0.2141 2.2813,2.8202 1.0689,3.4741 3.2703,-2.7926 3.4892,-6.8324 0,-12.388 2.5344,-1.826 0.6338,-9.78 0.6338,-12.388 0,-5.868 7.6062,-4.629 7.6062,-1.304 0,3.26 -3.8031,3.26 -4.4369,0.652 z m 0.8753,24.9275 c 1.3419,1.1448 4.0364,3.1085 6.7308,3.1085 3.8031,0 9.5077,-3.26 9.5077,-6.52 0,-1.5326 -0.5604,-3.0653 -1.1543,-4.2591 m -15.458,-9.6169 c 0.4016,-0.27 1.0251,-0.468 2.0338,-0.468 3.1693,0 4.437,1.956 5.0708,1.956 2.3108,0 3.0363,3.188 -0.6338,3.26 -2.535,0.049 -3.8031,-2.608 -3.8031,-2.608 0.7804,1.846 2.1096,3.796 0.6338,5.216 4.466,0.887 5.7609,3.902 5.7046,7.824 m -5.1298,-15.364 c 0.0099,-0.506 0.0292,-1.035 0.0591,-1.588 m 3.6143,6.411 c -0.6985,4.9278 -2.8965,4.7247 -3.5167,-0.792 m -2.6028,-4.27 c 0.1648,-1.575 1.0041,-2.496 2.5052,-3.305 2.6761,-1.443 3.6653,2.789 3.7946,5.316 m -1.2569,-4.648 c 5.0137,-4.466 4.849,9.35 4.4346,10.416 -1.0333,2.6571 -3.3298,3.5817 -3.8006,-0.757 m 2.7896,-9.271 c 3.0314,-2.734 5.1184,2.221 4.5018,6.661 -0.792,5.703 -3.4664,8.0641 -3.8094,4.051 m 2.9402,-10.068 c 2.7746,-1.791 4.7037,2.876 4.0003,7.048 -0.9993,5.9278 -3.9654,6.3133 -3.5036,0.884 m 3.6134,-3.094 c 0.08,-0.012 0.1603,-0.018 0.2406,-0.018 1.4002,0 2.5353,1.751 2.5353,3.912 v 0 c 0,2.161 -1.1351,3.912 -2.5353,3.912 -0.7453,0 -1.4529,-0.506 -1.9346,-1.3835 m 10.1746,-2.5285 c 0,0.865 -0.3006,1.694 -0.8355,2.305 -0.5349,0.6115 -1.2604,0.955 -2.0168,0.955 -0.7565,0 -1.482,-0.3435 -2.0169,-0.955 -0.5349,-0.611 -0.8355,-1.44 -0.8355,-2.305 0,-0.865 0.3006,-1.694 0.8355,-2.305 0.5349,-0.612 1.2604,-0.955 2.0169,-0.955 0.7564,0 1.4819,0.343 2.0168,0.955 0.5349,0.611 0.8355,1.44 0.8355,2.305 z m -43.3224,-5.868 h 14.1987 m -19.1736,11.084 h 20.3811 m 9.5346,-2.608 c 1.8279,1.0251 3.354,2.3175 3.8031,4.564 M 33.945,-18.9159 c -0.0778,0.0053 -0.1558,0.0079 -0.2337,0.0079 -0.9775,0 -1.9149,-0.4122 -2.6061,-1.1458 -0.6911,-0.7336 -1.0794,-1.7287 -1.0794,-2.7662 0,-1.0375 0.3883,-2.0326 1.0794,-2.7662 0.6912,-0.7336 1.6286,-1.1458 2.6061,-1.1458 0.0956,0 0.1912,0.004 0.2866,0.0119 m -0.0354,-0.2397 c -0.2753,0.0684 -0.5572,0.1029 -0.84,0.1029 -0.9775,0 -1.9149,-0.4121 -2.606,-1.1458 -0.6912,-0.7336 -1.0795,-1.7286 -1.0795,-2.7662 0,-1.6897 1.0221,-3.1884 2.5343,-3.7162 m -0.1966,23.3883 c -1.4869,-0.5439 -2.4849,-2.0293 -2.4849,-3.6986 0,-2.1606 1.6501,-3.912 3.6855,-3.912 0.3149,0 0.6285,0.0428 0.9332,0.1274 m -6.3641,13.90991 c -0.8956,-0.74129 -1.4192,-1.87945 -1.4192,-3.08494 0,-1.03752 0.3883,-2.03256 1.0795,-2.76617 0.6911,-0.7337 1.6285,-1.1458 2.606,-1.1458 0.6906,0 1.3674,0.206 1.953,0.5944 m -5.5704,7.34821 c 0.061,0.06054 0.1236,0.11972 0.1877,0.17746 m 1.9783,-24.86447 c 0.3353,0.7413 0.8231,1.396 1.4214,1.916 -0.8334,0.985 -1.3395,2.2776 -1.3395,3.6754 0,1.3849 0.4971,2.6661 1.3167,3.6476 -1.2494,1.0219 -2.0526,2.6158 -2.0526,4.3768 0,0.6363 0.1046,1.2559 0.2991,1.8368 -0.7426,0.288 -1.4065,0.7476 -1.9495,1.3305 m 5.2312,-24.3352 c -0.3287,0.1283 -0.6395,0.2888 -0.9298,0.477 M 10.7752,-67.156 c 0,-4.564 -4.4369,-4.564 -4.4369,0.652 0,5.216 6.9723,2.608 6.9723,-1.956 0,-6.52 -9.50768,-5.216 -9.50768,1.304 0,8.3638 14.46498,10.174 22.70498,9.522 8.1941,-0.6484 16.4217,-6.3231 16.4893,-14.7765 C 43.0918,-84.2258 34.725,-89.073 32.7218,-100.135 M 7.25952,-61.2653 c 6.17168,0.203 8.58648,-2.6307 8.64788,-8.6828 0.0986,-9.7243 -8.30141,-10.8999 -7.60067,-32.6229 m 0.72215,42.3764 0.01207,3e-4 m 27.51075,-0.9283 c 2.8302,-2.7108 4.4965,-7.2455 4.5289,-11.2879 0.0953,-11.9082 -8.2498,-16.7382 -10.141,-27.9865 m 4.3645,40.0396 c 2.5765,-2.9376 3.8286,-8.158 3.8598,-12.0531 0.0961,-12.001 -8.2234,-16.8131 -10.0029,-28.2505 m 3.7406,41.4741 c 2.9137,-2.8713 4.3125,-9.084 4.3456,-13.2236 0.0968,-12.0882 -8.1856,-16.8826 -9.8591,-28.5015 m 3.5373,42.4444 c 2.963,-2.8989 4.3718,-9.7682 4.4052,-13.9429 0.0973,-12.1617 -8.1256,-16.9407 -9.707,-28.7135 m 3.6041,43.0897 c 2.8218,-3.091 4.1536,-10.2985 4.1862,-14.3762 0.0979,-12.2313 -8.0569,-16.9952 -9.5512,-28.9165 m 3.1059,43.6544 c 3.066,-2.8515 4.4947,-10.4916 4.5287,-14.7379 0.0984,-12.2985 -7.982,-17.0473 -9.3927,-29.1135 m 2.8019,43.995 c 3.1761,-2.7299 4.6395,-10.5618 4.6741,-14.8815 0.099,-12.3628 -7.9002,-17.0967 -9.2313,-29.3035 m 2.6282,44.2084 c 3.1947,-2.7082 4.6518,-10.5728 4.6864,-14.9049 0.0994,-12.4118 -7.7959,-17.1341 -9.0638,-29.4495 m 2.5323,44.3059 c 3.1548,-2.7525 4.5804,-10.5499 4.6149,-14.8564 0.0997,-12.4608 -7.6893,-17.1713 -8.8953,-29.5955 m 2.5069,44.3365 c 3.0643,-2.8491 4.4377,-10.4932 4.4717,-14.741 0.1002,-12.5099 -7.5802,-17.2083 -8.7258,-29.7425 m 2.5465,44.2959 C 20.595,-60.8414 22.2486,-68.2669 21.914,-72.4105 20.9167,-84.76 13.9444,-88.02 13.3585,-102.3 m 1.6746,44.0142 c 3.4704,-2.7391 5.3839,-9.4048 4.9642,-14.1247 -0.9821,-11.0455 -7.9544,-11.6975 -8.3799,-29.9855 m 0.7018,43.4498 c 4.3478,-2.0178 6.1442,-8.1286 5.9696,-11.9655 C 17.7475,-82.804 10.1414,-81.5 9.87697,-102.488 m 3.28573,35.1664 c 0.3841,-2.4033 0.5965,-2.79 0.5039,-4.2521 -0.5539,-8.7501 -8.40616,-5.695 -7.27007,-31.0983 M 4.43676,-58.68 c -3.16922,4.564 -9.55819,1.0964 -12.6769,-5.868 m 9.55146,6.0586 c -2.78446,-1.0203 -5.51626,-3.3613 -7.01608,-6.7106 m 14.73364,5.0054 c -0.69187,0.9963 -1.6352,1.651 -2.71969,1.9933 m -4.80833,-2.8483 c -2.107181,-0.8818 -4.06424,-2.6857 -5.30408,-5.4544 m 10.96624,5.2096 c -3.31597,0.108 -7.0952167,-2.1155 -9.06471,-6.5136 m 6.51762,3.8229 C 2.79277,-64.9093 1.12398,-66.6017 -1.5e-4,-69.112 m 3.83507,1.6049 c -0.89621,-0.821 -1.67178,-1.8738 -2.25514,-3.1766 m 2.96732,0.6848 c -0.51942,-0.7035 -0.9848,-1.495 -1.37803,-2.3731 m 3.29258,0.4347 C 5.93698,-72.6452 5.46712,-73.4425 5.07061,-74.328 m 3.76144,1.632 c -0.71542,-0.8166 -1.34864,-1.7943 -1.85991,-2.936 m -40.56604,14.996 c 6.1707,1.0379 8.1589,-3.7862 8.1401,-9.1679 -0.0193,-5.5078 -3.0694,-11.0441 -1.8017,-16.2601 m -5.3497,29.0681 c 6.1708,1.0378 8.7834,-7.2122 8.7646,-12.5938 -0.0193,-5.5078 -3.4149,-8.6503 -3.4149,-16.4743 m 0.5893,29.0039 c 2.9176,-2.0249 4.348,-6.7767 4.5699,-10.5997 m -1.8123,10.3059 c 2.2849,-2.3036 3.4289,-6.417 3.6254,-9.8021 m -0.7235,9.2338 c 1.6231,-2.3677 2.4597,-5.7327 2.625,-8.5818 m 0.1942,7.6282 c 1.0265,-2.1495 1.5767,-4.724 1.7074,-6.9762 m 1.0696,5.3463 c 0.4734,-1.561 0.7451,-3.1987 0.8319,-4.6943 m -12.6769,-20.864 c 0,0 0.7584,10.4345 0.6339,13.692 -0.1967,5.1415 -9.5077,10.1254 -9.5077,0 0,-6.52 7.6061,-5.868 7.6061,-0.652 0,5.216 -5.7046,3.912 -5.7046,0.652 0,-3.26 4.4369,-2.608 4.4369,0 m 1.2093,-12.6234 c -0.2408,2.3314 -1.1314,3.527 -0.9491,5.2469 0.1061,1.0004 1.0075,3.4645 1.0075,6.7245 m 2.863,-29.015 c -0.5377,1.754 -1.5953,5.3883 -1.5953,6.847 0,1.956 0.6339,3.26 0.6339,6.52 0,5.216 -8.8739,7.172 -8.8739,0 0,-5.868 7.6062,-7.172 7.6062,-1.956 0,5.216 -5.0708,3.912 -5.0708,1.304 0,-2.608 3.1692,-2.608 3.1692,-0.652 m 2.7686,-11.838 c -0.724,1.426 -1.5623,3.3983 -1.5623,4.8801 0,2.6883 0.6953,6.3059 0.6953,6.3059 m 0.6859,-5.2695 c 0,0 1.8494,-2.5545 4.3848,-2.5545 2.5354,0 3.8031,1.304 5.0708,1.304 0.6338,0 1.9015,-1.304 1.9015,-1.304 v 1.304 c -0.6338,0 -1.2442,0.6375 -1.9015,0.652 -0.6339,0 -3.8031,-1.956 -4.4369,-1.956 m 24.71993,1.956 c 0,0 -4.43692,-2.608 -5.70461,-2.608 -1.90153,0 -4.43691,1.304 -5.7046,1.304 -1.26772,0 -3.16922,-0.652 -3.16922,-0.652 v 0.652 c 1.0708,0 2.55816,0.6551 3.16922,0.652 0.6282,-0.0032 3.80307,-1.956 5.7046,-1.956 m -12.67692,1.956 c 0,0 1.2677,3.26 1.2677,3.912 0,0.652 -2.5354,6.52 -2.5354,7.824 0,1.304 -1.2677,4.564 -1.2677,5.216 0,0.652 1.9016,1.956 2.5354,1.956 0.6339,0 2.5354,-1.304 3.8031,-1.956 0.5669,-0.2916 1.2677,1.304 -3.8031,1.956 m 5.0708,-4.564 c 3.16921,0 3.66265,3.1922 1.42379,4.0287 -0.85119,0.318 -2.11999,-0.2043 -2.29869,-1.1881 m -6.7313,4.9834 -1.2676,2.608 1.2676,-1.304 z m 12.67694,0 0.63385,2.608 -1.26769,-1.956 z m -13.31074,1.956 0.5597,-0.7295 c 0.1239,-0.1615 1.9757,-0.5745 3.2434,-1.8785 0,0 0,1.304 1.684,1.304 1.2677,0 2.119,-1.304 2.119,-1.304 0,0 1.2677,1.304 2.53542,1.304 l 3.16922,0.652 -0.63384,-0.652 c -3.59603,0.8753 -11.4092,-0.3482 -12.6769,1.304 z m 3.8031,1.304 c 2.1439,2.2462 3.803,1.956 5.70457,0 M -26.6216,-91.932 c 2.5353,0 3.8468,-2.1175 5.1134,-2.0631 2.4927,0.1071 3.1265,2.0631 4.3942,2.0631 -0.6338,0 -1.9015,1.956 -5.0707,1.956 -1.9016,0 -1.9016,-1.956 -4.4369,-1.956 z m 25.987605,0 c -2.535385,0 -3.846845,-2.1175 -5.113435,-2.0631 -2.49271,0.1071 -3.12655,2.0631 -4.39427,2.0631 0.63387,0 1.90156,1.956 5.07079,1.956 1.90153,0 1.90153,-1.956 4.436915,-1.956 z"
       id="path1275"
       style="display:inline"
       inkscape:label="layer-16"
       sodipodi:nodetypes="csssccsssccccscccccccccccccccccccccccccccccccccccccccccccccccccccccccccccccccccccssscsscccccccccccccccscccsssscccsscccccsccsscsccccccccccscsccccsccccccccccsscccsccssccccsscccssccccsccccscccsccssccssccccccccccccccccccccccccccccccccccscccssccsccccccccccscccccccssccsccsccssscccccccccccccccccccscccssccssccsscccccccccccccccscccccsssscscscscscscccccccscscsccscsccssccscscccccscscccccsssscccccccccccscccccsccccccccsccccccccccccccccccccccccccccccccccccccccccccccccccccccccccccssscccccsssssccsccsscccccssccsccsssscccsccccccccccccsccccccccccsccccsc" />
    <path
       id="path826"
       d="m 36.6662,2.22433 c 0.7283,0.61105 0.8455,1.9503 0.2344,2.67852 -0.6112,0.72821 -1.9506,0.84538 -3.0431,-0.07118 -1.8209,-1.52761 -2.2896,-6.88465 -3.018,-7.49569 0.7284,0.61104 6.0863,0.14236 7.9071,1.669974 1.0925,0.916566 1.2097,2.255826 0.5985,2.984036 -0.6111,0.72822 -1.9506,0.84539 -2.6789,0.23434 z m 7.2141,-12.85453 c 0.8934,0.3251 1.4616,1.54354 1.1365,2.43682 -0.3252,0.89329 -1.5438,1.46145 -2.884,0.97375 -2.2336,-0.81282 -4.5065,-5.68647 -5.4,-6.01157 0.8935,0.3251 5.7679,-1.9475 8.0015,-1.1347 1.3401,0.4877 1.9084,1.7061 1.5832,2.5994 -0.3252,0.8933 -1.5438,1.4614 -2.4372,1.1363 z m -2.3652,-29.6549 c 0.8234,-0.4753 2.1221,-0.1274 2.5975,0.6959 0.4754,0.8232 0.1274,2.1218 -1.1077,2.8348 -2.0584,1.1882 -7.2535,-0.2036 -8.0769,0.2717 0.8234,-0.4753 2.2154,-5.6695 4.2739,-6.8578 1.235,-0.713 2.5338,-0.365 3.0092,0.4583 0.4754,0.8232 0.1274,2.1218 -0.696,2.5971 z m 4.1743,14.0869 c 0.9472,-0.0828 1.9772,0.7813 2.0601,1.7283 0.0828,0.947 -0.7814,1.9769 -2.2022,2.1012 -2.3679,0.2071 -6.4879,-3.2495 -7.4351,-3.1666 0.9472,-0.0829 4.4043,-4.2023 6.7722,-4.4094 1.4207,-0.1243 2.4508,0.7399 2.5336,1.6868 0.0829,0.947 -0.7814,1.9769 -1.7286,2.0597 z"
       style="display:inline"
       inkscape:label="layer-13" />
    <path
       stroke="#4444ff"
       stroke-linecap="round"
       stroke-linejoin="round"
       stroke-width="0.385715"
       fill="none"
       d="m 19.2398,19.6972 c 0.6259,1.488 0.4285,2.3822 0.1041,3.5908 m 0.47,0.4907 c 0.6259,1.488 0.5066,1.7131 0.1821,2.9217 M 19.8659,16.3391 c 0.6259,1.4879 0.4806,1.8736 0.1561,3.0823 M 37.5552,-106.276 h 14.9877 m -15.9571,2.391 h 14.9798 m -15.8689,2.39 h 16.8546 m -19.5915,2.391 H 53.482 m 9.2685,-3.26 c 1.2721,-0.219 2.5397,0.003 3.8031,0.652 m -6.6548,-1.874 c 1.2721,-0.219 1.8632,-0.211 3.1266,0.438 m 3.6542,1.508 c 1.2721,-0.219 1.2908,-0.13 2.5541,0.518 m 0.5151,-0.028 c 1.2721,-0.219 1.2178,-0.319 2.4811,0.329 m -10.7471,-7.411 c -0.6338,1.304 2.6942,2.1 3.1638,1.994 m 3.1747,-0.69 c 0.3847,-0.311 0.8137,-0.259 1.2677,0 m 1.9067,0.562 c 0.3847,-0.311 0.8137,-0.258 1.2677,0 m -7.9808,-1.499 c 0.3847,-0.311 0.8137,-0.258 1.2676,0 M 24.086,16.952 c 0.293,0.5638 0.1877,0.9521 0,1.304 m -0.1301,2.2825 c 0.293,0.5639 0.1877,0.9521 0,1.304 m 0.5204,2.684 c 0.293,0.5639 0.1877,0.9521 0,1.304 M -25.9878,-91.932 c 1.2677,0 1.9016,3.1511 4.4796,3.2065 2.4927,0.0535 5.0281,-3.2065 5.6619,-3.2065 m 15.315883,0.0529 c -1.267693,0 -1.901573,3.1511 -4.479593,3.2064 -2.4927,0.0536 -5.02809,-3.2064 -5.66189,-3.2064 m -15.9497,-0.0529 c 1.9015,0 2.9729,-3.6533 5.0707,-3.912 1.5977,-0.197 4.4369,1.956 4.4369,1.956 m 16.480005,0 c 0,0 -3.689595,-2.1403 -5.287235,-1.9433 -2.09779,0.2587 -3.16922,3.912 -5.07077,3.912 0.8503,-0.0127 1.48417,3.2473 1.48417,3.2473 M -26.6216,-91.28 c 0.3322,2.4774 3.0658,4.3143 3.1692,3.912 m 5.0707,9.128 c -1.9015,1.956 -2.7589,3.3561 -3.803,5.216 m 15.21225,-6.52 c 0.63385,2.608 4.21321,5.6843 4.43692,5.216 m -12.04307,7.824 c 0.6339,-2.608 3.1692,-1.956 4.4369,-0.652 m -9.6354,-26.3754 c 0.0844,0.302 0.1278,0.6233 0.1278,0.9474 v 0 c 0,1.1622 -0.5517,2.1842 -1.3528,2.506 m -0.7869,0.0749 c -0.9197,-0.1861 -1.602,-1.2853 -1.602,-2.5809 0,-0.1872 0.0144,-0.3738 0.0431,-0.5567 m 2.3458,3.0627 c -0.1684,0.0677 -0.3428,0.102 -0.5181,0.102 -0.0899,0 -0.1798,-0.009 -0.2688,-0.0271 m 17.58194,-3.3305 c 0.07779,0.2912 0.11762,0.5995 0.11762,0.9102 v 0 c 0,1.076 -0.47407,2.0416 -1.19362,2.4311 m -1.71526,-0.2614 c -0.52029,-0.4837 -0.83278,-1.2979 -0.83278,-2.1697 0,-0.3394 0.04752,-0.6755 0.1399,-0.9896 m 2.40814,3.4207 c -0.21593,0.1169 -0.44556,0.1769 -0.67721,0.1769 -0.36947,0 -0.73067,-0.1525 -1.03805,-0.4383 m 23.47812,32.8777 -2.656,1.8915 m 2.656,0.0645 -3.1343,2.2321 m 3.1343,-0.2761 -3.5846,2.5528 m 3.3137,-0.4039 -3.7129,2.6441 m 3.2865,-0.3844 -3.6705,2.6139 m 3.2812,-0.3807 -3.6125,2.5726 m 3.2624,-0.3672 -3.5762,2.5467 m 3.2448,-0.3548 -3.5206,2.5072 m 3.2412,-0.3521 -3.4899,2.4852 m 3.2224,-0.3388 -3.4455,2.4537 m 3.2227,-0.339 -3.4112,2.4292 m 3.2067,-0.3276 -3.379,2.4063 m 3.2063,-0.3273 -3.3385,2.3775 m 3.1929,-0.3178 -3.317,2.3621 m 3.1928,-0.3177 -3.2724,2.3304 m 3.1816,-0.3097 -3.25651,2.3191 m 3.13911,1.6765 -3.19925,2.2783 m 3.23895,-4.2625 -3.21218,2.2874 m 3.13928,1.6764 -3.15656,2.2479 m 3.16496,-0.2978 -3.14695,2.241 m 3.15965,-0.2941 -3.10905,2.2141 m 3.15975,-0.2942 -3.0989,2.2068 m 3.1559,-0.2914 -3.0658,2.18325 m 3.1562,-0.29155 -3.0549,2.17545 m 3.1539,-0.29002 -3.0254,2.15453 m 3.1539,-0.29002 -3.0145,2.14674 m 3.1532,-0.2895 -2.9878,2.12767 m 3.1531,-0.28942 -2.9772,2.120155 M 13.9808,-0.828383 11.0282,1.27432 M 14.1821,0.984298 11.2387,3.0804 M 14.3948,2.78881 11.4742,4.86867 M 14.6303,4.57708 11.718,6.65107 m 3.1593,-0.29389 -2.8904,2.05839 m 3.1596,-0.29408 -2.8843,2.05401 m 10.7894,-13.57529 3.7116,5.12694 m -3.8868,-8.70223 3.4585,4.77726 m -3.4719,-8.12918 3.2208,4.449 m -3.1124,-7.6325 3.0287,4.18355 M 23.2,-16.5281 l 2.8804,3.9786 m -2.5629,-6.8734 2.7459,3.7928 m -2.3484,-6.5771 2.652,3.6632 m -2.1828,-6.3484 2.5699,3.5497 m -2.0356,-6.1451 2.4979,3.4503 m -1.9053,-5.965 2.4352,3.3637 m -1.789,-5.8046 2.3805,3.2882 m -1.6862,-5.6624 2.3328,3.2223 m -1.5942,-5.5354 2.2912,3.1648 m -1.5123,-5.4223 2.2552,3.115 m -1.4395,-5.3217 2.224,3.0721 m -1.3746,-5.2321 2.1974,3.0352 m -1.3169,-5.1524 2.1884,3.023 m -1.2796,-5.1009 2.1656,2.9913 m -1.2282,-5.0298 2.143,2.96 m -1.1738,-4.9547 2.1301,2.9424 m -1.1388,-4.9064 2.0951,2.894 m -1.0828,-4.8291 2.0974,2.8971 m -1.0633,-4.802 2.0835,2.878 m -1.0095,-4.7279 2.0446,2.8242 M 24.7365,13.0175 c 0.293,0.5639 0.1877,0.9521 0,1.304 m -4.0546,-1.7338 c 0.6259,1.4879 0.4025,1.7665 0.0781,2.9752 M 23.4521,0.652 27.1638,5.12694 M 24.086,4.564 l 4.18,4.84965 m -3.5982,-0.56293 3.0441,3.12968 m 1.7217,18.0116 c -0.9107,-0.9785 -4.08,0.652 -4.08,0.652 M 12.7357,12.91 16.694,16.6909 m -3.351,-0.5928 4.0593,3.8773 m -3.3791,-0.6196 4.1729,3.9859 m -3.4137,-0.6527 4.2999,4.1071 m -3.4547,-0.6919 4.4418,4.2427 m -3.5031,-0.738 4.6007,4.3945 m -3.5602,-0.7926 4.7788,4.5645 m -3.6264,-0.8558 4.9787,4.7555 m -3.7041,-0.9301 5.2458,5.0107 m -3.8147,-1.0357 5.4568,5.2121 m -3.8445,-1.0641 4.8118,4.5961 m -3.0394,-0.2952 3.0394,2.9032 m 29.5807,1.5235 -0.6653,1.1173 m -0.6071,-2.4581 -1.7075,2.8675 m 0.435,-4.2082 -1.7073,2.8674 m 0.4566,-4.2446 -1.7209,2.8902 m 0.4777,-4.2798 -1.721,2.8902 m 0.482,-4.2871 -1.7255,2.8979 m 0.5142,-4.3412 -1.7377,2.9182 m 0.5264,-4.3616 -1.7378,2.9185 m 0.5469,-4.3961 -1.7581,2.9526 m 0.582,-4.455 -1.7582,2.9526 m 0.5854,-4.4606 -1.7615,2.9581 m 0.6244,-4.5261 -1.783,2.9944 m 0.6458,-4.5622 -1.7829,2.9942 m 0.6737,-4.6091 -1.8107,3.041 m 0.7168,-4.6814 -1.813,3.0447 m 0.4711,-5.138 -1.8384,3.0873 m 0.7922,-4.808 -1.8496,3.1062 m 0.8162,-4.8483 -1.862,3.127 m 0.8694,-4.9376 -1.894,3.1808 m 0.8521,-4.9086 -1.4498,2.4347"
       id="path1263"
       style="display:inline"
       inkscape:label="layer-17" />
    <path
       d="m -61.84,-118.24 c 0,-4.64 4.64,-9.28 9.28,-9.28 4.64,0 9.28,4.64 9.28,11.6 0,11.6 -18.56,30.16 -18.56,34.8 0,-4.64 -18.56,-23.2 -18.56,-34.8 0,-6.96 4.64,-11.6 9.28,-11.6 4.64,0 9.28,4.64 9.28,9.28 z"
       fill="#ff0000"
       id="path1259"
       style="display:none" />
  </g>
</svg>
