<?xml version="1.0" encoding="UTF-8" standalone="no"?>
<svg
   class="card"
   face="KH"
   height="3.5in"
   preserveAspectRatio="none"
   viewBox="-120 -168 240 336"
   width="2.5in"
   version="1.1"
   id="svg79"
   sodipodi:docname="k-heart.svg"
   inkscape:version="1.2.2 (732a01da63, 2022-12-09)"
   xmlns:inkscape="http://www.inkscape.org/namespaces/inkscape"
   xmlns:sodipodi="http://sodipodi.sourceforge.net/DTD/sodipodi-0.dtd"
   xmlns="http://www.w3.org/2000/svg"
   xmlns:svg="http://www.w3.org/2000/svg">
  <sodipodi:namedview
     id="namedview81"
     pagecolor="#505050"
     bordercolor="#eeeeee"
     borderopacity="1"
     inkscape:showpageshadow="0"
     inkscape:pageopacity="0"
     inkscape:pagecheckerboard="0"
     inkscape:deskcolor="#505050"
     inkscape:document-units="in"
     showgrid="false"
     inkscape:zoom="3.0565476"
     inkscape:cx="120.23369"
     inkscape:cy="168.9815"
     inkscape:window-width="1278"
     inkscape:window-height="1368"
     inkscape:window-x="0"
     inkscape:window-y="0"
     inkscape:window-maximized="0"
     inkscape:current-layer="layer1" />
  <defs
     id="defs35" />
  <g
     inkscape:groupmode="layer"
     id="layer1"
     inkscape:label="Layer 1">
    <path
       d="M 1,0 0,1 -1,0 0,-1"
       id="path1736"
       fill="#ff0000"
       inkscape:label="layer-0"
       style="display:inline;stroke-width:0.264583" />
    <path
       fill="#ffcc44"
       d="M -41.7891 -130.4 C -34.1024 -118.013 -30.2287 -110.412 -27.1109 -101.73 C -3.43224 -103.906 15.9857 -102.866 35.099 -99.8013 C 37.7729 -107.644 40.4976 -114.19 52.7011 -130.4 Z M 55.7782 -120.155 C 53.8767 -120.147 51.9751 -118.99 51.9751 -116.056 C 51.9751 -113.448 53.8757 -105.494 51.3413 -103.668 C 54.6442 -98.4091 54.6224 -94.5092 51.837 -91.7389 C 52.5071 -92.7228 52.227 -94.5751 50.2724 -94.7542 C 47.1157 -95.0435 47.5382 -88.672 51.9751 -88.672 C 60.2395 -88.672 55.1444 -105.624 55.1444 -116.708 C 55.7782 -114.1 59.5813 -114.1 59.5813 -117.36 C 59.5813 -119.022 57.6797 -120.163 55.7782 -120.155 Z M 73.5259 -106.276 C 73.4456 -106.276 73.3654 -106.27 73.2855 -106.258 C 73.3197 -104.103 72.7807 -101.961 71.5914 -99.8355 C 72.0731 -98.958 72.7806 -98.452 73.5259 -98.452 C 74.9261 -98.452 76.0612 -100.203 76.0612 -102.364 C 76.0612 -104.525 74.9261 -106.276 73.5259 -106.276 Z M 76.0612 -102.364 C 76.0612 -101.499 76.3618 -100.67 76.8967 -100.059 C 77.4316 -99.4475 78.1571 -99.104 78.9136 -99.104 C 79.67 -99.104 80.3955 -99.4475 80.9304 -100.059 C 81.4653 -100.67 81.7659 -101.499 81.7659 -102.364 C 81.7659 -103.229 81.4653 -104.058 80.9304 -104.669 C 80.3955 -105.281 79.67 -105.624 78.9136 -105.624 C 78.1571 -105.624 77.4316 -105.281 76.8967 -104.669 C 76.3618 -104.058 76.0612 -103.229 76.0612 -102.364 Z M 69.7379 -86.7369 C 69.2392 -86.7328 68.7484 -86.6078 68.3056 -86.3719 C 63.8017 -84.0555 61.6993 -84.0555 57.1954 -86.3719 C 56.1805 -86.9113 54.9619 -86.8472 54.0058 -86.204 C 53.0497 -85.5608 52.5041 -84.4382 52.5776 -83.2655 C 52.6511 -82.0928 53.3325 -81.0516 54.361 -80.5401 C 57.9573 -78.6904 61.4992 -78.0227 65.0561 -78.5329 L 63.4594 -71.1212 C 63.0097 -69.0341 62.275 -66.9219 61.2555 -64.7826 C 60.1473 -66.6163 59.2722 -68.4331 58.885 -70.4084 L 57.3992 -77.9884 L 53.1609 -71.6021 C 50.8755 -68.1586 48.7274 -66.3094 46.7286 -65.3729 C 46.3219 -64.6406 44.2798 -62.5055 43.0679 -61.571 L 42.6447 -61.5307 C 42.6732 -61.464 42.7034 -61.3972 42.7321 -61.3305 C 42.7057 -61.3133 42.6763 -61.292 42.6514 -61.2768 C 42.6862 -61.276 42.7209 -61.2765 42.7557 -61.276 C 50.137 -44.2136 66.9917 -26.0033 82.3997 -12.4868 L 82.3997 -17.796 C 68.277 -30.5773 53.4962 -47.1277 46.8019 -61.9054 C 49.8698 -62.9537 52.8711 -65.3838 55.7782 -69.764 C 56.6238 -65.4494 59.0769 -62.0785 61.4828 -58.68 C 64.0062 -62.5772 65.7076 -66.489 66.5536 -70.416 C 70.1216 -63.2438 76.264 -61.1836 82.3997 -59.1102 L 82.3997 -59.4797 C 80.4325 -60.7979 78.7066 -62.3644 77.4475 -64.411 C 74.0865 -65.9275 71.3275 -67.9763 69.3749 -71.9011 L 65.9952 -78.6944 C 67.7028 -79.0386 69.4151 -79.6529 71.14 -80.5401 C 72.4759 -81.2029 73.1863 -82.7299 72.8501 -84.2157 C 72.5139 -85.7016 71.221 -86.749 69.7379 -86.7369 Z M 9.01654 -60.2007 L 5.8748 -57.0304 C 5.43875 -56.2017 4.63215 -55.3687 3.64 -54.7736 L -17.6505 -33.3674 C -16.6129 -29.9276 -15.6665 -26.4271 -14.8185 -22.8707 C -12.8129 -25.0305 -12.8247 -28.4314 -14.8467 -30.5707 C -15.0108 -30.7443 -15.186 -30.9069 -15.338 -31.0905 C -15.1643 -30.9295 -15.0111 -30.7445 -14.8467 -30.5707 C -12.7725 -28.3761 -9.36162 -28.327 -7.22821 -30.4606 C -5.0948 -32.5943 -5.04678 -36.1028 -7.121 -38.2974 C -7.29421 -38.4806 -7.47961 -38.6512 -7.63897 -38.8452 C -7.45515 -38.6761 -7.29432 -38.4807 -7.121 -38.2974 C -5.04678 -36.1028 -1.63589 -36.0534 0.497517 -38.1871 C 2.63092 -40.3207 2.67894 -43.8293 0.604726 -46.0238 C 0.422597 -46.2165 0.227005 -46.3954 0.060263 -46.5999 C 0.254019 -46.4229 0.422469 -46.2166 0.604726 -46.0238 C 2.67894 -43.8293 6.08984 -43.7799 8.22325 -45.9135 C 10.3567 -48.0472 10.4047 -51.556 8.33045 -53.7505 C 8.13938 -53.9527 7.93356 -54.1395 7.7595 -54.3546 C 7.96326 -54.1699 8.13921 -53.9529 8.33045 -53.7505 C 9.57759 -52.4311 11.3801 -51.8344 13.1459 -52.2125 C 13.5504 -54.2701 13.9931 -56.332 14.478 -58.3983 C 12.5042 -58.816 10.6197 -59.4084 9.01654 -60.2007 Z M 8.22325 -45.9135 C 6.08984 -43.7799 6.04182 -40.2713 8.11604 -38.0768 C 8.25793 -37.9267 8.408 -37.7849 8.54066 -37.6275 C 8.39139 -37.7684 8.25789 -37.9267 8.11604 -38.0768 C 6.04182 -40.2713 2.63092 -40.3207 0.497517 -38.1871 C -1.63589 -36.0534 -1.68391 -32.5449 0.390309 -30.3503 C 0.541126 -30.1908 0.7013 -30.0406 0.841675 -29.8728 C 0.682609 -30.0219 0.541123 -30.1908 0.390309 -30.3503 C -1.68391 -32.5449 -5.0948 -32.5943 -7.22821 -30.4606 C -9.36162 -28.327 -9.40964 -24.8181 -7.33542 -22.6236 C -7.17569 -22.4546 -7.00566 -22.2964 -6.85756 -22.1181 C -7.02641 -22.2752 -7.17558 -22.4545 -7.33542 -22.6236 C -9.36005 -24.7657 -12.6699 -24.8707 -14.818 -22.8689 C -13.9566 -19.2563 -13.1967 -15.5861 -12.5468 -11.8631 L 10.6725 -35.2375 C 11.0606 -39.3004 11.5961 -43.3833 12.2848 -47.4844 C 10.7795 -47.5617 9.3055 -46.9959 8.22325 -45.9135 Z M 38.8984 -54.9972 L 37.3123 -52.0541 C 38.5543 -50.8159 39.689 -49.4871 40.7046 -48.097 C 45.815 -41.1017 48.489 -32.3191 48.489 -23.012 C 48.489 -13.705 45.8151 -4.92222 40.7046 2.07315 C 37.6962 6.19112 33.6415 9.77061 28.8519 12.0505 L 34.5612 12.4861 C 37.9651 10.158 40.8969 7.23665 43.2382 4.03171 C 48.7951 -3.57472 51.6582 -13.0627 51.6582 -23.012 C 51.6582 -32.9614 48.795 -42.4493 43.2382 -50.0555 C 41.9609 -51.8039 40.5079 -53.4679 38.8984 -54.9972 Z M 12.9333 -51.1188 C 12.7639 -50.2346 12.6015 -49.3374 12.4462 -48.4347 C 12.6015 -49.3286 12.7632 -50.2232 12.9333 -51.1188 Z M 32.06 -40.2888 C 26.5653 -25.8445 25.0278 -12.4946 26.4881 0.00382072 C 28.3891 -1.26474 30.1263 -2.98249 31.5837 -4.97736 C 35.0445 -9.71467 37.0798 -16.0617 37.0798 -23.012 C 37.0798 -29.6234 35.2382 -35.6886 32.06 -40.2888 Z M 60.849 -33.7344 L 60.849 3.912 L 64.652 3.912 L 74.1597 3.912 L 76.0612 1.62032 L 76.0612 -7.20053 L 70.5453 -14.1639 L 74.8337 -19.1046 L 69.342 -24.5256 L 64.652 -19.1217 L 64.652 -29.4691 Z M -10.0486 -9.78 L -11.9028 -7.91238 L -11.3522 -3.97083 L -10.1417 -5.216 L -7.60629 -2.608 L -5.07091 -5.216 L -2.53553 -2.608 L -0.00015 -5.216 L 2.53523 -2.608 L 5.07061 -5.216 L 7.60599 -2.608 L 10.1414 -5.216 L 10.4249 -4.92438 L 10.1183 -9.78 Z M 64.652 -9.2174 L 69.6755 -2.87593 L 64.652 2.29168 Z M 55.7782 1.304 C 53.1033 5.00933 50.596 8.84523 46.3582 11.3344 C 46.0584 11.1152 45.7033 10.9902 45.3359 10.9745 C 44.7326 10.9497 44.1538 11.221 43.7762 11.7055 C 43.3985 12.19 43.267 12.8302 43.4217 13.4304 C 44.6532 18.4976 44.6501 20.409 43.4626 24.0736 C 43.1548 24.9772 43.528 25.9771 44.3446 26.4366 C 45.1612 26.8961 46.1811 26.6801 46.7548 25.9262 L 55.7782 35.208 C 56.2554 32.4239 56.3913 29.3487 53.2428 23.472 C 56.9705 22.1785 59.976 20.0595 62.1167 16.952 C 60.0055 16.0836 57.0509 15.2143 53.2428 14.344 C 56.1196 9.52254 56.4252 5.30197 55.7782 1.304 Z M 51.8914 10.7201 C 51.5874 11.3943 51.2452 12.0831 50.8119 12.8093 L 48.7198 16.3158 L 52.6241 17.2082 C 54.2234 17.5737 55.6263 17.9377 56.8939 18.2965 C 55.5967 19.2897 54.0913 20.0811 52.3312 20.6918 L 49.0978 21.814 L 50.7448 24.8881 C 51.1465 25.6378 51.4768 26.3073 51.7659 26.9314 L 48.7718 23.8515 C 48.4518 23.5137 48.0722 23.2727 47.667 23.1279 C 48.2867 20.2925 48.2106 17.6221 47.4632 14.0453 C 47.5676 13.9982 47.6703 13.9443 47.771 13.8833 C 49.3504 12.9558 50.69 11.8723 51.8914 10.7201 Z M 82.3997 37.506 C 74.3623 44.5437 65.1243 50.2165 55.2845 55.2927 L 58.122 58.217 C 66.75 53.7051 74.9773 48.6674 82.3997 42.5741 Z"
       id="path1291"
       style="display:inline"
       inkscape:label="layer-1" />
    <path
       fill="#ff0000"
       d="M 2.17126 -122.497 C 1.18469 -121.506 -0.0252021 -120.666 -1.39857 -120.077 C -2.02891 -117.17 -3.24206 -114.68 -4.84015 -112.651 C -12.1711 -112.596 -19.8238 -112.221 -27.8547 -111.481 C -28.6383 -112.386 -29.3176 -113.353 -29.8245 -114.337 C -30.8473 -116.323 -31.3225 -118.114 -31.7506 -119.641 C -33.6467 -120.134 -35.3476 -121.115 -36.9043 -122.279 C -33.2186 -115.921 -30.6974 -110.85 -28.5883 -105.621 C -3.75862 -107.889 16.5344 -106.791 36.463 -103.597 C 38.3526 -108.554 40.8841 -113.676 46.4941 -121.808 C 44.2291 -120.622 41.3807 -119.614 37.5975 -118.911 C 37.2376 -115.493 36.0919 -112.577 34.1131 -110.402 C 33.9509 -110.223 33.7849 -110.052 33.6152 -109.886 L 7.76024 -111.746 L 33.5112 -109.946 C 25.1447 -111.185 16.646 -112.043 7.77832 -112.42 C 6.59158 -114.502 5.76009 -116.947 5.46404 -119.692 C 4.16105 -120.431 3.04718 -121.401 2.17126 -122.497 Z M 55.7782 -85.412 C 55.2739 -85.412 54.7902 -85.2059 54.4336 -84.8391 C 54.077 -84.4723 53.8767 -83.9748 53.8767 -83.456 C 53.8767 -82.9372 54.077 -82.4397 54.4336 -82.0729 C 54.7902 -81.7061 55.2739 -81.5 55.7782 -81.5 C 56.2825 -81.5 56.7662 -81.7061 57.1228 -82.0729 C 57.4794 -82.4397 57.6797 -82.9372 57.6797 -83.456 C 57.6797 -83.9748 57.4794 -84.4723 57.1228 -84.8391 C 56.7662 -85.2059 56.2825 -85.412 55.7782 -85.412 Z M 69.7228 -85.412 C 69.2185 -85.412 68.7348 -85.2059 68.3782 -84.8391 C 68.0216 -84.4723 67.8213 -83.9748 67.8213 -83.456 C 67.8213 -82.9372 68.0216 -82.4397 68.3782 -82.0729 C 68.7348 -81.7061 69.2185 -81.5 69.7228 -81.5 C 70.2271 -81.5 70.7108 -81.7061 71.0674 -82.0729 C 71.424 -82.4397 71.6243 -82.9372 71.6243 -83.456 C 71.6243 -83.9748 71.424 -84.4723 71.0674 -84.8391 C 70.7108 -85.2059 70.2271 -85.412 69.7228 -85.412 Z M 62.7505 -83.456 C 62.2462 -83.456 61.7625 -83.2499 61.4059 -82.8831 C 61.0493 -82.5163 60.849 -82.0188 60.849 -81.5 C 60.849 -80.9812 61.0493 -80.4837 61.4059 -80.1169 C 61.7625 -79.7501 62.2462 -79.544 62.7505 -79.544 C 63.2548 -79.544 63.7385 -79.7501 64.0951 -80.1169 C 64.4517 -80.4837 64.652 -80.9812 64.652 -81.5 C 64.652 -82.0188 64.4517 -82.5163 64.0951 -82.8831 C 63.7385 -83.2499 63.2548 -83.456 62.7505 -83.456 Z M 12.2964 -58.9408 L 10.1312 -56.7426 C 10.2389 -56.4856 10.396 -56.2415 10.6026 -56.0228 C 11.4829 -55.0915 12.8343 -55.072 13.7397 -55.9775 C 13.8376 -56.0755 13.9254 -56.1793 14.0026 -56.2875 L 14.4334 -58.4037 Z M -13.0504 -58.3436 C -14.7309 -56.8611 -16.7838 -55.8155 -18.8892 -55.1503 C -20.8826 -54.5205 -22.9937 -54.1384 -25.1066 -53.8471 C -22.7229 -48.291 -20.5905 -42.6266 -18.7186 -36.8095 L -4.59998 -51.0114 C -7.59428 -52.0759 -10.5616 -54.4579 -13.0504 -58.3436 Z M -18.7186 -36.8095 L -18.7206 -36.8074 L -18.6968 -36.7428 C -18.704 -36.765 -18.7115 -36.7872 -18.7186 -36.8095 Z M 5.39199 -51.9733 L 2.42059 -48.981 C 2.52768 -48.7368 2.67966 -48.5051 2.87691 -48.2964 C 3.75717 -47.3651 5.10857 -47.3456 6.01395 -48.2511 C 6.91933 -49.1565 6.93853 -50.5466 6.05827 -51.4779 C 5.85718 -51.6907 5.63132 -51.8559 5.39199 -51.9733 Z M 11.776 -44.2323 C 11.2943 -44.1842 10.8221 -43.9659 10.4325 -43.5763 C 9.52717 -42.6708 9.50821 -41.2807 10.3885 -40.3494 C 10.4824 -40.25 10.7097 -40.095 10.905 -39.9691 Z M -2.29809 -44.2288 L -5.28855 -41.2176 C -5.18255 -40.987 -5.0361 -40.7681 -4.84882 -40.5699 C -3.96856 -39.6386 -2.61716 -39.6189 -1.71178 -40.5244 C -0.806403 -41.4298 -0.78745 -42.8202 -1.66771 -43.7515 C -1.85882 -43.9537 -2.07195 -44.1127 -2.29809 -44.2288 Z M 82.3997 -40.4225 L 60.743 -40.4092 C 67.2905 -32.3555 74.9373 -24.5513 82.3997 -17.7976 Z M 4.28474 -36.5158 C 3.72368 -36.5239 3.1595 -36.3025 2.70681 -35.8498 C 1.80144 -34.9443 1.78248 -33.5542 2.66274 -32.6229 C 2.81898 -32.4576 2.99001 -32.3209 3.17081 -32.2131 L 6.2202 -35.2842 C 6.12164 -35.468 5.99625 -35.643 5.84385 -35.8042 C 5.40372 -36.2699 4.8458 -36.5077 4.28474 -36.5158 Z M -9.98866 -36.4837 L -12.9969 -33.4542 C -12.8925 -33.2371 -12.7518 -33.0308 -12.5745 -32.8432 C -11.6943 -31.9119 -10.3429 -31.8924 -9.43751 -32.7979 C -8.53213 -33.7034 -8.51318 -35.0935 -9.39344 -36.0248 C -9.5746 -36.2164 -9.77558 -36.3694 -9.98866 -36.4837 Z M 31.9981 -34.4422 C 30.4591 -33.9573 29.437 -32.4585 29.437 -30.7688 C 29.437 -28.6083 31.087 -26.8568 33.1225 -26.8568 C 33.4053 -26.8568 33.6871 -26.8914 33.9801 -26.84 C 33.9024 -26.728 33.8069 -26.732 33.7112 -26.732 C 31.6758 -26.732 30.0258 -24.9805 30.0258 -22.82 C 30.0258 -20.6595 31.6758 -18.908 33.7112 -18.908 C 33.7892 -18.908 33.8671 -18.9105 33.9267 -18.7478 C 33.6037 -18.6645 33.2903 -18.7076 32.9754 -18.7076 C 30.94 -18.7076 29.2899 -16.9561 29.2899 -14.7956 C 29.2899 -13.395 29.994 -12.1261 31.0951 -11.4248 C 30.6849 -11.5828 30.2507 -11.667 29.8106 -11.667 C 27.7752 -11.667 26.1252 -9.91552 26.1252 -7.75498 C 26.1252 -6.5495 26.6487 -5.41138 27.5857 -4.70051 C 31.7595 -9.05448 34.2275 -15.7981 34.2275 -23.012 C 34.2275 -27.022 33.4623 -30.9441 31.9981 -34.4422 Z M 10.2706 -30.2459 L -9.9894 -9.8396 L 10.1131 -9.79528 C 9.76801 -16.5199 9.80736 -23.338 10.2706 -30.2459 Z M 64.6827 -29.5891 L 64.652 -19.3071 L 69.3358 -24.6843 C 67.7705 -26.4357 66.2279 -28.0597 64.6827 -29.5891 Z M -3.44099 -28.7894 C -4.00205 -28.7975 -4.56623 -28.5758 -5.01891 -28.1231 C -5.92429 -27.2176 -5.94349 -25.8275 -5.06323 -24.8962 C -4.89698 -24.7203 -4.7137 -24.5771 -4.52001 -24.4663 L -1.48671 -27.5218 C -1.58796 -27.7188 -1.71956 -27.906 -1.88188 -28.0778 C -2.32201 -28.5434 -2.87993 -28.7812 -3.44099 -28.7894 Z M -11.1667 -21.0627 C -11.7278 -21.0708 -12.292 -20.8494 -12.7446 -20.3966 C -13.65 -19.4912 -13.6692 -18.1011 -12.789 -17.1698 C -12.6128 -16.9834 -12.4178 -16.8335 -12.2113 -16.7202 L -9.19412 -19.7589 C -9.2976 -19.9692 -9.43534 -20.1691 -9.60761 -20.3513 C -10.0477 -20.817 -10.6057 -21.0545 -11.1667 -21.0627 Z M 74.8337 -19.1046 L 70.5453 -14.1639 L 76.0613 -7.20053 L 76.0613 -17.9516 Z M 78.5721 -15.7687 L 78.6117 3.912 L 82.3997 3.912 L 82.3997 -12.4845 C 81.1242 -13.5957 79.8446 -14.7118 78.5721 -15.7687 Z M 64.652 -9.2174 L 64.652 2.29168 L 69.6755 -2.87593 Z M 76.0612 1.6812 L 73.8198 3.912 L 76.0746 3.912 Z M 82.3997 3.91353 L 56.0421 3.94486 C 56.1665 7.18715 55.4871 10.5827 53.2428 14.344 C 57.0509 15.2143 60.0055 16.0836 62.1167 16.952 C 61.5826 17.7272 60.9947 18.4409 60.2877 19.1596 C 68.9658 17.2663 76.8278 9.96103 82.3997 4.96105 Z M 82.1796 25.3735 L 76.0865 30.0549 L 80.2914 35.6792 L 76.6389 38.237 L 74.8777 36.1649 L 75.2697 35.8745 L 76.2742 37.1734 L 79.2438 35.2202 L 75.4675 30.4675 L 69.3673 35.0137 L 73.2827 40.7166 L 69.5223 43.0934 L 67.8572 40.939 L 68.2617 40.6677 L 69.2063 42.0135 L 72.2614 40.2052 L 68.7017 35.2717 L 62.4722 39.5441 L 66.1089 45.4778 L 62.2241 47.622 L 60.6843 45.3713 L 61.1038 45.1248 L 61.9701 46.525 L 65.1227 44.9034 L 61.8495 39.7641 L 55.3494 43.6781 L 59.0098 49.6506 L 55.1251 51.7948 L 53.5853 49.5441 L 54.0047 49.2976 L 54.871 50.6978 L 58.0237 49.0762 L 54.7594 43.9509 L 48.4915 47.5328 L 49.5069 48.7423 L 54.2617 46.0251 L 55.8144 48.463 L 55.4177 48.667 L 54.5093 47.1984 L 51.3792 49.0383 L 54.6566 53.8292 L 61.1669 50.2358 L 57.4747 44.2115 L 61.3697 41.8663 L 62.9134 44.2902 L 62.5168 44.4942 L 61.6083 43.0256 L 58.4782 44.8655 L 61.7557 49.6564 L 68.2659 46.063 L 64.55 39.9999 L 68.3422 37.3988 L 70.0212 39.7259 L 69.6366 39.9533 L 68.6463 38.5421 L 65.6261 40.5669 L 69.1702 45.1525 L 75.4608 41.1766 L 71.477 35.3738 L 75.1979 32.6008 L 76.9843 34.8491 L 76.6104 35.0949 L 75.5571 33.7326 L 72.6323 35.9005 L 76.3806 40.3107 L 82.3997 36.0958 L 82.3997 35.9323 L 78.2329 30.359 L 81.9233 27.5236 L 82.3997 28.1231 L 82.3997 25.6506 Z M 82.2759 28.647 L 79.3511 30.8149 L 82.3997 34.4019 L 82.3997 32.0244 L 81.5965 31.0793 L 81.9884 30.7889 L 82.3997 31.3207 L 82.3997 28.8072 Z"
       id="path1287"
       style="display:inline"
       inkscape:label="layer-4" />
    <path
       fill="#4444ff"
       d="M -5.93898 -94.2626 C -6.63907 -94.2626 -7.20661 -93.2912 -7.20667 -92.0927 C -7.20668 -91.5171 -7.07313 -90.9651 -6.83539 -90.5582 C -6.59765 -90.1512 -6.2752 -89.9225 -5.93898 -89.9225 C -5.60276 -89.9225 -5.28031 -90.1512 -5.04257 -90.5582 C -4.80483 -90.9651 -4.67128 -91.5171 -4.67129 -92.0927 C -4.67135 -93.2912 -5.2389 -94.2626 -5.93898 -94.2626 Z M -21.5509 -94.1022 C -21.8871 -94.1022 -22.2095 -93.8735 -22.4473 -93.4666 C -22.685 -93.0596 -22.8186 -92.5076 -22.8186 -91.932 C -22.8186 -91.3564 -22.685 -90.8044 -22.4473 -90.3974 C -22.2095 -89.9905 -21.8871 -89.7618 -21.5509 -89.7618 C -21.2147 -89.7618 -20.8922 -89.9905 -20.6545 -90.3974 C -20.4167 -90.8044 -20.2832 -91.3564 -20.2832 -91.932 C -20.2832 -92.5076 -20.4167 -93.0596 -20.6545 -93.4666 C -20.8922 -93.8735 -21.2147 -94.1022 -21.5509 -94.1022 Z M 69.7332 -91.2904 C 67.7458 -89.7471 64.9345 -88.672 62.7505 -88.672 C 60.6843 -88.672 58.6182 -89.8268 57.1449 -90.9 L 57.3519 -86.297 C 61.6992 -84.0556 63.8017 -84.0555 68.3056 -86.3719 C 68.7484 -86.6078 69.2391 -86.7328 69.7302 -86.7364 Z M -15.2124 -75.632 C -16.4801 -74.328 -18.3318 -73.9149 -18.4557 -73.7534 L -19.0155 -73.024 C -17.8965 -74.4824 -11.6793 -73.7009 -7.76252 -74.0993 L -8.87398 -74.328 C -10.1417 -74.328 -11.4094 -75.632 -11.4094 -75.632 C -11.4094 -75.632 -12.2608 -74.328 -13.5285 -74.328 C -15.2125 -74.328 -15.2124 -75.632 -15.2124 -75.632 Z M -7.76252 -74.0993 L -5.70476 -73.676 L -6.3386 -74.328 C -6.76045 -74.2253 -7.24198 -74.1522 -7.76252 -74.0993 Z M 66.5536 -70.416 C 65.7076 -66.489 64.0062 -62.5772 61.4828 -58.68 C 59.0769 -62.0785 56.6238 -65.4494 55.7782 -69.764 C 52.875 -65.3896 49.8778 -62.9594 46.8031 -61.9176 C 49.9498 -54.9576 54.8958 -47.6009 60.7294 -40.4265 L 82.3997 -40.4243 L 82.3997 -59.1102 C 76.264 -61.1836 70.1216 -63.2438 66.5536 -70.416 Z M 42.6447 -61.5307 C 41.9123 -60.3334 41.2061 -59.1428 40.5191 -57.9249 C 42.4824 -56.0883 44.2447 -54.1046 45.7719 -52.0141 C 51.7749 -43.7969 54.8274 -33.6048 54.8274 -23.012 C 54.8274 -12.4193 51.7751 -2.22708 45.7719 5.99025 C 45.3487 6.56955 44.9074 7.1406 44.4569 7.72136 C 44.7992 7.72527 45.1271 7.70328 45.4626 7.71706 C 45.6508 7.72475 45.8258 7.75324 46.0041 7.7764 C 48.8003 5.67314 50.8288 2.69209 53.2339 -0.639495 L 55.7782 1.304 C 55.9113 2.12628 56.0041 2.95803 56.0387 3.85725 L 60.8314 3.912 L 60.9151 -33.8149 C 53.2447 -42.8414 46.5654 -52.3566 42.6447 -61.5307 Z M 33.6323 -58.0601 C 33.3939 -58.052 33.1802 -57.9069 33.0791 -57.6847 C 32.9309 -57.3586 33.0677 -56.9706 33.3847 -56.818 C 33.5369 -56.7447 33.7113 -56.7366 33.8694 -56.7955 C 34.0274 -56.8545 34.1562 -56.9756 34.2275 -57.1323 C 34.3757 -57.4584 34.2389 -57.8464 33.9219 -57.999 C 33.8314 -58.0425 33.7322 -58.0635 33.6323 -58.0601 Z M 18.6077 -56.9295 C 18.2992 -56.9324 18.0336 -56.7066 17.9783 -56.3944 C 17.9156 -56.0402 18.1439 -55.7007 18.4883 -55.6362 C 18.8327 -55.5718 19.1627 -55.8066 19.2254 -56.1609 C 19.2881 -56.5151 19.0597 -56.8546 18.7154 -56.9191 C 18.6798 -56.9257 18.6438 -56.9292 18.6077 -56.9295 Z M 30.8357 -56.5266 C 30.5973 -56.5185 30.3836 -56.3734 30.2825 -56.1512 C 30.1343 -55.8251 30.2711 -55.4371 30.5881 -55.2845 C 30.7403 -55.2112 30.9147 -55.2031 31.0728 -55.2621 C 31.2308 -55.321 31.3597 -55.4421 31.4309 -55.5988 C 31.5791 -55.9249 31.4424 -56.3129 31.1254 -56.4655 C 31.0348 -56.5091 30.9356 -56.53 30.8357 -56.5266 Z M 22.3493 -56.2284 C 22.0408 -56.2314 21.775 -56.0055 21.7197 -55.6933 C 21.657 -55.339 21.8854 -54.9996 22.2297 -54.9351 C 22.574 -54.8706 22.904 -55.1053 22.9668 -55.4595 C 22.997 -55.6296 22.9602 -55.8051 22.8646 -55.9474 C 22.7689 -56.0896 22.6222 -56.187 22.4568 -56.2179 C 22.4213 -56.2246 22.3854 -56.228 22.3493 -56.2284 Z M 20.3589 -55.2855 L 17.7485 -47.8222 L 19.3363 -49.5128 L 19.5054 -46.8299 L 20.2933 -49.4323 L 21.4899 -47.1208 Z M 34.2805 -54.8691 C 34.0421 -54.861 33.8284 -54.7159 33.7273 -54.4937 C 33.6561 -54.3371 33.6482 -54.1577 33.7055 -53.9951 C 33.7628 -53.8325 33.8806 -53.7 34.0329 -53.6267 C 34.1851 -53.5534 34.3595 -53.5454 34.5176 -53.6043 C 34.6756 -53.6632 34.8045 -53.7844 34.8757 -53.941 C 34.947 -54.0977 34.9548 -54.277 34.8975 -54.4396 C 34.8402 -54.6022 34.7224 -54.7347 34.5702 -54.808 C 34.4796 -54.8516 34.3804 -54.8725 34.2805 -54.8691 Z M 32.3106 -54.4555 L 27.9393 -47.9212 L 29.8933 -49.1404 L 29.3932 -46.5019 L 30.799 -48.8121 L 31.3841 -46.2637 Z M 11.0441 -50.8794 C 11.1455 -50.1579 11.1355 -49.4234 11.0144 -48.7052 C 11.5095 -48.7788 12.0109 -48.7953 12.5086 -48.7548 L 12.88 -50.8135 C 12.2686 -50.7491 11.6504 -50.7713 11.0441 -50.8794 Z M 22.8178 -44.1755 C 22.5331 -44.1668 22.289 -43.9639 22.2211 -43.6794 C 22.1375 -43.3297 22.3454 -42.9766 22.6853 -42.8906 C 23.0253 -42.8047 23.3686 -43.0185 23.4521 -43.3682 C 23.5357 -43.7179 23.3278 -44.071 22.9879 -44.157 C 22.9323 -44.171 22.875 -44.1773 22.8178 -44.1755 Z M 3.31837 -43.1527 C 3.41975 -42.4312 3.40973 -41.6967 3.28866 -40.9785 C 3.99008 -41.0827 4.70411 -41.0724 5.40239 -40.9479 C 5.30101 -41.6694 5.31104 -42.4039 5.4321 -43.1222 C 4.73069 -43.0179 4.01665 -43.0282 3.31837 -43.1527 Z M 20.3661 -42.1098 C 20.0814 -42.1011 19.8373 -41.8981 19.7694 -41.6136 C 19.6858 -41.264 19.8937 -40.9108 20.2336 -40.8249 C 20.5736 -40.7389 20.9169 -40.9527 21.0004 -41.3024 C 21.084 -41.6521 20.8761 -42.0052 20.5362 -42.0912 C 20.4806 -42.1053 20.4233 -42.1115 20.3661 -42.1098 Z M 24.0592 -41.1761 C 23.7745 -41.1674 23.5305 -40.9645 23.4625 -40.68 C 23.379 -40.3303 23.5868 -39.9771 23.9268 -39.8912 C 24.2667 -39.8053 24.61 -40.0191 24.6936 -40.3687 C 24.7771 -40.7184 24.5693 -41.0716 24.2293 -41.1575 C 24.1737 -41.1716 24.1165 -41.1778 24.0592 -41.1761 Z M 22.0802 -40.358 L 19.0335 -33.0714 L 20.7184 -34.6597 L 20.7288 -31.9714 L 21.6689 -34.5196 L 22.7267 -32.1377 Z M -4.40735 -35.4263 C -4.30598 -34.7048 -4.316 -33.9703 -4.43707 -33.252 C -3.73565 -33.3563 -3.02162 -33.346 -2.32334 -33.2214 C -2.42472 -33.9429 -2.41469 -34.6774 -2.29363 -35.3957 C -2.99504 -35.2914 -3.70908 -35.3017 -4.40735 -35.4263 Z M 14.3502 -28.6643 C 14.018 -28.6806 13.73 -28.43 13.6907 -28.0902 C 13.6492 -27.7328 13.8973 -27.4084 14.2448 -27.3657 C 14.5924 -27.323 14.9077 -27.5784 14.9492 -27.9359 C 14.9906 -28.2934 14.7426 -28.6177 14.3951 -28.6605 C 14.3802 -28.6623 14.3652 -28.6636 14.3502 -28.6643 Z M 28.3451 -28.3658 C 26.9556 -22.6103 26.2098 -17.0717 26.0303 -11.6945 L 26.0548 -11.6283 C 26.5978 -12.2112 27.2618 -12.6708 28.0044 -12.9588 C 27.8099 -13.5397 27.7053 -14.1593 27.7053 -14.7956 C 27.7053 -16.5566 28.5085 -18.1505 29.7579 -19.1724 C 28.9383 -20.1539 28.4412 -21.4351 28.4412 -22.82 C 28.4412 -24.2178 28.9473 -25.5104 29.7807 -26.4954 C 29.1824 -27.0154 28.6945 -27.6701 28.3451 -28.3658 Z M -12.1331 -27.6996 C -12.0317 -26.9781 -12.0417 -26.2438 -12.1628 -25.5255 C -11.4614 -25.6298 -10.7473 -25.6195 -10.0491 -25.495 C -10.1504 -26.2165 -10.1404 -26.9507 -10.0194 -27.669 C -10.7208 -27.5647 -11.4348 -27.575 -12.1331 -27.6996 Z M 22.7898 -27.3443 C 22.4816 -27.3278 22.2298 -27.0854 22.1933 -26.7702 C 22.1519 -26.4126 22.4001 -26.0882 22.7477 -26.0456 C 23.0952 -26.003 23.4106 -26.2582 23.4521 -26.6156 C 23.4721 -26.7874 23.4249 -26.9602 23.3209 -27.0962 C 23.2169 -27.2321 23.0647 -27.32 22.8977 -27.3404 C 22.8829 -27.3423 22.8681 -27.3435 22.8532 -27.3443 C 22.8321 -27.3454 22.8109 -27.3454 22.7898 -27.3443 Z M 12.0984 -26.3064 C 11.7902 -26.2899 11.5384 -26.0475 11.5019 -25.7324 C 11.4605 -25.3748 11.7087 -25.0504 12.0563 -25.0078 C 12.4039 -24.9651 12.7193 -25.2205 12.7607 -25.578 C 12.8021 -25.9355 12.5541 -26.2598 12.2066 -26.3026 C 12.1917 -26.3044 12.1767 -26.3057 12.1618 -26.3064 C 12.1406 -26.3075 12.1195 -26.3075 12.0984 -26.3064 Z M 15.9198 -25.8437 C 15.9047 -25.8439 15.8897 -25.8437 15.8747 -25.8429 C 15.5665 -25.8264 15.3147 -25.584 15.2782 -25.2688 C 15.2368 -24.9112 15.485 -24.5868 15.8326 -24.5442 C 16.1802 -24.5016 16.4956 -24.7569 16.537 -25.1145 C 16.5785 -25.4719 16.3304 -25.7963 15.9829 -25.839 C 15.9619 -25.8417 15.9409 -25.8432 15.9198 -25.8436 Z M 20.6013 -24.9864 C 20.2931 -24.9699 20.0413 -24.7275 20.0048 -24.4123 C 19.9634 -24.0547 20.2116 -23.7303 20.5592 -23.6877 C 20.9067 -23.6451 21.2221 -23.9003 21.2636 -24.2577 C 21.2836 -24.4295 21.2364 -24.6023 21.1324 -24.7383 C 21.0284 -24.8742 20.8762 -24.9621 20.7092 -24.9826 C 20.6944 -24.9844 20.6796 -24.9856 20.6647 -24.9864 C 20.6436 -24.9875 20.6224 -24.9875 20.6013 -24.9864 Z M 13.9444 -24.776 L 11.7844 -17.1616 L 13.2685 -18.9493 L 13.5976 -16.2824 L 14.2284 -18.9296 L 15.5607 -16.6981 Z M 24.4224 -24.5236 C 24.4075 -24.5239 24.3926 -24.5236 24.3776 -24.5228 C 24.0695 -24.5063 23.8176 -24.2639 23.7812 -23.9488 C 23.7397 -23.5913 23.9878 -23.2669 24.3353 -23.2242 C 24.5023 -23.2036 24.6703 -23.2522 24.8025 -23.3591 C 24.9346 -23.4661 25.0201 -23.6227 25.0399 -23.7944 C 25.0814 -24.152 24.8332 -24.4764 24.4856 -24.519 C 24.4646 -24.5216 24.4435 -24.5231 24.4224 -24.5236 Z M 22.4474 -23.456 L 20.2873 -15.8416 L 21.7714 -17.6292 L 22.1005 -14.9624 L 22.7314 -17.6096 L 24.0637 -15.378 Z M 17.7475 -12.388 C 17.5794 -12.388 17.4182 -12.3193 17.2993 -12.197 C 17.1804 -12.0748 17.1137 -11.9089 17.1137 -11.736 C 17.1137 -11.5631 17.1804 -11.3972 17.2993 -11.275 C 17.4182 -11.1527 17.5794 -11.084 17.7475 -11.084 C 17.9156 -11.084 18.0768 -11.1527 18.1957 -11.275 C 18.3146 -11.3972 18.3814 -11.5631 18.3814 -11.736 C 18.3814 -11.9089 18.3146 -12.0748 18.1957 -12.197 C 18.0768 -12.3193 17.9156 -12.388 17.7475 -12.388 Z M 15.846 -9.78 C 15.6779 -9.78 15.5166 -9.71131 15.3978 -9.58903 C 15.2789 -9.46676 15.2121 -9.30092 15.2121 -9.128 C 15.2121 -8.95508 15.2789 -8.78924 15.3978 -8.66697 C 15.5166 -8.54469 15.6779 -8.476 15.846 -8.476 C 16.0141 -8.476 16.1753 -8.54469 16.2942 -8.66697 C 16.413 -8.78924 16.4798 -8.95508 16.4798 -9.128 C 16.4798 -9.30092 16.413 -9.46676 16.2942 -9.58903 C 16.1753 -9.71131 16.0141 -9.78 15.846 -9.78 Z M 19.649 -9.78 C 19.4809 -9.78 19.3197 -9.71131 19.2008 -9.58903 C 19.082 -9.46676 19.0152 -9.30092 19.0152 -9.128 C 19.0152 -8.95508 19.082 -8.78924 19.2008 -8.66697 C 19.3197 -8.54469 19.4809 -8.476 19.649 -8.476 C 19.8172 -8.476 19.9784 -8.54469 20.0972 -8.66697 C 20.2161 -8.78924 20.2829 -8.95508 20.2829 -9.128 C 20.2829 -9.30092 20.2161 -9.46676 20.0972 -9.58903 C 19.9784 -9.71131 19.8172 -9.78 19.649 -9.78 Z M 17.7475 -8.476 L 16.4798 -0.652 L 17.7475 -2.608 L 18.3814 -2.84217e-14 L 18.703 -2.70555 L 20.2829 -0.652 Z M 22.9663 2.62379 C 22.9452 2.6227 22.9241 2.6227 22.9029 2.62379 C 22.7351 2.63377 22.578 2.71194 22.4662 2.84109 C 22.3544 2.97025 22.297 3.13981 22.3067 3.31246 C 22.3164 3.48512 22.3924 3.64674 22.518 3.76176 C 22.6435 3.87678 22.8084 3.93577 22.9762 3.92576 C 23.1441 3.91578 23.3012 3.83761 23.413 3.70845 C 23.5248 3.5793 23.5822 3.40973 23.5724 3.23708 C 23.5537 2.90271 23.2916 2.63738 22.9663 2.62328 Z M 14.0291 3.01397 C 13.9868 3.01285 13.9445 3.01608 13.9028 3.02362 C 13.5581 3.08622 13.328 3.42443 13.3888 3.77903 C 13.4497 4.13363 13.7785 4.37035 14.1232 4.30776 C 14.4679 4.24517 14.6981 3.90696 14.6372 3.55236 C 14.5848 3.24697 14.3305 3.02182 14.0291 3.01395 Z M 82.3997 5.02702 C 76.7588 10.0252 68.9274 17.2758 60.2686 19.1792 C 58.3998 21.0844 56.022 22.5076 53.2428 23.472 C 56.3913 29.3487 56.2554 32.4239 55.7782 35.208 L 46.7556 25.9267 C 46.2756 26.5617 45.4409 26.8501 44.6545 26.5805 C 43.984 26.3506 43.5224 25.7743 43.3917 25.1109 C 41.6447 25.71 37.8933 26.9962 35.3595 27.8503 C 38.0732 33.0692 41.3048 38.1268 44.9573 43.0004 C 58.8112 35.4609 71.8675 27.6815 82.3997 17.8009 Z M 43.3917 25.1109 C 43.4147 25.1031 43.4666 25.0854 43.4888 25.0778 L 43.3727 24.9999 C 43.3779 25.0372 43.3845 25.0741 43.3917 25.1109 Z M 25.0112 5.11438 C 24.9901 5.11329 24.969 5.11329 24.9478 5.11438 C 24.78 5.12436 24.6229 5.20253 24.5111 5.33168 C 24.3992 5.46084 24.3419 5.6304 24.3516 5.80306 C 24.3718 6.1625 24.6714 6.43706 25.0209 6.41635 C 25.1887 6.40637 25.3459 6.3282 25.4577 6.19904 C 25.5695 6.06988 25.6268 5.90032 25.6171 5.72766 C 25.5983 5.39339 25.3364 5.12809 25.0112 5.11387 Z M 16.3424 5.24224 C 16.3001 5.24111 16.2578 5.24434 16.2161 5.25189 C 15.8714 5.31448 15.6413 5.65269 15.7021 6.00729 C 15.763 6.36189 16.0918 6.5986 16.4365 6.53601 C 16.7812 6.47342 17.0113 6.13522 16.9505 5.78062 C 16.8981 5.47523 16.6438 5.25008 16.3424 5.24221 Z M 21.2143 5.34055 C 21.1932 5.33946 21.1721 5.33946 21.151 5.34055 C 20.8015 5.36133 20.5346 5.66952 20.5547 6.02897 C 20.5645 6.20162 20.6404 6.36324 20.766 6.47826 C 20.8916 6.59328 21.0564 6.65227 21.2242 6.64225 C 21.3921 6.63227 21.5492 6.55411 21.661 6.42495 C 21.7728 6.2958 21.8302 6.12624 21.8205 5.95358 C 21.8015 5.61931 21.5396 5.35412 21.2143 5.34004 Z M 12.597 5.92225 C 12.5548 5.92114 12.5126 5.92437 12.471 5.9319 C 12.1263 5.99449 11.8961 6.3327 11.957 6.6873 C 12.0178 7.04191 12.3466 7.27863 12.6914 7.21604 C 13.0361 7.15344 13.2662 6.81523 13.2054 6.46063 C 13.1529 6.15515 12.8985 5.92997 12.597 5.92222 Z M 23.1226 6.52968 L 22.5234 12.2494 L 25.2561 12.0314 Z M 14.5639 6.87606 L 14.6375 14.8075 L 15.5553 12.6547 L 16.6202 15.1098 L 16.4798 12.388 L 18.3826 14.1278 Z M 33.9975 29.6342 L 33.5936 31.948 L 32.0011 29.8165 L 32.7553 32.4294 L 30.5101 31.1946 L 35.8693 37.3288 Z M 22.9844 32.2195 L 22.4204 34.4974 L 20.9801 32.2541 L 21.5506 34.9159 L 19.3972 33.5189 L 24.3155 40.0323 Z M 37.8592 36.4944 C 37.7744 36.4954 37.6906 36.5138 37.6129 36.5487 C 37.4587 36.6177 37.3375 36.7468 37.2759 36.9077 C 37.2144 37.0687 37.2175 37.2481 37.2845 37.4067 C 37.3516 37.5653 37.4772 37.69 37.6336 37.7533 C 37.7901 37.8166 37.9645 37.8134 38.1187 37.7444 C 38.2729 37.6754 38.394 37.5463 38.4556 37.3854 C 38.5172 37.2244 38.5141 37.045 38.447 36.8864 C 38.3454 36.6461 38.1139 36.4917 37.8592 36.4944 Z M 34.3718 38.0552 C 34.287 38.056 34.2033 38.0744 34.1255 38.1091 C 33.9713 38.1781 33.8501 38.3073 33.7885 38.4682 C 33.727 38.6291 33.7301 38.8086 33.7972 38.9672 C 33.8642 39.1258 33.9898 39.2504 34.1462 39.3138 C 34.3027 39.3771 34.4772 39.3739 34.6313 39.3049 C 34.7855 39.2359 34.9067 39.1067 34.9682 38.9458 C 35.0298 38.7849 35.0267 38.6054 34.9596 38.4469 C 34.858 38.2067 34.6265 38.0524 34.3718 38.0552 Z M 26.3398 39.3457 C 26.3249 39.3451 26.3099 39.3451 26.295 39.3457 C 26.2316 39.3482 26.1689 39.3604 26.1091 39.3821 C 25.7789 39.5017 25.6055 39.874 25.7218 40.2136 C 25.8381 40.5533 26.2001 40.7316 26.5302 40.612 C 26.8604 40.4923 27.0338 40.12 26.9175 39.7804 C 26.8306 39.5267 26.6012 39.354 26.3398 39.3454 Z M 37.1271 39.6663 C 37.0423 39.6672 36.9585 39.6855 36.8807 39.7203 C 36.7265 39.7892 36.6053 39.9184 36.5436 40.0793 C 36.482 40.2402 36.4851 40.4197 36.5522 40.5783 C 36.6192 40.7369 36.7448 40.8616 36.9012 40.9249 C 37.0577 40.9882 37.2322 40.9851 37.3863 40.9161 C 37.7072 40.7724 37.8542 40.3884 37.7146 40.0583 C 37.6131 39.8181 37.3817 39.6637 37.1271 39.6663 Z M 22.7527 40.6453 C 22.7378 40.6448 22.7229 40.6448 22.7081 40.6453 C 22.6446 40.6478 22.5818 40.6601 22.5219 40.6817 C 22.1917 40.8014 22.0184 41.1737 22.1347 41.5133 C 22.251 41.8529 22.6129 42.0313 22.9431 41.9116 C 23.2732 41.792 23.4466 41.4197 23.3303 41.0801 C 23.2434 40.8264 23.014 40.6536 22.7527 40.6451 Z M 33.1982 40.694 L 32.9598 43.032 L 31.2202 41.0258 L 32.1578 43.575 L 29.8312 42.5124 L 35.6115 48.2276 Z M 25.3886 42.4554 C 25.3736 42.4548 25.3587 42.4548 25.3437 42.4554 C 25.2803 42.4579 25.2177 42.4702 25.1578 42.4918 C 24.8276 42.6114 24.6543 42.9837 24.7706 43.3234 C 24.8869 43.663 25.2488 43.8413 25.579 43.7217 C 25.9091 43.602 26.0825 43.2298 25.9662 42.8901 C 25.8793 42.6365 25.6499 42.4637 25.3886 42.4551 Z M 37.6002 47.2438 C 37.494 47.2419 37.389 47.2676 37.2949 47.3184 C 36.9851 47.4858 36.8659 47.8798 37.0285 48.1986 C 37.1912 48.5174 37.5743 48.6402 37.8842 48.4729 C 38.1941 48.3055 38.3135 47.9115 38.1509 47.5927 C 38.0432 47.3816 37.832 47.2477 37.6002 47.2438 Z M 34.2329 49.0622 C 34.1268 49.0604 34.0219 49.0861 33.9279 49.1369 C 33.618 49.3042 33.4986 49.6982 33.6612 50.0171 C 33.7394 50.1702 33.8734 50.2851 34.034 50.3366 C 34.1945 50.388 34.3683 50.3718 34.5172 50.2914 C 34.666 50.2109 34.7777 50.073 34.8277 49.9079 C 34.8776 49.7428 34.8618 49.564 34.7836 49.4109 C 34.6758 49.1999 34.4646 49.0662 34.2329 49.0622 Z M 44.7755 49.931 L 44.5371 52.269 L 42.7973 50.2628 L 43.7352 52.812 L 41.4085 51.7494 L 47.1886 57.4644 Z M 37.0951 50.462 C 36.9889 50.4602 36.8839 50.4858 36.7898 50.5366 C 36.641 50.617 36.5293 50.755 36.4794 50.9201 C 36.4294 51.0852 36.4453 51.264 36.5234 51.4171 C 36.6861 51.7358 37.0692 51.8586 37.3791 51.6914 C 37.528 51.611 37.6397 51.4731 37.6898 51.308 C 37.7398 51.1428 37.724 50.964 37.6458 50.8109 C 37.5381 50.5998 37.3269 50.466 37.0951 50.462 Z M 33.4971 52.4829 L 32.9598 54.768 L 31.4935 52.5428 L 32.0949 55.1971 L 29.9255 53.8269 L 32.3316 56.9354 L 34.4374 57.6358 Z M 49.1776 56.4805 C 49.0713 56.4787 48.9663 56.5043 48.8723 56.5551 C 48.7234 56.6356 48.6117 56.7735 48.5618 56.9386 C 48.5118 57.1037 48.5277 57.2825 48.6059 57.4356 C 48.7685 57.7544 49.1516 57.8772 49.4616 57.7099 C 49.6104 57.6295 49.7222 57.4916 49.7722 57.3265 C 49.8222 57.1614 49.8064 56.9826 49.7282 56.8294 C 49.6205 56.6183 49.4093 56.4845 49.1776 56.4805 Z M 45.8102 58.299 C 45.7041 58.2972 45.5992 58.3229 45.5052 58.3736 C 45.3563 58.454 45.2446 58.5919 45.1946 58.757 C 45.1446 58.9221 45.1604 59.1009 45.2386 59.2541 C 45.4013 59.5727 45.7844 59.6954 46.0943 59.5281 C 46.4041 59.3608 46.5235 58.9667 46.3609 58.6479 C 46.2532 58.4368 46.042 58.303 45.8102 58.299 Z M 36.8911 59.5678 C 36.8277 59.5712 36.7651 59.5843 36.7054 59.6068 C 36.5672 59.6588 36.4508 59.7587 36.3764 59.8893 L 36.6987 60.8288 C 36.8411 60.8842 36.998 60.8852 37.1409 60.8314 C 37.4696 60.7077 37.6387 60.3334 37.5185 59.9953 C 37.4311 59.7492 37.2089 59.5808 36.9545 59.5679 C 36.9334 59.5668 36.9122 59.5668 36.8911 59.5679 Z M 48.6725 59.699 C 48.5662 59.6972 48.4613 59.7228 48.3672 59.7736 C 48.0574 59.9411 47.9381 60.3351 48.1008 60.6538 C 48.2635 60.9726 48.6465 61.0954 48.9565 60.9281 C 49.2663 60.7608 49.3857 60.3667 49.2231 60.0479 C 49.1154 59.8368 48.9042 59.703 48.6725 59.699 Z"
       id="path1283"
       inkscape:label="layer-7"
       style="display:inline" />
    <path
       fill="#000000"
       d="M -2.34117 -106.796 C -10.5911 -106.814 -19.2566 -106.415 -28.5554 -105.531 L -27.1208 -101.737 C -3.43237 -103.906 15.9858 -102.866 35.104 -99.8128 L 36.4531 -103.555 C 24.004 -105.578 11.4087 -106.765 -2.34117 -106.796 Z M 53.5937 -77.303 L 52.5268 -74.9375 C 58.8321 -71.9363 65.7305 -71.8026 72.0886 -74.5363 L 71.1257 -76.9472 C 65.3809 -74.4586 59.307 -74.5773 53.5937 -77.303 Z M -12.6771 -64.548 C -14.1864 -59.3726 -20.1054 -57.579 -26.581 -57.1032 C -26.0879 -56.0951 -25.6208 -55.0364 -25.1475 -53.942 C -22.9938 -54.1384 -20.8826 -54.5205 -18.8892 -55.1503 C -16.7838 -55.8155 -14.7309 -56.8611 -13.0504 -58.3436 C -10.5616 -54.4579 -7.59442 -52.0759 -4.6193 -50.992 L -18.7308 -36.8433 C -18.3779 -35.7529 -18.0247 -34.6209 -17.6624 -33.4069 L 3.6712 -54.7927 C -0.305005 -52.2884 -7.75863 -52.5897 -12.6771 -64.548 Z M 40.5124 -57.891 L 38.8984 -54.9972 C 40.5079 -53.4679 41.9609 -51.8039 43.2382 -50.0555 C 48.795 -42.4493 51.6582 -32.9614 51.6582 -23.012 C 51.6582 -13.0627 48.7951 -3.57472 43.2382 4.03171 C 40.8969 7.23665 37.965 10.1579 34.6377 12.4838 C 38.2067 12.6972 41.657 12.8763 43.3392 12.9478 C 43.3645 11.8422 44.2327 10.9291 45.3359 10.9745 C 45.7791 10.9927 46.1878 11.1678 46.4312 11.3934 C 50.5954 8.84631 53.1029 5.00979 55.7782 1.304 L 53.2339 -0.639521 C 50.8288 2.69207 48.8003 5.67312 46.0041 7.77638 C 45.8258 7.75322 45.6508 7.72473 45.4626 7.71703 C 45.1271 7.70324 44.7991 7.72525 44.4651 7.74071 C 44.9074 7.14053 45.3487 6.56955 45.7719 5.99025 C 51.7751 -2.22708 54.8274 -12.4193 54.8274 -23.012 C 54.8274 -33.6048 51.7749 -43.7969 45.7719 -52.0141 C 44.2447 -54.1046 42.4824 -56.0884 40.5124 -57.891 Z M 50.3413 -55.1592 L 50.8137 -54.3768 L 82.3997 -54.3768 L 82.3997 -55.1592 Z M 51.9224 -52.5512 L 52.4364 -51.7688 L 82.3997 -51.7688 L 82.3997 -52.5512 Z M 53.507 -50.1388 L 54.3053 -48.9652 L 82.3997 -48.9652 L 82.3997 -50.1388 Z M 55.6403 -47.0744 L 56.7852 -45.5096 L 82.3997 -45.5096 L 82.3997 -47.0744 Z M 57.9132 -44.01 L 59.4364 -42.054 L 82.3997 -42.054 L 82.3997 -44.01 Z M 10.671 -35.2118 L -12.5424 -11.831 L -11.9028 -7.91238 L 10.2748 -30.25 Z M 76.0612 -17.9516 L 76.0612 3.912 L 78.5966 3.912 L 78.5966 -15.5996 Z M -10.1417 -5.216 L -11.3522 -3.97083 L -10.7916 0.652 L 10.9191 0.652 L 10.4249 -4.92438 L 10.1414 -5.216 L 7.60599 -2.608 L 5.07061 -5.216 L 2.53523 -2.608 L -0.00015 -5.216 L -2.53553 -2.608 L -5.07091 -5.216 L -7.60629 -2.608 Z M 55.9634 6.3896 L 55.7376 7.9544 L 79.0844 7.9544 L 80.8584 6.3896 Z M 55.4672 9.1932 L 55.0929 10.3668 L 76.2351 10.3668 L 77.6248 9.1932 Z M 54.7254 11.3448 L 54.3909 12.1272 L 73.9809 12.1272 L 74.9835 11.3448 Z M 82.3997 17.8009 C 71.8674 27.6814 58.8109 35.4594 44.9531 42.9783 L 47.3612 46.1015 C 60.0129 39.2289 72.1375 32.0309 82.3997 23.0189 Z"
       id="path1279"
       style="display:inline"
       inkscape:label="layer-10" />
    <path
       stroke="#4444ff"
       stroke-linecap="round"
       stroke-linejoin="round"
       stroke-width="0.7714300963794452"
       fill="none"
       d="M -16.395 -130.38 C -14.2818 -123.474 -8.03621 -123.197 -7.69306 -117.397 C -7.34652 -111.54 -15.2093 -111.091 -15.5252 -116.95 C -15.7387 -120.91 -11.2603 -121.111 -11.0497 -117.205 C -10.9444 -115.252 -13.7416 -115.093 -13.8469 -117.046 M -17.2142 -130.38 C -18.5535 -123.233 -24.7592 -122.256 -24.4761 -116.439 C -24.1909 -110.579 -16.3281 -111.027 -16.644 -116.886 C -16.8575 -120.846 -21.3301 -120.537 -21.1195 -116.631 C -21.0142 -114.678 -18.217 -114.837 -18.3223 -116.79 M 23.0866 -130.38 C 23.9465 -122.665 31.2527 -121.266 30.6078 -115.338 C 29.9734 -109.507 21.1262 -110.581 21.7952 -116.409 C 22.2473 -120.347 27.2769 -119.682 26.831 -115.797 C 26.608 -113.854 23.4606 -114.237 23.6836 -116.179 M 22.4138 -130.375 C 19.8037 -123.164 12.4359 -123.528 11.7236 -117.632 C 11.0202 -111.809 19.8673 -110.734 20.5362 -116.561 C 20.9883 -120.5 15.9464 -121.058 15.5005 -117.173 C 15.2775 -115.231 18.4248 -114.848 18.6478 -116.791 M 33.6152 -109.886 C 33.7849 -110.052 33.9509 -110.223 34.1131 -110.402 C 36.0919 -112.577 37.2376 -115.493 37.5976 -118.911 C 41.3808 -119.614 44.229 -120.622 46.4846 -121.778 M 27.7923 -110.717 C 31.7952 -112.264 34.1732 -115.719 33.8995 -122.289 C 45.5431 -123.702 47.4942 -127.356 52.0524 -130.408 M -36.9363 -122.321 C -35.3475 -121.115 -33.6468 -120.134 -31.7506 -119.641 C -31.3225 -118.114 -30.8473 -116.323 -29.8245 -114.337 C -29.3175 -113.353 -28.6382 -112.386 -27.7821 -111.481 M -22.0797 -111.951 C -27.4145 -114.61 -27.2046 -119.023 -28.8961 -123.199 C -32.3345 -123.099 -36.2188 -126.405 -39.9482 -130.392 M -4.85812 -112.628 C -3.25094 -114.66 -2.03134 -117.159 -1.39858 -120.077 C -0.025216 -120.666 1.18461 -121.505 2.17119 -122.497 C 3.0471 -121.401 4.16099 -120.431 5.46398 -119.692 C 5.76003 -116.947 6.59161 -114.502 7.80653 -112.411 M 2.08375 -130.387 C 1.0538 -126.667 -0.641819 -123.665 -4.77672 -123.152 C -5.20613 -117.925 -7.34696 -114.65 -10.4982 -112.531 M 12.6767 -112.144 C 10.3882 -114.532 9.03715 -117.782 9.14718 -122.371 C 5.07044 -123.348 3.70909 -126.55 3.08277 -130.389 M 52.6242 -130.299 C 40.4829 -114.16 37.7674 -107.628 35.0942 -99.7899 M -41.7476 -130.339 C -34.0777 -117.976 -30.2237 -110.401 -27.1011 -101.723 M -28.5554 -105.531 C -3.75861 -107.89 16.5346 -106.791 36.4532 -103.555 M -27.1207 -101.737 C -3.43227 -103.906 15.9858 -102.866 35.1039 -99.8127 M -31.011 -111.184 C -4.2542 -113.893 17.5532 -112.678 38.8667 -109.099 M 29.0316 12.1436 C 22.8004 -9.33088 25.5669 -33.6157 42.6448 -61.5307 C 49.9685 -44.3935 66.9184 -26.0662 82.4042 -12.4822 M 57.9863 58.1399 C 48.781 48.7059 40.9639 38.6467 35.3606 27.835 M -82.4022 -42.5734 C -68.6945 -53.827 -52.2401 -61.4777 -35.5897 -68.8712 M 14.4708 -58.4041 C 4.65616 -16.3812 11.4718 23.7263 26.5379 57.0913 M -17.643 -33.3304 L 3.6912 -54.8185 M -4.62745 -51.0024 L -18.7207 -36.8075 M -16.621 -29.7972 C -6.97414 -39.5134 2.67233 -49.23 12.3192 -58.9462 M -11.7065 -6.52 L 10.3149 -6.52 M -12.5423 -11.831 L 10.671 -35.2117 M 11.2471 -40.3545 L -13.2582 -15.6725 M -11.9029 -7.91243 L 10.2748 -30.25 M 10.1183 -9.78 L -10.0486 -9.78 M -33.5939 -64.548 C -34.8616 -64.548 -36.0535 -60.8247 -32.9601 -60.636 C -30.5549 -60.4893 -27.8893 -66.504 -32.9601 -66.504 C -38.6647 -66.504 -38.0474 -56.8754 -31.709 -56.8754 C -23.4789 -56.8754 -14.5786 -58.028 -12.6771 -64.548 C -5.70476 -47.596 6.36207 -54.0697 6.3383 -58.68 C 6.31965 -62.2959 1.90138 -62.592 1.26754 -60.636 C 0.401237 -57.9627 2.53523 -56.724 4.43676 -58.68 M -11.3522 -3.97083 L -10.1417 -5.216 L -7.60629 -2.608 L -5.07091 -5.216 L -2.53553 -2.608 L -0.00015 -5.216 L 2.53523 -2.608 L 5.07061 -5.216 L 7.60599 -2.608 L 10.1414 -5.216 L 10.4249 -4.92438 M -7.67573 -38.8082 C -7.47961 -38.6513 -7.29428 -38.4806 -7.12107 -38.2973 C -5.04685 -36.1028 -5.09484 -32.5942 -7.22824 -30.4605 C -9.36165 -28.3269 -12.7726 -28.3763 -14.8468 -30.5708 C -15.0111 -30.7446 -15.1642 -30.9294 -15.305 -31.1239 M 7.71484 -54.3094 C 7.93356 -54.1395 8.13935 -53.9526 8.33043 -53.7504 C 9.3265 -52.6966 9.8748 -51.2789 9.8547 -49.8092 C 9.83461 -48.3395 9.24776 -46.9382 8.22326 -45.9136 C 7.19876 -44.889 5.82053 -44.325 4.39177 -44.3457 C 2.96301 -44.3664 1.60075 -44.97 0.604678 -46.0239 C 0.42242 -46.2167 0.25405 -46.4229 0.100901 -46.6409 M 0.0196843 -46.5589 C 0.227035 -46.3954 0.422549 -46.2166 0.604678 -46.0239 C 2.6789 -43.8294 2.63091 -40.3207 0.497507 -38.1871 C -1.6359 -36.0535 -5.04685 -36.1028 -7.12107 -38.2973 C -7.29439 -38.4807 -7.45515 -38.6762 -7.60222 -38.8824 M -15.3707 -31.0569 C -15.1859 -30.9068 -15.0109 -30.7444 -14.8468 -30.5708 C -12.8218 -28.4283 -12.8127 -25.02 -14.8262 -22.8661 M -14.8287 -22.8554 C -12.6796 -24.8714 -9.36292 -24.7688 -7.33541 -22.6237 C -7.17557 -22.4546 -7.02638 -22.2752 -6.88877 -22.0865 M -6.82629 -22.1497 C -7.00563 -22.2964 -7.17568 -22.4547 -7.33541 -22.6237 C -9.40963 -24.8183 -9.36165 -28.3269 -7.22824 -30.4605 C -6.20374 -31.4851 -4.82552 -32.0491 -3.39676 -32.0285 C -1.96799 -32.0078 -0.605736 -31.4041 0.390339 -30.3503 C 0.541154 -30.1907 0.682488 -30.022 0.813574 -29.8449 M 13.1424 -52.1584 C 11.3809 -51.8341 9.57786 -52.4307 8.33043 -53.7504 C 8.13919 -53.9528 7.96325 -54.1698 7.80415 -54.3997 M 8.56551 -37.6523 C 8.40803 -37.785 8.25798 -37.9267 8.11609 -38.0769 C 6.04187 -40.2714 6.08985 -43.78 8.22326 -45.9136 C 9.30557 -46.9961 10.7797 -47.5618 12.2868 -47.4731 M 0.869541 -29.9009 C 0.70118 -30.0407 0.541156 -30.1907 0.390339 -30.3503 C -1.68388 -32.5448 -1.6359 -36.0535 0.497507 -38.1871 C 1.52201 -39.2117 2.90023 -39.7757 4.32899 -39.755 C 5.75775 -39.7344 7.12001 -39.1307 8.11609 -38.0769 C 8.25794 -37.9268 8.39141 -37.7685 8.51587 -37.6029 M 5.84864 -56.9915 L 9.03269 -60.1985 M -25.1328 -53.913 C -22.9937 -54.1384 -20.8826 -54.5205 -18.8892 -55.1503 C -16.7838 -55.8155 -14.7309 -56.8611 -13.0504 -58.3436 C -10.5616 -54.4579 -7.59432 -52.0758 -4.61094 -50.9816 M 37.9215 -62.1673 C 44.096 -60.0957 50.1156 -61.2321 55.7782 -69.764 C 56.6238 -65.4494 59.0769 -62.0785 61.4828 -58.68 C 64.0062 -62.5772 65.7076 -66.489 66.5536 -70.416 C 70.1207 -63.2456 76.2612 -61.1849 82.3954 -59.112 M 82.4016 -17.7923 C 68.2719 -30.5797 53.4822 -47.1429 46.7921 -61.9263 M 30.8239 -36.8942 C 33.0324 -32.8975 34.2275 -28.0232 34.2275 -23.0119 L 34.2275 -23.0119 C 34.2275 -14.9548 31.149 -7.48447 26.1113 -3.31714 M 26.443 0.0553548 C 28.3891 -1.26483 30.1263 -2.98249 31.5837 -4.97736 C 35.0445 -9.71467 37.0798 -16.0617 37.0798 -23.012 C 37.0798 -29.6234 35.2382 -35.6887 32.0798 -40.342 M 28.852 12.0506 C 33.6416 9.77072 37.6962 6.19112 40.7046 2.07315 C 45.8151 -4.92223 48.489 -13.705 48.489 -23.012 C 48.489 -32.3191 45.815 -41.1017 40.7046 -48.097 C 39.689 -49.4871 38.5542 -50.8159 37.3122 -52.054 M 34.5612 12.486 C 37.965 10.1579 40.8969 7.23665 43.2382 4.03171 C 48.7951 -3.57472 51.6582 -13.0627 51.6582 -23.012 C 51.6582 -32.9614 48.795 -42.4493 43.2382 -50.0555 C 41.9609 -51.8039 40.5079 -53.4679 38.8984 -54.9972 M 44.4487 7.702 C 44.9074 7.14066 45.3487 6.56955 45.7719 5.99025 C 51.7751 -2.22708 54.8274 -12.4193 54.8274 -23.012 C 54.8274 -33.6048 51.7749 -43.7969 45.7719 -52.0141 C 44.2447 -54.1046 42.4825 -56.0883 40.5125 -57.8909 M 65.0568 -78.5365 L 63.4594 -71.1212 C 63.0097 -69.0341 62.275 -66.9219 61.2555 -64.7826 C 60.1473 -66.6163 59.2722 -68.4331 58.885 -70.4084 L 57.3992 -77.9884 L 53.1609 -71.6021 C 50.8755 -68.1586 48.7273 -66.3093 46.7285 -65.3728 M 77.4476 -64.4111 C 74.0866 -65.9276 71.3275 -67.9763 69.3749 -71.9011 L 65.9945 -78.6959 M 42.5324 -61.3302 C 49.2194 -66.504 51.8738 -73.4836 54.9248 -80.2855 M 69.7379 -86.7369 C 69.2392 -86.7328 68.7484 -86.6078 68.3056 -86.3719 C 63.8017 -84.0555 61.6993 -84.0555 57.1954 -86.3719 C 56.1805 -86.9113 54.9619 -86.8472 54.0058 -86.204 C 53.0497 -85.5608 52.5041 -84.4382 52.5776 -83.2655 C 52.6511 -82.0928 53.3325 -81.0516 54.361 -80.5401 C 59.9987 -77.6405 65.5024 -77.6405 71.14 -80.5401 C 72.4759 -81.2029 73.1863 -82.7299 72.8501 -84.2157 C 72.5139 -85.7016 71.221 -86.749 69.7379 -86.7369 Z M 70.0079 -80.0132 C 73.2838 -70.5281 77.1798 -62.9513 82.397 -59.4397 M 82.4009 37.5056 C 74.3633 44.5436 65.1247 50.2164 55.2845 55.2927 M 82.4063 23.0161 C 72.143 32.0302 60.0149 39.2278 47.3612 46.1015 M 82.4041 17.8 C 71.8714 27.6816 58.8119 35.4587 44.953 42.9782 M 56.0347 3.912 L 82.3997 3.912 M 64.6521 -9.21742 L 69.6755 -2.87593 L 64.652 2.29168 M 64.6521 -9.21742 Z M 76.0613 -7.20056 L 70.5453 -14.1639 L 74.8336 -19.1047 M 69.3421 -24.5256 L 64.6521 -19.1217 M 73.8334 3.912 L 76.0612 1.62032 M 60.849 -33.7344 L 60.849 3.912 M 64.652 -29.4691 L 64.652 3.912 M 72.0667 -21.7908 L 65.5477 -14.2798 L 74.7936 -2.608 L 68.4551 3.912 M 76.0612 -17.9516 L 76.0612 3.912 M 78.5966 -15.5996 L 78.5966 3.912 M 60.7341 -40.424 L 82.3997 -40.424 M 45.3359 10.9745 C 44.7326 10.9497 44.1538 11.221 43.7762 11.7055 C 43.3985 12.19 43.267 12.8302 43.4217 13.4304 C 44.6532 18.4976 44.6501 20.409 43.4626 24.0736 C 43.2338 24.7403 43.3726 25.4821 43.8257 26.0139 C 44.2787 26.5456 44.9754 26.7845 45.648 26.6387 C 46.3206 26.4929 46.8644 25.9852 47.0703 25.3106 C 48.4181 21.1512 48.415 17.8466 47.1111 12.4817 C 46.9157 11.6261 46.1896 11.0096 45.3359 10.9745 Z M 46.7548 25.9262 L 55.7782 35.208 C 56.2554 32.4239 56.3913 29.3487 53.2428 23.472 C 56.9705 22.1785 59.976 20.0595 62.1167 16.952 C 60.0055 16.0836 57.0509 15.2143 53.2428 14.344 C 56.1196 9.52254 56.4252 5.30197 55.7782 1.304 C 53.1029 5.00979 50.5955 8.84622 46.3568 11.3353 M 82.4911 4.9458 C 76.8436 9.94636 68.9691 17.2689 60.2202 19.2236 M 43.3215 12.985 C 39.8138 12.7981 28.5117 12.0297 25.3129 12.0297 C 18.3406 12.0297 15.3034 15.648 24.086 15.648 M 55.7782 1.304 L 53.2339 -0.639521 C 50.8288 2.69207 48.8003 5.67312 46.0041 7.77638 C 45.8258 7.75322 45.6508 7.72473 45.4626 7.71703 C 45.1271 7.70324 44.7992 7.72538 44.4651 7.74084 M 31.6921 22.82 C 26.6213 22.82 24.086 23.472 21.5506 23.472 C 17.7475 23.472 16.4798 26.732 20.2829 26.732 L 30.7866 26.732 M 30.4244 18.908 C 29.7906 18.908 22.8183 19.56 20.2829 19.56 C 17.7475 19.56 14.5783 22.82 20.2829 23.472 M 29.7906 15.648 L 24.086 15.648 C 19.0152 15.648 14.5783 18.908 19.649 19.56 M 43.4888 25.0778 C 40.986 25.936 33.9459 28.3499 32.9598 28.688 C 31.0583 29.34 29.7906 29.992 28.4005 30.7925 C 25.0363 32.7298 24.086 29.34 25.9875 28.036 C 27.889 26.732 29.1567 26.732 29.1567 26.732 M 47.4599 14.0467 C 47.5654 13.9994 47.6693 13.9449 47.771 13.8833 C 49.3504 12.9558 50.69 11.8723 51.8914 10.7201 C 51.5874 11.3943 51.2452 12.0831 50.8119 12.8093 L 48.7198 16.3158 L 52.6241 17.2082 C 54.2234 17.5737 55.6263 17.9377 56.8939 18.2965 C 55.5967 19.2897 54.0913 20.0811 52.3312 20.6918 L 49.0978 21.814 L 50.7448 24.8881 C 51.1465 25.6378 51.4768 26.3073 51.7659 26.9314 L 48.7718 23.8515 C 48.4484 23.5101 48.0642 23.2672 47.6543 23.123 M 57.128 -90.9183 L 57.5085 -86.2219 M 69.7228 -91.3009 L 69.7228 -86.7359 M 55.1444 -116.708 C 55.1444 -105.624 60.2395 -88.672 51.9751 -88.672 C 47.5382 -88.672 47.1157 -95.0434 50.2724 -94.7541 C 52.609 -94.54 52.5537 -91.9339 51.3413 -91.28 C 54.6116 -94.0726 54.8305 -98.1124 51.3413 -103.668 C 53.8757 -105.494 51.9751 -113.448 51.9751 -116.056 C 51.9751 -121.924 59.5813 -120.685 59.5813 -117.36 C 59.5813 -114.1 55.7782 -114.1 55.1444 -116.708 Z M 56.0197 -91.7805 C 57.3616 -90.6357 60.0561 -88.672 62.7505 -88.672 C 66.5536 -88.672 72.2582 -91.932 72.2582 -95.192 C 72.2582 -96.7246 71.6978 -98.2573 71.1039 -99.4511 M 55.6459 -109.068 C 56.0475 -109.338 56.671 -109.536 57.6797 -109.536 C 60.849 -109.536 62.1167 -107.58 62.7505 -107.58 C 65.0613 -107.58 65.7868 -104.392 62.1167 -104.32 C 59.5817 -104.271 58.3136 -106.928 58.3136 -106.928 C 59.094 -105.082 60.4232 -103.132 58.9474 -101.712 C 63.4134 -100.825 64.7083 -97.81 64.652 -93.888 M 59.5222 -109.252 C 59.5321 -109.758 59.5514 -110.287 59.5813 -110.84 M 63.1956 -104.429 C 62.4971 -99.5012 60.2991 -99.7043 59.6789 -105.221 M 57.0761 -109.491 C 57.2409 -111.066 58.0802 -111.987 59.5813 -112.796 C 62.2574 -114.239 63.2466 -110.007 63.3759 -107.48 M 62.119 -112.128 C 67.1327 -116.594 66.968 -102.778 66.5536 -101.712 C 65.5203 -99.0549 63.2238 -98.1303 62.753 -102.469 M 65.5426 -111.74 C 68.574 -114.474 70.661 -109.519 70.0444 -105.079 C 69.2524 -99.376 66.578 -97.0149 66.235 -101.028 M 69.1752 -111.096 C 71.9498 -112.887 73.8789 -108.22 73.1755 -104.048 C 72.1762 -98.1202 69.2101 -97.7347 69.6719 -103.164 M 73.2853 -106.258 C 73.3653 -106.27 73.4456 -106.276 73.5259 -106.276 C 74.9261 -106.276 76.0612 -104.525 76.0612 -102.364 L 76.0612 -102.364 C 76.0612 -100.203 74.9261 -98.452 73.5259 -98.452 C 72.7806 -98.452 72.073 -98.958 71.5913 -99.8355 M 81.7659 -102.364 C 81.7659 -101.499 81.4653 -100.67 80.9304 -100.059 C 80.3955 -99.4475 79.67 -99.104 78.9136 -99.104 C 78.1571 -99.104 77.4316 -99.4475 76.8967 -100.059 C 76.3618 -100.67 76.0612 -101.499 76.0612 -102.364 C 76.0612 -103.229 76.3618 -104.058 76.8967 -104.669 C 77.4316 -105.281 78.1571 -105.624 78.9136 -105.624 C 79.67 -105.624 80.3955 -105.281 80.9304 -104.669 C 81.4653 -104.058 81.7659 -103.229 81.7659 -102.364 Z M 38.4435 -108.232 L 52.6422 -108.232 M 33.4686 -97.148 L 53.8497 -97.148 M 63.3843 -99.756 C 65.2122 -98.7309 66.7383 -97.4385 67.1874 -95.192 M 33.945 -18.9159 C 33.8672 -18.9106 33.7892 -18.908 33.7113 -18.908 C 32.7338 -18.908 31.7964 -19.3202 31.1052 -20.0538 C 30.4141 -20.7874 30.0258 -21.7825 30.0258 -22.82 C 30.0258 -23.8575 30.4141 -24.8526 31.1052 -25.5862 C 31.7964 -26.3198 32.7338 -26.732 33.7113 -26.732 C 33.8069 -26.732 33.9025 -26.728 33.9979 -26.7201 M 33.9625 -26.9598 C 33.6872 -26.8914 33.4053 -26.8569 33.1225 -26.8569 C 32.145 -26.8569 31.2076 -27.269 30.5165 -28.0027 C 29.8253 -28.7363 29.437 -29.7313 29.437 -30.7689 C 29.437 -32.4586 30.4591 -33.9573 31.9713 -34.4851 M 31.7747 -11.0968 C 30.2878 -11.6407 29.2898 -13.1261 29.2898 -14.7954 C 29.2898 -16.956 30.9399 -18.7074 32.9753 -18.7074 C 33.2902 -18.7074 33.6038 -18.6646 33.9085 -18.58 M 27.5444 -4.67009 C 26.6488 -5.41138 26.1252 -6.54954 26.1252 -7.75503 C 26.1252 -8.79255 26.5135 -9.78759 27.2047 -10.5212 C 27.8958 -11.2549 28.8332 -11.667 29.8107 -11.667 C 30.5013 -11.667 31.1781 -11.461 31.7637 -11.0726 M 26.1933 -3.72439 C 26.2543 -3.66385 26.3169 -3.60467 26.381 -3.54693 M 28.3593 -28.4114 C 28.6946 -27.6701 29.1824 -27.0154 29.7807 -26.4954 C 28.9473 -25.5104 28.4412 -24.2178 28.4412 -22.82 C 28.4412 -21.4351 28.9383 -20.1539 29.7579 -19.1724 C 28.5085 -18.1505 27.7053 -16.5566 27.7053 -14.7956 C 27.7053 -14.1593 27.8099 -13.5397 28.0044 -12.9588 C 27.2618 -12.6708 26.5979 -12.2112 26.0549 -11.6283 M 31.2861 -35.9635 C 30.9574 -35.8352 30.6466 -35.6747 30.3563 -35.4865 M 10.7752 -67.156 C 10.7752 -71.72 6.3383 -71.72 6.3383 -66.504 C 6.3383 -61.288 13.3106 -63.896 13.3106 -68.46 C 13.3106 -74.98 3.80292 -73.676 3.80292 -67.156 C 3.80292 -58.7922 18.2679 -56.982 26.5079 -57.634 C 34.702 -58.2824 42.9296 -63.9571 42.9972 -72.4105 C 43.0918 -84.2258 34.725 -89.073 32.7218 -100.135 M 7.25952 -61.2653 C 13.4312 -61.0623 15.846 -63.896 15.9074 -69.9481 C 16.006 -79.6724 7.60599 -80.848 8.30673 -102.571 M 9.02888 -60.1946 L 9.04095 -60.1943 M 36.5517 -61.1226 C 39.3819 -63.8334 41.0482 -68.3681 41.0806 -72.4105 C 41.1759 -84.3187 32.8308 -89.1487 30.9396 -100.397 M 35.3041 -60.3574 C 37.8806 -63.295 39.1327 -68.5154 39.1639 -72.4105 C 39.26 -84.4115 30.9405 -89.2236 29.161 -100.661 M 32.9016 -59.1869 C 35.8153 -62.0582 37.2141 -68.2709 37.2472 -72.4105 C 37.344 -84.4987 29.0616 -89.2931 27.3881 -100.912 M 30.9254 -58.4676 C 33.8884 -61.3665 35.2972 -68.2358 35.3306 -72.4105 C 35.4279 -84.5722 27.205 -89.3512 25.6236 -101.124 M 29.2277 -58.0343 C 32.0495 -61.1253 33.3813 -68.3328 33.4139 -72.4105 C 33.5118 -84.6418 25.357 -89.4057 23.8627 -101.327 M 26.9686 -57.6726 C 30.0346 -60.5241 31.4633 -68.1642 31.4973 -72.4105 C 31.5957 -84.709 23.5153 -89.4578 22.1046 -101.524 M 24.9065 -57.529 C 28.0826 -60.2589 29.546 -68.0908 29.5806 -72.4105 C 29.6796 -84.7733 21.6804 -89.5072 20.3493 -101.714 M 22.9775 -57.5056 C 26.1722 -60.2138 27.6293 -68.0784 27.6639 -72.4105 C 27.7633 -84.8223 19.868 -89.5446 18.6001 -101.86 M 21.1324 -57.5541 C 24.2872 -60.3066 25.7128 -68.104 25.7473 -72.4105 C 25.847 -84.8713 18.058 -89.5818 16.852 -102.006 M 19.3589 -57.6695 C 22.4232 -60.5186 23.7966 -68.1627 23.8306 -72.4105 C 23.9308 -84.9204 16.2504 -89.6188 15.1048 -102.153 M 17.6513 -57.8571 C 20.595 -60.8414 22.2486 -68.2669 21.914 -72.4105 C 20.9167 -84.76 13.9444 -88.02 13.3585 -102.3 M 15.0331 -58.2858 C 18.5035 -61.0249 20.417 -67.6906 19.9973 -72.4105 C 19.0152 -83.456 12.0429 -84.108 11.6174 -102.396 M 12.3192 -58.9462 C 16.667 -60.964 18.4634 -67.0748 18.2888 -70.9117 C 17.7475 -82.804 10.1414 -81.5 9.87697 -102.488 M 13.1627 -67.3216 C 13.5468 -69.7249 13.7592 -70.1116 13.6666 -71.5737 C 13.1127 -80.3238 5.26044 -77.2687 6.39653 -102.672 M 4.43676 -58.68 C 1.26754 -54.116 -5.12143 -57.5836 -8.24014 -64.548 M 1.31132 -58.4894 C -1.47314 -59.5097 -4.20494 -61.8507 -5.70476 -65.2 M 9.02888 -60.1946 C 8.33701 -59.1983 7.39368 -58.5436 6.30919 -58.2013 M 1.50086 -61.0496 C -0.606321 -61.9314 -2.56338 -63.7353 -3.80322 -66.504 M 7.16302 -61.2944 C 3.84705 -61.1864 0.0678033 -63.4099 -1.90169 -67.808 M 4.61593 -63.9851 C 2.79277 -64.9093 1.12398 -66.6017 -0.00015 -69.112 M 3.83492 -67.5071 C 2.93871 -68.3281 2.16314 -69.3809 1.57978 -70.6837 M 4.5471 -69.9989 C 4.02768 -70.7024 3.5623 -71.4939 3.16907 -72.372 M 6.46165 -71.9373 C 5.93698 -72.6452 5.46712 -73.4425 5.07061 -74.328 M 8.83205 -72.696 C 8.11663 -73.5126 7.48341 -74.4903 6.97214 -75.632 M -33.5939 -60.636 C -27.4232 -59.5981 -25.435 -64.4222 -25.4538 -69.8039 C -25.4731 -75.3117 -28.5232 -80.848 -27.2555 -86.064 M -32.6052 -56.9959 C -26.4344 -55.9581 -23.8218 -64.2081 -23.8406 -69.5897 C -23.8599 -75.0975 -27.2555 -78.24 -27.2555 -86.064 M -26.6662 -57.0601 C -23.7486 -59.085 -22.3182 -63.8368 -22.0963 -67.6598 M -23.9086 -57.3539 C -21.6237 -59.6575 -20.4797 -63.7709 -20.2832 -67.156 M -21.0067 -57.9222 C -19.3836 -60.2899 -18.547 -63.6549 -18.3817 -66.504 M -18.1875 -58.8758 C -17.161 -61.0253 -16.6108 -63.5998 -16.4801 -65.852 M -15.4105 -60.5057 C -14.9371 -62.0667 -14.6654 -63.7044 -14.5786 -65.2 M -27.2555 -86.064 C -27.2555 -86.064 -26.4971 -75.6295 -26.6216 -72.372 C -26.8183 -67.2305 -36.1293 -62.2466 -36.1293 -72.372 C -36.1293 -78.892 -28.5232 -78.24 -28.5232 -73.024 C -28.5232 -67.808 -34.2278 -69.112 -34.2278 -72.372 C -34.2278 -75.632 -29.7909 -74.98 -29.7909 -72.372 M -28.5816 -84.9954 C -28.8224 -82.664 -29.713 -81.4684 -29.5307 -79.7485 C -29.4246 -78.7481 -28.5232 -76.284 -28.5232 -73.024 M -25.6602 -102.039 C -26.1979 -100.285 -27.2555 -96.6507 -27.2555 -95.192 C -27.2555 -93.236 -26.6216 -91.932 -26.6216 -88.672 C -26.6216 -83.456 -35.4955 -81.5 -35.4955 -88.672 C -35.4955 -94.54 -27.8893 -95.844 -27.8893 -90.628 C -27.8893 -85.412 -32.9601 -86.716 -32.9601 -89.324 C -32.9601 -91.932 -29.7909 -91.932 -29.7909 -89.976 M -27.0223 -101.814 C -27.7463 -100.388 -28.5846 -98.4157 -28.5846 -96.9339 C -28.5846 -94.2456 -27.8893 -90.628 -27.8893 -90.628 M -27.2034 -95.8975 C -27.2034 -95.8975 -25.354 -98.452 -22.8186 -98.452 C -20.2832 -98.452 -19.0155 -97.148 -17.7478 -97.148 C -17.114 -97.148 -15.8463 -98.452 -15.8463 -98.452 L -15.8463 -97.148 C -16.4801 -97.148 -17.0905 -96.5105 -17.7478 -96.496 C -18.3817 -96.496 -21.5509 -98.452 -22.1847 -98.452 M 2.53523 -96.496 C 2.53523 -96.496 -1.90169 -99.104 -3.16938 -99.104 C -5.07091 -99.104 -7.60629 -97.8 -8.87398 -97.8 C -10.1417 -97.8 -12.0432 -98.452 -12.0432 -98.452 L -12.0432 -97.8 C -10.9724 -97.8 -9.48504 -97.1449 -8.87398 -97.148 C -8.24578 -97.1512 -5.07091 -99.104 -3.16938 -99.104 M -15.8463 -97.148 C -15.8463 -97.148 -14.5786 -93.888 -14.5786 -93.236 C -14.5786 -92.584 -17.114 -86.716 -17.114 -85.412 C -17.114 -84.108 -18.3817 -80.848 -18.3817 -80.196 C -18.3817 -79.544 -16.4801 -78.24 -15.8463 -78.24 C -15.2124 -78.24 -13.3109 -79.544 -12.0432 -80.196 C -11.4763 -80.4876 -10.7755 -78.892 -15.8463 -78.24 M -10.7755 -82.804 C -7.60629 -82.804 -7.11285 -79.6118 -9.35171 -78.7753 C -10.2029 -78.4573 -11.4717 -78.9796 -11.6504 -79.9634 M -18.3817 -74.98 L -19.6493 -72.372 L -18.3817 -73.676 L -18.3817 -74.98 Z M -5.70476 -74.98 L -5.07091 -72.372 L -6.3386 -74.328 L -5.70476 -74.98 Z M -19.0155 -73.024 L -18.4558 -73.7535 C -18.3319 -73.915 -16.4801 -74.328 -15.2124 -75.632 C -15.2124 -75.632 -15.2124 -74.328 -13.5284 -74.328 C -12.2607 -74.328 -11.4094 -75.632 -11.4094 -75.632 C -11.4094 -75.632 -10.1417 -74.328 -8.87398 -74.328 L -5.70476 -73.676 L -6.3386 -74.328 C -9.93463 -73.4527 -17.7478 -74.6762 -19.0155 -73.024 Z M -15.2124 -71.72 C -13.0685 -69.4738 -11.4094 -69.764 -9.50783 -71.72 M -26.6216 -91.932 C -24.0863 -91.932 -22.7748 -94.0495 -21.5082 -93.9951 C -19.0155 -93.888 -18.3817 -91.932 -17.114 -91.932 C -17.7478 -91.932 -19.0155 -89.976 -22.1847 -89.976 C -24.0863 -89.976 -24.0863 -91.932 -26.6216 -91.932 Z M -0.633995 -91.932 C -3.16938 -91.932 -4.48084 -94.0495 -5.74743 -93.9951 C -8.24014 -93.888 -8.87398 -91.932 -10.1417 -91.932 C -9.50783 -91.932 -8.24014 -89.976 -5.07091 -89.976 C -3.16938 -89.976 -3.16938 -91.932 -0.633995 -91.932 Z M 46.9044 -106.276 L 43.7352 -102.364 L 47.5382 -99.104 M 41.3149 -102.364 L 43.7352 -102.364 M 39.2982 -99.104 L 43.7352 -106.276 L 43.7352 -99.104"
       id="path1275"
       style="display:inline"
       inkscape:label="layer-16" />
    <path
       id="path826"
       d="M 36.6662 2.22433 C 37.3945 2.83538 37.5117 4.17463 36.9006 4.90285 C 36.2894 5.63106 34.95 5.74823 33.8575 4.83167 C 32.0366 3.30406 31.5679 -2.05298 30.8395 -2.66402 C 31.5679 -2.05298 36.9258 -2.52166 38.7466 -0.994046 C 39.8391 -0.07748 39.9563 1.26178 39.3451 1.98999 C 38.734 2.71821 37.3945 2.83538 36.6662 2.22433 Z M 43.8803 -10.6302 C 44.7737 -10.3051 45.3419 -9.08666 45.0168 -8.19338 C 44.6916 -7.30009 43.473 -6.73193 42.1328 -7.21963 C 39.8992 -8.03245 37.6263 -12.9061 36.7328 -13.2312 C 37.6263 -12.9061 42.5007 -15.1787 44.7343 -14.3659 C 46.0744 -13.8782 46.6427 -12.6598 46.3175 -11.7665 C 45.9923 -10.8732 44.7737 -10.3051 43.8803 -10.6302 Z M 41.5151 -40.2851 C 42.3385 -40.7604 43.6372 -40.4125 44.1126 -39.5892 C 44.588 -38.766 44.24 -37.4674 43.0049 -36.7544 C 40.9465 -35.5662 35.7514 -36.958 34.928 -36.4827 C 35.7514 -36.958 37.1434 -42.1522 39.2019 -43.3405 C 40.4369 -44.0535 41.7357 -43.7055 42.2111 -42.8822 C 42.6865 -42.059 42.3385 -40.7604 41.5151 -40.2851 Z M 45.6894 -26.1982 C 46.6366 -26.281 47.6666 -25.4169 47.7495 -24.4699 C 47.8323 -23.5229 46.9681 -22.493 45.5473 -22.3687 C 43.1794 -22.1616 39.0594 -25.6182 38.1122 -25.5353 C 39.0594 -25.6182 42.5165 -29.7376 44.8844 -29.9447 C 46.3051 -30.069 47.3352 -29.2048 47.418 -28.2579 C 47.5009 -27.3109 46.6366 -26.281 45.6894 -26.1982 Z"
       style="display:inline"
       inkscape:label="layer-13" />
    <path
       stroke="#4444ff"
       stroke-linecap="round"
       stroke-linejoin="round"
       stroke-width="0.3857150481897226"
       fill="none"
       d="M 19.2398 19.6972 C 19.8657 21.1852 19.6683 22.0794 19.3439 23.288 M 19.8139 23.7787 C 20.4398 25.2667 20.3205 25.4918 19.996 26.7004 M 19.8659 16.3391 C 20.4918 17.827 20.3465 18.2127 20.022 19.4214 M 37.5552 -106.276 L 52.5429 -106.276 M 36.5858 -103.885 L 51.5656 -103.885 M 35.6967 -101.495 L 52.5513 -101.495 M 32.9598 -99.104 L 53.482 -99.104 M 62.7505 -102.364 C 64.0226 -102.583 65.2902 -102.361 66.5536 -101.712 M 59.8988 -103.586 C 61.1709 -103.805 61.762 -103.797 63.0254 -103.148 M 66.6796 -101.64 C 67.9517 -101.859 67.9704 -101.77 69.2337 -101.122 M 69.7488 -101.15 C 71.0209 -101.369 70.9666 -101.469 72.2299 -100.821 M 61.4828 -108.232 C 60.849 -106.928 64.177 -106.132 64.6466 -106.238 M 67.8213 -106.928 C 68.206 -107.239 68.635 -107.187 69.089 -106.928 M 70.9957 -106.366 C 71.3804 -106.677 71.8094 -106.624 72.2634 -106.366 M 64.2826 -107.865 C 64.6673 -108.176 65.0963 -108.123 65.5502 -107.865 M 24.086 16.952 C 24.379 17.5158 24.2737 17.9041 24.086 18.256 M 23.9559 20.5385 C 24.2489 21.1024 24.1436 21.4906 23.9559 21.8425 M 24.4763 24.5265 C 24.7693 25.0904 24.664 25.4786 24.4763 25.8305 M -25.9878 -91.932 C -24.7201 -91.932 -24.0862 -88.7809 -21.5082 -88.7255 C -19.0155 -88.672 -16.4801 -91.932 -15.8463 -91.932 M -0.530417 -91.8791 C -1.79811 -91.8791 -2.43199 -88.728 -5.01001 -88.6727 C -7.50271 -88.6191 -10.0381 -91.8791 -10.6719 -91.8791 M -26.6216 -91.932 C -24.7201 -91.932 -23.6487 -95.5853 -21.5509 -95.844 C -19.9532 -96.041 -17.114 -93.888 -17.114 -93.888 M -0.633995 -93.888 C -0.633995 -93.888 -4.32359 -96.0283 -5.92123 -95.8313 C -8.01902 -95.5726 -9.09045 -91.9193 -10.992 -91.9193 C -10.1417 -91.932 -9.50783 -88.672 -9.50783 -88.672 M -26.6216 -91.28 C -26.2894 -88.8026 -23.5558 -86.9657 -23.4524 -87.368 M -18.3817 -78.24 C -20.2832 -76.284 -21.1406 -74.8839 -22.1847 -73.024 M -6.97245 -79.544 C -6.3386 -76.936 -2.75924 -73.8597 -2.53553 -74.328 M -14.5786 -66.504 C -13.9447 -69.112 -11.4094 -68.46 -10.1417 -67.156 M -19.7771 -93.5314 C -19.6927 -93.2294 -19.6493 -92.9081 -19.6493 -92.584 L -19.6493 -92.584 C -19.6493 -91.4218 -20.201 -90.3998 -21.0021 -90.078 M -21.789 -90.0031 C -22.7087 -90.1892 -23.391 -91.2884 -23.391 -92.584 C -23.391 -92.7712 -23.3766 -92.9578 -23.3479 -93.1407 M -21.0021 -90.078 C -21.1705 -90.0103 -21.3449 -89.976 -21.5202 -89.976 C -21.6101 -89.976 -21.7 -89.985 -21.789 -90.0031 M -4.20706 -93.3336 C -4.12927 -93.0424 -4.08944 -92.7341 -4.08944 -92.4234 L -4.08944 -92.4234 C -4.08944 -91.3474 -4.56351 -90.3818 -5.28306 -89.9923 M -6.99832 -90.2537 C -7.51861 -90.7374 -7.8311 -91.5516 -7.8311 -92.4234 C -7.8311 -92.7628 -7.78358 -93.0989 -7.6912 -93.413 M -5.28306 -89.9923 C -5.49899 -89.8754 -5.72862 -89.8154 -5.96027 -89.8154 C -6.32974 -89.8154 -6.69094 -89.9679 -6.99832 -90.2537 M 16.4798 -57.376 L 13.8238 -55.4845 M 16.4798 -55.42 L 13.3455 -53.1879 M 16.4798 -53.464 L 12.8952 -50.9112 M 16.2089 -51.3151 L 12.496 -48.671 M 15.7825 -49.0554 L 12.112 -46.4415 M 15.3932 -46.8222 L 11.7807 -44.2496 M 15.0431 -44.6168 L 11.4669 -42.0701 M 14.7117 -42.4249 L 11.1911 -39.9177 M 14.4323 -40.2698 L 10.9424 -37.7846 M 14.1648 -38.1234 L 10.7193 -35.6697 M 13.942 -36.0087 L 10.5308 -33.5795 M 13.7375 -33.9071 L 10.3585 -31.5008 M 13.5648 -31.8281 L 10.2263 -29.4506 M 13.4192 -29.7684 L 10.1022 -27.4063 M 13.295 -27.724 L 10.0226 -25.3936 M 13.2042 -25.7033 L 9.94769 -23.3842 M 13.0868 -21.7077 L 9.88755 -19.4294 M 13.1265 -23.6919 L 9.91432 -21.4045 M 13.0536 -19.7281 L 9.89704 -17.4802 M 13.062 -17.778 L 9.91505 -15.537 M 13.0747 -15.8311 L 9.96565 -13.617 M 13.1254 -13.9112 L 10.0265 -11.7044 M 13.1824 -11.9958 L 10.1166 -9.81255 M 13.2728 -10.1041 L 10.2179 -7.92865 M 13.3718 -8.21867 L 10.3464 -6.06414 M 13.5003 -6.35416 L 10.4858 -4.20742 M 13.639 -4.49692 L 10.6512 -2.36925 M 13.8043 -2.65867 L 10.8271 -0.538515 M 13.9808 -0.828383 L 11.0282 1.27432 M 14.1821 0.984298 L 11.2387 3.0804 M 14.3948 2.78881 L 11.4742 4.86867 M 14.6303 4.57708 L 11.718 6.65107 M 14.8773 6.35718 L 11.9869 8.41557 M 15.1465 8.12149 L 12.2622 10.1755 M 23.0516 -3.39979 L 26.7632 1.72715 M 22.8764 -6.97508 L 26.3349 -2.19782 M 22.863 -10.327 L 26.0838 -5.878 M 22.9714 -13.5105 L 26.0001 -9.32695 M 23.2 -16.5281 L 26.0804 -12.5495 M 23.5175 -19.4229 L 26.2634 -15.6301 M 23.915 -22.2072 L 26.567 -18.544 M 24.3842 -24.8924 L 26.9541 -21.3427 M 24.9185 -27.4878 L 27.4164 -24.0375 M 25.5111 -30.0025 L 27.9463 -26.6388 M 26.1573 -32.4434 L 28.5378 -29.1552 M 26.8516 -34.8176 L 29.1844 -31.5953 M 27.5902 -37.1307 L 29.8814 -33.9659 M 28.3691 -39.3882 L 30.6243 -36.2732 M 29.1848 -41.5949 L 31.4088 -38.5228 M 30.0342 -43.7549 L 32.2316 -40.7197 M 30.9147 -45.8721 L 33.1031 -42.8491 M 31.8235 -47.95 L 33.9891 -44.9587 M 32.7609 -49.9885 L 34.9039 -47.0285 M 33.7301 -51.9832 L 35.8602 -49.0408 M 34.7214 -53.9472 L 36.8165 -51.0532 M 35.7337 -55.8823 L 37.8311 -52.9852 M 36.7678 -57.7872 L 38.8513 -54.9092 M 37.8418 -59.6371 L 39.8864 -56.8129 M 24.7365 13.0175 C 25.0295 13.5814 24.9242 13.9696 24.7365 14.3215 M 20.6819 12.5877 C 21.3078 14.0756 21.0844 14.3542 20.76 15.5629 M 23.4521 0.652 L 27.1638 5.12694 M 24.086 4.564 L 28.266 9.41365 M 24.6678 8.85072 L 27.7119 11.9804 M 29.4336 29.992 C 28.5229 29.0135 25.3536 30.644 25.3536 30.644 M 12.7357 12.91 L 16.694 16.6909 M 13.343 16.0981 L 17.4023 19.9754 M 14.0232 19.3558 L 18.1961 23.3417 M 14.7824 22.689 L 19.0823 26.7961 M 15.6276 26.1042 L 20.0694 30.3469 M 16.5663 29.6089 L 21.167 34.0034 M 17.6068 33.2108 L 22.3856 37.7753 M 18.7592 36.9195 L 23.7379 41.675 M 20.0338 40.7449 L 25.2796 45.7556 M 21.4649 44.7199 L 26.9217 49.932 M 23.0772 48.8679 L 27.889 53.464 M 24.8496 53.1688 L 27.889 56.072 M 57.4697 57.5955 L 56.8044 58.7128 M 56.1973 56.2547 L 54.4898 59.1222 M 54.9248 54.914 L 53.2175 57.7814 M 53.6741 53.5368 L 51.9532 56.427 M 52.4309 52.1472 L 50.7099 55.0374 M 51.1919 50.7503 L 49.4664 53.6482 M 49.9806 49.307 L 48.2429 52.2252 M 48.7693 47.8636 L 47.0315 50.7821 M 47.5784 46.386 L 45.8203 49.3386 M 46.4023 44.8836 L 44.6441 47.8362 M 45.2295 43.3756 L 43.468 46.3337 M 44.0924 41.8076 L 42.3094 44.802 M 42.9552 40.2398 L 41.1723 43.234 M 41.846 38.6249 L 40.0353 41.6659 M 40.7521 36.9845 L 38.9391 40.0292 M 39.4102 34.8912 L 37.5718 37.9785 M 38.364 33.1705 L 36.5144 36.2767 M 37.3306 31.4284 L 35.4686 34.5554 M 36.338 29.6178 L 34.444 32.7986 M 35.2961 27.89 L 33.8463 30.3247"
       id="path1263"
       style="display:inline"
       inkscape:label="layer-17" />
    <path
       d="m -61.84,-118.24 c 0,-4.64 4.64,-9.28 9.28,-9.28 4.64,0 9.28,4.64 9.28,11.6 0,11.6 -18.56,30.16 -18.56,34.8 0,-4.64 -18.56,-23.2 -18.56,-34.8 0,-6.96 4.64,-11.6 9.28,-11.6 4.64,0 9.28,4.64 9.28,9.28 z"
       fill="#ff0000"
       id="path1259"
       style="display:none" />
  </g>
</svg>
