<?xml version="1.0" encoding="UTF-8" standalone="no"?>
<svg
   class="card"
   face="KS"
   height="3.5in"
   preserveAspectRatio="none"
   viewBox="-120 -168 240 336"
   width="2.5in"
   version="1.1"
   id="svg79"
   sodipodi:docname="k-spade.svg"
   inkscape:version="1.2.2 (732a01da63, 2022-12-09)"
   xmlns:inkscape="http://www.inkscape.org/namespaces/inkscape"
   xmlns:sodipodi="http://sodipodi.sourceforge.net/DTD/sodipodi-0.dtd"
   xmlns="http://www.w3.org/2000/svg"
   xmlns:svg="http://www.w3.org/2000/svg">
  <sodipodi:namedview
     id="namedview81"
     pagecolor="#505050"
     bordercolor="#eeeeee"
     borderopacity="1"
     inkscape:showpageshadow="0"
     inkscape:pageopacity="0"
     inkscape:pagecheckerboard="0"
     inkscape:deskcolor="#505050"
     inkscape:document-units="in"
     showgrid="false"
     inkscape:zoom="3.0565476"
     inkscape:cx="120.23369"
     inkscape:cy="168.65433"
     inkscape:window-width="1278"
     inkscape:window-height="1368"
     inkscape:window-x="0"
     inkscape:window-y="0"
     inkscape:window-maximized="0"
     inkscape:current-layer="layer1" />
  <defs
     id="defs35" />
  <g
     inkscape:groupmode="layer"
     id="layer1"
     inkscape:label="Layer 1">
    <path
       d="M 1,0 0,1 -1,0 0,-1"
       id="path1736"
       fill="#ff0000"
       inkscape:label="layer-0"
       style="display:inline;stroke-width:0.264583" />
    <path
       fill="#ffcc44"
       d="m -40.2656,-130.4 c 11.1835,15.598 16.2384,23.912 20.3662,33.7252 23.5283,-3.4992 42.9726,-3.5482 62.2198,-1.5584 2.2824,-8.0788 4.6883,-14.8348 16.3785,-32.1668 z m 33.88119,67.28 -10.25339,1.0621 c 3.6755,13.3797 6.84103,27.1904 8.26916,41.5077 5.79679,1.5793 11.51547,1.3299 18.41424,-0.3469 2.3086,-11.7399 6.3841,-23.6535 12.6484,-35.6043 l -0.5096,-1.5266 -0.6338,1.304 c -0.8005,0.4106 -1.6433,0.4488 -2.5478,0.7422 -1.157,0.3752 -2.3986,0.9806 -3.6057,1.3083 -1.5402,0.4181 -3.1043,1.1764 -4.3389,0.6866 -0.3747,-0.1486 -0.8157,0.6649 -1.21172,0.7414 -3.88246,8.6754 -6.76882,17.356 -8.77206,25.9377 -1.606854,-12.4642 -4.3577,-24.3838 -7.45883,-35.8122 z m 58.87551,2.119 C 36.4681,-38.9898 30.9485,-18.7522 30.4204,1.61675 29.911,21.2686 34.4529,41.2341 40.304,61.7169 l 3.7721,-0.6754 C 38.2084,40.5374 33.7266,20.8306 34.222,1.72118 34.7392,-18.2271 40.0831,-37.8066 56.2103,-59.5788 Z m 5.1924,2.944 c -0.8026,1.579 -1.6403,3.1612 -0.2687,4.5416 l -0.0767,0.1209 c -0.9903,-0.2692 -2.039,-0.4664 -3.1178,-0.6265 0.6221,0.8646 1.2565,1.6994 1.9192,2.4656 0.0062,0.0072 0.0125,0.014 0.0188,0.0212 l -0.0169,0.0262 c -1.7553,-0.3796 -3.2094,-0.1705 -3.9962,2.1513 4.6291,-1.2638 9.8129,5.4218 11.873,1.7816 2.42,-3.3978 -5.6101,-5.6121 -6.3347,-10.4819 z m -23.1168,3.6631 c -6.6237,11.7022 -10.8056,23.2175 -13.1528,34.5772 l 0.0792,-0.4661 c -9.2248,3.2203 -16.59846,5.0461 -23.83204,4.6534 -5.95308,-0.3232 -11.58146,-2.2193 -17.62086,-5.7295 l 0.7663,9.1627 c 5.3728,2.54157 10.80267,4.07333 16.4537,4.3801 7.55947,0.41036 14.7604,-1.13968 22.7464,-3.7266 l 0.0463,-0.272 c -3.271,24.3537 1.3368,48.0167 7.744,71.3018 l 3.7652,-0.6915 C 26.3122,39.7532 22.3174,20.6804 22.817,1.40816 23.2811,-16.4914 27.5239,-34.6095 38.3903,-53.3929 Z m 17.2371,6.2839 c -0.7402,1.611 -1.5154,3.2265 -0.0909,4.549 l 0.0946,0.1623 c -1.0488,-0.2496 -2.1618,-0.4134 -3.3061,-0.5351 0.6519,0.8338 1.3148,1.6376 1.9874,2.4027 -1.7844,-0.2768 -3.1832,-0.0089 -3.8786,2.3436 4.5759,-1.4543 10.0171,5.0114 11.9332,1.289 2.2852,-3.4952 -5.8252,-5.3755 -6.7396,-10.2115 z m -5.7573,10.1715 c -0.4702,1.715 -0.9741,3.4405 0.644,4.5016 l -0.1894,0.1271 c -0.9803,-0.0447 -1.9992,-0.0148 -3.0378,0.0532 0.79,0.7226 1.5864,1.4125 2.389,2.0449 -1.8017,0.0168 -3.1822,0.5196 -3.4886,2.9582 4.278,-2.215 10.6865,3.233 11.9757,-0.7648 1.6899,-3.8367 -6.6113,-4.3073 -8.2929,-8.9202 z m -4.2391,10.5153 c -0.3955,1.7348 -0.824,3.4817 0.8383,4.4677 l -0.2023,0.1355 c -0.9756,0.0012 -1.9857,0.0775 -3.0139,0.1923 0.8617,0.7201 1.7288,1.404 2.6084,2.0021 l -0.0958,0.0634 c -1.792,0.0815 -3.1941,0.5329 -3.3946,2.9832 4.1779,-2.4088 10.8158,2.7402 11.9307,-1.3127 1.5221,-3.9102 -6.7912,-4.0002 -8.6708,-8.5315 z m 21.5769,10.8965 c -3.1692,0 -5.0707,3.7368 -5.0707,6.52 0,5.86803 7.6768,5.13835 8.0449,2.20664 0.1951,-1.55452 -2.3403,-4.81464 -2.3403,-4.81464 3.7397,-0.1817 7.0315,3.27044 10.7754,3.26003 2.2058,-0.00613 5.7046,-1.95603 5.7046,-1.95603 -0.0265,-1.4089 1.0007,-2.5623 0,-4.564 -3.1693,1.304 -11.7833,-0.652 -17.1139,-0.652 z m -9.4034,8.12812 c -1.8856,18.96028 11.489,42.03348 21.5386,58.75998 2.65,-1.3783 4.9809,-2.746 6.8802,-4.0656 V 33.1733 c -2.5766,-4.5167 -5.9852,-10.5279 -7.85,-14.5559 0.3198,-0.1102 0.6339,-0.2533 0.9366,-0.4327 0.976,-0.5643 1.3233,-1.8636 0.7631,-2.8617 -0.5613,-1 -1.8328,-1.3401 -2.7966,-0.748 l 0.0097,-0.0059 c -0.6495,0.3857 -0.8814,0.1252 -0.9674,-0.028 -0.086,-0.1531 -0.1892,-0.4899 0.4603,-0.8756 l -0.0094,0.0056 c 0.8523,-0.4898 1.1765,-1.4913 0.9817,-2.3148 C 73.7329,10.5328 72.9978,9.79647 72.022,9.76421 71.636,9.75143 71.2545,9.8527 70.9224,10.0553 c -1.2811,0.7628 -2.1325,2.0199 -2.4128,3.3754 0.1629,-1.032 0.6885,-1.9544 1.4705,-2.6597 C 61.7452,9.60178 58.689,4.13779 61.0248,-5.69838 58.4627,-6.52689 56.1166,-7.48122 53.9809,-8.39858 Z M -0.0877994,-7.66075 C -3.09525,-7.63704 -6.06829,-6.39171 -5.47003,-3.92499 L -5.70476,-3.912 c -9.50764,-9.78 -9.50764,17.604 0,7.824 L -5.46063,3.88755 C -6.74357,8.90104 6.65285,8.91864 5.47345,3.94053 L 5.70445,3.912 c 9.50765,9.78 9.50765,-17.604 0,-7.824 L 5.50044,-4.06736 C 5.96141,-6.48667 2.91965,-7.68445 -0.0877994,-7.66075 Z M 39.9348,6.38934 c -0.5276,-0.0013 -1.0605,0.09806 -1.5774,0.30817 -2.3614,0.95983 -3.4227,3.85399 -2.4527,6.38809 0.3989,1.0768 1.598,1.6215 2.6404,1.1978 1.0439,-0.4244 1.5578,-1.6684 1.13,-2.7359 l 0.0042,0.0107 c -0.2755,-0.7172 0.0086,-0.9149 0.1686,-0.98 0.1599,-0.065 0.4989,-0.1207 0.7745,0.5967 l -0.004,-0.0101 c 0.346,0.9391 1.2616,1.4157 2.0821,1.3383 0.8204,-0.0773 1.6364,-0.7172 1.8106,-1.7053 0.069,-0.3915 0.0273,-0.7951 -0.1193,-1.1632 C 43.6597,7.73708 41.9605,6.49429 40.1606,6.39574 40.0855,6.39157 40.0102,6.38948 39.9348,6.38935 Z m 0.0144,1.56532 c 0.0498,0 0.0997,0.00196 0.1495,0.00483 1.1956,0.07036 2.3619,0.90431 2.8815,2.25701 0.0014,0.0034 0.0028,0.0068 0.0042,0.0102 0.037,0.0923 0.0473,0.1934 0.03,0.2916 -0.0551,0.3125 -0.228,0.4054 -0.4528,0.4266 -0.2249,0.0212 -0.4111,-0.0377 -0.5205,-0.3346 -0.0013,-0.0035 -0.0026,-0.007 -0.0039,-0.0105 -0.507,-1.31981 -1.7798,-1.87046 -2.7481,-1.47691 -0.9684,0.39361 -1.5316,1.69051 -1.0246,3.01041 0.0014,0.0036 0.0028,0.0071 0.0042,0.0107 0.1115,0.2781 -0.0105,0.5735 -0.2825,0.6841 -0.272,0.1106 -0.5573,-0.0192 -0.6608,-0.3005 C 37.324,12.5239 37.3226,12.5202 37.3212,12.5166 36.6284,10.713 37.388,8.77396 38.9162,8.15279 39.2505,8.0169 39.6,7.95281 39.9492,7.95465 Z M 71.9729,11.328 c 0.3086,0.0102 0.4233,0.1726 0.4767,0.3983 0.0534,0.2257 0.0241,0.4238 -0.2454,0.5787 -0.0031,0.0018 -0.0063,0.0037 -0.0094,0.0056 -1.1948,0.7096 -1.5374,2.0854 -1.0169,3.0129 0.5207,0.9276 1.8504,1.3102 3.0452,0.6006 0.0033,-0.0019 0.0065,-0.0039 0.0097,-0.0059 0.2511,-0.1542 0.5531,-0.0733 0.6994,0.1872 0.1462,0.2606 0.0631,0.5699 -0.1924,0.7165 -0.0032,0.0019 -0.0064,0.0038 -0.0096,0.0058 -1.6327,0.9697 -3.6091,0.4813 -4.4307,-0.9826 -0.8216,-1.4638 -0.2445,-3.4685 1.3882,-4.4381 0.0031,-0.0019 0.0061,-0.0038 0.0092,-0.0056 0.0833,-0.0512 0.179,-0.0766 0.276,-0.0734 z m -23.6233,2.7802 c -0.5277,0 -1.0607,0.098 -1.5777,0.3081 -2.3615,0.9599 -3.4225,3.8546 -2.4522,6.3889 0.3992,1.0763 1.598,1.6209 2.6401,1.1973 1.0441,-0.4244 1.5578,-1.6686 1.1298,-2.7362 l 0.0042,0.011 c -0.2756,-0.7174 0.0089,-0.9153 0.1689,-0.9803 0.1598,-0.065 0.4986,-0.1207 0.7742,0.5967 l -0.0037,-0.0101 c 0.346,0.939 1.2613,1.4157 2.0818,1.3383 0.8205,-0.0773 1.6367,-0.7172 1.8109,-1.7053 0.069,-0.3911 0.0272,-0.7944 -0.1191,-1.1622 -0.7318,-1.8981 -2.4312,-3.1413 -4.2314,-3.2399 -0.0751,-0.0041 -0.1504,-0.0062 -0.2258,-0.0064 z m 0.0141,1.5653 c 0.0499,0 0.0997,0.0019 0.1496,0.0048 1.1955,0.0704 2.3621,0.9043 2.8817,2.257 0.0013,0.0034 0.0026,0.0068 0.0039,0.0102 0.037,0.0923 0.0473,0.1936 0.03,0.2919 -0.0551,0.3125 -0.2277,0.4051 -0.4526,0.4263 -0.2248,0.0212 -0.4113,-0.0377 -0.5207,-0.3346 -0.0012,-0.0034 -0.0024,-0.0068 -0.0037,-0.0102 -0.5069,-1.3198 -1.7799,-1.8708 -2.7483,-1.4772 -0.9683,0.3936 -1.5315,1.6906 -1.0245,3.0104 0.0013,0.0037 0.0027,0.0073 0.0042,0.011 0.1115,0.2781 -0.0106,0.5735 -0.2826,0.6841 -0.272,0.1105 -0.5573,-0.0194 -0.6608,-0.3008 -0.0013,-0.0036 -0.0026,-0.0072 -0.0039,-0.0107 -0.6928,-1.8036 0.0667,-3.7429 1.595,-4.3641 0.3343,-0.1359 0.6836,-0.2 1.0327,-0.1981 z m 4.9462,8.3282 c -0.5276,-0.0013 -1.0607,0.0981 -1.5776,0.3082 -2.3618,0.96 -3.4231,3.855 -2.4522,6.3894 0.3993,1.076 1.598,1.6203 2.6401,1.1967 1.044,-0.4243 1.5577,-1.6685 1.1298,-2.7361 l 0.0041,0.0107 c -0.2755,-0.7174 0.0089,-0.915 0.1689,-0.98 0.1598,-0.065 0.4989,-0.1207 0.7745,0.5967 l -0.004,-0.0102 c 0.346,0.9391 1.2616,1.4158 2.0821,1.3384 0.8204,-0.0773 1.6364,-0.7172 1.8106,-1.7054 0.069,-0.3911 0.0272,-0.7943 -0.119,-1.1621 -0.7319,-1.8981 -2.4312,-3.1413 -4.2315,-3.2399 -0.0751,-0.0042 -0.1504,-0.0062 -0.2258,-0.0064 z m 0.0141,1.5654 c 0.0499,0 0.0998,0.0019 0.1496,0.0048 1.1955,0.0703 2.3621,0.9043 2.8818,2.257 0.0012,0.0034 0.0025,0.0068 0.0039,0.0102 0.0369,0.0923 0.0475,0.1936 0.0302,0.2919 -0.0552,0.3122 -0.2281,0.4051 -0.4529,0.4263 -0.2248,0.0212 -0.4113,-0.0377 -0.5207,-0.3346 -0.0012,-0.0035 -0.0024,-0.007 -0.0036,-0.0105 -0.507,-1.3198 -1.78,-1.8705 -2.7483,-1.4769 -0.9684,0.3936 -1.5316,1.6905 -1.0246,3.0104 0.0014,0.0036 0.0028,0.0071 0.0042,0.0107 0.1115,0.2781 -0.0105,0.5738 -0.2825,0.6843 -0.272,0.1106 -0.5574,-0.0193 -0.6609,-0.3008 -0.0012,-0.0035 -0.0025,-0.0071 -0.0039,-0.0107 -0.6928,-1.8035 0.0668,-3.7429 1.595,-4.364 0.3343,-0.1359 0.6837,-0.2 1.0328,-0.1982 z m 2.1534,9.8678 c -0.5277,0 -1.0607,0.0981 -1.5777,0.3082 -2.3618,0.96 -3.423,3.8549 -2.4522,6.3893 0.3994,1.076 1.5981,1.6204 2.6401,1.1968 1.0441,-0.4244 1.5578,-1.6686 1.1298,-2.7361 l 0.0042,0.0107 c -0.2756,-0.7174 0.0089,-0.915 0.1688,-0.98 0.1599,-0.065 0.4987,-0.1208 0.7743,0.5967 L 56.161,40.2103 c 0.346,0.9391 1.2613,1.4158 2.0818,1.3384 0.8205,-0.0773 1.6367,-0.7172 1.8109,-1.7054 0.069,-0.3911 0.0272,-0.7943 -0.1191,-1.1621 -0.7318,-1.8981 -2.4312,-3.1413 -4.2314,-3.2399 -0.0751,-0.0041 -0.1504,-0.0062 -0.2258,-0.0064 z m 0.0141,1.5653 c 0.0499,0 0.0997,0.002 0.1495,0.0049 1.1956,0.0704 2.3622,0.9043 2.8818,2.257 0.0013,0.0034 0.0026,0.0068 0.0039,0.0102 0.037,0.0923 0.0473,0.1936 0.03,0.2918 -0.0551,0.3123 -0.2278,0.4052 -0.4526,0.4264 -0.2249,0.0212 -0.4113,-0.0377 -0.5207,-0.3347 -0.0012,-0.0035 -0.0024,-0.0069 -0.0037,-0.0104 -0.507,-1.3198 -1.7799,-1.8705 -2.7483,-1.4769 -0.9683,0.3936 -1.5315,1.6905 -1.0245,3.0104 0.0013,0.0036 0.0027,0.0073 0.0041,0.0109 0.1116,0.2782 -0.0105,0.5736 -0.2825,0.6841 -0.272,0.1106 -0.5573,-0.0193 -0.6608,-0.3008 -0.0013,-0.0035 -0.0026,-0.0071 -0.0039,-0.0107 -0.6929,-1.8036 0.0667,-3.7429 1.595,-4.364 0.3343,-0.1359 0.6836,-0.2 1.0327,-0.1982 z m -1.4006,9.1695 c -0.5277,-0.0013 -1.0605,0.0981 -1.5775,0.3082 -2.3614,0.9598 -3.4227,3.854 -2.4527,6.3881 0.3989,1.0769 1.5982,1.6218 2.6406,1.198 1.0441,-0.4243 1.5578,-1.6685 1.1298,-2.7361 l 0.0042,0.0107 c -0.2755,-0.7172 0.0086,-0.9149 0.1686,-0.98 0.1599,-0.065 0.4989,-0.1207 0.7745,0.5967 l -0.0039,-0.0102 c 0.3459,0.9391 1.2615,1.4158 2.082,1.3384 0.8205,-0.0773 1.6364,-0.7172 1.8107,-1.7054 0.069,-0.3914 0.0272,-0.795 -0.1194,-1.1631 -0.732,-1.8975 -2.4312,-3.1403 -4.2311,-3.2389 -0.0751,-0.0042 -0.1505,-0.0062 -0.2258,-0.0064 z m 0.0143,1.5654 c 0.0499,0 0.0997,0.0019 0.1496,0.0048 1.1955,0.0703 2.3618,0.9043 2.8815,2.257 0.0013,0.0034 0.0027,0.0068 0.0042,0.0102 0.0369,0.0923 0.0472,0.1936 0.0299,0.2919 -0.0551,0.3122 -0.228,0.4051 -0.4528,0.4263 -0.2249,0.0212 -0.4111,-0.0377 -0.5205,-0.3346 -0.0013,-0.0035 -0.0026,-0.007 -0.0039,-0.0105 -0.507,-1.3198 -1.7797,-1.8705 -2.7481,-1.4769 -0.9683,0.3936 -1.5315,1.6905 -1.0245,3.0104 0.0013,0.0036 0.0027,0.0071 0.0042,0.0107 0.1115,0.2781 -0.0106,0.5738 -0.2825,0.6843 -0.2721,0.1106 -0.5574,-0.0193 -0.6609,-0.3008 -0.0013,-0.0035 -0.0027,-0.0071 -0.0042,-0.0107 -0.6928,-1.8035 0.0668,-3.7429 1.595,-4.364 0.3344,-0.1359 0.6839,-0.2 1.033,-0.1982 z m -4.5463,8.2529 c -0.5329,-0.0027 -1.0711,0.0956 -1.5928,0.3076 -1.7162,0.6976 -2.7519,2.4295 -2.8105,4.2818 -0.0048,0.0918 0.006,0.1806 0.03,0.2639 l 1.4903,-0.2132 c 0.0408,-1.2924 0.7395,-2.4261 1.8492,-2.8772 1.3495,-0.5485 2.9389,0.0733 3.7751,1.4695 l 1.4118,-0.4546 c -0.0081,-0.126 -0.0462,-0.2519 -0.1166,-0.3662 -0.8905,-1.487 -2.4381,-2.4039 -4.0365,-2.4116 z"
       id="path1622"
       inkscape:label="layer-1"
       style="display:inline" />
    <path
       fill="#ff0000"
       d="m 52.4639,-120.732 c -2.1293,1.198 -4.92,2.364 -8.6604,3.278 -0.1785,3.432 -1.1681,6.409 -3.0288,8.691 -0.1525,0.187 -0.3092,0.368 -0.3291,0.534 -8.4178,-0.803 -17.0877,-1.198 -26.0936,-1.074 -1.275,-2.013 -2.2349,-4.408 -2.6758,-7.132 -1.3402,-0.664 -2.50374,-1.571 -3.43637,-2.616 -0.93262,1.045 -2.09621,1.952 -3.43638,2.616 -0.47733,2.949 -1.56293,5.513 -3.03998,7.62 -7.26884,0.45 -14.85947,1.248 -22.86327,2.437 -0.8888,-0.851 -1.6182,-1.778 -2.1766,-2.733 -1.1264,-1.926 -1.6957,-3.687 -2.2041,-5.188 -1.9194,-0.386 -3.6696,-1.27 -5.273,-2.326 5.0353,7.706 8.144,13.501 10.8541,19.9502 23.5283,-3.4992 42.9726,-3.5482 62.2198,-1.5584 1.7955,-6.3558 3.6662,-11.8938 10.1435,-22.4988 z m -54.84097,57.8372 c 1.629836,6.0778 3.159935,12.3135 4.46415,18.721 1.15411,-3.2335 2.44429,-6.4796 3.86472,-9.7084 -0.5954,0.6675 -1.30306,1.0702 -2.14888,1.0702 -4.436915,0 -4.436915,-7.172 -0.63385,-7.172 0.13994,0 0.27299,0.0062 0.39938,0.0181 l 0.00395,-0.5433 c -0.3926,0 -0.85525,-0.1883 -1.36598,-0.6423 -0.89163,0.301 -2.1489002,-0.0219 -3.8006,-1.4339 z m -14.23653,0.9436 c -0.4311,0.1881 -0.901,0.1728 -1.3241,0.0792 -0.6534,0.362 -1.4123,0.4975 -2.194,0.4085 -0.9002,0.4308 -1.8709,0.6278 -2.7109,0.649 -0.7765,0.5141 -1.7348,0.7139 -2.6176,0.6777 -0.629,0.2771 -1.3102,0.4316 -1.9713,0.4663 l -0.39,0.0948 c 3.0249,10.9848 5.6512,22.0537 7.2395,33.2624 4.3555,2.8385 8.2887,4.7147 12.19925,5.7593 -1.41395,-14.3135 -4.57945,-28.1243 -8.23085,-41.3972 z m 46.0991,1.9672 c 0.0422,0.2026 0.0834,0.4085 0.1248,0.6135 -0.0145,-0.2072 -0.0548,-0.4126 -0.1248,-0.6135 z m 0.1248,0.6135 c 0.2088,2.9819 -5.0135,6.3695 -6.9158,2.8556 -6.2648,11.9643 -10.3403,23.8779 -12.6693,35.6226 3.7512,-0.8955 7.8587,-2.221 12.5264,-3.8959 2.4763,-9.7396 6.3542,-19.6045 12.0151,-29.6057 l -0.3392,-0.3741 c -0.5591,-0.06 -1.0002,-0.2382 -1.3759,-0.5208 -2.1095,1.7055 -2.6646,-1.2226 -3.2413,-4.0817 z m 6.8906,41.5121 C 35.2646,-12.1839 34.5805,-6.49803 34.3203,-0.735028 42.0895,1.43148 48.8425,6.03524 53.968,12.2489 51.8883,5.23496 50.8168,-1.86335 51.5109,-8.64919 l 0.1444,-0.76024 C 45.099,-12.3534 40.1081,-15.1446 36.5009,-17.8584 Z m -55.5181,10.05503 c 0.1232,5.04161 -0.0348,10.06187 -0.5492,15.11545 2.7672,-0.86629 5.5096,-1.61215 8.1793,-2.2354 -1.9566,-2.39107 -1.9104,-8.0873 0.0901,-10.26696 -2.6111,-0.66282 -5.1879,-1.55857 -7.7202,-2.61309 z m 78.515,1.65954 c 0.0594,1.54367 0.1787,3.1 0.3539,4.66588 -2.5828,2.271838 -4.436,5.39219 -2.172,12.12745 1.9206,-1.735 2.8659,-3.59819 3.2215,-5.53843 0.2359,1.15089 0.4986,2.30426 0.7871,3.45917 -2.2727,2.77266 -3.764,6.21066 -0.2055,12.63226 1.5306,-2.008 2.1361,-3.9608 2.1727,-5.879 0.4557,1.3743 0.9434,2.7471 1.4618,4.1163 -1.905,2.8025 -2.8644,6.2626 0.8024,12.1277 1.3473,-1.9765 1.8701,-3.8579 1.8694,-5.6788 0.5571,1.2397 1.1364,2.4736 1.7364,3.7001 -1.6297,3.042 -2.2748,6.6204 2.0988,12.089 1.0863,-2.0717 1.4044,-3.9598 1.2276,-5.7292 0.5893,1.0579 1.1919,2.1079 1.8072,3.1487 -1.2954,2.8074 -1.6697,6.0505 1.8013,10.5963 l 1.6059,-0.8489 c 0.3839,-1.3469 0.4564,-2.6075 0.3015,-3.8047 0.5763,0.876 1.1601,1.7434 1.7508,2.6016 l 1.3719,-0.7157 c -1.3636,-1.9758 -2.69,-4.0024 -3.9694,-6.0694 1.7252,1.4036 3.3407,1.9435 4.8786,2.0038 v -4.0709 c -1.9307,-1.3002 -4.1592,-1.9818 -6.9775,-1.4341 -1.0714,-1.8473 -2.102,-3.7214 -3.0855,-5.6159 3.2213,3.1417 6.172,2.9542 8.9595,2.1646 -2.6896,-3.3244 -5.6793,-6.0973 -10.556,-5.3454 -1.0154,-2.0938 -1.9694,-4.2074 -2.8536,-6.3323 3.4518,3.8144 6.6013,3.6642 9.5684,2.8337 -2.6885,-3.3438 -5.681,-6.1332 -10.5885,-5.3709 -1.1263,-2.9036 -2.1162,-5.8214 -2.9473,-8.7317 1.5339,1.7465 3.0082,2.7042 4.4332,3.1589 l 0.6222,-1.9937 1.0389,-1.3778 C 67.5056,10.3981 65.4782,9.65294 63.9357,8.5058 63.7186,8.52167 63.4988,8.54236 63.2737,8.57303 63.2057,8.3072 63.1405,8.04172 63.0754,7.77612 60.266,5.05481 59.5697,0.581219 61.0421,-5.69023 Z M -1.5e-4,-2.608 c -0.840531,0 -1.64664,0.27477 -2.24098,0.76387 -0.59435,0.48909 -0.92825,1.152445 -0.92825,1.84413 0,0.691685 0.3339,1.35504 0.92825,1.84413 0.59434,0.4891 1.400449,0.76387 2.24098,0.76387 0.840531,0 1.64664,-0.27477 2.24098,-0.76387 C 2.83518,1.35504 3.16907,0.691685 3.16907,0 3.16907,-0.691685 2.83518,-1.35504 2.24083,-1.84413 1.64649,-2.33323 0.840381,-2.608 -1.5e-4,-2.608 Z M 39.942,7.172 c -0.4384,-0.0013 -0.8797,0.08016 -1.3053,0.25316 -1.9458,0.79087 -2.8563,3.20944 -2.0229,5.37904 0.1631,0.4382 0.5425,0.7525 0.9935,0.823 0.451,0.0705 0.904,-0.1136 1.1863,-0.4822 0.2824,-0.3685 0.3504,-0.8647 0.1783,-1.2992 -0.3913,-1.0187 0.0326,-1.7659 0.5967,-1.99525 0.5641,-0.22927 1.3699,0.01819 1.7612,1.03685 0.2017,0.548 0.734,0.8902 1.3012,0.8368 0.5673,-0.0534 1.0303,-0.4895 1.1319,-1.066 0.0433,-0.2455 0.0172,-0.4985 -0.075,-0.7292 C 43.0368,8.234 41.5076,7.17646 39.942,7.172 Z m 32.0555,3.3741 c -0.2424,-0.008 -0.4818,0.0556 -0.6901,0.1834 -1.964,1.1664 -2.7126,3.6431 -1.6666,5.5068 1.0461,1.8638 3.5057,2.4353 5.4697,1.2689 0.3994,-0.2292 0.6479,-0.662 0.6501,-1.1325 0.0023,-0.4705 -0.242,-0.9058 -0.6393,-1.139 -0.3972,-0.2333 -0.8858,-0.2283 -1.2785,0.0129 -0.9222,0.5477 -1.703,0.2261 -2.0063,-0.3143 -0.3032,-0.5403 -0.1835,-1.3966 0.7386,-1.9443 0.4972,-0.2857 0.7482,-0.8775 0.6135,-1.4468 -0.1346,-0.5692 -0.6219,-0.9763 -1.1911,-0.9951 z m -23.6407,4.3447 c -0.4384,-0.0013 -0.8797,0.0802 -1.3053,0.2532 -1.9458,0.7909 -2.8563,3.2097 -2.0229,5.3792 0.1617,0.4402 0.5415,0.7566 0.9937,0.828 0.4522,0.0713 0.9067,-0.1134 1.1893,-0.4835 0.2826,-0.3701 0.3494,-0.8681 0.1748,-1.3031 -0.3912,-1.0187 0.0326,-1.7659 0.5968,-1.9952 0.5641,-0.2293 1.3698,0.0181 1.7611,1.0368 0.2017,0.548 0.734,0.8903 1.3013,0.8368 0.5672,-0.0534 1.0302,-0.4895 1.1318,-1.066 0.0433,-0.2455 0.0173,-0.4985 -0.075,-0.7292 -0.6511,-1.695 -2.18,-2.7525 -3.7456,-2.757 z m -13.4009,3.5091 c 1.2585,11.9107 4.0168,24.113 7.4833,36.7323 2.8238,-4.0112 4.4652,-9.1456 4.4652,-14.7082 0,-9.5544 -4.8426,-17.8457 -11.9485,-22.0241 z m 18.3612,6.3845 c -0.4384,-0.0013 -0.8797,0.0802 -1.3053,0.2532 -1.9458,0.7908 -2.8563,3.2094 -2.0229,5.379 0.1611,0.4411 0.541,0.7586 0.9937,0.8304 0.4528,0.0718 0.908,-0.1132 1.1907,-0.484 0.2828,-0.3708 0.3491,-0.8696 0.1735,-1.3048 -0.3913,-1.0187 0.0325,-1.7659 0.5967,-1.9952 0.5641,-0.2293 1.3701,0.0181 1.7614,1.0368 0.2019,0.5477 0.734,0.8898 1.3011,0.8363 0.5671,-0.0534 1.03,-0.4892 1.1318,-1.0655 0.0433,-0.2455 0.0172,-0.4985 -0.0751,-0.7292 -0.6511,-1.695 -2.18,-2.7525 -3.7456,-2.757 z M 63.6758,34.925 c 0.227,1.805 0.3424,3.6428 0.3424,5.499 0,5.5682 -1.0397,10.9714 -2.957,15.9562 4.3522,-1.5177 8.5203,-3.2157 12.247,-4.7808 C 70.2891,46.672 66.8798,40.9678 63.6758,34.925 Z m -8.1912,1.2926 c -0.4384,-0.0013 -0.8797,0.0801 -1.3054,0.2531 -1.9457,0.7909 -2.8562,3.2097 -2.0228,5.3793 0.1617,0.4402 0.5415,0.7566 0.9937,0.8279 0.4522,0.0714 0.9067,-0.1134 1.1893,-0.4835 0.2825,-0.3701 0.3494,-0.868 0.1748,-1.303 -0.3913,-1.0187 0.0326,-1.766 0.5967,-1.9953 0.5641,-0.2292 1.3699,0.0182 1.7612,1.0369 0.2017,0.5479 0.734,0.8902 1.3013,0.8368 0.5672,-0.0534 1.0302,-0.4895 1.1318,-1.0661 0.0433,-0.2454 0.0173,-0.4984 -0.075,-0.7291 -0.6511,-1.695 -2.18,-2.7526 -3.7456,-2.757 z M 54.098,46.9524 c -0.4383,-0.0013 -0.8794,0.0802 -1.305,0.2532 -1.9458,0.7908 -2.8566,3.2094 -2.0232,5.379 0.1633,0.438 0.5426,0.7521 0.9935,0.8226 0.4509,0.0704 0.9038,-0.1136 1.1861,-0.4821 0.2823,-0.3684 0.3505,-0.8644 0.1786,-1.2989 -0.3914,-1.0187 0.0325,-1.7659 0.5967,-1.9952 0.5641,-0.2293 1.3698,0.0181 1.7611,1.0368 0.2018,0.5479 0.734,0.8902 1.3013,0.8368 0.5672,-0.0534 1.0302,-0.4895 1.1318,-1.066 0.0433,-0.2455 0.0173,-0.4985 -0.075,-0.7292 -0.6511,-1.695 -2.1803,-2.7525 -3.7459,-2.757 z m -4.5352,9.818 c -0.4423,-0.0028 -0.8877,0.0783 -1.3172,0.2529 -1.413,0.5743 -2.2801,2.0072 -2.3299,3.5796 l 7.032,-1.7928 c -0.7588,-1.267 -2.0579,-2.0314 -3.3849,-2.0397 z"
       id="path1618"
       style="display:inline"
       inkscape:label="layer-4" />
    <path
       fill="#4444ff"
       d="m 18.93,-92.1021 c -0.385,-1e-4 -0.7543,0.2611 -1.0266,0.7261 -0.2723,0.465 -0.4253,1.0958 -0.4253,1.7535 0,0.6578 0.153,1.2886 0.4253,1.7537 0.2723,0.4651 0.6416,0.7263 1.0266,0.7262 0.385,0 0.7543,-0.2613 1.0265,-0.7264 0.2723,-0.465 0.4252,-1.0958 0.4252,-1.7535 -10e-5,-1.3695 -0.65,-2.4796 -1.4517,-2.4796 z m 17.9277,0.5083 c -0.385,0 -0.7543,0.2613 -1.0265,0.7264 -0.2722,0.4651 -0.4252,1.0958 -0.4252,1.7535 1e-4,1.3695 0.65,2.4796 1.4517,2.4797 0.8017,-10e-5 1.4516,-1.1102 1.4516,-2.4797 10e-5,-0.6577 -0.1529,-1.2884 -0.4251,-1.7535 -0.2723,-0.4651 -0.6415,-0.7264 -1.0265,-0.7264 z m 1.9122,16.3823 c -0.0511,-0.0013 -0.1036,-0.0012 -0.1575,2e-4 -1.2672,0.0346 -1.8495,1.5353 -1.8495,1.5353 0,0 0.9163,-1.0049 1.9077,-1.0363 2.0139,-0.0638 -0.1776,4.2709 -1.9077,4.2963 -1.2551,0.0184 -3.8031,-3.26 -6.3385,-3.26 v 1.304 c 2.5354,0 4.5299,2.5872 6.3385,2.608 2.9198,0.0336 5.2253,-5.3685 2.007,-5.4475 z m -26.0932,0.0076 c -3.16767,0.1004 -3.17841,6.8361 0.7639,6.6904 3.4718,-0.1282 7.4761,-3.8585 13.1807,-3.8585 v -1.304 c -6.9723,0.3311 -7.675,3.2499 -12.6769,4.1937 -3.2403,0.6114 -3.3988,-4.5881 -1.2677,-4.8457 1.2591,-0.1522 1.2677,2.2601 1.2677,2.2601 0.0366,0.006 1.2677,-3.2163 -1.2677,-3.136 z m -21.72251,11.9884 -5.04769,0.8216 c 0.2227,0.8129 0.4437,1.6275 0.6625,2.444 l 2.4428,-0.6805 c 0.1648,-0.0485 0.3352,-0.0739 0.5066,-0.0754 0.96163,-0.0086 1.77809,0.7227 1.90226,1.7036 0.12417,0.981 -0.48303,1.9028 -1.41476,2.1478 l -2.445,0.681 c 0.0409,0.159 0.0813,0.3184 0.1221,0.4776 l 2.44892,-0.649 c 0.16533,-0.0463 0.33598,-0.0694 0.50733,-0.0687 0.96161,0.0037 1.76911,0.7451 1.88148,1.7275 0.11237,0.9824 -0.50575,1.8965 -1.44027,2.1297 l -2.45046,0.6492 c 0.0402,0.1648 0.0807,0.3294 0.1206,0.4944 l 2.4705,-0.6161 c 0.16589,-0.0439 0.33679,-0.0646 0.50806,-0.0614 0.96156,0.0176 1.75889,0.7708 1.85771,1.7548 0.09883,0.984 -0.53197,1.8891 -1.46972,2.1085 l -2.47125,0.6161 c 0.0339,0.1484 0.0669,0.2972 0.1005,0.4457 l 2.4631,-0.572 c 0.16658,-0.0412 0.33781,-0.0592 0.50906,-0.0532 0.96118,0.0333 1.74685,0.7996 1.83047,1.7851 0.08362,0.9855 -0.56112,1.88 -1.50216,2.0841 l -2.46408,0.5723 c 0.03259,0.154 0.06499,0.3081 0.09731,0.4622 l 2.49601,-0.532 c 0.10514,-0.0241 0.21207,-0.0389 0.31965,-0.0443 0.99707,-0.0503 1.86224,0.7011 1.98126,1.7206 0.11902,1.0196 -0.54862,1.9602 -1.5289,2.1542 l -2.49626,0.5323 c 0.03048,0.1578 0.06218,0.3152 0.09235,0.4732 l 2.5022,-0.4821 c 0.10565,-0.0219 0.21291,-0.0345 0.32064,-0.0377 0.99754,-0.0301 1.84799,0.7382 1.94783,1.7596 0.09985,1.0214 -0.58488,1.9485 -1.56827,2.1233 l -2.50245,0.4822 c 0.04395,0.2539 0.08593,0.5085 0.129,0.7628 l 2.5131,-0.4246 c 0.10609,-0.0195 0.2136,-0.0298 0.32138,-0.0306 0.99832,-0.0076 1.83229,0.7801 1.90995,1.804 0.07766,1.0238 -0.62743,1.9351 -1.61482,2.0869 l -2.51285,0.4246 c 0.03277,0.2183 0.06672,0.4362 0.09879,0.6548 l 2.52275,-0.3637 c 0.10648,-0.017 0.21415,-0.0245 0.32188,-0.0227 0.99834,0.0164 1.81439,0.8242 1.8686,1.8498 0.05421,1.0255 -0.67188,1.9195 -1.6626,2.0472 l -2.52102,0.3634 c 0.02172,0.1722 0.04139,0.345 0.06264,0.5173 l 2.53563,-0.3011 c 0.10685,-0.0143 0.2147,-0.0192 0.32237,-0.0147 0.99713,0.042 1.7929,0.8698 1.8228,1.8959 0.02989,1.026 -0.71626,1.9014 -1.70916,2.0049 l -2.53488,0.301 c 0.04045,0.3982 0.08204,0.7962 0.11983,1.1952 l 5.141082,0.4626 C -1.97826,-34.7961 -5.25586,-49.3372 -9.04581,-63.2155 Z m 28.93181,6.6191 c -0.3306,0.1524 -0.7758,0.0637 -1.1927,0.3196 -0.6958,0.4272 -1.3599,1.1454 -1.6237,0.6457 -0.7231,1.3638 -1.7046,1.0824 -2.1556,0.761 -0.8035,0.6549 -0.8953,0.664 -1.6797,0.3153 -5.50024,11.7103 -9.11703,23.4275 -11.16604,34.9502 l 3.52973,-0.4778 -0.83291,-0.178 c -0.96915,-0.1924 -1.63407,-1.1156 -1.53089,-2.1254 0.10319,-1.0097 0.94018,-1.7703 1.92704,-1.7512 0.1268,0.0025 0.25304,0.018 0.37684,0.0464 l 2.46283,0.5259 c 0.01542,-0.0713 0.03101,-0.1426 0.04655,-0.2139 l -2.445,-0.6072 c -0.92749,-0.2159 -1.55728,-1.1033 -1.47468,-2.0778 0.08259,-0.9744 0.85218,-1.7365 1.802,-1.784 0.19031,-0.0096 0.38095,0.0103 0.56551,0.059 l 2.44104,0.6065 c 0.0362,-0.1451 0.07221,-0.2902 0.10894,-0.4353 l -2.42099,-0.6915 c -0.91961,-0.2483 -1.51973,-1.157 -1.4051,-2.1279 0.11463,-0.9709 0.90878,-1.7055 1.85944,-1.7202 0.19053,-0.0029 0.38041,0.0236 0.56328,0.0787 l 2.41801,0.6908 c 0.0437,-0.1533 0.0877,-0.3065 0.132,-0.4598 l -2.396,-0.775 c -0.9108,-0.2802 -1.48053,-1.2093 -1.33405,-2.1755 0.14648,-0.9662 0.96415,-1.6728 1.91466,-1.6545 0.1905,0.0038 0.37938,0.0369 0.56031,0.0983 l 2.39328,0.774 c 0.0421,-0.1312 0.0856,-0.2625 0.1282,-0.3937 l -2.36921,-0.8555 c -0.86724,-0.2992 -1.40456,-1.1911 -1.27908,-2.1231 0.12548,-0.932 0.87821,-1.64 1.79185,-1.6855 0.25413,-0.0127 0.50814,0.0273 0.74704,0.1174 l 2.368,0.855 c 0.0576,-0.1614 0.1161,-0.3227 0.1745,-0.4842 l -2.3408,-0.9362 c -0.85713,-0.3286 -1.36531,-1.2386 -1.20971,-2.1659 0.15561,-0.9272 0.93091,-1.609 1.84561,-1.6231 0.2543,-0.0039 0.5068,0.0447 0.7425,0.1429 l 2.341,0.9365 c 0.0592,-0.1499 0.1185,-0.2999 0.1783,-0.4498 l -2.3101,-1.0144 c -0.8461,-0.3573 -1.3252,-1.2837 -1.1404,-2.2051 0.1849,-0.9214 0.9813,-1.5769 1.8958,-1.5605 0.2544,0.0047 0.5053,0.0617 0.7379,0.1679 l 2.3115,1.0149 c 0.0501,-0.1159 0.1001,-0.2318 0.1506,-0.3476 l -2.2779,-1.0881 c -0.8351,-0.3842 -1.2859,-1.3255 -1.0731,-2.2407 0.2128,-0.9152 1.0289,-1.5449 1.9426,-1.4988 0.2541,0.0128 0.503,0.0779 0.7322,0.1915 l 2.2801,1.0893 c 0.697,-1.4861 1.4265,-2.9728 2.1885,-4.4596 z m 59.9783,9.0004 -0.0525,31.935 c 0.2183,-0.0479 0.4656,-0.1228 0.6864,-0.2137 1.0007,2.0017 -0.0265,3.1551 0,4.564 0,0 -2.0766,1.1567 -4.0388,1.6909 -0.5847,0.15917 -1.1594,0.26372 -1.6658,0.26513 -3.7439,0.0104 -7.0357,-3.44173 -10.7754,-3.26003 0,0 0.7193,0.9248 1.3741,2.036 3.3726,0.4745 4.6876,2.52803 7.4997,2.52803 0.3005,0 0.5923,0.06423 0.8644,0.17726 l 2.5257,-0.9752 -0.0146,0.08379 c 6.6262,-1.68028 7.6573,1.92988 1.6953,3.97415 -0.3779,0.12957 -0.7385,0.24137 -1.0194,0.326 5.7438,0.0421 5.6268,3.16114 -0.715,4.261684 -0.6161,0.1069203 -1.1903,0.184953 -1.7233,0.2371117 L 74.5185,0.444938 C 82.17,0.124571 82.5839,3.83394 75.5227,4.68371 l -0.3456,0.30612 c 6.1474,-0.04728 6.2803,3.4376 0.2082,4.25788 l -0.4254,0.62525 c 1.759,0.66944 3.0029,2.31744 3.0029,4.24434 0,2.0395 -1.3932,3.7665 -3.3762,4.3404 1.7726,4.049 5.2116,10.146 7.8131,14.7131 v -79.0314 l -0.0015,-0.0644 c -0.8344,-0.569 -1.6791,-1.1257 -2.5339,-1.671 z m -12.6821,5.7167 c -8.0728,12.1795 -11.6961,22.6508 -13.2119,33.47156 2.1302,0.92005 4.4839,1.87739 6.817,2.61462 -1.478,-0.84265 -2.4737,-2.10017 -2.4737,-4.21358 0,-2.7832 1.9015,-6.52 5.0707,-6.52 1.1055,0 2.3521,0.0841 3.7326,0.2163 z m -85.7134,23.0846 -1.2219,2.4825 1.7267,0.7954 -0.4649,1.0447 -0.6339,-0.3415 c -0.4538,-0.2578 -0.8173,0.456 -0.3528,0.693 l 1.3444,0.7245 1.1182,-2.5124 -1.6988,-0.7824 0.5212,-1.0588 c 0.4335,0.2214 0.8668,0.4404 1.2982,0.6441 0.5199,0.2456 1.0387,0.4719 1.5573,0.6946 l -0.5655,1.4262 -0.8609,2.1743 0.3509,0.1482 c 0.7626,0.3222 1.5257,0.6203 2.2897,0.896 0.797,0.2876 1.5961,0.5515 2.3988,0.7842 l 0.3634,0.1052 0.7406,-2.6292 -0.3687,-0.1069 c -0.6309,-0.183 -1.2618,-0.3988 -1.8929,-0.623 l 0.3699,-1.0857 c 0.6137,0.2193 1.2269,0.4286 1.8397,0.6092 0.5848,0.1723 1.17303,0.3183 1.76237,0.4559 l -0.33351,1.521 -0.49965,2.2909 0.3662,0.0886 c 0.81799,0.1982 1.63861,0.3643 2.46184,0.50326 0.86792,0.1465 1.74042,0.26314 2.61907,0.3451 l 0.37684,0.03515 0.25354,-2.72571 -0.38081,-0.0354 c -0.69253,-0.0645 -1.38051,-0.1645 -2.06767,-0.2745 l 0.18124,-1.1583 c 0.66348,0.1082 1.32797,0.2049 1.99587,0.2694 0.49079,0.0474 0.98339,0.0847 1.4779,0.1116 0.11618,0.0063 0.2375,0.0067 0.35604,0.0109 l -0.051,1.5562 -0.07552,2.34921 0.37511,0.01783 c 0.77616,0.03645 1.546872,0.04225 2.31477,0.02878 0.82481,0.0285 1.82969,-0.11081 2.55593,-0.12378 l 0.40185,-0.00713 -0.19387,-2.75111 -0.38031,0.0298 c -0.66653,0.0519 -1.3312,0.0757 -1.995865,0.0912 v -1.1739 c 0.635975,-0.0189 1.272355,-0.0444 1.912185,-0.0932 0.71585,-0.0546 1.4392,-0.1391 2.16621,-0.2356 l 0.19808,1.5775 0.28671,2.3294 0.3761,-0.04762 c 0.83441,-0.10563 1.67115,-0.23558 2.51112,-0.38488 0.79001,-0.1403 1.58377,-0.2979 2.38413,-0.4752 l 0.3706,-0.082 -0.5516,-2.6788 -0.3732,0.0828 c -0.64267,0.1424 -1.27716,0.2637 -1.9104,0.3802 l -0.20154,-1.1797 c 0.61822,-0.1086 1.23886,-0.2251 1.86662,-0.3617 0.60462,-0.1315 1.21802,-0.28 1.83442,-0.4332 l 0.366,1.5332 0.5372,2.2843 0.3685,-0.0901 c 0.7757,-0.1898 1.5592,-0.3998 2.3492,-0.6225 0.7309,-0.2061 1.4689,-0.4234 2.2192,-0.6573 l 0.3622,-0.1131 -0.7599,-2.6243 -0.3657,0.1141 c -0.6088,0.1898 -1.2016,0.3604 -1.7911,0.5259 l -0.3063,-1.1451 c 0.5816,-0.1616 1.1667,-0.3286 1.7619,-0.5096 0.6198,-0.1884 1.2507,-0.3893 1.885,-0.5937 l 1.2157,3.9441 0.7237,-0.2264 -0.232,-0.7671 -1.2112,-3.9291 -0.3623,0.1179 c -0.7558,0.2461 -1.4999,0.4807 -2.2343,0.704 -0.7156,0.2176 -1.4209,0.4243 -2.11,0.6105 l -0.3721,0.1003 0.7106,2.6564 0.3642,-0.0996 c 0.5934,-0.1623 1.2005,-0.3449 1.8114,-0.5318 l 0.3261,1.1255 c -0.6172,0.1891 -1.2308,0.3733 -1.8362,0.544 -0.66,0.1861 -1.3101,0.3554 -1.957,0.5183 l -0.3578,-1.5207 -0.5464,-2.2894 -0.3702,0.0942 c -0.7358,0.1876 -1.4615,0.3586 -2.18029,0.515 -0.74687,0.1625 -1.48429,0.3091 -2.2088,0.4281 l -0.3813,0.0627 0.46598,2.7272 0.37337,-0.066 c 0.64128,-0.1133 1.28895,-0.2468 1.93917,-0.3861 l 0.23617,1.1479 c -0.66329,0.1422 -1.32456,0.2783 -1.98123,0.395 -0.70367,0.125 -1.40219,0.2275 -2.09936,0.3217 l -0.1904,-1.547 -0.29538,-2.3495 -0.38056,0.0548 c -0.84001,0.121 -1.67134,0.2086 -2.49923,0.2717 -0.75162,0.0573 -1.49893,0.0945 -2.24371,0.1095 l -0.3728791,0.0074 v 2.7351 L 0.472015,-11.2837 C 1.1549,-11.2919 1.83721,-11.3309 2.51988,-11.3774 l 0.08245,1.1726 c -0.72202,0.038 -1.51675,0.1217 -2.121153,0.1003 l -0.009901,-2e-4 -0.009901,2e-4 c -0.634666,0.0113 -1.269803,-0.0019 -1.905745,-0.0239 l 0.05026,-1.5641 0.07725,-2.3553 -0.3959,0.0028 c -0.23077,0.0016 -0.46597,-0.0089 -0.70639,-0.0219 -0.48417,-0.0263 -0.96626,-0.0626 -1.4467,-0.109 -0.77891,-0.0753 -1.55193,-0.1768 -2.31923,-0.3133 l -0.37932,-0.0675 -0.42289,2.7061 0.37288,0.0642 c 0.70327,0.1209 1.41082,0.2066 2.12016,0.2814 l -0.1087,1.1688 c -0.73215,-0.0769 -1.46255,-0.1662 -2.18924,-0.2889 -0.68378,-0.1154 -1.363,-0.261 -2.04118,-0.4171 l 0.33203,-1.5218 0.49965,-2.2792 -0.37684,-0.0823 c -0.69502,-0.1515 -1.38937,-0.3343 -2.08447,-0.5391 -0.7204,-0.2123 -1.4386,-0.4472 -2.1561,-0.7142 l -0.3612,-0.1345 -0.8738,2.565 0.356,0.1309 c 0.6452,0.2369 1.2911,0.4419 1.9375,0.6375 l -0.3175,1.127 c -0.6648,-0.2007 -1.3292,-0.4118 -1.9933,-0.6515 -0.6334,-0.2286 -1.2658,-0.4821 -1.8981,-0.7429 l 0.5709,-1.4421 0.6695,-1.6883 c 0.0646,-0.0885 0.0897,-0.2011 0.0691,-0.3097 -0.023,-0.1837 -0.1681,-0.3256 -0.3476,-0.34 -0.5889,-0.2488 -1.1785,-0.51 -1.7698,-0.7893 -0.5371,-0.2537 -1.0749,-0.5195 -1.6143,-0.801 z m 39.4165,0.5718 -1.0835,0.3716 0.5472,1.6886 z M 34.2025,3.33386 c -0.0508,3.49592 0.0727,7.02684 0.3379,10.55194 9.534,4.2839 16.167,14.6692 16.167,26.5382 0,7.4624 -2.622,14.3382 -6.9386,19.4866 l 0.2766,1.1607 c 1.3549,-0.2685 2.7243,-0.568 4.0997,-0.8953 0.7885,-0.1876 1.579,-0.3842 2.3702,-0.5893 1.9461,-0.5045 3.9041,-1.0314 5.7883,-1.6466 2.4945,-5.306 3.9115,-11.2888 3.9115,-17.5161 C 60.2151,23.2495 49.437,7.93372 34.2025,3.33386 Z M 39.9321,6.52 c 1.1767,0 2.3053,0.48085 3.1374,1.33676 0.832,0.85592 1.2995,2.01679 1.2995,3.22724 0,1.2104 -0.4675,2.3713 -1.2995,3.2272 -0.8321,0.856 -1.9607,1.3368 -3.1374,1.3368 -2.4505,0 -4.4369,-2.0434 -4.4369,-4.564 0,-1.21045 0.4674,-2.37132 1.2995,-3.22724 C 37.6268,7.00085 38.7553,6.52 39.9321,6.52 Z m 8.4341,7.7397 c 1.1767,0 2.3053,0.4808 3.1374,1.3368 0.832,0.8559 1.2995,2.0167 1.2995,3.2272 0,1.2104 -0.4675,2.3713 -1.2995,3.2272 -0.8321,0.8559 -1.9607,1.3368 -3.1374,1.3368 -2.4505,0 -4.4369,-2.0434 -4.4369,-4.564 0,-2.5206 1.9864,-4.564 4.4369,-4.564 z m -10.4594,8.7131 c -0.6916,0.0091 -1.3589,0.2769 -1.8746,0.7557 l -0.3697,0.3334 0.4452,2.2002 1.1885,-1.0722 c 0.0034,-0.0031 0.0068,-0.0061 0.0101,-0.0092 0.1837,-0.1705 0.424,-0.2605 0.6713,-0.2513 0.4774,0.0175 0.7396,0.2889 0.8638,0.6558 0.1242,0.3669 0.0826,0.7473 -0.281,1.0661 -0.0034,0.0029 -0.0068,0.0059 -0.0101,0.0089 l -1.9974,1.8019 0.7802,3.8552 3.6738,-1.5994 c 0.0041,-0.0018 0.0083,-0.0036 0.0124,-0.0054 0.1076,-0.0487 0.2229,-0.0766 0.3404,-0.082 0.4688,-0.0215 0.871,0.2966 0.9713,0.7681 0.1003,0.4715 -0.136,0.9335 -0.5707,1.1153 -0.0041,0.0018 -0.0082,0.0035 -0.0123,0.0054 l -4.02,1.7499 0.6279,3.1026 4.4879,-0.5198 c 0.0045,-7e-4 0.0089,-0.0014 0.0134,-0.0021 0.0267,-0.0035 0.0536,-0.0057 0.0804,-0.0069 0.0269,-0.0013 0.0539,-0.0013 0.0808,0 h 5e-4 c 0.5078,0.0225 0.8958,0.4281 0.9096,0.9507 0.0139,0.5227 -0.3522,0.9493 -0.8581,1.0002 -0.0047,5e-4 -0.0093,10e-4 -0.0139,0.0016 l -4.3114,0.4997 0.7421,3.6672 3.4081,0.6405 c 0.0041,9e-4 0.0083,0.0018 0.0124,0.0027 0.5343,0.0928 0.8744,0.5921 0.777,1.1404 -0.0974,0.5484 -0.5872,0.8915 -1.1189,0.784 -0.0041,-9e-4 -0.0083,-0.0017 -0.0124,-0.0025 l -2.648,-0.4977 0.4184,2.0676 1.8755,0.3525 h 3e-4 c 1.5488,0.3129 3.0719,-0.7546 3.3556,-2.3518 0.2838,-1.5973 -0.7742,-3.1499 -2.3306,-3.4205 l -3.0687,-0.5768 3.0997,-0.3591 c 1.4816,-0.149 2.6143,-1.4695 2.5737,-3.0003 C 45.7888,36.2108 44.5882,34.956 43.1011,34.89 h -5e-4 c -0.1613,-0.0072 -0.3229,-1e-4 -0.4831,0.0206 l 0.0134,-0.0018 -2.0335,0.2356 1.8795,-0.8184 c 1.28,-0.5355 2.0073,-1.9567 1.7119,-3.3453 -0.2954,-1.3886 -1.5332,-2.3672 -2.9137,-2.3039 -0.3522,0.0162 -0.6987,0.0993 -1.0214,0.2453 h -5e-4 l -2.5628,1.1158 2.1137,-1.9071 -0.0102,0.0088 c 0.9565,-0.8387 1.1986,-2.1482 0.8433,-3.1978 -0.3553,-1.0496 -1.3358,-1.9212 -2.5918,-1.9675 -0.0463,-0.0017 -0.0926,-0.0021 -0.1387,-0.0015 z m 1.9985,22.057 -0.4181,-2.0673 -0.1632,-0.0306 0.4826,2.0793 z m -1.1602,-5.7346 -0.3892,-1.9234 -0.2932,0.0339 0.4244,1.9193 z m -1.0171,-5.026 -0.3949,-1.9519 -0.2694,0.1172 0.3744,1.961 z m -1.1751,-5.8071 -0.4452,-2.2 -0.1005,0.0907 0.3719,2.2662 z m 16.8729,-4.3608 c 1.1768,0 2.3053,0.4809 3.1374,1.3368 0.8321,0.8559 1.2995,2.0168 1.2995,3.2272 0,1.2105 -0.4674,2.3714 -1.2995,3.2273 -0.8321,0.8559 -1.9606,1.3367 -3.1374,1.3367 -1.1767,0 -2.3053,-0.4808 -3.1374,-1.3367 -0.832,-0.8559 -1.2995,-2.0168 -1.2995,-3.2273 0,-1.2104 0.4675,-2.3713 1.2995,-3.2272 0.8321,-0.8559 1.9607,-1.3368 3.1374,-1.3368 z m 2.116,11.45 c 2.4504,0 4.4369,2.0434 4.4369,4.564 0,2.5206 -1.9865,4.564 -4.4369,4.564 -1.1768,0 -2.3053,-0.4808 -3.1374,-1.3367 -0.8321,-0.856 -1.2996,-2.0168 -1.2996,-3.2273 0,-1.2104 0.4675,-2.3713 1.2996,-3.2272 0.8321,-0.8559 1.9606,-1.3368 3.1374,-1.3368 z m -1.3799,10.6931 c 1.1767,0 2.3053,0.4808 3.1374,1.3367 0.8321,0.856 1.2995,2.0168 1.2995,3.2273 0,1.2104 -0.4674,2.3713 -1.2995,3.2272 -0.8321,0.8559 -1.9607,1.3368 -3.1374,1.3368 -1.1767,0 -2.3053,-0.4809 -3.1374,-1.3368 -0.8321,-0.8559 -1.2995,-2.0168 -1.2995,-3.2272 0,-1.2105 0.4674,-2.3713 1.2995,-3.2273 0.8321,-0.8559 1.9607,-1.3367 3.1374,-1.3367 z m -4.5077,9.8416 c 1.7224,0 3.2891,1.0253 4.0189,2.6302 l -8.4524,2.1139 c -0.0023,-0.06 -0.0034,-0.1201 -0.0034,-0.1801 0,-1.2104 0.4675,-2.3713 1.2996,-3.2272 0.832,-0.8559 1.9606,-1.3368 3.1373,-1.3368 z"
       id="path1614"
       style="display:inline"
       inkscape:label="layer-7" />
    <path
       fill="#000000"
       d="m 16.6554,-103.467 c -11.84875,0.038 -24.34111,0.972 -38.1984,3.078 l 1.6334,3.7081 c 23.53848,-3.4931 42.9828,-3.5421 62.2342,-1.564 l 1.1491,-3.8121 c -8.7764,-0.926 -17.6027,-1.439 -26.8183,-1.41 z m 30.1408,40.3595 c 0.011,0.2479 0.0626,0.5555 0.1082,0.8784 0.8725,6.1758 -0.7247,8.7165 -2.7951,8.7371 l -5.719,0.0991 C 27.5239,-34.6095 23.2811,-16.4914 22.817,1.40816 22.3174,20.6804 26.3122,39.7531 31.6062,58.7949 c 1.6933,0.2936 2.9198,1.4726 3.0788,3.5911 1.8512,-0.1223 3.7241,-0.351 5.6309,-0.6607 C 34.4529,41.2343 29.911,21.2686 30.4204,1.61675 30.9485,-18.7522 36.468,-38.9898 52.4661,-61.0213 c -1.8769,-0.7108 -3.7443,-1.383 -5.6699,-2.0862 z M 67.1706,-48.562 C 56.9152,-34.4181 52.2755,-22.3325 50.4331,-9.97866 l 3.6006,1.59358 C 55.4861,-19.2284 59.1094,-29.6997 67.177,-41.8574 Z m -87.7536,22.2716 0.6232,4.9315 c 6.0394,3.5102 11.66778,5.4063 17.62086,5.7295 7.23358,0.3927 14.60724,-1.4331 23.83204,-4.6534 l 1.055,-4.5136 c -19.01847,6.8624 -28.77804,7.7821 -43.1311,-1.494 z m 72.2373,16.88887 -0.1434,0.75234 c -0.6941,6.78584 0.3774,13.88403 2.4866,20.95469 l 6.4261,9.8854 c 1.314,4.3255 2.732,8.6866 3.2494,12.739 3.0969,5.8311 6.3831,11.3514 9.3577,16.327 0.1053,0.1762 2.4745,-0.8395 2.4745,-0.8395 C 70.54,42.114 64.7578,32.2707 60.4167,22.1502 55.9837,11.8155 53.0537,1.1918 54.0324,-8.37642 Z M 44.369,-1.0432 c -0.1372,-0.002 -0.2647,0.072128 -0.3339,0.193985 -0.0691,0.121858 -0.0691,0.272572 0,0.39443 0.0692,0.121857 0.1967,0.19598 0.3339,0.193985 h 5.8492 C 50.1957,-0.521789 50.1753,-0.782537 50.1568,-1.0432 Z M 43.7352,0.5216 C 43.5114,0.518627 43.2978,0.617117 43.1511,0.790864 43.0043,0.964612 42.9394,1.19599 42.9736,1.42345 43.3655,1.63808 43.7539,1.8587 44.138,2.0864 h 6.335 C 50.4049,1.56433 50.3428,1.04269 50.29,0.5216 Z m 1.4642,2.2168 c 1.1409,0.72579 2.2435,1.51002 3.3064,2.3472 h 2.4384 C 50.8009,4.30267 50.6728,3.5201 50.5616,2.7384 Z M 49.469,5.868 c 0.6834,0.57253 1.3496,1.16685 1.9963,1.78332 C 51.3319,7.05684 51.2084,6.46235 51.092,5.868 Z m 29.7597,8.3456 c -0.009,0.5442 -0.094,1.0686 -0.2448,1.5648 h 3.4158 v -1.5648 z m -1.0889,3.26 c -0.4486,0.6215 -1.0168,1.1527 -1.6693,1.5648 h 5.9292 v -1.5648 z m -1.0958,3.26 c 0.257,0.5086 0.5233,1.0285 0.8039,1.5648 h 4.5518 v -1.5648 z m 1.7042,3.26 c 0.2782,0.5179 0.5603,1.0394 0.8477,1.5648 h 2.8038 v -1.5648 z m 1.7846,3.26 c 0.2932,0.5279 0.5818,1.0455 0.8733,1.5648 h 0.9936 v -1.5648 z"
       id="path1610"
       style="display:inline"
       inkscape:label="layer-10" />
    <path
       stroke="#4444ff"
       stroke-linecap="round"
       stroke-linejoin="round"
       stroke-width="0.77143"
       fill="none"
       d="m 58.5433,-37.8985 c -1.9161,3.7225 -7.3571,-2.7434 -11.9331,-1.2891 m 5.1937,-8.9224 c 0.9144,4.8359 9.0246,6.7164 6.7394,10.2115 -4.2801,0.5289 -7.2616,-2.4792 -10.0419,-6.0353 4.4937,0.478 8.5038,1.6031 10.0419,6.0353 M 51.8039,-48.11 c -0.7402,1.611 -1.5154,3.2266 -0.0909,4.5491 m -5.1028,4.3733 c 0.6954,-2.3525 2.0943,-2.6204 3.8631,-2.3136 m 13.5449,-6.074 c -2.0601,3.6403 -7.2439,-3.0455 -11.873,-1.7816 m 5.5382,-8.7003 c 0.7247,4.8698 8.7548,7.0841 6.3348,10.4819 -4.2973,0.3514 -7.1588,-2.7775 -9.7979,-6.4457 4.4715,0.6634 8.4343,1.9535 9.7979,6.4457 m -6.3348,-10.4819 c -0.8026,1.579 -1.6403,3.1613 -0.2686,4.5417 m -5.2696,4.1586 c 0.7868,-2.3218 2.2408,-2.5308 3.9962,-2.1512 m -1.8021,22.4895 c -1.2892,3.9979 -7.6976,-1.45 -11.9755,0.7651 m 3.6827,-9.6851 c 1.6817,4.6129 9.9827,5.0834 8.2928,8.92 -4.1354,1.2519 -7.5607,-1.2057 -10.876,-4.2381 4.5085,-0.2954 8.6445,0.1298 10.876,4.2381 m -8.2928,-8.92 c -0.4701,1.715 -0.974,3.4405 0.644,4.5017 m -4.3267,5.1834 c 0.3063,-2.4386 1.6867,-2.9413 3.4804,-2.9407 m 4.6339,12.3023 c -1.1149,4.0529 -7.7527,-1.0961 -11.9306,1.3126 m 3.26,-9.844 c 1.8796,4.5313 10.1928,4.6211 8.6706,8.5314 -4.0772,1.44 -7.6055,-0.8583 -11.0487,-3.7359 4.4913,-0.5016 8.6415,-0.2662 11.0487,3.7359 m -8.6706,-8.5314 c -0.3955,1.7348 -0.8242,3.4817 0.8381,4.4676 m -4.0981,5.3764 c 0.2005,-2.4502 1.6026,-2.9015 3.3946,-2.983 M 58.359,-38.3367 c 0.1791,-0.3205 0.361,-0.6417 0.5456,-0.9638 m -0.8075,1.4353 c 0.0866,-0.157 0.1739,-0.3141 0.2619,-0.4715 m -0.7793,1.421 c 0.1698,-0.3157 0.3422,-0.6322 0.5174,-0.9495 m -3.6401,7.3322 c 0.9248,-2.0993 1.9619,-4.2237 3.1227,-6.3827 m -3.5592,7.3913 c 0.1426,-0.3356 0.2881,-0.6718 0.4365,-1.0086 m -0.7111,1.6623 c 0.0903,-0.2176 0.1819,-0.4355 0.2746,-0.6537 m -0.7326,1.7807 c 0.1492,-0.375 0.3018,-0.7506 0.458,-1.127 m -3.118,8.9832 c 0.7285,-2.5979 1.6074,-5.2102 2.66,-7.8562 m -2.9001,8.7324 c 0.0781,-0.2919 0.1582,-0.584 0.2401,-0.8762 m -0.2821,1.0336 c 0.0139,-0.0525 0.0279,-0.1049 0.042,-0.1574 m -0.2123,0.81 c 0.0558,-0.2175 0.1125,-0.435 0.1703,-0.6526 m -1.6916,8.0362 c 0.3892,-2.4633 0.8897,-4.9189 1.5213,-7.3836 m -7.7663,0.025 c -0.2887,1.2301 -0.5492,2.4578 -0.7832,3.684 M 45.5992,-28.76 c -0.5024,1.3575 -0.9659,2.7092 -1.3927,4.0563 m 5.9271,-14.3672 c -0.6675,1.3086 -1.296,2.6097 -1.8871,3.9042 m 7.6313,-13.8359 c -0.8484,1.3126 -1.6557,2.6159 -2.4234,3.9108 m 8.2755,-12.2565 -0.9822,1.326 c -0.3767,0.5085 -0.7471,1.0155 -1.1113,1.521 m -1.8197,13.2911 c 1.0457,-1.7905 2.174,-3.6031 3.3902,-5.4418 m -8.0873,14.5158 c 0.7172,-1.5909 1.4963,-3.1949 2.3418,-4.8151 m -6.2007,15.0885 c 0.5721,-1.8965 1.2229,-3.8026 1.9605,-5.724 m -4.3321,15.9126 c 0.3119,-1.8665 0.6874,-3.7327 1.1341,-5.604 m -8.4162,-5.1986 c -0.5393,1.9558 -1.0081,3.9039 -1.4122,5.8463 m 1.4594,-6.0168 c -0.0158,0.0568 -0.0316,0.1137 -0.0472,0.1705 m 14.811,-31.2613 c -7.3054,10.7595 -11.9688,21.0283 -14.7638,31.0908 m 14.9126,-31.3095 c -0.0497,0.0729 -0.0993,0.1458 -0.1488,0.2187 m 3.6515,-5.1235 -0.3469,0.4684 c -1.1026,1.4884 -2.1538,2.967 -3.1558,4.4364 m 7.89,2.1114 c 0.4295,-0.5994 0.8681,-1.2013 1.316,-1.8061 l 1.5628,-2.1098 m -8.9734,13.2572 c 0.9482,-1.615 1.9614,-3.2463 3.0435,-4.8962 m -7.9072,14.2464 c 0.6736,-1.487 1.3996,-2.9846 2.1813,-4.4947 m -6.0988,14.8165 c 0.526,-1.7117 1.1146,-3.4313 1.771,-5.1622 m -4.2294,15.4207 c 0.2888,-1.6518 0.6269,-3.3045 1.0191,-4.9613 M 40.471,-18.186 c -0.2041,0.8868 -0.3939,1.7724 -0.5702,2.6569 m 1.3213,-5.6842 c -0.0664,0.2494 -0.1317,0.4987 -0.1958,0.7479 m 0.875,-3.1638 c -0.0829,0.2799 -0.1642,0.5596 -0.2441,0.8392 m 1.8913,-5.8664 c -0.3114,0.8658 -0.6076,1.7295 -0.889,2.5913 m 2.1802,-5.9749 c -0.1356,0.336 -0.2689,0.6716 -0.3998,1.0069 m 1.3785,-3.3425 c -0.1526,0.3512 -0.3025,0.702 -0.4499,1.0525 m 2.7956,-6.0667 c -0.4713,0.9401 -0.9231,1.8768 -1.356,2.8104 m 2.9313,-5.83 c -0.1471,0.2713 -0.2925,0.5424 -0.4363,0.8131 m 1.6945,-3.0711 c -0.1912,0.3341 -0.38,0.6677 -0.5662,1.0008 m 3.483,-5.8219 c -0.5716,0.8966 -1.1246,1.7895 -1.6594,2.6788 m 3.3989,-5.333 c -0.1149,0.1706 -0.2291,0.3412 -0.3426,0.5115 m 1.6672,-2.4421 c -0.1208,0.1728 -0.2409,0.3455 -0.3603,0.518 m 3.2829,-4.5517 -0.666,0.8991 c -0.2781,0.3755 -0.5529,0.7502 -0.8244,1.1243 m 2.6131,2.942 c 0.4042,-0.563 0.8164,-1.128 1.2365,-1.6952 l 1.2742,-1.7202 m -8.6636,12.8222 c 0.8776,-1.4896 1.809,-2.9917 2.7969,-4.5078 M 49.845,-34.1 c 0.6487,-1.4288 1.3443,-2.8665 2.0895,-4.3145 m -6.0593,14.7032 c 0.4896,-1.5721 1.0306,-3.1506 1.6267,-4.7378 m -4.1361,14.9474 c 0.2673,-1.4629 0.5726,-2.9274 0.9193,-4.3952 m -68.5794,-88.0001 c 26.57375,-4.203 48.4132,-4.211 69.8845,-1.832 m -65.4998,11.048 c 23.53845,-3.493 42.9827,-3.542 62.2342,-1.564 m -63.8676,-2.144 c 24.63512,-3.744 44.9563,-3.784 65.0167,-1.668 m -83.6929,-28.282 c 11.1641,15.573 16.1957,23.859 20.3299,33.6705 m 78.5315,-33.6495 c -11.6456,17.275 -14.043,24.018 -16.3261,32.0964 M 19.2779,-109.302 c -2.4116,-2.256 -3.9327,-5.425 -4.0658,-10.014 -5.0905,-0.922 -6.22626,-5.465 -6.97227,-10.432 -0.746,4.967 -1.88175,9.51 -6.97229,10.432 -0.15207,5.243 -2.116358,8.633 -5.15071,10.926 m 5.62659,-0.412 c 1.49718,-2.12 2.5827,-4.684 3.06003,-7.633 1.34017,-0.664 2.50376,-1.571 3.43638,-2.616 0.93263,1.045 2.09617,1.952 3.43637,2.616 0.4409,2.724 1.4007,5.119 2.7246,7.14 m -29.8176,2.133 c -5.4676,-2.357 -5.4916,-6.774 -7.4018,-10.85 -5.1439,0.439 -11.6967,-6.723 -17.1434,-12.411 m 9.1617,13.738 c 1.6502,1.116 3.4004,2 5.3198,2.386 0.5084,1.501 1.0777,3.262 2.2041,5.188 0.5584,0.955 1.2878,1.882 2.1905,2.737 m 55.5324,-2.349 c 3.9151,-1.769 6.1066,-5.353 5.4856,-11.897 12.3279,-2.202 13.4978,-6.335 18.6207,-9.783 m -18.248,22.183 c 0.1607,-0.175 0.3174,-0.356 0.4699,-0.543 1.8607,-2.282 2.8503,-5.259 3.0288,-8.691 3.7404,-0.914 6.5311,-2.08 8.7221,-3.362 m -24.0027,-9.563 c -1.2317,9.719 -10.0499,9.154 -10.4873,15.651 -0.3941,5.854 8.4968,6.431 8.8562,0.575 0.243,-3.958 -4.821,-4.233 -5.0606,-0.329 -0.1199,1.953 3.0431,2.158 3.1629,0.206 m 3.5288,-16.103 c 0.0335,9.801 8.8507,10.382 8.4903,16.883 -0.3248,5.859 -9.2156,5.282 -8.8562,-0.575 0.2429,-3.958 5.3003,-3.575 5.0607,0.329 -0.1198,1.952 -3.2827,1.747 -3.1629,-0.205 m -41.4861,-14.712 c 0.4858,9.784 -7.2763,10.673 -6.616,17.149 0.5951,5.836 8.42243,4.948 7.7968,-0.885 -0.4228,-3.942 -4.8723,-3.382 -4.4553,0.506 0.2085,1.944 2.9931,1.628 2.7846,-0.316 m 0.4899,-16.454 c 1.59959,9.657 9.3634,8.784 10.09151,15.253 0.656089,5.829 -7.17125,6.718 -7.79683,0.885 -0.42281,-3.942 4.03828,-4.394 4.45533,-0.506 0.20853,1.945 -2.57605,2.261 -2.78458,0.316 m 30.01407,87.9146 c -19.01847,6.8624 -28.77821,7.7821 -43.1313,-1.494 m 1.3897,14.0942 c 5.3728,2.5416 10.80257,4.07333 16.4536,4.3801 7.55947,0.41036 14.7604,-1.13973 22.7464,-3.7266 m -39.9665,-9.8162 c 6.0394,3.5102 11.66788,5.4063 17.62096,5.7295 7.23358,0.3927 14.60734,-1.433 23.83224,-4.6533 M 11.3427,-5.12802 C 14.045,-5.69816 16.7605,-6.43553 19.531,-7.2956 M -19.0284,-7.851 c 2.5435,1.10209 5.1203,1.99789 7.742,2.66053 M -0.621444,-19.5244 C -1.97159,-34.7203 -5.22345,-49.1928 -8.98944,-63.0086 m 18.83593,9.7631 c -3.88247,8.6754 -6.76886,17.3561 -8.77703,25.9533 M 12.9565,-53.9618 C 7.61165,-42.449 4.08264,-30.9328 2.06823,-19.6047 M 19.8574,-56.544 C 13.6391,-44.3944 9.60771,-32.26 7.34095,-20.3185 M 22.6941,-56.5015 C 16.4298,-44.5507 12.3542,-32.637 10.029,-20.902 M 1.07931,-27.3233 C -0.532461,-39.7719 -3.28339,-51.6916 -6.38451,-63.12 m 0.62195,43.1331 C -7.15134,-34.6508 -10.3542,-48.7418 -14.074,-62.3233 m 5.70439,41.7579 C -9.79666,-34.8676 -12.9623,-48.6782 -16.6378,-62.0579 M 44.0762,61.0414 C 38.2085,40.5373 33.7266,20.8306 34.222,1.72118 34.7392,-18.2271 40.0831,-37.8066 56.2102,-59.5787 M 40.3041,61.7169 C 34.453,41.2342 29.911,21.2686 30.4204,1.61675 30.9485,-18.7522 36.468,-38.9897 52.491,-61.0009 m -17.9243,6.6071 C 12.0922,-14.6877 17.7203,22.8671 27.7969,59.4872 m 3.7653,-0.6917 C 26.3123,39.7531 22.3174,20.6804 22.817,1.40816 23.2811,-16.4914 27.5239,-34.6095 38.3903,-53.393 m -1.8553,35.6131 c 5.1623,3.7982 13.1279,7.85567 24.4388,12.22236 M 58.9046,-39.3005 c 2.2117,-3.8577 4.8219,-7.8338 7.8931,-11.9801 l 0.3897,-0.5261 m -3.3749,1.3659 c 0.479,-0.6713 0.9698,-1.3463 1.4726,-2.0251 l 1.8279,-2.4676 M 54.0336,-8.38519 C 55.4861,-19.2285 59.1095,-29.6997 67.1771,-41.8575 M 50.4332,-9.97854 C 52.2756,-22.3324 56.9153,-34.4181 67.1706,-48.5621 M 46.8422,-63.0626 c 7.0105,2.4551 13.8524,5.1064 20.3522,8.1559 m -149.6339,8.6384 c 9.9101,-6.8846 31.6882,-14.879 47.8187,-16.1497 m 69.5892,80.8625 c 7.0935,4.1339 11.936,12.4251 11.936,21.9795 0,5.5626 -1.6414,10.697 -4.4128,14.8321 m 1.2771,4.6547 c 4.3166,-5.1485 6.9387,-12.0244 6.9387,-19.4868 0,-11.869 -6.6331,-22.2542 -16.1672,-26.5654 m 26.5372,42.5169 c 1.9012,-4.98 2.9408,-10.3833 2.9408,-15.9515 0,-19.1663 -12.3178,-36.37895 -29.6907,-41.103414 M 56.266,57.9497 C 58.7981,52.6341 60.2151,46.6513 60.2151,40.424 60.2151,23.2495 49.4369,7.93377 34.2126,3.34865 M 54.0324,-8.37638 C 54.5773,13.3062 65.4703,33.6228 75.4249,50.2829 M 74.5261,18.4465 c 1.8662,4.1602 5.4883,10.5426 8.1101,15.1399 M 3.16907,0 c 0,-0.691685 -0.33389,-1.35504 -0.92824,-1.84413 C 1.64649,-2.33323 0.840381,-2.608 -1.5e-4,-2.608 c -0.840531,0 -1.64664,0.27477 -2.24098,0.76387 -0.59435,0.48909 -0.92825,1.152445 -0.92825,1.84413 0,0.691685 0.3339,1.35504 0.92825,1.84413 0.59434,0.4891 1.400449,0.76387 2.24098,0.76387 0.840531,0 1.64664,-0.27477 2.24098,-0.76387 C 2.83518,1.35504 3.16907,0.691685 3.16907,0 Z m 2.53538,3.912 c 9.50765,9.78 9.50765,-17.604 0,-7.824 m 3.80307,7.824 c 0,0 0.63388,-0.652 0.63388,-1.304 0,-0.652 -0.63388,-1.304 -0.63388,-2.608 0,-1.304 0.63388,-1.956 0.63388,-2.608 0,-0.652 -0.63388,-1.304 -0.63388,-1.304 M -5.70476,3.912 c -9.50764,9.78 -9.50764,-17.604 0,-7.824 m -3.80307,7.824 c 0,0 -0.63387,-0.652 -0.63387,-1.304 0,-0.652 0.63387,-1.304 0.63387,-2.608 0,-1.304 -0.63387,-1.956 -0.63387,-2.608 0,-0.652 0.63387,-1.304 0.63387,-1.304 m 5.70461,2.608 c -8.23998,-8.476 15.84612,-8.476 7.60614,0 m -7.60614,-3.912 c 0,0 0.63384,-0.652 1.26769,-0.652 0.63384,0 1.26769,0.652 2.53538,0.652 1.26769,0 1.90153,-0.652 2.53538,-0.652 0.63384,0 1.26769,0.652 1.26769,0.652 m -7.60614,6.52 c -8.23998,8.476 15.84612,8.476 7.60614,0 m -7.60614,3.912 c 0,0 0.63384,0.652 1.26769,0.652 0.63384,0 1.26769,-0.652 2.53538,-0.652 1.26769,0 1.90153,0.652 2.53538,0.652 0.63384,0 1.26769,-0.652 1.26769,-0.652 M -7.22648,-5.216 H -5.4381 M -7.22648,5.216 H -5.4381 M -18.9826,-5.216 h 7.7178 m -7.7398,2.608 h 6.4707 M -19.0729,-3.912e-6 -12.8355,0 m -6.3521,2.608 h 6.6537 m -6.8404,2.608 h 8.1095 M 62.1167,-8.70267 c -0.6339,-0.652 -1.5583,-3.74383 1.9015,-3.91203 3.7397,-0.1817 7.0315,3.27043 10.7754,3.26003 2.2058,-0.00613 5.7046,-1.95603 5.7046,-1.95603 -0.0265,-1.4089 1.0007,-2.5623 0,-4.564 -3.1693,1.304 -11.7833,-0.652 -17.1139,-0.652 -3.1692,0 -5.0707,3.7368 -5.0707,6.52 0,5.86803 7.6768,5.13826 8.0448,2.20655 0.1952,-1.55452 -2.3402,-4.81455 -2.3402,-4.81455 m -2.9424,6.77531 C 58.6891,4.1377 61.7453,9.60186 70.0135,10.7446 m 1.0306,-14.25997 c -3.7497,-0.1914 -3.2228,-1.2753 -3.2228,-1.2753 0.2808,3.869205 -1.1166,6.15557 -3.1693,7.824 m 0.7524,-13.60013 c 3.3605,0.4627 4.6755,2.51613 7.4876,2.51613 0.3005,0 0.5921,0.06411 0.8643,0.17715 m -0.713,3.77903 c -2.5348,-0.52208 -1.7218,-3.15299 2.1239,-4.35766 v 0 c 7.5976,-2.37995 9.0735,1.50889 2.7956,3.66148 -0.3779,0.12956 -0.7386,0.24143 -1.0821,0.33682 m -3.2861,0.24436 c 8.9513,-1.33593 10.0574,2.71826 2.6337,4.006555 C 67.234,1.35792 67.18,-3.25217 73.5946,-4.20949 Z m -0.5051,4.754497 c 9.0057,-0.86788 9.9107,3.238743 2.4331,4.138623 -9.0595,1.09029 -8.8865,-3.51669 -2.4331,-4.138623 z m 0.1282,4.564003 c 8.0226,-0.86788 8.8288,3.23874 2.1675,4.13862 -8.0705,1.09027 -7.9164,-3.51669 -2.1675,-4.13862 z m 4.7451,9.00829 c 0,2.5207 -2.1284,4.564 -4.7539,4.564 -2.6254,0 -4.7538,-2.0433 -4.7538,-4.564 0,-2.5206 2.1284,-4.56397 4.7538,-4.56397 2.6255,0 4.7539,2.04337 4.7539,4.56397 z M 67.1874,-16.3 v -90.203 l 6.3385,-6.52 6.3384,6.52 v 90.829 M 44.369,11.084 c 0,1.2104 -0.4675,2.3713 -1.2995,3.2272 -0.8321,0.856 -1.9607,1.3368 -3.1374,1.3368 -2.4505,0 -4.4369,-2.0434 -4.4369,-4.564 0,-1.21045 0.4674,-2.37132 1.2995,-3.22724 C 37.6268,7.00085 38.7553,6.52 39.9321,6.52 c 1.1767,0 2.3053,0.48085 3.1374,1.33676 0.832,0.85592 1.2995,2.01679 1.2995,3.22724 z m 8.4341,7.7398 c 0,1.2104 -0.4675,2.3713 -1.2995,3.2272 -0.8321,0.8559 -1.9607,1.3368 -3.1374,1.3368 -1.1768,0 -2.3053,-0.4809 -3.1374,-1.3368 -0.8321,-0.8559 -1.2995,-2.0168 -1.2995,-3.2272 0,-1.2105 0.4674,-2.3713 1.2995,-3.2273 0.8321,-0.8559 1.9606,-1.3367 3.1374,-1.3367 1.1767,0 2.3053,0.4808 3.1374,1.3367 0.832,0.856 1.2995,2.0168 1.2995,3.2273 z m 5.0597,9.8414 c 0,1.2105 -0.4675,2.3713 -1.2996,3.2273 -0.8321,0.8559 -1.9606,1.3367 -3.1373,1.3367 -1.1768,0 -2.3053,-0.4808 -3.1374,-1.3367 -0.8321,-0.856 -1.2996,-2.0168 -1.2996,-3.2273 0,-1.2104 0.4675,-2.3713 1.2996,-3.2272 0.8321,-0.8559 1.9606,-1.3368 3.1374,-1.3368 1.1767,0 2.3052,0.4809 3.1373,1.3368 0.8321,0.8559 1.2996,2.0168 1.2996,3.2272 z m 2.1158,11.4502 c 0,1.2104 -0.4674,2.3713 -1.2995,3.2272 -0.8321,0.8559 -1.9606,1.3368 -3.1374,1.3368 -1.1767,0 -2.3053,-0.4809 -3.1374,-1.3368 -0.832,-0.8559 -1.2995,-2.0168 -1.2995,-3.2272 0,-1.2105 0.4675,-2.3714 1.2995,-3.2273 0.8321,-0.8559 1.9607,-1.3367 3.1374,-1.3367 1.1768,0 2.3053,0.4808 3.1374,1.3367 0.8321,0.8559 1.2995,2.0168 1.2995,3.2273 z m -1.3799,10.6931 c 0,1.2104 -0.4674,2.3713 -1.2995,3.2272 -0.8321,0.8559 -1.9607,1.3368 -3.1374,1.3368 -1.1767,0 -2.3053,-0.4809 -3.1374,-1.3368 -0.8321,-0.8559 -1.2995,-2.0168 -1.2995,-3.2272 0,-1.2105 0.4674,-2.3714 1.2995,-3.2273 0.8321,-0.8559 1.9607,-1.3367 3.1374,-1.3367 1.1767,0 2.3053,0.4808 3.1374,1.3367 0.8321,0.8559 1.2995,2.0168 1.2995,3.2273 z M 45.2206,60.8302 c -0.0023,-0.0601 -0.0034,-0.1202 -0.0034,-0.1803 0,-1.2104 0.4675,-2.3713 1.2996,-3.2272 0.832,-0.856 1.9606,-1.3368 3.1373,-1.3368 1.7225,0 3.2892,1.0254 4.019,2.6303 m 21.6772,-74.2821 c -0.1957,-0.8828 -0.6971,-3.2726 -0.7581,-4.8409 -0.076,-1.9543 1.7228,-4.6419 1.6721,-5.9447 -0.0506,-1.3029 -2.7359,-5.1023 -2.8119,-7.0566 -0.076,-1.9543 1.5455,-9.2019 1.4695,-11.1562 -0.076,-1.9542 -2.1786,-7.0838 -2.2545,-9.0381 -0.076,-1.9543 2.2547,-7.2749 2.1534,-9.8806 -0.1012,-2.6057 -2.2798,-9.6896 -2.3558,-11.6439 -0.076,-1.9542 2.3054,-5.9719 2.2041,-8.5777 -0.1013,-2.6057 -2.1532,-6.4324 -2.2292,-8.3867 -0.0759,-1.9543 0.4561,-4.5873 0.4054,-5.8901 -0.0506,-1.3029 -0.8106,-4.5326 -0.8612,-5.8356 -0.0507,-1.303 1.5455,-9.202 1.5455,-9.202 m 1.1842,97.4262 c -0.1905,-0.8875 -0.6752,-3.2771 -0.7259,-4.8438 -0.0633,-1.9549 1.7528,-4.6265 1.7106,-5.9298 -0.0422,-1.3033 -2.7028,-5.1263 -2.7661,-7.0812 -0.0633,-1.955 1.6052,-9.1881 1.5418,-11.143 -0.0633,-1.9549 -2.1325,-7.1029 -2.1958,-9.0578 -0.0633,-1.955 2.3019,-7.2549 2.2175,-9.8614 -0.0844,-2.6066 -2.217,-9.7095 -2.2803,-11.6644 -0.0633,-1.9549 2.3441,-5.9516 2.2597,-8.5581 -0.0844,-2.6066 -2.1115,-6.4513 -2.1748,-8.4062 -0.0632,-1.9549 0.4859,-4.5832 0.4436,-5.8865 -0.0422,-1.3033 -0.7811,-4.54 -0.8233,-5.843 -0.0422,-1.303 1.6051,-9.188 1.6051,-9.188 m 6.3384,65.46 c 0.8548,0.5453 1.6996,1.1021 2.534,1.671 m -10.8966,30.0281 c -0.1842,-1.0593 -0.5112,-3.1369 -0.5112,-4.5418 0,-1.956 1.9015,-4.564 1.9015,-5.868 0,-1.304 -2.5354,-5.216 -2.5354,-7.172 0,-1.956 1.9016,-9.128 1.9016,-11.084 0,-1.956 -1.9016,-7.172 -1.9016,-9.128 0,-1.956 2.5354,-7.172 2.5354,-9.78 0,-2.608 -1.9015,-9.78 -1.9015,-11.736 0,-1.956 2.5354,-5.868 2.5354,-8.476 0,-2.608 -1.9016,-6.52 -1.9016,-8.476 0,-1.956 0.6339,-4.564 0.6339,-5.868 0,-1.304 -0.6339,-4.5643 -0.6339,-5.8683 0,-1.304 1.9016,-9.128 1.9016,-9.128 m 0.5579,97.4369 c -0.1858,-0.894 -0.6528,-3.2789 -0.6933,-4.842 -0.0507,-1.9553 1.7826,-4.6145 1.7488,-5.9181 -0.0338,-1.3035 -2.6697,-5.1446 -2.7203,-7.0999 -0.0507,-1.9553 1.6643,-9.1769 1.6136,-11.1322 -0.0507,-1.9553 -2.0867,-7.1173 -2.1374,-9.0726 -0.0507,-1.9553 2.3487,-7.239 2.2811,-9.8461 -0.0676,-2.607 -2.1543,-9.7243 -2.205,-11.6796 -0.0507,-1.9554 2.3824,-5.9355 2.3148,-8.5426 -0.0675,-2.607 -2.0698,-6.4655 -2.1204,-8.4208 -0.0507,-1.9553 0.5153,-4.5798 0.4815,-5.8833 -0.0338,-1.3035 -0.7519,-4.5447 -0.7857,-5.8487 -0.0338,-1.303 1.6644,-9.177 1.6644,-9.177 M 63.6732,34.93 c 3.1465,5.9246 6.4884,11.5284 9.5004,16.5659 M 53.9974,12.3055 C 51.8882,5.23486 50.8168,-1.86335 51.5109,-8.64919 l 0.1435,-0.75245 M -19.1008,-96.7708 c -10.4687,19.9837 -3.3597,21.5225 -7.5208,31.5708 -1.8918,4.5683 -6.3385,2.608 -5.216,-0.5508 1.6308,-4.5894 4.5821,-2.7092 3.9483,-0.1012 -0.2592,1.0662 -1.8777,1.6894 -2.5354,1.304 m 13.3682,-32.5003 c -10.7121,20.2326 -3.8345,21.6075 -7.6636,31.8483 -3.1692,8.476 -8.2249,2.608 -7.1024,-0.5508 m 16.8115,-31.5686 c -10.9175,20.4916 -3.9615,21.8331 -7.8076,32.1194 -3.1692,8.476 -14.0829,8.8009 -11.4092,0 3.1692,-10.432 9.134,-7.6233 8.5002,-3.0593 m 12.7515,-29.3097 c -11.1073,20.7305 -4.0793,22.0411 -7.9409,32.369 -1.361,3.6398 -4.0736,5.4013 -6.5144,5.5296 m 16.4885,-38.1438 c -11.2943,20.9656 -4.1958,22.2457 -8.0726,32.6142 -1.3487,3.6071 -4.0417,5.1553 -6.4844,5.0654 m 16.57696,-37.8989 c -11.46216,21.1761 -4.30076,22.429 -8.19106,32.8335 -1.175,3.1426 -3.5158,4.4167 -5.8601,4.3273 m 16.0704,-37.3777 c -11.6288,21.3846 -4.4052,22.6105 -8.3087,33.0504 -1.0553,2.8223 -2.9488,3.9067 -4.9066,3.7729 m 15.21929,-37.0114 c -11.77359,21.5656 -4.49623,22.7681 -8.41119,33.2385 -1.0543,2.8198 -2.8487,3.7111 -4.6755,3.3209 m 15.09051,-36.7463 c -11.91791,21.7456 -4.58723,22.9248 -8.51351,33.4254 -0.9422,2.5201 -2.5285,3.3576 -4.2221,3.0591 m 14.72249,-36.64 c -12.03819,21.8956 -4.66324,23.0553 -8.59882,33.5809 -0.88547,2.3683 -2.35047,3.0881 -3.94367,2.7038 M 1.07808,-98.9363 c -12.15858,22.0455 -4.7395,23.1859 -8.68437,33.7363 -0.83315,2.2282 -2.23966,2.7879 -3.81191,2.2425 M 3.04725,-99.0588 c -12.25371,22.1639 -4.79984,23.2889 -8.75201,33.8588 -0.7138,1.909 -1.88813,2.4637 -3.24879,2.0767 m 13.9702,-36.0581 c -12.34906,22.2823 -4.860436,23.392 -8.81987,33.9814 -0.7158,1.9144 -1.89707,2.3727 -3.26621,1.8336 M 6.95837,-99.2538 C -5.4471,-76.9014 2.06204,-75.8009 -1.90169,-65.2 c -0.58068,1.553 -1.56496,1.9778 -2.769,1.5816 M 8.87368,-63.896 c 0,0 -0.63385,11.084 -5.07076,11.084 -4.436915,0 -4.436915,-7.172 -0.63385,-7.172 3.80307,0 2.53538,4.564 0,4.564 -1.26769,0 -0.82228,-1.8968 0.63385,-1.956 m 6.73458,-5.7865 c -0.63382,5.868 -1.56523,12.7149 -5.21411,9.9298 m 6.87801,-9.1963 c -0.3811,5.4473 -0.6747,10.4626 -3.64233,8.8579 m 5.30613,-8.1244 c -0.6338,4.564 -0.1548,9.1907 -2.8852,7.6449 m 4.5491,-6.9114 c -0.6339,4.564 0.2109,7.7613 -2.5196,6.2156 m 4.1834,-5.4821 c -0.4517,3.5045 0.4674,6.7162 -2.2631,5.1705 m 3.9269,-4.437 c -0.4753,2.771 0.1585,4.727 -1.9733,3.8846 m 3.6372,-3.1511 c -1.0374,2.9538 -0.2377,2.3243 -2.0219,2.4113 m 3.6857,-1.6778 c -0.5818,0.7633 -0.3399,1.6298 -2.3678,1.5026 M 1.26754,-69.4824 c 0.14828,2.3669 -0.717826,7.0552 -4.83406,6.0062 m 6.35529,-4.8889 c 0.75857,2.9388 -0.16015,8.5318 -6.35529,4.8889 M 4.31,-67.2479 c 0.52196,3.0605 -0.83002,9.0003 -5.90421,4.6624 m 7.42543,-3.5451 c -0.12677,1.5826 -0.50085,7.5535 -3.65983,4.9905 m 5.18106,-3.8732 c 0,2.3264 -1.54392,9.3794 -3.04743,9.3065 M 22.1844,-58.028 c 1.2126,6.1715 8.4929,1.4669 7.3012,-1.956 m 8.5449,-2.9677 c 0.3643,10.1397 10.8307,14.5734 8.8739,0.7226 -1.3607,-9.6312 -8.0224,-5.6951 -6.6465,0.8244 0.7633,3.6174 5.3569,6.5163 4.8065,0.8083 -0.6058,-6.2827 -2.78,-4.6178 -2.6948,-2.7912 0.0979,2.0996 0.6104,2.6198 1.529,3.2848 m -7.577,-2.2554 c 1.2042,6.5789 2.8842,10.4606 7.4136,8.8942 m -9.1226,-8.3006 c 1.0885,7.3092 2.521,9.0032 5.8493,8.4077 m -7.5583,-7.8142 c 0.6533,4.7553 0.053,7.5971 4.3199,7.316 m -6.0289,-6.7224 c 0.4383,3.3778 0.7661,5.5664 3.0329,5.8095 m -4.7419,-5.216 c 0.6302,3.0274 1.1051,6.523 3.3441,4.6978 m 9.0039,-43.1658 c 0,0 1.2677,3.912 1.2677,5.216 0,1.304 -0.6338,3.0105 -0.6338,3.6261 0,0.6156 0.4533,8.1151 0.3403,9.4139 -0.2842,3.2671 -2.3927,13.0805 -2.7026,16.3405 m 2.3623,-34.5965 c 0,2.608 7.65,5.5785 7.808,10.432 0.2745,8.429 -5.345,4.9271 -7.6352,2.3942 m 0.1155,-9.5662 c 0,0 5.2235,4.5715 5.4163,7.172 0.3214,4.3369 -3.8847,2.3331 -5.6145,1.2142 m 0.5437,-5.4003 c 0,0 2.9613,1.4834 3.1692,3.5341 0.3241,3.1951 -2.4002,1.9552 -3.732,1.1414 m 0.2506,-3.3747 c 0.9461,0.2773 1.5799,2.2333 1.5799,2.2333 0.1225,1.4008 -0.9623,0.6282 -1.8495,0.2113 m 0.1393,2.8553 c 0.1671,4.767 8.6825,8.0174 8.6825,13.8854 0,8.5363 -5.8442,5.4633 -6.0332,4.8927 m -2.4822,-14.0111 c 0.2754,1.6679 6.6139,5.8584 6.6139,9.7704 0,5.1987 -4.1075,4.6681 -4.437,3.912 m -2.4313,-10.9769 c 0,1.304 4.9667,4.4569 4.9667,7.0649 0,3.5561 -3.4806,3.1668 -4.1096,3.0671 m -1.2307,-7.6043 c 0.2696,1.2772 3.4388,2.5812 3.4388,4.8648 0,3.6002 -4.4277,1.1337 -4.4369,0.9764 m 0.6338,-3.912 c 0.5415,0.869 1.6297,1.304 1.6247,2.608 -0.0095,2.5121 -2.0381,0.7217 -2.1544,0.1435 M 8.23983,-91.932 c 0,0 5.70457,-4.564 8.23997,-4.564 2.5354,0 6.9723,1.304 7.6062,1.304 1.2676,0 1.2676,-1.304 1.2676,-1.304 l 0.6339,0.652 c 0,0 -1.0044,1.304 -1.9015,1.304 -0.8972,0 -5.7046,-1.304 -7.6062,-1.304 -1.6226,0 -8.23997,3.912 -8.23997,3.912 z M 41.8336,-94.54 c 0,0 -3.1692,-1.956 -4.4369,-1.956 -1.2677,0 -3.805,1.6646 -4.4369,1.6134 -0.7497,-0.0608 -1.2677,-0.3094 -1.9015,-1.6134 l -0.6339,0.652 c 0,0 1.2677,1.304 2.5354,1.304 1.2677,0 3.8031,-1.304 4.4369,-1.304 0.6338,0 4.4369,1.304 4.4369,1.304 z m -11.4092,-1.304 v 2.608 c 0,0.6873 -0.6338,1.304 -0.6338,1.956 0,0.652 3.803,13.04 3.803,13.692 0,0.652 -1.9015,2.608 -2.5353,2.608 -1.2677,0 -1.9703,-1.7954 -2.9778,-1.7954 -1.0075,0 -2.7269,1.1323 -3.3607,1.1434 -2.0912,0.0366 -2.021,-3.2252 0,-3.26 0.6338,-0.0109 1.2677,0.652 1.2677,0.652 m 0.6338,4.564 c -6.9723,0.3311 -7.675,3.2498 -12.6769,4.1936 -3.2403,0.6114 -3.3988,-4.588 -1.2677,-4.8456 1.2591,-0.1522 1.2677,2.2601 1.2677,2.2601 0.0366,0.0059 1.2677,-3.2162 -1.2677,-3.1359 -3.16767,0.1004 -3.1783,6.8359 0.764,6.6903 3.4718,-0.1283 7.476,-3.8585 13.1806,-3.8585 z m 3.8031,0 v 1.304 c 2.5354,0 4.5299,2.5872 6.3385,2.608 2.9662,0.0341 5.2982,-5.5414 1.8495,-5.4473 -1.2673,0.0347 -1.8495,1.5353 -1.8495,1.5353 0,0 0.9163,-1.0049 1.9077,-1.0363 2.0139,-0.0638 -0.1776,4.2709 -1.9077,4.2963 -1.2551,0.0184 -3.8031,-3.26 -6.3385,-3.26 z m -10.1415,6.52 v 0.9389 l 0.6338,-0.562 z m 13.9446,-0.652 v 1.0021 l -0.6339,-0.3501 z m -13.3108,1.0289 c 1.2677,0.2751 2.8029,-1.7173 4.3849,-1.7173 1.582,0 1.2063,0.6884 2.474,0.6884 1.2677,0 1.2677,-1.0321 2.5354,-1.0321 1.2677,0 2.0149,1.6841 3.2826,1.6841 m -9.5076,3.912 c 3.8522,2.0631 6.3384,-1.304 6.3384,-2.608 M 9.50752,-88.02 c 3.16918,0 5.26818,-3.6979 8.50018,-3.6979 3.8031,0 4.8106,3.0459 6.0783,3.0459 -1.2677,0 -4.6742,1.5694 -6.3905,1.5278 -1.901,-0.0462 -6.2864,-0.8758 -8.18798,-0.8758 z m 21.09898,-1.0727 c 3.1693,0 2.7636,-2.2468 5.9954,-2.2844 3.2511,-0.0379 4.1462,2.2844 5.4139,2.2844 -1.2677,0 -3.6608,2.0648 -5.3771,2.0231 -1.901,-0.0461 -4.1306,-2.0231 -6.0322,-2.0231 z M 5.95579,-53.8978 c -1.42447,3.2442 -2.71453,6.4904 -3.87572,9.7337 m 0.01417,-0.0195 c -1.3113,-6.3978 -2.841366,-12.6333 -4.4712,-18.7112"
       id="path1606"
       style="display:inline"
       inkscape:label="layer-16" />
    <path
       stroke="#4444ff"
       stroke-linecap="round"
       stroke-linejoin="round"
       stroke-width="0.385715"
       fill="none"
       d="m 71.3157,-8.25141 c 0.0537,0.9279 0.3761,1.32609 0.8298,1.47931 m -0.5212,3.28543 c 0.4528,1.13293 1.1676,2.29264 0,3.259996 M 70.9896,1.02007 c 0.4527,1.13293 1.1675,2.29264 0,3.26 m 0.065,1.62464 c 0.4527,1.13293 1.1675,2.29264 0,3.26 m 4.3728,-11.99938 c 0.3523,0.83321 0.15,1.38112 0,1.955996 m 0.9432,-6.572996 c 0.3524,0.83322 0.15,1.38113 0,1.956 m -1.301,7.11071 c 0.3524,0.83322 0.15,1.38112 0,1.956 m -0.1951,2.72791 c 0.3523,0.83321 0.15,1.38111 0,1.956 M 73.153,-7.26726 c 0.4527,1.13293 1.1675,2.29264 0,3.26 m 1.6406,-59.02894 v -0.6968 m 0,18.2451 v -17.5483 m 0,20.1145 v -2.5662 m 0,15.694 v -13.1278 m 0,24.3616 v -3.2638 m 1.2676,6.3527 v -9.8402 m -1.2676,9.7772 v -3.0259 m 1.2676,-8.5623 v -83.2926 m -1.2676,46.682 v -47.986 m 3.803,96.2172 v -92.3052 m -1.2677,92.3755 v -93.6795 m -3.7993,20.9234 v -24.8314 m 0,43.0321 v -9.05 m 0,29.0545 v -7.5296 m 0,22.8775 v -15.3479 m 0,17.0197 v -1.6718 M 72.2582,-101.81 v -4.308 M 9.50752,-88.02 c 0.83448,0.1408 4.43688,-5.868 7.60618,-5.868 3.1692,0 4.4369,1.304 5.0707,2.608 m -10.0758,4.2821 c 1.3577,1.1059 2.663,2.2153 4.4043,2.1972 2.3346,-0.0244 4.6684,-0.997 5.7872,-2.3558 m 8.3064,-1.9362 c 1.2677,0 3.8031,-3.912 5.7047,-3.912 1.9015,0 3.803,1.304 4.4369,1.956 m 0,3.912 c -1.9435,1.5811 -4.2982,1.6885 -6.9723,0.652 m -12.912,-4.5414 c 0.0682,0.282 0.105,0.5825 0.105,0.8943 0,1.6204 -0.9933,2.934 -2.2185,2.934 -1.2252,0 -2.2184,-1.3136 -2.2184,-2.934 0,-0.5292 0.1059,-1.0257 0.2913,-1.4544 m 21.8079,0.5785 c 0.1381,0.3825 0.2154,0.8108 0.2154,1.263 0,1.6204 -0.9932,2.934 -2.2184,2.934 -1.2252,0 -2.2185,-1.3136 -2.2185,-2.934 0,-0.4112 0.064,-0.8025 0.1794,-1.1577"
       id="path1594"
       style="display:inline"
       inkscape:label="layer-17" />
    <path
       id="path1626"
       d="m 20.0074,-37.1968 c 0.0805,2.5583 1.871,4.7273 0.9442,7.2732 -0.1743,0.4787 -0.5907,0.8281 -1.0925,0.9166 -0.5018,0.0884 -1.0126,-0.0975 -1.3402,-0.4877 -0.3275,-0.3903 -0.4219,-0.9256 -0.2476,-1.4043 0.0116,-0.0319 0.0053,-0.0676 -0.0165,-0.0936 -0.0218,-0.026 -0.0559,-0.0384 -0.0894,-0.0325 -0.0334,0.0059 -0.0612,0.0292 -0.0728,0.0611 -0.6503,1.7866 -0.2524,2.0831 -0.1755,3.1227 l -2.323,-0.8453 c 0.7273,-0.747 1.2227,-0.7184 1.8731,-2.505 0.0116,-0.0319 0.0053,-0.0676 -0.0165,-0.0936 -0.0218,-0.026 -0.0559,-0.0384 -0.0893,-0.0325 -0.0335,0.0059 -0.0613,0.0291 -0.0729,0.0611 -0.1742,0.4787 -0.5907,0.8281 -1.0925,0.9165 -0.5017,0.0885 -1.0126,-0.0974 -1.3401,-0.4877 -0.3275,-0.3902 -0.4219,-0.9255 -0.2477,-1.4042 0.9268,-2.5459 3.6928,-3.0567 5.3992,-4.9648 z m 5.5779,-14.2136 c 0.0804,2.5583 1.8709,4.7273 0.9441,7.2732 -0.2694,0.7399 -1.0877,1.1214 -1.8278,0.8521 -0.7401,-0.2694 -1.1217,-1.0875 -0.8525,-1.8275 0.0117,-0.0319 0.0054,-0.0676 -0.0165,-0.0936 -0.0218,-0.026 -0.0559,-0.0384 -0.0893,-0.0325 -0.0335,0.0059 -0.0612,0.0292 -0.0728,0.0611 -0.6504,1.7865 -0.2525,2.0831 -0.1756,3.1227 l -2.3229,-0.8453 c 0.7272,-0.747 1.2227,-0.7184 1.8731,-2.505 0.0116,-0.0319 0.0053,-0.0676 -0.0166,-0.0936 -0.0218,-0.0261 -0.0558,-0.0384 -0.0893,-0.0325 -0.0334,0.0058 -0.0612,0.0291 -0.0728,0.0611 -0.1743,0.4787 -0.5908,0.8281 -1.0925,0.9165 -0.5018,0.0885 -1.0127,-0.0974 -1.3402,-0.4877 -0.3275,-0.3902 -0.4219,-0.9255 -0.2476,-1.4042 0.9267,-2.5459 3.6928,-3.0568 5.3992,-4.9648 z m -41.4655,14.2058 c 1.1543,2.2846 3.6938,3.4939 3.93,6.1928 0.0685,0.7845 -0.5119,1.4759 -1.2965,1.5445 -0.7845,0.0687 -1.4762,-0.5115 -1.545,-1.2959 -0.0029,-0.0339 -0.0237,-0.0635 -0.0545,-0.0779 -0.0308,-0.0143 -0.0669,-0.0112 -0.0947,0.0083 -0.0278,0.0195 -0.0431,0.0523 -0.0402,0.0861 0.1657,1.894 0.6518,1.9947 1.1608,2.9044 l -2.4626,0.2154 c 0.3434,-0.9843 0.8045,-1.1678 0.6388,-3.0618 -0.0047,-0.0521 -0.0508,-0.0907 -0.103,-0.0861 -0.0522,0.0046 -0.0908,0.0505 -0.0864,0.1027 0.0444,0.5075 -0.1854,1.0001 -0.6027,1.2923 -0.4174,0.2922 -0.959,0.3396 -1.4208,0.1243 -0.4617,-0.2153 -0.7736,-0.6605 -0.818,-1.168 -0.2361,-2.699 2.0548,-4.3307 2.7948,-6.7811 z m -4.5946,-18.0715 c 1.3491,2.1754 3.9844,3.1587 4.4549,5.8268 0.1366,0.7755 -0.3813,1.5148 -1.1569,1.6516 -0.7755,0.1367 -1.5151,-0.381 -1.6521,-1.1564 -0.0091,-0.0516 -0.0584,-0.0861 -0.1101,-0.077 -0.0517,0.0091 -0.0862,0.0584 -0.0771,0.11 0.3302,1.8724 0.8231,1.9303 1.4095,2.7922 l -2.4344,0.4292 c 0.2562,-1.0105 0.6996,-1.2335 0.3694,-3.1058 -0.0091,-0.0517 -0.0584,-0.0862 -0.1101,-0.077 -0.0517,0.0091 -0.0862,0.0583 -0.0771,0.11 0.1366,0.7755 -0.3813,1.5149 -1.1569,1.6516 -0.7756,0.1367 -1.5152,-0.381 -1.6521,-1.1564 -0.4705,-2.6681 1.6695,-4.4933 2.193,-6.9988 z"
       style="display:inline"
       inkscape:label="layer-13" />
    <path
       d="m -63.928,-127.52 c 4.64,11.6 16.472,18.56 16.472,31.784 0,2.4866 -1.3266,4.7843 -3.48,6.0275 -2.1534,1.2433 -4.8066,1.2433 -6.96,0 -2.1534,-1.2432 -3.48,-3.5409 -3.48,-6.0275 0,-0.1658 -0.0884,-0.319 -0.232,-0.4018 -0.1436,-0.0829 -0.3204,-0.0829 -0.464,0 -0.1436,0.0828 -0.232,0.236 -0.232,0.4018 0,9.28 2.32,9.976 4.408,14.616 H -69.96 c 2.088,-4.64 4.408,-5.336 4.408,-14.616 0,-0.1658 -0.0884,-0.319 -0.232,-0.4018 -0.1436,-0.0829 -0.3204,-0.0829 -0.464,0 -0.1436,0.0828 -0.232,0.236 -0.232,0.4018 0,2.4866 -1.3266,4.7843 -3.48,6.0275 -2.1534,1.2433 -4.8066,1.2433 -6.96,0 -2.1534,-1.2432 -3.48,-3.5409 -3.48,-6.0275 0,-13.224 11.832,-20.184 16.472,-31.784 z"
       fill="#000000"
       id="path1590"
       style="display:none" />
  </g>
</svg>
