<?xml version="1.0" encoding="UTF-8" standalone="no"?>
<svg
   class="card"
   face="QC"
   height="3.5in"
   preserveAspectRatio="none"
   viewBox="-120 -168 240 336"
   width="2.5in"
   version="1.1"
   id="svg77"
   sodipodi:docname="q-club.svg"
   inkscape:version="1.2.2 (732a01da63, 2022-12-09)"
   xmlns:inkscape="http://www.inkscape.org/namespaces/inkscape"
   xmlns:sodipodi="http://sodipodi.sourceforge.net/DTD/sodipodi-0.dtd"
   xmlns="http://www.w3.org/2000/svg"
   xmlns:svg="http://www.w3.org/2000/svg">
  <sodipodi:namedview
     id="namedview79"
     pagecolor="#505050"
     bordercolor="#eeeeee"
     borderopacity="1"
     inkscape:showpageshadow="0"
     inkscape:pageopacity="0"
     inkscape:pagecheckerboard="0"
     inkscape:deskcolor="#505050"
     inkscape:document-units="in"
     showgrid="false"
     inkscape:zoom="4.3226111"
     inkscape:cx="83.630008"
     inkscape:cy="156.73397"
     inkscape:window-width="1278"
     inkscape:window-height="1368"
     inkscape:window-x="0"
     inkscape:window-y="0"
     inkscape:window-maximized="0"
     inkscape:current-layer="layer1" />
  <defs
     id="defs33" />
  <g
     inkscape:groupmode="layer"
     id="layer1"
     inkscape:label="Layer 1">
    <path
       d="M 1,0 0,1 -1,0 0,-1"
       id="path1736"
       fill="#ff0000"
       inkscape:label="layer-0"
       style="display:inline;stroke-width:0.264583" />
    <path
       fill="#ffcc44"
       d="M -66.3962 -130.4 C -68.9483 -115.309 -68.3696 -98.6747 -78.5969 -87.368 C -74.3389 -88.4084 -70.1042 -88.9797 -65.922 -88.6208 L -40.1045 -130.4 Z M 18.4049 -67.808 L -46.3439 -67.7927 C -50.5356 -61.1723 -55.6878 -55.7363 -62.215 -52.1865 L 26.2603 -52.0831 C 23.286 -57.7135 20.685 -62.954 18.4049 -67.808 Z M 59.2644 -60.31 C 57.1173 -60.31 54.9704 -57.5615 55.6963 -52.0653 C 56.6797 -52.964 57.9489 -53.4615 59.2644 -53.464 C 60.5797 -53.4621 61.8489 -52.9653 62.8327 -52.0673 C 63.5578 -57.5622 61.4111 -60.31 59.2644 -60.31 Z M 26.292 -52.0782 C 25.0788 -50.668 23.9834 -49.1107 23.0312 -47.4142 C 18.2938 -38.9737 18.2376 -29.0997 22.0428 -21.0629 C 18.5105 -15.0959 16.4798 -8.11394 16.4798 -0.652 C 16.4798 21.3135 34.0743 39.12 55.7782 39.12 C 65.9745 39.12 75.2637 35.19 82.2479 28.745 L 82.1603 28.6778 L 82.3997 28.3465 L 82.3997 24.8101 L 34.7281 -11.6545 L 44.8729 -26.6085 L 82.3997 2.07723 L 82.3997 -1.98478 L 43.8694 -31.4608 L 30.5247 -11.8017 L 30.468 -11.8639 L 31.8191 -13.868 C 22.3862 -21.0903 19.5812 -34.7478 25.7758 -45.7844 C 26.5412 -47.1481 27.4089 -48.4091 28.3624 -49.5635 Z M 53.3131 -51.74 C 44.5936 -51.8104 45.2349 -42.8541 55.2365 -44.2517 C 54.3628 -45.2633 53.8791 -46.5688 53.8767 -47.922 C 53.8785 -49.275 54.3615 -50.5805 55.2345 -51.5926 C 54.5503 -51.6881 53.9097 -51.7352 53.3131 -51.74 Z M 65.2156 -51.74 C 64.6184 -51.7352 63.9772 -51.688 63.2922 -51.5923 C 64.1659 -50.5807 64.6496 -49.2752 64.652 -47.922 C 64.6502 -46.569 64.1672 -45.2635 63.2942 -44.2514 C 73.2938 -42.8553 73.9345 -51.8104 65.2156 -51.74 Z M -30.4034 -48.2847 C -29.6893 -27.184 -11.2017 -22.7533 -9.60265 -7.82706 L -7.01256 -7.82858 C -7.97195 -23.3389 -25.8802 -27.1791 -26.5994 -48.235 Z M -13.9289 -48.234 C -13.4166 -27.1876 -0.66093 -24.5416 -0.0246621 -7.83113 L 3.14778 -7.83139 C 2.59745 -24.5205 -8.43016 -26.5785 -8.86111 -48.233 Z M 1.28165 -48.2103 C 1.63481 -31.4742 8.55279 -27.059 8.86303 -7.86526 L 11.4001 -7.86526 C 11.1416 -27.059 5.37655 -31.4742 5.08225 -48.2103 Z M 74.1597 -46.944 C 72.5029 -41.8311 67.1698 -37.1444 67.3513 -32.6323 C 66.7972 -35.1035 66.3269 -37.5855 65.6367 -39.9202 L 62.8887 -40.1889 C 63.8204 -37.581 64.3637 -34.7282 64.9908 -31.8747 L 67.8213 -30.644 C 75.8812 -33.1152 75.2299 -39.9252 74.1597 -46.944 Z M 62.8325 -43.7787 C 61.849 -42.88 60.5798 -42.3825 59.2644 -42.38 C 57.949 -42.3819 56.6798 -42.8787 55.696 -43.7767 C 55.1177 -39.3938 56.3668 -36.7607 57.9853 -35.8738 L 57.7721 -35.8875 C 55.0045 -35.6167 52.0737 -34.2199 48.8059 -34.556 C 51.0138 -30.8694 57.3588 -30.4566 65.2859 -31.296 C 63.6462 -34.0367 62.0066 -35.2777 60.3241 -35.7243 L 60.2431 -35.7293 C 62.003 -36.4438 63.4468 -39.1266 62.8325 -43.7787 Z M 33.5664 -8.46785 L 69.08 18.6877 C 65.327 21.2941 60.8066 22.82 55.7782 22.82 C 42.4645 22.82 32.3259 12.3819 32.3259 -0.652 C 32.3259 -3.41092 32.7801 -5.99386 33.6256 -8.40316 Z M 0.681481 -4.56018 L -16.7953 -4.55611 C -16.5933 -2.84626 -16.4801 -1.11052 -16.4801 0.652 C -16.4801 1.93721 -16.5403 3.20817 -16.6589 4.51307 L 0.629486 4.564 L 0.631464 4.21202 C -0.165785 4.49319 -1.34547 4.20237 -1.34385 3.33691 C -2.24015 4.26241 -4.14387 2.30415 -3.24415 1.38219 C -4.51414 1.38467 -4.51414 -1.3847 -3.24415 -1.38219 C -4.14387 -2.30415 -2.24015 -4.26241 -1.34385 -3.33692 C -1.3455 -4.21949 -0.117382 -4.50618 0.679498 -4.19623 Z M 41.9027 -2.08436 C 41.8568 -1.6211 41.8336 -1.14442 41.8336 -0.652 C 41.8336 7.0263 47.4932 13.04 55.7782 13.04 C 57.5367 13.04 59.1483 12.7505 60.618 12.2191 Z"
       id="path1641"
       style="display:inline"
       inkscape:label="layer-1" />
    <path
       fill="#ff0000"
       d="M -40.1035 -130.4 L -65.584 -89.1253 L -63.5993 -92.3864 C -66.2425 -92.0351 -68.8687 -91.4639 -71.6246 -92.584 C -73.0947 -90.62 -75.087 -89.1979 -77.0056 -87.7699 C -73.2272 -88.5418 -69.5534 -88.9275 -65.9158 -88.5801 L -65.8928 -88.6178 C -63.6583 -88.3598 -61.4665 -87.8751 -59.3105 -87.0389 L -32.4988 -130.4 Z M -0.95785 -130.4 C 3.39702 -111.951 4.91957 -96.7527 18.421 -67.808 C 20.6851 -62.954 23.2861 -57.7136 26.294 -52.0062 L 28.3624 -49.5635 C 42.96 -70.216 12.0132 -85.7642 -0.897436 -130.4 Z M -49.4401 -123.228 C -51.1169 -121.846 -52.8 -121.767 -53.877 -121.924 C -53.2067 -120.802 -53.0525 -119.231 -53.2431 -117.36 C -52.003 -116.298 -51.2506 -114.901 -50.6092 -113.428 L -45.2983 -122.004 C -46.829 -122.103 -48.3003 -122.325 -49.4401 -123.228 Z M 59.2644 -49.552 C 58.8441 -49.552 58.441 -49.3803 58.1439 -49.0746 C 57.8467 -48.7689 57.6797 -48.3543 57.6797 -47.922 C 57.6797 -47.4897 57.8467 -47.0751 58.1439 -46.7694 C 58.441 -46.4637 58.8441 -46.292 59.2644 -46.292 C 59.6846 -46.292 60.0877 -46.4637 60.3848 -46.7694 C 60.682 -47.0751 60.849 -47.4897 60.849 -47.922 C 60.849 -48.3543 60.682 -48.7689 60.3848 -49.0746 C 60.0877 -49.3803 59.6846 -49.552 59.2644 -49.552 Z M -30.3839 -48.2663 L -59.7071 -48.2416 L -54.6831 -39.0899 C -36.3662 -38.605 -21.1653 -25.3976 -17.3843 -7.8701 L -9.60265 -7.82706 C -11.2017 -22.7533 -29.6893 -27.184 -30.3839 -48.2663 Z M 23.5568 -48.2635 L 5.06269 -48.2292 C 5.37659 -31.4741 11.1417 -27.059 11.4039 -7.84463 L 17.0748 -7.83749 C 17.9822 -12.6122 19.6798 -17.0772 22.0495 -21.0703 C 18.2361 -29.0945 18.2927 -38.9717 23.0312 -47.4141 C 23.1953 -47.7066 23.3637 -47.995 23.5568 -48.2635 Z M 28.3493 -43.684 L 26.8702 -40.424 L 36.2823 -40.424 L 33.4139 -43.684 Z M 25.9291 -36.512 L 25.6602 -33.252 L 42.3778 -33.252 L 39.5991 -36.512 Z M 26.0187 -29.34 L 26.915 -26.08 L 40.092 -26.08 L 42.3778 -29.34 Z M 28.663 -22.168 L 31.0833 -18.908 L 35.386 -18.908 L 37.627 -22.168 Z M 24.675 -6.1698 C 23.8434 -6.17617 23.1485 -5.5202 23.0834 -4.6674 C 23.015 -3.77001 23.6667 -2.98542 24.5391 -2.9149 C 24.958 -2.88108 25.3729 -3.01987 25.6924 -3.30072 C 26.0119 -3.58157 26.2099 -3.98147 26.2428 -4.41246 C 26.3112 -5.30985 25.6595 -6.09445 24.7872 -6.16497 C 24.7498 -6.16794 24.7124 -6.16955 24.675 -6.1698 Z M -0.00015 -1.63 C -0.875307 -1.63 -1.58476 -0.900224 -1.58476 -1.40091e-10 C -1.58476 0.900224 -0.875307 1.63 -0.00015 1.63 C 0.875007 1.63 1.58446 0.900224 1.58446 1.40091e-10 C 1.58446 -0.900224 0.875007 -1.63 -0.00015 -1.63 Z M 45.0412 0.319376 C 45.4744 5.73255 49.5375 9.78 55.7782 9.78 C 56.3077 9.78 56.8168 9.748 57.3069 9.68576 Z M 25.2482 5.06294 C 25.1425 5.06049 25.0368 5.06894 24.9327 5.08814 C 24.0714 5.24726 23.4985 6.09446 23.6532 6.98047 C 23.8079 7.86647 24.6315 8.45575 25.4928 8.2967 C 26.3541 8.13758 26.927 7.29038 26.7724 6.40437 C 26.6391 5.64125 26.0017 5.08028 25.2482 5.06294 Z M 29.6046 15.2578 C 29.3926 15.2588 29.183 15.3035 28.9881 15.3892 C 28.1836 15.7435 27.8106 16.7015 28.1549 17.5291 C 28.3203 17.9266 28.6324 18.2402 29.0225 18.401 C 29.4126 18.5617 29.8489 18.5565 30.2352 18.3864 C 31.0398 18.0321 31.4128 17.0741 31.0684 16.2465 C 30.8179 15.6444 30.2413 15.2549 29.6046 15.2578 Z M 36.9788 23.0861 C 36.5506 23.0952 36.1442 23.2822 35.8522 23.6044 C 35.2556 24.2629 35.2908 25.2943 35.9309 25.9081 C 36.5711 26.5218 37.5737 26.4856 38.1704 25.8271 C 38.7671 25.1686 38.7318 24.1372 38.0917 23.5234 C 37.7901 23.2343 37.3909 23.0774 36.9788 23.0861 Z M 68.9471 26.4661 C 68.7351 26.4656 68.5252 26.5088 68.3298 26.5932 C 67.9423 26.7607 67.6354 27.0796 67.4766 27.4799 C 67.3177 27.8801 67.32 28.3289 67.4828 28.7275 C 67.6456 29.1261 67.9557 29.4418 68.3448 29.6052 C 68.7339 29.7686 69.1702 29.7663 69.5577 29.5988 C 69.9451 29.4313 70.252 29.1123 70.4108 28.712 C 70.5696 28.3118 70.5673 27.863 70.4044 27.4645 C 70.1577 26.8608 69.5837 26.4675 68.9471 26.4661 Z M 46.4817 27.9288 C 45.7699 27.9152 45.1366 28.3916 44.9335 29.0935 C 44.8136 29.5078 44.8586 29.9542 45.0587 30.3344 C 45.2587 30.7145 45.5974 30.9974 46.0002 31.1208 C 46.403 31.2441 46.8369 31.1978 47.2065 30.992 C 47.5761 30.7863 47.8511 30.4379 47.971 30.0236 C 48.0909 29.6092 48.0459 29.1629 47.8459 28.7827 C 47.6459 28.4025 47.3072 28.1196 46.9044 27.9963 C 46.7671 27.9542 46.6249 27.9315 46.4817 27.9288 Z M 58.0071 29.3031 C 57.587 29.3174 57.1897 29.5028 56.9026 29.8185 C 56.6155 30.1342 56.462 30.5542 56.4759 30.9863 C 56.4899 31.4184 56.6701 31.827 56.977 32.1224 C 57.2839 32.4178 57.6923 32.5756 58.1123 32.5613 C 58.5323 32.5469 58.9296 32.3615 59.2168 32.0459 C 59.5039 31.7302 59.6574 31.3101 59.6434 30.8781 C 59.6295 30.446 59.4492 30.0373 59.1424 29.742 C 58.8355 29.4466 58.4271 29.2887 58.0071 29.3031 Z"
       id="path1645"
       style="display:inline"
       inkscape:label="layer-4" />
    <path
       fill="#4444ff"
       d="M -1.70287 -105.776 C -2.15451 -105.776 -2.58766 -105.485 -2.90703 -104.967 C -3.22641 -104.45 -3.40583 -103.748 -3.40583 -103.016 C -3.40583 -102.284 -3.22641 -101.582 -2.90703 -101.065 C -2.58766 -100.547 -2.15451 -100.256 -1.70287 -100.256 C -0.762465 -100.257 -0.000147688 -101.492 -0.00015 -103.016 C -0.000147688 -104.54 -0.762465 -105.775 -1.70287 -105.776 Z M -19.4505 -105.618 C -19.9022 -105.618 -20.3353 -105.327 -20.6547 -104.81 C -20.9741 -104.292 -21.1535 -103.59 -21.1535 -102.858 C -21.1535 -102.126 -20.9741 -101.424 -20.6547 -100.907 C -20.3353 -100.389 -19.9022 -100.099 -19.4505 -100.099 C -18.5101 -100.099 -17.7478 -101.334 -17.7478 -102.858 C -17.7478 -104.382 -18.5101 -105.618 -19.4505 -105.618 Z M -49.0288 -63.9171 C -49.4506 -63.352 -49.883 -62.798 -50.3257 -62.2545 L -49.8342 -62.8036 C -49.576 -62.8126 -49.3175 -62.8158 -49.0588 -62.8146 C -48.8138 -62.8134 -48.5685 -62.8077 -48.3232 -62.7998 C -48.2302 -62.7968 -48.1371 -62.7924 -48.0441 -62.7886 C -47.9002 -62.7828 -47.7563 -62.7773 -47.6123 -62.77 C -47.1256 -62.7456 -46.6385 -62.7151 -46.1515 -62.6855 C -46.0632 -62.6801 -45.9749 -62.6749 -45.8866 -62.6697 C -45.7197 -62.6599 -45.553 -62.6511 -45.3862 -62.6424 C -45.289 -62.6374 -45.1919 -62.6322 -45.0948 -62.6277 C -44.9357 -62.6203 -44.7766 -62.6149 -44.6176 -62.6096 C -44.5194 -62.6063 -44.4212 -62.602 -44.323 -62.5996 C -44.2974 -62.599 -44.2718 -62.5986 -44.2462 -62.5981 C -44.035 -62.5937 -43.824 -62.5911 -43.6131 -62.5923 C -43.6304 -62.5543 -43.6484 -62.517 -43.6676 -62.4799 C -43.6867 -62.443 -43.7069 -62.4064 -43.728 -62.3702 C -43.734 -62.3599 -43.7409 -62.3499 -43.7471 -62.3396 C -43.7844 -62.2778 -43.8243 -62.2169 -43.8684 -62.157 L -43.8689 -62.1562 C -43.8945 -62.1215 -43.9213 -62.0872 -43.9494 -62.0531 L -43.9502 -62.052 C -43.9782 -62.018 -44.0074 -61.984 -44.038 -61.9504 L -44.0391 -61.9494 C -44.0697 -61.9158 -44.1017 -61.8825 -44.1351 -61.8493 L -44.1364 -61.848 C -44.1698 -61.8148 -44.2046 -61.782 -44.2409 -61.7492 C -44.3144 -61.6827 -44.3941 -61.6168 -44.4806 -61.551 C -44.567 -61.4853 -44.6606 -61.4197 -44.7613 -61.3541 C -44.8616 -61.2888 -44.9693 -61.2235 -45.0849 -61.1578 L -45.0864 -61.1567 C -45.2027 -61.0906 -45.3272 -61.0243 -45.4603 -60.957 C -45.5926 -60.8902 -45.7337 -60.8226 -45.8839 -60.7541 C -45.8849 -60.7537 -45.8857 -60.753 -45.8867 -60.7525 C -46.6427 -60.4079 -47.6338 -60.0378 -48.9393 -59.6034 C -49.4613 -59.4297 -50.0341 -59.2455 -50.662 -59.0487 C -49.8314 -58.5808 -49.4052 -58.1338 -49.1611 -57.5985 C -49.6208 -57.6011 -50.0812 -57.5887 -50.5422 -57.5684 C -51.925 -57.5077 -53.3119 -57.377 -54.6914 -57.3759 L -53.1972 -59.0454 C -54.209 -58.0175 -55.2695 -57.04 -56.384 -56.1182 L 24.1889 -56.0757 C 23.9811 -56.4773 23.7804 -56.8712 23.5773 -57.2679 C 23.5584 -57.2679 23.5395 -57.2688 23.5206 -57.2689 C 23.4036 -57.2695 23.2864 -57.2703 23.1695 -57.2728 L 23.1663 -57.2728 C 23.1557 -57.273 23.1452 -57.2738 23.1346 -57.2741 C 23.0092 -57.2771 22.8838 -57.2811 22.7585 -57.2868 L 22.7558 -57.2868 C 22.7329 -57.2879 22.7101 -57.2898 22.6872 -57.2909 C 22.5796 -57.2963 22.4721 -57.3021 22.3646 -57.3097 C 20.5835 -57.4353 18.8206 -57.8804 17.1007 -59.0798 L 17.1911 -59.0546 C 17.1514 -59.0821 17.1117 -59.1073 17.072 -59.1356 C 16.7907 -59.1083 16.5259 -59.0264 16.2515 -58.9405 C 17.0823 -58.4726 17.5073 -58.0257 17.7514 -57.4903 C 13.7116 -57.5134 9.60552 -56.369 5.71774 -59.0622 C 5.44381 -58.9742 5.15729 -58.8838 4.85883 -58.7902 C 5.68987 -58.3223 6.11511 -57.8752 6.35926 -57.3398 C 2.31958 -57.3629 -1.78666 -56.2184 -5.67439 -58.9115 C -5.90826 -58.8366 -6.14628 -58.7607 -6.39761 -58.682 C -5.56658 -58.214 -5.14158 -57.7672 -4.89743 -57.2318 C -8.5421 -57.2526 -12.2408 -56.324 -15.7845 -58.1196 C -15.6019 -57.918 -15.4675 -57.7087 -15.365 -57.4839 C -19.4047 -57.507 -23.511 -56.3626 -27.3987 -59.0556 C -27.6326 -58.9808 -27.8705 -58.9052 -28.1219 -58.8264 C -27.2909 -58.3584 -26.8659 -57.9114 -26.6217 -57.3759 C -30.6706 -57.3991 -34.7861 -56.2486 -38.6816 -58.9652 L -36.1195 -59.9745 C -37.0228 -59.6362 -38.1366 -59.2634 -39.5311 -58.8264 C -38.7001 -58.3584 -38.2751 -57.9114 -38.0309 -57.3759 C -42.0798 -57.3991 -46.1953 -56.2486 -50.0908 -58.9652 L -45.1077 -60.9283 C -44.766 -60.8213 -44.4435 -60.7188 -44.1337 -60.6189 L -44.543 -60.7801 C -40.6474 -63.4967 -36.5316 -62.3462 -32.4828 -62.3693 C -32.8248 -61.6193 -33.5219 -61.043 -35.1947 -60.339 L -33.6985 -60.9283 C -33.3567 -60.8213 -33.0343 -60.7188 -32.7245 -60.6189 L -33.1337 -60.7801 C -29.2382 -63.4967 -25.1224 -62.3462 -21.0736 -62.3693 C -21.2996 -61.8737 -21.6853 -61.4539 -22.3997 -61.0231 C -22.074 -60.921 -21.7643 -60.8225 -21.4678 -60.7269 L -21.8771 -60.8881 C -19.8075 -62.3313 -17.676 -62.6832 -15.5252 -62.6994 C -13.6275 -62.7137 -11.715 -62.4667 -9.81716 -62.4776 C -10.1092 -61.8371 -10.6646 -61.3227 -11.8603 -60.748 C -11.5598 -60.6536 -11.271 -60.5617 -10.9957 -60.4729 L -11.4094 -60.636 C -7.51382 -63.3526 -3.3983 -62.2021 0.650531 -62.2253 C 0.424515 -61.7296 0.0388556 -61.3098 -0.67559 -60.879 C -0.349187 -60.7767 -0.0392303 -60.678 0.257845 -60.5823 L -0.152668 -60.744 C 3.74287 -63.4606 7.85839 -62.3101 11.9072 -62.3332 C 11.6907 -61.8584 11.3285 -61.4532 10.6707 -61.0412 L 10.6747 -61.0427 C 11.0178 -60.9353 11.3413 -60.8323 11.6522 -60.732 L 11.2395 -60.8948 C 11.3588 -60.978 11.4787 -61.0562 11.5985 -61.1324 C 11.6362 -61.1563 11.6739 -61.1797 11.7116 -61.2029 C 11.8016 -61.2584 11.8918 -61.3119 11.982 -61.3636 C 12.0164 -61.3834 12.0508 -61.4038 12.0852 -61.423 C 12.2035 -61.4888 12.3219 -61.5519 12.4405 -61.6115 C 12.4685 -61.6255 12.4965 -61.6382 12.5245 -61.6519 C 12.6203 -61.6989 12.7162 -61.7441 12.8122 -61.7872 C 12.8509 -61.8046 12.8897 -61.8216 12.9285 -61.8384 C 13.0232 -61.8793 13.118 -61.9186 13.2128 -61.956 C 13.2417 -61.9674 13.2705 -61.9796 13.2994 -61.9907 C 13.4195 -62.0367 13.5396 -62.0796 13.6599 -62.1203 C 13.6943 -62.1319 13.7286 -62.1428 13.7629 -62.1539 C 13.8556 -62.1841 13.9484 -62.2128 14.0412 -62.24 C 14.0772 -62.2506 14.1132 -62.2612 14.1492 -62.2713 C 14.2689 -62.305 14.3887 -62.3371 14.5087 -62.3661 C 14.5152 -62.3677 14.5218 -62.3691 14.5283 -62.3707 C 14.6486 -62.3996 14.7691 -62.4256 14.8898 -62.4501 C 14.9263 -62.4576 14.9629 -62.4645 14.9994 -62.4715 C 15.0964 -62.4902 15.1933 -62.5077 15.2904 -62.5237 C 15.3197 -62.5286 15.3491 -62.5339 15.3785 -62.5385 C 15.5024 -62.5581 15.6265 -62.5758 15.7506 -62.5915 C 15.775 -62.5946 15.7995 -62.597 15.8239 -62.5999 C 15.9257 -62.6122 16.0276 -62.6234 16.1295 -62.6333 C 16.1677 -62.637 16.2059 -62.6406 16.2441 -62.644 C 16.3433 -62.6528 16.4426 -62.6604 16.542 -62.6671 C 16.5692 -62.669 16.5964 -62.6713 16.6237 -62.673 C 16.6462 -62.6744 16.6687 -62.675 16.6913 -62.6763 C 16.8501 -62.6855 17.0091 -62.6922 17.1681 -62.6969 C 17.2237 -62.6986 17.2794 -62.7001 17.335 -62.7013 C 17.5108 -62.7049 17.6866 -62.707 17.8626 -62.7061 C 18.0997 -62.7049 18.337 -62.6994 18.5745 -62.6918 C 18.6473 -62.6895 18.7202 -62.6865 18.7931 -62.6837 C 18.9585 -62.6774 19.124 -62.6703 19.2895 -62.662 C 19.3645 -62.6583 19.4396 -62.6544 19.5146 -62.6503 C 19.9854 -62.6249 20.4564 -62.5949 20.9274 -62.5668 C 20.71 -63.0121 20.4919 -63.4582 20.2802 -63.8973 Z M -15.848 -59.2581 C -16.171 -59.1537 -16.507 -59.0467 -16.8651 -58.9344 C -16.8379 -58.9191 -16.813 -58.9036 -16.7866 -58.8883 Z M 51.3413 -56.072 C 51.3413 -54.6132 51.6939 -52.7921 52.1361 -51.6898 C 53.0206 -51.7738 54.025 -51.7536 55.1481 -51.603 L 52.3401 -54.4914 C 52.0952 -54.7362 52.2635 -55.1632 52.605 -55.1633 C 52.7078 -55.1633 52.8063 -55.1205 52.8779 -55.0446 L 55.6859 -52.1562 C 55.5395 -53.3114 55.5198 -54.3446 55.6014 -55.2545 C 54.5299 -55.7093 52.7594 -56.072 51.3413 -56.072 Z M 67.1874 -56.072 C 65.7693 -56.072 63.9988 -55.7093 62.9273 -55.2545 C 63.0089 -54.3442 62.9894 -53.3105 62.8429 -52.1547 L 65.6523 -55.0446 C 65.7239 -55.1205 65.8224 -55.1633 65.9252 -55.1633 C 66.2666 -55.1632 66.435 -54.7362 66.1901 -54.4914 L 63.3824 -51.6033 C 64.5047 -51.7536 65.5085 -51.7737 66.3926 -51.6898 C 66.8348 -52.7921 67.1874 -54.6132 67.1874 -56.072 Z M -67.0154 -49.6944 C -71.8489 -45.4199 -76.9871 -43.1338 -82.4 -43.808 L -82.4 -29.6258 L -82.2482 -28.7451 C -76.4614 -34.085 -69.0922 -37.6986 -60.9082 -38.7341 Z M 55.1496 -44.241 C 54.0259 -44.0902 53.021 -44.0702 52.1361 -44.1542 C 51.6939 -43.0519 51.3413 -41.2308 51.3413 -39.772 C 52.7594 -39.772 54.5299 -40.1347 55.6014 -40.5895 C 55.5199 -41.499 55.5394 -42.5315 55.6856 -43.686 L 52.8794 -40.7994 C 52.5209 -40.4154 51.9683 -40.9839 52.3416 -41.3526 Z M 63.3806 -44.241 L 66.1886 -41.3526 C 66.5619 -40.9839 66.0093 -40.4154 65.6508 -40.7994 L 62.8429 -43.6878 C 62.9892 -42.5326 63.0089 -41.4994 62.9273 -40.5895 C 63.9988 -40.1347 65.7693 -39.772 67.1874 -39.772 C 67.1874 -41.2308 66.8348 -43.0519 66.3926 -44.1542 C 65.5081 -44.0702 64.5037 -44.0904 63.3806 -44.241 Z M 44.8729 -26.6085 L 34.7281 -11.6545 L 82.3997 24.8101 L 82.3997 2.07723 Z"
       id="path1649"
       style="display:inline"
       inkscape:label="layer-7" />
    <path
       fill="#000000"
       d="M -32.4991 -130.4 L -82.4 -49.7382 L -82.4 -43.8068 C -57.396 -40.6947 -38.3544 -100.867 -30.7607 -130.4 Z M -0.479742 -89.1304 C -1.27591 -85.1191 -2.23863 -81.5567 -3.16938 -80.848 C -5.43867 -79.1202 -10.8677 -69.7948 -12.0432 -69.112 C -12.732 -68.712 -13.5163 -68.5653 -14.333 -68.5894 L -14.1757 -67.808 L 7.84418 -67.821 C 4.33888 -75.8049 1.64731 -82.8225 -0.479742 -89.1304 Z M -62.2442 -52.1707 C -63.5818 -51.4486 -64.9936 -50.7992 -66.4667 -50.2399 L -66.975 -49.658 L -60.9404 -38.7298 C -59.2918 -39.0015 -57.5488 -39.12 -55.7785 -39.12 C -55.4046 -39.12 -55.0321 -39.1146 -54.6638 -39.0894 L -59.7071 -48.2416 L 23.5648 -48.2765 C 24.3764 -49.6593 25.2943 -50.9183 26.2594 -52.119 Z M 28.3624 -49.5635 C 27.4089 -48.4091 26.5412 -47.1481 25.7758 -45.7844 C 19.5812 -34.7478 22.3862 -21.0903 31.8191 -13.868 L 33.7392 -16.4411 C 25.6 -22.6729 23.1267 -34.4533 28.5481 -44.1124 C 29.1456 -45.1768 29.8123 -46.1666 30.5386 -47.0813 Z M -17.3717 -7.84285 C -16.7916 -5.1188 -16.4801 -2.27019 -16.4801 0.652 C -16.4801 1.9476 -16.5413 3.22878 -16.6604 4.52835 L -8.24162 4.564 L -8.26762 -4.564 L 16.6645 -4.57394 C 16.7749 -5.67033 16.9233 -6.744 17.0703 -7.81356 Z"
       id="path1653"
       style="display:inline"
       inkscape:label="layer-10" />
    <path
       stroke="#4444ff"
       stroke-linecap="round"
       stroke-linejoin="round"
       stroke-width="0.7714300963794452"
       fill="none"
       d="M 82.3997 -1.98483 L 43.897 -31.4261 M -17.3606 -7.824 L 17.0274 -7.824 M 82.3997 24.8106 L 34.7263 -11.6432 M 43.8416 -31.4956 L 30.0743 -11.1383 M 44.8441 -26.6211 L 34.7302 -11.6658 M 26.2662 -52.048 L 43.8387 -31.4914 M 30.0124 -11.1883 C 19.2419 -19.3738 16.0388 -34.9562 23.0311 -47.4142 C 23.9834 -49.1108 25.0789 -50.6679 26.2921 -52.0782 M 31.8191 -13.8679 C 22.3862 -21.0902 19.5812 -34.7476 25.7758 -45.7843 C 26.5412 -47.1479 27.4089 -48.4092 28.3624 -49.5635 M 44.9014 -26.596 L 82.3997 2.07726 M 33.7392 -16.441 C 25.6 -22.6729 23.1267 -34.4532 28.5481 -44.1123 C 29.1456 -45.1767 29.8123 -46.1666 30.5385 -47.0812 M 43.7425 -31.296 L 25.7485 -31.296 M 37.8917 -38.468 L 26.3004 -38.468 M 38.922 -24.124 L 27.6252 -24.124 M 26.2268 -52.16 L -62.2606 -52.16 M 24.203 -56.072 L -56.4321 -56.072 M 20.2829 -63.896 L -49.0602 -63.896 M 18.3889 -67.808 L -46.3364 -67.808 M -0.951563 -130.379 C 3.39989 -111.939 4.92407 -96.7428 18.4209 -67.808 C 20.685 -62.954 23.2861 -57.7135 26.294 -52.006 M 23.5774 -48.248 L -59.6586 -48.248 M 5.08228 -48.2102 C 5.37658 -31.4741 11.1416 -27.059 11.4001 -7.86521 M 1.28154 -48.2102 C 1.6347 -31.4741 8.55268 -27.059 8.86292 -7.86521 M -8.86101 -48.2331 C -8.43006 -26.5785 2.59743 -24.5204 3.14776 -7.83128 M -13.9289 -48.2341 C -13.4166 -27.1877 -0.661046 -24.5416 -0.0247787 -7.83113 M -26.5994 -48.235 C -25.8802 -27.1791 -7.97183 -23.3388 -7.01243 -7.82855 M -30.4035 -48.2847 C -29.6894 -27.184 -11.2019 -22.7534 -9.60278 -7.82716 M -16.7778 -4.564 L 16.6594 -4.564 M -17.8555 -9.78 L -9.93047 -9.78 M -18.4346 -11.736 L -10.4588 -11.736 M -19.1254 -13.692 L -11.2459 -13.692 M -19.036 -15.648 L -12.2767 -15.648 M -18.9132 -17.604 L -13.5209 -17.604 M -18.7907 -19.56 L -14.9809 -19.56 M -18.6679 -21.516 L -16.6089 -21.516 M 11.3385 -9.78 L 17.5413 -9.78 M 11.2583 -11.736 L 18.036 -11.736 M 11.1186 -13.692 L 18.6497 -13.692 M 10.9292 -15.648 L 18.3539 -15.648 M 10.697 -17.604 L 17.5271 -17.604 M 10.3989 -19.56 L 16.7002 -19.56 M 10.0396 -21.516 L 15.8735 -21.516 M 9.62959 -23.472 L 15.0467 -23.472 M -18.5453 -23.472 L -18.3311 -23.472 M 79.672 26.7354 C 73.3062 32.4129 64.9601 35.86 55.7782 35.86 C 35.7595 35.86 19.649 19.5228 19.649 -0.652 C 19.649 -6.85018 21.1692 -12.6657 23.8578 -17.7718 M 71.7428 20.7442 C 67.3122 24.0947 61.8452 26.08 55.7782 26.08 C 40.7882 26.08 29.1567 14.1671 29.1567 -0.652 C 29.1567 -4.13735 29.7999 -7.40379 30.9823 -10.4168 M 57.3069 9.68564 C 56.8169 9.74788 56.3077 9.78 55.7782 9.78 C 49.5375 9.78 45.4745 5.73251 45.0413 0.319337 M 60.618 12.2191 C 59.1483 12.7504 57.5367 13.04 55.7782 13.04 C 47.4932 13.04 41.8336 7.0263 41.8336 -0.652 C 41.8336 -1.14442 41.8569 -1.6211 41.9028 -2.08436 M 69.1001 18.6739 C 65.3431 21.2887 60.8155 22.82 55.7782 22.82 C 42.4645 22.82 32.3259 12.3819 32.3259 -0.652 C 32.3259 -3.41092 32.78 -5.99398 33.6255 -8.40327 M 0.950617 -2.3611 C 1.39881 -5.58834 5.43258 -1.43903 2.2952 -0.978 C 4.83058 -2.934 4.83058 2.934 2.2952 0.978 C 5.43258 1.43903 1.39881 5.58834 0.950617 2.3611 C 2.85215 4.9691 -2.85245 4.9691 -0.950918 2.3611 C -1.39911 5.58834 -5.43288 1.43903 -2.2955 0.978 C -4.83088 2.934 -4.83088 -2.934 -2.2955 -0.978 C -5.43288 -1.43903 -1.39911 -5.58834 -0.950918 -2.3611 C -2.85245 -4.9691 2.85215 -4.9691 0.950617 -2.3611 Z M 1.58446 -2.84217e-14 C 1.58446 0.900229 0.875007 1.63 -0.00015 1.63 C -0.875307 1.63 -1.58476 0.900229 -1.58476 -2.84217e-14 C -1.58476 -0.900224 -0.875307 -1.63 -0.00015 -1.63 C 0.875007 -1.63 1.58446 -0.900224 1.58446 -2.84217e-14 Z M -8.24014 -4.564 L -8.24014 4.564 M -54.6668 -39.0748 L -59.7555 -48.2351 M -60.8807 -38.6876 L -66.975 -49.6581 M -32.4991 -130.4 L -82.4 -49.7382 M -59.2919 -87.0471 C -65.6132 -89.4541 -72.0779 -88.9609 -78.5969 -87.368 C -68.3692 -98.675 -68.9502 -115.311 -66.3978 -130.402 M -40.1052 -130.4 L -65.9265 -88.6615 M -30.7411 -130.465 C -38.3278 -100.947 -57.3844 -40.6924 -82.3997 -43.8057 M -26.8853 -130.449 C -32.9934 -101.228 -39.3948 -60.5175 -66.4668 -50.2399 M -64.6053 -90.797 L -58.4077 -88.5202 M -63.502 -92.5805 L -57.3045 -90.3037 M -62.2813 -94.5538 L -56.0837 -92.277 M -61.0605 -96.527 L -54.8629 -94.2502 M -58.1237 -97.8698 L -53.6423 -96.2235 M -54.8278 -99.0807 L -52.4216 -98.1968 M -77.0903 -87.7873 C -75.0869 -89.1979 -73.0947 -90.62 -71.6246 -92.584 C -68.8687 -91.4639 -66.2424 -92.035 -63.5993 -92.3863 M -73.1475 -95.6581 C -69.6319 -94.9325 -65.7958 -95.0333 -61.951 -95.1567 M -69.0447 -110.349 C -65.7631 -107.426 -69.4327 -100.911 -64.6523 -98.452 C -60.0816 -96.1012 -57.1624 -103.402 -60.2154 -104.972 C -62.7508 -106.276 -65.92 -101.712 -62.7508 -100.408 C -60.9594 -99.6709 -60.1988 -104.143 -61.4831 -103.016 M -69.0697 -110.404 C -64.8333 -108.905 -61.4439 -115.804 -56.797 -112.947 C -52.4105 -110.25 -56.8202 -103.79 -59.7501 -105.591 C -62.1833 -107.087 -60.1502 -112.291 -57.3758 -110.246 C -55.8076 -109.09 -59.0618 -106.023 -58.8301 -107.743 M -52.8688 -109.742 C -53.348 -112.45 -53.992 -115.017 -56.4124 -116.056 C -55.8819 -119.693 -56.232 -122.881 -58.3139 -125.184 C -56.1137 -125.395 -53.9446 -125.441 -51.3416 -127.792 C -47.7958 -126.497 -44.6823 -127.375 -41.5267 -128.041 M -50.6091 -113.428 C -51.2506 -114.901 -52.003 -116.298 -53.2431 -117.36 C -53.0525 -119.231 -53.2067 -120.802 -53.877 -121.924 C -52.8 -121.767 -51.1169 -121.846 -49.4401 -123.228 C -48.3003 -122.325 -46.8291 -122.103 -45.2984 -122.004 M -32.3902 -124.286 C -30.6239 -124.881 -29.0676 -125.993 -27.5472 -127.194 M -33.2694 -121.11 C -31.4028 -121.681 -29.7745 -122.839 -28.1855 -124.094 M -34.1147 -118.154 C -32.1322 -118.866 -30.4111 -120.221 -28.6992 -121.599 M -35.1251 -114.758 C -33.0156 -115.247 -31.2191 -116.506 -29.4711 -117.885 M -36.0133 -111.758 C -33.7712 -112.385 -31.8768 -113.868 -29.9951 -115.382 M -37.0766 -108.435 C -34.6953 -108.782 -32.7214 -110.132 -30.8097 -111.636 M -38.115 -105.205 C -35.6598 -105.903 -33.3075 -107.843 -31.2625 -109.51 M -39.1958 -101.995 C -36.6209 -102.561 -34.1445 -104.58 -31.9992 -106.329 M -40.2499 -98.9488 C -37.4922 -99.6411 -34.8555 -101.952 -32.6272 -103.752 M -41.2742 -96.0369 C -38.4902 -97.1661 -35.2796 -99.4049 -33.2861 -100.965 M -42.4972 -92.7157 C -39.6857 -93.7116 -36.291 -96.0345 -34.1385 -97.6983 M -43.7663 -89.4139 C -40.9659 -90.2205 -37.3941 -92.6049 -35.0622 -94.379 M -45.0012 -86.3265 C -42.0374 -87.1912 -38.2221 -89.8062 -35.9241 -91.5942 M -46.3678 -83.0491 C -43.4974 -83.6124 -39.5235 -86.2404 -36.9909 -88.1644 M -47.7191 -79.9362 C -44.7488 -80.4814 -40.5517 -83.3007 -38.0128 -85.2553 M -48.8312 -77.474 C -45.7815 -78.2965 -41.6652 -80.2097 -39.3439 -81.8132 M -50.331 -74.3159 C -47.2684 -75.0995 -43.0124 -77.0624 -40.6284 -78.7047 M -52.0019 -70.9919 C -49.3316 -71.4623 -45.1767 -73.2265 -42.3887 -74.8891 M -53.6239 -67.9478 C -50.7997 -68.5163 -46.5323 -70.3814 -43.8485 -72.062 M -55.4769 -64.6976 C -52.6338 -65.2814 -48.3623 -67.1556 -45.6971 -68.8352 M -57.1572 -61.966 C -53.8429 -62.8433 -49.2196 -65.0419 -47.0348 -66.7279 M -59.2568 -58.8178 C -56.2087 -59.5876 -51.9506 -61.5447 -49.5451 -63.1902 M -61.6346 -55.6081 C -59.2062 -56.1414 -55.822 -57.5566 -53.2607 -58.9834 M 1.50552 -105.031 C 4.10764 -94.7872 7.82991 -83.2037 14.8852 -67.8623 M 2.30115 -115.627 C 1.93484 -110.846 1.26754 -102.006 1.26754 -101.06 C 1.26754 -99.104 -1.0351 -82.473 -3.16938 -80.848 C -5.43867 -79.1202 -10.8677 -69.7948 -12.0432 -69.112 C -15.3146 -67.212 -20.742 -71.0258 -21.5509 -71.72 C -26.6881 -70.235 -38.2263 -84.3794 -34.2278 -86.716 L -37.173 -88.0144 M 0.743369 -95.8677 C 3.15991 -87.8081 6.45453 -78.7231 11.4168 -67.7892 M -0.473372 -89.1872 C 1.64736 -82.8226 4.33895 -75.8049 7.90349 -67.8341 M 10.8289 -69.112 L 7.34998 -69.112 M 9.95963 -71.068 L 6.50245 -71.068 M 9.1141 -73.024 L 5.65494 -73.024 M 8.28267 -74.98 L 4.84604 -74.98 M 7.4765 -76.936 L 4.05448 -76.936 M 6.6832 -78.892 L 3.26291 -78.892 M 5.91962 -80.848 L 2.52137 -80.848 M 5.16495 -82.804 L 1.78625 -82.804 M 4.4645 -84.76 L 1.06451 -84.76 M 3.76727 -86.716 L 0.385109 -86.716 M 3.07004 -88.672 L -0.294293 -88.672 M 2.41119 -90.628 L -0.125045 -90.628 M 1.75636 -92.584 L 0.135153 -92.584 M -31.3018 -77.7746 C -33.6371 -80.1594 -35.8447 -82.8075 -37.8784 -85.814 M -19.0602 -67.7969 C -21.4494 -69.4137 -23.7953 -71.1199 -26.0632 -72.9867 M -22.2146 -67.7963 C -28.2107 -72.0301 -33.8689 -76.9602 -38.6238 -83.7512 M -25.2905 -67.7994 C -30.4111 -71.5923 -35.2363 -75.9939 -39.4006 -81.7571 M -28.2601 -67.7883 C -32.5573 -71.1392 -36.611 -74.9916 -40.1962 -79.8093 M -31.1772 -67.8064 C -34.685 -70.6983 -38.0054 -73.976 -41.0102 -77.904 M -33.9564 -67.7836 C -36.7469 -70.217 -39.4029 -72.9278 -41.8564 -76.0558 M -36.7002 -67.8054 C -38.8078 -69.7561 -40.8286 -71.8856 -42.7318 -74.2574 M -39.3092 -67.7794 C -40.8015 -69.2437 -42.2452 -70.808 -43.6288 -72.4963 M -41.8925 -67.8063 C -42.8037 -68.7569 -43.6947 -69.7491 -44.5627 -70.7887 M -44.3715 -67.8044 C -44.7629 -68.2382 -45.1502 -68.6804 -45.5331 -69.1316 M -35.0611 -84.939 C -35.7658 -85.8822 -36.4525 -86.8625 -37.1195 -87.8834 M -15.8463 -67.808 C -17.2416 -68.7191 -18.6256 -69.6537 -19.9914 -70.6256 M -31.6924 -58.68 C -33.1512 -58.669 -34.5774 -59.0934 -35.9768 -59.8759 M -38.6816 -58.9653 C -34.7861 -56.2487 -30.6705 -57.3991 -26.6216 -57.376 C -27.1749 -58.5893 -28.6498 -59.3474 -33.6984 -60.9283 M -26.1444 -61.0655 C -27.6032 -61.0765 -29.0293 -60.6521 -30.4287 -59.8696 M -33.1336 -60.7802 C -29.2381 -63.4968 -25.1224 -62.3464 -21.0736 -62.3695 C -21.6269 -61.1562 -23.1017 -60.3981 -28.1504 -58.8172 M -20.4358 -58.7881 C -21.8946 -58.777 -23.3207 -59.2014 -24.7201 -59.984 M -27.425 -59.0734 C -23.5295 -56.3568 -19.4138 -57.5072 -15.365 -57.4841 C -15.9182 -58.6974 -17.3931 -59.4555 -22.4418 -61.0364 M -14.8877 -61.1736 C -16.3465 -61.1846 -17.7727 -60.7602 -19.1721 -59.9776 M -21.877 -60.8883 C -17.9814 -63.6049 -13.8658 -62.4544 -9.81695 -62.4776 C -10.3702 -61.2642 -11.8451 -60.5061 -16.8937 -58.9252 M -9.96816 -58.5358 C -11.427 -58.5248 -12.8531 -58.9492 -14.2525 -59.7317 M -16.9574 -58.8211 C -13.0619 -56.1045 -8.94623 -57.2549 -4.8974 -57.2318 C -5.45066 -58.4451 -6.92551 -59.2032 -11.9742 -60.7841 M -4.42012 -60.9213 C -5.87892 -60.9323 -7.30511 -60.5079 -8.70447 -59.7254 M -11.4094 -60.636 C -7.51382 -63.3526 -3.39819 -62.2022 0.650643 -62.2253 C 0.0973861 -61.012 -1.37747 -60.2539 -6.42615 -58.673 M 1.28849 -58.6438 C -0.170311 -58.6328 -1.5965 -59.0572 -2.99586 -59.8398 M -5.70075 -58.9291 C -1.80521 -56.2126 2.31042 -57.363 6.35925 -57.3398 C 5.80599 -58.5532 4.33113 -59.3113 -0.717546 -60.8922 M 6.83653 -61.0294 C 5.37773 -61.0404 3.95154 -60.616 2.55218 -59.8334 M -0.152711 -60.7441 C 3.74283 -63.4606 7.85846 -62.3102 11.9073 -62.3334 C 11.354 -61.12 9.87918 -60.3619 4.8305 -58.781 M 12.6808 -58.7944 C 11.222 -58.7834 9.79576 -59.2078 8.3964 -59.9904 M 5.69151 -59.0797 C 9.58705 -56.3631 13.7027 -57.5136 17.7515 -57.4904 C 17.1983 -58.7038 15.7234 -59.4619 10.6747 -61.0428 M 18.2288 -61.1799 C 16.77 -61.191 15.3438 -60.7666 13.9444 -59.984 M 11.2396 -60.8946 C 14.3762 -63.082 17.6556 -62.7623 20.9279 -62.5668 M 21.7446 -61.0024 C 20.6883 -60.4192 18.9938 -59.7993 16.2228 -58.9316 M -43.1016 -58.68 C -44.5604 -58.669 -45.9866 -59.0934 -47.386 -59.8759 M -50.0909 -58.9653 C -46.1953 -56.2487 -42.0797 -57.3991 -38.0309 -57.376 C -38.5841 -58.5893 -40.059 -59.3474 -45.1076 -60.9283 M -37.5536 -61.0655 C -39.0124 -61.0765 -40.4386 -60.6521 -41.8379 -59.8696 M -44.5428 -60.7802 C -40.6473 -63.4968 -36.5316 -62.3464 -32.4828 -62.3695 C -33.0361 -61.1562 -34.5109 -60.3981 -39.5596 -58.8172 M -49.8343 -62.8036 C -47.7686 -62.8752 -45.6821 -62.5805 -43.6131 -62.5923 C -44.1663 -61.379 -45.6412 -60.6209 -50.6899 -59.04 M -48.6838 -61.2883 C -49.6743 -61.2958 -50.6497 -61.1026 -51.6119 -60.7328 M -54.6913 -57.3764 C -52.852 -57.3778 -50.9997 -57.6093 -49.1611 -57.5988 C -49.5357 -58.4204 -50.3329 -59.0333 -52.3762 -59.8342 M 22.7629 -58.9039 C 21.7629 -59.0759 20.7778 -59.4467 19.8056 -59.9904 M 17.1007 -59.0797 C 19.2221 -57.6004 21.4087 -57.2678 23.6142 -57.2679 M 42.0146 1.58551 L 35.4952 2.608 C 35.2167 4.24281 35.7378 4.9827 36.129 5.868 L 42.5113 3.75444 M 43.1071 5.29124 L 37.2304 8.10459 C 37.3736 9.75775 38.0634 10.3333 38.6644 11.084 L 44.1572 7.18587 M 45.2062 8.52494 L 40.3273 13.0917 C 41.0601 14.5703 41.9089 14.8394 42.7389 15.305 L 46.7547 10.0166 M 48.7146 11.3172 L 45.7977 17.0404 C 46.9836 18.1658 47.8705 18.1154 48.8059 18.256 L 50.7612 12.2082 M 52.6248 12.7247 L 51.3413 19.56 C 52.7941 20.2821 53.6284 19.9686 54.5631 19.8234 L 54.8961 12.9998 M 57.3856 12.9463 L 58.1009 20.1306 C 59.69 20.4181 60.4096 19.8825 61.2705 19.4806 L 59.7111 12.5021 M 41.6041 -2.33496 L 35.1846 -3.30789 C 34.4524 -1.82892 34.7397 -0.964376 34.8613 -2.84217e-14 L 41.8638 -2.84217e-14 M 26.2428 -4.41238 C 26.1744 -3.51491 25.4116 -2.84447 24.5391 -2.91491 C 23.6666 -2.98534 23.0149 -3.76998 23.0833 -4.66745 C 23.1518 -5.56491 23.9146 -6.23535 24.7871 -6.16491 C 25.6595 -6.09448 26.3113 -5.30984 26.2428 -4.41238 Z M 22.9593 -3.04244 C 19.6511 -1.34751 20.1966 -8.49752 23.2073 -6.29245 C 21.5596 -9.6955 28.5105 -9.13435 26.3668 -6.03738 C 29.6751 -7.73232 29.1296 -0.582293 26.1189 -2.78737 C 27.7666 0.615684 20.8157 0.0545333 22.9593 -3.04244 Z M 26.7724 6.40431 C 26.9271 7.29036 26.3542 8.13764 25.4929 8.29675 C 24.6315 8.45587 23.8078 7.86658 23.6531 6.98052 C 23.4984 6.09447 24.0713 5.24719 24.9327 5.08808 C 25.7941 4.92896 26.6177 5.51825 26.7724 6.40431 Z M 23.9332 8.58486 C 21.15 11.0863 19.9176 4.0272 23.373 5.37618 C 20.9413 2.51324 27.8038 1.24558 26.4924 4.79997 C 29.2756 2.29856 30.5079 9.35763 27.0525 8.00865 C 29.4843 10.8716 22.6218 12.1392 23.9332 8.58486 Z M 31.0685 16.2464 C 31.4128 17.074 31.0398 18.0321 30.2352 18.3863 C 29.4307 18.7406 28.4993 18.3568 28.1549 17.5292 C 27.8105 16.7016 28.1836 15.7435 28.9881 15.3893 C 29.7927 15.0351 30.7241 15.4188 31.0685 16.2464 Z M 28.7784 19.0277 C 26.6131 22.1087 23.8696 15.5153 27.5314 16.0307 C 24.5362 13.8034 30.946 10.9812 30.4449 14.7479 C 32.6102 11.6669 35.3538 18.2604 31.692 17.7449 C 34.6872 19.9723 28.2774 22.7944 28.7784 19.0277 Z M 38.0918 23.5234 C 38.732 24.1372 38.7672 25.1686 38.1705 25.8272 C 37.5737 26.4857 36.571 26.5219 35.9309 25.9081 C 35.2907 25.2943 35.2555 24.2629 35.8522 23.6044 C 36.4489 22.9458 37.4516 22.9096 38.0918 23.5234 Z M 37.09 27.0195 C 36.32 30.7379 31.2198 25.8477 34.7717 24.7967 C 31.1569 24.0047 35.9109 18.7584 36.9327 22.412 C 37.7026 18.6936 42.8028 23.5838 39.2509 24.6348 C 42.8658 25.4269 38.1117 30.6731 37.09 27.0195 Z M 46.9044 27.9963 C 47.7431 28.2532 48.2206 29.1609 47.9709 30.0237 C 47.7212 30.8865 46.8388 31.3777 46 31.1208 C 45.1613 30.8639 44.6838 29.9563 44.9335 29.0935 C 45.1832 28.2307 46.0656 27.7395 46.9044 27.9963 Z M 47.5188 31.5859 C 48.4369 35.2685 41.7545 33.222 44.4813 30.6557 C 40.9013 31.6002 42.8908 24.7263 45.3856 27.5312 C 44.4675 23.8486 51.1499 25.8951 48.4231 28.4614 C 52.0032 27.517 50.0137 34.3908 47.5188 31.5859 Z M 58.007 29.303 C 58.8817 29.2731 59.6143 29.9782 59.6434 30.878 C 59.6725 31.7777 58.987 32.5313 58.1123 32.5612 C 57.2377 32.5912 56.505 31.8861 56.4759 30.9863 C 56.4469 30.0866 57.1323 29.333 58.007 29.303 Z M 59.6961 32.5071 C 61.7019 35.7002 54.7335 35.9387 56.5286 32.6154 C 53.4244 34.6787 53.1926 27.5107 56.4233 29.3572 C 54.4174 26.1641 61.3859 25.9256 59.5907 29.2489 C 62.695 27.1856 62.9268 34.3536 59.6961 32.5071 Z M 68.3298 26.5933 C 69.1366 26.2445 70.0655 26.6346 70.4045 27.4645 C 70.7436 28.2944 70.3644 29.2499 69.5576 29.5987 C 68.7508 29.9474 67.8219 29.5574 67.4828 28.7275 C 67.1438 27.8976 67.523 26.942 68.3298 26.5933 Z M 71.0185 28.9672 C 73.9993 31.2148 67.5716 33.9934 68.0967 30.2302 C 65.9117 33.2964 63.2105 26.6846 66.8689 27.2248 C 63.888 24.9772 70.3158 22.1986 69.7906 25.9618 C 71.9756 22.8955 74.6769 29.5074 71.0185 28.9672 Z M 62.2657 13.5066 L 64.652 18.256 C 65.8189 18.0116 66.3855 17.5284 66.8667 17.0113 M -0.892802 -130.381 C 12.0209 -85.7593 42.958 -70.2133 28.3624 -49.5635 M 55.7782 -51.508 C 53.8767 -63.244 64.652 -63.244 62.7505 -51.508 C 74.1597 -53.464 74.1597 -42.38 62.7505 -44.336 C 64.652 -32.6 53.8767 -32.6 55.7782 -44.336 C 44.369 -42.38 44.369 -53.464 55.7782 -51.508 Z M 59.2644 -56.398 C 59.2644 -48.574 59.8982 -47.922 67.5043 -47.922 C 59.8982 -47.922 59.2644 -47.27 59.2644 -39.446 C 59.2644 -47.27 58.6305 -47.922 51.0244 -47.922 C 58.6305 -47.922 59.2644 -48.574 59.2644 -56.398 Z M 60.849 -47.922 C 60.849 -47.0218 60.1395 -46.292 59.2644 -46.292 C 58.3892 -46.292 57.6797 -47.0218 57.6797 -47.922 C 57.6797 -48.8222 58.3892 -49.552 59.2644 -49.552 C 60.1395 -49.552 60.849 -48.8222 60.849 -47.922 Z M 52.1377 -51.6854 C 51.6947 -52.7872 51.3413 -54.6114 51.3413 -56.072 C 52.7612 -56.072 54.5346 -55.7084 55.6057 -55.2528 M 62.923 -55.2528 C 63.9941 -55.7084 65.7675 -56.072 67.1874 -56.072 C 67.1874 -54.6114 66.834 -52.7872 66.391 -51.6854 M 52.1377 -44.1586 C 51.6947 -43.0568 51.3413 -41.2326 51.3413 -39.772 C 52.7612 -39.772 54.5346 -40.1356 55.6057 -40.5912 M 62.923 -40.5912 C 63.9941 -40.1356 65.7675 -39.772 67.1874 -39.772 C 67.1874 -41.2326 66.834 -43.0568 66.391 -44.1586 M 54.6016 -23.2394 C 54.7297 -24.1113 55.0376 -25.3182 55.7782 -26.08 C 57.0459 -27.384 64.652 -31.296 65.9197 -31.296 C 67.1874 -31.296 68.4551 -29.34 69.7228 -29.34 C 70.9905 -29.34 71.6243 -26.08 69.089 -26.08 C 66.5536 -26.08 64.652 -27.384 64.652 -27.384 C 64.8728 -24.5647 63.023 -23.8496 61.4828 -22.82 M 63.7791 -24.4853 C 64.3728 -21.468 63.9455 -19.0421 63.0253 -16.9017 M 69.7228 -25.428 C 79.2305 -28.688 80.0985 -23.8723 70.9905 -22.168 C 64.0183 -20.8633 63.4449 -23.2754 69.7228 -25.428 Z M 69.4946 -21.9442 C 78.449 -24.4127 79.3259 -19.9501 70.5787 -18.6333 C 63.8825 -17.6253 63.3778 -20.2579 69.4946 -21.9442 Z M 69.6336 -18.2154 C 78.7459 -19.4781 79.1051 -14.9331 70.3277 -14.786 C 63.6084 -14.6733 63.4089 -17.3529 69.6336 -18.2154 Z M 69.7097 -29.3106 C 70.1301 -29.7784 70.6952 -30.2456 71.4091 -30.6726 C 77.1174 -34.0866 78.0189 -28.8108 72.3716 -26.5434 C 71.2124 -26.0779 70.3252 -25.9913 69.7228 -26.1588 M 67.8213 -30.644 C 65.5132 -35.7695 72.2582 -41.076 74.1597 -46.944 C 75.2299 -39.9252 75.8812 -33.1152 67.8213 -30.644 Z M 67.8213 -30.644 C 70.0805 -34.0849 71.6543 -38.0121 73.5259 -41.728 M 60.3241 -35.7243 C 62.0066 -35.2777 63.6462 -34.0367 65.2859 -31.296 C 57.3588 -30.4566 51.0138 -30.8694 48.8059 -34.556 C 52.0737 -34.2199 55.0045 -35.6167 57.7722 -35.8875 M 65.2859 -31.296 C 62.2408 -32.6327 58.7448 -33.483 54.5105 -33.5368 M 2.09382 -112.885 C -0.299431 -113.741 -2.4428 -114.993 -4.25582 -116.992 C -6.68837 -119.674 -8.59223 -123.784 -9.49462 -130.392 M 2.19104 -114.232 C 0.0804421 -115.026 -1.75759 -116.149 -3.32883 -117.882 C -5.52256 -120.301 -7.3256 -124.069 -8.21303 -130.384 M 2.29234 -115.584 C 0.474782 -116.309 -1.06745 -117.3 -2.40183 -118.771 C -4.35977 -120.93 -6.06019 -124.361 -6.93075 -130.377 M 1.58764 -118.799 C 0.789599 -119.274 0.0925828 -119.844 -0.547831 -120.55 C -2.04448 -122.2 -3.53408 -124.97 -4.36442 -130.367 M 1.94064 -117.149 C 0.628186 -117.77 -0.485333 -118.569 -1.47483 -119.661 C -3.2003 -121.563 -4.7962 -124.661 -5.6478 -130.371 M 1.19796 -120.65 C 0.91065 -120.89 0.639788 -121.152 0.379167 -121.44 C -0.892712 -122.842 -2.27369 -125.289 -3.0802 -130.365 M -17.5107 -130.38 C -18.6657 -123.476 -21.0058 -118.147 -24.4789 -114.317 C -26.5465 -112.037 -28.9145 -110.414 -31.3355 -109.243 M -18.7968 -130.381 C -19.9327 -123.766 -22.1702 -118.775 -25.4059 -115.207 C -27.0966 -113.342 -28.9988 -111.942 -30.974 -110.879 M -20.0839 -130.384 C -21.1987 -124.062 -23.3321 -119.405 -26.3329 -116.096 C -27.6422 -114.652 -29.0855 -113.504 -30.5982 -112.583 M -21.3717 -130.389 C -22.4634 -124.366 -24.4911 -120.039 -27.2599 -116.986 C -28.1763 -115.975 -29.1622 -115.119 -30.1959 -114.389 M -28.7544 -121.287 C -27.2576 -123.472 -26.0403 -126.395 -25.2469 -130.381 M -22.66 -130.398 C -23.7266 -124.677 -25.647 -120.676 -28.1869 -117.875 C -28.6989 -117.31 -29.2339 -116.797 -29.7885 -116.33 M -23.9518 -130.394 C -25.0237 -124.821 -26.9151 -121.087 -29.3311 -118.53 M 0.663706 -123.139 C -0.234927 -124.432 -1.17193 -126.548 -1.79829 -130.382 M -31.4754 -127.585 C -29.8168 -128.198 -28.34 -129.259 -26.8956 -130.4 M -29.157 -106.928 C -24.3562 -109.901 -19.5927 -113.194 -13.9447 -108.884 L -13.9447 -108.232 C -21.5509 -112.796 -22.8186 -109.536 -29.157 -106.928 Z M -7.60629 -108.232 L -7.60667 -107.518 C -5.07091 -110.188 -1.85804 -109.707 1.26754 -108.884 C -3.44464 -111.349 -5.63708 -109.961 -7.60629 -108.232 Z M -7.60629 -108.232 C -7.60629 -108.232 -8.24014 -106.276 -8.24014 -102.364 C -8.24014 -99.104 -5.70476 -91.28 -5.70476 -89.976 C -5.70476 -88.2767 -7.2611 -87.0911 -8.24014 -87.368 C -8.8513 -87.5409 -10.7755 -84.76 -10.7755 -84.76 M -14.5786 -91.932 C -15.8463 -91.932 -18.3817 -87.368 -15.2124 -87.368 C -10.1417 -89.324 -7.60629 -88.02 -15.2124 -87.368 M -18.3817 -82.804 L -19.0155 -81.5 L -17.7478 -82.152 L -18.3817 -82.804 Z M -6.3386 -82.804 L -6.97245 -81.5 L -7.60629 -82.152 L -6.3386 -82.804 Z M -17.7478 -82.152 C -16.4801 -82.152 -15.2124 -82.804 -13.9447 -82.804 C -12.6771 -82.804 -12.0432 -82.152 -11.4094 -82.152 C -10.7755 -82.152 -10.1417 -82.804 -9.50783 -82.804 C -8.87398 -82.804 -8.24014 -82.152 -7.60629 -82.152 M -15.2124 -78.892 C -13.4997 -78.4025 -12.4406 -76.2187 -9.50783 -78.892 M -15.2124 -104.972 C -21.8293 -107.33 -24.6389 -101.252 -27.8893 -101.06 C -22.8186 -101.06 -23.4456 -99.9216 -21.5509 -99.756 C -16.6952 -99.3317 -15.0973 -103.202 -16.1419 -105.277 M 1.26754 -104.32 C -3.16938 -108.232 -5.70476 -101.712 -8.24014 -102.364 C -4.53351 -101.504 -1.90169 -98.452 1.26754 -103.016 M 64.9909 -31.8746 C 64.3638 -34.7282 63.8203 -37.581 62.8886 -40.189 M 67.8213 -30.644 C 67.0319 -33.7575 66.5125 -36.9578 65.6367 -39.9203 M 70.4642 -14.7413 C 69.6848 -14.1621 68.1882 -13.9026 67.0036 -13.7864 M -8.57489 -43.684 L -1.41664 -43.684 M -7.88112 -39.12 L -0.787012 -39.12 M -6.67682 -34.556 L 0.250661 -34.556 M -4.8503 -29.992 L 1.62631 -29.992 M -2.50087 -25.428 L 3.05815 -25.428 M -0.103896 -20.864 L 4.32807 -20.864 M 1.73475 -16.3 L 5.21223 -16.3 M 2.77391 -11.736 L 5.70619 -11.736 M -8.29708 -41.402 L -1.41665 -41.402 C -0.179154 -41.384 0.833408 -42.4109 0.833408 -43.684 C 0.833408 -44.9571 -0.179154 -45.984 -1.41665 -45.966 L -8.57488 -45.966 M -7.34953 -36.838 L -0.787009 -36.838 C 0.450482 -36.82 1.46304 -37.8469 1.46304 -39.12 C 1.46304 -40.3931 0.450482 -41.42 -0.787009 -41.402 L -7.88112 -41.402 M -5.8444 -32.274 L 0.250665 -32.274 C 1.48816 -32.256 2.50072 -33.2829 2.50072 -34.556 C 2.50072 -35.8291 1.48816 -36.856 0.250665 -36.838 L -6.67682 -36.838 M -3.71681 -27.71 L 1.62631 -27.71 C 2.8638 -27.692 3.87636 -28.7189 3.87636 -29.992 C 3.87636 -31.2651 2.8638 -32.292 1.62631 -32.274 L -4.8503 -32.274 M -1.26957 -23.146 L 3.05815 -23.146 C 4.29564 -23.128 5.30821 -24.1549 5.30821 -25.428 C 5.30821 -26.7011 4.29564 -27.728 3.05815 -27.71 L -2.50087 -27.71 M 0.911001 -18.582 L 4.32807 -18.582 C 5.56556 -18.564 6.57812 -19.5909 6.57812 -20.864 C 6.57812 -22.1371 5.56556 -23.164 4.32807 -23.146 L -0.103893 -23.146 M 2.35201 -14.018 L 5.21224 -14.018 C 6.44973 -14 7.46229 -15.0269 7.46229 -16.3 C 7.46229 -17.5731 6.44973 -18.6 5.21224 -18.582 L 1.73475 -18.582 M 3.05642 -9.454 L 5.70619 -9.454 C 6.94368 -9.436 7.95624 -10.4629 7.95624 -11.736 C 7.95624 -13.0091 6.94368 -14.036 5.70619 -14.018 L 2.77391 -14.018 M -23.1229 -43.684 L -13.5949 -43.684 M -21.8626 -39.12 L -12.7645 -39.12 M -19.5941 -34.556 L -11.2856 -34.556 M -16.3328 -29.992 L -9.12702 -29.992 M -12.4966 -25.428 L -6.42254 -25.428 M -8.89205 -20.864 L -3.70567 -20.864 M -6.18014 -16.3 L -1.63329 -16.3 M -4.58983 -11.736 L -0.430472 -11.736 M -13.817 -45.966 L -23.1229 -45.966 C -24.3604 -45.984 -25.3729 -44.9571 -25.3729 -43.684 C -25.3729 -42.4109 -24.3604 -41.384 -23.1229 -41.402 L -13.5949 -41.402 M -13.2539 -41.402 L -21.8626 -41.402 C -23.1001 -41.42 -24.1127 -40.3931 -24.1127 -39.12 C -24.1127 -37.8469 -23.1001 -36.82 -21.8626 -36.838 L -12.7645 -36.838 M -12.0959 -36.838 L -19.5941 -36.838 C -20.8316 -36.856 -21.8442 -35.8291 -21.8442 -34.556 C -21.8442 -33.2829 -20.8316 -32.256 -19.5941 -32.274 L -11.2856 -32.274 M -10.2947 -32.274 L -16.3328 -32.274 C -17.5703 -32.292 -18.5829 -31.2651 -18.5829 -29.992 C -18.5829 -28.7189 -17.5703 -27.692 -16.3328 -27.71 L -9.12702 -27.71 M -7.81328 -27.71 L -12.4966 -27.71 C -13.734 -27.728 -14.7466 -26.7011 -14.7466 -25.428 C -14.7466 -24.1549 -13.734 -23.128 -12.4966 -23.146 L -6.42254 -23.146 M -5.02139 -23.146 L -8.89205 -23.146 C -10.1295 -23.164 -11.1421 -22.1371 -11.1421 -20.864 C -11.1421 -19.5909 -10.1295 -18.564 -8.89205 -18.582 L -3.70567 -18.582 M -2.56227 -18.582 L -6.18014 -18.582 C -7.41763 -18.6 -8.43019 -17.5731 -8.43019 -16.3 C -8.43019 -15.0269 -7.41763 -14 -6.18014 -14.018 L -1.63329 -14.018 M -0.934079 -14.018 L -4.58983 -14.018 C -5.82732 -14.036 -6.83989 -13.0091 -6.83989 -11.736 C -6.83989 -10.4629 -5.82732 -9.436 -4.58983 -9.454 L -0.430471 -9.454"
       id="path1657"
       style="display:inline"
       inkscape:label="layer-16" />
    <path
       stroke="#4444ff"
       stroke-linecap="round"
       stroke-linejoin="round"
       stroke-width="0.7714300963794452"
       fill="none"
       d="M 82.2483 28.7451 C 75.2642 35.19 65.9748 39.12 55.7785 39.12 C 34.0746 39.12 16.4801 21.3135 16.4801 -0.652013 C 16.4801 -8.12273 18.5154 -15.1124 22.0554 -21.084 M 82.1552 28.6854 L 30.0746 -11.1383"
       id="path1661"
       style="display:inline"
       inkscape:label="layer-17" />
    <path
       stroke="#4444ff"
       stroke-linecap="round"
       stroke-linejoin="round"
       stroke-width="0.3857150481897226"
       fill="none"
       d="M 67.7545 -30.3566 C 67.799 -28.3465 69.2811 -28.2114 70.7851 -28.105 M 67.3714 -24.5489 C 67.8308 -23.3339 68.1633 -22.3052 67.6307 -21.7993 M 67.2887 -21.2698 C 67.7481 -20.0548 68.0805 -19.0261 67.5479 -18.5202 M 67.2887 -17.6522 C 67.7481 -16.4372 68.0805 -15.4085 67.5479 -14.9026 M 71.4617 -24.74 C 71.6993 -24.3556 71.8209 -23.9391 71.7905 -23.4806 M 72.2582 -21.2024 C 72.4428 -20.7884 72.5084 -20.3588 72.4178 -19.9088 M 72.0666 -17.1886 C 72.2545 -16.7761 72.3235 -16.3471 72.2365 -15.8964 M 72.2582 -29.34 C 72.4957 -28.9555 72.6173 -28.5391 72.5869 -28.0806 M -27.2555 -103.668 C -23.4709 -107.549 -15.857 -106.305 -16.1294 -105.252 M -21.5509 -97.8 C -18.8158 -96.0538 -16.4801 -101.06 -15.8463 -103.016 M -7.60629 -102.364 C -5.38007 -109.051 -0.633995 -107.58 -0.00015 -105.624 M -18.0788 -105.575 C -17.4911 -104.978 -17.114 -104.054 -17.114 -103.016 C -17.114 -101.216 -18.2491 -99.756 -19.6493 -99.756 C -21.0496 -99.756 -22.1847 -101.216 -22.1847 -103.016 C -22.1847 -103.58 -22.0732 -104.111 -21.8768 -104.574 M 0.441744 -104.915 C 0.565435 -104.531 0.633695 -104.11 0.633695 -103.668 C 0.633695 -101.868 -0.501434 -100.408 -1.90169 -100.408 C -3.30194 -100.408 -4.43707 -101.868 -4.43707 -103.668 C -4.43707 -103.961 -4.40697 -104.245 -4.35053 -104.516"
       id="path1665"
       style="display:inline"
       inkscape:label="layer-18" />
    <path
       id="path1687"
       d="M 74.6095 8.63062 C 76.223 10.1767 76.66 9.94139 77.6349 10.3111 L 75.8869 12.0588 C 75.5171 11.0841 75.7524 10.6472 74.2062 9.03394 C 74.1821 9.00992 74.1471 9.00054 74.1143 9.00933 C 74.0815 9.01812 74.0559 9.04375 74.0471 9.07655 C 74.0383 9.10936 74.0477 9.14436 74.0717 9.16837 C 74.5818 9.90903 74.5336 10.8992 73.954 11.5869 C 73.3745 12.2745 72.4066 12.4899 71.5901 12.1129 C 70.7736 11.7358 70.31 10.8595 70.4577 9.97249 C 70.6055 9.08547 71.3282 8.40672 72.2229 8.3147 C 72.2697 8.30801 72.3045 8.2679 72.3045 8.22059 C 72.3045 8.17328 72.2697 8.13317 72.2229 8.12648 C 71.2638 8.40922 70.2351 8.00554 69.7244 7.14605 C 69.2137 6.28656 69.3511 5.19021 70.0582 4.4833 C 70.7652 3.77638 71.8617 3.63899 72.7213 4.14961 C 73.581 4.66022 73.9847 5.68876 73.7019 6.64767 C 73.7086 6.6945 73.7487 6.72929 73.7961 6.72929 C 73.8434 6.72929 73.8835 6.6945 73.8902 6.64767 C 73.9822 5.75315 74.6611 5.03056 75.5482 4.88281 C 76.4354 4.73505 77.3119 5.19859 77.689 6.01499 C 78.066 6.83138 77.8507 7.79908 77.1629 8.37854 C 76.4751 8.958 75.4848 9.00617 74.744 8.49619 C 74.72 8.47217 74.685 8.46279 74.6522 8.47158 C 74.6193 8.48037 74.5937 8.506 74.5849 8.5388 C 74.5761 8.57161 74.5855 8.60661 74.6095 8.63062 Z M 61.4255 -2.06218 C 63.039 -0.516146 63.476 -0.751411 64.4509 -0.381709 L 62.7029 1.36598 C 62.3331 0.391307 62.5684 -0.045615 61.0222 -1.65886 C 60.9981 -1.68288 60.9631 -1.69226 60.9303 -1.68347 C 60.8975 -1.67468 60.8719 -1.64905 60.8631 -1.61625 C 60.8543 -1.58344 60.8637 -1.54844 60.8877 -1.52443 C 61.3978 -0.783773 61.3496 0.206428 60.77 0.894086 C 60.1905 1.58174 59.2226 1.79709 58.4061 1.42007 C 57.5896 1.04304 57.126 0.166719 57.2737 -0.720307 C 57.4215 -1.60733 58.1442 -2.28608 59.0389 -2.3781 C 59.0857 -2.38479 59.1205 -2.4249 59.1205 -2.47221 C 59.1205 -2.51952 59.0857 -2.55963 59.0389 -2.56632 C 58.0798 -2.28358 57.0511 -2.68726 56.5404 -3.54675 C 56.0297 -4.40624 56.1671 -5.50259 56.8742 -6.2095 C 57.5812 -6.91642 58.6777 -7.05381 59.5373 -6.54319 C 60.397 -6.03258 60.8007 -5.00404 60.5179 -4.04513 C 60.5246 -3.9983 60.5647 -3.96351 60.6121 -3.96351 C 60.6594 -3.96351 60.6995 -3.9983 60.7062 -4.04513 C 60.7982 -4.93965 61.4771 -5.66224 62.3642 -5.80999 C 63.2514 -5.95775 64.1279 -5.49421 64.505 -4.67781 C 64.8821 -3.86142 64.6667 -2.89372 63.9789 -2.31426 C 63.2911 -1.7348 62.3008 -1.68663 61.56 -2.19661 C 61.5229 -2.23374 61.4627 -2.23374 61.4255 -2.19661 C 61.3884 -2.15949 61.3884 -2.0993 61.4255 -2.06218 Z M 47.7345 -12.103 C 49.348 -10.5569 49.785 -10.7922 50.7598 -10.4225 L 49.0118 -8.67482 C 48.6421 -9.64949 48.8774 -10.0864 47.3311 -11.6997 C 47.3071 -11.7237 47.2721 -11.7331 47.2393 -11.7243 C 47.2064 -11.7155 47.1808 -11.6899 47.172 -11.657 C 47.1632 -11.6242 47.1726 -11.5892 47.1966 -11.5652 C 47.7067 -10.8246 47.6585 -9.83437 47.079 -9.14672 C 46.4994 -8.45906 45.5316 -8.24371 44.715 -8.62073 C 43.8985 -8.99776 43.4349 -9.87408 43.5827 -10.7611 C 43.7305 -11.6481 44.4532 -12.3269 45.3478 -12.4189 C 45.3947 -12.4256 45.4295 -12.4657 45.4295 -12.513 C 45.4295 -12.5603 45.3947 -12.6004 45.3478 -12.6071 C 44.3888 -12.3244 43.36 -12.7281 42.8494 -13.5876 C 42.3387 -14.447 42.4761 -15.5434 43.1831 -16.2503 C 43.8901 -16.9572 44.9866 -17.0946 45.8463 -16.584 C 46.7059 -16.0734 47.1097 -15.0448 46.8269 -14.0859 C 46.8336 -14.0391 46.8737 -14.0043 46.921 -14.0043 C 46.9683 -14.0043 47.0084 -14.0391 47.0151 -14.0859 C 47.1072 -14.9805 47.786 -15.703 48.6732 -15.8508 C 49.5603 -15.9986 50.4368 -15.535 50.8139 -14.7186 C 51.191 -13.9022 50.9756 -12.9345 50.2878 -12.3551 C 49.6001 -11.7756 48.6097 -11.7274 47.8689 -12.2374 C 47.8318 -12.2745 47.7716 -12.2745 47.7345 -12.2374 C 47.6973 -12.2003 47.6973 -12.1401 47.7345 -12.103 Z"
       style="display:inline"
       inkscape:label="layer-13" />
    <path
       d="M 60.147 -97.36 C 60.379 -86.456 62.699 -85.76 64.787 -81.12 L 52.723 -81.12 C 54.811 -85.76 57.131 -86.456 57.363 -97.36 C 57.363 -97.5258 57.2746 -97.679 57.131 -97.7618 C 56.9874 -97.8447 56.8106 -97.8447 56.667 -97.7618 C 56.5234 -97.679 56.435 -97.5258 56.435 -97.36 C 55.6389 -93.0435 52.055 -89.7922 47.6816 -89.4187 C 43.3083 -89.0453 39.2251 -91.642 37.7086 -95.761 C 36.1922 -99.88 37.6169 -104.504 41.1884 -107.056 C 44.7598 -109.607 49.5964 -109.456 53.0014 -106.686 C 53.1861 -106.548 53.4446 -106.566 53.6079 -106.73 C 53.7712 -106.893 53.7895 -107.151 53.651 -107.336 C 49.3656 -109.67 47.2089 -114.613 48.413 -119.342 C 49.6171 -124.071 53.8753 -127.38 58.755 -127.38 C 63.6347 -127.38 67.8929 -124.071 69.097 -119.342 C 70.3011 -114.613 68.1444 -109.67 63.859 -107.336 C 63.7205 -107.151 63.7388 -106.893 63.9021 -106.73 C 64.0654 -106.566 64.3239 -106.548 64.5086 -106.686 C 67.9136 -109.456 72.7502 -109.607 76.3216 -107.056 C 79.8931 -104.504 81.3178 -99.88 79.8014 -95.761 C 78.2849 -91.642 74.2017 -89.0453 69.8284 -89.4187 C 65.455 -89.7922 61.8711 -93.0435 61.075 -97.36 C 61.075 -97.5258 60.9866 -97.679 60.843 -97.7618 C 60.6994 -97.8447 60.5226 -97.8447 60.379 -97.7618 C 60.2354 -97.679 60.147 -97.5258 60.147 -97.36 Z"
       fill="#000000"
       id="path1675"
       style="display:inline"
       inkscape:label="path1675" />
  </g>
</svg>
