<?xml version="1.0" encoding="UTF-8" standalone="no"?>
<svg
   class="card"
   face="QD"
   height="3.5in"
   preserveAspectRatio="none"
   viewBox="-120 -168 240 336"
   width="2.5in"
   version="1.1"
   id="svg77"
   sodipodi:docname="q-diamond.svg.2023_07_02_21_25_38.0.svg"
   inkscape:version="1.2.2 (732a01da63, 2022-12-09)"
   xmlns:inkscape="http://www.inkscape.org/namespaces/inkscape"
   xmlns:sodipodi="http://sodipodi.sourceforge.net/DTD/sodipodi-0.dtd"
   xmlns="http://www.w3.org/2000/svg"
   xmlns:svg="http://www.w3.org/2000/svg">
  <sodipodi:namedview
     id="namedview79"
     pagecolor="#505050"
     bordercolor="#eeeeee"
     borderopacity="1"
     inkscape:showpageshadow="0"
     inkscape:pageopacity="0"
     inkscape:pagecheckerboard="0"
     inkscape:deskcolor="#505050"
     inkscape:document-units="in"
     showgrid="false"
     inkscape:zoom="3.0565476"
     inkscape:cx="120.23369"
     inkscape:cy="168.65433"
     inkscape:window-width="1278"
     inkscape:window-height="1368"
     inkscape:window-x="0"
     inkscape:window-y="0"
     inkscape:window-maximized="0"
     inkscape:current-layer="layer1" />
  <defs
     id="defs33" />
  <g
     inkscape:groupmode="layer"
     id="layer1"
     inkscape:label="Layer 1">
    <path
       d="M 1,0 0,1 -1,0 0,-1"
       id="path1736"
       fill="#ff0000"
       inkscape:label="layer-0"
       style="display:inline;stroke-width:0.264583" />
    <path
       fill="#ffcc44"
       d="M -54.9476 -130.4 C -52.0735 -125.991 -48.71 -121.747 -48.1097 -116.642 L -51.325 -111.943 L -51.8303 -112.478 C -51.0291 -113.938 -51.0723 -115.969 -53.0334 -118.008 C -57.1085 -122.246 -63.8636 -113.138 -70.9908 -118.664 C -64.6523 -112.144 -71.8498 -102.437 -67.2192 -99.188 C -64.0046 -96.933 -61.5864 -97.8585 -60.4318 -99.6511 L -59.9995 -99.2443 C -61.1336 -97.5843 -62.2677 -95.9242 -63.3705 -94.3082 C -66.6433 -93.709 -69.7852 -93.5178 -72.2585 -95.192 C -74.1197 -91.774 -78.0014 -91.4497 -81.1323 -89.976 C -73.3518 -89.9353 -65.8587 -89.4841 -61.5671 -84.4618 L -30.1848 -130.4 Z M -2.0953 -130.4 L -0.977658 -127.079 C 14.0246 -106.048 26.5958 -93.1016 28.741 -55.4366 L 32.7085 -52.066 C 31.1051 -93.9666 16.9971 -108.32 1.37376 -130.4 Z M 4.155 -100.257 L 3.7378 -93.589 C 4.19003 -92.7948 4.62658 -91.9938 5.04734 -91.1822 C 8.1287 -85.2387 10.4829 -78.6283 11.984 -69.6331 L 16.3622 -65.935 C 14.3554 -81.5622 10.13 -91.0776 4.155 -100.257 Z M -46.8505 -77.8694 L -48.261 -74.2238 C -36.8078 -70.0498 -25.6516 -67.2914 -13.8801 -66.7327 C -16.5936 -68.0131 -19.3128 -69.4686 -21.5509 -69.112 C -24.63 -68.6214 -27.7223 -70.4049 -30.3613 -72.956 C -35.8062 -74.1728 -41.265 -75.8461 -46.8505 -77.8694 Z M -48.266 -74.2139 C -51.4755 -66.7257 -55.9589 -60.8122 -61.2947 -56.3328 C -46.5732 -50.4965 -31.4789 -46.3851 -15.254 -45.464 L -15.5425 -45.4663 L -2.66948 -18.037 L 9.49812 -18.9974 C 0.164618 -17.3779 -10.1263 -17.5798 -22.0698 -20.9259 L -21.2976 -16.6762 C -0.969949 -11.4413 15.1946 -15.02 29.4085 -21.0201 L 28.0245 -24.6634 C 22.1764 -22.1846 16.0964 -20.147 9.54541 -19.0055 L -2.82769 -45.3695 L -3.35507 -45.3736 C 7.98606 -45.844 19.9241 -47.9254 32.6939 -52.0734 L 12.7953 -68.9192 L 8.95861 -72.154 C 4.87595 -71.4058 0.938549 -70.9185 -2.848 -70.7359 C -3.84643 -69.2112 -4.9397 -67.8003 -6.0962 -66.6968 C -0.932532 -66.7602 4.4791 -67.3265 10.1476 -68.3907 C 4.47793 -67.3254 -0.941639 -66.7513 -6.16553 -66.6311 C -7.11095 -65.7485 -8.05175 -65.2 -8.87398 -65.2 C -10.364 -65.2 -12.0555 -65.8925 -13.7957 -66.6935 C -25.6514 -67.2915 -36.8078 -70.05 -48.266 -74.2139 Z M 61.9008 -65.2975 C 59.0125 -65.1969 55.8376 -60.0859 60.849 -58.68 C 53.8767 -56.724 62.7505 -47.596 64.652 -54.768 C 66.5536 -47.596 75.4274 -56.724 68.4551 -58.68 C 75.4274 -60.636 66.5536 -69.764 64.652 -62.592 C 64.1172 -64.6091 63.031 -65.3369 61.9008 -65.2975 Z M 79.1574 -51.6779 C 76.1674 -51.7449 74.1107 -49.5877 72.2582 -46.944 L 74.1597 -45.64 C 77.2382 -47.0343 80.0335 -48.5933 80.4982 -51.508 C 80.0308 -51.6134 79.5846 -51.6683 79.1574 -51.6779 Z M 51.0927 -48.3899 C 48.8738 -48.3827 46.6356 -47.4012 44.369 -44.988 C 49.3982 -44.3413 51.31 -39.2053 61.8535 -42.3016 L 62.0681 -42.4238 C 58.4354 -45.7073 54.7909 -48.4019 51.0927 -48.3899 Z M 47.557 -39.4661 L 30.7223 -18.5736 C 33.2623 -15.0302 35.7546 -12.0596 38.1449 -9.2556 C 34.475 -3.6021 32.3259 3.10602 32.3259 10.432 C 32.3259 22.8297 38.5119 33.5933 47.9252 39.9088 L 49.9124 41.2418 L 56.7495 34.255 C 56.5095 31.7279 56.2194 29.3745 55.8666 27.2297 C 55.3546 27.3715 54.8401 27.3986 54.3154 27.3588 C 46.3993 26.8755 40.5659 19.7361 40.5659 11.736 C 40.5659 7.91476 41.8494 4.20781 44.2888 1.28744 C 44.697 0.784604 45.1713 0.354388 45.6241 -0.023176 C 50.9767 7.45994 55.09 16.6297 56.7775 34.203 L 78.4208 11.9222 L 80.3256 9.98019 C 80.3243 9.97484 80.3236 9.96963 80.3226 9.9644 L 82.3997 7.82603 L 82.3997 7.82473 L 80.3224 9.96233 C 79.447 5.09136 78.0497 0.494112 75.3697 -3.25876 C 73.1643 -6.34707 70.0755 -8.77958 65.9021 -10.1954 C 65.1512 -10.7748 63.91 -11.3023 62.1117 -11.6319 C 62.0559 -8.83575 59.8661 -6.58251 57.1479 -6.52411 C 58.5903 1.7927 63.9871 -1.41638 62.7505 -5.86829 C 64.5867 -5.32863 66.2057 -6.01726 66.8338 -7.10199 C 69.6497 -5.80998 71.7243 -3.95849 73.3266 -1.71484 C 75.1688 0.864878 76.373 4.03991 77.1581 7.46155 C 75.0177 4.41416 71.926 7.13718 72.8933 10.6194 C 70.5207 9.92212 68.5106 11.2757 68.5143 12.8971 C 66.0001 12.0021 63.7854 10.7842 62.0003 9.11269 C 58.7848 6.10191 56.7555 1.5648 56.7783 -5.72388 C 56.8345 -5.94356 56.8906 -6.22078 56.9439 -6.52564 C 54.1854 -6.58273 51.9776 -8.89796 51.9751 -11.736 C 51.9751 -13.1194 52.5094 -14.4461 53.4603 -15.4243 C 54.4113 -16.4025 55.7011 -16.952 57.0459 -16.952 C 59.8056 -16.9505 62.0574 -14.6791 62.1129 -11.8409 C 70.1982 -13.3247 67.0784 -18.876 62.7505 -17.604 C 63.909 -21.775 59.2443 -24.857 57.4277 -18.2119 C 56.5905 -22.2473 55.3719 -26.2351 53.2352 -29.6235 L 82.3997 -4.90401 L 82.3997 -9.97025 Z M 47.0777 -32.6591 C 48.4287 -31.6354 49.5524 -30.4368 50.5081 -29.0986 C 51.9433 -27.0888 52.9912 -24.7177 53.7029 -22.1094 C 52.0238 -22.1814 50.652 -20.0855 51.3413 -17.604 C 48.2821 -18.5031 45.8255 -15.9927 47.5063 -13.9047 C 44.238 -14.8383 41.3832 -16.2098 39.1819 -18.271 C 38.4712 -18.9365 37.8183 -19.6765 37.233 -20.5054 Z M 74.0134 -31.3584 L 72.0143 -31.0721 C 73.7638 -27.3806 76.3585 -24.3827 73.8599 -17.2059 L 75.4336 -15.947 C 77.0425 -20.2655 77.0467 -23.5827 76.2915 -26.2275 C 75.6999 -28.2993 74.7669 -29.8898 74.0134 -31.3584 Z M 46.2705 -24.776 C 45.2203 -24.776 44.369 -23.9003 44.369 -22.82 C 44.369 -21.7397 45.2203 -20.864 46.2705 -20.864 C 47.3207 -20.864 48.1721 -21.7397 48.1721 -22.82 C 48.1721 -23.9003 47.3207 -24.776 46.2705 -24.776 Z M 36.3268 -17.5296 C 36.692 -17.1126 37.075 -16.717 37.4752 -16.3423 C 40.6371 -13.3817 44.7182 -11.7562 49.1417 -10.7499 C 44.8439 -8.65171 47.655 -4.78462 51.3413 -5.868 C 50.5181 -2.90435 52.6348 -0.490553 54.5311 -1.64987 C 55.1543 4.06455 57.2215 8.16518 60.2936 11.0417 C 63.8039 14.3285 68.447 15.9697 73.5085 16.9304 L 78.1163 12.2326 L 60.1933 30.6756 C 58.4674 16.1571 54.8742 7.0726 50.2407 -0.0580684 C 46.0107 -6.56794 41.203 -11.3219 36.3268 -17.5296 Z M 29.4499 -16.8224 C 15.3998 -11.1232 -1.03584 -7.76995 -20.9542 -12.5686 L -20.9131 -8.55088 C -2.76964 -4.4013 12.8528 -6.75597 26.1633 -11.4189 Z M 66.5536 0.652 C 66.0493 0.652 65.5656 0.858078 65.209 1.2249 C 64.8524 1.59172 64.652 2.08924 64.652 2.608 C 64.652 3.12676 64.8524 3.62428 65.209 3.9911 C 65.5656 4.35792 66.0493 4.564 66.5536 4.564 C 67.0579 4.564 67.5416 4.35792 67.8982 3.9911 C 68.2548 3.62428 68.4551 3.12676 68.4551 2.608 C 68.4551 2.08924 68.2548 1.59172 67.8982 1.2249 C 67.5416 0.858078 67.0579 0.652 66.5536 0.652 Z M 62.7505 17.604 C 61.7003 17.604 60.849 18.4797 60.849 19.56 C 60.849 20.6403 61.7003 21.516 62.7505 21.516 C 63.8007 21.516 64.652 20.6403 64.652 19.56 C 64.652 18.4797 63.8007 17.604 62.7505 17.604 Z"
       id="path1985"
       style="display:inline"
       inkscape:label="layer-1" />
    <path
       fill="#ff0000"
       d="M -30.1848 -130.4 L -82.4 -53.9657 L -82.4 -37.0637 L -18.6387 -130.4 Z M -0.960573 -127.038 C 1.2865 -120.338 5.07061 -108.768 5.07061 -106.928 C 5.07061 -105.226 4.53105 -102.415 4.1555 -100.28 C 10.1301 -91.0775 14.3554 -81.5622 16.3622 -65.935 L 28.741 -55.4366 C 26.5958 -93.1016 14.0246 -106.048 -0.960573 -127.038 Z M 64.652 -72.372 C 61.7632 -72.372 58.8747 -69.9708 61.1651 -65.1687 C 62.5344 -65.5912 64.0014 -65.0461 64.652 -62.592 C 65.3027 -65.0461 66.7697 -65.5912 68.1389 -65.1687 C 70.4294 -69.9708 67.5409 -72.372 64.652 -72.372 Z M 55.2862 -63.1184 C 49.1522 -63.1706 50.1716 -50.9688 58.344 -55.0932 C 57.9333 -56.5017 58.4632 -58.0107 60.849 -58.68 C 58.4632 -59.3493 57.9333 -60.8583 58.344 -62.2668 C 57.1796 -62.8544 56.1602 -63.111 55.2862 -63.1184 Z M 74.0178 -63.1184 C 73.1439 -63.111 72.1244 -62.8544 70.96 -62.2668 C 71.3708 -60.8583 70.8409 -59.3493 68.4551 -58.68 C 70.8409 -58.0107 71.3708 -56.5017 70.96 -55.0932 C 79.1325 -50.9688 80.1519 -63.1706 74.0178 -63.1184 Z M 64.652 -60.8102 C 64.1088 -60.8102 63.5878 -60.5858 63.2036 -60.1863 C 62.8195 -59.7868 62.6037 -59.245 62.6037 -58.68 C 62.6037 -58.115 62.8195 -57.5732 63.2036 -57.1737 C 63.5878 -56.7742 64.1088 -56.5498 64.652 -56.5498 C 65.1953 -56.5498 65.7163 -56.7742 66.1005 -57.1737 C 66.4846 -57.5732 66.7004 -58.115 66.7004 -58.68 C 66.7004 -59.245 66.4846 -59.7868 66.1005 -60.1863 C 65.7163 -60.5858 65.1953 -60.8102 64.652 -60.8102 Z M 64.652 -54.768 C 64.0014 -52.3139 62.5344 -51.7688 61.1651 -52.1913 C 56.5843 -42.5871 72.7198 -42.5871 68.1389 -52.1913 C 66.7697 -51.7688 65.3027 -52.3139 64.652 -54.768 Z M 29.4316 -46.8633 C 20.2971 -44.3074 11.5098 -42.6672 3.04602 -41.8757 L 13.3339 -19.7915 C 18.4315 -20.9481 23.3033 -22.6622 27.9995 -24.708 C 27.1005 -27.5922 26.6213 -30.678 26.6213 -33.904 C 26.6213 -38.5824 27.6291 -42.9657 29.4316 -46.8633 Z M -34.8864 -44.1659 C -28.5953 -37.928 -24.044 -29.8715 -22.0577 -20.8757 C -16.7997 -19.4494 -11.8513 -18.5847 -7.07198 -18.2203 L -17.9922 -41.7514 C -23.735 -42.2013 -29.3664 -43.0256 -34.8864 -44.1659 Z M 57.0459 -14.996 C 56.2054 -14.996 55.3993 -14.6525 54.8049 -14.0412 C 54.2106 -13.4298 53.8767 -12.6006 53.8767 -11.736 C 53.8767 -10.8714 54.2106 -10.0422 54.8049 -9.43083 C 55.3993 -8.81946 56.2054 -8.476 57.0459 -8.476 C 57.8864 -8.476 58.6925 -8.81946 59.2869 -9.43083 C 59.8812 -10.0422 60.2151 -10.8714 60.2151 -11.736 C 60.2151 -12.6006 59.8812 -13.4298 59.2869 -14.0412 C 58.6925 -14.6525 57.8864 -14.996 57.0459 -14.996 Z M 49.1295 5.57383 C 47.6872 7.22365 46.9044 9.43748 46.9044 11.736 C 46.9044 16.5821 50.3229 20.5836 54.6915 20.8365 C 53.2749 14.5419 51.3896 9.7096 49.1295 5.57383 Z"
       id="path1981"
       style="display:inline"
       inkscape:label="layer-4" />
    <path
       fill="#4444ff"
       d="M 1.8791 -102.006 L -0.383676 -101.614 C -0.605828 -101.083 -0.738976 -100.406 -0.738975 -99.6684 C -0.738975 -97.9656 -0.0295198 -96.5851 0.845638 -96.5851 C 1.72079 -96.5851 2.43025 -97.9656 2.43025 -99.6684 C 2.43025 -100.603 2.21659 -101.44 1.8791 -102.006 Z M -17.4309 -101.95 C -17.8512 -101.95 -18.2542 -101.625 -18.5514 -101.047 C -18.8486 -100.468 -19.0155 -99.6841 -19.0155 -98.8664 C -19.0155 -98.0487 -18.8486 -97.2644 -18.5514 -96.6862 C -18.2542 -96.108 -17.8512 -95.7831 -17.4309 -95.7831 C -17.0106 -95.7831 -16.6076 -96.108 -16.3104 -96.6862 C -16.0132 -97.2644 -15.8463 -98.0487 -15.8463 -98.8664 C -15.8463 -99.6841 -16.0132 -100.468 -16.3104 -101.047 C -16.6076 -101.625 -17.0106 -101.95 -17.4309 -101.95 Z M -46.4308 -79.0998 L -46.8505 -77.8694 C -41.265 -75.8461 -35.8062 -74.1728 -30.3299 -72.9323 L -31.9561 -74.6474 C -36.7391 -75.8213 -41.5292 -77.324 -46.4308 -79.0998 Z M 7.66764 -73.2461 C 4.34 -72.6689 1.1117 -72.2677 -2.04108 -72.03 L -2.89306 -70.6694 C 0.938596 -70.9185 4.87595 -71.4058 8.95861 -72.154 Z M -64.973 -53.5671 C -67.9101 -51.6019 -71.0585 -50.023 -74.3212 -48.8674 L -82.4 -37.0606 L -82.4 -13.3545 L -48.9033 -47.8005 C -54.3504 -49.4565 -59.7034 -51.4005 -64.973 -53.5671 Z M 32.7211 -52.0617 C 28.9546 -47.4577 26.6213 -41.0224 26.6213 -33.904 C 26.6213 -28.1433 28.1495 -22.8301 30.7238 -18.57 L 47.5682 -39.4567 Z M -11.1613 -45.2799 L 1.50597 -18.0879 C 2.92638 -18.1703 4.3504 -18.2905 5.66905 -18.4483 L -7.00191 -45.2707 C -8.37418 -45.2562 -9.73977 -45.2636 -11.1613 -45.2799 Z M -34.8879 -44.1689 C -29.3666 -43.0258 -23.7349 -42.2014 -17.9664 -41.7603 Z M -6.97245 -42.0833 C -6.63623 -42.0833 -6.31379 -41.9459 -6.07605 -41.7014 C -5.83831 -41.4568 -5.70476 -41.1251 -5.70476 -40.7793 C -5.70476 -40.4334 -5.83831 -40.1018 -6.07605 -39.8572 C -6.31379 -39.6127 -6.63623 -39.4753 -6.97245 -39.4753 C -7.30866 -39.4753 -7.6311 -39.6127 -7.86884 -39.8572 C -8.10658 -40.1018 -8.24014 -40.4334 -8.24014 -40.7793 C -8.24014 -41.1251 -8.10658 -41.4568 -7.86884 -41.7014 C -7.6311 -41.9459 -7.30866 -42.0833 -6.97245 -42.0833 Z M -4.12856 -35.9957 C -3.79235 -35.9957 -3.46991 -35.8584 -3.23217 -35.6138 C -2.99443 -35.3693 -2.86087 -35.0376 -2.86087 -34.6917 C -2.86087 -34.3459 -2.99443 -34.0142 -3.23217 -33.7697 C -3.46991 -33.5251 -3.79235 -33.3877 -4.12856 -33.3877 C -4.46477 -33.3877 -4.78722 -33.5251 -5.02495 -33.7697 C -5.26269 -34.0142 -5.39625 -34.3459 -5.39625 -34.6917 C -5.39625 -35.0376 -5.26269 -35.3693 -5.02495 -35.6138 C -4.78722 -35.8584 -4.46477 -35.9957 -4.12856 -35.9957 Z M -1.28492 -29.9082 C -0.948712 -29.9082 -0.62627 -29.7708 -0.388532 -29.5263 C -0.150794 -29.2817 -0.0172347 -28.95 -0.0172347 -28.6042 C -0.0172347 -28.2584 -0.150794 -27.9267 -0.388532 -27.6821 C -0.62627 -27.4376 -0.948712 -27.3002 -1.28492 -27.3002 C -1.62114 -27.3002 -1.94358 -27.4376 -2.18132 -27.6821 C -2.41905 -27.9267 -2.55261 -28.2584 -2.55261 -28.6042 C -2.55261 -28.95 -2.41905 -29.2817 -2.18132 -29.5263 C -1.94358 -29.7708 -1.62114 -29.9082 -1.28492 -29.9082 Z M 1.55896 -23.8204 C 1.89517 -23.8204 2.21761 -23.683 2.45535 -23.4385 C 2.69309 -23.1939 2.82665 -22.8623 2.82665 -22.5164 C 2.82665 -22.1706 2.69309 -21.8389 2.45535 -21.5943 C 2.21761 -21.3498 1.89517 -21.2124 1.55896 -21.2124 C 1.22275 -21.2124 0.900306 -21.3498 0.662568 -21.5943 C 0.42483 -21.8389 0.29127 -22.1706 0.29127 -22.5164 C 0.29127 -22.8623 0.42483 -23.1939 0.662568 -23.4385 C 0.900306 -23.683 1.22275 -23.8204 1.55896 -23.8204 Z M 33.9752 -14.2016 C 33.723 -14.2016 33.4812 -14.0986 33.3029 -13.9152 C 33.1246 -13.7318 33.0244 -13.483 33.0244 -13.2236 C 33.0244 -12.9642 33.1246 -12.7155 33.3029 -12.5321 C 33.4812 -12.3487 33.723 -12.2456 33.9752 -12.2456 C 34.2273 -12.2456 34.4692 -12.3487 34.6475 -12.5321 C 34.8258 -12.7155 34.9259 -12.9642 34.9259 -13.2236 C 34.9259 -13.483 34.8258 -13.7318 34.6475 -13.9152 C 34.4692 -14.0986 34.2273 -14.2016 33.9752 -14.2016 Z M 36.1491 -11.6066 L 31.4098 -10.3747 L 30.7629 -9.05567 L 32.3443 -5.08789 L 28.0368 -2.7929 L 27.6471 -1.4423 L 29.9428 2.72312 L 26.1972 5.85705 L 26.0739 7.25045 L 29.2352 11.0621 L 26.2274 15.5591 L 26.4275 16.8858 L 30.4212 20.0768 L 28.4709 24.9632 L 28.9673 26.2298 L 33.5419 28.3014 L 32.8414 33.7023 L 33.6144 34.7939 L 38.5072 35.7046 L 38.8892 40.9418 L 39.7489 41.8424 L 45.7739 42.422 L 45.4369 45.7391 L 47.5605 43.656 L 47.765 41.6422 L 46.9078 40.5669 L 40.7254 39.9719 L 40.3483 34.8038 L 39.5696 33.9147 L 34.8462 33.0355 L 35.5212 27.8317 L 34.9618 26.8074 L 30.5821 24.8239 L 32.4547 20.132 L 32.1583 18.9882 L 28.3025 15.9073 L 31.2152 11.5524 L 31.1551 10.3635 L 28.1522 6.74259 L 31.7661 3.71894 L 31.9934 2.47786 L 29.7883 -1.52329 L 33.9913 -3.7625 L 34.4335 -5.00181 L 32.938 -8.75463 L 37.1677 -9.85411 C 37.3217 -9.89187 37.4587 -9.96671 37.5713 -10.0675 Z M 29.8119 -6.78768 C 29.5597 -6.78768 29.3179 -6.68464 29.1396 -6.50123 C 28.9613 -6.31782 28.8611 -6.06906 28.8611 -5.80968 C 28.8611 -5.55029 28.9613 -5.30154 29.1396 -5.11813 C 29.3179 -4.93471 29.5597 -4.83168 29.8119 -4.83168 C 30.064 -4.83168 30.3058 -4.93471 30.4842 -5.11813 C 30.6625 -5.30154 30.7626 -5.55029 30.7626 -5.80968 C 30.7626 -6.06906 30.6625 -6.31782 30.4842 -6.50123 C 30.3058 -6.68464 30.064 -6.78768 29.8119 -6.78768 Z M 27.3661 1.32209 C 27.1139 1.32209 26.8721 1.42513 26.6938 1.60854 C 26.5155 1.79195 26.4153 2.0407 26.4153 2.30009 C 26.4153 2.55947 26.5155 2.80823 26.6938 2.99164 C 26.8721 3.17505 27.1139 3.27809 27.3661 3.27809 C 27.6183 3.27809 27.8601 3.17505 28.0384 2.99164 C 28.2167 2.80823 28.3169 2.55947 28.3169 2.30009 C 28.3169 2.0407 28.2167 1.79195 28.0384 1.60854 C 27.8601 1.42513 27.6183 1.32209 27.3661 1.32209 Z M 26.6634 10.1012 C 26.4113 10.1012 26.1694 10.2042 25.9911 10.3876 C 25.8128 10.571 25.7127 10.8198 25.7127 11.0792 C 25.7127 11.3385 25.8128 11.5873 25.9911 11.7707 C 26.1694 11.9541 26.4113 12.0572 26.6634 12.0572 C 26.9156 12.0572 27.1574 11.9541 27.3357 11.7707 C 27.514 11.5873 27.6142 11.3385 27.6142 11.0792 C 27.6142 10.8198 27.514 10.571 27.3357 10.3876 C 27.1574 10.2042 26.9156 10.1012 26.6634 10.1012 Z M 27.9126 19.7368 C 27.6604 19.7368 27.4186 19.8398 27.2403 20.0232 C 27.062 20.2066 26.9618 20.4554 26.9618 20.7148 C 26.9618 20.9741 27.062 21.2229 27.2403 21.4063 C 27.4186 21.5897 27.6604 21.6928 27.9126 21.6928 C 28.1647 21.6928 28.4065 21.5897 28.5848 21.4063 C 28.7631 21.2229 28.8633 20.9741 28.8633 20.7148 C 28.8633 20.4554 28.7631 20.2066 28.5848 20.0232 C 28.4065 19.8398 28.1647 19.7368 27.9126 19.7368 Z M 31.3472 28.8367 C 31.095 28.8367 30.8532 28.9398 30.6749 29.1232 C 30.4966 29.3066 30.3964 29.5554 30.3964 29.8147 C 30.3964 30.0741 30.4966 30.3229 30.6749 30.5063 C 30.8532 30.6897 31.095 30.7927 31.3472 30.7927 C 31.5994 30.7927 31.8412 30.6897 32.0195 30.5063 C 32.1978 30.3229 32.298 30.0741 32.298 29.8147 C 32.298 29.5554 32.1978 29.3066 32.0195 29.1232 C 31.8412 28.9398 31.5994 28.8367 31.3472 28.8367 Z M 36.6292 36.5184 C 36.377 36.5184 36.1352 36.6214 35.9569 36.8048 C 35.7786 36.9882 35.6784 37.237 35.6784 37.4964 C 35.6784 37.7557 35.7786 38.0045 35.9569 38.1879 C 36.1352 38.3713 36.377 38.4744 36.6292 38.4744 C 36.8813 38.4744 37.1231 38.3713 37.3015 38.1879 C 37.4798 38.0045 37.5799 37.7557 37.5799 37.4964 C 37.5799 37.237 37.4798 36.9882 37.3015 36.8048 C 37.1231 36.6214 36.8813 36.5184 36.6292 36.5184 Z M 43.9927 43.3167 C 43.7405 43.3167 43.4987 43.4198 43.3204 43.6032 C 43.1421 43.7866 43.0419 44.0354 43.0419 44.2947 C 43.0419 44.5541 43.1421 44.8029 43.3204 44.9863 C 43.4987 45.1697 43.7405 45.2727 43.9927 45.2727 C 44.5177 45.2727 44.9434 44.8349 44.9434 44.2947 C 44.9434 43.7546 44.5177 43.3167 43.9927 43.3167 Z"
       id="path1977"
       style="display:inline"
       inkscape:label="layer-7" />
    <path
       fill="#000000"
       d="M 47.6035 -39.4268 L 44.3988 -42.0828 C 43.0953 -40.4529 41.8336 -37.5052 41.8336 -33.904 C 41.8336 -33.3926 41.8584 -32.8942 41.9205 -32.4285 Z M 35.9748 -25.0711 C 34.8863 -27.6277 34.2275 -30.6433 34.2275 -33.904 C 34.2275 -39.2638 36.025 -43.9552 38.5446 -47.0482 L 35.6294 -49.5609 C 32.4896 -45.7066 30.4244 -40.1431 30.4244 -33.904 C 30.4244 -29.3732 31.5091 -25.1972 33.3098 -21.7753 M 29.4758 -46.9953 C 20.2971 -44.3074 11.5099 -42.6672 3.04613 -41.8757 L 13.3852 -19.8217 L 9.54748 -19.0011 L -2.80457 -45.3821 C 8.38991 -45.9128 20.1404 -47.9956 32.6939 -52.0734 M -6.98649 -18.2139 L -17.9921 -41.7515 C -23.7349 -42.2013 -29.3665 -43.0257 -34.8735 -44.1531 C -36.9539 -46.2169 -39.2418 -48.0943 -41.6464 -49.7353 C -33.1843 -47.5078 -24.556 -46.0058 -15.5639 -45.4711 L -2.62027 -18.0259 C -4.01986 -18.0299 -5.49346 -18.0923 -6.98649 -18.2139 Z M 29.45 -16.8224 C 15.4 -11.1233 -1.03591 -7.76991 -20.9542 -12.5685 L -21.2975 -16.6762 C -0.969829 -11.4413 15.1946 -15.0199 29.4085 -21.0201 L 30.7194 -18.5737 Z M -82.4822 -7.73942 L -41.6735 -49.7499 C -48.3605 -51.5235 -54.8902 -53.7413 -61.3389 -56.2959 C -62.4632 -55.3547 -63.6369 -54.4733 -64.9181 -53.6039 C -59.7033 -51.4004 -54.3504 -49.4565 -48.9033 -47.8005 L -82.4393 -13.3159 M -42.003 -113.1 L -43.1016 -119.316 L -37.397 -119.968 L -38.0309 -126.488 L -32.4191 -127.129 M -47.641 -104.847 L -48.8062 -110.84 L -42.7767 -111.968 M -52.6793 -97.472 L -53.877 -103.016 L -48.0768 -104.209 M -57.1271 -90.9609 L -58.3139 -95.844 L -52.9544 -97.0691 M -61.59 -84.4281 L -63.3847 -89.976 L -57.378 -90.5939 M 1.33898 -78.6879 C 1.89508 -80.006 2.30141 -81.1899 2.53523 -82.152 C 3.29713 -85.2869 3.60112 -89.8349 3.73006 -93.4185 C 4.18994 -92.7947 4.62658 -91.9938 5.04734 -91.1822 C 8.1287 -85.2387 10.483 -78.6283 11.7704 -69.8085 Z"
       id="path1973"
       style="display:inline"
       inkscape:label="layer-10" />
    <path
       stroke="#4444ff"
       stroke-linecap="round"
       stroke-linejoin="round"
       stroke-width="0.7714300963794452"
       fill="none"
       d="M -20.913 -8.55098 C -2.7696 -4.40141 12.8529 -6.75607 26.1633 -11.419 M -20.9542 -12.5685 C -1.03591 -7.76991 15.4 -11.1233 29.45 -16.8224 M -18.0177 -41.7427 L -6.97907 -18.222 M 13.3852 -19.8217 L 3.04825 -41.8473 M 30.7251 -18.5664 C 28.1494 -22.83 26.6213 -28.1433 26.6213 -33.904 C 26.6213 -41.0224 28.9545 -47.4576 32.7145 -52.0733 M 56.7496 34.2549 C 53.7159 2.3198 42.6709 -1.90448 30.7222 -18.5735 L 47.579 -39.4261 M 82.3997 -9.97177 L 1.314 -78.6609 M -41.6492 -49.742 L -82.3001 -7.92678 M -41.6926 -49.7386 C -29.1799 -41.3437 -20.917 -26.8742 -20.917 -10.432 C -20.917 0.514337 -24.5793 10.5864 -30.7197 18.5737 M -61.3515 -56.2873 C -33.106 -45.1575 -3.55309 -40.2992 32.6939 -52.0734 M 3.04401 -41.9041 C 11.5099 -42.6672 20.2971 -44.3074 29.4758 -46.9953 M -34.8877 -44.1689 C -29.3665 -43.0257 -23.7349 -42.2013 -17.9664 -41.7602 M -64.9939 -53.5484 C -59.7033 -51.4004 -54.3504 -49.4565 -48.9071 -47.7847 M 29.1679 -55.0515 C -4.35122 -44.7572 -31.6218 -49.0284 -58.1565 -59.2235 M 23.8222 -59.5846 C -5.88803 -51.3006 -30.0381 -54.9468 -54.1312 -63.9444 M 20.196 -62.6505 C -7.11358 -55.5958 -29.3433 -58.9528 -51.8783 -67.2603 M 16.5238 -65.7602 C -8.47776 -59.8547 -28.8973 -63.0005 -49.9269 -70.6898 M -13.8035 -66.6882 C -25.6515 -67.2915 -36.8079 -70.0499 -48.2611 -74.2239 M 12.7954 -68.9192 C 6.15803 -67.5122 -0.13391 -66.77 -6.20255 -66.6011 M -15.5425 -45.4664 L -2.66938 -18.0369 M 9.54748 -19.0011 L -2.82768 -45.3696 M -11.2252 -45.266 L 1.53404 -18.0791 M 5.58609 -18.4433 L -7.00371 -45.2691 M -22.0698 -20.9258 C -1.72012 -15.2246 13.8333 -18.6483 28.0244 -24.6635 M -21.2975 -16.6762 C -0.969829 -11.4413 15.1946 -15.0199 29.4085 -21.0201 M -82.4 -37.0637 L -18.6386 -130.4 M -43.376 -94.1674 C -45.8041 -69.1662 -58.6951 -54.5093 -74.3267 -48.8372 M -21.2648 -4.62529 C -13.7855 -2.95596 -6.69334 -2.34971 0.000725974 -2.53013 M -21.0238 -7.24073 C -13.6088 -5.55876 -6.60062 -4.94912 0.00595012 -5.13118 M -21.1231 -5.92836 C -13.6838 -4.25611 -6.64044 -3.64923 0.00378111 -3.83004 M -21.4372 -3.32967 C -13.905 -1.65645 -6.75234 -1.04791 0.00190873 -1.22762 M -0.00103231 2.53013 C -8.69734 2.76452 -16.7217 4.32655 -24.0499 6.61024 M -21.6534 -2.04373 C -14.0517 -0.359511 -6.82473 0.254137 0.00168054 0.0748366 M -0.0019704 -0.074834 C -8.27448 0.142462 -15.9588 1.52426 -23.0089 3.57653 M -0.00624886 5.13119 C -9.25419 5.38603 -17.7152 7.19219 -25.4037 9.77991 M -0.00407984 3.83004 C -8.95713 4.07368 -17.1855 5.74755 -24.6817 8.17223 M -0.00220746 1.22762 C -8.47373 1.45302 -16.3185 2.91846 -23.4995 5.07847 M -21.8964 -0.763608 C -19.7795 -0.295158 -17.6906 0.0914365 -15.6306 0.401958 M -15.5598 0.397655 C -17.9669 0.885299 -20.3103 1.45885 -22.5883 2.10219 M 41.9046 -32.4109 C 41.8584 -32.8942 41.8336 -33.3926 41.8336 -33.904 C 41.8336 -37.5052 43.0953 -40.4529 44.3745 -42.0232 M 35.9748 -25.0711 C 34.8863 -27.6277 34.2275 -30.6433 34.2275 -33.904 C 34.2275 -39.2638 36.025 -43.9552 38.5446 -47.0482 M 33.3098 -21.7753 C 31.5091 -25.1972 30.4244 -29.3732 30.4244 -33.904 C 30.4244 -40.1431 32.4896 -45.7066 35.6294 -49.5609 M 60.1932 30.6755 C 58.4673 16.157 54.8742 7.0726 50.2407 -0.0580684 C 45.7975 -6.89599 40.7173 -11.793 35.5895 -18.4763 L 48.1191 -33.9757 M 48.1336 -33.9315 L 82.3997 -4.90401 M 52.6605 38.415 L 50.0028 36.632 C 41.6227 31.0096 36.129 21.4815 36.129 10.432 C 36.129 4.27951 37.8192 -1.34522 40.7748 -6.14633 M 49.9123 41.2419 L 47.9252 39.9088 C 38.5119 33.5933 32.3259 22.8297 32.3259 10.432 C 32.3259 3.10516 34.4755 -3.6036 38.1865 -9.21719 M 44.4162 46.8955 L 43.7701 46.4619 C 32.2905 38.7601 24.7198 25.526 24.7198 10.432 C 24.7198 0.735443 27.8399 -8.17494 33.1188 -15.3699 M 54.6909 20.8502 C 50.3229 20.5835 46.9044 16.5821 46.9044 11.736 C 46.9044 9.43748 47.6872 7.22357 49.0964 5.53651 M 56.525 -31.9547 C 56.8984 -33.9835 58.2213 -40.0979 60.849 -41.728 C 64.125 -43.7602 65.2507 -43.2495 68.7132 -45.729 C 72.7167 -48.5958 76.463 -45.7048 71.2486 -42.469 C 66.8765 -39.7559 67.1874 -40.424 65.2859 -39.772 C 67.1874 -35.208 66.5536 -31.948 64.0182 -30.644 M 73.5259 -41.3921 C 79.1065 -43.484 82.1334 -40.9828 74.7936 -38.468 C 64.2866 -34.868 65.8287 -38.5068 73.5259 -41.3921 Z M 73.7445 -45.0689 C 78.7564 -46.7698 81.2236 -44.3588 74.3924 -41.9352 C 70.8106 -40.6643 68.6787 -40.2956 67.7464 -40.4773 M 74.3711 -38.3392 C 79.7605 -40.4312 82.6836 -37.93 75.5953 -35.4152 C 65.4486 -31.8152 66.9378 -35.4539 74.3711 -38.3392 Z M 75.633 -35.2356 C 80.487 -37.0828 82.9449 -34.4533 76.5721 -32.2601 C 67.4495 -29.1204 68.938 -32.6878 75.633 -35.2356 Z M 75.1482 -29.196 C 76.3093 -30.4266 77.1438 -31.6019 77.3289 -32.5405 M 67.2177 -22.8328 C 69.0821 -24.019 71.595 -25.8599 73.654 -27.7364 M 72.0143 -31.0721 C 73.7638 -27.3806 76.3586 -24.3827 73.86 -17.2059 M 75.4337 -15.9471 C 77.0426 -20.2656 77.0467 -23.5827 76.2915 -26.2275 C 75.6999 -28.2993 74.7668 -29.8898 74.0133 -31.3584 M 64.652 -62.592 C 62.7505 -69.764 53.8767 -60.636 60.849 -58.68 C 53.8767 -56.724 62.7505 -47.596 64.652 -54.768 C 66.5536 -47.596 75.4274 -56.724 68.4551 -58.68 C 75.4274 -60.636 66.5536 -69.764 64.652 -62.592 Z M 66.7004 -58.68 C 66.7004 -57.5035 65.7833 -56.5498 64.6521 -56.5498 C 64.1088 -56.5498 63.5878 -56.7743 63.2036 -57.1737 C 62.8195 -57.5732 62.6037 -58.115 62.6037 -58.68 C 62.6037 -59.245 62.8195 -59.7868 63.2036 -60.1863 C 63.5878 -60.5857 64.1088 -60.8102 64.6521 -60.8102 C 65.7833 -60.8102 66.7004 -59.8565 66.7004 -58.68 Z M 61.1701 -65.1577 C 56.5697 -74.7768 72.7344 -74.7768 68.134 -65.1577 M 70.9494 -62.2617 C 80.3006 -66.9939 80.3006 -50.3661 70.9494 -55.0983 M 68.134 -52.2023 C 72.7344 -42.5832 56.5697 -42.5832 61.1701 -52.2023 M 58.3547 -55.0983 C 49.0035 -50.3661 49.0035 -66.9939 58.3547 -62.2617 M 60.849 -58.68 L 55.1444 -58.68 M 55.7782 -58.68 C 55.7782 -58.5071 55.7114 -58.3412 55.5926 -58.219 C 55.4737 -58.0967 55.3125 -58.028 55.1444 -58.028 C 54.9763 -58.028 54.815 -58.0967 54.6962 -58.219 C 54.5773 -58.3412 54.5105 -58.5071 54.5105 -58.68 C 54.5105 -58.8529 54.5773 -59.0188 54.6962 -59.141 C 54.815 -59.2633 54.9763 -59.332 55.1444 -59.332 C 55.3125 -59.332 55.4737 -59.2633 55.5926 -59.141 C 55.7114 -59.0188 55.7782 -58.8529 55.7782 -58.68 Z M 64.652 -62.592 L 64.652 -68.46 M 64.652 -67.808 C 64.4839 -67.808 64.3227 -67.8767 64.2038 -67.999 C 64.085 -68.1212 64.0182 -68.2871 64.0182 -68.46 C 64.0182 -68.6329 64.085 -68.7988 64.2038 -68.921 C 64.3227 -69.0433 64.4839 -69.112 64.652 -69.112 C 64.8201 -69.112 64.9814 -69.0433 65.1002 -68.921 C 65.2191 -68.7988 65.2859 -68.6329 65.2859 -68.46 C 65.2859 -68.2871 65.2191 -68.1212 65.1002 -67.999 C 64.9814 -67.8767 64.8201 -67.808 64.652 -67.808 Z M 68.4551 -58.68 L 74.1597 -58.68 M 73.5259 -58.68 C 73.5259 -58.8529 73.5926 -59.0188 73.7115 -59.141 C 73.8304 -59.2633 73.9916 -59.332 74.1597 -59.332 C 74.3278 -59.332 74.489 -59.2633 74.6079 -59.141 C 74.7268 -59.0188 74.7936 -58.8529 74.7936 -58.68 C 74.7936 -58.5071 74.7268 -58.3412 74.6079 -58.219 C 74.489 -58.0967 74.3278 -58.028 74.1597 -58.028 C 73.9916 -58.028 73.8304 -58.0967 73.7115 -58.219 C 73.5926 -58.3412 73.5259 -58.5071 73.5259 -58.68 Z M 64.652 -54.768 L 64.652 -48.9 M 64.652 -49.552 C 64.8201 -49.552 64.9814 -49.4833 65.1002 -49.361 C 65.2191 -49.2388 65.2859 -49.0729 65.2859 -48.9 C 65.2859 -48.7271 65.2191 -48.5612 65.1002 -48.439 C 64.9814 -48.3167 64.8201 -48.248 64.652 -48.248 C 64.4839 -48.248 64.3227 -48.3167 64.2038 -48.439 C 64.085 -48.5612 64.0182 -48.7271 64.0182 -48.9 C 64.0182 -49.0729 64.085 -49.2388 64.2038 -49.361 C 64.3227 -49.4833 64.4839 -49.552 64.652 -49.552 Z M 66.1077 -60.1773 L 67.8213 -61.94 M 68.4551 -61.94 C 68.4551 -61.7671 68.3883 -61.6012 68.2695 -61.479 C 68.1506 -61.3567 67.9894 -61.288 67.8213 -61.288 C 67.6532 -61.288 67.4919 -61.3567 67.3731 -61.479 C 67.2542 -61.6012 67.1874 -61.7671 67.1874 -61.94 C 67.1874 -62.1129 67.2542 -62.2788 67.3731 -62.401 C 67.4919 -62.5233 67.6532 -62.592 67.8213 -62.592 C 67.9894 -62.592 68.1506 -62.5233 68.2695 -62.401 C 68.3883 -62.2788 68.4551 -62.1129 68.4551 -61.94 Z M 66.1072 -57.1832 L 67.8213 -55.42 M 67.8213 -54.768 C 67.6532 -54.768 67.4919 -54.8367 67.3731 -54.959 C 67.2542 -55.0812 67.1874 -55.2471 67.1874 -55.42 C 67.1874 -55.5929 67.2542 -55.7588 67.3731 -55.881 C 67.4919 -56.0033 67.6532 -56.072 67.8213 -56.072 C 67.9894 -56.072 68.1506 -56.0033 68.2695 -55.881 C 68.3883 -55.7588 68.4551 -55.5929 68.4551 -55.42 C 68.4551 -55.2471 68.3883 -55.0812 68.2695 -54.959 C 68.1506 -54.8367 67.9894 -54.768 67.8213 -54.768 Z M 63.1969 -60.1768 L 61.4828 -61.94 M 60.849 -61.94 C 60.849 -61.7671 60.9157 -61.6012 61.0346 -61.479 C 61.1535 -61.3567 61.3147 -61.288 61.4828 -61.288 C 61.6509 -61.288 61.8121 -61.3567 61.931 -61.479 C 62.0499 -61.6012 62.1167 -61.7671 62.1167 -61.94 C 62.1167 -62.1129 62.0499 -62.2788 61.931 -62.401 C 61.8121 -62.5233 61.6509 -62.592 61.4828 -62.592 C 61.3147 -62.592 61.1535 -62.5233 61.0346 -62.401 C 60.9157 -62.2788 60.849 -62.1129 60.849 -61.94 Z M 63.1964 -57.1827 L 61.4828 -55.42 M 61.4828 -54.768 C 61.6509 -54.768 61.8121 -54.8367 61.931 -54.959 C 62.0499 -55.0812 62.1167 -55.2471 62.1167 -55.42 C 62.1167 -55.5929 62.0499 -55.7588 61.931 -55.881 C 61.8121 -56.0033 61.6509 -56.072 61.4828 -56.072 C 61.3147 -56.072 61.1535 -56.0033 61.0346 -55.881 C 60.9157 -55.7588 60.849 -55.5929 60.849 -55.42 C 60.849 -55.2471 60.9157 -55.0812 61.0346 -54.959 C 61.1535 -54.8367 61.3147 -54.768 61.4828 -54.768 Z M 65.9393 -45.1719 L 66.4357 -44.3207 M 67.9423 -46.3019 L 68.399 -45.5189 M 62.054 -42.4173 C 58.0318 -44.8035 53.607 -45.8484 48.8059 -45.64 M 62.0681 -42.4239 C 56.2557 -47.6775 50.4133 -51.4231 44.369 -44.988 C 49.3982 -44.3413 51.3099 -39.2052 61.8534 -42.3015 M 72.2582 -46.944 C 74.3754 -49.9654 76.7592 -52.3514 80.4982 -51.508 C 80.0335 -48.5933 77.2382 -47.0343 74.1597 -45.64 M 1.3895 -130.376 C 17.0067 -108.309 31.1057 -93.9529 32.7085 -52.066 M -0.97763 -127.079 C 14.0246 -106.048 26.5959 -93.1016 28.7411 -55.4365 M 4.155 -100.257 C 10.13 -91.0775 14.3555 -81.5622 16.3623 -65.935 M 3.73772 -93.5889 C 4.18994 -92.7947 4.62658 -91.9938 5.04734 -91.1822 C 8.1287 -85.2387 10.483 -78.6283 11.984 -69.6331 M -82.3999 -53.9656 L -30.1849 -130.4 M -2.08938 -130.395 C -0.460546 -125.6 5.07061 -109.152 5.07061 -106.928 C 5.07061 -104.32 3.80292 -99.104 3.80292 -97.8 C 3.80292 -96.496 3.80292 -87.368 2.53523 -82.152 C 1.26754 -76.936 -5.07091 -65.2 -8.87398 -65.2 C -12.6771 -65.2 -17.7926 -69.7108 -21.5509 -69.112 C -30.5376 -67.68 -39.6369 -85.6203 -38.0309 -86.064 C -38.0309 -86.064 -38.7087 -84.6615 -39.2985 -84.76 C -41.5665 -85.1386 -42.9509 -88.912 -43.6879 -91.8129 M -61.59 -84.4281 C -65.8586 -89.4842 -73.3518 -89.9353 -81.1323 -89.976 C -78.0014 -91.4497 -74.1197 -91.774 -72.2585 -95.192 C -69.7852 -93.5178 -66.6432 -93.7092 -63.3393 -94.3524 M -67.4546 -88.3315 C -57.8751 -102.354 -48.2956 -116.377 -38.716 -130.4 M -67.4546 -88.3315 Z M -76.0366 -89.8202 C -75.8517 -89.8946 -75.6658 -89.972 -75.4795 -90.0529 C -74.1643 -90.6242 -72.7855 -91.4395 -71.6724 -92.706 C -69.5064 -91.8143 -67.1587 -91.8081 -64.8591 -92.1174 M -70.9908 -118.664 C -64.6523 -112.144 -71.8498 -102.436 -67.2191 -99.188 C -60.8145 -94.6951 -57.5718 -102.828 -61.1835 -105.288 C -64.4803 -107.534 -67.2856 -102.792 -64.6523 -101.712 C -62.9378 -101.009 -62.117 -101.712 -62.117 -103.016 M -70.9908 -118.664 C -63.8636 -113.138 -57.1085 -122.246 -53.0333 -118.009 C -48.3709 -113.16 -54.5492 -108.357 -57.1418 -111.165 C -59.9726 -114.231 -55.7257 -118.029 -54.1628 -115.212 C -53.1451 -113.379 -54.2 -112.606 -55.4178 -113.012 M -58.3139 -101.712 C -56.1537 -105.489 -60.6589 -107.995 -63.3847 -110.84 C -59.9432 -109.462 -56.3943 -106.422 -53.2431 -109.536 M -48.1569 -116.565 C -48.7139 -121.738 -52.0724 -125.985 -54.9452 -130.393 M -46.6074 -118.844 C -47.6346 -123.248 -50.3019 -126.939 -52.646 -130.411 M -42.003 -113.1 L -43.1016 -119.316 L -37.397 -119.968 L -38.0309 -126.488 L -32.4191 -127.129 M -47.641 -104.847 L -48.8062 -110.84 L -42.7767 -111.968 M -52.6793 -97.472 L -53.877 -103.016 L -48.0768 -104.209 M -57.1271 -90.9609 L -58.3139 -95.844 L -52.9544 -97.0691 M -61.59 -84.4281 L -63.3847 -89.976 L -57.378 -90.5939 M -61.59 -84.4281 Z M -29.932 -113.844 C -19.639 -116.458 -14.4866 -123.191 -9.92184 -130.395 M -16.7881 -130.391 C -18.8633 -127.35 -20.9923 -124.786 -23.8158 -122.821 M -14.4878 -130.389 C -17.6317 -125.637 -20.9218 -121.69 -26.2431 -119.238 M -12.1998 -130.391 C -16.1414 -124.289 -20.3971 -119.004 -28.2135 -116.378 M 2.62604 -115.993 C -2.76833 -119.538 -6.25979 -124.813 -9.41156 -130.396 M -2.73002 -130.391 C -2.29108 -129.677 -1.84795 -128.989 -1.39425 -128.328 M -4.96802 -130.384 C -3.34642 -127.652 -1.66551 -125.176 0.346582 -123.07 M -7.1889 -130.377 C -4.70834 -126.081 -2.0615 -122.184 1.59938 -119.234 M -39.2985 -95.844 C -38.0309 -88.672 -41.2001 -89.976 -39.2985 -92.584 M -28.5232 -104.32 C -24.3943 -107.167 -20.2409 -109.963 -12.0432 -104.32 C -12.3096 -104.457 -11.7405 -103.629 -11.9865 -103.8 C -16.4801 -106.928 -22.0871 -108.466 -28.5232 -104.32 Z M -5.70476 -104.972 C -1.71921 -109.859 1.90138 -107.58 5.07061 -106.276 C 1.90138 -106.928 -2.53553 -108.884 -5.70476 -104.32 L -5.70476 -104.972 Z M -5.70476 -104.972 C -6.97245 -93.236 -3.05372 -92.5047 -3.16938 -85.412 C -3.16938 -84.108 -6.97245 -84.76 -6.97245 -82.804 M -11.4094 -88.672 C -14.1123 -88.654 -18.0265 -84.1797 -12.6771 -84.108 C -11.7678 -84.0958 -10.4888 -85.4598 -9.88294 -85.4179 C -4.98739 -85.0794 -9.99408 -84.7295 -11.4094 -84.76 M -15.8463 -79.544 L -15.8463 -78.24 L -15.2124 -78.892 L -15.8463 -79.544 Z M -2.53553 -79.544 L -2.53553 -78.24 L -3.16938 -78.892 L -2.53553 -79.544 Z M -3.16938 -78.892 C -3.80322 -78.892 -6.3386 -79.544 -6.97245 -79.544 C -7.60629 -79.544 -8.24014 -78.892 -8.87398 -78.892 C -9.50783 -78.892 -10.7755 -79.544 -11.4094 -79.544 C -11.4094 -79.544 -10.7755 -79.544 -11.4094 -79.544 C -12.0432 -79.544 -13.9447 -78.892 -15.2124 -78.892 M -11.4094 -76.284 C -10.7755 -74.328 -6.3386 -74.328 -6.3386 -76.284 M -27.2555 -98.452 C -23.6369 -97.1458 -21.0061 -101.712 -17.7478 -101.712 C -13.9447 -101.712 -12.0772 -97.3904 -11.4094 -97.8 M -23.4524 -99.104 C -20.6073 -91.932 -12.6771 -99.104 -11.4094 -97.8 M 4.43676 -101.06 C 0.30655 -104.005 -3.80322 -99.104 -5.70476 -98.452 C -3.80322 -98.452 2.53523 -93.888 4.155 -100.257 M -38.1349 -85.8664 C -38.1464 -85.8701 -38.1578 -85.8738 -38.1693 -85.8775 M -37.9417 -84.4389 C -38.3052 -84.5553 -38.6696 -84.6735 -39.0349 -84.7936 M -30.33 -72.9323 C -35.8062 -74.1728 -41.2649 -75.8462 -46.8504 -77.8695 M -41.9592 -87.1643 C -42.6297 -87.4009 -43.304 -87.6433 -43.9826 -87.8914 M -40.3445 -85.2306 C -41.6848 -85.6844 -43.038 -86.1621 -44.4072 -86.6628 M -37.3287 -82.8831 C -39.7606 -83.6408 -42.2232 -84.4818 -44.7354 -85.3989 M -36.5317 -81.2804 C -39.323 -82.1214 -42.1469 -83.0725 -45.0305 -84.1228 M -35.6008 -79.6517 C -38.8019 -80.5787 -42.0354 -81.6511 -45.3398 -82.8523 M -34.5434 -78.0037 C -38.2075 -79.0169 -41.9011 -80.2215 -45.6782 -81.5924 M -33.3482 -76.3386 C -37.5345 -77.4353 -41.7424 -78.7828 -46.0474 -80.3437 M -31.956 -74.6475 C -36.739 -75.8214 -41.5292 -77.3241 -46.4307 -79.0999 M 8.95872 -72.154 C 4.87607 -71.4058 0.938558 -70.9185 -2.8931 -70.6694 M 2.41376 -77.7099 C 1.88665 -77.6414 1.36225 -77.5776 0.840439 -77.5185 M 3.76056 -76.5809 C 2.5534 -76.4097 1.36024 -76.2629 0.179593 -76.1399 M 5.06513 -75.4581 C 3.17972 -75.1702 1.32776 -74.9407 -0.495938 -74.7673 M 6.39795 -74.3517 C 3.78733 -73.9247 1.23938 -73.6079 -1.2584 -73.3949 M 7.66775 -73.246 C 4.34011 -72.6688 1.11163 -72.2676 -2.04115 -72.0299 M -55.7075 -58.3196 L -53.8034 -64.3914 M -44.8202 -73.0209 L -50.5224 -56.4907 M -40.3425 -71.571 L -45.0856 -54.7655 M -35.2515 -70.1157 L -39.3682 -53.1772 M -30.6389 -69.0061 L -33.2605 -51.7469 M -27.6346 -50.6793 C -27.0847 -56.4002 -26.8223 -62.4167 -26.2882 -68.1538 M -22.1197 -49.9363 L -21.6341 -67.4211 M -16.5324 -49.4247 L -17.0328 -66.9268 M -10.9609 -49.169 L -12.9851 -66.3471 M -5.54645 -49.1802 L -8.9544 -65.2056 M 0.225596 -49.4692 L -5.51133 -66.6365 M 5.07429 -49.9226 L -1.30199 -66.8664 M 10.8743 -50.7307 L 3.34219 -67.3333 M 16.7935 -51.8396 L 7.41386 -67.9201 M 23.6319 -53.4737 L 11.1062 -68.599 M -51.2199 -82.706 C -51.0234 -77.8041 -51.4439 -72.4471 -52.0774 -66.9328 M -49.3019 -85.5096 C -49.1483 -80.7381 -49.561 -75.5487 -50.1737 -70.2118 M -47.406 -88.2852 C -47.2568 -84.0294 -47.5634 -79.4372 -48.0643 -74.7017 M -53.3005 -79.6585 C -53.0872 -74.7844 -53.4927 -69.4537 -54.1169 -63.9616 M -55.1951 -76.8872 C -55.0008 -72.1302 -55.3893 -66.9431 -55.9907 -61.5988 M -57.09 -74.111 C -56.9184 -69.5818 -57.2689 -64.6672 -57.8244 -59.6014 M -58.9854 -71.3348 C -58.8374 -67.1034 -59.1398 -62.5395 -59.6357 -57.833 M -60.881 -68.5486 C -60.7573 -64.675 -61.0064 -60.5263 -61.4324 -56.247 M -62.7988 -65.7432 C -62.662 -62.3046 -62.8284 -58.6422 -63.1587 -54.8588 M -64.7201 -62.9338 C -64.5792 -59.9889 -64.6677 -56.8747 -64.8967 -53.6567 M -66.6142 -60.1657 C -66.504 -57.7143 -66.551 -55.147 -66.7043 -52.5012 M -68.9488 -56.7491 C -68.8932 -54.9522 -68.9174 -53.0964 -69.0021 -51.1961 M -70.8453 -53.9712 C -70.8116 -52.7707 -70.813 -51.5442 -70.844 -50.2959 M -45.5103 -91.0542 C -45.3907 -87.8926 -45.5254 -84.5432 -45.8067 -81.0858 M 56.7496 34.2549 C 53.7159 2.3198 42.6709 -1.90448 30.7222 -18.5735 L 47.579 -39.4261 M 48.6759 17.3906 L 41.3117 22.9415 C 40.2894 23.9454 40.2624 25.6153 41.2517 26.6536 C 42.241 27.692 43.8646 27.6979 44.861 26.6668 L 50.9672 19.6042 M 46.4851 1.21921 L 42.5457 -1.74206 C 42.1374 -2.05813 41.6459 -2.23994 41.1354 -2.26366 C 40.0115 -2.31606 38.9884 -1.60038 38.6227 -0.50594 C 38.257 0.588508 38.6361 1.79996 39.5538 2.46945 L 47.7672 7.66949 M 47.7672 7.66949 L 40.2116 4.07831 C 39.9691 4.00055 39.7166 3.96072 39.4626 3.96013 C 38.1952 3.95726 37.1203 4.91755 36.9456 6.20888 C 36.7709 7.5002 37.5501 8.72589 38.7701 9.0791 L 46.9317 10.9927 M 46.9317 10.9927 L 39.1774 10.3877 C 37.7685 10.4747 36.6999 11.7284 36.8002 13.1766 C 36.9006 14.6249 38.1312 15.71 39.5379 15.5907 L 47.2113 14.2041 M 47.2113 14.2041 L 39.4423 16.2883 C 38.1326 16.8381 37.5134 18.384 38.0666 19.7232 C 38.6199 21.0625 40.1314 21.6771 41.4253 21.0889 L 48.6759 17.3906 M 50.9672 19.6042 L 45.0318 29.2442 C 44.4216 30.5571 44.9738 32.1297 46.2587 32.7384 C 47.5437 33.3472 49.0644 32.7565 49.6376 31.4261 L 53.3502 20.645 M 53.3502 20.645 L 50.159 34.3077 C 49.9728 35.7509 50.9713 37.0715 52.3769 37.2413 C 53.7826 37.411 55.0513 36.3642 55.1951 34.9159 L 55.9969 27.889 M 62.7505 -5.868 C 64.0182 -1.304 58.3136 1.956 57.0459 -7.172 C 55.7782 1.956 50.0736 -1.304 51.3413 -5.868 C 46.9044 -4.564 43.7352 -10.432 52.609 -11.736 C 43.7352 -13.04 46.9044 -18.908 51.3413 -17.604 C 50.0736 -22.168 55.7782 -25.428 57.0459 -16.3 C 58.3136 -25.428 64.0182 -22.168 62.7505 -17.604 C 67.1874 -18.908 70.3566 -13.04 61.4828 -11.736 C 70.3566 -10.432 67.1874 -4.564 62.7505 -5.868 Z M 78.5979 11.9238 C 77.3302 2.7958 71.6256 6.0558 72.8933 10.6198 C 68.4564 9.3158 65.2872 15.1838 74.161 16.4878 M 68.518 12.9091 C 66.0001 12.0024 63.7854 10.7844 62.0003 9.11298 C 58.7848 6.1022 56.7555 1.56509 56.7938 -5.8285 M 54.4947 -1.63827 C 55.1544 4.06455 57.2215 8.16518 60.2936 11.0417 C 63.8039 14.3285 68.4471 15.9697 73.5086 16.9304 M 80.3255 9.98023 C 79.4503 5.10273 78.0529 0.498923 75.3697 -3.25847 C 73.1643 -6.34678 70.0754 -8.77937 65.8478 -10.2323 M 66.8239 -7.1013 C 69.6498 -5.80976 71.7243 -3.9582 73.3266 -1.71456 C 75.1688 0.865165 76.3731 4.04018 77.2156 7.55019 M 36.3058 -17.5534 C 36.6773 -17.1275 37.0674 -16.7241 37.4752 -16.3423 C 40.6371 -13.3817 44.7181 -11.7563 49.196 -10.7607 M 47.5088 -13.8897 C 44.2379 -14.8382 41.3832 -16.2098 39.1819 -18.271 C 38.4705 -18.9371 37.8172 -19.6778 37.2316 -20.5077 M 47.0648 -32.6691 C 48.4215 -31.6433 49.5494 -30.4411 50.5081 -29.0986 C 51.9433 -27.0888 52.9913 -24.7178 53.7828 -22.1086 M 57.3907 -18.0343 C 56.5903 -22.2485 55.3711 -26.2377 53.2331 -29.6268 M 48.1721 -22.82 C 48.1721 -22.3012 47.9717 -21.8037 47.6151 -21.4369 C 47.2585 -21.0701 46.7749 -20.864 46.2705 -20.864 C 45.7662 -20.864 45.2826 -21.0701 44.9259 -21.4369 C 44.5693 -21.8037 44.369 -22.3012 44.369 -22.82 C 44.369 -23.3388 44.5693 -23.8363 44.9259 -24.2031 C 45.2826 -24.5699 45.7662 -24.776 46.2705 -24.776 C 46.7749 -24.776 47.2585 -24.5699 47.6151 -24.2031 C 47.9717 -23.8363 48.1721 -23.3388 48.1721 -22.82 Z M 68.4551 2.608 C 68.4551 3.12676 68.2548 3.62428 67.8982 3.9911 C 67.5416 4.35792 67.0579 4.564 66.5536 4.564 C 66.0493 4.564 65.5656 4.35792 65.209 3.9911 C 64.8524 3.62428 64.652 3.12676 64.652 2.608 C 64.652 2.08924 64.8524 1.59172 65.209 1.2249 C 65.5656 0.858078 66.0493 0.652 66.5536 0.652 C 67.0579 0.652 67.5416 0.858078 67.8982 1.2249 C 68.2548 1.59172 68.4551 2.08924 68.4551 2.608 Z M 64.652 19.56 C 64.652 20.0788 64.4517 20.5763 64.0951 20.9431 C 63.7385 21.3099 63.2548 21.516 62.7505 21.516 C 62.2462 21.516 61.7625 21.3099 61.4059 20.9431 C 61.0493 20.5763 60.849 20.0788 60.849 19.56 C 60.849 19.0412 61.0493 18.5437 61.4059 18.1769 C 61.7625 17.8101 62.2462 17.604 62.7505 17.604 C 63.2548 17.604 63.7385 17.8101 64.0951 18.1769 C 64.4517 18.5437 64.652 19.0412 64.652 19.56 Z M 73.6348 16.3859 L 73.2213 16.87 M 78.3946 10.8125 L 73.6348 16.3859 M 80.0986 8.81734 L 78.3946 10.8125 M 82.3998 6.12279 L 80.0986 8.81734 M 71.0932 16.3982 L 60.0099 29.3758 M 82.3996 3.15928 L 79.578 6.46316 M 69.0469 15.8306 L 59.6511 26.8323 M 76.9488 6.57803 L 76.6795 6.89339 M 82.3996 0.195574 L 78.9489 4.23615 M 61.8571 21.2856 L 59.2446 24.3446 M 67.0933 15.1544 L 64.298 18.4274 M 72.8079 8.46308 L 71.0828 10.4829 M 76.295 4.37991 L 74.794 6.13746 M 82.3997 -2.76816 L 78.2122 2.13499 M 60.8518 19.4989 L 58.7837 21.9206 M 65.2432 14.357 L 62.4479 17.6301 M 75.5322 2.30946 L 67.0034 12.296 M 81.9895 -5.25152 L 77.3636 0.164969 M 63.5056 13.4279 L 58.2694 19.5591 M 74.6302 0.401919 L 65.2213 11.419 M 80.5209 -6.49567 L 76.3965 -1.66624 M 61.8894 12.3567 L 57.7049 17.2564 M 73.5805 -1.3327 L 63.5736 10.3846 M 79.0523 -7.73971 L 75.3011 -3.34742 M 60.4025 11.134 L 57.0724 15.0333 M 66.0703 4.49744 L 62.0755 9.17513 M 72.3793 -2.88981 L 68.3135 1.87084 M 77.5837 -8.98375 L 74.0676 -4.86671 M 59.0597 9.74267 L 56.4037 12.8526 M 64.7182 3.11699 L 60.7453 7.76888 M 71.051 -4.29816 L 66.8066 0.671677 M 76.1151 -10.2279 L 72.7105 -6.24129 M 57.8714 8.17039 L 55.6467 10.7753 M 69.5604 -5.51653 L 59.5946 6.15268 M 74.6465 -11.4719 L 71.2198 -7.45954 M 56.8357 6.41944 L 54.8624 8.73001 M 67.9143 -6.55271 L 58.6283 4.32036 M 73.1778 -12.716 L 69.5904 -8.51538 M 55.9591 4.48219 L 53.9906 6.78706 M 61.0172 -1.4405 L 57.8578 2.25896 M 64.7022 -5.75535 L 62.8078 -3.53711 M 71.7093 -13.9601 L 67.8366 -9.4255 M 55.2489 2.35002 L 53.0769 4.89325 M 59.0274 -2.07424 L 57.2925 -0.042839 M 65.9583 -10.1898 L 65.9341 -10.1615 M 70.2407 -15.2041 L 65.9583 -10.1898 M 54.74 -0.0177292 L 52.1107 3.06092 M 57.94 -3.76466 L 56.9401 -2.59391 M 68.772 -16.4482 L 64.1875 -11.0801 M 53.3753 -1.38353 L 51.0739 1.31126 M 56.807 -5.40172 L 56.6465 -5.2138 M 57.2705 -5.94445 L 56.807 -5.40172 M 62.362 -11.9062 L 62.1127 -11.6143 M 67.3035 -17.6923 L 66.5226 -16.778 M 51.7605 -2.4564 L 50.0058 -0.401794 M 65.8349 -18.9363 L 64.7816 -17.7031 M 51.1781 -4.73809 L 48.8809 -2.0483 M 64.3663 -20.1805 L 62.9097 -18.4749 M 49.4997 -5.73654 L 47.717 -3.64912 M 62.8976 -21.4244 L 62.4204 -20.8657 M 47.6875 -6.57829 L 46.5275 -5.22003 M 52.1656 -11.8218 L 51.99 -11.6162 M 57.3341 -17.8737 L 56.8597 -17.3183 M 61.4291 -22.6686 L 60.9139 -22.0654 M 47.1113 -8.8673 L 45.3049 -6.75209 M 48.2939 -10.252 L 47.1113 -8.8673 M 48.809 -10.8552 L 48.2939 -10.252 M 59.9605 -23.9127 L 56.8876 -20.3145 M 46.7407 -11.397 L 44.061 -8.25928 M 58.4919 -25.1568 L 56.3051 -22.5962 M 44.7602 -12.0418 L 42.8068 -9.7544 M 47.071 -14.7475 L 46.5989 -14.1946 M 51.2334 -19.6213 L 49.644 -17.7602 M 53.6625 -22.4656 L 53.34 -22.088 M 57.0233 -26.4008 L 55.5945 -24.7278 M 42.8768 -12.8001 L 41.544 -11.2394 M 52.916 -24.5552 L 44.6565 -14.884 M 55.5546 -27.6448 L 54.7774 -26.7348 M 41.1163 -13.7023 L 40.2812 -12.7245 M 52.043 -26.4967 L 42.84 -15.7207 M 54.0861 -28.889 L 53.8361 -28.5963 M 39.4743 -14.7434 L 39.0238 -14.2159 M 45.0746 -21.301 L 41.1597 -16.7168 M 51.0329 -28.2776 L 47.5802 -24.2348 M 37.9571 -15.9305 L 37.7783 -15.7212 M 44.5528 -23.6536 L 39.6269 -17.8857 M 45.2499 -24.4699 L 44.5528 -23.6536 M 49.8907 -29.9038 L 45.2499 -24.4699 M 36.5745 -17.2753 L 36.5557 -17.2533 M 48.5862 -31.3401 L 38.2488 -19.2358 M -48.8996 -47.8163 L -82.3999 -13.3564"
       id="path1969"
       style="display:inline"
       inkscape:label="layer-16" />
    <path
       stroke="#4444ff"
       stroke-linecap="round"
       stroke-linejoin="round"
       stroke-width="0.3857150481897226"
       fill="none"
       d="M 69.7228 -39.772 C 70.282 -38.9657 70.6037 -38.1164 70.3566 -37.164 M 70.2724 -36.5143 C 70.8316 -35.708 71.1533 -34.8587 70.9062 -33.9063 M 71.7723 -33.5176 C 72.3315 -32.7113 72.6532 -31.8619 72.4061 -30.9096 M 69.089 -45.64 C 69.2195 -43.6767 74.1861 -45.6322 73.5259 -46.292 M -12.6771 -71.068 C -10.7345 -72.0537 -8.8001 -72.9307 -6.97245 -72.372 M -13.3109 -95.192 C -14.3608 -93.8166 -16.3475 -93.4995 -18.3817 -93.236 M -0.633995 -94.54 C 1.48016 -94.2531 1.88557 -94.7808 2.53523 -95.192 M -25.9878 -101.06 C -22.8186 -101.06 -19.8266 -106.589 -14.5786 -101.06 M -5.95753 -100.655 C -4.43707 -101.06 -0.317073 -107.254 4.43676 -101.712 M -15.5274 -101.159 C -15.3267 -100.645 -15.2124 -100.053 -15.2124 -99.4241 C -15.2124 -97.4404 -16.3476 -95.8322 -17.7478 -95.8322 C -19.1481 -95.8322 -20.2832 -97.4404 -20.2832 -99.4241 C -20.2832 -100.013 -20.1832 -100.569 -20.006 -101.059 M 2.99612 -101.715 C 3.10778 -101.31 3.16907 -100.869 3.16907 -100.408 C 3.16907 -98.4243 2.03395 -96.8161 0.633695 -96.8161 C -0.766556 -96.8161 -1.90169 -98.4243 -1.90169 -100.408 C -1.90169 -100.578 -1.89334 -100.745 -1.87721 -100.909 M 15.7335 -53.6017 C 17.873 -54.0437 20.0379 -54.5468 22.2299 -55.1136 M -5.96699 -51.0914 C -4.13583 -51.1329 -2.28836 -51.2187 -0.423176 -51.3506 M -16.5931 -51.343 C -14.809 -51.218 -13.0111 -51.1337 -11.1981 -51.092 M -27.4714 -52.6163 C -25.6825 -52.3237 -23.8821 -52.0697 -22.0685 -51.8567 M -38.9184 -55.0289 C -36.9481 -54.523 -34.9674 -54.0598 -32.974 -53.6427 M -49.8964 -58.2994 C -48.1255 -57.7021 -46.3494 -57.1351 -44.5663 -56.601 M 15.0445 -54.7888 C 17.1089 -55.2083 19.1975 -55.6854 21.3123 -56.2222 M -6.23993 -52.3811 C -4.45816 -52.4181 -2.6607 -52.4975 -0.84613 -52.6212 M -16.6296 -52.6425 C -14.8834 -52.5183 -13.124 -52.4335 -11.3499 -52.3902 M -27.3621 -53.9101 C -25.5968 -53.6195 -23.8205 -53.3671 -22.0315 -53.155 M -38.6118 -56.2895 C -36.6778 -55.7921 -34.7343 -55.3364 -32.7792 -54.9256 M -49.4721 -59.528 C -47.7239 -58.9383 -45.9715 -58.3784 -44.213 -57.851 M -37.3848 -61.3314 C -39.1949 -61.8001 -40.9992 -62.3074 -42.8003 -62.8506 M -26.9795 -59.0952 C -28.6609 -59.3801 -30.3334 -59.7016 -31.9988 -60.0574 M -16.7752 -57.8412 C -18.4912 -57.9711 -20.1944 -58.1412 -21.8866 -58.3496 M -7.32839 -57.5436 C -8.88335 -57.5239 -10.4256 -57.5382 -11.9565 -57.585 M 12.2915 -59.551 C 10.5945 -59.2296 8.91607 -58.9487 7.25473 -58.7068 M 10.8913 -61.9185 C 12.5048 -62.2133 14.1353 -62.5456 15.7842 -62.9168 M -7.88191 -60.1014 C -6.39653 -60.114 -4.89942 -60.1584 -3.38931 -60.236 M -16.8532 -60.413 C -15.3346 -60.2946 -13.8059 -60.2087 -12.2655 -60.1568 M -26.7979 -61.6584 C -25.147 -61.3746 -23.4877 -61.127 -21.8177 -60.9177 M -36.7795 -63.8222 C -35.0634 -63.3755 -33.3422 -62.9647 -31.6137 -62.5921 M -46.938 -66.8789 C -45.3275 -66.3323 -43.7167 -65.8133 -42.1038 -65.324 M -35.552 -68.8676 C -37.2658 -69.3168 -38.9777 -69.8039 -40.691 -70.3264 M -26.3965 -66.8495 C -27.8801 -67.1124 -29.3579 -67.4065 -30.8321 -67.73 M -17.0003 -65.6225 C -18.5672 -65.7528 -20.1234 -65.9198 -21.6711 -66.1218 M -9.88545 -65.2897 C -10.888 -65.3001 -11.885 -65.3258 -12.877 -65.3664 M 8.0954 -66.717 C 6.67685 -66.4813 5.27325 -66.2759 3.88336 -66.1 M 14.3567 -55.9772 C 16.346 -56.3748 18.3587 -56.8263 20.3963 -57.3339 M -6.51246 -53.6709 C -4.78003 -53.7036 -3.03252 -53.7768 -1.26852 -53.8924 M -16.6661 -53.9418 C -14.9579 -53.8184 -13.2369 -53.7333 -11.5018 -53.6884 M -27.2553 -55.2041 C -25.5129 -54.9155 -23.7601 -54.6645 -21.995 -54.4533 M -38.3048 -57.5498 C -36.4071 -57.0609 -34.5009 -56.6127 -32.5839 -56.2083 M -49.0483 -60.7564 C -47.3228 -60.1742 -45.594 -59.6216 -43.8601 -59.1008 M -37.6915 -60.071 C -39.5179 -60.5431 -41.3377 -61.054 -43.1535 -61.6008 M -32.1938 -58.7745 C -34.0346 -59.1661 -35.8663 -59.5992 -37.6915 -60.071 M -27.0716 -57.7982 C -28.788 -58.0868 -30.4948 -58.413 -32.1938 -58.7745 M -16.7389 -56.5414 C -18.4792 -56.6711 -20.2064 -56.8416 -21.9222 -57.0508 M -7.05658 -56.2524 C -8.65218 -56.2288 -10.2346 -56.2405 -11.8052 -56.286 M 12.9837 -58.3592 C 11.2399 -58.0227 9.51517 -57.7285 7.80801 -57.475 M 10.1905 -63.115 C 11.726 -63.3893 13.2775 -63.698 14.8462 -64.0422 M -8.15711 -61.3963 C -6.72166 -61.4051 -5.27509 -61.4441 -3.81615 -61.5144 M -16.8898 -61.715 C -15.4095 -61.5978 -13.9195 -61.5119 -12.4184 -61.4586 M -26.7069 -62.9575 C -25.0737 -62.6744 -23.4324 -62.4274 -21.781 -62.2184 M -36.4726 -65.0834 C -34.7927 -64.6455 -33.1087 -64.2424 -31.4182 -63.8764 M -46.5144 -68.1078 C -44.9265 -67.5688 -43.3393 -67.0571 -41.7508 -66.5746 M -47.7755 -64.4418 C -49.3799 -64.9834 -50.9837 -65.5516 -52.5889 -66.1443 M -45.243 -71.7945 C -46.4232 -72.1951 -47.6054 -72.6115 -48.7907 -73.0426 M -48.1999 -63.2135 C -49.9156 -63.7926 -51.6298 -64.4017 -53.3446 -65.0384 M -45.6667 -70.5654 C -46.8902 -70.9807 -48.1152 -71.4126 -49.343 -71.8603 M -35.8589 -67.6061 C -37.5892 -68.0587 -39.3166 -68.5495 -41.0445 -69.0757 M -26.5034 -65.5525 C -28.0171 -65.8188 -29.5245 -66.1169 -31.0276 -66.4453 M -16.9636 -64.3198 C -18.5554 -64.45 -20.136 -64.6175 -21.7078 -64.8204 M -8.70619 -63.9878 C -10.0553 -63.9859 -11.3943 -64.0115 -12.7244 -64.0635 M 4.36589 -51.788 C 6.2322 -51.9967 8.1168 -52.2519 10.021 -52.5556 M 3.89444 -53.0421 C 5.7332 -53.2431 7.59016 -53.4898 9.46671 -53.784 M 2.00486 -58.0651 C 0.479242 -57.9146 -1.03261 -57.7971 -2.53183 -57.7114 M 1.06745 -60.5587 C 2.73677 -60.7145 4.42286 -60.9109 6.12733 -61.1495 M -0.832534 -65.6106 C -2.26593 -65.4949 -3.68569 -65.4106 -5.09328 -65.3567 M 3.42245 -54.2966 C 5.23408 -54.49 7.0638 -54.7282 8.91309 -55.0132 M 2.47777 -56.8084 C 0.934764 -56.6519 -0.594485 -56.5287 -2.11105 -56.4377 M 0.593071 -61.8201 C 2.23329 -61.9683 3.89011 -62.1561 5.56521 -62.3851 M -0.356955 -64.3462 C -1.8072 -64.2243 -3.24381 -64.1342 -4.66818 -64.0749 M 8.79229 -65.5143 C 7.32746 -65.2646 5.8781 -65.047 4.44296 -64.8604 M 21.3813 -61.6186 C 20.1286 -61.287 18.8865 -60.977 17.6543 -60.6882 M 14.0288 -67.8628 C 13.3644 -67.7169 12.7034 -67.5776 12.0457 -67.4447 M 22.6076 -60.6002 C 21.2498 -60.2311 19.904 -59.8871 18.5696 -59.5676 M 15.2859 -66.8097 C 14.5116 -66.6331 13.7419 -66.4654 12.9766 -66.3063 M -57.0252 -60.4555 C -56.423 -60.2603 -55.8202 -60.0687 -55.2167 -59.8809 M -56.0557 -61.5084 C -55.6468 -61.3774 -55.2377 -61.2481 -54.8282 -61.1206 M -55.167 -62.5886 C -54.9247 -62.5118 -54.6824 -62.4356 -54.4399 -62.3601 M -82.3999 -40.9282 C -75.4429 -51.1125 -68.4857 -61.2965 -61.5286 -71.4807 M -82.3999 -45.4645 C -76.2728 -54.4337 -70.1456 -63.4028 -64.0185 -72.372 M -82.3999 -50.0007 C -77.0922 -57.7705 -71.7844 -65.5402 -66.4766 -73.3099 M 21.7563 -78.2408 C 23.119 -72.6385 24.1194 -66.2887 24.6989 -58.8596 M 20.6308 -62.5691 L 20.1326 -66.4472 C 19.4781 -71.5439 18.5755 -76.0633 17.4516 -80.1613 M 30.7429 -53.7312 L 30.6393 -55.5509 C 30.2142 -63.0159 29.3732 -69.5434 28.1833 -75.3715 M 23.9159 -77.2798 C 25.2486 -71.4613 26.2075 -64.8742 26.7261 -57.2004 M 18.4965 -64.2521 L 18.2474 -66.1912 C 17.5186 -71.8661 16.4895 -76.7814 15.1901 -81.1817 M 10.5464 -83.2556 C 12.0847 -78.8201 13.3024 -73.8158 14.1811 -67.8329 M 19.572 -79.224 C 20.9633 -73.8553 22.0041 -67.7672 22.6445 -60.6165"
       id="path1959"
       style="display:inline"
       inkscape:label="layer-17" />
    <path
       id="path1989"
       d="M -21.9733 1.304 C -21.4451 1.304 -17.7477 -3.44908 -17.7477 -3.9772 C -17.7477 -3.44908 -14.0503 1.304 -13.5221 1.304 C -14.0503 1.304 -17.7477 6.05708 -17.7477 6.5852 C -17.7477 6.05708 -21.4451 1.304 -21.9733 1.304 Z M -13.0995 0.652 C -12.5713 0.652 -8.87386 -4.10108 -8.87386 -4.6292 C -8.87386 -4.10108 -5.17642 0.652 -4.64822 0.652 C -5.17642 0.652 -8.87386 5.40508 -8.87386 5.9332 C -8.87386 5.40508 -12.5713 0.652 -13.0995 0.652 Z M -4.22565 1.304e-09 C -3.69745 1.304e-09 -1.09436e-05 -4.75308 -1.09436e-05 -5.2812 C -1.09436e-05 -4.75308 3.69742 1.304e-09 4.22563 1.304e-09 C 3.69742 1.304e-09 -1.09436e-05 4.75308 -1.09436e-05 5.2812 C -1.09436e-05 4.75308 -3.69745 1.304e-09 -4.22565 1.304e-09 Z"
       style="display:inline;stroke:#4444ff;stroke-linecap:round;stroke-linejoin:round;stroke-width:0.76055399753769"
       inkscape:label="layer-13" />
    <path
       d="m 43.28,-104.32 c 2.32,0 18.56,-20.88 18.56,-23.2 0,2.32 16.24,23.2 18.56,23.2 -2.32,0 -18.56,20.88 -18.56,23.2 0,-2.32 -16.24,-23.2 -18.56,-23.2 z"
       fill="#ff0000"
       id="path1955"
       style="display:none" />
  </g>
</svg>
