<?xml version="1.0" encoding="UTF-8" standalone="no"?>
<svg
   class="card"
   face="QH"
   height="3.5in"
   preserveAspectRatio="none"
   viewBox="-120 -168 240 336"
   width="2.5in"
   version="1.1"
   id="svg81"
   sodipodi:docname="q-heart.svg"
   inkscape:version="1.2.2 (732a01da63, 2022-12-09)"
   xmlns:inkscape="http://www.inkscape.org/namespaces/inkscape"
   xmlns:sodipodi="http://sodipodi.sourceforge.net/DTD/sodipodi-0.dtd"
   xmlns="http://www.w3.org/2000/svg"
   xmlns:svg="http://www.w3.org/2000/svg">
  <sodipodi:namedview
     id="namedview83"
     pagecolor="#505050"
     bordercolor="#eeeeee"
     borderopacity="1"
     inkscape:showpageshadow="0"
     inkscape:pageopacity="0"
     inkscape:pagecheckerboard="0"
     inkscape:deskcolor="#505050"
     inkscape:document-units="in"
     showgrid="false"
     inkscape:zoom="3.0565476"
     inkscape:cx="145.75268"
     inkscape:cy="123.83252"
     inkscape:window-width="1278"
     inkscape:window-height="1368"
     inkscape:window-x="0"
     inkscape:window-y="0"
     inkscape:window-maximized="0"
     inkscape:current-layer="layer1" />
  <defs
     id="defs37" />
  <g
     inkscape:groupmode="layer"
     id="layer1"
     inkscape:label="Layer 1">
    <path
       d="M 1,0 0,1 -1,0 0,-1"
       id="path1736"
       fill="#ff0000"
       inkscape:label="layer-0"
       style="display:inline;stroke-width:0.264583" />
    <path
       fill="#ffcc44"
       d="m 18.7775,-130.4 25.1035,41.3281 c 3.8645,-2.0951 7.6853,-3.4945 12.5311,-1.5561 -3.7717,-12.212 -8.4008,-24.215 1.4811,-39.772 z m -38.4338,7.683 c -8.5105,11.633 -17.3901,33.4401 -26.5172,61.7774 l 1.9802,-1.1784 -2.2833,1.4295 c 11.3598,8.0952 23.9078,13.0133 36.95293,14.8295 3.73,10.7504 5.82054,23.172 6.73584,34.3527 2.0464,0.6664 4.23857,1.52364 6.53306,2.54537 5.38806,2.39931 8.57887,3.07259 10.86527,3.10286 0.5748,-13.26053 1.8734,-28.63663 6.2644,-41.18293 l -0.2627,0.0101 c 8.0266,-1.6982 16.0446,-4.4879 23.9059,-8.3588 l -2.4661,-2.4042 c -29.2445,14.0149 -60.2614,12.6552 -85.5399,-4.7436 l 14.7612,-8.7834 c 3.3942,-10.1879 6.8295,-19.3704 10.2336,-27.2768 -0.5981,-4.7993 -1.1562,-9.8783 -1.1562,-10.9383 z m 97.6191,59.473 c -6.6305,1.0357 -8.2012,6.7276 -6.9723,14.996 7.8534,-1.8041 2.4579,-10.8438 6.9723,-14.996 z m -129.2472,7.0024 c -3.1453,3.2984 -5.3596,6.9493 -6.4187,10.4029 -0.211,0.6882 -0.378,1.3805 -0.4917,2.0225 -0.6028,-0.5102 -1.4332,-1.3252 -2.5601,-3.1469 -0.8964,0.9221 -2.2411,3.227 -1.3447,4.1491 -0.8964,-0.9221 -3.1372,0.4612 -4.0336,1.3832 2.3962,1.5685 3.0006,2.5785 3.42,3.2445 -1.0026,0.1221 -2.0557,0.3506 -3.0991,0.6892 -3.438,1.1155 -7.077,3.4766 -10.3433,6.8365 -2.9087,2.9921 -5.045,6.2878 -6.2444,9.4711 v 5.0367 c 0.3231,-0.0693 0.6515,-0.1111 0.9815,-0.1233 1.4462,-0.0534 2.9166,0.4513 4.0496,1.6168 2.2662,2.3311 1.9627,6.04911 -0.1121,8.18336 -1.2799,1.3165 -3.1454,1.93826 -4.919,1.67508 v 8.84224 c 0.935,-1.59656 1.6538,-3.203834 2.1343,-4.770551 0.2699,-0.880189 0.4676,-1.767069 0.6192,-2.699689 0.6624,0.3619 1.5904,1.09454 2.9499,3.292093 0.8964,-0.922063 2.2411,-3.227043 1.3447,-4.149113 0.8964,0.92207 3.1371,-0.46114 4.0335,-1.38321 -1.9893,-1.30222 -2.7437,-2.21947 -3.1442,-2.85174 0.781,-0.11501 1.546,-0.30304 2.3059,-0.54961 3.438,-1.11556 7.0769,-3.47696 10.3433,-6.83686 3.2664,-3.3599 5.5619,-7.1033 6.6465,-10.6398 0.3251,-1.0604 0.5458,-2.1303 0.6303,-3.194 0.6048,0.3884 1.6043,0.9551 3.1938,3.5243 0.8964,-0.922 2.2411,-3.227 1.3447,-4.1491 0.8964,0.9221 3.1372,-0.4611 4.0335,-1.3832 -1.7925,-1.1734 -2.5823,-2.0343 -3.0392,-2.65 0.642,-0.1102 1.2959,-0.2783 1.9461,-0.4893 1.8911,-0.6136 3.8431,-1.6043 5.7603,-2.9307 -19.7076,23.6266 -15.7779,62.9435 -21.079,79.8382 0,0 2.1749,3.6209 2.8322,1.7222 1.2783,-3.6926 1.9335,-8.0829 2.5465,-13.0059 0.9282,-7.4541 1.5536,-16.1415 2.8127,-25.06733 2.4294,-17.22167 7.195,-35.02977 20.2741,-46.46947 l -0.4776,-3.802 1.3836,-1.1331 -3.8459,-1.7721 c -0.7482,1.0225 -1.6016,2.0388 -2.5527,3.0172 -2.9173,3.0009 -6.1807,5.0562 -8.9038,5.9399 -0.4445,0.1442 -0.8667,0.2559 -1.2506,0.2549 1.2346,-1.1837 1.6359,-2.721 7.6272,-7.7445 -0.8217,-0.8453 -3.3614,-1.6137 -5.1542,0.2305 1.7928,-1.8442 1.0457,-4.4566 0.224,-5.3019 -5.0385,6.3584 -6.4696,6.5961 -7.5994,8.0166 0.0314,-0.41 0.1529,-0.9176 0.3184,-1.4573 0.859,-2.8012 2.8572,-6.158 5.7744,-9.1589 0.0824,-0.0847 0.1652,-0.1686 0.2481,-0.2519 z m 109.7773,1.1537 c -1.3012,-0.0174 -2.644,0.2749 -3.9824,0.9719 5.8364,-0.4659 5.0324,10.505 14.5785,7.824 -1.0291,-3.8897 -5.4916,-8.7274 -10.5961,-8.7959 z m -10.0814,3.3688 c -3.2305,6.5183 -3.8193,18.7991 -5.38,32.6377 l -0.2716,-0.0046 c -0.4323,-0.1187 -0.8732,-0.2162 -1.3224,-0.2916 -8.9051,-1.4959 -17.6493,6.2589 -19.5309,17.32099 C 20.1307,8.38459 25.1033,18.0403 33.1777,20.3159 36.2276,14.1927 38.328,7.56769 39.8477,0.861357 38.3309,7.562 36.2382,14.1773 33.2002,20.2825 l -0.2429,7.3063 3.064,-5.8209 c 6.9541,-13.97484 9.0805,-30.07932 10.534,-43.9109 0.7267,-6.9159 1.278,-13.2737 2.0966,-18.4315 0.7446,-2.9602 1.0797,-6.2476 2.2655,-8.9986 z m -104.2049,9.3595 c 1.3574,0.0157 2.7161,0.5276 3.7783,1.6203 2.2662,2.3311 1.9627,6.0491 -0.1121,8.1834 -2.0748,2.1342 -5.6893,2.4464 -7.9555,0.1153 -2.2662,-2.331 -1.9627,-6.0491 0.1121,-8.1833 1.0375,-1.0672 2.4596,-1.6787 3.9059,-1.7322 0.0904,-0.0033 0.1808,-0.0046 0.2713,-0.0035 z m -7.3919,8.1887 c -0.9113,1.1321 -2.0612,2.9064 -6.9817,7.0322 0.8217,0.8452 3.3614,1.6136 5.1542,-0.2305 -1.7928,1.8441 -1.0458,4.4566 -0.2241,5.3018 4.0256,-5.0801 5.7485,-6.2531 6.8416,-7.1824 -0.0684,0.4644 -0.1824,0.9276 -0.3326,1.4173 -0.859,2.8011 -2.8574,6.158 -5.7746,9.1588 -2.9173,3.0008 -6.1807,5.0565 -8.9038,5.9401 -0.4381,0.1421 -0.8544,0.2528 -1.2605,0.2799 1.0604,-1.1488 1.7597,-2.7931 7.3823,-7.5074 -0.8217,-0.8453 -3.3614,-1.6137 -5.1542,0.2305 1.7928,-1.8442 1.0457,-4.4566 0.224,-5.3019 -4.7685,6.0176 -6.3058,6.553 -7.3788,7.7545 0.0747,-0.4474 0.1931,-0.9374 0.3526,-1.4573 0.859,-2.8011 2.8571,-6.158 5.7744,-9.1588 2.9173,-3.0009 6.1809,-5.0565 8.904,-5.9401 0.4795,-0.1556 0.9326,-0.2732 1.3772,-0.3367 z M 82.3997,-27.5773 57.1754,-3.55238 56.5415,0.359617 82.3997,-24.2689 Z M -61.4831,-9.128 c -0.5043,0 -0.988,0.20608 -1.3446,0.5729 -0.3566,0.36682 -0.557,0.86434 -0.557,1.3831 0,0.51876 0.2004,1.01628 0.557,1.3831 0.3566,0.36682 0.8403,0.5729 1.3446,0.5729 0.5043,0 0.988,-0.20608 1.3446,-0.5729 0.3566,-0.36682 0.5569,-0.86434 0.5569,-1.3831 0,-0.51876 -0.2003,-1.01628 -0.5569,-1.3831 -0.3566,-0.36682 -0.8403,-0.5729 -1.3446,-0.5729 z M -77.5286,6.17821 c -0.5043,0 -0.9879,0.20608 -1.3445,0.5729 -0.3566,0.36682 -0.557,0.86434 -0.557,1.3831 0,0.51876 0.2004,1.01628 0.557,1.3831 0.3566,0.36682 0.8402,0.57289 1.3445,0.57289 0.5044,0 0.988,-0.20607 1.3446,-0.57289 0.3566,-0.36682 0.557,-0.86434 0.557,-1.3831 0,-0.51876 -0.2004,-1.01628 -0.557,-1.3831 -0.3566,-0.36682 -0.8402,-0.5729 -1.3446,-0.5729 z"
       id="path1625"
       style="display:inline"
       inkscape:label="layer-1" />
    <path
       fill="#ff0000"
       d="m 12.1746,-130.4 26.1256,44.5064 c 1.9342,-1.0298 3.727,-2.1492 5.5677,-3.1711 L 18.777,-130.4 Z m 16.3483,4.564 c -3.9415,1.084 -5.2632,0.573 -6.8416,0.219 l 7.3511,12.004 c 0.8813,-2.536 1.8037,-5.075 3.2935,-7.659 -0.2709,-2.148 0.2899,-2.84 0.6339,-3.912 -2.1949,0.266 -3.4416,-0.108 -4.4369,-0.652 z m 20.9169,31.948 c -1.9392,0.4987 -5.7321,0.6159 -8.3774,0.0601 l 2.9577,4.6959 c 3.3136,-1.7896 6.5696,-3.0177 10.4694,-2.1304 -1.9313,-0.7513 -3.9169,-1.4683 -5.0497,-2.6256 z m 16.4799,2.608 c 0,1.8877 -1.4379,3.6589 -2.4821,4.9868 -3.6133,-2.7847 -8.6964,2.7285 -6.0515,6.1751 -1.2375,1.0659 -2.9512,2.5301 -4.7771,2.5301 1.8112,0 3.5119,1.4408 4.8249,2.4397 -2.8784,3.3944 2.4319,9.2004 6.0076,6.1626 0.9473,1.3185 2.4782,3.142 2.4782,5.0897 0,-2.108 1.7932,-4.0706 2.7241,-5.4238 3.6729,3.8727 9.664,-2.6244 6.1297,-6.0914 1.2405,-0.9748 2.8027,-2.1768 4.457,-2.1768 -1.6251,0 -3.1613,-1.1598 -4.4156,-2.1592 3.4716,-3.5031 -2.4967,-9.9676 -6.1922,-6.1477 -0.9706,-1.3817 -2.703,-3.3132 -2.703,-5.3851 z m -0.0057,4.8192 c 0.1028,-0.0016 0.2019,0.0397 0.2746,0.1145 0.0727,0.0747 0.1129,0.1766 0.1114,0.2823 v 2.95 c 2.6337,0.1978 4.7996,2.4257 4.9918,5.1348 h 3.5018 c 0.1371,-0.002 0.2647,0.0721 0.3338,0.194 0.0692,0.1218 0.0692,0.2726 0,0.3944 -0.0691,0.1219 -0.1967,0.196 -0.3338,0.194 h -3.5018 c -0.1922,2.7091 -2.3581,4.937 -4.9918,5.1348 v 3.602 c 0.002,0.1411 -0.0701,0.2723 -0.1885,0.3434 -0.1185,0.0712 -0.265,0.0712 -0.3835,0 -0.1185,-0.0711 -0.1905,-0.2023 -0.1886,-0.3434 v -3.602 c -2.6337,-0.1978 -4.7995,-2.4257 -4.9918,-5.1348 h -3.5017 c -0.1372,0.002 -0.2647,-0.0721 -0.3339,-0.194 -0.0691,-0.1218 -0.0691,-0.2726 0,-0.3944 0.0692,-0.1219 0.1967,-0.196 0.3339,-0.194 h 3.5017 c 0.1923,-2.7091 2.3581,-4.937 4.9918,-5.1348 v -2.95 c -0.003,-0.216 0.1647,-0.3936 0.3746,-0.3968 z m -87.7375,11.0247 -7.1929,4.2935 c 21.43804,12.1774 41.3821,8.1949 61.1118,2.0349 -1.4322,-1.9373 -2.806,-3.9561 -4.1299,-6.0766 l -0.047,-0.1054 c -17.1104,5.2081 -32.69706,8.0552 -49.742,-0.1464 z m -11.0618,29.7485 -1.5864,1.0523 c 1.2556,7.6241 1.8409,16.5484 1.311,24.2847 3.9617,1.1361 7.1747,4.0444 9.2668,8.0016 1.9751,-0.5388 4.0253,-0.9855 6.253,-1.1945 0.7983,-0.0749 1.6038,-0.1163 2.4183,-0.1241 2.9783,-0.0282 6.07606,0.3913 9.35467,1.2447 -0.8563,-8.7393 -2.49637,-18.693 -4.90737,-27.0478 -7.5495,-1.1384 -14.9701,-3.1857 -22.11,-6.2169 z m 63.9913,2.6235 -8.8921,2.2807 c -3.0386,10.9926 -3.9219,22.4711 -4.4065,34.36349 1.6557,-0.31019 3.6029,-1.19827 6.4222,-2.63398 l 10e-4,-0.07411 c 1.8019,-3.5344 4.3856,-6.38 7.3773,-8.2226 z m -87.0492,4.5986 c -0.4921,0.0147 -0.9748,0.2339 -1.3382,0.6077 -0.3567,0.3668 -0.5689,0.8522 -0.5899,1.3494 -0.021,0.4972 0.1508,0.9654 0.4777,1.3017 0.3269,0.3362 0.7821,0.513 1.2654,0.4914 0.4834,-0.0217 0.9552,-0.2399 1.3118,-0.6068 0.3567,-0.3668 0.5688,-0.8523 0.5898,-1.3494 0.021,-0.4972 -0.1509,-0.9654 -0.4779,-1.3016 -0.3206,-0.3298 -0.765,-0.5064 -1.2387,-0.4924 z m 132.7304,4.8001 c 1.8733,1.0049 3.7446,1.9926 5.6125,2.9758 v -0.0089 z M -81.297,-12.3855 c -0.3899,0.0125 -0.7765,0.1534 -1.103,0.4022 v 3.12501 c 0.6972,0.40533 1.615,0.24736 2.2298,-0.38381 0.3567,-0.36685 0.5688,-0.8523 0.5898,-1.3494 0.021,-0.4972 -0.1509,-0.9654 -0.4778,-1.3016 -0.3207,-0.3298 -0.765,-0.5064 -1.2388,-0.4924 z m 67.3523,6.5175 c -0.3363,0 -0.6587,0.13739 -0.8964,0.38193 -0.2378,0.24455 -0.3713,0.57623 -0.3713,0.92207 0,0.34584 0.1335,0.67752 0.3713,0.92207 0.2377,0.24454 0.5601,0.38193 0.8964,0.38193 0.3362,0 0.6586,-0.13739 0.8964,-0.38193 0.2377,-0.24455 0.3712,-0.57623 0.3712,-0.92207 0,-0.34584 -0.1335,-0.67752 -0.3712,-0.92207 -0.2378,-0.24454 -0.5602,-0.38193 -0.8964,-0.38193 z m 13.94455,4.564 c -0.336212,0 -0.658654,0.13739 -0.896392,0.381933 C -1.13428,-0.67752 -1.26784,-0.345842 -1.26784,0 c 0,0.345842 0.13356,0.67752 0.371298,0.922067 C -0.658804,1.16661 -0.336362,1.304 -1.5e-4,1.304 0.336062,1.304 0.658504,1.16661 0.896242,0.922067 1.13398,0.67752 1.26754,0.345842 1.26754,0 1.26754,-0.345842 1.13398,-0.67752 0.896242,-0.922067 0.658504,-1.16661 0.336062,-1.304 -1.5e-4,-1.304 Z"
       id="path1629"
       style="display:inline"
       inkscape:label="layer-4" />
    <path
       fill="#4444ff"
       d="m -15.6638,-108.662 c -0.8751,0 -1.5846,1.171 -1.5846,2.616 0,1.446 0.7095,2.617 1.5846,2.617 0.8752,0 1.5846,-1.171 1.5846,-2.617 0,-1.445 -0.7094,-2.616 -1.5846,-2.616 z m 19.31717,0.322 c -0.87515,0 -1.5846,1.172 -1.58461,2.617 1e-5,1.445 0.70946,2.617 1.58461,2.617 0.87515,0 1.58461,-1.172 1.58461,-2.617 0,-1.445 -0.70946,-2.617 -1.58461,-2.617 z m -25.37687,33.2214 -1.2298,0.3161 0.1535,0.6327 1.4626,6.0177 4.6315,-2.4796 1.8228,4.4056 4.5392,-2.6681 2.86517,4.4746 4.18239,-3.5473 3.3507086,4.1147 3.7755914,-3.9958 3.85828,3.6059 3.03676,-4.0526 3.7125,3.4395 3.1907,-5.0848 4.7808,3.0415 2.5619,-4.6119 4.84,2.5196 0.8357,-2.0227 -0.8426,-1.2941 -0.6297,1.5238 -4.706,-2.4498 -2.5089,4.5159 -4.7219,-3.0041 -3.0578,4.873 -3.6233,-3.3571 -3.03306,4.0478 -3.74786,-3.5028 -3.65129,3.8639 -3.25663,-3.9991 -4.06378,3.4469 -2.74361,-4.2846 -4.33467,2.5479 -1.8012,-4.3533 -4.4214,2.3673 -1.0728,-4.4143 z m -7.2691,3.9617 -14.5156,8.64 c 25.2851,17.3778 56.3093,18.7412 85.4587,4.6957 -3.5123,-3.3906 -6.7669,-7.0941 -9.8283,-11.2501 -0.6877,0.2132 -1.3758,0.4228 -2.064,0.6301 l 7.2155,5.7468 0.8522,2.5968 c 1.6216,4.9421 -3.5884,5.3748 -4.8046,1.6682 L 30.0382,-68.435 c -0.1621,0.0488 -0.3243,0.0962 -0.4863,0.1446 l 3.2321,10.5955 c 1.5182,4.9768 -3.6994,5.2943 -4.838,1.5618 l -3.2262,-10.5757 3.9781,-1.3269 c -1.5136,0.4461 -3.029,0.8731 -4.5463,1.2783 l 2.3727,11.1561 c 1.0836,5.0955 -4.1409,4.9364 -4.9537,1.1147 l -2.3029,-10.828 4.25,-1.275 c -1.4756,0.3875 -2.9531,0.7544 -4.4334,1.0898 l 1.727,11.2399 c 0.7916,5.1521 -4.4147,4.6783 -5.0084,0.8142 l -1.6822,-10.948 2.7174,-0.6214 c -0.9488,0.195 -1.8988,0.3768 -2.8501,0.5443 l 0.8171,11.1122 c 0.3825,5.2012 -4.7696,4.2944 -5.05642,0.3935 L 8.95712,-63.7299 c -0.21449,0.025 -0.4291,0.0485 -0.64375,0.0718 l 0.89308,10.8038 c 0.42961,5.1973 -4.73023,4.3398 -5.05244,0.4419 L 3.25549,-63.2802 c -0.09068,0.0036 -0.1814,0.0068 -0.27211,0.01 v 10.9653 c 0,5.216 -5.07076,3.912 -5.07076,0 v -10.9829 c -0.1784,-0.0077 -0.35676,-0.0147 -0.5353,-0.0239 l -1.0097,10.7544 c -0.48753,5.1918 -5.41314,3.3924 -5.04748,-0.5015 l 1.00771,-10.7305 c -0.23072,-0.0318 -0.4613,-0.0638 -0.69228,-0.0985 l -0.98196,10.3685 c -0.49168,5.1915 -5.41571,3.3878 -5.04701,-0.5058 l 1.0273,-10.8461 c -0.1137,-0.0277 -0.2274,-0.0566 -0.3412,-0.0851 l -2.6319,10.3172 c -1.2871,5.0452 -5.87,2.46 -4.9047,-1.3239 l 1.989,-7.7962 -2.8845,7.2861 c -1.9125,4.8308 -6.1307,1.6559 -4.6964,-1.9672 l 3.4606,-8.7409 -4.7179,9.0928 c -2.3875,4.6017 -6.2642,0.9953 -4.4736,-2.4559 l 4.7945,-9.2406 -6.8327,8.3456 c -3.2664,3.9896 -6.3284,-0.3678 -3.8786,-3.3601 l 1.0867,-1.3274 9.8353,-4.0643 0.0683,-0.1317 0.1152,0.0558 7e-4,-3e-4 -5e-4,6e-4 0.0431,0.0208 c -0.5518,-0.2938 -1.1042,-0.5957 -1.6579,-0.911 z m 72.5799,23.2996 c -4.1824,1.9356 -8.3602,3.5067 -12.5325,4.809 l 0.5972,25.671 c 2.5573,-1.5197 5.3577,-2.3075 8.2306,-2.1771 0.0632,-0.4395 0.1111,-0.8703 0.1579,-1.2997 1.1366,-10.4107 1.594,-19.8471 3.5468,-27.0032 z m -26.2699,1.4599 c -3.0099,0.5296 -6.0335,0.9015 -9.07509,1.1219 5.98149,0.4206 8.01069,2.9391 0.89308,3.5847 4.90871,0.6423 5.59051,2.5493 -0.89556,3.2228 5.07067,0.5268 6.78827,3.0484 -0.19262,4.2533 4.40979,0.6314 5.47199,2.9253 -0.07948,3.5707 v 0.9413 c 4.05677,0.8411 5.12177,2.5386 -0.05175,2.9386 l -0.01882,1.0605 c 3.86174,0.6577 4.73974,2.1252 -0.04902,2.7815 l -0.0104,0.5863 c 3.21366,0.668 3.86436,1.9323 -0.04555,2.5866 l -0.01164,0.6619 c 3.27915,0.6682 3.95415,1.9534 -0.04605,2.6085 l -0.01115,0.64 c 3.34415,0.668 4.04085,1.9733 -0.0463,2.6292 l -0.00197,0.1082 c 2.67282,0.6582 3.15812,1.7564 -0.04234,2.3946 l -0.00348,0.2025 c 2.72464,0.65982 3.22384,1.77351 -0.04258,2.4139 l -0.01239,0.70217 c 1.49338,0.52858 2.79621,0.90551 3.89891,1.14278 0.5137,-12.70165 1.7693,-27.73245 5.8442,-40.15195 z m -23.39082,0.9334 c 3.80517,11.3209 5.759816,23.6133 6.588022,35.1466 1.031108,0.40499 2.118858,0.8614 3.230628,1.35647 0.65515,0.29174 1.27776,0.55803 1.89262,0.83385 L 5.53287,-10.3403 c -5.200355,-0.3342 -6.091849,-2.1807 -0.14063,-2.9633 l -0.0208,-0.4355 c -5.3270675,-0.317 -6.248369,-2.2031 -0.14163,-2.9832 l -0.00545,-0.1171 c -5.584294,-0.2803 -6.56927,-2.2496 -0.1436,-3.0229 l -0.01808,-0.3792 c -5.708154,-0.2621 -6.72933,-2.2709 -0.1441,-3.0397 l -0.00792,-0.1653 c -6.00775,-0.2395 -7.12355,-2.587 -0.16292,-3.4314 l -0.00966,-0.202 c -6.48585,-0.148 -7.73298,-2.671 -0.16564,-3.49 l -0.01461,-0.3102 c -6.33607,-0.1774 -7.53935,-2.6457 -0.16489,-3.4737 l -0.00966,-0.2035 c -7.11527,-0.0155 -8.56473,-2.986 -0.18124,-3.8193 l -0.00272,-0.0532 c -8.10029,0.241 -9.87256,-3.1462 -0.18421,-3.8827 l -0.00496,-0.1024 c -7.1495,0.3107 -9.84636,-1.6525 -4.972714,-2.7027 -1.716956,-0.0599 -3.422806,-0.175 -5.110866,-0.3464 z m 82.86062,11.7986 c 0.7868,0.422 1.5734,0.8413 2.3598,1.2585 1.0855,0.5758 2.1698,1.1471 3.2527,1.7171 v -0.0087 z m 2.3598,1.2585 c -0.0947,-0.0503 -0.1894,-0.1005 -0.2842,-0.1508 l -0.3652,0.315 c 1.7698,0.9441 0.2365,3.4533 -3.5441,3.7623 -0.0845,0.0069 -0.1682,0.0134 -0.1956,0.0265 -0.3659,2.5251 -2.6675,5.5877 -4.4013,6.2859 -2.3486,0.9459 -7.8999,1.8087 -11.0162,-0.9118 -0.6113,5.9953 -1.2333,12.6529 -2.2071,19.49533 L 82.3997,-27.6204 v -3.0404 c -1.077,-0.5907 -2.1635,-1.1682 -3.2527,-1.7461 z"
       id="path1633"
       style="display:inline"
       inkscape:label="layer-7" />
    <path
       fill="#000000"
       d="m 3.30426,-130.4 46.13554,78.24 6.3384,-3.912 -43.6041,-74.328 z m -21.79486,31.8209 c -3.4064,7.8879 -6.8419,17.0704 -10.2586,27.2717 l 15.4935,-9.2543 c -2.156,-3.8366 -3.5754,-7.5983 -3.8583,-8.7623 -0.2895,-1.1914 -0.8435,-5.1039 -1.3766,-9.2551 z m -31.0163,39.6808 -3.0459,1.7508 c 12.7036,9.6698 26.9612,15.5018 41.7775,17.6768 2.411,8.3548 4.05126,18.3085 4.87519,27.0394 0.99169,0.259 2.01738,0.5613 3.11897,0.9271 -0.82134,-10.0294 -2.59365,-21.0596 -5.6281,-30.9739 -14.54886,-1.741 -28.56416,-7.1823 -41.09766,-16.4202 z m 96.6356,5.8263 c -8.9581,4.5411 -18.1557,7.7188 -27.3521,9.441 -3.5134,11.8016 -4.6396,25.6688 -5.2045,37.77242 0.4249,0.00965 0.8663,-0.01002 1.2778,-0.04864 0.6285,-0.05897 1.2588,-0.17667 1.9617,-0.51371 0.4805,-11.89127 1.3637,-23.36987 4.4023,-34.36247 7.1479,-1.5058 14.3015,-3.846 21.3734,-7.0739 -1.9528,7.1561 -2.4102,16.5925 -3.5468,27.0032 -0.0468,0.4294 -0.0946,0.8602 -0.1921,1.2982 0.4955,0.0293 1.042,0.0864 1.5891,0.1783 0.4492,0.0754 0.89,0.1729 1.4633,0.258 1.6959,-13.8445 2.2854,-26.0918 5.5107,-32.5995 z"
       id="path1637"
       style="display:inline"
       inkscape:label="layer-10" />
    <path
       stroke="#4444ff"
       stroke-linecap="round"
       stroke-linejoin="round"
       stroke-width="0.77143"
       fill="none"
       d="M -13.2047,-80.5338 -82.4,-39.3259 m 26.6219,35.0271 -26.622,25.356 M 33.2002,20.2825 c 12.5992,-25.31918 8.9697,-59.4078 15.2113,-72.0016 m -15.4543,79.3078 3.0641,-5.8208 c 6.9541,-13.97484 9.0805,-30.07932 10.534,-43.9109 0.7267,-6.9159 1.278,-13.2737 2.0966,-18.4315 0.7446,-2.9602 1.0798,-6.2475 2.2656,-8.9985 m -85.3891,4.9378 c 1.2556,7.624 1.8407,16.5483 1.3058,24.2832 m -29.2106,62.3711 c 5.8493,-18.6418 0.4599,-64.5834 27.988,-86.6226 l 1.3836,-1.1329 m 109.7919,12.0711 c 1.876,1.0062 3.752,1.9967 5.6225,2.9812 M 12.7647,-114.349 c 8.6732,39.9629 28.1341,58.9553 49.5623,72.3912 M -46.4765,-60.6886 c 26.7492,19.062 60.0839,20.5193 90.9947,5.2989 m -94.0252,-3.5085 c 12.5335,9.2379 26.5488,14.679 41.11137,16.4307 m 28.15343,-1.0966 c 9.2152,-1.7891 18.4128,-4.9669 27.3709,-9.508 m -5.0767,-4.7218 c -29.251,14.0181 -60.2752,12.6548 -85.5567,-4.755 M 57.1753,-3.55231 82.3998,-27.5772 M 31.085,-43.0373 31.6126,-17.3718 M 22.1798,-40.762 c 7.1821,-1.5271 14.3356,-3.8674 21.3572,-7.0078 m -96.0899,-9.3778 c 12.7036,9.6698 26.9614,15.502 41.7998,17.6186 m 54.3909,-8.4158 c -2.0033,7.2436 -2.4607,16.68 -3.5973,27.0907 -0.0468,0.4294 -0.0946,0.8602 -0.1433,1.2923 M 8.21481,-45.2706 7.61915,-7.35761 M 3.88744,-45.1181 5.66031,-8.09398 M 20.875,-47.0411 c -4.391,12.5463 -5.6897,27.9226 -6.2446,41.18244 M -9.52629,-45.8671 c 3.73176,10.7523 5.82286,23.1772 6.80028,34.3854 m 20.57021,4.90791 c 0.4479,-11.73851 1.3312,-23.21691 4.4039,-34.23081 m -4.946,-5.5948 c -4.0595,12.4215 -5.3153,27.4524 -5.8507,40.148 M 0.549315,-10.3048 C -0.313621,-21.8507 -2.26832,-34.143 -6.03562,-45.4741 m -4.76178,6.0618 c 2.43311,8.2965 4.07328,18.2501 4.91275,26.9832 M 3.30419,-130.4 49.4398,-52.16 55.7782,-56.072 12.1741,-130.4 m 26.1427,44.5066 c 6.1693,-3.314 11.0486,-7.5535 18.0953,-4.7346 -3.7711,-12.211 -8.4005,-24.211 1.4755,-39.765 M 43.9366,-89.1177 18.7787,-130.4 m 24.1338,39.6136 -5.5426,3.3258 m 4.3608,-5.3333 -5.4812,3.2889 m 4.2476,-5.2654 -5.4617,3.2773 m 4.2404,-5.2611 -5.4967,3.2982 m 4.306,-5.3004 -3.8311,2.2988 m 2.599,-4.2764 -2.8555,1.7136 m 15.4423,-12.4716 c -5.7046,1.956 -10.5966,-4.882 -14.5785,-1.956 -4.4369,3.26 0.7126,9.088 3.1692,7.824 2.5354,-1.304 1.9016,-5.216 -0.6338,-5.216 -2.5354,0 -1.2677,1.956 -1.2677,1.956 m 13.3108,-2.608 c -4.4664,4.141 -1.0942,11.8901 -5.5316,14.0118 -4.9445,2.3641 -7.3354,-5.1168 -5.0557,-6.6928 2.3527,-1.627 5.3492,0.869 4.0995,3.138 -1.2498,2.2692 -2.2794,0.171 -2.2794,0.171 m -5.5117,-2.604 c 3.393,-1.073 6.5622,-3.172 9.8419,-4.764 m -6.3384,3.26 c 2.8642,-2.303 3.3061,-2.638 3.8031,-4.564 m -3.8031,4.564 c 2.2593,-0.457 5.0708,-0.356 6.3384,0.652 m -5.2938,8.2928 c 3.4127,1.3956 7.1954,0.8352 10.3646,-1.1208 1.2883,2.6479 4.0586,4.4428 6.3385,6.52 m -15.3498,-3.1999 c 2.6453,0.5558 6.4383,0.4386 8.3775,-0.0601 1.1328,1.1573 3.1182,1.8742 5.0707,2.608 m -32.8292,-34.337 c 1.5784,0.354 2.9001,0.865 6.8416,-0.219 0.9953,0.544 2.242,0.918 4.4369,0.652 -0.344,1.072 -0.9048,1.764 -0.6339,3.912 -1.4898,2.584 -2.4122,5.123 -3.2935,7.659 m 2.3712,3.992 c 0.5881,-3.094 0.2557,-6.283 4.0916,-9.043 0.2048,-3.825 0.8761,-7.756 1.7553,-11.734 m -66.2706,59.2323 c 21.4418,12.2004 41.3858,8.2179 61.1293,2.0693 m -4.1907,-6.1932 c -17.1104,5.2081 -32.69696,8.0551 -49.7785,-0.1598 m 84.2104,33.5128 c 0,0 2.0536,-2.1443 2.3016,-2.3994 0.6339,-0.652 3.5186,0.2799 4.9927,-1.759 2.1356,-2.9537 4.4153,-0.7426 2.2232,1.7322 -1.8112,2.0448 -4.6805,3.5727 -4.6805,3.5727 1.3338,4.55 0.7543,8.7747 -1.2677,12.7541 m 7.6062,-18.256 c 5.0707,-6.52 7.6657,-1.7685 3.1692,2.608 -5.0534,4.9185 -8.0678,3.6906 -3.1692,-2.608 z m 0.7003,4.5645 c 6.6149,-4.8391 7.8433,0.4623 2.3522,3.4022 -6.1712,3.304 -8.7426,1.2726 -2.3522,-3.4022 z m 0.0275,4.6214 c 6.8762,-3.8796 7.3773,1.5437 1.804,3.6968 -6.2634,2.4198 -8.4468,0.051 -1.804,-3.6968 z m -0.0569,4.8366 c 6.9817,-1.6425 6.1892,3.3452 0.7566,3.7892 -6.1054,0.4989 -7.5012,-2.2024 -0.7566,-3.7892 z m 0.6163,3.8229 c -0.4211,2.5177 -2.7227,5.5804 -4.4565,6.2786 -2.3486,0.9459 -7.8999,1.8089 -11.0228,-0.8542 M -8.03787,-2.91023 c 0.87864,0.23421 1.79505,0.51338 2.75469,0.84075 M -21.5728,-2.77026 c 0.645,-0.21434 1.2934,-0.40209 1.9515,-0.55959 m 43.8509,-5.72404 c -3.9307,2.00176 -6.1663,2.93899 -8.3797,3.14667 -2.337,0.21929 -5.6387,-0.17439 -12.10467,-3.05371 -7.12612,-3.17327 -13.26592,-4.76077 -18.96783,-4.70667 -0.8145,0.0078 -1.62,0.0492 -2.4182,0.1241 -2.2278,0.209 -4.2779,0.6558 -6.1951,1.2477 m 4.3901,6.9238 c -0.7761,0.16357 -1.5341,0.36551 -2.2812,0.59991 m 17.32691,0.94538 C -5.87093,-4.33749 -7.25607,-4.74438 -8.571,-5.05527 m 8.221216,2.80565 C -0.65884,-2.38178 -0.96434,-2.50996 -1.26639,-2.63422 M 12.1658,1.79273 C 9.44983,1.4479 6.28482,0.561542 2.34664,-1.08072 M 21.6084,0.697144 C 19.9379,1.30553 18.2952,1.71981 16.5407,1.88444 16.2304,1.91355 15.9153,1.93511 15.5947,1.94858 m -31.5098,-9.73034 c -0.4065,0.01705 -0.8089,0.04438 -1.2075,0.08179 -1.7174,0.16115 -3.323,0.50005 -4.8653,0.96507 m 21.9599331,2.50616 C -4.60921,-6.15518 -8.51232,-7.25272 -12.03,-7.64094 m 23.434,7.34586 C 9.33596,-0.650375 6.94426,-1.34015 4.05965,-2.48635 m 17.75725,1.01447 c -1.8618,0.747318 -3.5982,1.234572 -5.4487,1.4082083 M -16.4745,-9.7112 c -0.2751,0.0167 -0.5487,0.03784 -0.821,0.06338 -1.8099,0.16983 -3.4973,0.52148 -5.1046,0.99791 m 44.6492,4.87784 c -2.206,0.9781 -4.0762,1.57499 -6.0538,1.76055 C 13.0485,-1.71624 9.03602,-2.34208 2.2344,-5.37085 -2.9563,-7.68227 -7.4119,-9.04182 -11.454,-9.53989 M 34.533,17.4037 c -0.1668,-0.0795 -0.3427,-0.145 -0.5266,-0.195 -6.1756,-1.7708 -10.5238,-9.616 -8.9781,-18.70346 1.6376,-9.62784 9.0385,-15.81804 15.8984,-14.66564 0.346,0.0581 0.6845,0.1331 1.0161,0.2241 0.2342,0.0683 0.4696,0.1077 0.7027,0.1202 M 38.6644,5.216 C 36.214,5.216 34.2275,2.88072 34.2275,0 c 0,-2.88072 1.9865,-5.216 4.4369,-5.216 0.8379,0 1.6215,0.27302 2.29,0.74752 M 39.6157,1.93598 C 39.3359,2.12642 39.011,2.23543 38.6644,2.23543 37.6142,2.23543 36.7629,1.23459 36.7629,-9.128e-6 36.7629,-1.2346 37.6142,-2.23543 38.6644,-2.23543 c 0.6662,0 1.2524,0.40273 1.5919,1.0124 m -3.387,-3.55392 -2.6418,-6.30705 -4.1456,-0.652 0.3425,5.216 -4.4369,1.956 1.9015,5.216 -2.9387,3.912 4.2064,2.608 -1.2677,5.216 h 5.0708 l 0.6338,4.564 m 0.6339,-28.036 2.5354,-4.564 4.4369,2.608 -1.5998,7.90979 m 1.5998,-7.90979 1.3001,-1.3373 M 32.9598,12.388 36.6791,4.62637 M 29.1567,7.172 35.0156,2.95308 M 27.889,0.652 34.2414,0.28851 m -3.817,-6.80851 4.6008,3.45384 m -2.6993,-5.40984 3.5123,4.45828 m 2.1923,-7.71828 0.3639,6.45347 m -9.2377,2.67453 5.2226,1.35239 M 28.5229,3.912 34.4628,1.73598 M 31.6921,9.128 35.815,3.98329 M 33.5936,16.952 35.0034,16.3719 M 36.129,11.736 37.628,5.09543 M -54.8164,-35.3221 c -0.7426,0.7639 -1.8964,0.8155 -2.5771,0.1153 -0.3269,-0.3363 -0.4987,-0.8045 -0.4777,-1.3016 0.021,-0.4972 0.2331,-0.9826 0.5897,-1.3494 0.3567,-0.3668 0.8285,-0.585 1.3118,-0.6066 0.4833,-0.0217 0.9385,0.1551 1.2654,0.4914 0.3269,0.3362 0.4987,0.8044 0.4777,1.3016 -0.021,0.4971 -0.2332,0.9825 -0.5898,1.3493 z m 0.281,2.1247 c 0.5391,0.3918 0.9173,1.0695 0.8481,2.5427 m 0.9096,-4.4212 c 0.4302,0.5082 1.1354,0.8365 2.6058,0.6643 m -9.2922,-3.8071 c -0.3809,-0.5545 -1.0398,-0.9436 -2.472,-0.8724 m 4.2981,-0.9356 c -0.494,-0.4425 -0.8131,-1.1679 -0.6458,-2.6804 m 1.2638,8.8065 c -0.8056,0.724 -1.4963,1.7489 -1.8675,3.6115 m 0.2241,-5.3019 c -0.7038,0.8286 -1.7002,1.5391 -3.5109,1.9209 m 8.7399,-3.9187 c 0.7037,-0.8287 1.7002,-1.5392 3.5108,-1.921 m -5.1542,0.2305 c 0.8055,-0.7239 1.4963,-1.7489 1.8675,-3.6114 m -2.1663,10.6806 c 0.0576,3.6524 0.8964,0.922 4.0337,5.9934 0.8964,-0.922 2.241,-3.2272 1.3446,-4.1493 0.8964,0.9221 3.1374,-0.461 4.0338,-1.3831 -4.9302,-3.2272 -2.2759,-4.09 -5.8265,-4.1493 m -8.5158,-1.3831 c -3.5507,-0.0593 -0.8964,-0.9221 -5.8265,-4.1493 0.8964,-0.9221 3.1373,-2.3052 4.0337,-1.3831 -0.8964,-0.9221 0.4482,-3.2272 1.3446,-4.1493 3.1374,5.0714 3.9761,2.3411 4.0338,5.9934 m 0.5229,7.9145 c -2.0074,5.3585 -1.7928,1.8441 -9.0386,10.9879 -0.8217,-0.8452 -1.5687,-3.4577 0.2241,-5.3019 -1.7928,1.8442 -4.3326,1.0758 -5.1543,0.2306 8.8892,-7.4534 5.4727,-7.2327 10.682,-9.2976 m 6.8724,-0.3073 c 5.2093,-2.0649 1.7927,-1.8442 10.682,-9.2975 -0.8217,-0.8453 -3.3615,-1.6136 -5.1543,0.2305 1.7928,-1.8441 1.0458,-4.4567 0.2241,-5.3019 -7.2458,9.1438 -7.0313,5.6295 -9.0386,10.988 m -26.5017,28.1395 c 0.7476,-0.5679 1.7394,-0.529 2.3431,0.092 0.3269,0.3362 0.4987,0.8044 0.4777,1.3016 -0.021,0.4971 -0.2332,0.98248 -0.5898,1.3493 -0.6145,0.63218 -1.5329,0.79099 -2.2307,0.38575 m 2.5118,1.73893 c 0.539,0.39183 0.9172,1.06954 0.848,2.54273 m 0.9096,-4.42117 c 0.4302,0.50816 1.1354,0.83646 2.6058,0.66427 m -6.8481,0.51102 c -0.0091,0.00819 -0.0182,0.01642 -0.0273,0.02469 m 3.6129,-3.71292 c 0.7037,-0.8287 1.7002,-1.5392 3.5108,-1.921 m -5.1542,0.2305 c 0.8055,-0.7239 1.4963,-1.7489 1.8675,-3.6114 m -2.1663,10.68058 c 0.0576,3.65239 0.8964,0.92207 4.0337,5.993433 0.8964,-0.922053 2.241,-3.227233 1.3446,-4.149303 0.8964,0.92207 3.1374,-0.46103 4.0338,-1.3831 -4.9302,-3.22723 -2.2759,-4.09 -5.8265,-4.1493 M -82.4,-16.8704 c 0.2139,0.3279 0.3071,0.8467 0.325,1.9806 m 0.5229,7.91445 c -0.3214,0.85789 -0.5858,1.48835 -0.833,1.97975 m 4.4186,-5.668 c 5.2093,-2.0649 1.7927,-1.8442 10.682,-9.2975 -0.8217,-0.8453 -3.3615,-1.6136 -5.1543,0.2305 1.7928,-1.8441 1.0458,-4.4567 0.2241,-5.3019 -7.2458,9.1438 -7.0313,5.6295 -9.0386,10.988 m 1.6527,-3.222 c 0.0816,-0.459 0.2002,-0.9489 0.3596,-1.4688 0.859,-2.8011 2.8573,-6.1581 5.7746,-9.1589 2.9173,-3.0009 6.1808,-5.0564 8.9039,-5.94 0.4794,-0.1556 0.9326,-0.2733 1.3588,-0.3567 m 4.8208,4.9698 c -0.0809,0.4357 -0.1948,0.8989 -0.345,1.3886 -0.859,2.8011 -2.8573,6.1581 -5.7746,9.1589 -2.9172,3.0009 -6.1808,5.0564 -8.9039,5.94 -0.4381,0.1422 -0.8543,0.2527 -1.248,0.3344 m 0.2169,3.88094 c 0.756,-0.11756 1.5209,-0.30571 2.2808,-0.55228 3.438,-1.11556 7.077,-3.47686 10.3434,-6.83686 3.2664,-3.3599 5.5619,-7.1031 6.6464,-10.6396 0.3252,-1.0604 0.5459,-2.1305 0.6325,-3.1739 m -8.1554,-8.4301 c -1.026,0.0868 -2.079,0.3152 -3.1224,0.6537 -3.438,1.1156 -7.077,3.4769 -10.3434,6.8369 -2.9117,2.9951 -5.052,6.2949 -6.2507,9.4812 m 33.3957,-13.2122 c 0.6488,-0.1178 1.3027,-0.286 1.9529,-0.497 1.8991,-0.6162 3.8595,-1.6126 5.7845,-2.9473 m -10.0113,-18.4059 c -3.1453,3.2984 -5.3594,6.9493 -6.4185,10.4029 -0.2111,0.6882 -0.3781,1.3805 -0.493,2.0669 m 3.6852,0.7398 c 0.0818,-0.474 0.2033,-0.9814 0.3688,-1.5212 0.859,-2.8011 2.8573,-6.1581 5.7746,-9.1589 0.0824,-0.0848 0.165,-0.1687 0.2479,-0.252 m 11.2688,6.4554 c -0.7482,1.0226 -1.6016,2.0388 -2.5528,3.0173 -2.9173,3.0008 -6.1808,5.0564 -8.9039,5.94 -0.4446,0.1442 -0.8665,0.2559 -1.2653,0.3379 M -82.3876,4.02142 c 0.9292,-1.58997 1.6433,-3.190368 2.1218,-4.750514 0.2699,-0.880186 0.4678,-1.767036 0.5768,-2.639736 m 3.9937,12.03429 3.4443,2.72534 m -9.8784,-7.81642 3.6767,2.90932 m 0.9397,3.5521 3.6513,2.8892 m -8.5384,-6.75613 3.0763,2.43411 M -82.4,8.97752 -75.4725,14.459 m -6.9276,-2.6729 5.3169,4.2071 m -5.3168,-1.3984 3.7061,2.9324 m -3.7061,-0.1238 1.9015,1.5046 m 0.1883,-19.511363 11.2807,8.925983 M -81.1359,1.55193 -70.6404,9.85662 M -72.9642,-8.83382 -60.976,0.652 m -10.871,-5.79318 9.2602,7.3273 m -11.4115,-6.22091 9.8008,7.755 m -11.0921,-5.9682 9.4815,7.50241 m -10.617,-5.592211 9.0061,7.126211 m -12.3136,-9.7433 2.505,1.982097 m 17.3967,-17.129417 6.2473,4.9433 m -11.5302,-9.1234 2.2343,1.7678 m -9.9723,-7.8907 7.1445,5.6533 M -82.4,-35.9603 l 6.4324,5.0897 m 14.6926,14.4344 7.0653,5.5905 m -20.2216,-16.0006 10.1044,7.9952 M -82.4,-33.1517 l 4.9168,3.8905 m 14.6288,14.3838 8.0598,6.37748 m -13.4315,-10.62788 2.2949,1.8159 m -5.4963,-4.349 1.0625,0.8407 m -5.4464,-4.3096 2.2385,1.7713 m -8.8272,-6.9846 3.5584,2.8156 m 14.3031,14.1261 9.1998,7.27949 m -14.5805,-11.53699 2.2278,1.7627 m -9.3832,-7.4245 2.0751,1.6419 m -7.4004,-5.8557 2.3016,1.8212 m 20.4445,18.9856 3.51,2.77737 M -66.3436,-12.021 c 1.3274,1.0503 2.6548,2.10062 3.9822,3.15095 m -9.1406,-7.23255 c 0.6488,0.5133 1.2975,1.0266 1.9462,1.5399 m -8.5936,-6.7998 1.6201,1.282 m -5.8707,-4.6453 1.1629,0.9201 m 19.8153,18.48774 3.6671,2.90163 m -10.5409,-8.34067 4.7338,3.74573 m -9.4449,-7.47333 1.3787,1.0908 m -7.4435,-5.8897 c 0.3032,0.2399 0.6065,0.4799 0.9097,0.7198 m 7.6261,8.84287 11.1704,8.838738 m -15.0465,-11.905708 0.3802,0.3008 m 19.2551,-15.6589 5.1036,4.0383 m -25.0277,-19.8035 8.3522,6.6088 m 10.9866,11.5019 4.7989,3.7972 m -8.5006,-6.7262 0.4939,0.3907 m -6.6648,-5.2736 1.0018,0.7927 m -12.4932,-9.8854 8.0843,6.3968 m 12.3793,12.6039 4.8684,3.8522 m -9.3271,-7.3802 1.3646,1.0798 m -8.0651,-6.3817 1.6949,1.3412 m -13.0247,-10.306 8.0472,6.3675 m 13.367,13.3854 5.1592,4.0823 m -10.0652,-7.9642 1.8401,1.4559 m -9.0453,-7.1571 2.1316,1.6866 m -13.4597,-10.6502 8.1484,6.4476 m 14.1274,13.9871 5.5861,4.4201 m -10.7618,-8.5155 2.1129,1.6719 m -5.1615,-4.0841 0.7851,0.6212 m -5.3013,-4.1947 2.2711,1.797 m -13.43,-10.6267 8.0507,6.3703 m 26.9893,1.6953 0.7301,0.5777 m -21.995,-17.4038 5.6458,4.4673 m 13.3444,13.3675 1.9381,1.5336 m -22.9536,-18.1623 5.3152,4.2057 m 14.9406,14.6306 1.6834,1.3319 m -23.9644,-18.9621 8.9547,7.0855 m 16.8758,-3.4985 1.8616,1.4731 m -8.3347,-6.595 1.4458,1.144 m -8.6516,-6.8457 4.1257,3.2645 m 12.6068,12.784 0.8084,0.6396 m -5.2812,-4.1788 1.0906,0.8629 m -7.0027,-5.5409 0.6184,0.4893 m -8.9913,-7.1145 5.2571,4.1597 m 11.3321,11.7753 1.7024,1.3471 m -20.3169,-16.0761 6.5737,5.2016 m 9.4238,10.2653 3.102,2.4545 m -21.1247,-16.7151 4.5892,3.6312 m 15.9454,-4.2347 6.4168,5.0774 m -10.0546,-7.9558 2.27,1.7961 m -7.0153,-5.5509 1.7075,1.3511 m 9.1076,10.0151 2.3772,1.881 m -9.8131,-7.7648 2.2418,1.7739 m -7.6462,-6.0502 2.4024,1.9009 m 8.7881,9.7623 c 0.74,0.5856 1.4801,1.1712 2.2201,1.7568 m -9.2271,-7.3012 c 0.662,0.5239 1.3241,1.0478 1.9862,1.5717 m -8.1951,-6.4845 3.1927,2.5263 m 7.108,-2.8016 10.0578,7.9584 m -14.2828,-11.3014 1.1308,0.8947 m 49.20477,-7.0187 v 10.9974 c 0,3.912 5.07076,5.216 5.07076,0 v -10.9862 m -4.39368,0.0252 c 2.4849,7.1086 1.858296,12.265 1.858296,12.265 M 2.59776,-63.2764 c -2.149714,4.6825 -2.149714,12.2755 -2.149714,12.2755 m 2.805484,-12.304 0.90041,10.8926 c 0.32221,3.898 5.48214,4.7553 5.05253,-0.4419 L 8.3112,-63.6846 m -4.35949,0.35 c 3.03441,6.8375 2.8359,12.0007 2.8359,12.0007 m 1.09117,-12.3073 c -1.70708,4.8564 -1.09117,12.3073 -1.09117,12.3073 m 2.16793,-12.4169 0.79318,10.7857 c 0.28688,3.9009 5.43878,4.8077 5.05628,-0.3934 L 13.9867,-64.487 m -4.30979,0.6709 c 2.93919,6.83 2.69559,11.9546 2.69559,11.9546 m 1.3079,-12.5769 c -1.8779,4.8263 -1.3079,12.5769 -1.3079,12.5769 m 1.7481,-12.5322 1.6822,10.9481 c 0.5937,3.864 5.8002,4.3378 5.0086,-0.8143 l -1.7313,-11.2679 m -4.3334,1.0323 c 3.5928,6.6769 3.7583,11.9308 3.7583,11.9308 m 0.4023,-12.9342 c -1.6288,4.952 -0.4023,12.9342 -0.4023,12.9342 m 0.7628,-12.7498 2.3028,10.828 c 0.8127,3.8216 6.0372,3.9808 4.9536,-1.1147 l -2.3771,-11.1774 m -4.2601,1.3248 c 3.9668,6.4489 4.4313,11.6838 4.4313,11.6838 m -0.3235,-12.9791 c -1.365,5.0397 0.3235,12.9791 0.3235,12.9791 m 0.4015,-12.9387 3.2261,10.5755 c 1.1386,3.7326 6.3563,3.4151 4.8382,-1.5616 l -3.2406,-10.6231 m -4.2189,1.4139 c 4.5065,6.0622 5.4199,11.2342 5.4199,11.2342 m -1.4942,-12.5685 c -0.7722,5.1389 1.4942,12.5685 1.4942,12.5685 m 0.0756,-13.0199 c 4.3388,5.7681 5.3089,10.6617 5.3089,10.6617 m -6.1006,-10.437 3.293,10.0355 c 1.2162,3.7066 6.4261,3.274 4.8044,-1.6681 l -0.852,-2.5967 m -2.8708,-3.3742 c 0.44,4.1213 1.726,8.0405 1.726,8.0405 m -43.80067,-5.766 -1.00808,10.7352 c -0.36566,3.8938 4.55973,5.6933 5.04726,0.5015 l 1.01234,-10.7806 m -4.30888,-0.3499 c 1.73517,7.2058 0.65103,12.1777 0.65103,12.1777 m 3.20325,-11.859 c -2.50897,4.4655 -3.20325,11.859 -3.20325,11.859 m -7.0878,-13.3636 -1.0275,10.8486 c -0.3687,3.8936 4.55522,5.6972 5.04689,0.5058 L -8.36344,-63.898 M -12.6455,-64.7 c 1.7456,7.2329 0.6527,12.2257 0.6527,12.2257 m 3.03021,-11.521 c -2.36411,4.4881 -3.03021,11.521 -3.03021,11.521 m -6.5855,-13.9375 -2.6656,10.4488 c -0.9653,3.7839 3.6176,6.3691 4.9047,1.3239 l 2.6334,-10.3227 m -4.1597,-1.1999 c 0.5929,7.3947 -1.2479,12.122 -1.2479,12.122 m 4.9056,-11.0569 c -3.1101,4.0189 -4.9056,11.0569 -4.9056,11.0569 m -3.8838,-14.0968 -3.8385,9.6961 c -1.4344,3.6231 2.7838,6.798 4.6963,1.9672 l 3.8907,-9.8279 m -3.9667,-1.4894 c -0.3967,7.224 -2.7503,11.5414 -2.7503,11.5414 m 6.187,-10.2372 c -3.5545,3.5876 -6.187,10.2372 -6.187,10.2372 m -2.5274,-14.0736 -5.0736,9.7785 c -1.7906,3.4512 2.086,7.0576 4.4735,2.4559 l 5.1927,-10.0081 m -4.0334,-1.9193 c -1.0462,7.5552 -3.9929,11.8499 -3.9929,11.8499 m 7.8356,-10.0248 c -4.1746,2.9688 -7.8356,10.0248 -7.8356,10.0248 m -6.4699,-7.9609 -1.0868,1.3274 c -2.4498,2.9922 0.6121,7.3496 3.8786,3.36 l 7.2276,-8.8279 m -5.3866,1.4204 c -2.2458,4.4876 -4.5969,6.7249 -4.5969,6.7249 m 9.8865,-8.2084 c -4.7385,1.9206 -9.8865,8.2084 -9.8865,8.2084 m -8.8053,1.1379 c 9.1197,-28.293 17.9993,-50.1 26.5028,-61.743 m -21.7935,58.9506 c 7.4336,-22.7485 14.7042,-41.0916 21.7377,-53.0256 m -13.8878,48.455 c 4.8498,-14.4893 9.6278,-27.0337 14.3129,-37.072 m -9.5116,34.1142 c 3.4731,-10.2039 6.9084,-19.3864 10.2983,-27.3401 m -26.5706,34.3801 3.2566,0.773 m -2.6091,-2.7258 5.1381,1.2197 m -4.4905,-3.1724 7.0196,1.6663 m -6.3721,-3.6191 8.9011,2.113 m -8.2526,-4.0655 10.7818,2.5594 m -10.0952,-4.5029 12.6241,2.9967 m -11.9373,-4.9401 12.869,3.0548 m -12.1825,-4.9983 12.8639,3.0536 m -12.1772,-4.9971 12.8583,3.0523 M -37.397,-81.5 l 11.229,2.6655 m -8.6936,-3.9695 9.312,2.2105 m -5.509,-3.5145 6.2655,1.4873 m 5.1438,-47.7793 v 20.864 c 0,1.956 1.9015,17.604 2.5353,20.212 0.6339,2.608 6.9723,18.256 13.94462,18.256 6.9723,0 13.31078,-7.172 13.31078,-7.172 m 11.2429,-5.8159 c -2.3709,4.4988 -6.1658,8.6124 -9.4071,12.7265 m 1.8445,-7.0164 c -1.9818,2.5926 -4.17331,5.104 -6.12098,7.6227 m 9.99348,-10.3585 c -2.3371,3.4894 -5.3063,6.7863 -7.88357,10.0902 M 6.9944,-74.5666 c -1.15055,1.4029 -2.29696,2.7942 -3.3623,4.189 m 1.39249,-3.5342 c 5.56631,-1.4046 13.98011,-7.9616 17.46721,-11.1129 m 0.6692,1.2029 c -2.2948,4.2538 -5.8393,8.1672 -8.947,12.0691 m 9.8375,-10.3362 c -2.1419,3.4245 -4.9717,6.6496 -7.5529,9.8578 m 8.3923,-8.2501 c -1.8368,2.647 -4.0075,5.1885 -6.0568,7.7132 m 6.89,-6.2308 c -1.4233,1.909 -2.9794,3.7705 -4.4903,5.6193 m 5.2995,-4.1925 c -0.923,1.1781 -1.8803,2.341 -2.8286,3.4973 m -13.5849,-1.9914 c -1.51372,1.8699 -3.06802,3.7102 -4.4846,5.5558 m -4.646471,-1.3495 c -0.415613,0.5205 -0.823724,1.0408 -1.220331,1.5617 M 4.07143,-73.32 c -0.81918,1.0029 -1.62447,2.0022 -2.38742,3.0034 m -6.73705,-1.1188 c -0.20191,0.2556 -0.40175,0.5111 -0.59904,0.7667 m 2.22514,-0.4164 c -0.15455,0.1976 -0.30774,0.3952 -0.45934,0.5928 m 2.47699,-0.7409 c -0.2252,0.2866 -0.44764,0.5733 -0.66664,0.8601 m -6.58036,-3.659 c -0.68233,0.832 -1.35971,1.6606 -2.01611,2.489 m 3.09168,-1.4791 c -0.49936,0.6133 -0.99246,1.2253 -1.47279,1.8375 m 2.66628,-0.9625 c -0.3309,0.4119 -0.65757,0.8236 -0.97802,1.2355 m -4.11685,-6.6798 c -1.2624,1.6122 -2.5895,3.196 -3.8704,4.7731 m 4.7649,-3.5071 c -1.075,1.3336 -2.1748,2.6515 -3.235,3.9661 m 4.17013,-2.7771 c -0.88433,1.0811 -1.77243,2.1543 -2.62923,3.2262 m -4.145,-6.667 c -1.0489,1.3838 -2.1611,2.7438 -3.2682,4.0934 m 6.5007,-5.9191 c -1.553,2.2284 -3.3399,4.3826 -5.0884,6.5155 m 5.9415,-5.0652 c -1.4219,1.9035 -2.9745,3.7601 -4.481,5.6041 m 55.0853,-12.5763 c 0.0432,4e-4 0.0864,7e-4 0.1295,7e-4 M 21.436,-87.3874 c 2.6487,1.5688 6.4359,3.8665 10.464,5.5083 M 20.0425,-90.596 c 2.4584,1.4506 6.0009,3.6249 9.8309,5.2932 m -11.0519,-8.3996 c 2.2658,1.3339 5.4965,3.3231 9.0364,4.9558 m -10.151,-7.9995 c 2.0558,1.2097 4.9136,2.9659 8.0787,4.5052 m -9.0992,-7.4934 c 1.832,1.0793 4.2864,2.5792 7.0215,3.9726 m -7.9532,-6.9083 c 1.5871,0.937 3.6172,2.168 5.8804,3.3683 m -6.7259,-6.2533 c 1.2923,0.766 2.8563,1.705 4.5875,2.658 m -5.4139,-5.53 c 0.9759,0.578 2.0947,1.246 3.3151,1.937 m 5.5856,22.4031 c 2.8286,1.6789 6.7876,4.0338 10.926,5.5975 m -9.157,-2.1657 c 2.9802,1.7642 7.0032,4.0829 11.136,5.5164 m -9.0538,-1.9031 c 3.0722,1.7958 7.0167,3.9616 11.0029,5.2157 m -8.7158,-1.4951 c 3.0988,1.7661 6.8833,3.7185 10.6524,4.7753 m -7.9305,-0.8372 c 2.991,1.6241 6.4442,3.2503 9.8429,4.0813 m -6.5726,0.0834 c 2.6823,1.3334 5.6068,2.5347 8.4636,3.1254 m -4.7683,1.1125 c 2.1763,0.9327 4.4395,1.6946 6.6447,2.0624 m -2.8276,1.8885 c 1.5949,0.6298 3.2228,1.1504 4.8283,1.4767 m 25.6614,-18.7224 c 1.2599,-0.4893 3.579,-3.3127 6.1144,-3.3127 -2.5354,0 -4.8545,-2.8234 -6.1144,-3.3127 -1.3823,-0.5368 -3.3933,0.0527 -5.2948,1.3567 1.2677,-1.956 1.8407,-4.0246 1.3188,-5.4465 -0.4756,-1.296 -3.2204,-3.6815 -3.2204,-6.2895 0,2.608 -2.7448,4.9935 -3.2204,6.2895 -0.5218,1.4219 0.0512,3.4905 1.3189,5.4465 -1.9015,-1.304 -3.9125,-1.8935 -5.2949,-1.3567 -1.2598,0.4893 -3.5789,3.3127 -6.1143,3.3127 2.5354,0 4.8545,2.8234 6.1143,3.3127 1.3824,0.5368 3.3934,-0.0527 5.2949,-1.3567 -1.2677,1.956 -1.8407,4.0246 -1.3189,5.4465 0.4756,1.296 3.2204,3.6815 3.2204,6.2895 0,-2.608 2.7448,-4.9935 3.2204,-6.2895 0.5219,-1.4219 -0.0511,-3.4905 -1.3188,-5.4465 1.9015,1.304 3.9125,1.8935 5.2948,1.3567 z m -15.7793,-5.9064 c -2.5957,-3.383 2.4874,-8.8963 6.0311,-6.1095 m 11.4181,6.5062 c 3.5005,-3.4654 -2.4678,-9.9297 -6.1433,-6.0844 m -11.179,10.7185 c -2.9081,3.397 2.4022,9.2029 6.004,6.1851 m 11.3014,-6.4418 c 3.5387,3.4634 -2.4523,9.9604 -6.1331,6.094 m -4.6178,-10.2304 -4.4369,-4.564 m 8.24,4.564 4.4369,-4.564 m -8.24,8.476 -4.4369,4.564 m 8.24,-4.564 4.4369,4.564 m -7.5583,4.0972 c 0.4829,10.5328 4.4544,13.6544 4.4439,21.1178 m -2.5135,-20.5654 c 0.5482,9.3236 3.8604,12.7152 4.3536,18.9582 m -1.8949,1.1682 c -1.2915,-4.8812 -7.9895,-11.2554 -14.5785,-7.824 5.8364,-0.4659 5.0324,10.505 14.5785,7.824 z m 0.0548,0.4094 c -2.2192,-3.583 -4.9336,-4.9591 -7.661,-6.2774 m 9.5077,3.912 c -1.2289,-8.2684 0.3418,-13.9603 6.9723,-14.996 -4.5144,4.1522 0.8811,13.1919 -6.9723,14.996 z m 0,0 c 0.6237,-4.1658 1.6205,-7.7381 3.1692,-10.432 m -77.5898,-71.714 c 2.31408,7.42 7.03298,11.019 13.6288,11.635 M -1.18435,-130.4 c 2.052365,4.576 5.27112,7.298 9.47038,8.461 m -6.5265,-8.414 c 1.18764,1.973 2.65132,3.508 4.36879,4.639 m -25.73912,8.626 c 8.8148,-5.079 9.4639,-9.168 10.55965,-13.312 m -10.59205,10.216 c 5.8473,-3.783 7.2772,-7.032 8.1731,-10.217 m -8.1971,6.302 c 2.9802,-2.244 4.4742,-4.309 5.374,-6.301 m 8.58844,43.032 c 0,0 -0.63384,-2.608 -1.90153,-2.608 -1.26769,0 -2.54171,-0.5137 -2.54171,-2.4697 0,-1.304 3.01202,-10.6363 1.90786,-18.3943 -3.45316,-2.521 -7.10366,-3.866 -11.40916,-1.304 0.2168,-0.048 0.4397,0.021 0.6501,-0.049 3.7868,-1.255 7.3691,-1.198 10.75906,1.353 m 4.43692,0 c 4.555814,-5.586 9.56004,-2.923 14.57842,0 -4.76795,-2.15 -9.50766,-4.564 -13.87787,0.024 -0.14565,0.153 -0.54199,-0.177 -0.70055,-0.024 z m 1.26769,15.648 c 3.84956,-0.1317 3.169225,4.564 1.26769,4.564 -0.83036,0 -1.69405,-1.0651 -2.36604,-1.1237 -2.07088,-0.1803 -2.07088,1.1237 0.4645,0.4717 m -6.33845,6.52 v 1.304 l 0.63385,-0.652 z m 12.04306,-0.652 v 1.304 L 1.90138,-84.76 Z m -11.40921,1.304 c 1.5145,0.8176 1.8362,-0.6198 2.53538,-0.652 0.63384,0 1.35096,0.6124 1.9848,0.6124 0.63385,0 1.62625,-0.8034 2.2601,-0.8034 2.258397,1.4281 2.450897,0.2476 3.99508,0.191 m -8.87383,3.26 c 1.65574,2.0332 3.6313,1.4209 5.70461,0 -1.71257,1.0473 -3.68149,0.6738 -5.70461,0 z m -12.04305,-24.776 c 0.457,-1.175 1.8224,-2.238 3.2163,-2.229 2.4728,0.016 4.3898,2.881 6.29137,2.881 m -9.78617,0.205 c 0.4177,1.256 1.8611,1.707 3.4477,1.751 2.724,0.137 4.4369,-1.304 6.33847,-1.956 m 6.9723,0 c 2.785069,-0.102 3.88022,-2.295 5.7046,-2.608 3.80307,-0.652 6.33845,2.608 8.24003,2.608 m -11.40925,-0.652 c -0.633845,1.956 2.15295,3.248 3.80307,3.26 2.42802,0.018 5.7046,-2.608 7.60618,-2.608 m -57.8856,44.9354 c 26.7492,19.062 60.0839,20.5193 90.9947,5.2989 M -59.5816,-7.172 c 0,0.51876 -0.2003,1.01628 -0.5569,1.3831 -0.3566,0.36682 -0.8403,0.5729 -1.3446,0.5729 -0.5043,0 -0.988,-0.20608 -1.3446,-0.5729 -0.3566,-0.36682 -0.557,-0.86434 -0.557,-1.3831 0,-0.51876 0.2004,-1.01628 0.557,-1.3831 0.3566,-0.36682 0.8403,-0.5729 1.3446,-0.5729 0.5043,0 0.988,0.20608 1.3446,0.5729 0.3566,0.36682 0.5569,0.86434 0.5569,1.3831 z m 0,0 c 0,0.51876 -0.2003,1.01628 -0.5569,1.3831 -0.3566,0.36682 -0.8403,0.5729 -1.3446,0.5729 -0.5043,0 -0.988,-0.20608 -1.3446,-0.5729 -0.3566,-0.36682 -0.557,-0.86434 -0.557,-1.3831 0,-0.51876 0.2004,-1.01628 0.557,-1.3831 0.3566,-0.36682 0.8403,-0.5729 1.3446,-0.5729 0.5043,0 0.988,0.20608 1.3446,0.5729 0.3566,0.36682 0.5569,0.86434 0.5569,1.3831 z M -75.627,8.13433 c 0,0.51876 -0.2003,1.01628 -0.5569,1.3831 -0.3567,0.36682 -0.8403,0.57287 -1.3446,0.57287 -0.5044,0 -0.988,-0.20605 -1.3446,-0.57287 -0.3566,-0.36682 -0.557,-0.86434 -0.557,-1.3831 0,-0.51877 0.2004,-1.01628 0.557,-1.3831 0.3566,-0.36683 0.8402,-0.5729 1.3446,-0.5729 0.5043,0 0.9879,0.20607 1.3446,0.5729 0.3566,0.36682 0.5569,0.86433 0.5569,1.3831 z M 56.5415,0.359682 82.3997,-24.2689 M -13.9447,0.652 c -4.6639,2.8991 -1.6603,-1.80025 -1.2677,-3.912 -2.053,0.40377 -6.6215,3.49339 -3.8031,-1.304 -0.1751,-0.2981 -0.3217,-0.56575 -0.4422,-0.80548 -1.8181,-3.61833 2.3199,-0.8772 4.2453,-0.49852 -0.3926,-2.11176 -3.3962,-6.8111 1.2677,-3.912 4.66377,-2.8991 1.6602,1.80024 1.2676,3.912 1.9733,-0.38808 6.27046,-3.25747 4.09864,0.78013 -0.08775,0.16314 -0.18607,0.33756 -0.29552,0.52387 2.81839,4.797403 -1.75012,1.70777 -3.80312,1.304 0.3926,2.11175 3.39617,6.8111 -1.2676,3.912 z M -2.53553,4.51719 C -7.9837,4.62919 -3.09826,2.10424 -1.73185,0.477303 -3.70602,-0.228904 -9.16426,0.0971089 -4.39156,-2.608 -4.50044,-8.21223 -2.04581,-3.18685 -0.464157,-1.7813 0.222385,-3.81201 -0.0945574,-9.42659 2.53523,-4.51719 7.9834,-4.6292 3.09796,-2.10425 1.73155,-0.477297 3.70572,0.228904 9.16396,-0.0971089 4.39126,2.608 4.50014,8.21223 2.0455,3.18685 0.463856,1.7813 -0.222684,3.81201 0.0942599,9.42659 -2.53553,4.51719 Z M 65.9197,-79.87 c 1.1802,0 2.2185,1.068 2.2185,2.282 0,1.214 -1.0383,2.282 -2.2185,2.282 -1.1801,0 -2.2184,-1.068 -2.2184,-2.282 0,-1.214 1.0383,-2.282 2.2184,-2.282 z"
       id="path1641"
       style="display:inline"
       sodipodi:nodetypes="cccccccccccccccccccccccccccccccccccccccccccccccccccccccccccccccccccccccccccccccsccccsccccccccccccccccccccccccccscscccsccscccccccccccccccssccccccccccccsccscccccccccccsscccsscccssccssscccccccccccccccccccccccccccccccccccccccccsscccscccccccccccccccccccccccccccccccccccccccscccccccccccccccccccccccccccccccccccccscscccscccccccccccccccccccccccccccccccccccccccccccccccccccccccccccccccccccccccccccccccccccccccccccccccccccccccccccccccccccccccccccccccccccccccccccccccccccccccccccccccccccccccccccccccccccccccccccccccccccccccssccccccssccccccscccccccsscccccccccccccccccccccccccccccccscccccccsccccccccccccccccccccccccccccccscccccccccccccccccccccccccccccccccccccccscscccccccccccccccccccccccccccccccccccccccccccccccccccccccccccccccccccccccccccccccccccccscscccscccccscccscccccccccccccccccccccccccccccccccccccccccccsscccccccccsccccccccccccscccccccccccccccccccssssssssssssssssssscssssscscccccccccsccccccccccccsssss"
       inkscape:label="layer-16" />
    <path
       stroke="#4444ff"
       stroke-linecap="round"
       stroke-linejoin="round"
       stroke-width="0.77143"
       fill="none"
       d="M 33.1557,20.3491 C 25.1037,18.0402 20.1309,8.38468 21.9069,-2.05651 23.7884,-13.1186 32.5326,-20.8736 41.4377,-19.3777 c 0.4492,0.0754 0.8902,0.173 1.3224,0.2917 M -59.5176,43.6651 c 1.2611,-3.6768 1.9114,-8.0406 2.5202,-12.9297 0.9282,-7.4541 1.5536,-16.1415 2.8127,-25.06733 2.4294,-17.22167 7.1951,-35.02967 20.2742,-46.46947"
       id="path1645"
       style="display:inline"
       sodipodi:nodetypes="cccccscc"
       inkscape:label="layer-17" />
    <path
       stroke="#4444ff"
       stroke-linecap="round"
       stroke-linejoin="round"
       stroke-width="0.385715"
       fill="none"
       d="m 69.4522,-45.64 c 1.275,0.3801 3.2336,-1.1525 3.2336,-1.1525 m -0.7877,3.1085 c 1.6278,0.652 1.6278,2.608 1.6278,2.608 m -1.417,1.0964 c 1.3115,1.1869 0.6591,3.0242 0.6591,3.0242 m -0.5098,1.7474 c 1.1886,1.3168 0.3596,3.0771 0.3596,3.0771 m -0.9425,0.6535 c 1.1768,1.328 0.332,3.0804 0.332,3.0804 m 2.7863,-17.895 c 0.6392,0.3073 1.113,0.7119 1.2676,1.304 m -0.8953,4.0149 c 0.5399,0.4674 0.8953,0.9845 0.8953,1.5977 m -0.9018,3.1134 c 0.4678,0.5433 0.7462,1.1083 0.6593,1.7149 m -0.8758,3.1692 c 0.2406,0.6824 0.2973,1.3131 0,1.8442 M -6.97245,-77.588 c 1.60783,-0.7903 3.2819,-0.9454 5.07076,0 m -17.74761,-31.296 c 2.5353,-2.608 5.7046,-2.608 7.6061,-0.652 m -4.4369,9.128 c 2.5354,0.652 5.0707,-1.956 5.0707,-1.956 m 11.40925,-6.52 c 3.80307,-1.956 7.60614,0 9.50767,1.956 v 0 m -6.97229,6.52 c 4.43691,0 6.97229,-2.608 6.97229,-2.608 m -23.25872,-4.912 c 0.1943,0.458 0.3058,0.991 0.3058,1.56 0,1.698 -0.9932,3.075 -2.2184,3.075 -1.2252,0 -2.2185,-1.377 -2.2185,-3.075 0,-0.639 0.1407,-1.233 0.3814,-1.725 m 22.93413,0.01 c 0.38272,0.553 0.61795,1.303 0.61795,2.13 0,1.698 -0.99324,3.075 -2.21846,3.075 -1.22522,0 -2.21846,-1.377 -2.21846,-3.075 0,-0.735 0.18603,-1.41 0.49637,-1.939"
       id="path1649"
       style="display:inline"
       inkscape:label="layer-18" />
    <path
       id="path1667"
       d="m 53.4537,-41.5174 c 0.1376,-0.7802 1.0555,-1.4228 1.8358,-1.2852 0.7802,0.1376 1.4229,1.0553 1.2165,2.2255 -0.3439,1.9503 -4.0153,4.5207 -4.1529,5.3008 0.1376,-0.7801 -2.4332,-4.4509 -2.0892,-6.4013 0.2063,-1.1702 1.1242,-1.8128 1.9045,-1.6752 0.7802,0.1375 1.4229,1.0552 1.2853,1.8354 z m -1.9741,15.2249 c 0.0691,-0.7891 0.9274,-1.5092 1.7167,-1.4402 0.7893,0.069 1.5095,0.9273 1.4059,2.111 -0.1726,1.9729 -3.606,4.8534 -3.675,5.6426 0.069,-0.7892 -2.8119,-4.222 -2.6393,-6.1949 0.1036,-1.1838 0.9619,-1.9039 1.7512,-1.8349 0.7893,0.0691 1.5096,0.9273 1.4405,1.7164 z m -1.7284,16.42261 c 0.0414,-0.79111 0.8741,-1.54071 1.6654,-1.49931 0.7912,0.0415 1.5409,0.8741 1.4787,2.06069 -0.1036,1.97774 -3.4344,4.97628 -3.4759,5.76737 0.0415,-0.79109 -2.9575,-4.12131 -2.8538,-6.09905 0.0622,-1.18661 0.8948,-1.93631 1.6861,-1.89481 0.7912,0.0415 1.5409,0.874 1.4995,1.66511 z M 46.6773,6.51885 c 0.205,-0.76519 1.1754,-1.32534 1.9407,-1.12031 0.7653,0.20503 1.3256,1.17525 1.018,2.32303 -0.5127,1.91297 -4.3942,4.15363 -4.5992,4.91873 0.205,-0.7651 -2.036,-4.64602 -1.5233,-6.55898 0.3076,-1.14778 1.278,-1.70794 2.0433,-1.50291 0.7653,0.20503 1.3255,1.17525 1.1205,1.94044 z M 41.3975,22.5436 c 0.3962,-0.686 1.4785,-0.976 2.1647,-0.5799 0.6861,0.3961 0.9761,1.4782 0.3819,2.5073 -0.9904,1.7151 -5.3196,2.8749 -5.7158,3.561 0.3962,-0.6861 -0.7639,-5.0146 0.2265,-6.7297 0.5943,-1.0291 1.6766,-1.3191 2.3627,-0.923 0.6862,0.3961 0.9762,1.4783 0.58,2.1643 z"
       style="display:inline"
       inkscape:label="layer-13" />
    <path
       d="m -61.84,-118.24 c 0,-4.64 4.64,-9.28 9.28,-9.28 4.64,0 9.28,4.64 9.28,11.6 0,11.6 -18.56,30.16 -18.56,34.8 0,-4.64 -18.56,-23.2 -18.56,-34.8 0,-6.96 4.64,-11.6 9.28,-11.6 4.64,0 9.28,4.64 9.28,9.28 z"
       fill="#ff0000"
       id="path1663"
       style="display:none" />
  </g>
</svg>
