<?xml version="1.0" encoding="UTF-8" standalone="no"?>
<svg
   class="card"
   face="QS"
   height="3.5in"
   preserveAspectRatio="none"
   viewBox="-120 -168 240 336"
   width="2.5in"
   version="1.1"
   id="svg83"
   sodipodi:docname="q-spade.svg"
   inkscape:version="1.2.2 (732a01da63, 2022-12-09)"
   xmlns:inkscape="http://www.inkscape.org/namespaces/inkscape"
   xmlns:sodipodi="http://sodipodi.sourceforge.net/DTD/sodipodi-0.dtd"
   xmlns="http://www.w3.org/2000/svg"
   xmlns:svg="http://www.w3.org/2000/svg">
  <sodipodi:namedview
     id="namedview85"
     pagecolor="#505050"
     bordercolor="#eeeeee"
     borderopacity="1"
     inkscape:showpageshadow="0"
     inkscape:pageopacity="0"
     inkscape:pagecheckerboard="0"
     inkscape:deskcolor="#505050"
     inkscape:document-units="in"
     showgrid="false"
     inkscape:zoom="4.3226111"
     inkscape:cx="120.87601"
     inkscape:cy="158.81605"
     inkscape:window-width="1278"
     inkscape:window-height="1368"
     inkscape:window-x="0"
     inkscape:window-y="0"
     inkscape:window-maximized="0"
     inkscape:current-layer="layer1" />
  <defs
     id="defs39" />
  <g
     inkscape:groupmode="layer"
     id="layer1"
     inkscape:label="Layer 1">
    <path
       d="M 1,0 0,1 -1,0 0,-1"
       id="path1736"
       fill="#ff0000"
       inkscape:label="layer-0"
       style="display:inline;stroke-width:0.264583" />
    <path
       fill="#ffcc44"
       d="m -1.85142,-130.4 27.44182,40.7289 c 5.4814,-1.7238 11.0243,-2.8675 15.6094,-3.5649 -6.3509,-12.62 -9.5211,-24.886 -12.7896,-37.164 z m -43.08508,3.558 c -6.2434,20.042 -19.3667,40.1965 -10.9368,59.4362 l -2.2101,1.7537 c 0.2238,19.7036 3.8139,37.369 9.4495,51.9787 2.2978,2.7758 4.8885,5.49187 7.7936,8.36062 0.4578,0.45207 0.9234,0.90792 1.4373,1.38473 L 31.8795,-3.912 31.827,-3.97975 c -0.0155,-0.01799 -0.0301,-0.03575 -0.0455,-0.05374 1.9367,2.25368 4.1391,4.580401 6.6321,6.982 C 48.1902,12.3667 54.5105,19.56 60.849,32.6 67.5654,23.3882 73.2959,18.2433 82.3997,12.6766 V 7.77331 C 73.7009,12.9025 67.5751,17.7691 61.5393,24.9818 55.8411,14.8304 49.6334,7.95064 41.2297,-0.144917 31.5877,-9.43339 26.7433,-17.3044 24.8295,-23.6724 c -1.9138,-6.368 -1.1293,-11.2931 1.0077,-15.7744 3.5897,-7.5275 11.6011,-13.347 17.6298,-17.4557 l -3.3948,-2.8024 c -8.8191,5.9945 -21.9157,16.1089 -20.2825,31.863 L 6.32072,-27.71 -10.3873,-7.83801 -27.9547,-7.84183 C -9.11987,-30.8658 12.1479,-52.9387 31.5891,-71.055 l -1.213,-1.4331 c -3.6594,-0.3939 -7.0539,-1.3531 -10.2071,-2.7942 -0.2252,0.5441 -0.5621,1.0459 -1.007,1.4649 -17.24586,16.2322 -34.9487,30.155 -48.3458,51.5753 l -3.4648,-2.293 c 13.8478,-22.1409 31.962279,-36.3452 49.0294,-52.4091 l 2.2202,0.895 c -2.2495,-1.1719 -4.3719,-2.5939 -6.3754,-4.2359 -15.80969,3.7857 -26.4028,4.7571 -33.8812,4.1705 0,0 -2.4487,1.9045 -3.7164,1.9045 -1.9016,0 -3.2428,-0.736 -3.8766,-0.736 -0.6339,0 -1.2677,0.652 -3.1693,0.652 -1.9015,0 -3.803,-3.26 -5.0707,-6.52 -0.192,-0.2633 -0.3822,-0.532 -0.5366,-0.7554 l -4.9717,3.9453 1.3323,-0.071 c 0.9093,18.0542 -0.1595,36.6731 5.4548,53.2207 l -3.4757,2.3037 c -0.1685,-0.2779 -0.3085,-0.5811 -0.4143,-0.9072 -5.7618,-16.9823 -4.866,-35.2494 -5.5882,-52.4106 l -8.8362,7.012 2.5614,-2.1638 c -6.7207,-20.9187 3.2251,-35.9156 7.6056,-52.0706 z m -26.6881,6.874 c -6.9723,6.52 -12.6769,18.908 -4.437,18.908 1.1845,0 1.929,-0.745 2.4847,-2.033 l -0.007,7.1469 C -74.3987,-97.0436 -75.4,-97.8 -76.6954,-97.8 c -4.4369,0 -5.0708,9.128 -0.6338,9.128 3.1012,0 2.9103,-5.6179 1.3706,-5.8591 6.7799,0.6632 -2.0041,32.6214 -1.9399,38.6272 0.034,3.1802 0.8403,6.3553 3.9886,7.3296 -2.3828,0.6515 -4.0532,2.3044 -4.0532,4.2383 0,1.8658 1.5549,3.47 3.8519,4.2062 -3.0057,0.9545 -3.8519,3.7143 -3.8519,6.2258 0,4.7262 1.6652,12.5356 2.601,16.4734 3.4338,-2.5798 6.4103,-5.3335 9.295,-8.6209 0.4194,-2.778 0.7809,-5.6501 0.7809,-7.8525 0,-2.5297 -0.8584,-5.3114 -3.9105,-6.2645 1.7589,-0.6792 3.1856,-2.0044 3.9105,-4.1675 0,-1.9343 -1.671,-3.5874 -3.9028,-4.29 3.0496,-1.129 3.8053,-4.2011 3.8382,-7.2779 0.0642,-6.0058 -8.7197,-37.964 -1.9399,-38.6272 -1.5396,0.2412 -1.7305,5.8591 1.3707,5.8591 4.4369,0 3.803,-9.128 -0.6339,-9.128 -1.3734,0 -2.4162,0.8504 -3.1786,1.9588 l 0.0413,-7.2688 c 0.5373,1.267 1.2892,2.05 2.5035,2.05 8.24,0 2.5354,-12.388 -4.4369,-18.908 z m 81.3198,37.5341 c -10.98142,2.5864 -19.24201,3.6734 -25.4558,3.8131 -1.8033,0.8182 -3.8122,1.5547 -5.8034,2.4723 7.4784,0.5866 18.07147,-0.3848 33.8723,-4.1776 -0.9828,-0.6791 -1.824,-1.4043 -2.6131,-2.1078 z m -46.9667,11.5131 c 3.7558,1.5316 8.2291,2.8113 13.9483,3.2796 6.5036,0.5326 14.64899,0.0634 25.42538,-1.8783 -12.49588,11.3611 -25.15408,23.1305 -35.79118,38.9685 -3.1707,-12.3627 -3.1326,-26.2152 -3.5825,-40.3698 z m 104.7758,2.2978 c -3.0475,0 -6.092,2.2621 -3.7852,6.7839 1.0423,-0.9026 2.389,-1.4024 3.7852,-1.4049 1.3963,0.002 2.7434,0.5014 3.786,1.4036 2.3055,-4.5209 -0.7387,-6.7826 -3.786,-6.7826 z m -6.9331,6.1915 c -5.736,0.101 -4.7719,12.7449 2.8894,8.6346 -1.0627,-1.0375 -1.6598,-2.4414 -1.6609,-3.9051 0.0016,-1.4637 0.5991,-2.8674 1.6621,-3.9046 -1.1015,-0.5912 -2.066,-0.8395 -2.8906,-0.8249 z m 13.8663,0 c -0.8243,-0.0146 -1.7884,0.2337 -2.8894,0.8244 1.0627,1.0375 1.6598,2.4414 1.6608,3.9051 -0.0014,1.4637 -0.5989,2.8673 -1.6618,3.9046 7.6623,4.1121 8.6267,-8.5331 2.8904,-8.6341 z m -3.1477,8.8664 c -1.0423,0.9027 -2.3891,1.4026 -3.7855,1.4051 -1.3962,-0.002 -2.7433,-0.5014 -3.7859,-1.4036 -1.5197,2.9799 -0.7139,4.9773 0.8839,5.9931 -3.0022,4.4941 -6.2042,8.6097 -9.5013,12.5454 -0.6963,-7.2642 -3.3222,-11.2072 -10.0982,-8.0069 4.719,2.103 4.8896,9.1693 9.628,8.5669 -0.7436,0.8816 -1.4918,1.7548 -2.2434,2.6213 l 1.9278,0.246 c 0.9197,-1.0681 1.8333,-2.1474 2.7396,-3.2409 0.6583,5.0962 4.4458,-0.9877 8.5205,-0.7172 -2.0892,-5.4433 -4.0629,-1.3699 -8.4274,0.6046 3.1148,-3.7641 6.1366,-7.7044 8.9756,-11.9909 3.368,0.7991 7.8268,-1.4081 5.1663,-6.6229 z m 5.4053,8.5771 c -4.1787,5.0522 -8.0963,10.1685 -15.8461,14.344 2.1321,3.9398 3.3789,7.8512 3.803,11.736 5.9875,2.3894 10.5076,6.7596 14.5785,11.736 0.2969,-4.8305 -0.5448,-9.3089 -3.8031,-13.04 2.96,-0.6518 5.0711,-2.6105 6.3385,-5.868 -1.8418,-3.182 -4.5607,-4.264 -7.6062,-4.564 5.6888,-4.1946 3.8369,-9.3026 2.5354,-14.344 z m -56.1733,21.2272 c 1.3773,5.4332 4.4803,11.476 9.9623,18.18085 -0.6241,-0.7593 -1.225,-1.51044 -1.8028,-2.24991 L -7.63328,-7.8375 0.556693,-7.8971 10.0886,-19.234 21.9901,-19.2783 c -0.6216,-1.5526 -1.1084,-3.0502 -1.4683,-4.4825 z m -55.0665,3.2228 c 0.5607,0 1.1813,0.2611 1.8847,1.2049 0.7034,0.9438 1.2845,2.5144 1.2845,4.3371 0,1.8227 -0.5811,3.3933 -1.2845,4.3371 -0.7034,0.94376 -1.324,1.2049 -1.8847,1.2049 -0.5607,0 -1.1813,-0.26114 -1.8847,-1.2049 -0.7034,-0.9438 -1.2845,-2.5144 -1.2845,-4.3371 0,-1.8227 0.5811,-3.3933 1.2845,-4.3371 0.7034,-0.9438 1.324,-1.2049 1.8847,-1.2049 z"
       id="path1601"
       style="display:inline"
       inkscape:label="layer-1" />
    <path
       fill="#ff0000"
       d="m -11.7241,-130.4 31.4957,43.0916 5.7106,-2.4071 L -1.85514,-130.4 Z m 9.89075,0 8.08351,11.834 c 1.35579,-3.358 3.25736,-3.358 3.25736,-3.358 -1.07671,-4.984 0.4202,-6.246 1.03968,-8.476 z m 23.38395,34.556 4.0398,6.1729 c 3.2504,-1.0222 6.5225,-1.8404 9.6074,-2.4871 -2.5223,-0.3317 -5.3414,-1.1226 -7.9426,-3.0338 -1.2677,0.652 -3.8031,1.304 -5.7046,-0.652 z m 12.5662,28.2038 C 14.4699,-49.4195 -6.90229,-27.7653 -22.7735,-7.82247 L -15.8463,-7.824 4.43676,-31.948 H 19.702 l -0.0069,-0.0537 c 0.8081,-13.4002 12.3601,-22.2539 20.3353,-27.6746 z m -92.2143,2.0294 -7.5886,6.0437 -0.0502,0.0398 c 0.2448,1.5707 0.394,2.8287 0.3855,3.6234 -0.0329,3.0768 -0.7886,6.1489 -3.8382,7.2779 2.2318,0.7026 3.9028,2.3557 3.9028,4.29 -0.7249,2.1631 -2.1516,3.4883 -3.9105,4.1675 3.0521,0.9531 3.9105,3.7348 3.9105,6.2645 0,2.2024 -0.3615,5.0745 -0.7809,7.8525 -0.2474,0.2819 -0.4955,0.5598 -0.7445,0.8339 1.9776,-2.1707 3.9248,-4.5879 5.9623,-7.3824 3.8349,7.8895 7.6631,13.6388 12.2785,19.0012 -5.6989,-14.6843 -9.2887,-32.3497 -9.5267,-52.012 z m -18.6573,14.8019 -5.6452,4.4667 v 33.6651 c 3.9042,-2.3885 7.1887,-4.7005 10.1957,-7.2873 -1.0141,0.87 -2.0624,1.7109 -3.1578,2.5338 -0.9358,-3.9378 -2.601,-11.7472 -2.601,-16.4734 0,-2.5115 0.8462,-5.2713 3.8519,-6.2258 -2.297,-0.7362 -3.8519,-2.3404 -3.8519,-4.2062 0,-1.9339 1.6704,-3.5868 4.0532,-4.2383 -1.324,-0.4097 -2.2326,-1.2097 -2.8449,-2.2346 z m 150.8675,8.9711 -0.1421,0.1365 c -2.5423,3.0048 -5.308,5.9548 -9.095,8.5703 3.4376,5.134 4.6465,10.4807 3.5171,16.056 3.2249,1.9253 5.9877,4.4166 8.6045,7.28176 -1.2791,-3.77556 -3.4173,-8.87396 -8.1917,-11.65296 4.7033,-0.7581 6.6679,-2.0889 8.5234,-4.6338 -3.6227,-2.7708 -6.3987,-2.0792 -9.7995,-2.0434 4.9628,-2.8552 6.3304,-8.4476 6.5833,-13.7144 z m -142.4735,18.2665 c -0.1,0.1025 -0.2004,0.2043 -0.3009,0.3059 0.1004,-0.1015 0.2008,-0.2034 0.3009,-0.3059 z m -0.6532,0.6586 c -0.0974,0.0968 -0.1945,0.1939 -0.2924,0.2898 0.0978,-0.0959 0.195,-0.193 0.2924,-0.2898 z m -0.667,0.6528 c -0.2634,0.2537 -0.528,0.5055 -0.7953,0.7536 0.2668,-0.248 0.5318,-0.4996 0.7953,-0.7536 z m -0.829,0.7852 c -0.1861,0.1725 -0.3733,0.3437 -0.5615,0.5137 0.1879,-0.1701 0.3754,-0.341 0.5615,-0.5137 z m 35.9653,3.5447 c -0.3698,0 -0.7245,0.3091 -0.986,0.8593 -0.2615,0.5503 -0.4085,1.2966 -0.4085,2.0747 0,0.7781 0.147,1.5244 0.4085,2.0747 0.2615,0.5502 0.6162,0.8593 0.986,0.8593 0.3698,0 0.7245,-0.3091 0.986,-0.8593 0.2615,-0.5503 0.4085,-1.2966 0.4085,-2.0747 0,-0.7781 -0.147,-1.5244 -0.4085,-2.0747 -0.2615,-0.5502 -0.6162,-0.8593 -0.986,-0.8593 z m 28.54531,16.62142 c -0.33622,0 -0.65866,0.13738 -0.8964,0.381928 -0.23773,0.244547 -0.37129,0.576225 -0.37129,0.92206714 0,0.72017686 0.56756,1.30399486 1.26769,1.30399486 0.70012,0 1.26768,-0.583818 1.26769,-1.30399486 C -4.7317,-0.350427 -4.86526,-0.682105 -5.103,-0.926652 -5.34074,-1.1712 -5.66318,-1.30858 -5.99939,-1.30858 Z M -29.157,-1.304 c -0.3362,0 -0.6587,0.13739 -0.8964,0.381933 -0.2378,0.244547 -0.3713,0.576225 -0.3713,0.922067 0,0.345842 0.1335,0.67752 0.3713,0.922067 0.2377,0.244543 0.5602,0.381933 0.8964,0.381933 0.3362,0 0.6586,-0.13739 0.8964,-0.381933 C -28.0229,0.67752 -27.8893,0.345842 -27.8893,0 c 0,-0.345842 -0.1336,-0.67752 -0.3713,-0.922067 C -28.4984,-1.16661 -28.8208,-1.304 -29.157,-1.304 Z m 11.5528,0.05348 c -0.3362,0 -0.6587,0.13739 -0.8964,0.381939 -0.2377,0.244549 -0.3713,0.576228 -0.3713,0.9220711 0,0.3458419 0.1336,0.6775199 0.3713,0.9220669 0.2377,0.244543 0.5602,0.381933 0.8964,0.381933 0.3362,0 0.6586,-0.13739 0.8964,-0.381933 0.2377,-0.244547 0.3713,-0.576225 0.3713,-0.9220669 0,-0.3458431 -0.1336,-0.6775221 -0.3713,-0.9220711 -0.2377,-0.244549 -0.5602,-0.381939 -0.8964,-0.381939 z"
       id="path1605"
       style="display:inline"
       inkscape:label="layer-4" />
    <path
       fill="#4444ff"
       d="m -22.5016,-110.84 c -0.4203,0 -0.8234,0.275 -1.1205,0.764 -0.2972,0.489 -0.4642,1.152 -0.4642,1.844 0,0.692 0.167,1.355 0.4642,1.844 0.2971,0.489 0.7002,0.764 1.1205,0.764 0.4202,0 0.8233,-0.275 1.1204,-0.764 0.2972,-0.489 0.4642,-1.152 0.4642,-1.844 0,-0.692 -0.167,-1.355 -0.4642,-1.844 -0.2971,-0.489 -0.7002,-0.764 -1.1204,-0.764 z m -17.7477,0.652 c -0.4203,0 -0.8233,0.275 -1.1205,0.764 -0.2972,0.489 -0.4641,1.152 -0.4641,1.844 0,0.692 0.1669,1.355 0.4641,1.844 0.2972,0.489 0.7002,0.764 1.1205,0.764 0.4203,0 0.8233,-0.275 1.1205,-0.764 0.2972,-0.489 0.4641,-1.152 0.4641,-1.844 0,-0.692 -0.1669,-1.355 -0.4641,-1.844 -0.2972,-0.489 -0.7002,-0.764 -1.1205,-0.764 z m 2.9778,39.2672 c 0.4499,14.1546 0.4118,28.0071 3.5825,40.3698 10.6371,-15.838 23.2953,-27.6074 35.79118,-38.9685 -10.77639,1.9417 -18.92178,2.4109 -25.42538,1.8783 -5.7192,-0.4683 -10.1925,-1.748 -13.9483,-3.2796 z m 5.4417,2.989 c 2.8619,0.0135 6.6589,0.3057 10.5849,0.8145 8.3345,1.0803 14.97823,2.8243 14.83895,3.8955 -0.13923,1.0711 -7.13825,0.6623 -15.47245,-0.418 -8.3338,-1.0802 -14.847,-2.4226 -14.7087,-3.4938 0.0677,-0.5243 1.7838,-0.8122 4.7573,-0.7982 z m 91.0942,1.7538 c 0.3043,1.0959 0.5358,2.3797 0.694,3.7612 v 0.0471 c 0.9365,-0.1778 2.0873,0.011 3.4522,0.7333 l -2.6961,-2.7733 c -0.0555,-0.0555 -0.0728,-0.1401 -0.0437,-0.2138 0.0291,-0.0738 0.0988,-0.1221 0.1762,-0.1221 0.0514,0 0.1006,0.0214 0.1364,0.0593 l 2.6961,2.7733 c -0.7009,-1.4015 -0.885,-2.5836 -0.7136,-3.546 -1.36,-0.1629 -2.6244,-0.4024 -3.7015,-0.719 z m 16.4799,0 c -1.068,0.3139 -2.3197,0.5521 -3.6666,0.7149 h -0.0354 c 0.1726,0.9631 -0.011,2.1465 -0.7129,3.5498 l 2.6959,-2.773 c 0.0344,-0.0364 0.0813,-0.0576 0.1307,-0.0591 0.0783,-0.0023 0.15,0.0451 0.1806,0.1193 0.0305,0.0742 0.0137,0.1601 -0.0424,0.2164 l -2.6961,2.7733 c 1.3636,-0.7216 2.5135,-0.9107 3.4495,-0.7338 v -0.0224 c 0.1583,-1.3907 0.3906,-2.6831 0.6967,-3.7854 z m -108.2099,1.9896 c 2.5841,0.0135 6.0125,0.3057 9.5574,0.8145 7.5255,1.0803 13.52421,2.8243 13.39839,3.8955 -0.12584,1.071 -6.32789,1.0636 -13.85299,-0.0166 -7.5255,-1.0803 -13.5242,-2.8243 -13.3984,-3.8954 0.0617,-0.5242 1.6112,-0.812 4.2956,-0.798 z m 0.9755,4.5222 c 1.9134,-0.0098 4.1345,0.1062 6.3991,0.3342 6.5288,0.6573 11.9173,1.9237 11.8752,2.9997 -0.0417,1.0761 -5.3684,1.4155 -11.8972,0.7582 -6.5288,-0.6573 -11.7874,-2.0625 -11.7452,-3.1385 0.0258,-0.6633 1.9675,-0.9361 5.3681,-0.9536 z m 74.8969,2.7507 c -3.3325,2.3252 -7.3531,5.179 -10.8823,8.5832 l 19.8629,16.4885 c 0.7516,-0.8665 1.4998,-1.7397 2.2434,-2.6213 -4.7384,0.6024 -4.909,-6.4639 -9.628,-8.5669 6.776,-3.2003 9.4019,0.7427 10.0982,8.0069 2.3184,-2.7674 4.5894,-5.6245 6.7772,-8.639 -6.4014,-4.1585 -12.5967,-8.5584 -18.4714,-13.2514 z m 11.6942,21.8904 c -0.1566,0.1869 -0.3131,0.3739 -0.4702,0.56 0.1657,-0.021 0.3364,-0.0506 0.5136,-0.0909 -0.0132,-0.1586 -0.0284,-0.3135 -0.0434,-0.4691 z m -2.7136,3.1813 0.1679,0.1334 c 3.5809,0.1823 8.2937,1.0664 8.2937,1.0664 4.2132,-2.27 7.2927,-4.8183 9.8983,-7.483 -2.5298,-1.5198 -5.0329,-3.0713 -7.5061,-4.6577 -1.9716,2.7238 -4.0117,5.3179 -6.0933,7.8334 4.3645,-1.9745 6.3382,-6.0479 8.4274,-0.6046 -4.0747,-0.2705 -7.8622,5.8134 -8.5205,0.7172 -0.9063,1.0935 -1.8199,2.1728 -2.7396,3.2409 z M -31.707,-55.4215 c 1.5389,-0.0098 3.3252,0.1061 5.1465,0.3341 5.2509,0.6574 9.4802,2.0625 9.4463,3.1385 -0.0336,1.0761 -4.3176,1.4156 -9.5686,0.7582 -5.2509,-0.6573 -9.4802,-2.0625 -9.4463,-3.1385 0.0208,-0.6633 1.687,-1.0749 4.4221,-1.0923 z m 103.3051,1.6539 2.6961,2.7733 c 0.0497,0.049 0.0698,0.1219 0.0524,0.1905 -0.0173,0.0686 -0.0694,0.1222 -0.1361,0.1401 -0.0667,0.0178 -0.1375,-0.0028 -0.1852,-0.054 l -2.6959,-2.773 c 0.702,1.4035 0.8854,2.5872 0.7126,3.5503 h 0.0409 c 1.3449,0.1628 2.5948,0.4009 3.6614,0.7144 -0.3077,-1.108 -0.5404,-2.4085 -0.6987,-3.8076 -0.9356,0.1764 -2.0849,-0.0129 -3.4475,-0.734 z m -8.1877,3e-4 c -1.3628,0.7211 -2.5121,0.9102 -3.4478,0.7337 v 0.0095 c -0.1583,1.3955 -0.3911,2.6925 -0.6982,3.7981 1.0772,-0.3166 2.3414,-0.5561 3.7015,-0.719 -0.1714,-0.9624 0.0127,-2.1445 0.7136,-3.546 l -2.6961,2.7733 c -0.0477,0.0512 -0.1185,0.0718 -0.1852,0.054 -0.0667,-0.0179 -0.1188,-0.0715 -0.1361,-0.1401 -0.0174,-0.0686 0.0027,-0.1414 0.0524,-0.1905 z m -95.109,2.6793 c 0.9832,-0.0018 2.0713,0.0777 3.1754,0.232 3.8678,0.5407 6.9974,2.1837 7.0033,3.26 0.0062,1.0764 -3.1246,1.5106 -6.9926,0.9698 -3.8678,-0.5407 -7.008,-1.8515 -7.0139,-2.9278 -0.0041,-0.7332 1.4815,-1.5298 3.8278,-1.534 z m 0.3729,4.7313 c 0.498,-0.002 1.0143,0.0197 1.5348,0.0647 3.1801,0.2748 5.6765,0.9165 5.7581,1.9532 0.0815,1.0367 -2.4303,1.6542 -5.6102,1.3794 -3.1801,-0.2748 -5.8243,-1.338 -5.906,-2.3747 -0.0662,-0.8433 1.7485,-1.0124 4.2233,-1.0226 z m -0.8077,4.0139 c 0.195,10e-5 0.3932,0.008 0.5925,0.0234 1.9324,0.1503 3.5658,0.9692 3.6484,1.8292 0.0826,0.86 -1.417,1.4354 -3.3495,1.2851 -1.9324,-0.1502 -3.5658,-0.9692 -3.6483,-1.8291 -0.0727,-0.7579 1.0912,-1.3103 2.7569,-1.3086 z m -0.3449,3.9734 c 0.1236,2e-4 0.2493,0.0065 0.3756,0.0188 1.2248,0.1193 2.2601,0.7692 2.3126,1.4517 0.0523,0.6826 -0.8983,1.1393 -2.1232,1.0201 -1.2247,-0.1193 -2.26,-0.7692 -2.3125,-1.4518 -0.0462,-0.6016 0.6916,-1.0402 1.7475,-1.0388 z m 114.878,0.0101 -4.3453,0.3724 c 0.0285,2.6083 -0.8599,5.1056 -3.8942,7.3429 3.0455,0.3 5.7644,1.382 7.6061,4.564 -1.2673,3.2575 -3.3784,5.2162 -6.3384,5.868 2.495,2.8571 3.5719,6.1527 3.8068,9.7087 l 0.0013,10e-4 3.1637,1.44665 z m -21.2041,8.3724 c 0.0301,0.0582 0.0597,0.1165 0.0894,0.1747 -0.0297,-0.0582 -0.0593,-0.1165 -0.0894,-0.1747 z m 0.3855,0.7671 c 0.0105,0.0217 0.0217,0.0433 0.0322,0.065 -0.0105,-0.0217 -0.0216,-0.0433 -0.0322,-0.065 z m 0.3392,0.7152 c 0.0272,0.059 0.0539,0.118 0.0807,0.177 -0.0268,-0.059 -0.0534,-0.118 -0.0807,-0.177 z m 0.3112,0.6943 c 0.0228,0.0522 0.0462,0.1044 0.0686,0.1566 -0.0224,-0.0522 -0.0458,-0.1044 -0.0686,-0.1566 z m 0.3291,0.7803 c 0.0266,0.0655 0.0524,0.131 0.0785,0.1964 -0.0262,-0.0655 -0.0519,-0.1309 -0.0785,-0.1964 z m 0.2625,0.6673 c 0.025,0.0656 0.0507,0.1311 0.0752,0.1966 -0.0245,-0.0655 -0.0502,-0.1311 -0.0752,-0.1966 z m 0.2968,0.8068 c 0.0244,0.0692 0.0477,0.1384 0.0716,0.2076 -0.0239,-0.0692 -0.0472,-0.1384 -0.0716,-0.2076 z m 0.2196,0.6475 c 0.0259,0.0788 0.0521,0.1577 0.0773,0.2366 -0.0252,-0.0789 -0.0514,-0.1578 -0.0773,-0.2366 z m 0.257,0.817 c 0.0234,0.0785 0.0454,0.1569 0.0681,0.2353 -0.0227,-0.0784 -0.0447,-0.1569 -0.0681,-0.2353 z m 0.1862,0.6533 c 0.0228,0.0831 0.0456,0.1664 0.0676,0.2496 -0.022,-0.0832 -0.0447,-0.1664 -0.0676,-0.2496 z m -98.3274,2.9001 c -0.5607,0 -1.1813,0.2611 -1.8847,1.2049 -0.7034,0.9438 -1.2845,2.5144 -1.2845,4.3371 0,1.8227 0.5811,3.3933 1.2845,4.3371 0.7034,0.94376 1.324,1.2049 1.8847,1.2049 0.5607,0 1.1813,-0.26114 1.8847,-1.2049 0.7034,-0.9438 1.2845,-2.5144 1.2845,-4.3371 0,-1.8227 -0.5811,-3.3933 -1.2845,-4.3371 -0.7034,-0.9438 -1.324,-1.2049 -1.8847,-1.2049 z m -0.0347,0.6253 c 0.3747,0.0114 0.7542,0.6624 0.7542,1.3959 1.3858,-0.0145 1.8607,0.4317 0.7195,1.6952 1.7364,0.4882 1.3495,1.1344 0.3598,1.8256 0.9897,0.6912 1.3766,1.3374 -0.3598,1.8256 1.1412,1.2635 0.6663,1.7097 -0.7195,1.6952 0,1.304 -1.1992,2.3472 -1.439,0 -1.3858,0.0145 -1.8607,-0.4317 -0.7195,-1.6952 -1.7364,-0.4882 -1.3495,-1.1344 -0.3598,-1.8256 -0.9897,-0.6912 -1.3766,-1.3374 0.3598,-1.8256 -1.1412,-1.2635 -0.6663,-1.7097 0.7195,-1.6952 0.1049,-1.0269 0.3934,-1.4049 0.6848,-1.3959 z M 10.0886,-19.234 0.556693,-7.8971 6.00825,-7.90244 11.9726,-14.996 H 24.086 l -1.9016,-4.238 z m 3.7679,8.476 -2.4378,2.89962 17.2626,0.02852 -2.06,-2.92814 z M 0.655484,-3.92244 -39.3731,-3.89901 c 0.3093,0.32324 0.6323,0.6356 0.9592,0.95049 1.9485,1.87703 3.717,3.707604 5.3129,5.49335 0.1356,-0.57952 0.7669,-1.45147 2.0424,-2.54483 -3.803,-3.26 -1.9015,-4.564 1.9016,-1.956 3.803,-2.608 5.7046,-1.304 1.9015,1.956 3.8031,3.26 1.9015,4.564 -1.9015,1.956 -1.4032,0.96227 -2.5461,1.39064 -3.2406,1.38601 0.1662,0.19073 0.3332,0.38158 0.4952,0.57127 L 0.603488,3.89596 Z M -20.8967,-3.34277 c 0.6908,-0.01911 1.8495,0.40877 3.2757,1.38677 3.803,-2.608 5.7046,-1.304 1.9015,1.956 3.8031,3.26 1.9015,4.564 -1.9015,1.956 -3.8031,2.608 -5.7046,1.304 -1.9016,-1.956 -2.3769,-2.0375 -2.5255,-3.31094 -1.3741,-3.34277 z m 11.53595,0 C -8.66996,-3.36188 -7.51121,-2.934 -6.08506,-1.956 -2.28199,-4.564 -0.380457,-3.26 -4.18353,0 -0.380457,3.26 -2.28199,4.564 -6.08506,1.956 -9.88813,4.564 -11.7897,3.26 -7.9866,0 c -2.3769,-2.0375 -2.5255,-3.31094 -1.37415,-3.34277 z"
       id="path1609"
       style="display:inline"
       inkscape:label="layer-7" />
    <path
       fill="#000000"
       d="m -19.0568,-130.4 c 12.56999,27.7 25.20692,55.2614 49.6179,57.9299 L -11.7253,-130.4 Z m -25.3254,7.805 c -4.3554,16.039 -14.3013,31.0359 -7.5806,51.9546 l 13.9161,-11.1275 c -3.5076,-5.1253 -6.3226,-11.8215 -6.3226,-15.3801 0,-2.608 0.6343,-19.56 0.6338,-20.212 -10e-5,-0.261 -0.3056,-2.513 -0.6467,-5.235 z m 76.0629,51.5064 c -19.4411,18.1162 -40.7088,40.1891 -59.6324,63.19532 l 5.1782,0.07081 C -6.90229,-27.7653 14.4698,-49.4193 34.095,-67.6282 Z m 8.3403,11.4044 c -3.6601,2.502 -8.1291,5.7543 -11.9136,9.8482 l 3.2391,2.6136 c 3.8321,-3.8917 8.3616,-7.1185 12.119,-9.6468 -1.1766,-0.897 -2.3415,-1.8395 -3.4445,-2.815 z M 4.43676,-31.948 -15.8334,-7.83928 -10.1417,-7.824 6.32072,-27.71 H 19.8583 l -0.2093,-4.238 z"
       id="path1613"
       style="display:inline"
       inkscape:label="layer-10" />
    <path
       stroke="#4444ff"
       stroke-linecap="round"
       stroke-linejoin="round"
       stroke-width="0.77143"
       fill="none"
       d="m -27.2555,-14.996 c 0,2.5938 -0.768,5.0814 -2.1349,6.91551 -1.367,1.8341 -3.2211,2.86449 -5.1543,2.86449 -1.9332,0 -3.7873,-1.03039 -5.1543,-2.86449 -1.367,-1.83411 -2.1349,-4.32171 -2.1349,-6.91551 0,-5.4013 3.2635,-9.78 7.2892,-9.78 4.0257,0 7.2892,4.3787 7.2892,9.78 z m -2.272,7.172 H 28.653 m -71.9738,0 h 3.6455 m 0.3122,3.912 h 71.2425 m -97.5656,-55.6552 27.7865,-21.9864 m -44.5003,35.2114 5.6833,-4.497 m 138.6009,7.179 C 54.256,-48.6153 46.9203,-53.9135 39.9696,-59.6635 m 30.8408,21.5746 c -2.5592,-1.5367 -5.091,-3.1055 -7.5922,-4.7102 M -11.724,-130.4 39.9886,-59.6478 M 82.3654,7.79336 C 73.6846,12.9152 67.5672,17.7785 61.5393,24.9818 55.8411,14.8304 49.6334,7.95064 41.2297,-0.144917 31.5877,-9.43339 26.7433,-17.3044 24.8295,-23.6724 c -1.9138,-6.368 -1.1293,-11.2931 1.0077,-15.7744 3.5897,-7.5275 11.601,-13.3471 17.6297,-17.4558 m -62.5223,-73.4924 c 12.56942,27.699 25.20537,55.2557 49.5231,57.8732 m -66.6775,48.0473 c -5.6143,-16.5476 -4.5455,-35.1665 -5.4547,-53.2208 9.7253,5.1967 20.7086,10.0983 58.0453,0.7512 -17.067151,16.0639 -35.1817,30.268 -49.0295,52.4089 m -4.6245,-46.3861 c 3.7561,1.5319 8.23,2.8117 13.95,3.2801 6.504,0.5326 14.64985,0.0634 25.42712,-1.8786 -12.49662,11.3616 -25.14992,23.1436 -35.78002,38.9716 -3.1649,-12.3786 -3.1436,-26.2186 -3.5971,-40.3731 z m 64.8253,-2.0497 c -18.72537,17.4305 -38.9059,37.8379 -54.6689,57.2497 m -26.9007,-53.0166 c -0.1043,23.8853 4.8155,44.7901 12.4381,60.80173 M -58.124,-65.6286 c 0.2645,19.6802 3.8544,37.3455 9.5777,51.9955 m 20.5945,5.73972 C -9.0282,-30.8996 12.2396,-52.9724 31.6808,-71.0887 M -22.7736,-7.82248 C -6.90236,-27.7653 14.4699,-49.4193 34.0951,-67.6282 M -15.8463,-7.824 4.43676,-31.948 H 19.7021 M -10.4047,-7.81745 6.32072,-27.71 H 19.8582 M -4.88514,-7.90352 8.20468,-23.472 H 20.5348 M 0.556636,-7.8971 10.0886,-19.234 H 21.9919 M 6.00827,-7.90237 11.9726,-14.996 h 12.0488 m -12.6028,7.13754 2.4379,-2.89954 h 12.7648 m 5.881,-37.5652 19.9527,16.5939 M 28.1329,-49.8372 49.851,-31.6858 m -73.9856,-35.9464 c -5.6729,12.0183 -6.7399,24.5515 -9.4593,36.9882 M -43.9058,-130.4 c -5.6492,21.228 -20.9223,42.6509 -11.9458,63.0449 m 3.8888,-3.2852 c -6.7206,-20.9187 3.2251,-35.9157 7.6057,-52.0717 m 64.1089,35.3615 c 1.8874,-0.8405 3.8566,-1.5857 5.8503,-2.2447 m -60.1468,69.0572 c 0.5607,0 1.1813,0.2611 1.8847,1.2049 0.7034,0.9438 1.2845,2.5144 1.2845,4.3371 0,1.8227 -0.5811,3.3933 -1.2845,4.3371 -0.7034,0.94376 -1.324,1.2049 -1.8847,1.2049 -0.5607,0 -1.1813,-0.26114 -1.8847,-1.2049 -0.7034,-0.9438 -1.2845,-2.5144 -1.2845,-4.3371 0,-1.8227 0.5811,-3.3933 1.2845,-4.3371 0.7034,-0.9438 1.324,-1.2049 1.8847,-1.2049 z M 60.849,-30.644 c 2.1321,3.9398 3.3789,7.8512 3.803,11.736 5.9875,2.3894 10.5076,6.7596 14.5785,11.736 0.2969,-4.8305 -0.5448,-9.3089 -3.8031,-13.04 2.96,-0.6518 5.0711,-2.6105 6.3385,-5.868 -1.8418,-3.182 -4.5607,-4.264 -7.6062,-4.564 5.6888,-4.1946 3.8369,-9.3026 2.5354,-14.344 -4.1787,5.0522 -8.0963,10.1685 -15.8461,14.344 z m 21.5507,-7.7153 -4.3512,0.373 M 82.3997,-9.05557 79.082,-10.5723 M 68.8008,-21.3301 c 4.779,2.6628 6.9174,7.7613 8.2754,11.60694 M 67.5637,-28.046 c 3.3664,-0.1133 6.1425,-0.8048 9.7652,1.966 -1.8555,2.5449 -3.8202,3.8756 -8.519,4.5175 m 5.3027,-20.2753 c -0.2528,5.2668 -1.6204,10.8591 -6.6178,13.6369 m -2.5457,-4.9957 c 3.3642,5.1996 4.5731,10.5463 3.4201,16.0958 M 60.849,-30.644 c 0,0 -10.4163,-1.956 -12.0431,-0.652 -1.6267,1.304 -4.1794,4.0825 -5.0707,5.216 -4.0529,5.1544 0.462,6.4847 2.5353,3.912 m 4.4369,-3.912 c -7.5188,3.3187 -8.1418,15.7282 2.5354,3.26 m -3.6518,3.7202 c -1.8945,4.2112 0.0961,7.8633 7.416,-0.6844 m -4.7548,4.474 c -2.6864,5.0467 5.2697,4.6362 12.3998,-3.5978 M 52.3874,-31.8437 c 4.2559,-4.9063 8.4031,-10.0183 12.2264,-15.7439 m -10.2987,15.9899 c 4.1191,-4.7835 8.1253,-9.7808 11.8219,-15.3645 M 55.1444,-34.556 c -0.6278,-7.5634 -3.2205,-11.7448 -10.1416,-8.476 4.8839,2.1765 4.8955,9.6703 10.1416,8.476 z m -10.1416,-8.476 c 4.7928,-0.8155 7.1168,5.3199 10.1416,8.476 m 1.9015,-0.3479 c 4.4369,-1.956 6.4237,-6.1381 8.5293,-0.652 -4.0924,-0.2717 -7.8955,5.868 -8.5293,0.652 z m 0.0084,0.0669 c 3.3372,1.0781 6.6505,-3.1172 8.5209,-0.7189 m -1.557,-18.5601 c -9.5077,5.868 -9.5077,-13.04 0,-7.172 -5.7046,-9.78 12.6769,-9.78 6.9723,0 9.5077,-5.868 9.5077,13.04 0,7.172 5.7046,9.78 -12.6769,9.78 -6.9723,0 z m 11.0923,-3.586 -7.6062,-7.824 -7.6061,7.824 7.6061,7.824 z m -15.1522,-4.7148 c -0.1582,-1.3815 -0.3895,-2.6653 -0.6939,-3.7612 1.0873,0.3195 2.3648,0.5608 3.7394,0.7237 m -0.0308,15.5082 c -1.3628,0.1629 -2.6295,0.4029 -3.7086,0.7201 0.3071,-1.1056 0.5398,-2.4025 0.6981,-3.7981 m 15.0781,-0.0506 c 0.1584,1.4148 0.393,2.7297 0.7038,3.8487 -1.0667,-0.3135 -2.3165,-0.5516 -3.6615,-0.7144 M 72.0777,-65.463 c 1.3469,-0.1628 2.5986,-0.4011 3.6667,-0.715 -0.3062,1.1023 -0.5384,2.3947 -0.6967,3.7854 M -37.0219,-80.0315 c -0.6065,-0.3007 -1.2073,-0.6113 -1.8107,-0.9293 m 51.2646,0.6264 c -15.92449,3.8011 -26.5176,4.7725 -34.0093,4.3214 m -15.6942,5.0922 c 3.7558,1.5316 8.2291,2.8113 13.9483,3.2796 6.5036,0.5326 14.64899,0.0634 25.42538,-1.8783 -12.49588,11.3611 -25.15408,23.1305 -35.79118,38.9685 -3.1707,-12.3627 -3.1326,-26.2152 -3.5825,-40.3698 z m -34.3531,-41.8752 c 1.3675,4.059 0.6338,11.736 4.4369,11.736 8.24,0 2.5354,-12.388 -4.4369,-18.908 -6.9723,6.52 -12.6769,18.908 -4.437,18.908 3.8031,0 3.0695,-7.677 4.437,-11.736 z m -5.7046,19.56 c 0,0 0,-1.304 1.2676,-1.304 1.633,0 1.9016,5.868 -1.2676,5.868 -4.437,0 -3.8031,-9.128 0.6338,-9.128 3.8031,0 5.0708,6.52 5.0708,6.52 0,0 1.2677,-6.52 5.0707,-6.52 4.4369,0 5.0708,9.128 0.6339,9.128 -3.1693,0 -2.9006,-5.868 -1.2677,-5.868 1.2677,0 1.2677,1.304 1.2677,1.304 m -1.2677,-1.304 c -6.9723,0.3479 1.9015,32.6 1.837,38.6361 -0.041,3.8317 -1.2032,7.6559 -6.2739,7.6559 -5.0708,0 -6.233,-3.8242 -6.274,-7.6559 -0.0645,-6.0361 8.8093,-38.2882 1.837,-38.6361 m 2.5354,-1.3061 v -7.3869 m 3.8031,7.4136 v -7.3606 m 0.4064,54.592 c 2.3594,0.6645 4.0305,2.3177 4.0305,4.252 0,2.5206 -2.8378,4.564 -6.3384,4.564 -3.5007,0 -6.3385,-2.0434 -6.3385,-4.564 0,-1.9339 1.6704,-3.5868 4.029,-4.2516 m -0.1079,8.4864 c -3.0749,0.926 -3.9211,3.6857 -3.9211,6.1972 0,4.7262 1.6653,12.5357 2.5816,16.4752 m 9.2548,-8.5629 c 0.4789,-2.8379 0.8405,-5.7099 0.8405,-7.9123 0,-2.5297 -0.8585,-5.3113 -3.9884,-6.217 m 19.4406,25.125 h 0.8095 m -33.3755,0 h 3.643 m 27.4879,-1.956 h 1.5087 m -32.6396,0 h 6.4764 m 23.1458,-1.956 h 2.355 m -31.9772,0 h 6.6604 m 21.6002,-1.956 h 3.0543 m -31.3149,0 h 6.2556 m 20.7171,-1.956 h 3.7902 m -30.7629,0 h 5.8876 m 19.8708,-1.956 h 4.3789 m -30.1373,0 h 5.5197 m 19.1348,-1.956 h 4.9309 m -13.1736,0 h 0.6623 m -17.0741,0 h 5.1517 m 18.4356,-1.956 h 5.4461 m -12.3272,0 h 1.8398 m -18.546,0 h 4.8573 m 17.7365,-1.956 h 5.9244 m -11.5545,0 h 3.1278 m -18.8238,0 h 3.332 m 12.4744,-1.956 h 10.9658 m -26.7722,0 h 3.1112 m 12.732,-1.956 h 10.5242 m -25.7336,0 h 2.551 m 12.3641,-1.956 h 9.171 m -24.0861,0 h 2.896 m 14.8517,-1.956 h 5.7046 m 15.8461,-25.428 c -1.4988,-2.2913 -3.1001,-4.1659 -5.7579,-6.15 -2.7481,-2.0515 -4.0586,1.2566 -3.0251,2.9607 m 8.783,7.1013 c -1.7347,-2.0495 -5.1628,-5.127 -7.8922,-6.7556 -2.5857,-1.5429 -3.3623,1.9689 -1.2088,3.6505 m 9.3101,7.3482 c -1.7347,-2.0495 -5.1244,-5.1972 -7.8923,-6.7557 -4.1887,-2.3585 -5.5574,1.8463 -0.3477,4.1477 m 8.6245,10.3806 c -1.7347,-2.0495 -5.1245,-5.1972 -7.8923,-6.7557 -3.9059,-2.1993 -4.7736,2.1993 -0.6486,4.6692 m 8.3362,-2.4067 c -1.7571,-1.7722 -4.2234,-3.6128 -6.4365,-5.1525 -2.7983,-1.9469 -4.3234,0.5834 -2.8948,2.2463 m 9.8546,10.9519 c -1.7456,-1.7255 -4.1352,-3.5057 -6.2856,-5.0018 -3.0481,-2.1208 -4.5856,1.6002 -2.4405,3.3012 m 9.1425,5.2499 c -2.0583,-1.6905 -5.0665,-3.5029 -7.3596,-4.7295 -3.964,-2.1205 -4.6761,2.6705 -0.4181,4.8406 m 8.28,2.932 c -5.7845,-5.0333 -12.4537,-3.2992 -6.9016,0.6594 m 7.6794,3.7631 c -6.3109,-5.5073 -17.7654,-5.5121 -6.5228,0.7172 m 8.2438,6.2682 c -7.967,-5.2253 -17.9681,-3.8391 -5.5648,1.3902 m 5.1843,0.9947 c -5.5038,-2.3685 -11.7631,0.0273 -5.5742,1.7809 m 2.9937,0.5447 c -4.6223,-1.4844 -7.0897,1.2293 -1.4482,2.6355 m -0.0932,-50.3833 c -0.9118,-0.9892 -1.9663,-1.9418 -3.2781,-2.9211 -2.2211,-1.6581 -3.3871,0.0427 -3.1848,1.6285 m 6.2754,-3.8138 c -0.167,-0.1306 -0.3384,-0.2616 -0.5145,-0.393 -2.4608,-1.837 -3.6265,0.4488 -3.0712,2.1335 m 7.3055,42.7415 c -5.3026,-4.2541 -11.0454,-2.9975 -7.3306,0.3389 m 13.0363,4.3147 c 12.3665,0.1357 8.3586,3.3403 2.6867,3.3427 m -0.9507,-5.8618 c 4.0412,-1.5544 7.6796,-1.196 9.5024,-0.2124 2.1318,1.1505 1.7798,3.1563 -3.3168,3.9576 m -3.6064,-7.3943 c 7.4257,-1.4344 13.1452,1.819 7.0337,3.4151 m -4.3622,-7.0829 c 8.5468,-2.3599 15.90374,1.4007 6.2657,4.3896 m -4.0436,-7.2567 c 8.7791,-3.0606 17.16791,0.5836 8.5127,3.6702 m -4.9781,-7.8278 c 6.4021,-1.0442 11.24126,1.2604 7.0421,3.654 m -4.8835,-6.1533 c 9.79344,-2.6008 20.02383,2.2509 6.1816,3.619 m -1.5098,-8.6077 c 7.24815,-0.6523 12.677988,2.3507 5.09934,4.5684 m -2.82064,-6.8336 c 9.539114,-2.5816 19.24886,1.905 6.49369,4.4774 M -6.73919,-55.53 c 7.054039,-0.9967 12.98974,1.5318 8.14444,3.7509 m -5.11496,-6.626 c 9.07282,-2.1537 17.83201,1.9064 6.77706,4.4419 m -1.70672,-9.2065 c 7.24042,-0.5901 12.55027,2.4612 4.62137,4.6666 m -1.62292,-7.4025 c 9.36572,-2.2032 18.36432,2.2036 5.53741,4.705 m -0.66841,-9.1077 c 7.32282,-0.7177 12.89872,2.3029 5.32742,4.5376 m -2.0777,-7.5448 c 8.6225,-1.5544 16.1745,2.274 5.5527,4.6979 M -0.564064,-94.6884 c -0.646526,1.5149 -1.262426,3.0511 -4.506846,2.7564 -1.82197,10.6018 -9.35209,12.8298 -16.47999,15.648 0,0 -2.4618,2.0402 -3.7295,2.0402 -1.9015,0 -3.2428,-0.7362 -3.8766,-0.7362 -0.6339,0 -1.2677,0.652 -3.1692,0.652 -1.9016,0 -3.8031,-3.26 -5.0708,-6.52 -3.8031,-5.216 -6.9723,-12.5242 -6.9723,-16.3 0,-2.608 0.6342,-19.56 0.6338,-20.212 -2e-4,-0.403 -0.7261,-5.535 -1.2808,-9.398 m 41.58492,27.6959 c -0.80079,1.3341 -1.74177,3.1845 -1.00569,3.2181 0.34663,0.0158 0.88355,-1.3532 1.29857,-2.5958 m 35.358,32.5636 6.4099,7.0645 m -8.2062,-5.3185 6.178,6.8089 m -8.0342,-5.1289 6.0874,6.7089 m -7.8256,-4.8989 5.851,6.4485 m -7.7044,-4.7654 5.8268,6.4217 m -7.6248,-4.6776 4.4735,4.9302 m -6.2698,-3.1843 3.0458,3.3568 m -4.9217,-1.6985 2.2618,2.4928 m -4.0114,-0.6953 1.1318,1.2473 M -21.2012,-9.78 h 7.0254 m -5.3601,-1.956 h 6.9733 m -5.4121,-1.956 h 7.0774 m -5.4121,-1.956 h 7.02535 m -5.36015,-1.956 h 7.02542 m -4.68362,-2.608 h 4.06226 m 25.98764,-3.26 v 4.238 m -3.1692,-4.238 v 4.238 m -3.1692,-4.238 v 4.238 m -4.65656,-2.5079 2.86219,2.9442 m -5.29349,-0.2291 2.96627,3.0512 m -5.26747,-0.2024 2.88821,2.971 m -5.137375,-0.0685 2.862195,2.9441 m -5.26748,-0.2023 2.62801536,2.70328 M 17.9118,-89.8775 c 1.9814,-0.8211 4.0355,-1.5433 6.0994,-2.1764 m -8.0186,-0.4843 c 2.0087,-0.8287 4.0912,-1.556 6.1819,-2.1924 m -8.1258,-0.3981 c 2.0512,-0.8481 4.1799,-1.5904 6.3161,-2.2378 m -8.1256,-0.1429 c 2.0823,-0.8862 4.2521,-1.6608 6.4346,-2.3355 m -7.3762,-0.6711 c 1.4855,-0.601 3.0088,-1.147 4.5436,-1.643 m -6.13759,-1.088 c 1.07299,-0.427 2.16459,-0.826 3.26509,-1.199 m -5.14895,-1.395 c 0.6839,-0.261 1.37633,-0.515 2.07525,-0.759 m 21.8489,-11.486 c -6.5745,2.585 -13.1435,-3.216 -17.6179,-0.106 -5.88617,4.092 -0.8154,11.916 3.5372,9.333 4.0313,-2.393 0.0843,-7.849 -1.8172,-6.545 -1.1793,0.809 -1.8874,2.388 -1.2677,3.26 0.7835,1.103 1.3296,1.256 2.5354,0.652 m 14.7643,-6.242 c -5.0334,4.998 -2.8041,13.546 -7.4446,16.351 -6.1252,3.7017 -10.8055,-4.376 -6.6643,-7.304 3.8356,-2.711 6.9224,3.303 4.9593,4.506 -1.2175,0.747 -2.9077,0.724 -3.4062,-0.227 -0.6303,-1.202 -0.5288,-1.775 0.52,-2.635 m -5.2639,0.115 11.4092,-7.824 m -1.2677,5.216 c -1.2677,-1.304 -5.7638,-1.481 -6.9723,0.652 2.7899,-1.439 4.4069,-3.228 3.1692,-5.868 m -2.5353,14.344 c 3.1692,3.912 6.3384,2.608 9.5076,1.304 3.0495,4.2726 8.197,5.0421 13.3108,5.868 M 9.50752,-113.448 c -1.26769,-2.608 1.90158,-5.868 3.80308,-7.172 -0.7417,-3.006 0.3432,-6.388 1.4697,-9.779 m -8.442,11.735 c 1.26769,-3.26 3.16922,-3.26 3.16922,-3.26 -1.07534,-4.978 0.41694,-6.242 1.03788,-8.467 m -38.6928,-0.007 c 2.1679,6.746 7.0166,10.221 14.1164,10.951 m -11.745,-10.947 c 2.0233,5.059 5.751,8.04 10.9617,9.211 m -9.1141,-9.215 c 1.7722,3.577 4.5236,5.96 8.1561,7.268 m -6.1594,-7.256 c 1.3164,2.132 3.0428,3.763 5.152,4.927 m -18.5555,-4.935 c -1.8914,5.236 -3.847,10.436 -8.4387,13.071 m 6.4541,-13.071 c -1.555,4.141 -3.3556,8.059 -6.7109,10.465 m 4.6777,-10.468 c -1.247,3.022 -2.7482,5.804 -5.0525,7.806 m 3.2253,-7.798 c -0.9751,1.909 -2.1398,3.636 -3.6623,5.015 m 1.107,10.622 c 5.2105,-3.269 7.8041,-1.863 10.1416,0 2.5353,7.172 -1.9016,14.344 -1.828,19.7786 0.0274,2.0182 1.4866,1.7537 2.4618,1.7374 0.6338,-0.0106 1.9015,1.304 1.9015,1.304 M -43.7355,-114.1 c 3.7506,-2.735 7.0327,-2.283 10.1416,-0.652 m 5.7046,16.3 c 2.5353,0 2.5353,3.912 0.6338,3.912 -5.0707,0.652 -5.0707,-1.304 -0.6338,0 m -8.24,5.216 v 1.304 l 0.6338,-0.652 z m 11.4092,0.652 0.6338,-0.652 v 1.304 z m -10.7754,0 c 0,0 0.6339,0.652 1.2677,0.652 0.6339,0 0.6648,-0.5229 1.5621,-0.5848 0.9733,-0.0672 0.9733,0.5848 1.6071,0.5848 0.6339,0 1.9016,-1.304 2.5354,-1.304 0.6339,0 1.9016,0.652 2.5354,0.652 h 1.2677 m -8.24,2.608 c 0.3891,3.7102 5.7824,1.133 5.7046,0.652 -0.6338,0.652 -5.6757,4.1534 -5.7046,-0.652 z m 5.0708,-26.732 c 6.5331,-4.788 10.885,-2.11 15.2122,0.652 -4.4882,-3.388 -10.7753,-5.868 -15.2122,-0.652 z m 13.9446,3.26 c -1.9016,0 -4.6234,-3.31 -7.148,-3.071 -3.7797,0.359 -4.8951,5.027 -6.7966,5.679 2.2735,-2.792 4.2841,-3.68 6.0938,-3.66 3.7022,0.041 4.6815,4.312 9.1184,3.008 m -15.2122,0.652 c 1.9015,-1.304 4.1592,1.31 5.7267,1.297 3.6646,-0.03 5.6183,-1.949 6.9502,-1.949 m -19.0154,0 c -2.5354,0 -3.9138,-2.499 -5.9622,-2.646 -1.5645,-0.112 -3.7009,1.645 -3.7009,2.297 0,0.922 1.4245,2.7 2.8831,3.033 2.0779,0.474 4.6012,-2.638 6.78,-2.684 z m -9.5077,-1.304 c 2.8704,-5.575 8.2341,-1.238 8.24,-0.652 m 57.0461,13.692 c 1.9015,1.956 4.4369,1.304 5.7046,0.652 2.6012,1.9112 5.4202,2.702 7.9462,3.0291 m -9.6111,2.4917 c 5.4814,-1.7238 11.0244,-2.8674 15.6095,-3.5648 -6.351,-12.62 -9.5203,-24.886 -12.7888,-37.164 m -2.8207,40.7288 c 5.4814,-1.7238 11.0244,-2.8674 15.6095,-3.5648 -6.351,-12.62 -9.5203,-24.886 -12.7888,-37.164 M 25.4821,-89.7155 -1.8551,-130.4 m 37.0528,38.2417 c -2.5223,-0.3317 -5.3413,-1.1225 -7.9425,-3.0337 -1.2677,0.652 -3.8031,1.304 -5.7046,-0.652"
       id="path1617"
       style="display:inline"
       sodipodi:nodetypes="scsssssccccccccccccccccccsscccccccccscccccccccccccccccccccccccccccccccccccccccccssssssssscccccccccccccccccccccccccccccccccccccccccccccccccccccccccccccccccccccccccccccscsccssscssscccscccccccsssccsccsccccccccccccccccccccccccccccccccccccccccccccccccccccccccccscccccsccccccccccccccccccccccccsccccccccccccccccccccccccccccccccccccccccssscscccsccccccccccccccccccccccccccccccccccccccccccccccccccccccccccccccccccccccccccccccccccccccccccccccccccccccccccscccccccccccccccscssscccccccccccccccccscccccccccccccccccc"
       inkscape:label="layer-16" />
    <path
       stroke="#4444ff"
       stroke-linecap="round"
       stroke-linejoin="round"
       stroke-width="0.77143"
       fill="none"
       d="M 82.3877,12.6828 C 73.2896,18.2473 67.5633,23.3915 60.8493,32.6 54.5108,19.56 48.1905,12.3666 38.4139,2.94845 2.72065,-31.436 26.4785,-50.4648 40.0726,-59.7048"
       id="path1621"
       style="display:inline"
       sodipodi:nodetypes="cccc"
       inkscape:label="layer-17" />
    <path
       stroke="#4444ff"
       stroke-linecap="round"
       stroke-linejoin="round"
       stroke-width="0.385715"
       fill="none"
       d="m 42.6707,-24.6193 2.2217,3.4996 m 0.4533,0.7141 1.8114,2.8532 m -3.6133,-8.4144 c 1.5966,2.714 3.3423,5.1891 5.1559,7.5553 m 0.4667,0.6047 c 0.7679,0.9883 1.5466,1.9593 2.33,2.9227 m 0.4538,0.5566 c 0.6257,0.7657 1.2537,1.5278 1.8809,2.2911 m -9.1719,-15.181 c 3.2523,5.5931 7.1411,10.1656 10.969,14.8357 m -9.8241,-16.0137 c 3.3718,5.8548 7.4443,10.5863 11.4285,15.4593 M 46.6775,-29.2872 c 3.4517,5.883 7.6045,10.642 11.6361,15.5952 M -70.7385,-77.0547 c 0.6778,4.4857 1.5675,9.1146 2.2791,12.9804 0.7117,3.8658 1.218,7.152 1.2073,8.149 -0.0184,1.7196 -0.3301,3.2724 -0.9319,4.2016 -0.6019,0.9292 -1.37,1.5197 -3.4406,1.5197 -2.0707,0 -2.8388,-0.5905 -3.4406,-1.5197 m 4.7375,-11.9866 c 0.3528,1.9166 0.6544,3.688 0.8636,5.0843 0.2092,1.3963 0.3119,2.545 0.3105,2.6793 -0.016,1.4895 -0.385,2.7868 -0.6128,3.1385 -0.1971,0.3042 -0.2486,0.3484 -0.4204,0.4345 -0.1719,0.0862 -0.5782,0.2137 -1.4378,0.2137 m 1.8057,5.4585 c 1.8051,0.5084 2.6312,1.5901 2.6312,2.3655 0,0.5052 -0.2706,1.067 -1.0454,1.6249 -0.7747,0.5579 -2.0009,0.9831 -3.3915,0.9831 -1.3907,0 -2.6168,-0.4252 -3.3916,-0.9831 m 5.2267,4.4731 c 1.1201,0.3241 1.6288,0.8392 2.0194,1.5645 0.3907,0.7254 0.5824,1.7323 0.5824,2.7695 0,1.9822 -0.3431,4.7955 -0.8126,7.5777 m -1.3489,-17.9728 c -0.3861,0.268 -1.279,0.6151 -2.2754,0.6151 -1.0138,0 -1.9267,-0.3599 -2.3012,-0.6296 m 4.4924,8.5881 c 0.1569,0.2913 0.3441,1.0321 0.3441,1.8215 0,1.75 -0.3253,4.5215 -0.7846,7.2431 M 9.73064,-82.3764 c -11.01695,2.5288 -19.27743,3.6158 -25.59734,3.8201 m 24.18426,-5.3445 c -8.32520712,1.8503 -15.02091,2.8522 -20.46616,3.2654 m 18.87214,-4.8732 c -6.308991,1.354 -11.64815,2.2053 -16.19554,2.6762 m 14.64244,-4.3049 c -4.855639,1.0038 -9.11575,1.7006 -12.86801,2.1505 M 3.82042,-88.819 c -3.8076713,0.7598 -7.23711,1.3255 -10.33363,1.7281 m 9.07445,-3.4373 c -2.959678,0.5698 -5.68363,1.0192 -8.1946,1.3637 m 6.84675,-3.0654 c -2.28789,0.4223 -4.43001,0.7707 -6.43768,1.0526 M -32.9601,-80.848 c 1.5143,-1.8199 3.4508,-1.6559 5.7046,0 m 0.6339,-24.124 c 1.2676,1.956 3.803,1.956 5.7046,1.956 m -22.1846,-0.652 c 6.3384,3.26 7.6061,-3.912 8.8738,-3.912 m -3.8005,-1.688 c 0.1449,0.414 0.2264,0.882 0.2264,1.378 0,1.699 -0.9611,3.078 -2.1466,3.078 -1.1856,0 -2.1467,-1.379 -2.1467,-3.078 0,-0.757 0.1902,-1.449 0.5056,-1.985 m 21.1236,-0.495 c 0.2419,0.498 0.3837,1.104 0.3837,1.757 0,1.7 -0.9611,3.078 -2.1467,3.078 -1.1855,0 -2.1466,-1.378 -2.1466,-3.078 0,-0.526 0.092,-1.021 0.2541,-1.454"
       id="path1625"
       style="display:inline"
       inkscape:label="layer-18" />
    <path
       id="path1641"
       d="m 28.2563,-39.3707 c 2.2562,1.2095 5.0301,0.7437 6.7719,2.8191 0.3275,0.3902 0.4219,0.9255 0.2476,1.4043 -0.1742,0.4787 -0.5907,0.8281 -1.0925,0.9165 -0.5017,0.0885 -1.0126,-0.0974 -1.3401,-0.4877 -0.0218,-0.026 -0.0559,-0.0384 -0.0893,-0.0325 -0.0335,0.0059 -0.0613,0.0292 -0.0729,0.0611 -0.0116,0.0319 -0.0053,0.0676 0.0165,0.0936 1.2223,1.4565 1.6782,1.2602 2.617,1.7134 l -1.8936,1.5887 c -0.2834,-1.0032 -0.0109,-1.4179 -1.2332,-2.8743 -0.0218,-0.0261 -0.0559,-0.0384 -0.0893,-0.0326 -0.0335,0.0059 -0.0613,0.0292 -0.0729,0.0612 -0.0116,0.0319 -0.0053,0.0676 0.0165,0.0936 0.3275,0.3902 0.4219,0.9255 0.2477,1.4042 -0.1743,0.4787 -0.5907,0.8281 -1.0925,0.9166 -0.5018,0.0885 -1.0126,-0.0974 -1.3402,-0.4877 -1.7417,-2.0754 -0.8012,-4.7259 -1.6007,-7.1575 z m 2.6621,16.3 c 2.2562,1.2095 5.0302,0.7437 6.772,2.8191 0.3275,0.3902 0.4219,0.9255 0.2476,1.4042 -0.1743,0.4788 -0.5907,0.8282 -1.0925,0.9166 -0.5018,0.0885 -1.0126,-0.0974 -1.3401,-0.4877 -0.0219,-0.026 -0.0559,-0.0384 -0.0894,-0.0325 -0.0334,0.0059 -0.0612,0.0292 -0.0728,0.0611 -0.0116,0.0319 -0.0053,0.0676 0.0165,0.0936 1.2223,1.4565 1.6781,1.2602 2.617,1.7134 l -1.8937,1.5887 c -0.2833,-1.0032 -0.0109,-1.4179 -1.2331,-2.8743 -0.0219,-0.0261 -0.0559,-0.0385 -0.0894,-0.0326 -0.0334,0.0059 -0.0612,0.0292 -0.0728,0.0611 -0.0116,0.032 -0.0053,0.0677 0.0165,0.0937 0.3275,0.3902 0.4219,0.9255 0.2476,1.4042 -0.1742,0.4787 -0.5907,0.8281 -1.0925,0.9166 -0.5017,0.0885 -1.0126,-0.0975 -1.3401,-0.4877 -1.7418,-2.0754 -0.8012,-4.7259 -1.6008,-7.1575 z m 13.1841,12.5184 c 2.2561,1.20952 5.0301,0.74367 6.7719,2.81908 0.3275,0.39025 0.4219,0.92555 0.2476,1.40427 -0.1743,0.47871 -0.5907,0.8281 -1.0925,0.91656 -0.5018,0.08846 -1.0126,-0.09745 -1.3401,-0.48769 C 48.6675,-5.9261 48.6335,-5.93849 48.6,-5.9326 c -0.0334,0.0059 -0.0612,0.02919 -0.0728,0.06111 -0.0116,0.03191 -0.0053,0.0676 0.0165,0.09362 1.2223,1.45642 1.6781,1.26013 2.617,1.71338 l -1.8936,1.58871 c -0.2834,-1.00318 -0.0109,-1.41794 -1.2332,-2.87436 -0.0219,-0.02602 -0.0559,-0.03841 -0.0894,-0.03252 -0.0334,0.0059 -0.0612,0.02919 -0.0728,0.06111 -0.0116,0.03191 -0.0053,0.0676 0.0165,0.09361 0.3275,0.39025 0.4219,0.92555 0.2476,1.40427 -0.1742,0.47871 -0.5907,0.8281 -1.0924,0.91656 -0.5018,0.08846 -1.0127,-0.09744 -1.3402,-0.48769 -1.7418,-2.07541 -0.8012,-4.7259 -1.6007,-7.1575 z m 9.3809,11.214423 c 2.2562,1.209487 5.0301,0.743647 6.7719,2.819057 0.3275,0.39025 0.4219,0.92555 0.2476,1.40426 C 60.3287,5.36415 59.9122,5.71355 59.4104,5.80201 58.9087,5.89047 58.3978,5.70456 58.0703,5.31431 58.0365,5.2741 57.9766,5.26885 57.9363,5.3026 c -0.0402,0.03374 -0.0454,0.09371 -0.0117,0.13392 1.2223,1.45643 1.6781,1.26014 2.617,1.71339 L 58.648,8.73862 C 58.3646,7.73544 58.6371,7.32068 57.4148,5.86425 57.393,5.83824 57.3589,5.82584 57.3255,5.83174 57.292,5.83764 57.2642,5.86093 57.2526,5.89285 57.241,5.92476 57.2473,5.96045 57.2691,5.98646 57.775,6.58977 57.6961,7.48882 57.0929,7.99486 56.4898,8.50091 55.5905,8.42245 55.0841,7.8196 53.3424,5.74419 54.2829,3.0937 53.4834,0.662123 Z M 65.9068,1.96612 c 2.2562,1.2095 5.0301,0.74365 6.7719,2.81906 0.3275,0.39025 0.4219,0.92555 0.2476,1.40427 -0.1742,0.47871 -0.5907,0.8281 -1.0925,0.91656 C 71.332,7.19447 70.8212,7.00856 70.4937,6.61832 70.4718,6.5923 70.4378,6.57991 70.4043,6.5858 c -0.0334,0.0059 -0.0612,0.02919 -0.0728,0.06111 -0.0116,0.03191 -0.0053,0.0676 0.0165,0.09362 1.2223,1.45642 1.6781,1.26013 2.617,1.71338 L 71.0714,10.0426 C 70.788,9.03944 71.0605,8.62468 69.8382,7.16826 69.8163,7.14224 69.7823,7.12985 69.7488,7.13574 69.7154,7.14164 69.6876,7.16493 69.676,7.19685 69.6644,7.22876 69.6707,7.26445 69.6925,7.29046 70.02,7.68071 70.1144,8.21601 69.9402,8.69473 69.7659,9.17344 69.3494,9.52283 68.8477,9.61129 68.3459,9.69975 67.835,9.51385 67.5075,9.1236 65.7658,7.04819 66.7063,4.3977 65.9068,1.96612 Z M 65.1461,-12.1171 c 2.2562,1.2095 5.0302,0.7437 6.7719,2.81909 0.5063,0.60327 0.4276,1.50268 -0.1757,2.00888 -0.6034,0.50621 -1.503,0.42752 -2.0092,-0.17575 -0.0219,-0.02602 -0.0559,-0.03841 -0.0894,-0.03251 -0.0334,0.00589 -0.0612,0.02919 -0.0728,0.0611 -0.0116,0.03192 -0.0053,0.0676 0.0165,0.09362 1.2223,1.45643 1.6781,1.26014 2.617,1.71338 l -1.8937,1.58872 c -0.2834,-1.00319 -0.0109,-1.41794 -1.2331,-2.87437 -0.0219,-0.02602 -0.0559,-0.03841 -0.0894,-0.03251 -0.0334,0.00589 -0.0612,0.02919 -0.0728,0.0611 -0.0116,0.03191 -0.0053,0.0676 0.0165,0.09362 0.5059,0.6033 0.4271,1.50241 -0.1761,2.00849 -0.6032,0.50607 -1.5025,0.42757 -2.0089,-0.17536 -1.7418,-2.07541 -0.8012,-4.72589 -1.6008,-7.1575 z"
       style="display:inline"
       inkscape:label="layer-13" />
    <path
       d="m 63.928,-127.52 c 4.64,11.6 16.472,18.56 16.472,31.784 0,2.4866 -1.3266,4.7843 -3.48,6.0275 -2.1534,1.2433 -4.8066,1.2433 -6.96,0 -2.1534,-1.2432 -3.48,-3.5409 -3.48,-6.0275 0,-0.1658 -0.0884,-0.319 -0.232,-0.4018 -0.1436,-0.0829 -0.3204,-0.0829 -0.464,0 -0.1436,0.0828 -0.232,0.236 -0.232,0.4018 0,9.28 2.32,9.976 4.408,14.616 H 57.896 c 2.088,-4.64 4.408,-5.336 4.408,-14.616 0,-0.1658 -0.0884,-0.319 -0.232,-0.4018 -0.1436,-0.0829 -0.3204,-0.0829 -0.464,0 -0.1436,0.0828 -0.232,0.236 -0.232,0.4018 0,2.4866 -1.3266,4.7843 -3.48,6.0275 -2.1534,1.2433 -4.8066,1.2433 -6.96,0 -2.1534,-1.2432 -3.48,-3.5409 -3.48,-6.0275 0,-13.224 11.832,-20.184 16.472,-31.784 z"
       fill="#000000"
       id="path1597"
       style="display:none" />
  </g>
</svg>
