<?xml version="1.0" encoding="UTF-8" standalone="no"?>
<!-- Created with Inkscape (http://www.inkscape.org/) -->

<svg
   width="958.31"
   height="1024"
   viewBox="0 0 253.55286 270.93333"
   version="1.1"
   id="svg1003"
   inkscape:version="1.2.1 (9c6d41e410, 2022-07-14)"
   sodipodi:docname="club.svg"
   xmlns:inkscape="http://www.inkscape.org/namespaces/inkscape"
   xmlns:sodipodi="http://sodipodi.sourceforge.net/DTD/sodipodi-0.dtd"
   xmlns="http://www.w3.org/2000/svg"
   xmlns:svg="http://www.w3.org/2000/svg">
  <sodipodi:namedview
     id="namedview1005"
     pagecolor="#505050"
     bordercolor="#eeeeee"
     borderopacity="1"
     inkscape:showpageshadow="0"
     inkscape:pageopacity="0"
     inkscape:pagecheckerboard="0"
     inkscape:deskcolor="#505050"
     inkscape:document-units="mm"
     showgrid="false"
     inkscape:zoom="0.89263468"
     inkscape:cx="396.57881"
     inkscape:cy="561.25984"
     inkscape:window-width="2560"
     inkscape:window-height="1377"
     inkscape:window-x="1912"
     inkscape:window-y="-8"
     inkscape:window-maximized="1"
     inkscape:current-layer="layer1" />
  <defs
     id="defs1000" />
  <g
     inkscape:label="Layer 1"
     inkscape:groupmode="layer"
     id="layer1">
    <g
       id="use65"
       transform="matrix(0.27175119,0,0,0.27175128,126.77642,135.0577)">
      <path
         d="m 30,150 c 5,235 55,250 100,350 H -130 C -85,400 -35,385 -30,150 a 10,10 0 0 0 -20,0 210,210 0 1 1 -74,-201 10,10 0 0 0 14,-14 230,230 0 1 1 220,0 10,10 0 0 0 14,14 210,210 0 1 1 -74,201 10,10 0 0 0 -20,0 z"
         fill="#000000"
         id="path1024" />
    </g>
  </g>
</svg>
